<svg width="33" height="33" viewBox="0 0 33 33" fill="none" xmlns="http://www.w3.org/2000/svg">
<g clip-path="url(#clip0_109_515)">
<path d="M10.1127 0.895898C9.96445 1.04414 9.92578 1.14082 9.92578 1.35352C9.92578 1.50176 9.95801 1.67578 9.99668 1.74668C10.0289 1.81758 11.2986 2.80371 12.8133 3.93809C15.443 5.90391 15.5719 5.99414 15.8426 5.99414C16.2293 5.99414 16.5 5.72988 16.5 5.3625C16.5 5.2207 16.4807 5.05312 16.4613 4.99512C16.4227 4.89199 11.2277 0.953906 10.9119 0.779882C10.6541 0.644531 10.3189 0.689648 10.1127 0.895898Z" fill="#613EEA"/>
<path d="M26.2066 1.45665C25.3172 1.66935 24.4471 2.36544 24.0604 3.17111C23.7896 3.7254 23.7252 4.03478 23.7188 4.67931V5.20782L23.3514 5.25294C22.0172 5.42052 20.3736 6.3422 18.5303 7.95997C18.2854 8.17911 17.9373 8.42404 17.7697 8.50782C17.4152 8.68185 16.8932 9.20392 16.7063 9.57775C16.4227 10.1385 16.3389 10.5574 16.3389 11.5049C16.3453 12.9164 16.6676 14.3151 17.4797 16.3518L17.8664 17.3315L17.151 19.7678C16.7578 21.1084 16.4355 22.3137 16.4355 22.4426C16.4355 22.8293 16.6225 22.9776 17.4861 23.2676C18.4078 23.577 18.6463 23.5899 18.8654 23.3449C19.1168 23.0678 21.7852 17.2348 21.7852 16.9641C21.7852 16.7772 21.2824 12.9809 21.1793 12.3686C21.1471 12.2139 21.1922 12.1817 21.9141 11.8336C22.9195 11.3438 23.1 11.1375 22.9453 10.667C22.8551 10.3834 22.5973 10.1836 22.3395 10.1836C22.0559 10.1836 20.1223 11.1053 19.9031 11.3438C19.7678 11.4856 19.7227 11.6016 19.7227 11.782C19.7291 11.9109 19.8773 13.1098 20.0643 14.4375L20.3994 16.8545L19.2844 19.2715C18.6656 20.5992 18.1371 21.7594 18.0984 21.8496C18.0598 21.9399 18.0211 21.9785 18.0018 21.9399C17.9889 21.9012 18.266 20.8828 18.627 19.6776C18.9814 18.4723 19.2715 17.383 19.2715 17.2541C19.2715 17.1252 19.1619 16.7707 19.0201 16.4549C18.0855 14.3215 17.5506 12.0656 17.7311 10.9635C17.8535 10.2029 18.0404 9.9129 18.5883 9.66154C18.8074 9.56486 19.0846 9.37794 19.207 9.24903C19.8064 8.61739 21.3146 7.51525 22.1654 7.08986C23.6285 6.35509 24.402 6.46466 24.8596 7.45724C24.9563 7.66993 25.1689 8.57872 25.4396 9.96447C25.8328 11.9496 25.8844 12.1559 26.052 12.3363C26.1486 12.4459 26.6191 13.1613 27.0896 13.9219C27.7922 15.0498 27.934 15.3205 27.8566 15.3656C27.7857 15.4043 27.7277 15.3785 27.6439 15.269C27.5859 15.1852 26.9865 14.4246 26.3162 13.5803L25.098 12.0463L24.6469 10.5188C24.1313 8.73986 24.0539 8.6045 23.5576 8.6045C23.2998 8.6045 23.2289 8.63673 23.0678 8.8172C22.9453 8.95255 22.8809 9.09435 22.8809 9.22325C22.8809 9.33927 23.1 10.1643 23.3643 11.0666C23.7316 12.317 23.8863 12.7617 24.0281 12.9422C26.168 15.6686 27.0445 16.7449 27.1863 16.8352C27.4506 17.0092 27.6375 16.977 28.5012 16.6225C29.4293 16.2358 29.6484 16.0553 29.6484 15.6557C29.6484 15.4301 29.4873 15.1336 28.3852 13.3676L27.1219 11.3373L26.8061 9.71954C26.632 8.83009 26.4902 8.06954 26.4902 8.02443C26.4902 7.97286 26.6127 7.95997 26.8705 7.97931C27.3281 8.01154 28.0758 7.85685 28.4883 7.64415L28.7719 7.48947L29.0426 7.71505C29.6484 8.2049 30.3316 7.96642 30.3188 7.26388C30.3123 7.06407 30.2607 6.96095 30.048 6.74825L29.7902 6.47755L29.9127 6.28419C30.3123 5.659 30.4283 4.47306 30.1705 3.66739C29.6484 2.0174 27.9082 1.04415 26.2066 1.45665ZM27.7986 2.91329C28.1918 3.08087 28.6945 3.62872 28.8363 4.03478C28.8943 4.20236 28.9395 4.47306 28.9395 4.64064C28.9395 4.98868 28.7654 5.62677 28.6752 5.59454C28.643 5.58165 28.34 5.35607 28.0049 5.09181C27.399 4.61485 27.399 4.60841 27.5215 4.4795C27.6891 4.29904 27.7406 4.04122 27.6504 3.77696C27.5602 3.49337 27.341 3.35157 26.9994 3.35157C26.748 3.35157 26.69 3.39025 26.2066 3.8672C25.7104 4.35704 25.6846 4.38927 25.6846 4.66642C25.6846 5.02091 25.7297 5.07247 26.748 5.87169C27.1734 6.20685 27.515 6.49689 27.5215 6.51622C27.5279 6.6129 26.9285 6.62579 26.574 6.53556C24.866 6.10372 24.5566 3.88654 26.0777 2.99064C26.5869 2.68771 27.1992 2.66193 27.7986 2.91329Z" fill="#38004D"/>
<path d="M3.35156 5.99414V6.70312H4.02832H4.70508V5.99414V5.28516H4.02832H3.35156V5.99414Z" fill="#38004D"/>
<path d="M5.92969 5.99414V6.70312H6.63867H7.34766V5.99414V5.28516H6.63867H5.92969V5.99414Z" fill="#38004D"/>
<path d="M8.57227 5.99417V6.70959L9.26836 6.69026L9.95801 6.67092L9.97734 5.97483L9.99668 5.28518H9.28125H8.57227V5.99417Z" fill="#38004D"/>
<path d="M11.2148 5.99414V6.70312H11.8916H12.5684V5.99414V5.28516H11.8916H11.2148V5.99414Z" fill="#38004D"/>
<path d="M9.60351 8.01152C9.38437 8.12109 9.2039 8.48848 9.25546 8.7334C9.2748 8.83652 9.37792 9.0041 9.48105 9.10078L9.66796 9.28125H12.2461H14.8178L14.9853 9.13301C15.3141 8.84941 15.256 8.21133 14.8822 8.02441C14.6373 7.89551 9.85488 7.88262 9.60351 8.01152Z" fill="#613EEA"/>
<path d="M22.0365 13.9799C21.9012 14.1217 21.8496 14.2313 21.8496 14.4053C21.8496 14.8694 22.0945 15.1014 22.7197 15.2367C22.8744 15.269 22.9775 15.3721 23.1967 15.733C23.5125 16.2422 23.7445 16.4033 24.0926 16.3453C24.5309 16.2744 24.8016 15.8039 24.6275 15.4172C24.518 15.1787 24.0475 14.4375 23.8863 14.2571C23.7316 14.083 22.8551 13.793 22.4877 13.793C22.2879 13.793 22.1848 13.8381 22.0365 13.9799Z" fill="#38004D"/>
<path d="M5.89738 15.0305C5.62023 15.1787 4.12492 16.7256 4.05402 16.9319C3.99601 17.1123 4.04113 17.325 4.38273 18.5432C4.60187 19.3166 4.82101 20.0127 4.86613 20.0901C4.99504 20.2899 5.27863 20.3543 6.18742 20.3865C8.53996 20.4832 10.4413 21.5467 11.2405 23.216C11.5886 23.9444 11.7304 24.5567 11.7755 25.4912C11.8142 26.2453 11.898 26.5225 12.1364 26.6192C12.2138 26.6514 13.7027 27.0574 15.4364 27.5215C18.7751 28.4174 18.8911 28.4367 19.1812 28.1596C19.4841 27.876 19.4132 27.2637 19.0587 27.0768C18.9814 27.0381 17.6278 26.6643 16.0487 26.2453L13.1806 25.4783L13.129 24.924C12.8712 22.0365 11.0794 20.0256 8.10168 19.2715C7.70851 19.1748 7.06398 19.0588 6.67726 19.0201C6.29055 18.9815 5.96183 18.9364 5.94894 18.9299C5.93605 18.917 5.83293 18.5561 5.71047 18.1371L5.49133 17.3701L5.95539 16.8996C6.49035 16.3453 6.43234 16.3518 7.56672 16.7256C9.71301 17.441 11.8786 18.743 13.9089 20.5477L14.5212 21.0955L14.9273 21.0569C15.1464 21.0375 15.43 20.9731 15.5589 20.9215C15.7909 20.8248 15.9843 20.5412 15.9843 20.3028C15.9843 19.916 15.5653 19.5551 15.1851 19.6131C15.0111 19.6389 14.9337 19.5938 14.605 19.2908C13.5093 18.2789 11.7562 17.0994 10.2157 16.3389C8.9589 15.7137 8.16613 15.4108 7.10265 15.1465C6.2841 14.9403 6.09719 14.9209 5.89738 15.0305Z" fill="#38004D"/>
<path d="M23.3836 16.6804C23.2869 16.6933 23.1451 16.7642 23.0678 16.848C22.8937 17.0285 21.2115 21.1019 21.2051 21.3533C21.2051 21.5789 21.3598 21.8882 21.5209 21.9785C21.7465 22.0945 22.1525 22.0558 22.3266 21.8947C22.4426 21.798 22.7262 21.1793 23.2418 19.916C23.6543 18.9041 23.9959 18.0726 24.0088 18.0597C24.0217 18.0468 24.2408 18.0597 24.4922 18.0855L24.9562 18.1306L25.1174 18.4851C25.5428 19.4455 25.6846 20.6765 25.633 23.0355L25.6008 24.8337L25.7812 25.0207C26.1035 25.3365 26.6578 25.2398 26.8705 24.8337C27.0187 24.5501 27.1025 22.3394 27.0187 21.1277C26.8963 19.4455 26.6771 18.4787 26.2002 17.5312C25.9359 17.0027 25.6652 16.7578 25.343 16.7513C25.2141 16.7513 24.7564 16.7255 24.3311 16.7062C23.9057 16.6804 23.4803 16.6675 23.3836 16.6804Z" fill="#38004D"/>
<path d="M6.5356 21.682C4.67291 22.1074 3.55142 24.0474 4.11216 25.8779C4.84693 28.282 7.85689 29.0232 9.62935 27.2379C10.2674 26.5998 10.5704 25.8521 10.5704 24.9047C10.5704 23.1257 9.22974 21.7142 7.44439 21.6175C7.13502 21.6047 6.77408 21.6304 6.5356 21.682ZM7.83111 23.0806C8.64322 23.2869 9.2942 24.2472 9.19752 25.0851C9.03638 26.4064 7.67642 27.2121 6.50337 26.6707C5.32388 26.1293 4.97584 24.6404 5.81373 23.6929C6.13599 23.3191 6.54205 23.0806 6.94166 23.0162C7.26392 22.9646 7.39283 22.9711 7.83111 23.0806Z" fill="#38004D"/>
<path d="M6.83853 24.402C6.58072 24.6147 6.51627 24.9498 6.67095 25.2334C6.9481 25.7619 7.76666 25.6846 7.9149 25.1174C8.09537 24.4471 7.3606 23.9572 6.83853 24.402Z" fill="#613EEA"/>
<path d="M23.3965 25.7168C22.6102 25.865 21.8045 26.342 21.3856 26.9156C20.8828 27.6052 20.6895 28.1724 20.6895 28.9717C20.6895 29.5904 20.8184 30.1383 21.0826 30.6023L21.2695 30.9375H11.1891H1.10216L0.934579 31.0793C0.605868 31.3693 0.663876 32.0074 1.0377 32.1943C1.30841 32.3361 31.6916 32.3361 31.9623 32.1943C32.3361 32.0074 32.3941 31.3693 32.0654 31.0793L31.8979 30.9375H29.294H26.69L26.8447 30.6603C27.876 28.817 27.0188 26.5031 25.0658 25.8521C24.5953 25.6974 23.8219 25.633 23.3965 25.7168ZM24.6404 27.1734C25.3172 27.4054 25.8393 28.1144 25.8908 28.875C26.0133 30.5959 23.9121 31.5691 22.6682 30.3703C22.2492 29.9707 22.0816 29.5711 22.0752 29.0039C22.0752 28.1982 22.4555 27.5924 23.1709 27.2508C23.6221 27.0381 24.1635 27.0058 24.6404 27.1734Z" fill="#38004D"/>
<path d="M23.6543 28.3787C23.4351 28.4883 23.2547 28.8557 23.3062 29.1006C23.3256 29.2037 23.4287 29.3713 23.5318 29.468C23.8928 29.8096 24.4535 29.6742 24.6275 29.2102C24.8467 28.6365 24.215 28.0951 23.6543 28.3787Z" fill="#613EEA"/>
<path d="M15.4687 28.3658C14.8693 28.4947 14.7919 29.3584 15.3591 29.6162C15.6427 29.7451 17.9501 30.293 18.208 30.293C18.498 30.293 18.7945 30.0352 18.846 29.7451C18.8976 29.4873 18.7687 29.1844 18.5431 29.0426C18.4658 28.9975 17.8212 28.817 17.1122 28.6494C16.4033 28.4883 15.7974 28.34 15.7587 28.3336C15.7265 28.3271 15.5912 28.34 15.4687 28.3658Z" fill="#38004D"/>
</g>
<defs>
<clipPath id="clip0_109_515">
<rect width="33" height="33" fill="white"/>
</clipPath>
</defs>
</svg>
