<svg width="24" height="24" viewBox="0 0 24 24" fill="none" xmlns="http://www.w3.org/2000/svg">
<path d="M2.95332 3.65625C2.17051 3.75 1.44863 4.2375 1.05957 4.93125C0.731447 5.51719 0.750197 5.10937 0.750197 12C0.750197 18.8906 0.731447 18.4828 1.05957 19.0687C1.37363 19.6312 1.9502 20.0812 2.60176 20.2828C2.86895 20.3625 3.19238 20.3672 8.55488 20.3672H14.2314L14.4611 20.2453C15.0143 19.9641 15.2299 19.2984 14.9486 18.7453C14.8314 18.5062 14.5174 18.2531 14.2736 18.1922C14.1283 18.1547 12.4408 18.1406 8.6252 18.1406H3.18301L3.07051 18.0234L2.95332 17.9109V14.0625V10.2188H12.0002H21.0471V10.6266C21.0471 10.9594 21.0705 11.0859 21.1596 11.2734C21.3518 11.6906 21.6939 11.9062 22.1674 11.9062C22.5705 11.9062 22.8939 11.7281 23.0955 11.3906L23.2502 11.1375V8.46094C23.2502 5.48437 23.2502 5.48906 22.9361 4.92656C22.6268 4.37344 22.083 3.94219 21.4221 3.72187C21.1736 3.6375 20.7705 3.63281 12.2111 3.62812C7.28926 3.62344 3.12207 3.6375 2.95332 3.65625ZM20.9299 5.97656C21.0471 6.08906 21.0471 6.09375 21.0471 7.03125V7.96875H12.0002H2.95332V7.03125C2.95332 6.09375 2.95332 6.08906 3.07051 5.97656L3.18301 5.85937H12.0002H20.8174L20.9299 5.97656Z" fill="#38004D"/>
<path d="M19.4154 13.5141C19.1669 13.6078 18.9326 13.8234 18.8154 14.0813C18.7123 14.3016 18.7029 14.3813 18.7029 15.0563V15.7969H17.9669C17.2873 15.7969 17.2076 15.8063 16.9873 15.9094C16.2888 16.2328 16.1341 17.175 16.6919 17.7047C16.9685 17.9672 17.1138 18 17.9529 18H18.7029V18.7125C18.7029 19.1063 18.7263 19.5094 18.7544 19.6078C18.8154 19.8281 19.0826 20.1328 19.3263 20.2547C19.7341 20.4656 20.3904 20.3344 20.6482 19.9969C20.8779 19.6969 20.906 19.5563 20.906 18.75V18H21.6935C22.4716 18 22.4763 18 22.7107 17.8641C23.0623 17.6625 23.2216 17.4094 23.2404 17.0063C23.2638 16.5844 23.1701 16.3266 22.8982 16.0875C22.6123 15.8391 22.4341 15.7969 21.6138 15.7969H20.906V15.0328C20.906 14.1609 20.8638 14.0156 20.5404 13.725C20.2544 13.4672 19.7904 13.3781 19.4154 13.5141Z" fill="#613EEA"/>
</svg>
