<svg width="30" height="30" viewBox="0 0 30 30" fill="none" xmlns="http://www.w3.org/2000/svg">
<path d="M14.749 28.9395C14.538 28.8164 14.4736 28.5234 14.4736 27.6562C14.4736 26.8594 14.4677 26.8242 14.3271 26.6895C14.0869 26.4434 13.9111 26.4902 13.2607 26.9824C12.6044 27.4805 12.4111 27.5273 12.1591 27.2754C12.0009 27.1172 11.9658 26.8125 12.0888 26.6602C12.1298 26.6074 12.6455 26.1855 13.2431 25.7227C13.8408 25.2598 14.3564 24.8379 14.3974 24.7852C14.4502 24.7207 14.4677 23.8008 14.4736 20.9414V17.1855L14.3388 17.0625C14.2509 16.9805 14.1279 16.9336 13.999 16.9336C13.8115 16.9336 13.6181 17.1152 11.1455 19.5879C9.0771 21.6562 8.49703 22.2715 8.49703 22.3828C8.49703 22.4648 8.5732 23.1445 8.67281 23.8945C8.78414 24.7676 8.82515 25.3066 8.79586 25.3887C8.68453 25.6699 8.37398 25.7812 8.09273 25.6406C7.89351 25.5352 7.82906 25.3535 7.76461 24.7266C7.68843 23.9531 7.55953 23.7305 7.18453 23.7305C7.0439 23.7305 6.89156 23.8477 6.3525 24.375C5.74312 24.9727 5.67867 25.0195 5.46773 25.0195C5.16304 25.0195 4.9814 24.832 4.9814 24.5273C4.9814 24.3281 5.03414 24.252 5.62593 23.6484C6.15328 23.1094 6.27046 22.957 6.27046 22.8164C6.27046 22.4414 6.04781 22.3125 5.27437 22.2363C4.65328 22.1719 4.46578 22.1074 4.36617 21.9141C4.25484 21.6973 4.25484 21.5625 4.37203 21.3984C4.54195 21.1523 4.665 21.1465 6.1064 21.3281C6.8564 21.4277 7.53609 21.5039 7.61812 21.5039C7.72945 21.5039 8.34468 20.9238 10.413 18.8555C12.9267 16.3418 13.0673 16.1895 13.0673 15.9902C13.0673 15.8496 13.0263 15.7441 12.9326 15.6562L12.7978 15.5273H9.04781C6.1357 15.5273 5.27437 15.5449 5.20406 15.6035C5.15132 15.6387 4.73531 16.1602 4.27242 16.7578C3.80953 17.3555 3.39351 17.8711 3.34078 17.9121C3.2939 17.9531 3.16499 17.9883 3.05953 17.9883C2.63179 17.9883 2.42671 17.4785 2.71382 17.127C3.48726 16.1895 3.58687 15.9434 3.31148 15.6738C3.17671 15.5332 3.14156 15.5273 2.33296 15.5273C1.3896 15.5273 1.13179 15.457 1.03218 15.1641C0.950151 14.9238 1.04976 14.6953 1.28999 14.5781C1.45992 14.4902 1.65328 14.4727 2.3564 14.4727C3.21187 14.4727 3.21773 14.4727 3.33492 14.3203C3.54585 14.0508 3.49898 13.8867 3.01851 13.2539C2.52632 12.5977 2.47359 12.4043 2.72554 12.1582C2.88374 12 3.18843 11.9648 3.34664 12.0879C3.39351 12.1289 3.81539 12.6445 4.27828 13.2422C4.74703 13.8398 5.16304 14.3555 5.21578 14.3965C5.28023 14.4492 6.20015 14.4668 9.05953 14.4727H12.8154L12.9384 14.3379C13.0205 14.25 13.0673 14.127 13.0673 13.998C13.0673 13.8105 12.8857 13.6172 10.413 11.1445C8.34468 9.07617 7.72945 8.49609 7.61812 8.49609C7.53609 8.49609 6.8564 8.57227 6.1064 8.67188C5.23335 8.7832 4.69429 8.82422 4.61226 8.79492C4.33101 8.68359 4.21968 8.37305 4.36031 8.0918C4.46578 7.89258 4.64742 7.82812 5.27437 7.76367C6.04781 7.6875 6.27046 7.55859 6.27046 7.18359C6.27046 7.04297 6.15328 6.89062 5.62593 6.35156C5.02828 5.74219 4.9814 5.67773 4.9814 5.4668C4.9814 5.16211 5.1689 4.98047 5.47359 4.98047C5.67281 4.98047 5.74898 5.0332 6.3525 5.625C6.89156 6.15234 7.0439 6.26953 7.18453 6.26953C7.55953 6.26953 7.68843 6.04688 7.76461 5.27344C7.82906 4.65234 7.89351 4.46484 8.08687 4.36523C8.30367 4.25391 8.43843 4.25391 8.6025 4.37109C8.84859 4.54102 8.85445 4.66406 8.67281 6.10547C8.5732 6.85547 8.49703 7.53516 8.49703 7.61719C8.49703 7.72852 9.0771 8.34375 11.1455 10.4121C13.6591 12.9258 13.8115 13.0664 14.0107 13.0664C14.1513 13.0664 14.2568 13.0254 14.3447 12.9316L14.4736 12.7969V9.04688C14.4736 6.13477 14.456 5.27344 14.4033 5.20312C14.3623 5.15039 13.8408 4.73438 13.2431 4.27148C12.6455 3.80859 12.1298 3.39258 12.0888 3.33984C12.0478 3.29297 12.0127 3.16406 12.0127 3.05859C12.0127 2.63086 12.5224 2.42578 12.874 2.71289C13.8115 3.48633 14.0576 3.58594 14.3271 3.31055C14.4677 3.17578 14.4736 3.14062 14.4736 2.33203C14.4736 1.65234 14.4912 1.45312 14.5791 1.28906C14.7724 0.902344 15.2294 0.902344 15.4228 1.28906C15.5107 1.45898 15.5283 1.65234 15.5283 2.35547C15.5283 3.21094 15.5283 3.2168 15.6806 3.33398C15.9794 3.56836 16.1669 3.49219 16.9814 2.83008C17.3623 2.52539 17.6201 2.49609 17.8427 2.72461C18.0009 2.88281 18.0361 3.1875 17.913 3.3457C17.872 3.39258 17.3564 3.81445 16.7587 4.27734C16.1611 4.73438 15.6396 5.15625 15.6044 5.20312C15.5459 5.27344 15.5283 6.13477 15.5283 9.05273V12.8145L15.663 12.9375C15.7509 13.0195 15.874 13.0664 16.0029 13.0664C16.1904 13.0664 16.3837 12.8848 18.8564 10.4121C20.9248 8.34375 21.5048 7.72852 21.5048 7.61719C21.5048 7.53516 21.4287 6.85547 21.3291 6.10547C21.1474 4.66406 21.1533 4.54102 21.3994 4.37109C21.5634 4.25391 21.6982 4.25391 21.915 4.36523C22.1084 4.46484 22.1728 4.65234 22.2373 5.27344C22.3134 6.04688 22.4423 6.26953 22.8173 6.26953C22.958 6.26953 23.1103 6.15234 23.6494 5.625C24.2587 5.02734 24.3232 4.98047 24.5341 4.98047C24.8388 4.98047 25.0205 5.16797 25.0205 5.47266C25.0205 5.67188 24.9677 5.74805 24.3759 6.35156C23.8486 6.89062 23.7314 7.04297 23.7314 7.18359C23.7314 7.55859 23.9541 7.6875 24.7275 7.76367C25.3486 7.82812 25.5361 7.89258 25.6357 8.08594C25.747 8.30273 25.747 8.4375 25.6298 8.60156C25.4599 8.84766 25.3369 8.85352 23.8955 8.67188C23.1455 8.57227 22.4658 8.49609 22.3837 8.49609C22.2724 8.49609 21.6572 9.07617 19.5888 11.1445C17.0752 13.6582 16.9345 13.8105 16.9345 14.0098C16.9345 14.1504 16.9755 14.2559 17.0693 14.3438L17.2041 14.4727H20.9541C23.8662 14.4727 24.7275 14.4551 24.7978 14.4023C24.8505 14.3613 25.2666 13.8398 25.7295 13.2422C26.1923 12.6445 26.6084 12.1289 26.6611 12.0879C26.708 12.0469 26.8369 12.0117 26.9423 12.0117C27.3701 12.0117 27.5752 12.5215 27.288 12.873C26.5322 13.793 26.4326 14.0215 26.667 14.3203C26.7841 14.4727 26.79 14.4727 27.6455 14.4727C28.3486 14.4727 28.542 14.4902 28.7119 14.5781C28.9521 14.6953 29.0517 14.9238 28.9697 15.1641C28.8701 15.457 28.6123 15.5273 27.6689 15.5273C26.8603 15.5273 26.8252 15.5332 26.6904 15.6738C26.415 15.9434 26.497 16.1484 27.1709 16.9805C27.4755 17.3613 27.5048 17.6191 27.2763 17.8418C27.124 18 26.8134 18.0352 26.6611 17.9121C26.6084 17.8711 26.1923 17.3555 25.7295 16.7578C25.2666 16.1602 24.8447 15.6387 24.7978 15.6035C24.7275 15.5449 23.8662 15.5273 20.9482 15.5273H17.1865L17.0634 15.6621C16.9814 15.75 16.9345 15.873 16.9345 16.002C16.9345 16.1895 17.1162 16.3828 19.5888 18.8555C21.6572 20.9238 22.2724 21.5039 22.3837 21.5039C22.4658 21.5039 23.1455 21.4277 23.8955 21.3281C25.3369 21.1465 25.4599 21.1523 25.6298 21.3984C25.747 21.5625 25.747 21.6973 25.6357 21.9141C25.5361 22.1074 25.3486 22.1719 24.7275 22.2363C23.9541 22.3125 23.7314 22.4414 23.7314 22.8164C23.7314 22.957 23.8486 23.1094 24.3759 23.6484C24.9736 24.2578 25.0205 24.3223 25.0205 24.5332C25.0205 24.8379 24.833 25.0195 24.5283 25.0195C24.3291 25.0195 24.2529 24.9668 23.6494 24.375C23.1103 23.8477 22.958 23.7305 22.8173 23.7305C22.4423 23.7305 22.3134 23.9531 22.2373 24.7266C22.1728 25.3477 22.1084 25.5352 21.915 25.6348C21.6982 25.7461 21.5634 25.7461 21.3994 25.6289C21.1533 25.459 21.1474 25.3359 21.3291 23.8945C21.4287 23.1445 21.5048 22.4648 21.5048 22.3828C21.5048 22.2715 20.9248 21.6562 18.8564 19.5879C16.3427 17.0742 16.1904 16.9336 15.9912 16.9336C15.8505 16.9336 15.7451 16.9746 15.6572 17.0684L15.5283 17.2031V20.9531C15.5283 23.8652 15.5459 24.7266 15.6044 24.7969C15.6396 24.8438 16.0966 25.2129 16.6123 25.6055C17.8544 26.5605 17.9892 26.6895 17.9892 26.9355C17.9892 27.2051 17.7724 27.4219 17.497 27.4219C17.3505 27.4219 17.2158 27.3574 16.9814 27.1699C16.1669 26.5078 15.9794 26.4316 15.6806 26.666C15.5283 26.7832 15.5283 26.7891 15.5283 27.6328C15.5283 28.5352 15.4638 28.8223 15.247 28.9395C15.0947 29.0215 14.8837 29.0215 14.749 28.9395Z" fill="#171D33"/>
</svg>
