<svg width="18" height="18" viewBox="0 0 18 18" fill="none" xmlns="http://www.w3.org/2000/svg">
<g clip-path="url(#clip0_378_2082)">
<mask id="path-1-outside-1_378_2082" maskUnits="userSpaceOnUse" x="-0.15625" y="0.15625" width="18" height="18" fill="black">
<rect fill="white" x="-0.15625" y="0.15625" width="18" height="18"/>
<path d="M1.46953 1.46953C0.864844 2.0707 0.84375 2.09883 0.84375 2.23594C0.84375 2.31328 0.864844 2.40117 0.885938 2.43281C0.910547 2.46445 2.45742 3.54375 4.32422 4.83398C6.19102 6.12422 7.72031 7.18242 7.72383 7.18594C7.73086 7.18945 7.0207 8.05078 6.15234 9.09844L4.57031 11.0004L4.34883 10.916C4.2293 10.8703 3.73008 10.6734 3.24141 10.4801C2.67891 10.2551 2.30625 10.125 2.22539 10.125C2.10234 10.125 2.05313 10.1637 1.46953 10.7508C0.868359 11.352 0.84375 11.3801 0.84375 11.5137C0.84375 11.591 0.857813 11.6719 0.871875 11.6965C0.885938 11.7211 1.36055 12.0832 1.92305 12.5051L2.94258 13.2715L2.86172 13.4578C2.68945 13.8445 2.52422 14.4246 2.52773 14.632C2.52773 14.8781 2.61563 15.0926 2.78086 15.2473C3.11133 15.5602 3.52266 15.5461 4.41211 15.1875L4.72852 15.0609L5.49492 16.0805C5.9168 16.643 6.27891 17.1141 6.30352 17.1281C6.32813 17.1422 6.40899 17.1562 6.48633 17.1562C6.61992 17.1562 6.64805 17.1316 7.24922 16.5305C7.83281 15.9504 7.875 15.8977 7.875 15.7781C7.875 15.6938 7.7168 15.2508 7.43906 14.5477C7.10508 13.7074 7.01367 13.4367 7.0418 13.4051C7.06641 13.3805 7.9207 12.6668 8.94727 11.816C10.568 10.4695 10.8141 10.2797 10.8492 10.3289C12.4945 12.7195 15.525 17.0789 15.5672 17.1141C15.5988 17.1352 15.6867 17.1562 15.7641 17.1562C15.9012 17.1562 15.9293 17.1352 16.5305 16.5305C17.1281 15.9328 17.1563 15.9012 17.1563 15.7676C17.1563 15.6762 16.991 15.1945 16.6641 14.3227C16.3934 13.6055 16.1719 13.0043 16.1719 12.9867C16.1719 12.9727 16.3688 12.7582 16.6113 12.5156C16.8609 12.2625 17.0719 12.0164 17.1035 11.9426C17.1316 11.8723 17.1563 11.7141 17.1563 11.591C17.1563 11.3836 17.1387 11.3273 16.9313 10.9125C16.6184 10.2797 16.4355 10.125 15.9961 10.125C15.7324 10.125 15.5637 10.1918 15.3773 10.3746L15.2332 10.5152L14.6777 9.03164C14.3016 8.02969 14.1328 7.53398 14.1539 7.50586C14.1715 7.48125 14.4703 7.22109 14.8184 6.93281C15.1664 6.64453 15.5496 6.30703 15.6691 6.18398C16.4566 5.36836 17.0051 4.2293 17.1563 3.0832C17.2582 2.33789 16.9313 1.59609 16.323 1.18477C15.9785 0.945704 15.7359 0.868361 15.293 0.850782C14.3016 0.812109 13.0465 1.29727 12.0938 2.0918C11.7598 2.36953 11.5945 2.54883 10.9898 3.27656C10.7191 3.60352 10.4836 3.86719 10.466 3.86719C10.4449 3.86719 9.76641 3.61758 8.95781 3.31524L7.48828 2.76328L7.62539 2.62266C7.8082 2.43633 7.875 2.26758 7.875 2.00391C7.875 1.56445 7.72031 1.38164 7.0875 1.06875C6.67266 0.861328 6.61641 0.84375 6.40899 0.84375C6.28594 0.84375 6.12774 0.868361 6.05742 0.896484C5.98359 0.928125 5.73398 1.14258 5.47734 1.3957L5.02734 1.84219L3.69844 1.34297C2.82305 1.01602 2.32031 0.84375 2.22891 0.84375C2.09883 0.84375 2.06367 0.875391 1.46953 1.46953ZM6.85547 1.61719C7.04531 1.71211 7.22109 1.82461 7.24219 1.85977C7.31953 2.00742 7.28438 2.10938 7.07695 2.32383L6.87305 2.53477L6.29297 2.3168C5.97305 2.19727 5.70234 2.08828 5.68477 2.07773C5.6707 2.06367 5.80078 1.91602 5.97305 1.74727C6.35274 1.37461 6.3668 1.37109 6.85547 1.61719ZM15.7887 1.57148C16.3441 1.8457 16.643 2.41875 16.5551 3.04805C16.4145 4.06758 15.9117 5.07305 15.1699 5.81484C14.8395 6.14883 5.56172 13.848 5.20313 14.0871C4.65469 14.4527 3.68086 14.8711 3.375 14.8711C3.2168 14.8711 3.12891 14.7832 3.12891 14.632C3.12891 14.3227 3.54727 13.3418 3.91289 12.7969C4.21523 12.3398 11.9355 3.07969 12.2977 2.73516C13.1168 1.95469 14.3121 1.43086 15.2227 1.45195C15.5215 1.45898 15.5848 1.47305 15.7887 1.57148ZM6.36328 2.98828C8.38477 3.74414 10.0441 4.36992 10.0512 4.37695C10.0688 4.39805 8.15274 6.69727 8.11758 6.69727C8.09649 6.69727 1.74023 2.32383 1.6207 2.22539C1.61016 2.21836 1.76836 2.04961 1.96523 1.84922L2.33086 1.48359L2.51016 1.54688C2.60859 1.58203 4.3418 2.22891 6.36328 2.98828ZM15.0715 11.8055L16.5199 15.6621L16.1543 16.0312C15.9539 16.2316 15.7816 16.3898 15.7746 16.3828C15.7113 16.302 11.3098 9.92461 11.2992 9.89648C11.2922 9.86836 13.5492 7.95586 13.6055 7.94883C13.616 7.94531 14.2734 9.68203 15.0715 11.8055ZM16.1402 10.7578C16.2316 10.8105 16.5586 11.468 16.5586 11.6051C16.5586 11.6965 16.5059 11.7703 16.2527 12.027C16.084 12.1992 15.9363 12.3293 15.9223 12.3152C15.9117 12.2977 15.8027 12.027 15.6797 11.707L15.4617 11.1305L15.6727 10.9266C15.8906 10.7156 15.9926 10.6805 16.1402 10.7578ZM3.375 11.1797C3.77227 11.3379 4.10625 11.475 4.12031 11.482C4.13438 11.4926 4.01133 11.6684 3.84609 11.8723C3.67734 12.0797 3.46992 12.3539 3.38555 12.4875C3.27656 12.6562 3.2168 12.7195 3.18867 12.6984C3.16406 12.6809 2.82305 12.4242 2.42578 12.1289C2.02852 11.8336 1.68047 11.5699 1.65234 11.5453C1.60664 11.5031 1.64883 11.4469 1.96523 11.1305L2.33086 10.7648L2.49258 10.8281C2.58047 10.8633 2.97773 11.0215 3.375 11.1797ZM6.88359 14.7832L7.23867 15.6621L6.88008 16.0207C6.6832 16.2211 6.51094 16.3828 6.50039 16.3828C6.48633 16.3828 6.24375 16.0699 5.95898 15.6867C5.6707 15.307 5.4 14.9449 5.3543 14.8852L5.27344 14.7762L5.56523 14.5793C5.72344 14.4703 5.99766 14.2664 6.16992 14.1223C6.3457 13.9781 6.49688 13.8691 6.51094 13.8832C6.52148 13.8938 6.69024 14.298 6.88359 14.7832Z"/>
</mask>
<path d="M1.46953 1.46953C0.864844 2.0707 0.84375 2.09883 0.84375 2.23594C0.84375 2.31328 0.864844 2.40117 0.885938 2.43281C0.910547 2.46445 2.45742 3.54375 4.32422 4.83398C6.19102 6.12422 7.72031 7.18242 7.72383 7.18594C7.73086 7.18945 7.0207 8.05078 6.15234 9.09844L4.57031 11.0004L4.34883 10.916C4.2293 10.8703 3.73008 10.6734 3.24141 10.4801C2.67891 10.2551 2.30625 10.125 2.22539 10.125C2.10234 10.125 2.05313 10.1637 1.46953 10.7508C0.868359 11.352 0.84375 11.3801 0.84375 11.5137C0.84375 11.591 0.857813 11.6719 0.871875 11.6965C0.885938 11.7211 1.36055 12.0832 1.92305 12.5051L2.94258 13.2715L2.86172 13.4578C2.68945 13.8445 2.52422 14.4246 2.52773 14.632C2.52773 14.8781 2.61563 15.0926 2.78086 15.2473C3.11133 15.5602 3.52266 15.5461 4.41211 15.1875L4.72852 15.0609L5.49492 16.0805C5.9168 16.643 6.27891 17.1141 6.30352 17.1281C6.32813 17.1422 6.40899 17.1562 6.48633 17.1562C6.61992 17.1562 6.64805 17.1316 7.24922 16.5305C7.83281 15.9504 7.875 15.8977 7.875 15.7781C7.875 15.6938 7.7168 15.2508 7.43906 14.5477C7.10508 13.7074 7.01367 13.4367 7.0418 13.4051C7.06641 13.3805 7.9207 12.6668 8.94727 11.816C10.568 10.4695 10.8141 10.2797 10.8492 10.3289C12.4945 12.7195 15.525 17.0789 15.5672 17.1141C15.5988 17.1352 15.6867 17.1562 15.7641 17.1562C15.9012 17.1562 15.9293 17.1352 16.5305 16.5305C17.1281 15.9328 17.1563 15.9012 17.1563 15.7676C17.1563 15.6762 16.991 15.1945 16.6641 14.3227C16.3934 13.6055 16.1719 13.0043 16.1719 12.9867C16.1719 12.9727 16.3688 12.7582 16.6113 12.5156C16.8609 12.2625 17.0719 12.0164 17.1035 11.9426C17.1316 11.8723 17.1563 11.7141 17.1563 11.591C17.1563 11.3836 17.1387 11.3273 16.9313 10.9125C16.6184 10.2797 16.4355 10.125 15.9961 10.125C15.7324 10.125 15.5637 10.1918 15.3773 10.3746L15.2332 10.5152L14.6777 9.03164C14.3016 8.02969 14.1328 7.53398 14.1539 7.50586C14.1715 7.48125 14.4703 7.22109 14.8184 6.93281C15.1664 6.64453 15.5496 6.30703 15.6691 6.18398C16.4566 5.36836 17.0051 4.2293 17.1563 3.0832C17.2582 2.33789 16.9313 1.59609 16.323 1.18477C15.9785 0.945704 15.7359 0.868361 15.293 0.850782C14.3016 0.812109 13.0465 1.29727 12.0938 2.0918C11.7598 2.36953 11.5945 2.54883 10.9898 3.27656C10.7191 3.60352 10.4836 3.86719 10.466 3.86719C10.4449 3.86719 9.76641 3.61758 8.95781 3.31524L7.48828 2.76328L7.62539 2.62266C7.8082 2.43633 7.875 2.26758 7.875 2.00391C7.875 1.56445 7.72031 1.38164 7.0875 1.06875C6.67266 0.861328 6.61641 0.84375 6.40899 0.84375C6.28594 0.84375 6.12774 0.868361 6.05742 0.896484C5.98359 0.928125 5.73398 1.14258 5.47734 1.3957L5.02734 1.84219L3.69844 1.34297C2.82305 1.01602 2.32031 0.84375 2.22891 0.84375C2.09883 0.84375 2.06367 0.875391 1.46953 1.46953ZM6.85547 1.61719C7.04531 1.71211 7.22109 1.82461 7.24219 1.85977C7.31953 2.00742 7.28438 2.10938 7.07695 2.32383L6.87305 2.53477L6.29297 2.3168C5.97305 2.19727 5.70234 2.08828 5.68477 2.07773C5.6707 2.06367 5.80078 1.91602 5.97305 1.74727C6.35274 1.37461 6.3668 1.37109 6.85547 1.61719ZM15.7887 1.57148C16.3441 1.8457 16.643 2.41875 16.5551 3.04805C16.4145 4.06758 15.9117 5.07305 15.1699 5.81484C14.8395 6.14883 5.56172 13.848 5.20313 14.0871C4.65469 14.4527 3.68086 14.8711 3.375 14.8711C3.2168 14.8711 3.12891 14.7832 3.12891 14.632C3.12891 14.3227 3.54727 13.3418 3.91289 12.7969C4.21523 12.3398 11.9355 3.07969 12.2977 2.73516C13.1168 1.95469 14.3121 1.43086 15.2227 1.45195C15.5215 1.45898 15.5848 1.47305 15.7887 1.57148ZM6.36328 2.98828C8.38477 3.74414 10.0441 4.36992 10.0512 4.37695C10.0688 4.39805 8.15274 6.69727 8.11758 6.69727C8.09649 6.69727 1.74023 2.32383 1.6207 2.22539C1.61016 2.21836 1.76836 2.04961 1.96523 1.84922L2.33086 1.48359L2.51016 1.54688C2.60859 1.58203 4.3418 2.22891 6.36328 2.98828ZM15.0715 11.8055L16.5199 15.6621L16.1543 16.0312C15.9539 16.2316 15.7816 16.3898 15.7746 16.3828C15.7113 16.302 11.3098 9.92461 11.2992 9.89648C11.2922 9.86836 13.5492 7.95586 13.6055 7.94883C13.616 7.94531 14.2734 9.68203 15.0715 11.8055ZM16.1402 10.7578C16.2316 10.8105 16.5586 11.468 16.5586 11.6051C16.5586 11.6965 16.5059 11.7703 16.2527 12.027C16.084 12.1992 15.9363 12.3293 15.9223 12.3152C15.9117 12.2977 15.8027 12.027 15.6797 11.707L15.4617 11.1305L15.6727 10.9266C15.8906 10.7156 15.9926 10.6805 16.1402 10.7578ZM3.375 11.1797C3.77227 11.3379 4.10625 11.475 4.12031 11.482C4.13438 11.4926 4.01133 11.6684 3.84609 11.8723C3.67734 12.0797 3.46992 12.3539 3.38555 12.4875C3.27656 12.6562 3.2168 12.7195 3.18867 12.6984C3.16406 12.6809 2.82305 12.4242 2.42578 12.1289C2.02852 11.8336 1.68047 11.5699 1.65234 11.5453C1.60664 11.5031 1.64883 11.4469 1.96523 11.1305L2.33086 10.7648L2.49258 10.8281C2.58047 10.8633 2.97773 11.0215 3.375 11.1797ZM6.88359 14.7832L7.23867 15.6621L6.88008 16.0207C6.6832 16.2211 6.51094 16.3828 6.50039 16.3828C6.48633 16.3828 6.24375 16.0699 5.95898 15.6867C5.6707 15.307 5.4 14.9449 5.3543 14.8852L5.27344 14.7762L5.56523 14.5793C5.72344 14.4703 5.99766 14.2664 6.16992 14.1223C6.3457 13.9781 6.49688 13.8691 6.51094 13.8832C6.52148 13.8938 6.69024 14.298 6.88359 14.7832Z" fill="white"/>
<path d="M1.46953 1.46953C0.864844 2.0707 0.84375 2.09883 0.84375 2.23594C0.84375 2.31328 0.864844 2.40117 0.885938 2.43281C0.910547 2.46445 2.45742 3.54375 4.32422 4.83398C6.19102 6.12422 7.72031 7.18242 7.72383 7.18594C7.73086 7.18945 7.0207 8.05078 6.15234 9.09844L4.57031 11.0004L4.34883 10.916C4.2293 10.8703 3.73008 10.6734 3.24141 10.4801C2.67891 10.2551 2.30625 10.125 2.22539 10.125C2.10234 10.125 2.05313 10.1637 1.46953 10.7508C0.868359 11.352 0.84375 11.3801 0.84375 11.5137C0.84375 11.591 0.857813 11.6719 0.871875 11.6965C0.885938 11.7211 1.36055 12.0832 1.92305 12.5051L2.94258 13.2715L2.86172 13.4578C2.68945 13.8445 2.52422 14.4246 2.52773 14.632C2.52773 14.8781 2.61563 15.0926 2.78086 15.2473C3.11133 15.5602 3.52266 15.5461 4.41211 15.1875L4.72852 15.0609L5.49492 16.0805C5.9168 16.643 6.27891 17.1141 6.30352 17.1281C6.32813 17.1422 6.40899 17.1562 6.48633 17.1562C6.61992 17.1562 6.64805 17.1316 7.24922 16.5305C7.83281 15.9504 7.875 15.8977 7.875 15.7781C7.875 15.6938 7.7168 15.2508 7.43906 14.5477C7.10508 13.7074 7.01367 13.4367 7.0418 13.4051C7.06641 13.3805 7.9207 12.6668 8.94727 11.816C10.568 10.4695 10.8141 10.2797 10.8492 10.3289C12.4945 12.7195 15.525 17.0789 15.5672 17.1141C15.5988 17.1352 15.6867 17.1562 15.7641 17.1562C15.9012 17.1562 15.9293 17.1352 16.5305 16.5305C17.1281 15.9328 17.1563 15.9012 17.1563 15.7676C17.1563 15.6762 16.991 15.1945 16.6641 14.3227C16.3934 13.6055 16.1719 13.0043 16.1719 12.9867C16.1719 12.9727 16.3688 12.7582 16.6113 12.5156C16.8609 12.2625 17.0719 12.0164 17.1035 11.9426C17.1316 11.8723 17.1563 11.7141 17.1563 11.591C17.1563 11.3836 17.1387 11.3273 16.9313 10.9125C16.6184 10.2797 16.4355 10.125 15.9961 10.125C15.7324 10.125 15.5637 10.1918 15.3773 10.3746L15.2332 10.5152L14.6777 9.03164C14.3016 8.02969 14.1328 7.53398 14.1539 7.50586C14.1715 7.48125 14.4703 7.22109 14.8184 6.93281C15.1664 6.64453 15.5496 6.30703 15.6691 6.18398C16.4566 5.36836 17.0051 4.2293 17.1563 3.0832C17.2582 2.33789 16.9313 1.59609 16.323 1.18477C15.9785 0.945704 15.7359 0.868361 15.293 0.850782C14.3016 0.812109 13.0465 1.29727 12.0938 2.0918C11.7598 2.36953 11.5945 2.54883 10.9898 3.27656C10.7191 3.60352 10.4836 3.86719 10.466 3.86719C10.4449 3.86719 9.76641 3.61758 8.95781 3.31524L7.48828 2.76328L7.62539 2.62266C7.8082 2.43633 7.875 2.26758 7.875 2.00391C7.875 1.56445 7.72031 1.38164 7.0875 1.06875C6.67266 0.861328 6.61641 0.84375 6.40899 0.84375C6.28594 0.84375 6.12774 0.868361 6.05742 0.896484C5.98359 0.928125 5.73398 1.14258 5.47734 1.3957L5.02734 1.84219L3.69844 1.34297C2.82305 1.01602 2.32031 0.84375 2.22891 0.84375C2.09883 0.84375 2.06367 0.875391 1.46953 1.46953ZM6.85547 1.61719C7.04531 1.71211 7.22109 1.82461 7.24219 1.85977C7.31953 2.00742 7.28438 2.10938 7.07695 2.32383L6.87305 2.53477L6.29297 2.3168C5.97305 2.19727 5.70234 2.08828 5.68477 2.07773C5.6707 2.06367 5.80078 1.91602 5.97305 1.74727C6.35274 1.37461 6.3668 1.37109 6.85547 1.61719ZM15.7887 1.57148C16.3441 1.8457 16.643 2.41875 16.5551 3.04805C16.4145 4.06758 15.9117 5.07305 15.1699 5.81484C14.8395 6.14883 5.56172 13.848 5.20313 14.0871C4.65469 14.4527 3.68086 14.8711 3.375 14.8711C3.2168 14.8711 3.12891 14.7832 3.12891 14.632C3.12891 14.3227 3.54727 13.3418 3.91289 12.7969C4.21523 12.3398 11.9355 3.07969 12.2977 2.73516C13.1168 1.95469 14.3121 1.43086 15.2227 1.45195C15.5215 1.45898 15.5848 1.47305 15.7887 1.57148ZM6.36328 2.98828C8.38477 3.74414 10.0441 4.36992 10.0512 4.37695C10.0688 4.39805 8.15274 6.69727 8.11758 6.69727C8.09649 6.69727 1.74023 2.32383 1.6207 2.22539C1.61016 2.21836 1.76836 2.04961 1.96523 1.84922L2.33086 1.48359L2.51016 1.54688C2.60859 1.58203 4.3418 2.22891 6.36328 2.98828ZM15.0715 11.8055L16.5199 15.6621L16.1543 16.0312C15.9539 16.2316 15.7816 16.3898 15.7746 16.3828C15.7113 16.302 11.3098 9.92461 11.2992 9.89648C11.2922 9.86836 13.5492 7.95586 13.6055 7.94883C13.616 7.94531 14.2734 9.68203 15.0715 11.8055ZM16.1402 10.7578C16.2316 10.8105 16.5586 11.468 16.5586 11.6051C16.5586 11.6965 16.5059 11.7703 16.2527 12.027C16.084 12.1992 15.9363 12.3293 15.9223 12.3152C15.9117 12.2977 15.8027 12.027 15.6797 11.707L15.4617 11.1305L15.6727 10.9266C15.8906 10.7156 15.9926 10.6805 16.1402 10.7578ZM3.375 11.1797C3.77227 11.3379 4.10625 11.475 4.12031 11.482C4.13438 11.4926 4.01133 11.6684 3.84609 11.8723C3.67734 12.0797 3.46992 12.3539 3.38555 12.4875C3.27656 12.6562 3.2168 12.7195 3.18867 12.6984C3.16406 12.6809 2.82305 12.4242 2.42578 12.1289C2.02852 11.8336 1.68047 11.5699 1.65234 11.5453C1.60664 11.5031 1.64883 11.4469 1.96523 11.1305L2.33086 10.7648L2.49258 10.8281C2.58047 10.8633 2.97773 11.0215 3.375 11.1797ZM6.88359 14.7832L7.23867 15.6621L6.88008 16.0207C6.6832 16.2211 6.51094 16.3828 6.50039 16.3828C6.48633 16.3828 6.24375 16.0699 5.95898 15.6867C5.6707 15.307 5.4 14.9449 5.3543 14.8852L5.27344 14.7762L5.56523 14.5793C5.72344 14.4703 5.99766 14.2664 6.16992 14.1223C6.3457 13.9781 6.49688 13.8691 6.51094 13.8832C6.52148 13.8938 6.69024 14.298 6.88359 14.7832Z" stroke="white" stroke-width="0.6" mask="url(#path-1-outside-1_378_2082)"/>
<path d="M13.2237 3.54137L13.2237 3.54138L13.2215 3.54107C13.1613 3.53247 13.1004 3.51649 13.0473 3.49625C12.9988 3.47776 12.9397 3.44931 12.8976 3.40724C12.8119 3.32155 12.785 3.19365 12.7856 3.0925C12.7861 2.99066 12.8147 2.86317 12.9011 2.77675C12.9817 2.69619 13.1022 2.66939 13.2061 2.66116C13.3175 2.65233 13.4463 2.66225 13.5777 2.68544C13.8395 2.73163 14.1367 2.83506 14.3641 2.98141C14.9417 3.34783 15.3369 4.03354 15.3369 4.68281C15.3369 4.82797 15.3238 4.96919 15.2487 5.07106C15.1623 5.18843 15.0291 5.2125 14.9056 5.2125C14.7906 5.2125 14.6776 5.18436 14.5912 5.09641C14.5092 5.01293 14.4738 4.89772 14.458 4.77584L14.458 4.77566C14.4289 4.54771 14.3925 4.39466 14.337 4.26949C14.2825 4.14672 14.2056 4.04201 14.0824 3.91701C13.9574 3.79375 13.8527 3.71688 13.7299 3.6624C13.6047 3.60685 13.4517 3.5705 13.2237 3.54137Z" fill="white" stroke="white" stroke-width="0.3"/>
<path d="M11.3812 5.0625C11.3812 4.94351 11.4122 4.82878 11.4955 4.7455C11.5788 4.66222 11.6935 4.63125 11.8125 4.63125C11.9315 4.63125 12.0462 4.66222 12.1295 4.7455C12.2128 4.82878 12.2437 4.94351 12.2437 5.0625C12.2437 5.18149 12.2128 5.29622 12.1295 5.3795C12.0462 5.46278 11.9315 5.49375 11.8125 5.49375C11.6935 5.49375 11.5788 5.46278 11.4955 5.3795C11.4122 5.29622 11.3812 5.18149 11.3812 5.0625Z" fill="white" stroke="white" stroke-width="0.3"/>
<path d="M10.5088 5.94048L10.5088 5.94047L10.5097 5.93944C10.516 5.93197 10.5222 5.92462 10.5284 5.91738C10.6851 5.73216 10.7794 5.6206 10.8531 5.56032C10.8975 5.52399 10.943 5.49834 10.9976 5.48545C11.0423 5.47488 11.0873 5.47495 11.1206 5.47499C11.1228 5.475 11.1249 5.475 11.127 5.475C11.1916 5.475 11.2584 5.47885 11.3205 5.50387C11.3885 5.53125 11.4339 5.57654 11.4707 5.62479C11.5962 5.78602 11.6094 5.99471 11.4894 6.16734C11.4588 6.21183 11.3077 6.39813 11.1077 6.6419C10.9028 6.89161 10.6384 7.21136 10.3753 7.52792C10.1121 7.84447 9.85009 8.15808 9.65001 8.39551C9.55002 8.51418 9.46525 8.6141 9.40348 8.68594C9.37266 8.72179 9.34715 8.75113 9.32817 8.77246C9.31875 8.78305 9.31035 8.79233 9.30344 8.7997C9.30326 8.79989 9.30304 8.80012 9.30279 8.80039C9.29896 8.8045 9.28742 8.81685 9.2749 8.82661L9.2749 8.82661C9.2332 8.85904 9.17859 8.87643 9.13921 8.88602C9.09444 8.89693 9.04295 8.90391 8.99297 8.90391C8.87801 8.90391 8.7649 8.87314 8.68156 8.78822C8.59869 8.70377 8.56875 8.58965 8.56875 8.47266C8.56875 8.42565 8.57443 8.37649 8.60013 8.31549C8.62315 8.26085 8.66048 8.20096 8.71437 8.12614C8.82232 7.97629 9.02157 7.73329 9.38387 7.29747C9.61616 7.01758 9.87146 6.70945 10.0868 6.44958C10.2686 6.23009 10.422 6.04503 10.5088 5.94048Z" fill="white" stroke="white" stroke-width="0.3"/>
</g>
<defs>
<clipPath id="clip0_378_2082">
<rect width="18" height="18" fill="white"/>
</clipPath>
</defs>
</svg>
