<svg width="32" height="32" viewBox="0 0 32 32" fill="none" xmlns="http://www.w3.org/2000/svg">
<path d="M4.68123 2.08953C3.67508 2.35201 2.76736 3.11209 2.32444 4.05262C1.99088 4.75801 1.99635 4.70333 2.01275 8.71152L2.02916 12.3643L2.17133 12.7306C2.38459 13.2829 2.6416 13.6821 3.04624 14.0813C3.46183 14.4969 3.85007 14.7429 4.41876 14.9507L4.81794 15.0984H8.53631C12.2273 15.0984 12.2602 15.0984 12.6375 14.9781C13.7147 14.6336 14.6333 13.7149 14.9778 12.6377C15.0981 12.2604 15.0981 12.2221 15.0981 8.56388C15.0981 4.90565 15.0981 4.86738 14.9778 4.49007C14.6388 3.42924 13.742 2.52152 12.6648 2.14968C12.3148 2.02938 12.2766 2.02938 8.64567 2.01845C5.58348 2.00751 4.93277 2.01845 4.68123 2.08953ZM12.107 3.87763C12.6375 4.08542 13.0366 4.49007 13.2444 5.03689C13.3429 5.2939 13.3483 5.49622 13.3483 8.56388C13.3483 11.6315 13.3429 11.8339 13.2444 12.0909C13.0968 12.4846 12.8507 12.8017 12.5336 13.015C12.025 13.3595 12.1289 13.3485 8.56365 13.3485C5.49599 13.3485 5.29367 13.3431 5.03667 13.2447C4.48985 13.0369 4.11801 12.676 3.88288 12.1182C3.78445 11.8885 3.77898 11.6807 3.76258 8.85369C3.75164 7.14761 3.76804 5.67667 3.79539 5.46341C3.82273 5.25562 3.90475 4.97127 3.97037 4.8291C4.21644 4.30415 4.77419 3.89404 5.36476 3.80655C5.51787 3.77921 7.03802 3.76827 8.75504 3.77374C11.5383 3.77921 11.8993 3.79014 12.107 3.87763Z" fill="#38004D"/>
<path d="M19.5548 2.08953C18.5486 2.35201 17.6409 3.11209 17.198 4.05262C16.8644 4.75801 16.8699 4.70333 16.8863 8.71152L16.9027 12.3643L17.0449 12.7306C17.2581 13.2829 17.5151 13.6821 17.9198 14.0813C18.3354 14.4969 18.7236 14.7429 19.2923 14.9507L19.6915 15.0984H23.4098C27.1009 15.0984 27.1337 15.0984 27.511 14.9781C28.5882 14.6336 29.5069 13.7149 29.8514 12.6377C29.9717 12.2604 29.9717 12.2221 29.9717 8.56388C29.9717 4.90565 29.9717 4.86738 29.8514 4.49007C29.5124 3.42924 28.6156 2.52152 27.5383 2.14968C27.1884 2.02938 27.1501 2.02938 23.5192 2.01845C20.457 2.00751 19.8063 2.01845 19.5548 2.08953ZM26.9806 3.87763C27.511 4.08542 27.9102 4.49007 28.118 5.03689C28.2164 5.2939 28.2219 5.49622 28.2219 8.56388C28.2219 11.6315 28.2164 11.8339 28.118 12.0909C27.9703 12.4846 27.7243 12.8017 27.4071 13.015C26.8986 13.3595 27.0024 13.3485 23.4372 13.3485C20.3695 13.3485 20.1672 13.3431 19.9102 13.2447C19.3634 13.0369 18.9915 12.676 18.7564 12.1182C18.658 11.8885 18.6525 11.6807 18.6361 8.85369C18.6252 7.14761 18.6416 5.67667 18.6689 5.46341C18.6963 5.25562 18.7783 4.97127 18.8439 4.8291C19.09 4.30415 19.6477 3.89404 20.2383 3.80655C20.3914 3.77921 21.917 3.76827 23.6286 3.77374C26.4119 3.77921 26.7728 3.79014 26.9806 3.87763Z" fill="#38004D"/>
<path d="M4.68123 16.963C3.67508 17.2255 2.76736 17.9856 2.32444 18.9261C1.99088 19.6315 1.99635 19.5768 2.01275 23.585L2.02916 27.2378L2.17133 27.6041C2.38459 28.1564 2.6416 28.5556 3.04624 28.9548C3.46183 29.3704 3.85007 29.6164 4.41876 29.8242L4.81794 29.9719H8.53631C12.2273 29.9719 12.2602 29.9719 12.6375 29.8516C13.7147 29.5071 14.6333 28.5884 14.9778 27.5112C15.0981 27.1339 15.0981 27.0956 15.0981 23.4374C15.0981 19.7791 15.0981 19.7409 14.9778 19.3636C14.6388 18.3027 13.742 17.395 12.6648 17.0232C12.3148 16.9029 12.2766 16.9029 8.64567 16.8919C5.58348 16.881 4.93277 16.8919 4.68123 16.963ZM12.107 18.7511C12.6375 18.9589 13.0366 19.3636 13.2444 19.9104C13.3429 20.1674 13.3483 20.3697 13.3483 23.4374C13.3483 26.505 13.3429 26.7073 13.2444 26.9643C13.0968 27.3581 12.8507 27.6752 12.5336 27.8885C12.025 28.233 12.1289 28.222 8.56365 28.222C5.49599 28.222 5.29367 28.2166 5.03667 28.1181C4.48985 27.9103 4.11801 27.5494 3.88288 26.9917C3.78445 26.762 3.77898 26.5542 3.76258 23.7272C3.75164 22.0211 3.76804 20.5502 3.79539 20.3369C3.82273 20.1291 3.90475 19.8448 3.97037 19.7026C4.21644 19.1776 4.77419 18.7675 5.36476 18.68C5.51787 18.6527 7.03802 18.6418 8.75504 18.6472C11.5383 18.6527 11.8993 18.6636 12.107 18.7511Z" fill="#38004D"/>
<path d="M22.2181 16.963C19.6262 17.4333 17.5155 19.5057 16.9905 22.1086C16.8319 22.8741 16.8319 24.0006 16.9905 24.7661C17.5209 27.4018 19.6371 29.4578 22.2837 29.9172C22.8798 30.0211 24.0062 30.0211 24.6186 29.9172C27.2926 29.4469 29.4471 27.2924 29.9173 24.6185C30.0376 23.9076 30.0267 22.7921 29.8845 22.1086C29.3486 19.4729 27.2434 17.4169 24.6186 16.9576C24.0171 16.8537 22.8032 16.8591 22.2181 16.963ZM24.5148 18.7949C25.3459 18.9753 26.281 19.5003 26.8606 20.1127C28.2386 21.5563 28.5886 23.667 27.7574 25.4497C26.6364 27.8447 23.8094 28.8727 21.4307 27.7572C19.7191 26.9589 18.6802 25.3239 18.6802 23.4374C18.6802 22.6281 18.8169 22.0539 19.1723 21.3321C19.6371 20.3916 20.3316 19.6752 21.2448 19.205C22.2837 18.6691 23.3336 18.5379 24.5148 18.7949Z" fill="#613EEA"/>
</svg>
