<svg width="24" height="24" viewBox="0 0 24 24" fill="none" xmlns="http://www.w3.org/2000/svg">
<rect x="2" y="2" width="20" height="20" rx="6" fill="white" stroke="#38004D" stroke-width="2"/>
<path d="M15.3344 10.1974L15.0162 11.409H9.17188L9.48567 10.1974H15.3344ZM12.2967 16.9091L9.3157 13.3615L9.32005 12.272H10.7931C11.1214 12.272 11.396 12.2109 11.6168 12.0889C11.8376 11.9669 12.0033 11.8013 12.1137 11.5921C12.2241 11.3829 12.2807 11.1446 12.2836 10.8773C12.2807 10.4764 12.1631 10.1495 11.9306 9.89673C11.7011 9.64104 11.3219 9.5132 10.7931 9.5132H9.17188L9.52925 7.98347H10.7931C11.534 7.98347 12.1514 8.09533 12.6454 8.31905C13.1422 8.53987 13.5141 8.85511 13.7611 9.26479C14.0109 9.67446 14.1373 10.1626 14.1402 10.7291C14.1373 11.2318 14.0531 11.6705 13.8875 12.0453C13.7248 12.4201 13.4676 12.7325 13.1161 12.9823C12.7674 13.2322 12.3127 13.4182 11.7519 13.5402L11.6822 13.5663L14.3494 16.8306V16.9091H12.2967ZM15.3431 7.98347L15.0162 9.21249H10.2048L10.5316 7.98347H15.3431Z" fill="#613EEA"/>
</svg>
