<svg width="32" height="32" viewBox="0 0 32 32" fill="none" xmlns="http://www.w3.org/2000/svg">
<path d="M7.61851 3.03555C6.55718 3.21328 5.61773 4.00547 5.21655 5.06172L5.10484 5.36133L5.0896 15.8477C5.07944 23.5156 5.0896 26.4102 5.13023 26.6133C5.16069 26.7656 5.28257 27.0855 5.39937 27.3191C5.6939 27.9234 6.14077 28.3602 6.77046 28.6648C7.02437 28.7918 7.37476 28.9188 7.53726 28.9441C7.74546 28.9848 10.7517 29 16.9876 29H26.1334L26.3568 28.8883C26.4787 28.8223 26.6513 28.6852 26.7326 28.5785C26.8798 28.3957 26.89 28.35 26.89 27.9844C26.89 27.6188 26.8798 27.573 26.7326 27.3902C26.6513 27.2836 26.4787 27.1465 26.3568 27.0805L26.1334 26.9688H17.013H7.89273L7.66929 26.852C7.54741 26.791 7.37476 26.6539 7.29351 26.5473C7.14624 26.3645 7.13609 26.3188 7.13609 25.9531C7.13609 25.5875 7.14624 25.5418 7.29351 25.359C7.37476 25.2523 7.54741 25.1152 7.66929 25.0492L7.89273 24.9375H17.013H26.1334L26.3568 24.8207C26.4787 24.7598 26.6513 24.6227 26.7326 24.516L26.89 24.318V22.3984V20.4789L26.7326 20.2809C26.3263 19.768 25.6154 19.7324 25.1787 20.1945C24.94 20.4535 24.9197 20.5754 24.8943 21.7738L24.874 22.9062H18.0236H11.1732V13.9688V5.03125H18.0287H24.8791L24.8943 10.5258C24.9095 16.452 24.8994 16.1727 25.1787 16.4773C25.6154 16.9395 26.3263 16.9039 26.7326 16.391L26.89 16.193V9.90625V3.61953L26.7326 3.42149C26.6513 3.31484 26.4787 3.17773 26.3568 3.11172L26.1334 3L16.9369 3.00508C11.8841 3.01016 7.6896 3.02539 7.61851 3.03555ZM9.14194 13.9688V22.9062H8.47163C7.84702 22.9113 7.61343 22.9316 7.2478 23.0332L7.11069 23.0688L7.12085 14.3598L7.13609 5.65078L7.29351 5.45274C7.37476 5.34609 7.54741 5.20898 7.66929 5.14297C7.86734 5.04649 7.9689 5.03125 8.51734 5.03125H9.14194V13.9688Z" fill="#38004D"/>
<path d="M14.271 9.15468C13.9511 9.32226 13.753 9.5914 13.7226 9.90117C13.687 10.2668 13.748 10.4953 13.9308 10.7035C14.271 11.0894 14.073 11.0742 18.0288 11.0742H21.5632L21.7866 10.9574C21.9085 10.8965 22.0812 10.7594 22.1624 10.6527C22.3097 10.4699 22.3198 10.4242 22.3198 10.0586C22.3198 9.69296 22.3097 9.64726 22.1624 9.46445C22.0812 9.35781 21.9085 9.2207 21.7866 9.15468L21.5632 9.04296H18.0288H14.4944L14.271 9.15468Z" fill="#613EEA"/>
</svg>
