<svg width="32" height="32" viewBox="0 0 32 32" fill="none" xmlns="http://www.w3.org/2000/svg">
<path d="M15.5333 3.02052C15.3467 3.08091 10.8886 4.89817 4.28941 7.59934C3.48235 7.93425 2.7302 8.27464 2.62588 8.3515C2.39529 8.52719 2.13176 8.92248 2.0549 9.20248C2.02745 9.30679 2 9.99307 2 10.7233C2 11.9201 2.01098 12.0848 2.1098 12.3484C2.25804 12.7491 2.54353 13.0621 2.92235 13.2488L3.23529 13.4025H16H28.7647L29.0776 13.2488C29.4565 13.0621 29.742 12.7491 29.8902 12.3484C29.989 12.0848 30 11.9201 30 10.7233C30 9.98758 29.9725 9.30679 29.9451 9.1915C29.8627 8.90052 29.5663 8.48876 29.3137 8.31307C29.1051 8.17032 16.8345 3.12483 16.4008 3.00405C16.1263 2.92719 15.8078 2.93268 15.5333 3.02052ZM16.4776 6.66601C16.7906 6.88562 16.8235 7.04483 16.8235 8.21425C16.8235 9.19699 16.818 9.28483 16.7027 9.48248C16.5765 9.70758 16.2416 9.91621 16 9.91621C15.7584 9.91621 15.4235 9.70758 15.2918 9.47699C15.1765 9.26836 15.171 9.21346 15.1875 8.14836C15.2039 7.09974 15.2094 7.02287 15.3247 6.86366C15.5827 6.50679 16.1263 6.41346 16.4776 6.66601Z" fill="#613EEA"/>
<path d="M4.63574 19.6338V24.1907H7.21613H9.79653V19.6338V15.077H7.21613H4.63574V19.6338Z" fill="#613EEA"/>
<path d="M13.4199 19.6338V24.1907H16.0003H18.5807V19.6338V15.077H16.0003H13.4199V19.6338Z" fill="#84A9FF"/>
<path d="M22.2041 19.6338V24.1907H24.7845H27.3649V19.6338V15.077H24.7845H22.2041V19.6338Z" fill="#613EEA"/>
<path d="M3.06499 25.9531C2.69715 26.0903 2.3897 26.3648 2.19205 26.7217L2.02734 27.0182V28.4456C2.02734 29.8236 2.03283 29.884 2.15362 30.1036C2.34578 30.466 2.58734 30.7076 2.92225 30.8723L3.23519 31.026H15.9999H28.7646L29.0775 30.8723C29.4564 30.6856 29.7418 30.3727 29.8956 29.9609C29.9999 29.6809 30.0054 29.5656 29.9889 28.3358L29.9724 27.0182L29.8077 26.7217C29.6046 26.3593 29.3026 26.0903 28.9183 25.9476C28.6273 25.8378 28.5066 25.8378 15.9834 25.8433C3.58107 25.8433 3.3395 25.8433 3.06499 25.9531Z" fill="#613EEA"/>
</svg>
