<svg width="18" height="19" viewBox="0 0 18 19" fill="none" xmlns="http://www.w3.org/2000/svg">
<path d="M0 16.7H18V18.5H0V16.7ZM1.8 9.5H3.6V15.8H1.8V9.5ZM6.3 9.5H8.1V15.8H6.3V9.5ZM9.9 9.5H11.7V15.8H9.9V9.5ZM14.4 9.5H16.2V15.8H14.4V9.5ZM0 5L9 0.5L18 5V8.6H0V5ZM1.8 6.1124V6.8H16.2V6.1124L9 2.5124L1.8 6.1124ZM9 5.9C8.7613 5.9 8.53239 5.80518 8.3636 5.6364C8.19482 5.46761 8.1 5.23869 8.1 5C8.1 4.7613 8.19482 4.53239 8.3636 4.3636C8.53239 4.19482 8.7613 4.1 9 4.1C9.23869 4.1 9.46761 4.19482 9.6364 4.3636C9.80518 4.53239 9.9 4.7613 9.9 5C9.9 5.23869 9.80518 5.46761 9.6364 5.6364C9.46761 5.80518 9.23869 5.9 9 5.9Z" fill="#613EEA"/>
</svg>
