<svg width="30" height="30" viewBox="0 0 30 30" fill="none" xmlns="http://www.w3.org/2000/svg">
<path d="M6.61547 2.92391C6.19945 3.05868 5.78343 3.33993 5.55492 3.65048C5.26781 4.04891 2.56078 9.52743 2.15648 10.5352C1.95726 11.0391 1.92211 11.6309 2.07445 12.1407C2.29711 12.9141 3.08226 13.7813 3.95531 14.2208C5.49632 15.0059 7.26586 14.7716 8.5432 13.6173L8.87718 13.3184L9.20531 13.6173C10.7991 15.0587 13.219 15.0294 14.7541 13.5411L15.0002 13.3009L15.2463 13.5411C16.7815 15.0294 19.1955 15.0587 20.7952 13.6173L21.1233 13.3184L21.4573 13.6173C22.8401 14.8712 24.8323 15.0294 26.4202 14.0216C27.0881 13.5938 27.7737 12.8028 27.9846 12.2169C28.1077 11.8653 28.1252 11.0919 28.008 10.752C27.8909 10.3888 24.6448 3.92587 24.4455 3.65048C24.2112 3.33407 23.801 3.05868 23.3674 2.91805C23.0334 2.81844 22.635 2.81258 14.9827 2.81844C7.42406 2.81844 6.92601 2.8243 6.61547 2.92391Z" fill="#613EEA"/>
<path d="M8.49609 15.1992C8.08593 15.4395 7.51171 15.6738 6.99609 15.8027C6.24609 15.9902 4.79296 15.9199 4.14843 15.6738C4.04882 15.6328 4.04296 15.9141 4.04296 21.0879V26.543H3.20507C2.45507 26.543 2.34375 26.5547 2.10937 26.6719C1.72265 26.8711 1.56445 27.1348 1.59375 27.5449C1.62304 27.9316 1.77539 28.1777 2.09179 28.3359C2.30859 28.4414 2.71875 28.4473 15 28.4473C27.2812 28.4473 27.6914 28.4414 27.9082 28.3359C28.2246 28.1777 28.3769 27.9316 28.4062 27.5449C28.4355 27.1348 28.2773 26.8711 27.8906 26.6719C27.6562 26.5547 27.5449 26.543 26.7949 26.543H25.957V21.0879C25.957 15.9141 25.9512 15.6328 25.8574 15.6738C25.582 15.7734 24.9961 15.8848 24.5156 15.9141C23.4316 15.9902 22.3828 15.7207 21.293 15.0879L21.1113 14.9824L20.7656 15.1875C19.9277 15.6914 19.1309 15.9023 18.0469 15.9023C17.4023 15.9023 17.1621 15.8789 16.7578 15.7734C16.2832 15.6445 15.5098 15.3105 15.1641 15.0762C15.0059 14.9766 14.9941 14.9766 14.8418 15.0762C14.4902 15.3105 13.7168 15.6445 13.2422 15.7734C12.8379 15.8789 12.5977 15.9023 11.9531 15.9023C10.8809 15.9023 10.1133 15.7031 9.25195 15.1992C9.06445 15.0879 8.89453 15 8.86523 15C8.84179 15.0059 8.67187 15.0937 8.49609 15.1992ZM18.0352 19.5059C18.3164 19.6523 18.5449 19.8926 18.6562 20.168C18.7383 20.3555 18.75 20.8125 18.75 23.4668V26.543H15H11.25V23.4492C11.25 20.5664 11.2617 20.3437 11.3613 20.127C11.4785 19.8691 11.707 19.6348 11.9824 19.4941C12.1348 19.4121 12.5273 19.4004 14.9883 19.3945C17.6602 19.3945 17.8301 19.4004 18.0352 19.5059Z" fill="#613EEA"/>
</svg>
