<svg width="32" height="32" viewBox="0 0 32 32" fill="none" xmlns="http://www.w3.org/2000/svg">
<g clip-path="url(#clip0_108_505)">
<path d="M7.225 2.34375C4.99375 3.15 4.1875 3.46875 4.06875 3.5875L3.90625 3.75625L3.9125 5.64375C3.9125 7.76875 3.96875 8.2625 4.35625 9.46875C5.0875 11.7562 6.63125 13.6812 8.6875 14.8625C9.3875 15.2625 10.2438 15.625 10.4938 15.625C10.6063 15.625 10.9375 15.525 11.2313 15.4C14.075 14.225 16.2937 11.5375 16.9 8.53125C17.0688 7.7 17.125 6.9125 17.125 5.3875C17.125 3.725 17.0938 3.5875 16.7 3.4125C16.575 3.35625 15.175 2.85 13.6 2.28125C11.55 1.54375 10.6562 1.25 10.475 1.25625C10.3125 1.25625 9.125 1.65625 7.225 2.34375ZM13.2188 3.55L15.7812 4.475L15.8 5.5375C15.8375 7.6 15.5875 8.9 14.8813 10.3063C14.2937 11.4625 13.2125 12.6875 12.1375 13.4C11.5188 13.8125 10.675 14.25 10.5 14.25C10.35 14.25 9.55 13.85 9.04375 13.525C7.13125 12.2875 5.85625 10.4125 5.36875 8.10625C5.25 7.5625 5.23125 7.25 5.225 5.975L5.21875 4.48125L7.84375 3.53125C9.2875 3.00625 10.5125 2.5875 10.5625 2.6C10.6125 2.61875 11.8125 3.04375 13.2188 3.55Z" fill="#38004D"/>
<path d="M11.1313 6.83746L10.2188 7.73746L9.89384 7.43746C9.36259 6.94996 9.10634 6.96871 8.48759 7.54996C7.81884 8.18121 7.73134 8.46871 8.05634 8.91246C8.32509 9.28121 9.43759 10.3437 9.68759 10.4687C9.95009 10.6062 10.4813 10.6062 10.7251 10.475C10.8251 10.425 11.5313 9.75621 12.2938 8.98746C13.6876 7.58746 13.7251 7.53746 13.7001 7.14371C13.6876 6.98121 12.9376 6.16246 12.6813 6.02496C12.5813 5.97496 12.4063 5.93746 12.2751 5.93746C12.0688 5.93746 11.9751 6.00621 11.1313 6.83746Z" fill="#613EEA"/>
<path d="M16.9375 11.8062C16.5688 12.175 16.75 12.7937 17.2563 12.9C17.3687 12.9187 18.1438 12.9375 18.9937 12.9375C20.175 12.9438 20.5562 12.9625 20.6438 13.025C20.7313 13.0938 21.2188 14.225 21.8813 15.8875L21.9937 16.1812L21.825 16.1187C21.475 15.9812 20.7188 15.875 20.1187 15.875C18.6438 15.875 17.3375 16.4 16.2313 17.4312L15.8188 17.825L14.4563 17.8C13.2563 17.775 13.0437 17.7562 12.6875 17.6375C12.1438 17.45 11.5563 17.4062 11.1375 17.5188C10.8063 17.6062 10.8063 17.6062 10.2438 17.3625C8.34375 16.55 6.15 16.4812 4.15625 17.1875C3.03125 17.5875 2.01875 18.2312 1.15 19.0938C0.3375 19.8938 0 20.375 0 20.725C0 21.075 0.1 21.1812 1.03125 21.8125C1.44375 22.0938 1.78125 22.3375 1.78125 22.3625C1.78125 22.3875 1.7 22.625 1.6 22.8875L1.41875 23.375H0.9375C0.50625 23.375 0.4375 23.3937 0.29375 23.5312C0.2125 23.6188 0.125 23.7625 0.10625 23.8562C0.06875 24.0563 0.725 27.1063 0.85 27.3C0.96875 27.475 1.18125 27.5625 1.51875 27.5625C1.78125 27.5687 1.78125 27.5687 2.0625 28.0438C2.425 28.6625 3.31875 29.5625 3.90625 29.9125C4.93125 30.5125 5.8125 30.75 6.96875 30.75C7.79375 30.75 8.4375 30.6375 9.125 30.3688C10.275 29.925 11.4438 28.9 12 27.85L12.1562 27.5625H15.8438C19.2437 27.5625 19.5438 27.5562 19.7063 27.45C19.8188 27.3875 20.0063 27.1125 20.2188 26.7188C20.4125 26.3562 20.5688 26.1312 20.5813 26.1875C21.0438 27.7062 21.3 28.175 22.1562 29.0375C23.3313 30.225 24.5813 30.75 26.25 30.75C27.8813 30.75 29.1625 30.2312 30.3062 29.1062C31.45 27.9813 32 26.65 32 25C32 23.35 31.5 22.1312 30.3438 20.9625C29.4625 20.0687 28.5938 19.5875 27.425 19.35C26.8375 19.2312 25.6812 19.2188 25.1375 19.3375C24.6875 19.4312 24.7375 19.4688 24.4875 18.8438L24.3313 18.4688L24.975 18.4875C25.7375 18.5125 25.8813 18.4563 26.2188 18C27.025 16.9 26.95 15.2875 26.0438 14.35L25.7625 14.05L24.9875 14.075C24.3062 14.0938 24.175 14.1125 23.8625 14.2625C23.6625 14.3562 23.3813 14.5562 23.225 14.7125L22.95 15L22.4375 13.7188C22.0063 12.6437 21.8813 12.3937 21.6625 12.1687C21.1688 11.6625 21.1562 11.6562 19.0125 11.6375L17.1187 11.6187L16.9375 11.8062ZM25.3375 15.6562C25.5125 16 25.5 16.575 25.3188 16.9187C25.1938 17.1687 25.1688 17.1875 24.9188 17.1875C24.35 17.1875 23.9375 16.7875 23.9375 16.2312C23.9375 15.95 23.9625 15.9 24.2125 15.6438C24.4875 15.375 24.5 15.3687 24.8563 15.3875C25.2125 15.4062 25.2188 15.4125 25.3375 15.6562ZM21.1187 17.2875C21.6187 17.4125 22.1938 17.6687 22.5312 17.9187C22.7125 18.05 22.8125 18.1937 22.8938 18.4187L23.0063 18.7375L22.4563 19.775L21.9062 20.8062L18.8938 20.8125H15.8875L15.9187 20.6687C16.2875 19.0062 17.4875 17.7312 19.0875 17.3125C19.6562 17.1625 20.5688 17.15 21.1187 17.2875ZM8.35625 18.15C8.84375 18.2562 9.5625 18.4812 9.6375 18.5562C9.6625 18.5813 9.63125 18.7437 9.5625 18.925C9.49375 19.1062 9.4375 19.3187 9.4375 19.4C9.4375 19.7188 9.39375 19.75 9.10625 19.6312C8.45625 19.35 8.00625 19.2812 6.9375 19.2875C6 19.2875 5.85625 19.3062 5.35625 19.4563C4.40625 19.75 3.60625 20.2188 2.9375 20.8687L2.56875 21.2312L2.09375 20.9187C1.8375 20.75 1.625 20.5813 1.625 20.55C1.625 20.4437 2.28125 19.8 2.76875 19.4312C3.65 18.7625 4.975 18.2188 6.0625 18.0625C6.6125 17.9875 7.80625 18.0312 8.35625 18.15ZM12.3562 18.9125C12.825 19.05 13.0625 19.0813 13.9563 19.1062C14.6875 19.1312 15 19.1625 14.9875 19.2125C14.975 19.25 14.8938 19.5188 14.8 19.8125C14.7063 20.1062 14.6188 20.45 14.5938 20.575L14.5563 20.8125H13.075C11.7688 20.8125 11.5625 20.7937 11.3375 20.6937C10.5312 20.325 10.525 19.25 11.325 18.8562C11.6062 18.7188 11.725 18.725 12.3562 18.9125ZM7.99375 20.6625C9.31875 20.9875 10.5563 22.0062 11.0375 23.1687L11.125 23.375H6.96875H2.8125L2.975 23.0437C3.45 22.1125 4.30625 21.3 5.21875 20.9062C6.025 20.5687 7.1875 20.4625 7.99375 20.6625ZM27.3375 20.6875C28.55 20.9937 29.65 21.875 30.2 22.9812C30.5875 23.7562 30.7063 24.3125 30.675 25.2062C30.6313 26.3562 30.2688 27.2062 29.45 28.0687C28.5938 28.9812 27.5 29.45 26.225 29.4438C25.0125 29.4375 24.0063 29.0125 23.125 28.125C22.2313 27.2375 21.8125 26.2312 21.8125 25C21.8125 23.7875 22.2375 22.7687 23.0938 21.9C23.3687 21.6187 23.6875 21.3438 23.8 21.2875C24 21.1875 24 21.1875 24.0562 21.325C24.0875 21.4062 24.2812 21.875 24.4813 22.375L24.8563 23.2812L24.6375 23.5C24.5188 23.6188 24.3438 23.875 24.2563 24.0625C24.1125 24.3625 24.0938 24.4875 24.0938 25.0312C24.0938 25.5687 24.1187 25.6937 24.2437 25.9375C24.4875 26.4062 24.7812 26.7188 25.2 26.9437C25.575 27.15 25.6187 27.1562 26.25 27.1562C26.8438 27.1562 26.9375 27.1375 27.2313 26.9875C27.7063 26.7375 27.95 26.4938 28.1938 26.05C28.4 25.675 28.4062 25.625 28.4062 25C28.4062 24.4 28.3875 24.3125 28.2313 24.0125C27.8687 23.3187 27.2188 22.8812 26.4937 22.825L26.0813 22.8L25.6625 21.7562C25.4375 21.1875 25.25 20.7 25.25 20.675C25.25 20.525 26.7437 20.5375 27.3375 20.6875ZM20.8875 22.675C20.725 22.975 20.2313 23.9062 19.7812 24.7375L18.9688 26.25H17.0813H15.1938L15.2625 26.0625C15.3688 25.7438 15.3 24.95 15.1313 24.6C14.8125 23.9562 14.15 23.5125 13.4125 23.4562C13.2063 23.4375 12.9313 23.45 12.8063 23.4875L12.575 23.55L12.5 23.2875C12.4563 23.15 12.3313 22.825 12.2188 22.575L12.0063 22.125H16.6H21.1875L20.8875 22.675ZM10.9313 24.8562C11.1125 25.55 11.25 26.125 11.25 26.1813C11.25 26.2312 9.91875 26.2438 6.58125 26.2375L1.90625 26.2188L1.775 25.625C1.70625 25.3 1.63125 24.9375 1.60625 24.825L1.56875 24.625H6.21875H10.8688L10.9313 24.8562ZM13.5875 24.8438C14.2875 25.175 14.0125 26.25 13.2312 26.25C12.9875 26.25 12.6687 25.9938 12.5688 25.7188C12.4938 25.5 12.5 25.4375 12.5813 25.2375C12.6875 24.9812 13.0063 24.75 13.2375 24.75C13.3188 24.75 13.475 24.7937 13.5875 24.8438ZM10.3938 27.8563C9.84375 28.5312 8.84375 29.1437 7.975 29.3438C7.43125 29.4688 6.50625 29.4688 5.96875 29.3438C5.1125 29.15 4.15625 28.575 3.63125 27.9437C3.4875 27.775 3.375 27.6187 3.375 27.6C3.375 27.5812 5.00625 27.5625 7.00625 27.5625H10.6313L10.3938 27.8563Z" fill="#38004D"/>
<path d="M16.6125 23.5375C16.3938 23.65 16.3125 23.8062 16.3125 24.0938C16.3125 24.6 16.5563 24.75 17.4 24.75C17.975 24.75 18.0063 24.7437 18.2 24.5687C18.375 24.4125 18.4062 24.3438 18.4062 24.0938C18.4062 23.8438 18.375 23.775 18.2 23.6187C18.0063 23.4438 17.975 23.4375 17.3875 23.4375C16.975 23.4438 16.725 23.475 16.6125 23.5375Z" fill="#613EEA"/>
</g>
<defs>
<clipPath id="clip0_108_505">
<rect width="32" height="32" fill="white"/>
</clipPath>
</defs>
</svg>
