<svg width="17" height="13" viewBox="0 0 17 13" fill="none" xmlns="http://www.w3.org/2000/svg">
<g clip-path="url(#clip0_259_1918)">
<path d="M12.5365 0.0864563H13.5079C14.7944 0.0864563 15.7265 0.395245 16.3041 1.01282C16.8883 1.6304 17.0983 2.39002 16.9408 3.29786C16.8095 4.06365 16.4485 4.71829 15.8643 5.26175C15.4705 5.62612 14.9454 5.91639 14.2759 6.12636C15.1948 6.34869 15.8315 6.73159 16.1925 7.27506C16.5469 7.81852 16.6585 8.49786 16.5141 9.31924C16.396 9.98622 16.1334 10.5914 15.7199 11.1226C15.3064 11.6599 14.7944 12.0798 14.184 12.3886C13.8033 12.58 13.2585 12.7221 12.5431 12.8085C11.5913 12.9259 10.9678 12.9876 10.6659 12.9876H7.03613C7.2593 12.9691 7.55467 12.9444 7.92223 12.9012H8.63111C8.93304 12.9012 9.56316 12.8394 10.5083 12.7221C11.2238 12.6356 11.7686 12.4936 12.1493 12.3021C12.7597 11.9872 13.2717 11.5672 13.6852 11.0361C14.0987 10.4988 14.3612 9.89976 14.4794 9.23278C14.6238 8.4114 14.5122 7.73206 14.1578 7.1886C13.7968 6.64513 13.1601 6.26223 12.2412 6.0399C12.9107 5.82993 13.4357 5.53966 13.8296 5.17529C14.4137 4.62565 14.7747 3.97102 14.906 3.2114C15.0635 2.30356 14.8535 1.54394 14.2693 0.926362C13.8624 0.494057 13.2848 0.216148 12.5365 0.0864563Z" fill="#F58220"/>
<path d="M3.75412 0H11.473C12.7595 0 13.6916 0.308789 14.2692 0.926366C14.8534 1.54394 15.0634 2.30356 14.9059 3.2114C14.7746 3.9772 14.4136 4.63183 13.8294 5.1753C13.4356 5.53967 12.9105 5.82993 12.241 6.03991C13.1599 6.26223 13.7966 6.64513 14.1576 7.1886C14.512 7.73207 14.6236 8.4114 14.4792 9.23278C14.3611 9.89976 14.0985 10.505 13.685 11.0361C13.2715 11.5734 12.7595 11.9933 12.1491 12.3021C11.7684 12.4936 11.2236 12.6356 10.5082 12.7221C9.55644 12.8394 8.93289 12.9012 8.63096 12.9012H7.92208C8.11899 12.8765 8.34215 12.8518 8.58501 12.8209C9.30045 12.7344 9.84524 12.5924 10.2259 12.401C10.8364 12.086 11.3483 11.666 11.7618 11.1349C12.1754 10.5976 12.4379 9.99858 12.5561 9.33159C12.7005 8.51021 12.5889 7.83088 12.2344 7.28741C11.8734 6.74394 11.2367 6.36105 10.3178 6.13872C10.9873 5.92874 11.5124 5.63848 11.9062 5.27411C12.4904 4.72447 12.8514 4.06983 12.9827 3.31021C13.1402 2.40238 12.9302 1.64276 12.346 1.02518C11.7684 0.407601 10.8298 0.0988124 9.54988 0.0988124H3.73443L3.75412 0ZM2.67767 12.9012C2.71049 12.79 2.73675 12.6727 2.74987 12.5553H2.75644L10.7445 9.87506L2.70393 11.9254C2.70393 11.9192 2.70393 11.9131 2.69736 11.9069L9.73366 7.41093L2.46763 11.3881C2.46107 11.3819 2.46107 11.3758 2.45451 11.3696L10.8232 2.28504L1.89659 10.7335L1.52246 12.9012H2.67767ZM1.92285 10.5791L8.01397 0.636105L2.23134 8.80665L1.92285 10.5791ZM2.82208 5.39762L4.463 0.938717L3.03868 4.11306L2.82208 5.39762Z" fill="white"/>
<path d="M2.75676 12.5553L10.7448 9.87506L2.70425 11.9254C2.70425 11.9192 2.70425 11.9131 2.69768 11.9069L9.73398 7.41093L2.46795 11.3881C2.46139 11.3819 2.46139 11.3758 2.45483 11.3696L10.8236 2.28504L1.83127 10.7953C1.81815 10.7891 1.81158 10.7829 1.79846 10.7767L8.00772 0.636108L1.01081 10.5297C0.984556 10.5297 0.958301 10.5235 0.932046 10.5235L4.46332 0.938721L0.118147 10.647V10.6532C0.0722008 10.6717 0.0131274 10.6903 0 10.6964L1.83127 0.0988159H9.55019C10.8367 0.0988159 11.7687 0.407604 12.3463 1.02518C12.9305 1.64276 13.1405 2.40238 12.983 3.31022C12.8517 4.07601 12.4907 4.73064 11.9066 5.27411C11.5127 5.63848 10.9876 5.92874 10.3181 6.13872C11.2371 6.36105 11.8737 6.74395 12.2347 7.28741C12.5892 7.83088 12.7008 8.51022 12.5564 9.33159C12.4382 9.99858 12.1757 10.6038 11.7622 11.1349C11.3486 11.6722 10.8367 12.0922 10.2263 12.401C9.84556 12.5924 9.30077 12.7344 8.58533 12.8209C7.63359 12.9382 7.01004 13 6.70811 13H2.63861C2.69112 12.858 2.7305 12.7097 2.74363 12.5553H2.75676Z" fill="#F58220"/>
</g>
<defs>
<clipPath id="clip0_259_1918">
<rect width="17" height="13" fill="white"/>
</clipPath>
</defs>
</svg>
