<svg width="32" height="32" viewBox="0 0 32 32" fill="none" xmlns="http://www.w3.org/2000/svg">
<mask id="path-1-outside-1_92_1120" maskUnits="userSpaceOnUse" x="6.21582" y="0" width="19" height="32" fill="black">
<rect fill="white" x="6.21582" width="19" height="32"/>
<path d="M9.70706 1.15234C9.58401 1.27539 9.55472 1.36328 9.55472 1.58594C9.55472 1.80859 9.58401 1.89648 9.70706 2.01953C9.84769 2.1543 9.90628 2.17188 10.293 2.17188H10.7266V4.01758V5.86328L10.5684 5.89844C9.65433 6.09766 9.03323 6.43164 8.41214 7.05859C7.89065 7.58594 7.64456 7.9668 7.40433 8.61719L7.24026 9.05664L7.22269 16.9668C7.20511 25.0879 7.20511 25.1523 7.42776 25.7852C7.70901 26.5762 8.51761 27.543 9.22073 27.9414L9.55472 28.1289V28.9082C9.55472 29.5996 9.5723 29.7109 9.69534 29.9805C9.87112 30.3613 10.1934 30.6836 10.5742 30.8594L10.8731 31H16H21.127L21.4258 30.8594C21.8067 30.6836 22.1289 30.3613 22.3047 29.9805C22.4278 29.7109 22.4453 29.5996 22.4453 28.9082V28.1289L22.7852 27.9414C23.4825 27.543 24.291 26.5762 24.5723 25.7852C24.795 25.1523 24.795 25.0879 24.7774 16.9668L24.7598 9.05664L24.5957 8.61719C24.3555 7.9668 24.1094 7.58594 23.5879 7.05859C22.9668 6.43164 22.3457 6.09766 21.4375 5.89844L21.2735 5.86328V4.01758V2.17188H21.7071C22.0938 2.17188 22.1524 2.1543 22.293 2.01953C22.416 1.89648 22.4453 1.80859 22.4453 1.58594C22.4453 1.36328 22.416 1.27539 22.293 1.15234L22.1348 1H16H9.86526L9.70706 1.15234ZM20.1016 4.01758V5.86328H18.9297H17.7578V4.75586V3.6543L17.6055 3.49609L17.4473 3.34375H16H14.5528L14.3946 3.49609L14.2422 3.6543V4.75586V5.86328H13.0703H11.8985V4.01758V2.17188H16H20.1016V4.01758ZM16.586 5.18945V5.86328H16H15.4141V5.18945V4.51562H16H16.586V5.18945ZM21.4258 7.16406C22.4043 7.46289 23.2598 8.31836 23.4766 9.21484L23.5117 9.37891H20.7871H18.0684L17.9102 9.53125C17.7871 9.6543 17.7578 9.74219 17.7578 9.96484C17.7578 10.1875 17.7871 10.2754 17.9102 10.3984L18.0684 10.5508H20.8457H23.6231L23.6055 17.7109C23.5879 24.8418 23.5879 24.877 23.4649 25.1992C23.2422 25.7793 23.0782 26.0371 22.7032 26.4121C22.2168 26.9043 21.6602 27.1738 20.9746 27.25C20.3301 27.3262 11.67 27.3262 11.0254 27.25C10.3399 27.1738 9.78323 26.9043 9.2969 26.4121C8.9219 26.0371 8.75784 25.7793 8.53519 25.1992C8.41214 24.877 8.41214 24.8418 8.39456 17.7109L8.37698 10.5508H11.1543H13.9317L14.0899 10.3984C14.2129 10.2754 14.2422 10.1875 14.2422 9.96484C14.2422 9.74219 14.2129 9.6543 14.0899 9.53125L13.9317 9.37891H11.2129H8.48831L8.52347 9.21484C8.61136 8.86914 8.90433 8.33594 9.18558 8.03125C9.6719 7.50977 10.2754 7.19336 10.9903 7.09375C11.1836 7.07031 13.545 7.05273 16.2344 7.05859C20.5 7.07031 21.168 7.08203 21.4258 7.16406ZM21.2617 28.9316C21.2325 29.4238 21.1563 29.5996 20.9278 29.7227C20.7168 29.834 11.2832 29.834 11.0723 29.7227C10.8438 29.5996 10.7676 29.4238 10.7383 28.9316L10.709 28.4805H16H21.291L21.2617 28.9316Z"/>
</mask>
<path d="M9.70706 1.15234C9.58401 1.27539 9.55472 1.36328 9.55472 1.58594C9.55472 1.80859 9.58401 1.89648 9.70706 2.01953C9.84769 2.1543 9.90628 2.17188 10.293 2.17188H10.7266V4.01758V5.86328L10.5684 5.89844C9.65433 6.09766 9.03323 6.43164 8.41214 7.05859C7.89065 7.58594 7.64456 7.9668 7.40433 8.61719L7.24026 9.05664L7.22269 16.9668C7.20511 25.0879 7.20511 25.1523 7.42776 25.7852C7.70901 26.5762 8.51761 27.543 9.22073 27.9414L9.55472 28.1289V28.9082C9.55472 29.5996 9.5723 29.7109 9.69534 29.9805C9.87112 30.3613 10.1934 30.6836 10.5742 30.8594L10.8731 31H16H21.127L21.4258 30.8594C21.8067 30.6836 22.1289 30.3613 22.3047 29.9805C22.4278 29.7109 22.4453 29.5996 22.4453 28.9082V28.1289L22.7852 27.9414C23.4825 27.543 24.291 26.5762 24.5723 25.7852C24.795 25.1523 24.795 25.0879 24.7774 16.9668L24.7598 9.05664L24.5957 8.61719C24.3555 7.9668 24.1094 7.58594 23.5879 7.05859C22.9668 6.43164 22.3457 6.09766 21.4375 5.89844L21.2735 5.86328V4.01758V2.17188H21.7071C22.0938 2.17188 22.1524 2.1543 22.293 2.01953C22.416 1.89648 22.4453 1.80859 22.4453 1.58594C22.4453 1.36328 22.416 1.27539 22.293 1.15234L22.1348 1H16H9.86526L9.70706 1.15234ZM20.1016 4.01758V5.86328H18.9297H17.7578V4.75586V3.6543L17.6055 3.49609L17.4473 3.34375H16H14.5528L14.3946 3.49609L14.2422 3.6543V4.75586V5.86328H13.0703H11.8985V4.01758V2.17188H16H20.1016V4.01758ZM16.586 5.18945V5.86328H16H15.4141V5.18945V4.51562H16H16.586V5.18945ZM21.4258 7.16406C22.4043 7.46289 23.2598 8.31836 23.4766 9.21484L23.5117 9.37891H20.7871H18.0684L17.9102 9.53125C17.7871 9.6543 17.7578 9.74219 17.7578 9.96484C17.7578 10.1875 17.7871 10.2754 17.9102 10.3984L18.0684 10.5508H20.8457H23.6231L23.6055 17.7109C23.5879 24.8418 23.5879 24.877 23.4649 25.1992C23.2422 25.7793 23.0782 26.0371 22.7032 26.4121C22.2168 26.9043 21.6602 27.1738 20.9746 27.25C20.3301 27.3262 11.67 27.3262 11.0254 27.25C10.3399 27.1738 9.78323 26.9043 9.2969 26.4121C8.9219 26.0371 8.75784 25.7793 8.53519 25.1992C8.41214 24.877 8.41214 24.8418 8.39456 17.7109L8.37698 10.5508H11.1543H13.9317L14.0899 10.3984C14.2129 10.2754 14.2422 10.1875 14.2422 9.96484C14.2422 9.74219 14.2129 9.6543 14.0899 9.53125L13.9317 9.37891H11.2129H8.48831L8.52347 9.21484C8.61136 8.86914 8.90433 8.33594 9.18558 8.03125C9.6719 7.50977 10.2754 7.19336 10.9903 7.09375C11.1836 7.07031 13.545 7.05273 16.2344 7.05859C20.5 7.07031 21.168 7.08203 21.4258 7.16406ZM21.2617 28.9316C21.2325 29.4238 21.1563 29.5996 20.9278 29.7227C20.7168 29.834 11.2832 29.834 11.0723 29.7227C10.8438 29.5996 10.7676 29.4238 10.7383 28.9316L10.709 28.4805H16H21.291L21.2617 28.9316Z" fill="#38004D"/>
<path d="M9.70706 1.15234C9.58401 1.27539 9.55472 1.36328 9.55472 1.58594C9.55472 1.80859 9.58401 1.89648 9.70706 2.01953C9.84769 2.1543 9.90628 2.17188 10.293 2.17188H10.7266V4.01758V5.86328L10.5684 5.89844C9.65433 6.09766 9.03323 6.43164 8.41214 7.05859C7.89065 7.58594 7.64456 7.9668 7.40433 8.61719L7.24026 9.05664L7.22269 16.9668C7.20511 25.0879 7.20511 25.1523 7.42776 25.7852C7.70901 26.5762 8.51761 27.543 9.22073 27.9414L9.55472 28.1289V28.9082C9.55472 29.5996 9.5723 29.7109 9.69534 29.9805C9.87112 30.3613 10.1934 30.6836 10.5742 30.8594L10.8731 31H16H21.127L21.4258 30.8594C21.8067 30.6836 22.1289 30.3613 22.3047 29.9805C22.4278 29.7109 22.4453 29.5996 22.4453 28.9082V28.1289L22.7852 27.9414C23.4825 27.543 24.291 26.5762 24.5723 25.7852C24.795 25.1523 24.795 25.0879 24.7774 16.9668L24.7598 9.05664L24.5957 8.61719C24.3555 7.9668 24.1094 7.58594 23.5879 7.05859C22.9668 6.43164 22.3457 6.09766 21.4375 5.89844L21.2735 5.86328V4.01758V2.17188H21.7071C22.0938 2.17188 22.1524 2.1543 22.293 2.01953C22.416 1.89648 22.4453 1.80859 22.4453 1.58594C22.4453 1.36328 22.416 1.27539 22.293 1.15234L22.1348 1H16H9.86526L9.70706 1.15234ZM20.1016 4.01758V5.86328H18.9297H17.7578V4.75586V3.6543L17.6055 3.49609L17.4473 3.34375H16H14.5528L14.3946 3.49609L14.2422 3.6543V4.75586V5.86328H13.0703H11.8985V4.01758V2.17188H16H20.1016V4.01758ZM16.586 5.18945V5.86328H16H15.4141V5.18945V4.51562H16H16.586V5.18945ZM21.4258 7.16406C22.4043 7.46289 23.2598 8.31836 23.4766 9.21484L23.5117 9.37891H20.7871H18.0684L17.9102 9.53125C17.7871 9.6543 17.7578 9.74219 17.7578 9.96484C17.7578 10.1875 17.7871 10.2754 17.9102 10.3984L18.0684 10.5508H20.8457H23.6231L23.6055 17.7109C23.5879 24.8418 23.5879 24.877 23.4649 25.1992C23.2422 25.7793 23.0782 26.0371 22.7032 26.4121C22.2168 26.9043 21.6602 27.1738 20.9746 27.25C20.3301 27.3262 11.67 27.3262 11.0254 27.25C10.3399 27.1738 9.78323 26.9043 9.2969 26.4121C8.9219 26.0371 8.75784 25.7793 8.53519 25.1992C8.41214 24.877 8.41214 24.8418 8.39456 17.7109L8.37698 10.5508H11.1543H13.9317L14.0899 10.3984C14.2129 10.2754 14.2422 10.1875 14.2422 9.96484C14.2422 9.74219 14.2129 9.6543 14.0899 9.53125L13.9317 9.37891H11.2129H8.48831L8.52347 9.21484C8.61136 8.86914 8.90433 8.33594 9.18558 8.03125C9.6719 7.50977 10.2754 7.19336 10.9903 7.09375C11.1836 7.07031 13.545 7.05273 16.2344 7.05859C20.5 7.07031 21.168 7.08203 21.4258 7.16406ZM21.2617 28.9316C21.2325 29.4238 21.1563 29.5996 20.9278 29.7227C20.7168 29.834 11.2832 29.834 11.0723 29.7227C10.8438 29.5996 10.7676 29.4238 10.7383 28.9316L10.709 28.4805H16H21.291L21.2617 28.9316Z" stroke="#38004D" stroke-width="0.4" mask="url(#path-1-outside-1_92_1120)"/>
<path d="M15.5664 9.53125C15.4434 9.6543 15.4141 9.74219 15.4141 9.96484C15.4141 10.1875 15.4434 10.2754 15.5664 10.3984C15.6895 10.5215 15.7773 10.5508 16 10.5508C16.2227 10.5508 16.3105 10.5215 16.4336 10.3984C16.5566 10.2754 16.5859 10.1875 16.5859 9.96484C16.5859 9.74219 16.5566 9.6543 16.4336 9.53125C16.3105 9.4082 16.2227 9.37891 16 9.37891C15.7773 9.37891 15.6895 9.4082 15.5664 9.53125Z" fill="#613EEA"/>
<path d="M14.4004 13.2168C14.3008 13.3223 14.2422 13.4629 14.2129 13.6621C14.1777 13.9141 14.1133 14.0195 13.7559 14.4355C13.2285 15.0566 13.0703 15.3789 13.0703 15.8887C13.0703 16.2285 13.0879 16.293 13.2227 16.4336C13.3457 16.5566 13.4336 16.5859 13.6562 16.5859C14.0254 16.5859 14.2188 16.4043 14.2715 15.9941C14.3066 15.7422 14.3711 15.6367 14.7285 15.2207C15.2559 14.5996 15.4141 14.2773 15.4141 13.7676C15.4141 13.4277 15.3965 13.3633 15.2617 13.2227C15.0391 13.0059 14.6172 13.0059 14.4004 13.2168Z" fill="#38004D"/>
<path d="M16.7618 13.2285C16.5977 13.3809 16.5801 13.4336 16.5274 13.9961C16.4102 15.2617 16.129 16.0352 15.5372 16.7383C15.0333 17.3359 14.6758 17.8516 14.4356 18.3262C14.3126 18.5605 14.2012 18.7539 14.1836 18.7539C14.1661 18.7539 14.1016 18.6074 14.0372 18.4258C13.9024 18.0332 13.3575 17.1895 13.0118 16.832C12.7891 16.6094 12.7364 16.5859 12.4903 16.5859C12.1329 16.5859 11.9864 16.7383 11.7227 17.377C11.0723 18.9707 10.7383 20.4297 10.8028 21.4727C10.9024 23.1719 12.2383 24.9004 14.0079 25.6035C14.7227 25.8848 15.3086 25.9785 16.1993 25.9434C17.0723 25.9141 17.5118 25.8145 18.2032 25.4922C19.6446 24.8242 20.67 23.6348 21.1094 22.123C21.2266 21.7188 21.2442 21.5254 21.2442 20.7168C21.2383 19.8086 21.2325 19.7676 21.0508 19.2871C20.8223 18.6777 20.5528 18.2207 19.7793 17.1133C18.7422 15.6367 18.3086 14.875 17.8751 13.7852C17.7637 13.5039 17.6231 13.252 17.5352 13.1875C17.3184 13.0117 16.9786 13.0352 16.7618 13.2285ZM17.6993 16.2461C17.8399 16.4805 18.2442 17.0957 18.6075 17.6113C19.8204 19.3457 20.043 19.8379 20.043 20.7402C20.0372 22.2754 19.1465 23.6699 17.7403 24.3438C17.1719 24.6191 16.6739 24.7305 15.9942 24.7305C14.4708 24.7305 13.1055 23.9102 12.4024 22.5684C11.9981 21.7832 11.9278 21.209 12.127 20.2422C12.2559 19.6035 12.6016 18.4609 12.6602 18.4609C12.6836 18.4609 12.7657 18.5957 12.836 18.7656C12.9532 19.041 13.0118 19.3164 13.0997 20.0547C13.1876 20.7754 13.8614 21.168 14.4766 20.8516C14.7286 20.7227 14.7461 20.6934 15.0333 19.9844C15.4844 18.8711 15.7891 18.3613 16.4571 17.5879C16.8731 17.1074 17.2188 16.5156 17.3536 16.0703C17.3946 15.9355 17.4297 15.8242 17.4356 15.8242C17.4473 15.8242 17.5645 16.0176 17.6993 16.2461Z" fill="#613EEA"/>
</svg>
