<svg width="24" height="24" viewBox="0 0 24 24" fill="none" xmlns="http://www.w3.org/2000/svg">
<path d="M4 19.5C4 18.837 4.26339 18.2011 4.73223 17.7322C5.20107 17.2634 5.83696 17 6.5 17H20" stroke="#38004D" stroke-width="2" stroke-linecap="round" stroke-linejoin="round"/>
<path d="M6.5 2H20V22H6.5C5.83696 22 5.20107 21.7366 4.73223 21.2678C4.26339 20.7989 4 20.163 4 19.5V4.5C4 3.83696 4.26339 3.20107 4.73223 2.73223C5.20107 2.26339 5.83696 2 6.5 2Z" stroke="#38004D" stroke-width="2" stroke-linecap="round" stroke-linejoin="round"/>
<g clip-path="url(#clip0_154_620)">
<path d="M13.3111 9.72413C13.614 9.44759 13.8326 9.05472 13.9148 8.6357C13.931 8.55439 13.9386 8.42749 13.9398 8.3089C13.941 8.18959 13.936 8.06059 13.9217 7.97437M13.3111 9.72413L13.9217 7.97414C13.9217 7.97422 13.9217 7.9743 13.9217 7.97437M13.3111 9.72413C13.3547 9.74371 13.3984 9.76473 13.4532 9.79189L13.4539 9.79227C14.0187 10.0765 14.4781 10.5063 14.8044 11.0534L14.8045 11.0535C15.0724 11.5034 15.2223 12.005 15.2527 12.5569L15.2611 12.7024L15.2704 12.8611H15.1114H14.8674H14.6222H14.4722V12.7111V12.6515C14.4722 12.2689 14.3098 11.7283 14.0961 11.4021L14.096 11.4019C13.7602 10.8874 13.3138 10.5391 12.7718 10.3619L12.7717 10.3619C12.2534 10.1919 11.7472 10.1919 11.2289 10.3619L11.2287 10.3619C10.6868 10.5391 10.2404 10.8874 9.90453 11.4019L9.90439 11.4021C9.69072 11.7283 9.52834 12.2689 9.52834 12.6515V12.7111V12.8611H9.37834H9.13315H8.88916H8.73017L8.73941 12.7024L8.7479 12.5567C8.77832 12.0049 8.92814 11.5034 9.19605 11.0535L9.19612 11.0534C9.52249 10.5063 9.98184 10.0765 10.5466 9.79227L10.5474 9.79189C10.6021 9.76473 10.6458 9.74371 10.6895 9.72413C10.3866 9.44764 10.168 9.05485 10.0857 8.63592C10.0857 8.63584 10.0857 8.63577 10.0857 8.6357L10.2329 8.60681M13.3111 9.72413L10.0788 7.97458M13.9217 7.97437C13.8649 7.62654 13.6911 7.26149 13.4591 6.99743L13.4588 6.99701C13.171 6.67182 12.7672 6.44299 12.344 6.36634M13.9217 7.97437L12.344 6.36634M12.344 6.36634C12.2861 6.35579 12.1759 6.34762 12.0794 6.3431C12.0293 6.34075 11.9795 6.33923 11.9373 6.33895C11.8999 6.3387 11.858 6.33923 11.8285 6.34336C11.816 6.34495 11.7906 6.3485 11.7617 6.35253C11.7404 6.3555 11.7171 6.35874 11.6959 6.36164M12.344 6.36634L11.6959 6.36164M10.2329 8.60681C10.2062 8.47304 10.2026 8.14469 10.2268 7.99876M10.2329 8.60681C10.3141 9.02069 10.5389 9.40538 10.8441 9.66002L10.2329 8.60681ZM10.2268 7.99876L10.0788 7.97458M10.2268 7.99876L10.0789 7.97414C10.0788 7.97429 10.0788 7.97443 10.0788 7.97458M10.2268 7.99876C10.2924 7.59745 10.5097 7.20587 10.8168 6.93468M10.0788 7.97458C10.15 7.53881 10.3846 7.1162 10.7174 6.82234M10.8168 6.93468L10.7172 6.82244C10.7173 6.82241 10.7173 6.82237 10.7174 6.82234M10.8168 6.93468L10.7175 6.82224C10.7174 6.82227 10.7174 6.82231 10.7174 6.82234M10.8168 6.93468C11.0595 6.71943 11.4176 6.55039 11.7162 6.51026L10.7174 6.82234M10.7174 6.82234C10.9805 6.58906 11.3656 6.40613 11.6959 6.36164M10.7174 6.82234L11.6959 6.36164M11.1821 10.2193C11.7308 10.0394 12.2697 10.0394 12.8184 10.2193C13.395 10.4078 13.8684 10.7787 14.2216 11.3199C14.451 11.6701 14.6222 12.2393 14.6222 12.6515V12.7111H14.7722H14.8674H14.9611L14.9616 12.7198L15.1114 12.7111V12.5647L11.1821 10.2193ZM11.1821 10.2193C10.6056 10.4078 10.1321 10.7787 9.77892 11.3199C9.5495 11.6701 9.37834 12.2393 9.37834 12.6515L11.1821 10.2193ZM15.1114 12.5611V12.5647L13.3865 9.92627C13.9254 10.1975 14.3636 10.6073 14.6756 11.1302C14.9299 11.5572 15.073 12.0337 15.1027 12.5611H15.1114ZM13.1449 8.46614C13.2457 7.83836 12.8141 7.24109 12.1815 7.13748C11.5555 7.03658 10.9591 7.46856 10.8556 8.10299C10.7548 8.73078 11.1865 9.32805 11.8192 9.43162C12.4451 9.53246 13.0415 9.10052 13.1449 8.46614Z" fill="#613EEA" stroke="#613EEA" stroke-width="0.3"/>
</g>
<defs>
<clipPath id="clip0_154_620">
<rect width="8" height="8" fill="white" transform="translate(8 5.60001)"/>
</clipPath>
</defs>
</svg>
