<svg width="32" height="32" viewBox="0 0 32 32" fill="none" xmlns="http://www.w3.org/2000/svg">
<g clip-path="url(#clip0_92_1126)">
<path d="M22.3434 1.35624C20.8184 1.55624 19.3309 2.13124 18.2184 2.94999C17.6934 3.33749 16.6934 4.31874 16.5059 4.62499C16.2997 4.96874 16.3309 5.28124 16.5934 5.54374C16.7934 5.74374 16.8372 5.76249 17.0934 5.73749C17.3497 5.70624 17.4247 5.64999 18.0747 4.98749C18.8497 4.19999 19.5559 3.68749 20.3559 3.34374C22.7934 2.28749 25.4059 2.54999 27.5622 4.06874C27.8184 4.24999 28.3309 4.70624 28.6997 5.08124L29.3684 5.76874L29.6559 5.73124C30.1184 5.68124 30.3997 5.29374 30.2872 4.85624C30.1934 4.46249 28.9559 3.26874 28.0309 2.67499C27.0497 2.04374 25.8247 1.58124 24.6747 1.41249C24.0809 1.32499 22.8309 1.29374 22.3434 1.35624Z" fill="#38004D"/>
<path d="M22.3375 5.4C21.475 5.6 20.6875 6.01875 20.0938 6.59375C19.5438 7.13125 19.25 7.5875 19.25 7.91875C19.25 8.4125 19.7375 8.75 20.1813 8.5625C20.2875 8.51875 20.5063 8.3 20.6875 8.05625C21.225 7.33125 21.85 6.94375 22.75 6.76875C23.4625 6.625 24.0875 6.7125 24.7812 7.05625C25.2812 7.3 25.6625 7.65 26.225 8.35C26.4062 8.575 26.4437 8.59375 26.7438 8.59375C27.0375 8.59375 27.0938 8.56875 27.2563 8.3875C27.5188 8.09375 27.5063 7.80625 27.2 7.3375C26.6625 6.50625 25.575 5.725 24.5938 5.4625C24.0813 5.325 22.825 5.2875 22.3375 5.4Z" fill="#613EEA"/>
<path d="M22.9499 9.41249C22.6249 9.6375 22.6249 9.6375 22.6249 12.9375V16H12.7062C4.6374 16 2.7249 16.0187 2.46865 16.0875C1.33115 16.3875 0.387402 17.3312 0.0874023 18.4687C-0.0375977 18.9187 -0.0375977 25.0812 0.0874023 25.5312C0.387402 26.6687 1.33115 27.6125 2.46865 27.9125C2.64365 27.9625 3.05615 28 3.39365 28H3.9999V29.1312C3.9999 29.7812 4.0249 30.3062 4.0624 30.3812C4.2124 30.6562 4.7749 30.7812 5.0499 30.5875C5.3374 30.3875 5.3749 30.2062 5.3749 29.0625V28H15.9999H26.6249V29.0625C26.6249 30.2062 26.6624 30.3875 26.9499 30.5875C27.2249 30.7812 27.7874 30.6562 27.9374 30.3812C27.9749 30.3062 27.9999 29.7812 27.9999 29.1312V28H28.6312C29.1374 28 29.3499 27.9687 29.7311 27.8437C30.8187 27.475 31.6249 26.625 31.9124 25.5312C31.9811 25.2875 31.9999 24.4812 31.9999 22C31.9999 18.5187 31.9937 18.4937 31.6499 17.7812C31.4062 17.2812 30.7187 16.5937 30.2187 16.35C29.5187 16.0125 29.4312 16 26.6124 16H23.9999V12.8687C23.9999 10.8437 23.9749 9.7 23.9374 9.61875C23.7874 9.34374 23.2249 9.21874 22.9499 9.41249ZM29.3561 17.5125C29.8374 17.6937 30.3062 18.1625 30.4874 18.6437C30.6187 18.9937 30.6249 19.0875 30.6249 22C30.6249 24.9125 30.6187 25.0062 30.4874 25.3562C30.3062 25.8375 29.8374 26.3062 29.3561 26.4875L28.9937 26.625H15.9999H3.00615L2.64365 26.4875C2.1624 26.3062 1.69365 25.8375 1.5124 25.3562C1.38115 25.0062 1.3749 24.9125 1.3749 22C1.3749 19.0875 1.38115 18.9937 1.5124 18.6437C1.6874 18.1687 2.1624 17.6937 2.6249 17.5125L2.96865 17.3812H15.9812L28.9937 17.375L29.3561 17.5125Z" fill="#38004D"/>
<path d="M5.2 20.1313C4.475 20.4125 4 21.15 4 22C4 23.15 4.75625 23.9375 5.90625 23.9875C6.54375 24.0188 7 23.8563 7.39375 23.4813C7.79375 23.0875 7.9625 22.6938 7.9875 22.0938C8.01875 21.4313 7.85625 20.9875 7.4375 20.5625C6.88125 20.0125 5.96875 19.8375 5.2 20.1313ZM6.30625 21.4625C6.725 21.6813 6.7125 22.3563 6.28125 22.55C5.9625 22.6938 5.6125 22.5938 5.4625 22.3063C5.16875 21.7375 5.7375 21.1688 6.30625 21.4625Z" fill="#38004D"/>
<path d="M11.9813 20.0875C11.2063 20.3687 10.625 21.1875 10.625 22C10.625 22.3562 10.8063 22.8875 11.0375 23.2062C11.275 23.5312 11.7063 23.8375 12.0625 23.9375C12.4062 24.0375 13.0625 24.0125 13.4062 23.8937C13.8625 23.7312 14.3813 23.2 14.5625 22.7187C14.75 22.2125 14.7188 21.55 14.4813 21.0875C14.275 20.6875 13.775 20.2312 13.3937 20.1C13.0375 19.9812 12.3062 19.975 11.9813 20.0875ZM13.075 21.5562C13.2438 21.7062 13.2812 21.7812 13.2812 22C13.2812 22.2187 13.2438 22.2937 13.075 22.4437C12.8 22.6937 12.4937 22.6937 12.2437 22.4437C11.8563 22.0562 12.1187 21.375 12.65 21.375C12.8063 21.375 12.9313 21.4312 13.075 21.5562Z" fill="#38004D"/>
<path d="M25.2 20.1313C24.475 20.4125 24 21.15 24 22C24 23.15 24.7562 23.9375 25.9062 23.9875C26.5437 24.0188 27 23.8563 27.3937 23.4813C27.7937 23.0875 27.9625 22.6938 27.9875 22.0938C28.0187 21.4313 27.8562 20.9875 27.4375 20.5625C26.8812 20.0125 25.9687 19.8375 25.2 20.1313ZM26.3062 21.4625C26.725 21.6813 26.7125 22.3563 26.2812 22.55C25.9625 22.6938 25.6125 22.5938 25.4625 22.3063C25.1687 21.7375 25.7375 21.1688 26.3062 21.4625Z" fill="#613EEA"/>
</g>
<defs>
<clipPath id="clip0_92_1126">
<rect width="32" height="32" fill="white"/>
</clipPath>
</defs>
</svg>
