<svg width="18" height="19" viewBox="0 0 18 19" fill="none" xmlns="http://www.w3.org/2000/svg">
<path d="M4.27012 1.46017C4.00434 1.53927 3.85879 1.60888 3.65629 1.7481C3.18801 2.0645 2.83047 2.64353 2.77668 3.16243L2.7577 3.33013H2.40016C2.20398 3.33013 2.00465 3.34595 1.96035 3.36177C1.86543 3.39974 1.2073 4.02622 1.02379 4.2572L0.900391 4.41224V5.77595C0.900391 7.07638 0.903555 7.14915 0.963672 7.24407C1.04277 7.37696 1.19781 7.45606 1.375 7.45606C1.55219 7.45606 1.70723 7.37696 1.78633 7.24407C1.84645 7.14915 1.84961 7.07638 1.84961 5.98794V4.83306L2.11223 4.57044L2.37168 4.31099H2.57102H2.76719L2.77352 9.75001L2.78301 15.189L2.87793 15.3283C2.93172 15.401 3.04563 15.5118 3.13105 15.5687L3.28926 15.6763L3.30508 16.3787L3.3209 17.0843L3.41582 17.2393C3.47594 17.3343 3.57086 17.4292 3.66578 17.4893L3.82082 17.5842H4.83965H5.85848L6.01352 17.4893C6.10844 17.4292 6.20336 17.3343 6.26348 17.2393L6.3584 17.0843L6.36789 16.3914L6.37738 15.7016H9.00039H11.6234L11.6329 16.3914L11.6424 17.0843L11.7373 17.2393C11.7974 17.3343 11.8923 17.4292 11.9873 17.4893L12.1423 17.5842H13.1611H14.18L14.335 17.4893C14.4299 17.4292 14.5248 17.3343 14.585 17.2393L14.6799 17.0843L14.6894 16.3756L14.6989 15.67L14.8191 15.6099C14.9583 15.5371 15.1292 15.3536 15.1893 15.208C15.2273 15.1194 15.2336 14.2145 15.2336 9.70571V4.31099H15.4329H15.6291L15.8917 4.5736L16.1512 4.83306V5.98794C16.1512 7.07638 16.1543 7.14915 16.2145 7.24407C16.3853 7.52567 16.8663 7.52567 17.0371 7.24407C17.0972 7.14915 17.1004 7.07638 17.1004 5.77595V4.41224L16.977 4.2572C16.7935 4.02622 16.1354 3.39974 16.0404 3.36177C15.9961 3.34595 15.7968 3.33013 15.6006 3.33013H15.2431L15.2241 3.16243C15.1513 2.45368 14.5881 1.76392 13.8667 1.5013L13.6357 1.41587L9.04785 1.40954C4.70992 1.40321 4.45047 1.40638 4.27012 1.46017ZM13.5187 2.41888C13.8351 2.54544 14.0914 2.80173 14.2116 3.10864C14.2654 3.24153 14.2686 3.48517 14.278 6.62708L14.2875 9.99997L14.1989 10.019C13.3826 10.1867 11.6487 10.2689 9.01621 10.2721C6.38371 10.2721 4.62133 10.1867 3.805 10.019L3.71641 9.99997V6.76946C3.71641 4.99126 3.72906 3.4472 3.74488 3.33646C3.81766 2.8397 4.19418 2.45368 4.67512 2.38091C4.76688 2.36825 6.7634 2.35876 9.11113 2.36192C13.0599 2.36509 13.3921 2.36825 13.5187 2.41888ZM4.48527 11.0979C5.28262 11.1738 5.90594 11.2055 7.49113 11.2434C9.94012 11.3036 12.8099 11.2118 14.1388 11.0315L14.2844 11.0093V11.9427V12.8761L14.1989 12.8951C14.1483 12.9046 13.6832 12.9868 13.1611 13.0754C12.6391 13.164 12.1739 13.2526 12.1233 13.2716C11.9588 13.3349 11.886 13.4709 11.6835 14.1069L11.4873 14.7208H9.00039H6.51344L6.31727 14.1069C6.11477 13.4709 6.04516 13.3381 5.87746 13.2716C5.80785 13.2431 3.81766 12.8856 3.73539 12.8856C3.7259 12.8856 3.71641 12.4648 3.71641 11.949V11.0093L3.86195 11.0315C3.94105 11.0409 4.22266 11.0726 4.48527 11.0979ZM5.19402 14.1354C5.28895 14.1512 5.29844 14.1702 5.38703 14.436L5.48512 14.7208H4.59918H3.71641V14.2999V13.8791L4.40617 13.9993C4.7827 14.0626 5.13707 14.1259 5.19402 14.1354ZM14.2844 14.3094V14.7208H13.4016H12.5157L12.6138 14.436C12.6644 14.2778 12.7182 14.1512 12.7277 14.1512C12.7403 14.1481 13.0567 14.0943 13.4301 14.0278C13.8034 13.9582 14.1483 13.9044 14.1989 13.9013L14.2844 13.8981V14.3094ZM5.425 16.1762V16.6508H4.83965H4.2543V16.1762V15.7016H4.83965H5.425V16.1762ZM13.7465 16.1762V16.6508H13.1611H12.5758V16.1762V15.7016H13.1611H13.7465V16.1762Z" fill="white"/>
<path d="M7.32963 12.411C7.01006 12.6072 7.02272 13.0945 7.35494 13.2685C7.45619 13.3254 7.56694 13.3286 9.00026 13.3286C10.4336 13.3286 10.5443 13.3254 10.6456 13.2685C10.9778 13.0945 10.9905 12.6072 10.6709 12.411C10.5696 12.3509 10.5064 12.3478 9.00026 12.3478C7.49416 12.3478 7.43088 12.3509 7.32963 12.411Z" fill="white"/>
</svg>
