<svg width="32" height="32" viewBox="0 0 32 32" fill="none" xmlns="http://www.w3.org/2000/svg">
<g clip-path="url(#clip0_98_473)">
<path d="M6.65625 0.118752C6.13125 0.275002 5.84375 0.412502 5.44375 0.687502C4.51875 1.3125 3.8125 2.45625 3.70625 3.48125L3.66875 3.8125H2.9625C2.575 3.8125 2.18125 3.84375 2.09375 3.875C1.90625 3.95 0.60625 5.1875 0.24375 5.64375L0 5.95V8.64375C0 11.2125 0.00625 11.3563 0.125 11.5438C0.28125 11.8063 0.5875 11.9625 0.9375 11.9625C1.2875 11.9625 1.59375 11.8063 1.75 11.5438C1.86875 11.3563 1.875 11.2125 1.875 9.0625V6.78125L2.39375 6.2625L2.90625 5.75H3.3H3.6875L3.7 16.4938L3.71875 27.2375L3.90625 27.5125C4.0125 27.6563 4.2375 27.875 4.40625 27.9875L4.71875 28.2L4.75 29.5875L4.78125 30.9813L4.96875 31.2875C5.0875 31.475 5.275 31.6625 5.4625 31.7813L5.76875 31.9688H7.78125H9.79375L10.1 31.7813C10.2875 31.6625 10.475 31.475 10.5938 31.2875L10.7812 30.9813L10.8 29.6125L10.8188 28.25H16H21.1812L21.2 29.6125L21.2188 30.9813L21.4062 31.2875C21.525 31.475 21.7125 31.6625 21.9 31.7813L22.2063 31.9688H24.2188H26.2313L26.5375 31.7813C26.725 31.6625 26.9125 31.475 27.0312 31.2875L27.2188 30.9813L27.2375 29.5813L27.2563 28.1875L27.4937 28.0688C27.7688 27.925 28.1063 27.5625 28.225 27.275C28.3 27.1 28.3125 25.3125 28.3125 16.4063V5.75H28.7063H29.0938L29.6125 6.26875L30.125 6.78125V9.0625C30.125 11.2125 30.1313 11.3563 30.25 11.5438C30.5875 12.1 31.5375 12.1 31.875 11.5438C31.9937 11.3563 32 11.2125 32 8.64375V5.95L31.7563 5.64375C31.3938 5.1875 30.0938 3.95 29.9062 3.875C29.8188 3.84375 29.425 3.8125 29.0375 3.8125H28.3313L28.2938 3.48125C28.15 2.08125 27.0375 0.718752 25.6125 0.200003L25.1562 0.0312519L16.0938 0.0187511C7.525 0.00625229 7.0125 0.0125027 6.65625 0.118752ZM24.925 2.0125C25.55 2.2625 26.0562 2.76875 26.2938 3.375C26.4 3.6375 26.4062 4.11875 26.425 10.325L26.4438 16.9875L26.2688 17.025C24.6562 17.3563 21.2313 17.5188 16.0312 17.525C10.8313 17.525 7.35 17.3563 5.7375 17.025L5.5625 16.9875V10.6063C5.5625 7.09375 5.5875 4.04375 5.61875 3.825C5.7625 2.84375 6.50625 2.08125 7.45625 1.9375C7.6375 1.9125 11.5813 1.89375 16.2188 1.9C24.0188 1.90625 24.675 1.9125 24.925 2.0125ZM7.08125 19.1563C8.65625 19.3063 9.8875 19.3688 13.0188 19.4438C17.8563 19.5625 23.525 19.3813 26.15 19.025L26.4375 18.9813V20.825V22.6688L26.2688 22.7063C26.1688 22.725 25.25 22.8875 24.2188 23.0625C23.1875 23.2375 22.2688 23.4125 22.1688 23.45C21.8438 23.575 21.7 23.8438 21.3 25.1L20.9125 26.3125H16H11.0875L10.7 25.1C10.3 23.8438 10.1625 23.5813 9.83125 23.45C9.69375 23.3938 5.7625 22.6875 5.6 22.6875C5.58125 22.6875 5.5625 21.8563 5.5625 20.8375V18.9813L5.85 19.025C6.00625 19.0438 6.5625 19.1063 7.08125 19.1563ZM8.48125 25.1563C8.66875 25.1875 8.6875 25.225 8.8625 25.75L9.05625 26.3125H7.30625H5.5625V25.4813V24.65L6.925 24.8875C7.66875 25.0125 8.36875 25.1375 8.48125 25.1563ZM26.4375 25.5V26.3125H24.6938H22.9438L23.1375 25.75C23.2375 25.4375 23.3438 25.1875 23.3625 25.1875C23.3875 25.1813 24.0125 25.075 24.75 24.9438C25.4875 24.8063 26.1688 24.7 26.2688 24.6938L26.4375 24.6875V25.5ZM8.9375 29.1875V30.125H7.78125H6.625V29.1875V28.25H7.78125H8.9375V29.1875ZM25.375 29.1875V30.125H24.2188H23.0625V29.1875V28.25H24.2188H25.375V29.1875Z" fill="#38004D"/>
<path d="M12.6999 21.75C12.0687 22.1375 12.0937 23.1 12.7499 23.4438C12.9499 23.5562 13.1687 23.5625 15.9999 23.5625C18.8312 23.5625 19.0499 23.5562 19.2499 23.4438C19.9062 23.1 19.9312 22.1375 19.2999 21.75C19.0999 21.6313 18.9749 21.625 15.9999 21.625C13.0249 21.625 12.8999 21.6313 12.6999 21.75Z" fill="#613EEA"/>
</g>
<defs>
<clipPath id="clip0_98_473">
<rect width="32" height="32" fill="white"/>
</clipPath>
</defs>
</svg>
