<svg width="32" height="32" viewBox="0 0 32 32" fill="none" xmlns="http://www.w3.org/2000/svg">
<g clip-path="url(#clip0_98_534)">
<path d="M20.8 0.14377C20.3063 0.35627 20.1125 0.518769 18.7938 1.89377C17.7188 3.01252 17.625 3.13127 17.625 3.33127C17.625 3.61877 17.8188 3.81252 18.1063 3.81252C18.275 3.81252 18.3875 3.75002 18.6625 3.49377L19 3.16877V5.16252V7.15627L17.4063 8.75627L15.8125 10.3625V8.38127V6.40627L16.4375 5.75002C16.9563 5.20002 17.0563 5.06252 17.0625 4.88752C17.0625 4.57502 16.8125 4.35002 16.5125 4.39377C16.3188 4.42502 16.1625 4.55627 15.5 5.23752C15.0688 5.68752 11.95 8.86877 8.5625 12.3125L2.4125 18.5688L1.89375 18.8125C1.0375 19.2125 0.3875 19.9438 0.125 20.8C0.00625 21.1875 0 21.3875 0 26.3875V31.575L0.2125 31.7875L0.425 32H3.2625C6.36875 32 6.26875 32.0125 6.46875 31.625C6.54375 31.475 6.5625 31.0813 6.5625 29.3125C6.5625 27.2688 6.55625 27.1813 6.4375 27.0625C6.24375 26.8688 5.85625 26.8938 5.69375 27.1C5.56875 27.2625 5.5625 27.3375 5.5625 29.1313V31H3.25H0.9375V26.4813C0.9375 23.8813 0.96875 21.7875 1 21.5438C1.11875 20.725 1.575 20.0938 2.3 19.7375C2.675 19.55 2.76875 19.5313 3.28125 19.5313C3.75625 19.5313 3.89375 19.5563 4.1875 19.6938C4.7 19.9375 5.0875 20.3125 5.325 20.8L5.53125 21.2125L5.5625 23.325C5.59375 25.4 5.59375 25.4375 5.73125 25.575C5.925 25.7688 6.2875 25.7625 6.44375 25.5688C6.55625 25.4313 6.5625 25.2813 6.5625 23.3188L6.56875 21.2188L12.4125 15.2813C23.9188 3.60002 23.675 3.85627 23.8625 3.45627C24.0125 3.13127 24.0313 3.02502 24.0313 2.40627C24.0313 1.75627 24.0188 1.69377 23.825 1.30002C23.5938 0.831269 23.175 0.412519 22.7063 0.18127C22.4688 0.0687695 22.275 0.0375195 21.7813 0.0187695C21.2313 1.95503e-05 21.1125 0.0125195 20.8 0.14377ZM22.2813 1.11877C22.5688 1.24377 22.85 1.55002 22.9813 1.86877C23.1125 2.18127 23.0938 2.70627 22.9438 3.01877C22.8625 3.18752 22.3 3.80002 21.4063 4.68752L20 6.09377V4.08752V2.08127L20.4625 1.63752C20.7188 1.38752 21.0188 1.14377 21.1313 1.09377C21.425 0.968769 21.9813 0.981269 22.2813 1.11877ZM14.8125 9.41877L14.8063 11.4063L13.1875 13.05L11.5625 14.6938V12.7063V10.7188L13.1625 9.07502C14.0438 8.17502 14.775 7.43752 14.7875 7.43752C14.8 7.43752 14.8125 8.33127 14.8125 9.41877ZM8.9875 17.3125L7.40625 18.9313L7.3875 16.9625L7.375 14.9938L8.95 13.3688L10.5313 11.7438L10.55 13.7188L10.5625 15.6938L8.9875 17.3125ZM6.275 20.0688C6.175 20.1813 6.1625 20.1688 5.9875 19.9063C5.6125 19.3438 4.83125 18.7875 4.175 18.625L3.88125 18.55L5.1125 17.2813L6.34375 16.0063L6.3625 17.9813C6.375 19.7438 6.3625 19.9688 6.275 20.0688Z" fill="#38004D"/>
<path d="M15.7499 15.3063C15.0562 15.5313 14.3749 16.1313 14.3749 16.5188C14.3749 16.7938 14.5874 17 14.8687 17C15.0312 17 15.1499 16.9313 15.4312 16.6688C15.6437 16.475 15.8937 16.3063 16.0437 16.2625C16.2062 16.2125 16.7687 16.1875 17.6499 16.1875H18.9999V16.8063C18.9999 17.3375 19.0187 17.4438 19.1437 17.6313C19.4187 18.0438 19.5062 18.0625 21.5312 18.0625C23.5562 18.0625 23.6312 18.05 23.9249 17.625C24.0437 17.4438 24.0624 17.3375 24.0624 16.8063V16.1875H25.4062C26.8562 16.1875 26.9937 16.2125 27.4187 16.5375C27.5312 16.625 27.6937 16.825 27.7749 16.9875C27.9687 17.375 28.5937 20.1938 28.5312 20.425C28.4562 20.7313 28.2499 20.9875 27.9749 21.1188C27.7062 21.25 27.6812 21.25 21.3937 21.2375L15.0812 21.2188L14.8562 21.0438C14.5812 20.8375 14.4374 20.5813 14.4374 20.3C14.4374 20.1875 14.5124 19.7438 14.6062 19.3188C14.7562 18.6188 14.7624 18.5313 14.6812 18.3813C14.5062 18.0688 14.0312 18.0438 13.8437 18.3375C13.7874 18.4188 13.6687 18.8688 13.5687 19.3375L13.3937 20.1938L12.6187 20.8375C11.6999 21.5938 11.4812 21.8375 11.2437 22.3375C10.9437 22.9625 10.9312 23.1563 10.9499 26.0688C10.9687 28.7438 10.9687 28.7875 11.1062 29.0438C11.2999 29.3938 11.6374 29.7188 11.9749 29.8563L12.2499 29.9688V30.4875C12.2499 31.2563 12.4499 31.6438 12.9687 31.8813C13.1874 31.9813 13.3937 32 14.6437 32C15.9312 32 16.0874 31.9875 16.3062 31.8813C16.8249 31.6125 17.0624 31.1313 17.0624 30.3438V30H19.8624H22.6687L22.7999 29.8563C22.9999 29.6438 22.9874 29.3 22.7749 29.1313C22.6062 29 22.5749 29 17.5812 29C11.9999 29 12.2374 29.0188 12.0374 28.5938C11.9687 28.45 11.9374 28.2 11.9374 27.7563V27.125H13.4687C15.1374 27.125 15.2937 27.1 15.6437 26.7625C16.3374 26.1063 16.2187 24.9375 15.4124 24.4688C15.0812 24.275 13.9249 24.075 12.7187 24.0125L11.9687 23.9688L11.9812 23.5438C11.9937 22.9063 12.2062 22.525 12.8749 21.95C13.7124 21.225 13.6437 21.25 13.9374 21.5813C14.0812 21.7438 14.3499 21.9438 14.5499 22.0438L14.9062 22.2188H21.4687H28.0312L28.4562 22.0125C28.7437 21.8688 28.9374 21.7188 29.0812 21.5375L29.2874 21.2688L29.9499 21.825C30.5187 22.2938 30.6499 22.4438 30.8124 22.775C30.9812 23.1125 31.0062 23.225 30.9874 23.5688L30.9687 23.9688L30.2187 24.0125C29.1562 24.0688 27.8874 24.2688 27.5749 24.4313C26.7312 24.8625 26.5812 26.0875 27.2937 26.7625C27.6437 27.1 27.7999 27.125 29.4687 27.125H30.9999V27.8313C30.9999 28.6 30.9562 28.7375 30.6249 28.9063C30.4687 28.9875 29.9874 29 27.4999 29C24.1187 29 24.1874 28.9875 24.1874 29.5125C24.1874 29.675 24.2312 29.7875 24.3249 29.875C24.4437 29.9875 24.5437 30 25.1937 30H25.9249L25.9499 30.5438C25.9749 31.2063 26.1062 31.5063 26.4937 31.7813L26.7624 31.9688H28.3374H29.9187L30.1687 31.7938C30.5624 31.5188 30.7062 31.1938 30.7374 30.5188L30.7624 29.9438L30.9687 29.875C31.2812 29.775 31.6874 29.3813 31.8499 29.0375L31.9999 28.7188V25.8875C31.9999 23.1875 31.9937 23.0438 31.8687 22.675C31.6499 22.025 31.3624 21.6688 30.4374 20.9063L29.5937 20.2L29.2312 18.5563C29.0312 17.65 28.7999 16.7625 28.7249 16.5938C28.4937 16.1 28.1187 15.7188 27.5749 15.4563L27.0999 15.2188L21.5999 15.2063C16.4749 15.1938 16.0687 15.2 15.7499 15.3063ZM23.0624 16.625V17.0625H21.5312H19.9999V16.625V16.1875H21.5312H23.0624V16.625ZM13.7937 25.1313C14.3124 25.1938 14.7874 25.2688 14.8437 25.2875C14.9812 25.3438 15.1312 25.6563 15.0812 25.7938C14.9687 26.125 14.9624 26.125 13.3937 26.125H11.9374V25.5313V24.9375L12.3937 24.975C12.6374 24.9938 13.2687 25.0625 13.7937 25.1313ZM30.9999 25.5313V26.125L29.5249 26.1125L28.0437 26.0938L27.9249 25.9313C27.7812 25.7375 27.8249 25.475 28.0249 25.3438C28.1437 25.2625 29.6624 25.0313 30.4062 24.9813C30.5812 24.9688 30.7812 24.9563 30.8624 24.95C30.9937 24.9375 30.9999 24.9563 30.9999 25.5313ZM16.0624 30.3625C16.0624 30.5875 16.0249 30.775 15.9624 30.8625C15.8687 30.9938 15.8374 31 14.6312 31C13.7562 31 13.3812 30.9813 13.3249 30.925C13.2812 30.8813 13.2499 30.675 13.2499 30.425V30H14.6562H16.0624V30.3625ZM29.7499 30.3875C29.7499 31.0063 29.7687 31 28.3062 31C26.8749 31 26.9374 31.025 26.9374 30.3813V30H28.3437H29.7499V30.3875Z" fill="#38004D"/>
<path d="M2.78129 20.7625C1.71879 21.1375 1.51879 22.6 2.43754 23.2813C3.15004 23.8063 4.28129 23.4813 4.59379 22.6563C4.76254 22.2313 4.70004 21.6375 4.46254 21.3C4.11254 20.7938 3.36254 20.5563 2.78129 20.7625Z" fill="#613EEA"/>
<path d="M17.65 24.4C17.5063 24.5437 17.4375 24.6687 17.4375 24.7875C17.4375 25.1 17.7313 26.85 17.8063 26.9875C17.9813 27.3125 18 27.3125 21.4813 27.3125C23.925 27.3125 24.7563 27.2937 24.8688 27.2312C25.1563 27.0875 25.2438 26.875 25.375 26.0062C25.55 24.825 25.5438 24.6 25.3188 24.3687L25.1375 24.1875H21.5H17.8625L17.65 24.4ZM19.2188 25.5437C19.2375 25.7437 19.2688 26 19.2875 26.1125L19.3188 26.3187L18.9875 26.3L18.6625 26.2812L18.5875 25.8125C18.5438 25.5562 18.5063 25.3062 18.5063 25.2625C18.5 25.2125 18.6063 25.1875 18.8375 25.1875H19.1813L19.2188 25.5437ZM20.9375 25.75V26.3125H20.6313H20.3188L20.2875 26.0437C20.2688 25.9 20.2438 25.65 20.225 25.4812L20.1875 25.1875H20.5625H20.9375V25.75ZM22.7188 25.3875C22.7 25.5 22.675 25.7562 22.6563 25.95L22.6188 26.3125H22.275H21.9375V25.75V25.1875H22.3375H22.7438L22.7188 25.3875ZM24.4 25.6687C24.3563 25.9375 24.3188 26.1937 24.3188 26.2312C24.3125 26.2875 24.2 26.3125 23.9625 26.3125H23.6188L23.6563 26.0125C23.675 25.85 23.7063 25.6 23.725 25.45L23.7563 25.1875H24.1188H24.475L24.4 25.6687Z" fill="#613EEA"/>
</g>
<defs>
<clipPath id="clip0_98_534">
<rect width="32" height="32" fill="white"/>
</clipPath>
</defs>
</svg>
