<svg width="30" height="30" viewBox="0 0 30 30" fill="none" xmlns="http://www.w3.org/2000/svg">
<path d="M3.02266 10.6679C3.71146 8.05533 5.21955 5.75282 7.27253 4.05287C9.44143 2.25668 12.2207 1.12757 15.2862 1.01001C18.9251 0.871125 22.2795 2.18614 24.7604 4.42577C27.2406 6.66431 28.8467 9.82637 28.9895 13.3794C29.0433 14.713 28.8887 16.0034 28.5561 17.22C28.2861 18.2029 27.8969 19.1508 27.3969 20.0436C27.1709 19.7004 26.8777 19.4041 26.5341 19.1718C26.1906 18.9394 25.8034 18.7756 25.3949 18.6897C25.7393 18.0347 26.0165 17.3376 26.2164 16.6098C26.4902 15.6081 26.6173 14.5533 26.5742 13.4712C26.4577 10.5662 25.1462 7.98206 23.1218 6.15525C21.0974 4.3279 18.3562 3.25456 15.3808 3.36829C12.8793 3.46453 10.609 4.38695 8.83607 5.85616C7.21541 7.19852 6.01028 8.99744 5.42396 11.0369L6.48797 11.2015C6.83293 11.2535 7.06981 11.5695 7.01605 11.9058C6.99309 12.0534 6.91749 12.1803 6.81165 12.2721L3.97578 14.7381C3.71426 14.9651 3.3133 14.9426 3.0809 14.6873C3.0417 14.6446 3.01033 14.5987 2.98569 14.55L1.08672 11.3907C0.910316 11.0965 1.01168 10.7182 1.3124 10.5454C1.44512 10.4694 1.59464 10.4464 1.73576 10.4694L3.02266 10.6679ZM7.14541 26.4V18.9112C10.9299 18.9112 11.5723 18.7444 14.9832 20.8403H17.6634C18.8764 20.9108 19.512 22.1121 18.3326 22.9011C17.3935 23.5742 16.1531 23.5359 14.8819 23.4244C14.0049 23.3817 13.968 24.5321 14.8819 24.536C15.2 24.56 15.5444 24.4873 15.8451 24.4873C17.4305 24.4851 18.7375 24.1888 19.5372 22.9656L19.9382 22.0514L23.9248 20.1223C25.919 19.4815 27.3381 21.5177 25.8675 22.9355C22.9796 24.9865 20.0188 26.6739 16.9903 28.037C14.7906 29.3433 12.5903 29.2985 10.3923 28.037L7.14541 26.4ZM1.23736 18.1911H6.1066V27.1523H1.23736V18.1911ZM15.4021 19.4596C14.5688 18.7231 14.4753 17.4682 15.2039 16.6207C15.9498 15.7524 17.2748 15.6398 18.1641 16.3681C19.0528 17.0964 19.1687 18.3907 18.4228 19.2584C18.3388 19.3556 18.246 19.4453 18.1456 19.5263C17.2597 19.3541 16.2757 19.458 15.4021 19.4596ZM9.78976 17.5481L12.0477 7.17829L21.0632 9.15765L20.8084 10.3272L14.3672 8.91324L14.2832 8.89246C13.6583 8.76178 13.0423 9.15163 12.909 9.76294L12.7858 10.3278L12.7667 10.3239L12.2 13.0163L11.1875 17.6684C10.7524 17.5995 10.2999 17.565 9.78976 17.5481ZM12.0707 17.8641L13.8498 9.6935L22.8648 11.6729L21.0582 19.9725L19.8866 20.5395C19.7858 20.4083 19.6705 20.2858 19.5422 20.1737L20.7978 14.2012C20.0625 14.0404 19.5988 13.3242 19.764 12.6095L16.1985 11.8298C16.0338 12.5477 15.3008 12.9999 14.5688 12.8392L13.404 18.3764C12.9252 18.1512 12.4935 17.986 12.0707 17.8641Z" fill="#613EEA"/>
</svg>
