<svg width="20" height="22" viewBox="0 0 20 22" fill="none" xmlns="http://www.w3.org/2000/svg">
<path d="M4.72637 0.542187C4.6748 0.565625 4.58105 0.640625 4.51543 0.710937C4.40293 0.832812 4.39824 0.860937 4.38418 1.60625L4.37012 2.375H9.9998H15.6295L15.6154 1.60156L15.6014 0.828125L15.4467 0.678125L15.2967 0.523437L10.0561 0.514062C7.17793 0.509375 4.77793 0.523437 4.72637 0.542187Z" fill="#613EEA"/>
<path d="M2.53281 3.57969C1.75 5.7125 0.8125 8.30937 0.8125 8.3375C0.8125 8.36094 4.51094 8.375 9.02969 8.375H17.2422L18.1797 5.79688C18.6953 4.37656 19.1266 3.19531 19.1313 3.17188C19.1406 3.13906 16.2484 3.125 10.9234 3.125H2.69688L2.53281 3.57969ZM6.25 4.25V4.62031L5.51406 4.63437L4.77344 4.64844V5.75V6.85156L5.51406 6.86562L6.25 6.87969V7.25V7.625H5.46719C4.45938 7.62031 4.2625 7.55 4.07031 7.09531C3.96719 6.84687 3.96719 4.65312 4.07031 4.40469C4.2625 3.95 4.45938 3.87969 5.46719 3.875H6.25V4.25ZM9.02969 3.97812C9.12344 4.07187 9.16563 4.27812 9.38125 5.65625C9.51719 6.51875 9.625 7.31562 9.625 7.42344V7.625H9.25H8.875L8.87031 7.4C8.87031 7.27812 8.84219 7.02969 8.81406 6.85156L8.75781 6.52344H8.3125H7.86719L7.81094 6.85156C7.78281 7.02969 7.75469 7.27812 7.75469 7.4L7.75 7.625H7.375H7V7.42344C7 7.31562 7.10781 6.51875 7.24375 5.65625C7.45938 4.27812 7.50156 4.07187 7.59531 3.97812C7.69375 3.87969 7.74063 3.875 8.3125 3.875C8.88438 3.875 8.93125 3.87969 9.02969 3.97812ZM12.625 4.25V4.62031L11.8891 4.63437L11.1484 4.64844V5V5.35156L11.5938 5.375C12.3953 5.42188 12.625 5.67031 12.625 6.5C12.625 7.10938 12.5031 7.36719 12.1328 7.53594C11.9734 7.61094 11.8234 7.625 11.1625 7.625H10.375V7.25V6.87969L11.1156 6.86562L11.8516 6.85156V6.5V6.14844L11.4062 6.125C10.6047 6.07812 10.375 5.82969 10.375 5C10.375 4.39062 10.4969 4.13281 10.8672 3.96406C11.0266 3.88906 11.1766 3.875 11.8422 3.875H12.625V4.25ZM14.125 4.625V5.375H14.6875H15.25V4.625V3.875H15.625H16V5.75V7.625H15.625H15.25V6.875V6.125H14.6875H14.125V6.875V7.625H13.75H13.375V5.75V3.875H13.75H14.125V4.625Z" fill="#613EEA"/>
<path d="M8.15273 4.72812C8.13867 4.78906 8.10586 4.98125 8.07773 5.16406C8.04961 5.34219 8.0168 5.54844 8.00273 5.61875L7.97461 5.75H8.31211H8.64961L8.62148 5.61875C8.60742 5.54844 8.57461 5.34219 8.54648 5.16406C8.46211 4.61094 8.4668 4.625 8.31211 4.625C8.2043 4.625 8.1668 4.64844 8.15273 4.72812Z" fill="#613EEA"/>
<path d="M1.32813 9.2375C1.42188 9.32657 2.96875 10.7469 3.49844 11.2297L3.625 11.3469V10.2359V9.125H2.42031H1.21094L1.32813 9.2375Z" fill="#613EEA"/>
<path d="M4.375 11V12.875H10H15.625V11V9.125H10H4.375V11Z" fill="#613EEA"/>
<path d="M16.375 11.7641V12.875H17.5797H18.7891L18.6484 12.7391C18.5031 12.6031 16.6703 10.9156 16.4828 10.7469L16.375 10.6578V11.7641Z" fill="#613EEA"/>
<path d="M1.82073 16.2031C1.3051 17.6234 0.878538 18.8047 0.869163 18.8281C0.859788 18.8609 3.75198 18.875 9.07698 18.875H17.3035L17.4676 18.4156C18.2504 16.2875 19.1879 13.6906 19.1879 13.6625C19.1879 13.6391 15.4895 13.625 10.9754 13.625H2.75823L1.82073 16.2031ZM5.47229 14.4312C5.7301 14.5062 6.11916 14.8953 6.19416 15.1531C6.29729 15.5047 6.25041 15.8375 6.05354 16.1187C5.96448 16.25 5.96448 16.25 6.05354 16.3766C6.3676 16.8312 6.30666 17.3656 5.89885 17.7734C5.58948 18.0875 5.43948 18.125 4.5676 18.125C3.87385 18.125 3.85041 18.1203 3.7426 18.0078L3.62541 17.8953V16.25V14.6047L3.7426 14.4922C3.85041 14.3797 3.87385 14.375 4.5676 14.375C4.98948 14.375 5.3551 14.3984 5.47229 14.4312ZM9.0301 14.4781C9.12385 14.5719 9.16604 14.7781 9.38166 16.1562C9.5176 17.0187 9.62541 17.8156 9.62541 17.9234V18.125H9.25041H8.87541L8.87073 17.9C8.87073 17.7781 8.8426 17.5297 8.81448 17.3516L8.75823 17.0234L8.32698 17.0094C7.90979 16.9953 7.89104 17 7.87229 17.1031C7.80666 17.3984 7.75041 17.7875 7.75041 17.9469V18.125H7.37541H7.00041V17.9234C7.00041 17.8156 7.12229 17.0187 7.2676 16.1562C7.50198 14.8016 7.54885 14.5719 7.6426 14.4781C7.74104 14.3844 7.78791 14.375 8.33635 14.375C8.88479 14.375 8.93166 14.3844 9.0301 14.4781ZM12.6254 14.75V15.1203L11.8895 15.1344L11.1489 15.1484V16.25V17.3516L11.8895 17.3656L12.6254 17.3797V17.75V18.125H11.8426C10.8348 18.1203 10.6379 18.05 10.4457 17.5953C10.3895 17.4594 10.3754 17.2016 10.3754 16.25C10.3754 15.2984 10.3895 15.0406 10.4457 14.9047C10.6379 14.45 10.8348 14.3797 11.8426 14.375H12.6254V14.75ZM14.1348 14.9141L14.1489 15.4531L14.6973 15.0172C15.1004 14.7031 15.2457 14.5578 15.2504 14.4781C15.2504 14.3797 15.2692 14.375 15.6254 14.375H16.0004V14.6375C16.0004 14.9469 16.0379 14.9047 15.0489 15.6875C14.6739 15.9828 14.3645 16.2359 14.3645 16.25C14.3645 16.2641 14.6739 16.5172 15.0489 16.8125C16.0379 17.5953 16.0004 17.5531 16.0004 17.8625V18.125H15.6254C15.2692 18.125 15.2504 18.1203 15.2504 18.0172C15.2457 17.9422 15.1004 17.7969 14.6973 17.4828L14.1489 17.0469L14.1348 17.5859L14.1207 18.125H13.7504H13.3754V16.25V14.375H13.7504H14.1207L14.1348 14.9141Z" fill="#613EEA"/>
<path d="M4.375 15.5V15.875H4.82031C5.23281 15.875 5.27969 15.8656 5.38281 15.7578C5.45781 15.6875 5.5 15.5891 5.5 15.5C5.5 15.4109 5.45781 15.3125 5.38281 15.2422C5.27969 15.1344 5.23281 15.125 4.82031 15.125H4.375V15.5Z" fill="#613EEA"/>
<path d="M4.375 17V17.375H4.82031C5.23281 17.375 5.27969 17.3656 5.38281 17.2578C5.45781 17.1875 5.5 17.0891 5.5 17C5.5 16.9109 5.45781 16.8125 5.38281 16.7422C5.27969 16.6344 5.23281 16.625 4.82031 16.625H4.375V17Z" fill="#613EEA"/>
<path d="M8.19531 15.1812C8.17187 15.2562 8.03125 16.1281 8.03125 16.1984C8.03125 16.2312 8.14375 16.25 8.34062 16.25H8.65L8.62187 16.1187C8.60781 16.0484 8.575 15.8422 8.54687 15.6641C8.4625 15.125 8.4625 15.125 8.33125 15.125C8.27031 15.125 8.20937 15.1531 8.19531 15.1812Z" fill="#613EEA"/>
<path d="M4.38418 20.3984L4.39824 21.1719L4.55293 21.3219L4.70293 21.4766H9.9998H15.2967L15.4467 21.3219L15.6014 21.1719L15.6154 20.3984L15.6295 19.625H9.9998H4.37012L4.38418 20.3984Z" fill="#613EEA"/>
</svg>
