<svg width="27" height="27" viewBox="0 0 27 27" fill="none" xmlns="http://www.w3.org/2000/svg">
<g clip-path="url(#clip0_188_1583)">
<path d="M15.5312 0.0580082C13.5325 0.24785 11.671 0.928125 10.0626 2.05664C9.31379 2.57871 8.23273 3.68613 7.73176 4.44551C6.86164 5.75332 6.38703 7.26152 6.38175 8.71699V9.12305L6.155 9.21269C5.74367 9.3709 4.75226 9.90879 4.26183 10.2357C2.07863 11.6859 0.654802 13.7004 0.148552 16.0523C-0.00437784 16.7695 -0.0149247 18.283 0.127458 19.0371C0.401677 20.4557 1.12941 21.9955 2.03117 23.0396L2.27375 23.3244L2.12082 23.4879C1.57238 24.0732 0.090544 25.8188 0.05363 25.9242C-0.0834794 26.2828 0.0852706 26.7205 0.422771 26.8945C0.628435 27 0.723357 27 6.29211 27C11.6499 27 12.0032 26.9947 12.7415 26.8945C15.547 26.5201 17.8778 25.3916 19.6761 23.5406C20.7835 22.4016 21.5218 21.1254 21.9173 19.691C22.065 19.1479 22.2021 18.225 22.2021 17.7557V17.4551H24.3009C26.2415 17.4551 26.4103 17.4498 26.579 17.3549C26.9376 17.165 27.0958 16.6852 26.9165 16.3371C26.8691 16.2422 26.405 15.6779 25.8829 15.0715L24.939 13.9693L25.1446 13.7373C25.9093 12.8672 26.579 11.4855 26.8532 10.2146C27.0062 9.49746 27.0167 8.11582 26.8796 7.41445C26.4841 5.45801 25.4294 3.75469 23.7841 2.43106C21.5745 0.653906 18.4948 -0.232031 15.5312 0.0580082ZM17.7196 1.64004C20.003 1.87207 22.0122 2.78965 23.4677 4.26621C25.44 6.26484 25.9515 8.94375 24.8124 11.3221C24.5171 11.9391 24.1691 12.4559 23.6417 13.0518C23.146 13.6107 23.0986 13.6898 23.0986 13.9641C23.0986 14.2172 23.204 14.3807 23.8527 15.1348C24.1163 15.4406 24.3642 15.7307 24.4064 15.7781C24.4802 15.8678 24.4222 15.873 23.2515 15.873H22.0122L21.9173 15.4881C21.179 12.5824 18.6003 10.0354 15.2359 8.89102C13.9386 8.45332 12.7099 8.2582 11.1542 8.2582C9.97824 8.25293 9.51945 8.29512 8.52277 8.49551C8.238 8.55351 7.99015 8.58516 7.97433 8.56934C7.91633 8.5166 8.11672 7.35117 8.25383 6.93457C8.5966 5.8957 9.1134 5.06777 9.96769 4.21875C11.1384 3.04277 12.5991 2.25176 14.3446 1.85098C14.7296 1.76133 15.1462 1.69277 15.7948 1.61894C16.1534 1.57676 17.2187 1.58731 17.7196 1.64004ZM12.2142 9.8666C14.2445 10.0617 16.1798 10.8053 17.6511 11.9496C20.4882 14.1645 21.3847 17.5816 19.9028 20.5348C18.5898 23.1451 15.7843 24.9434 12.404 25.3389C11.8609 25.4021 10.8642 25.418 7.13058 25.418H2.52687L3.26515 24.5795C3.67121 24.1154 4.0298 23.6883 4.06144 23.6197C4.09836 23.5564 4.11418 23.3877 4.10363 23.2295C4.08254 22.9711 4.05617 22.9289 3.56574 22.3805C2.55324 21.252 1.98898 20.1867 1.70949 18.8789C1.57765 18.2566 1.57238 16.9646 1.70422 16.3477C2.13136 14.349 3.42863 12.5982 5.3798 11.3854C7.29406 10.1936 9.82531 9.63457 12.2142 9.8666Z" fill="#38004D"/>
<path d="M5.87104 15.968C4.54741 16.4426 4.43667 18.2461 5.68647 18.8631C6.11362 19.074 6.65151 19.074 7.07866 18.8631C7.64292 18.5836 7.93823 18.1037 7.93823 17.4551C7.93823 17.0068 7.82749 16.7063 7.548 16.3846C7.16831 15.9574 6.42476 15.7676 5.87104 15.968Z" fill="#613EEA"/>
<path d="M10.6171 15.968C9.29351 16.4426 9.18276 18.2461 10.4326 18.8631C10.8597 19.074 11.3976 19.074 11.8248 18.8631C12.389 18.5836 12.6843 18.1037 12.6843 17.4551C12.6843 17.0068 12.5736 16.7063 12.2941 16.3846C11.9144 15.9574 11.1708 15.7676 10.6171 15.968Z" fill="#613EEA"/>
<path d="M15.3632 15.968C14.0396 16.4426 13.9289 18.2461 15.1787 18.8631C15.6058 19.074 16.1437 19.074 16.5708 18.8631C17.1351 18.5836 17.4304 18.1037 17.4304 17.4551C17.4304 17.0068 17.3197 16.7063 17.0402 16.3846C16.6605 15.9574 15.9169 15.7676 15.3632 15.968Z" fill="#613EEA"/>
</g>
<defs>
<clipPath id="clip0_188_1583">
<rect width="27" height="27" fill="white"/>
</clipPath>
</defs>
</svg>
