<?xml version="1.0" encoding="UTF-8"?>
<svg version="1.1" xmlns="http://www.w3.org/2000/svg" width="50" height="50">
<path d="M0 0 C2.58841637 2.19019846 3.85198477 3.68970129 4.23828125 7.109375 C4.24873401 9.07449466 4.1329252 11.03935331 4 13 C5.258125 13.268125 6.51625 13.53625 7.8125 13.8125 C10.10144714 14.40697921 11.88762542 14.93475024 13.9375 16.125 C15.73774599 19.30190468 16.31072862 22.41311088 16 26 C13.65038714 30.38594401 13.65038714 30.38594401 11 32 C7.18319876 32.67664463 3.50640505 32.75320253 0 31 C0.2165625 31.54269531 0.433125 32.08539063 0.65625 32.64453125 C0.9346875 33.35996094 1.213125 34.07539062 1.5 34.8125 C1.7784375 35.52019531 2.056875 36.22789063 2.34375 36.95703125 C3 39 3 39 3 42 C-2.28 42 -7.56 42 -13 42 C-11.125 33.25 -11.125 33.25 -10 31 C-10.99 31.495 -10.99 31.495 -12 32 C-15.74031534 32.58052046 -19.41049487 32.96799076 -22.73828125 30.94140625 C-24.72823479 28.87297567 -25.89901734 26.82363986 -26.25 23.9609375 C-26.02412637 20.19167132 -25.36886365 18.4110195 -22.8125 15.5625 C-19.79799138 13.88777299 -17.41619256 13.31778535 -14 13 C-14.0825 11.783125 -14.165 10.56625 -14.25 9.3125 C-14.25592848 5.96883723 -14.02818788 5.0456838 -12.1875 2.0625 C-8.25001223 -1.64998847 -5.05313156 -1.24112003 0 0 Z M-10 4 C-11.46650366 6.93300732 -11.36440295 8.72037344 -11 12 C-9.54771727 14.82331888 -7.83771131 17.41407765 -6 20 C-2.36637699 18.78879233 -1.55906328 17.21087046 0.203125 13.91015625 C1.37137692 11.10978768 1.47412314 8.98020259 1 6 C-0.46251305 3.87935608 -1.57732658 3.17725014 -3.9375 2.1875 C-6.56765449 1.94839505 -7.81192864 2.566436 -10 4 Z M-21.4375 19.125 C-23.37724382 21.95290067 -23.37724382 21.95290067 -22.3125 25.25 C-21.25758677 27.85360611 -21.25758677 27.85360611 -20 29 C-15.67853423 29.43214658 -12.97493477 29.21969436 -9.375 26.875 C-6 25 -6 25 -3.3125 25.625 C-1.91518036 26.45583871 -0.51899846 27.28860092 0.875 28.125 C4.0973881 29.45186569 6.56438138 29.43726055 10 29 C12.24300635 26.92836371 12.24300635 26.92836371 13 24 C12.18795587 20.82564566 11.31819425 19.31819425 9 17 C5.21009839 17.21452273 2.62299209 17.61433823 -0.625 19.625 C-3 21 -3 21 -5.4375 20.875 C-8 20 -8 20 -11 18.4375 C-15.47448329 16.29347676 -17.58627371 15.76752067 -21.4375 19.125 Z M-6 27 C-7.485 32.445 -7.485 32.445 -9 38 C-6.36 38 -3.72 38 -1 38 C-1.99 34.37 -2.98 30.74 -4 27 C-4.66 27 -5.32 27 -6 27 Z " fill="#219F25" transform="translate(30,5)"/>
</svg>
