<svg width="24" height="24" viewBox="0 0 24 24" fill="none" xmlns="http://www.w3.org/2000/svg">
<g clip-path="url(#clip0_45_761)">
<path d="M11.1093 0.0703144C9.20151 0.337502 7.55151 1.43906 6.52026 3.13594C5.79839 4.32656 5.48901 5.85938 5.69995 7.25156C5.93433 8.85469 6.72651 10.2703 7.94526 11.2828C8.1562 11.4563 8.17026 11.4797 8.08589 11.5125C7.25151 11.8031 6.22495 12.2953 5.51714 12.7406C4.8187 13.1766 4.23745 13.6359 3.57183 14.2781C1.91714 15.8625 0.768701 17.8266 0.178076 20.0813C0.0562012 20.55 0.0280762 20.7375 0.0280762 21.1641C0.0280762 21.6094 0.0468262 21.7313 0.159326 22.0547C0.464014 22.9313 1.11089 23.5734 1.99214 23.8688L2.32026 23.9766H8.51245H14.7L14.8921 23.85C15.1828 23.6578 15.3046 23.4281 15.3046 23.0625C15.3046 22.6969 15.1828 22.4672 14.8921 22.275L14.7 22.1484L8.62964 22.125C3.02808 22.1016 2.54526 22.0969 2.40933 22.0219C2.10464 21.8578 1.87495 21.4828 1.87495 21.15C1.87495 20.9859 2.09526 20.1469 2.27808 19.6172C2.6062 18.6703 3.2812 17.4563 3.93276 16.6406C4.5562 15.8625 5.47964 15.0234 6.32808 14.4656C7.99683 13.3688 9.70308 12.8297 11.7187 12.7641C13.2796 12.7125 14.6625 12.9844 16.2843 13.6641C16.6171 13.8047 16.7437 13.8328 16.9031 13.8141C17.4984 13.7484 17.8968 13.1578 17.714 12.6047C17.5828 12.2156 17.3109 12.0328 16.3359 11.6719C16.1062 11.5828 15.8953 11.4984 15.8765 11.4844C15.8578 11.4656 15.9609 11.3531 16.1109 11.2313C16.2609 11.1047 16.5375 10.8375 16.725 10.6266C18.9937 8.11875 18.8953 4.27031 16.5 1.875C15.0796 0.454689 13.0968 -0.206249 11.1093 0.0703144ZM12.8578 1.97344C13.7625 2.15625 14.5171 2.55938 15.1687 3.20625C15.8203 3.8625 16.2187 4.60781 16.4062 5.53125C16.7531 7.21406 15.9937 9.08906 14.5687 10.0688C13.2515 10.9734 11.5312 11.1141 10.0968 10.4344C9.57183 10.1859 9.32339 10.0172 8.92964 9.64688C7.80933 8.60156 7.28901 6.99844 7.5937 5.53125C7.7812 4.60781 8.17964 3.8625 8.8312 3.20625C9.90933 2.13281 11.4 1.67344 12.8578 1.97344Z" fill="#38004D"/>
<path d="M19.2281 15.1453C19.0172 15.2063 18.7219 15.5203 18.6609 15.7359C18.6281 15.8438 18.6094 16.4578 18.6094 17.2594V18.6047L17.1656 18.6188L15.7172 18.6328L15.5297 18.7594C15.2391 18.9516 15.1172 19.1813 15.1172 19.5469C15.1172 19.9125 15.2391 20.1422 15.5297 20.3344L15.7172 20.4609L17.1609 20.475L18.6047 20.4891L18.6188 21.9281C18.6328 23.3484 18.6328 23.3672 18.7453 23.5453C18.8063 23.6438 18.9422 23.7797 19.0453 23.85C19.2047 23.9578 19.2891 23.9766 19.5469 23.9766C19.8047 23.9766 19.8891 23.9578 20.0484 23.85C20.1516 23.7797 20.2875 23.6438 20.3484 23.5453C20.4609 23.3672 20.4609 23.3484 20.475 21.9281L20.4891 20.4891L21.9281 20.475C23.3484 20.4609 23.3672 20.4609 23.5453 20.3484C23.6438 20.2875 23.7797 20.1516 23.85 20.0484C23.9578 19.8891 23.9766 19.8047 23.9766 19.5469C23.9766 19.2891 23.9578 19.2047 23.85 19.0453C23.7797 18.9422 23.6438 18.8063 23.5453 18.7453C23.3672 18.6328 23.3484 18.6328 21.9281 18.6188L20.4891 18.6047L20.475 17.1656C20.4609 15.7453 20.4609 15.7266 20.3484 15.5484C20.1281 15.1922 19.6406 15.0188 19.2281 15.1453Z" fill="#613EEA"/>
</g>
<defs>
<clipPath id="clip0_45_761">
<rect width="24" height="24" fill="white"/>
</clipPath>
</defs>
</svg>
