<svg width="32" height="32" viewBox="0 0 32 32" fill="none" xmlns="http://www.w3.org/2000/svg">
<g clip-path="url(#clip0_81_578)">
<path d="M2.49998 5.11875C1.59998 5.40625 0.818726 6.0375 0.418727 6.8C-0.0312735 7.65625 -2.35281e-05 7.0125 -2.35281e-05 16C-2.35281e-05 24.9875 -0.0312735 24.3438 0.418727 25.2C0.824977 25.975 1.64998 26.6312 2.55623 26.9C2.86248 26.9875 4.18748 27 16 27C27.8125 27 29.1375 26.9875 29.4437 26.9C30.35 26.6312 31.175 25.975 31.5812 25.2C32.0312 24.3438 32 24.9875 32 15.9812V7.86875L31.8437 7.39375C31.475 6.30625 30.6937 5.525 29.6062 5.15625L29.1312 5L15.9875 5.00625C3.59373 5.00625 2.82498 5.0125 2.49998 5.11875ZM29.0625 7.1625C29.2187 7.2375 29.4312 7.39375 29.5437 7.50625C29.9062 7.89375 29.9562 8.1 29.9875 9.35625L30.0125 10.5H16H1.98748L2.01248 9.35625C2.04373 8.1 2.09373 7.89375 2.45623 7.5125C2.70623 7.25 2.95623 7.1125 3.28123 7.05625C3.41873 7.03125 9.21248 7.01875 16.1562 7.025L28.7812 7.03125L29.0625 7.1625ZM29.9875 18.1375C29.9687 23.7125 29.9687 23.7875 29.8375 24.0625C29.6812 24.4 29.2937 24.7687 28.9625 24.8812C28.6 25.0125 3.39998 25.0125 3.03748 24.8812C2.70623 24.7687 2.31873 24.4 2.16248 24.0625C2.03123 23.7875 2.03123 23.7125 2.01248 18.1375L1.99373 12.5H16H30.0062L29.9875 18.1375Z" fill="#38004D"/>
<path d="M5.45 19.125C5.0625 19.3625 5 19.5562 5 20.5C5 21.4437 5.0625 21.6375 5.45 21.875C5.63125 21.9812 5.76875 22 6.5 22C7.23125 22 7.36875 21.9812 7.55 21.875C7.9375 21.6375 8 21.4437 8 20.5C8 19.5562 7.9375 19.3625 7.55 19.125C7.36875 19.0187 7.23125 19 6.5 19C5.76875 19 5.63125 19.0187 5.45 19.125Z" fill="#613EEA"/>
</g>
<defs>
<clipPath id="clip0_81_578">
<rect width="32" height="32" fill="white"/>
</clipPath>
</defs>
</svg>
