<svg width="32" height="32" viewBox="0 0 32 32" fill="none" xmlns="http://www.w3.org/2000/svg">
<g clip-path="url(#clip0_98_498)">
<path d="M2.49998 26.8813C1.59998 26.5938 0.818726 25.9625 0.418727 25.2C-0.0312735 24.3438 -2.35281e-05 24.9875 -2.35281e-05 16C-2.35281e-05 7.0125 -0.0312735 7.65625 0.418727 6.8C0.824977 6.025 1.64998 5.36875 2.55623 5.1C2.86248 5.0125 4.18748 5 16 5C27.8125 5 29.1375 5.0125 29.4437 5.1C30.35 5.36875 31.175 6.025 31.5812 6.8C32.0312 7.65625 32 7.0125 32 16.0188V24.1313L31.8437 24.6063C31.475 25.6938 30.6937 26.475 29.6062 26.8438L29.1312 27L15.9875 26.9937C3.59373 26.9937 2.82498 26.9875 2.49998 26.8813ZM29.0625 24.8375C29.2187 24.7625 29.4312 24.6063 29.5437 24.4937C29.9062 24.1063 29.9562 23.9 29.9875 22.6438L30.0125 21.5H16H1.98748L2.01248 22.6438C2.04373 23.9 2.09373 24.1063 2.45623 24.4875C2.70623 24.75 2.95623 24.8875 3.28123 24.9438C3.41873 24.9688 9.21248 24.9813 16.1562 24.975L28.7812 24.9688L29.0625 24.8375ZM29.9875 13.8625C29.9687 8.2875 29.9687 8.2125 29.8375 7.9375C29.6812 7.6 29.2937 7.23125 28.9625 7.11875C28.6 6.9875 3.39998 6.9875 3.03748 7.11875C2.70623 7.23125 2.31873 7.6 2.16248 7.9375C2.03123 8.2125 2.03123 8.2875 2.01248 13.8625L1.99373 19.5H16H30.0062L29.9875 13.8625Z" fill="#38004D"/>
<path d="M27.7838 11.634L27.1178 12.1803H26.7789L26.8507 12.0647H19.593H15.4777H5.56416L6.00281 11.2034H15.9163H20.0316H26.8507L26.7789 11.0877H27.1178L27.7838 11.634ZM16.7537 12.3319L15.7568 14.2899H17.1086L18.1056 12.3319H16.7537ZM5.42857 12.3319L4.43164 14.2899H5.74759L6.31784 13.1653H8.02857L8.45526 12.3319H5.42857ZM9.98655 12.3119C9.57581 12.3119 9.20097 12.5432 9.01354 12.9061L8.29974 14.3098H9.15311L9.89483 12.8543H11.1789L11.0832 13.0417H10.0264L9.75127 13.584H10.808L10.4372 14.3098H11.2905L12.3074 12.308H9.98655V12.3119ZM12.0362 13.7874L11.7531 14.3417H14.381C14.8596 14.3417 15.2464 13.9549 15.2464 13.4764C15.2464 13.2411 15.055 13.0497 14.8197 13.0497H13.2924L13.404 12.8303H15.4298L15.7089 12.284H13.5755C13.1528 12.284 12.6743 12.5073 12.4151 13.0497C12.2954 13.2889 12.4669 13.5721 12.7341 13.5721H14.3451L14.2335 13.7914H12.0362V13.7874ZM20.5381 13.5721L20.8053 13.0497H19.5411C19.1304 13.0497 18.7556 13.281 18.5681 13.6478L18.4884 13.8034C18.3648 14.0466 18.5402 14.3337 18.8154 14.3337H21.2678L22.0694 12.7626C22.177 12.5472 22.0215 12.292 21.7823 12.292H19.3737L19.0865 12.8583H21.1442L21.0445 13.0497L20.6816 13.7675H19.3737L19.4654 13.5761H20.5381V13.5721ZM25.4071 12.2681C25.6384 12.2681 25.7899 12.5113 25.6823 12.7187L24.5976 14.8521C24.4261 15.1911 24.0752 15.4064 23.6924 15.4064H12.2157L12.3553 15.5739H12.0801L11.5378 15.1273L12.0801 14.6807H12.3553L12.2157 14.8481H23.7123L24.0074 14.2699H22.3924C22.1531 14.2699 21.9976 14.0147 22.1053 13.8034L22.6436 12.7506C22.7951 12.4555 23.0982 12.2681 23.4332 12.2681H25.4071ZM24.7611 12.7905H23.489L23.0184 13.7156H24.2905L24.7611 12.7905Z" fill="black"/>
<path d="M15.8483 11.1356L15.4097 11.9969H19.525L19.9637 11.1356H15.8483Z" fill="#38AC49"/>
<path d="M5.93474 11.1356L5.49609 11.9969H15.4096L15.8482 11.1356H5.93474Z" fill="#E98824"/>
<path d="M27.0502 11.02H26.7113L26.7831 11.1356H19.964L19.5254 11.997H26.7831L26.7113 12.1166H27.0502L27.7202 11.5663L27.0502 11.02Z" fill="#E98824"/>
<path d="M17.3361 11.8574C17.6711 11.6859 17.8306 11.8454 17.8665 11.8933L17.7468 11.973C17.6192 11.8574 17.4039 11.9212 17.3441 11.9451L17.3361 11.8574ZM17.3082 11.6141L17.3202 11.7258C17.8226 11.4706 18.022 11.7298 18.0499 11.7696L18.1975 11.6739C18.0698 11.4107 17.5475 11.4546 17.3082 11.6141ZM17.2803 11.3669L17.2922 11.4746C17.9223 11.1954 18.2413 11.331 18.3809 11.5503L18.5324 11.4506C18.2613 11.016 17.6073 11.1595 17.2803 11.3669Z" fill="white"/>
<path d="M17.2402 11.0199C17.978 10.5932 18.7316 10.6929 18.9669 11.1555L18.7675 11.2871C18.5522 10.8883 17.8623 10.8126 17.2562 11.1834L17.2402 11.0199ZM17.1924 10.5853L17.2163 10.8126C18.0178 10.3819 18.8832 10.4337 19.2022 11L19.4893 10.8086C19.2421 10.1307 17.8743 10.1187 17.1924 10.5853Z" fill="#E98824"/>
<path d="M7.9607 13.1015H6.24997L5.67972 14.2261H4.36377L5.3607 12.2681H8.38739L7.9607 13.1015ZM9.92267 12.2442C9.51193 12.2442 9.13708 12.4755 8.94966 12.8384L8.23586 14.242H9.08923L9.83095 12.7865H11.115L11.0193 12.9739H9.95855L9.6834 13.5163H10.7401L10.3733 14.242H11.2267L12.2435 12.2402H9.92267V12.2442ZM15.3659 12.7586L15.6451 12.2123H13.5116C13.0889 12.2123 12.6104 12.4356 12.3472 12.9779C12.2276 13.2172 12.399 13.5003 12.6662 13.5003H14.2773L14.1656 13.7196H11.9684L11.6852 14.2739H14.3132C14.7917 14.2739 15.1785 13.8871 15.1785 13.4086C15.1785 13.1733 14.9871 12.9779 14.7518 12.9779H13.2245L13.3362 12.7586H15.3659Z" fill="#E98824"/>
<path d="M17.0446 14.2221H15.6927L16.6897 12.2641H18.0415L17.0446 14.2221ZM21.7142 12.2242H19.3056L19.0185 12.7905H21.0802L20.9805 12.9819L20.6176 13.6997H19.3096L19.4013 13.5083H20.478L20.7452 12.9859H19.4811C19.0703 12.9859 18.6955 13.2172 18.5081 13.584L18.4283 13.7396C18.3047 13.9828 18.4802 14.2699 18.7553 14.2699H21.2078L22.0093 12.6988C22.113 12.4794 21.9535 12.2242 21.7142 12.2242ZM25.343 12.2043C25.5743 12.2043 25.7259 12.4475 25.6182 12.6549L24.5335 14.7883C24.3621 15.1273 24.0111 15.3426 23.6323 15.3426H12.1476L12.2912 15.5101H12.0121L11.4697 15.0635L12.0121 14.6208H12.2912L12.1476 14.7883H23.6443L23.9394 14.2101H22.3243C22.0851 14.2101 21.9295 13.9549 22.0372 13.7435L22.5756 12.6908C22.7271 12.3957 23.0302 12.2083 23.3651 12.2083H25.343M24.693 12.7267H23.421L22.9504 13.6518H24.2225L24.693 12.7267Z" fill="#38AC49"/>
<path d="M20.9407 11.6341H20.1511C20.1232 11.6341 20.1032 11.6061 20.1192 11.5782L20.1391 11.5384C20.1511 11.5144 20.175 11.5025 20.1989 11.5025H20.9885C21.0164 11.5025 21.0364 11.5304 21.0204 11.5583L21.0005 11.5982C20.9925 11.6181 20.9686 11.6341 20.9407 11.6341ZM22.7232 11.6341C22.7511 11.6341 22.775 11.6181 22.783 11.5942L22.8029 11.5543C22.8149 11.5304 22.7989 11.4985 22.771 11.4985H21.9815C21.9535 11.4985 21.9296 11.5144 21.9176 11.5344L21.8977 11.5742C21.8857 11.5982 21.9017 11.6301 21.9296 11.6301H22.7232M24.5057 11.6341C24.5336 11.6341 24.5575 11.6181 24.5695 11.5942L24.5894 11.5543C24.6014 11.5304 24.5854 11.4985 24.5575 11.4985H23.768C23.74 11.4985 23.7161 11.5144 23.7042 11.5344L23.6842 11.5742C23.6722 11.5982 23.6882 11.6301 23.7161 11.6301H24.5057M26.2882 11.6341C26.3161 11.6341 26.34 11.6181 26.352 11.5942L26.3719 11.5543C26.3839 11.5304 26.368 11.4985 26.34 11.4985H25.5505C25.5226 11.4985 25.4986 11.5144 25.4907 11.5344L25.4707 11.5742C25.4588 11.5982 25.4747 11.6301 25.5026 11.6301H26.2882M14.8035 15.1114C14.8235 15.1114 14.8394 15.0994 14.8474 15.0834L14.8594 15.0555C14.8673 15.0396 14.8554 15.0157 14.8354 15.0157H14.2772C14.2572 15.0157 14.2413 15.0276 14.2333 15.0436L14.2173 15.0715C14.2094 15.0874 14.2213 15.1114 14.2413 15.1114H14.8035ZM17.5072 15.1114C17.5272 15.1114 17.5431 15.0994 17.5511 15.0834L17.563 15.0555C17.571 15.0396 17.5591 15.0157 17.5391 15.0157H16.9808C16.9609 15.0157 16.9449 15.0276 16.937 15.0436L16.921 15.0715C16.913 15.0874 16.925 15.1114 16.9449 15.1114H17.5072ZM20.2149 15.1114C20.2348 15.1114 20.2508 15.0994 20.2588 15.0834L20.2707 15.0555C20.2787 15.0396 20.2667 15.0157 20.2468 15.0157H19.6885C19.6686 15.0157 19.6526 15.0276 19.6446 15.0436L19.6287 15.0715C19.6207 15.0874 19.6327 15.1114 19.6526 15.1114H20.2149ZM22.9186 15.1114C22.9385 15.1114 22.9545 15.0994 22.9624 15.0834L22.9744 15.0555C22.9824 15.0396 22.9704 15.0157 22.9505 15.0157H22.3922C22.3722 15.0157 22.3563 15.0276 22.3483 15.0436L22.3324 15.0715C22.3244 15.0874 22.3364 15.1114 22.3563 15.1114H22.9186Z" fill="#EDC91A"/>
<path d="M3.85742 15.2788L4.08472 14.8322H4.48748L4.46754 14.8681H4.12061L4.03687 15.0276H4.34791L4.32797 15.0635H4.01693L3.92521 15.239H4.28012L4.26018 15.2749H3.85742V15.2788ZM4.63902 15.0954C4.53135 15.1074 4.46356 15.1393 4.43564 15.1911C4.42767 15.2071 4.42368 15.219 4.42767 15.231C4.42767 15.243 4.43564 15.2509 4.44362 15.2589C4.45159 15.2669 4.46754 15.2709 4.4835 15.2749C4.49945 15.2788 4.5154 15.2788 4.53534 15.2788C4.56724 15.2788 4.59914 15.2749 4.63104 15.2669C4.66294 15.2589 4.69485 15.243 4.72675 15.227C4.72276 15.231 4.72276 15.239 4.71877 15.243C4.71877 15.2469 4.71877 15.2509 4.71877 15.2589C4.71877 15.2629 4.72276 15.2669 4.72675 15.2709C4.73073 15.2749 4.73472 15.2749 4.7427 15.2749C4.75067 15.2749 4.75865 15.2749 4.76264 15.2749C4.77061 15.2749 4.77859 15.2749 4.78656 15.2709C4.79454 15.2709 4.80251 15.2669 4.8065 15.2669L4.82245 15.239C4.79853 15.243 4.78258 15.2469 4.77859 15.243C4.7746 15.239 4.7746 15.231 4.78258 15.215L4.87031 15.0396C4.87828 15.0196 4.88227 15.0037 4.88227 14.9917C4.88227 14.9798 4.87429 14.9678 4.86233 14.9598C4.85037 14.9518 4.8384 14.9479 4.81846 14.9439C4.80251 14.9399 4.78258 14.9399 4.75865 14.9399C4.73472 14.9399 4.7108 14.9399 4.68687 14.9439C4.66294 14.9479 4.643 14.9558 4.62307 14.9638C4.60313 14.9718 4.58319 14.9837 4.56724 14.9957C4.55129 15.0077 4.53534 15.0236 4.52337 15.0436H4.57521C4.58319 15.0276 4.59515 15.0196 4.60712 15.0077C4.61908 14.9997 4.63104 14.9917 4.64699 14.9837C4.65896 14.9798 4.67491 14.9758 4.69086 14.9718C4.70681 14.9678 4.72276 14.9678 4.7427 14.9678C4.78258 14.9678 4.8065 14.9758 4.81846 14.9877C4.83043 14.9997 4.83043 15.0157 4.81846 15.0356C4.81448 15.0396 4.81049 15.0476 4.8065 15.0555C4.80251 15.0635 4.79454 15.0675 4.78258 15.0715C4.7746 15.0755 4.75865 15.0755 4.74669 15.0795C4.73073 15.0795 4.71877 15.0834 4.7108 15.0834L4.63902 15.0954ZM4.76264 15.1592C4.75466 15.1752 4.7427 15.1911 4.72675 15.1991C4.7108 15.211 4.69485 15.219 4.67491 15.227C4.65497 15.235 4.63503 15.239 4.61509 15.243C4.59515 15.2469 4.57521 15.2469 4.55129 15.2469C4.53932 15.2469 4.52736 15.2469 4.51938 15.243C4.50742 15.239 4.49945 15.239 4.49546 15.231C4.48748 15.227 4.4835 15.219 4.4835 15.211C4.4835 15.2031 4.4835 15.1951 4.48748 15.1871C4.49945 15.1672 4.51938 15.1472 4.54331 15.1393C4.57123 15.1273 4.60313 15.1233 4.643 15.1193C4.66693 15.1193 4.68687 15.1153 4.7108 15.1153C4.73472 15.1153 4.75865 15.1074 4.78258 15.1034L4.76264 15.1592ZM5.0338 15.1752C5.02583 15.1911 5.02583 15.2031 5.02583 15.219C5.02583 15.231 5.0338 15.243 5.04178 15.2549C5.04975 15.2669 5.0657 15.2709 5.08165 15.2788C5.09761 15.2828 5.12153 15.2868 5.14546 15.2868C5.16939 15.2868 5.1973 15.2868 5.22123 15.2828C5.24515 15.2788 5.26509 15.2749 5.28503 15.2669C5.30497 15.2589 5.32092 15.2509 5.33687 15.239C5.35282 15.227 5.36478 15.215 5.37276 15.1991C5.38472 15.1791 5.38472 15.1632 5.37675 15.1512C5.36877 15.1393 5.35681 15.1313 5.33687 15.1233C5.32092 15.1153 5.30098 15.1114 5.27705 15.1074C5.25313 15.1034 5.23319 15.0994 5.21724 15.0954C5.1973 15.0914 5.18534 15.0834 5.17337 15.0755C5.1654 15.0675 5.16141 15.0555 5.16939 15.0436C5.17736 15.0276 5.19331 15.0157 5.21724 15.0037C5.24116 14.9917 5.26509 14.9877 5.29699 14.9877C5.32889 14.9877 5.35282 14.9917 5.36877 15.0037C5.38472 15.0157 5.38871 15.0316 5.38073 15.0555H5.43258C5.44454 15.0196 5.44055 14.9917 5.42061 14.9758C5.40067 14.9598 5.36478 14.9518 5.31693 14.9518C5.26908 14.9518 5.22521 14.9598 5.18932 14.9758C5.15343 14.9917 5.12951 15.0157 5.11356 15.0436C5.10159 15.0635 5.10159 15.0795 5.10957 15.0914C5.11754 15.1034 5.12951 15.1114 5.14945 15.1193C5.1654 15.1273 5.18534 15.1313 5.20926 15.1353C5.23319 15.1393 5.25313 15.1433 5.27307 15.1472C5.293 15.1512 5.30497 15.1592 5.31693 15.1632C5.32491 15.1712 5.32889 15.1831 5.32092 15.1991C5.31693 15.2071 5.31294 15.215 5.30098 15.223C5.293 15.231 5.28503 15.235 5.27307 15.243C5.2611 15.2469 5.24914 15.2549 5.23319 15.2549C5.21724 15.2589 5.20129 15.2589 5.18135 15.2589C5.14147 15.2589 5.11754 15.2549 5.10159 15.243C5.08564 15.231 5.08166 15.211 5.08963 15.1831H5.0338V15.1752ZM5.47644 15.3985C5.48442 15.3985 5.4884 15.4025 5.49638 15.4025C5.50435 15.4025 5.51233 15.4025 5.52031 15.4025C5.53626 15.4025 5.55221 15.3985 5.56816 15.3945C5.58411 15.3865 5.60006 15.3785 5.61601 15.3666C5.63196 15.3546 5.64791 15.3426 5.66785 15.3267C5.6838 15.3107 5.70374 15.2908 5.72368 15.2709L6.04669 14.9558H5.99086L5.71172 15.231V14.9558H5.65589L5.65988 15.2788C5.6519 15.2868 5.64392 15.2948 5.63196 15.3028C5.62399 15.3147 5.61202 15.3227 5.60405 15.3307C5.59208 15.3387 5.58012 15.3466 5.56816 15.3546C5.55619 15.3626 5.54423 15.3666 5.52828 15.3666C5.52031 15.3666 5.51233 15.3666 5.50834 15.3666C5.50037 15.3666 5.49638 15.3666 5.4884 15.3626L5.47644 15.3985ZM6.60497 15.2469C6.59699 15.2469 6.58902 15.2509 6.58104 15.2509C6.57307 15.2509 6.56509 15.2509 6.5611 15.2509C6.54914 15.2509 6.54116 15.2509 6.53718 15.2469C6.53319 15.2469 6.5292 15.243 6.5292 15.239C6.5292 15.235 6.5292 15.231 6.53319 15.223C6.53718 15.219 6.53718 15.211 6.54116 15.2031L6.65282 14.9837H6.73656L6.75251 14.9518H6.67276L6.71662 14.8641H6.66478L6.62092 14.9518H6.5611L6.54515 14.9837H6.60497L6.48534 15.219C6.47337 15.243 6.46939 15.2589 6.48135 15.2709C6.48932 15.2788 6.50527 15.2828 6.53319 15.2828C6.54515 15.2828 6.55712 15.2828 6.56908 15.2788C6.58104 15.2749 6.58902 15.2749 6.59699 15.2749L6.60497 15.2469ZM7.02368 15.2868C7.05558 15.2868 7.0835 15.2828 7.11141 15.2749C7.13932 15.2669 7.16724 15.2549 7.19116 15.239C7.21509 15.223 7.23902 15.2071 7.25896 15.1871C7.27889 15.1672 7.29485 15.1433 7.30681 15.1193C7.31877 15.0954 7.32675 15.0755 7.32675 15.0515C7.33073 15.0316 7.32675 15.0117 7.31478 14.9997C7.30681 14.9837 7.29086 14.9718 7.27092 14.9638C7.25098 14.9558 7.22307 14.9518 7.18718 14.9518C7.15129 14.9518 7.12337 14.9558 7.09147 14.9638C7.06356 14.9718 7.03564 14.9837 7.00773 14.9997C6.9838 15.0157 6.95988 15.0316 6.94392 15.0515C6.92399 15.0715 6.90804 15.0954 6.89607 15.1193C6.88012 15.1472 6.87613 15.1712 6.87613 15.1911C6.87613 15.211 6.88012 15.231 6.89208 15.243C6.90405 15.2589 6.92 15.2669 6.93994 15.2749C6.97184 15.2828 6.99577 15.2868 7.02368 15.2868ZM7.25896 15.1153C7.25098 15.1313 7.23902 15.1512 7.22307 15.1672C7.20712 15.1831 7.19116 15.1991 7.17521 15.211C7.15527 15.223 7.13534 15.235 7.1154 15.243C7.09147 15.2509 7.06754 15.2549 7.03963 15.2549C7.0157 15.2549 6.99577 15.2509 6.97981 15.2469C6.96386 15.239 6.95589 15.231 6.94791 15.219C6.93994 15.2071 6.93994 15.1911 6.93994 15.1752C6.94392 15.1592 6.94791 15.1393 6.95988 15.1193C6.96785 15.1034 6.97981 15.0834 6.99577 15.0675C7.00773 15.0515 7.02767 15.0356 7.04362 15.0236C7.06356 15.0117 7.0835 14.9997 7.10343 14.9917C7.12736 14.9837 7.15129 14.9798 7.17521 14.9798C7.20313 14.9798 7.22307 14.9837 7.23902 14.9917C7.25497 14.9997 7.26294 15.0077 7.27092 15.0196C7.27491 15.0316 7.27889 15.0476 7.27491 15.0635C7.27491 15.0795 7.26693 15.0994 7.25896 15.1153ZM8.45129 14.9598C8.45926 14.9359 8.45926 14.916 8.45527 14.9C8.45129 14.8841 8.44331 14.8681 8.42736 14.8561C8.41141 14.8442 8.39546 14.8362 8.37153 14.8282C8.34761 14.8203 8.31969 14.8203 8.28779 14.8203C8.24791 14.8203 8.20803 14.8242 8.16816 14.8322C8.12828 14.8402 8.09239 14.8561 8.0565 14.8721C8.02061 14.892 7.98871 14.916 7.9608 14.9439C7.93288 14.9718 7.90497 15.0077 7.88503 15.0515C7.86908 15.0834 7.85711 15.1114 7.85313 15.1393C7.84914 15.1672 7.84914 15.1911 7.8611 15.215C7.87307 15.235 7.88902 15.2549 7.91693 15.2669C7.94485 15.2788 7.98073 15.2868 8.02859 15.2868C8.06846 15.2868 8.10834 15.2828 8.14024 15.2749C8.17613 15.2669 8.20804 15.2549 8.23595 15.239C8.26386 15.223 8.29178 15.2071 8.31172 15.1871C8.33564 15.1672 8.35558 15.1472 8.37153 15.1273H8.31172C8.29576 15.1433 8.27981 15.1632 8.25988 15.1752C8.23994 15.1911 8.22 15.2031 8.20006 15.215C8.18012 15.227 8.15619 15.235 8.13227 15.239C8.10834 15.2469 8.08043 15.2469 8.0565 15.2469C8.01662 15.2469 7.98472 15.243 7.9608 15.231C7.94086 15.219 7.92491 15.2031 7.91693 15.1871C7.90896 15.1672 7.90896 15.1472 7.91294 15.1233C7.91693 15.0994 7.92889 15.0755 7.94086 15.0515C7.95282 15.0236 7.97276 14.9997 7.9927 14.9758C8.01264 14.9518 8.03656 14.9319 8.06448 14.912C8.09239 14.892 8.12031 14.8801 8.15221 14.8681C8.18411 14.8561 8.22 14.8522 8.25589 14.8522C8.30773 14.8522 8.34362 14.8601 8.36754 14.8761C8.39147 14.892 8.39945 14.9199 8.39147 14.9558H8.45129V14.9598ZM8.61877 15.1193C8.62675 15.1034 8.63871 15.0834 8.65067 15.0675C8.66264 15.0515 8.67859 15.0356 8.69454 15.0236C8.71049 15.0117 8.73043 15.0037 8.75435 14.9957C8.77828 14.9877 8.80221 14.9837 8.83012 14.9877L8.85006 14.9479C8.81417 14.9479 8.78227 14.9518 8.75435 14.9638C8.72644 14.9758 8.69853 14.9917 8.6746 15.0157L8.7065 14.9558H8.65466L8.52307 15.2749H8.53902L8.61877 15.1193ZM9.28871 15.1313C9.28073 15.1472 9.26877 15.1672 9.25282 15.1791C9.24086 15.1951 9.22491 15.2071 9.20497 15.219C9.18902 15.231 9.16908 15.239 9.14914 15.243C9.1292 15.2469 9.10926 15.2509 9.08932 15.2509C9.04945 15.2509 9.02552 15.243 9.01356 15.227C9.00558 15.211 9.00558 15.1911 9.02153 15.1632L9.1292 14.9518H9.07736L8.96969 15.1632C8.96172 15.1791 8.95374 15.1951 8.95374 15.211C8.95374 15.227 8.95374 15.239 8.96172 15.2469C8.96969 15.2589 8.98165 15.2669 8.99761 15.2709C9.01356 15.2788 9.03748 15.2788 9.0654 15.2788C9.08534 15.2788 9.10129 15.2788 9.11724 15.2749C9.13319 15.2709 9.14914 15.2669 9.1611 15.2629C9.17307 15.2589 9.18902 15.2509 9.20098 15.2469C9.21294 15.239 9.22491 15.235 9.23288 15.231L9.20896 15.2749H9.2608L9.42429 14.9558H9.37644L9.28871 15.1313ZM9.79914 14.888L9.82705 14.8322H9.77123L9.74331 14.888H9.79914ZM9.59577 15.2788L9.75926 14.9598H9.70742L9.54392 15.2788H9.59577ZM9.83902 15.1752C9.83104 15.1911 9.83104 15.2031 9.83104 15.219C9.83104 15.231 9.83503 15.243 9.84699 15.2549C9.85497 15.2669 9.87092 15.2709 9.88687 15.2788C9.90282 15.2828 9.92675 15.2868 9.95067 15.2868C9.97859 15.2868 10.0025 15.2868 10.0264 15.2828C10.0504 15.2788 10.0703 15.2749 10.0902 15.2669C10.1102 15.2589 10.1261 15.2509 10.1421 15.239C10.158 15.227 10.17 15.215 10.178 15.1991C10.1899 15.1791 10.1899 15.1632 10.182 15.1512C10.174 15.1393 10.162 15.1313 10.1461 15.1233C10.1301 15.1153 10.1102 15.1114 10.0863 15.1074C10.0623 15.1034 10.0424 15.0994 10.0264 15.0954C10.0065 15.0914 9.99454 15.0834 9.98258 15.0755C9.9746 15.0675 9.97061 15.0555 9.97859 15.0436C9.98656 15.0276 10.0025 15.0157 10.0264 15.0037C10.0504 14.9917 10.0743 14.9877 10.1062 14.9877C10.1381 14.9877 10.162 14.9917 10.178 15.0037C10.1939 15.0157 10.1979 15.0316 10.1899 15.0555H10.2418C10.2537 15.0196 10.2498 14.9917 10.2298 14.9758C10.2099 14.9598 10.174 14.9518 10.1261 14.9518C10.0783 14.9518 10.0344 14.9598 9.99853 14.9758C9.96264 14.9917 9.93871 15.0157 9.92276 15.0436C9.9108 15.0635 9.9108 15.0795 9.91877 15.0914C9.92675 15.1034 9.93871 15.1114 9.95865 15.1193C9.9746 15.1273 9.99454 15.1313 10.0185 15.1353C10.0424 15.1393 10.0623 15.1433 10.0823 15.1472C10.1022 15.1512 10.1142 15.1592 10.1261 15.1632C10.1341 15.1712 10.1381 15.1831 10.1301 15.1991C10.1261 15.2071 10.1182 15.215 10.1102 15.223C10.1022 15.231 10.0942 15.235 10.0823 15.243C10.0703 15.2469 10.0583 15.2549 10.0424 15.2549C10.0264 15.2589 10.0105 15.2589 9.99055 15.2589C9.95067 15.2589 9.92675 15.2549 9.9108 15.243C9.89485 15.231 9.89086 15.211 9.89883 15.1831H9.83902V15.1752ZM10.7961 15.1273C10.828 15.0715 10.832 15.0276 10.812 14.9957C10.7921 14.9638 10.7522 14.9518 10.6924 14.9518C10.6605 14.9518 10.6286 14.9558 10.6007 14.9638C10.5728 14.9718 10.5448 14.9837 10.5209 14.9997C10.497 15.0157 10.4731 15.0316 10.4531 15.0555C10.4332 15.0755 10.4172 15.0994 10.4053 15.1233C10.3933 15.1472 10.3853 15.1672 10.3813 15.1911C10.3774 15.211 10.3813 15.231 10.3893 15.243C10.3973 15.2589 10.4132 15.2709 10.4332 15.2788C10.4531 15.2868 10.481 15.2908 10.5169 15.2908C10.5448 15.2908 10.5688 15.2868 10.5927 15.2828C10.6166 15.2788 10.6366 15.2709 10.6565 15.2589C10.6764 15.2509 10.6964 15.239 10.7123 15.227C10.7283 15.215 10.7442 15.1991 10.7602 15.1831H10.7044C10.6844 15.2071 10.6605 15.223 10.6286 15.239C10.5967 15.2509 10.5648 15.2589 10.5329 15.2589C10.509 15.2589 10.489 15.2549 10.4731 15.2469C10.4571 15.239 10.4491 15.231 10.4412 15.219C10.4332 15.2071 10.4332 15.1951 10.4332 15.1791C10.4332 15.1632 10.4412 15.1472 10.4491 15.1313H10.7961V15.1273ZM10.4731 15.0954C10.485 15.0795 10.497 15.0675 10.509 15.0515C10.5249 15.0396 10.5409 15.0276 10.5568 15.0157C10.5728 15.0037 10.5927 14.9957 10.6126 14.9917C10.6326 14.9837 10.6525 14.9837 10.6764 14.9837C10.7004 14.9837 10.7163 14.9877 10.7323 14.9917C10.7482 14.9957 10.7562 15.0077 10.7642 15.0157C10.7721 15.0276 10.7721 15.0396 10.7721 15.0515C10.7721 15.0635 10.7642 15.0795 10.7562 15.0954H10.4731Z" fill="black"/>
</g>
<defs>
<clipPath id="clip0_98_498">
<rect width="32" height="32" fill="white"/>
</clipPath>
</defs>
</svg>
