<svg width="24" height="23" viewBox="0 0 24 23" fill="none" xmlns="http://www.w3.org/2000/svg">
<path d="M13.9647 8.05476V0H6.50709C6.1269 0.00113321 5.7626 0.152665 5.49377 0.421501C5.22493 0.690337 5.0734 1.05463 5.07227 1.43482V20.835C5.0734 21.2152 5.22493 21.5795 5.49377 21.8483C5.7626 22.1171 6.1269 22.2687 6.50709 22.2698H22.565C22.9452 22.2687 23.3095 22.1171 23.5784 21.8483C23.8472 21.5795 23.9987 21.2152 23.9999 20.835V8.05476H13.9647Z" fill="#6334FA"/>
<path d="M3.8436 19.2841C2.97865 19.2791 2.14037 18.9841 1.46284 18.4464C0.785309 17.9087 0.307653 17.1593 0.10626 16.3181C-0.0951327 15.4769 -0.00862917 14.5925 0.351937 13.8063C0.712504 13.02 1.3263 12.3774 2.09518 11.9812C2.1247 10.8955 2.5021 9.8481 3.17178 8.99313C3.84147 8.13816 4.76803 7.52087 5.81498 7.23219C6.86194 6.94351 7.97393 6.9987 8.98715 7.38963C10.0004 7.78056 10.8613 8.48657 11.443 9.40365C11.8964 9.22622 12.3781 9.13165 12.8649 9.12442C13.721 9.12223 14.5553 9.39423 15.2457 9.90057C15.936 10.4069 16.4461 11.121 16.7011 11.9382C17.348 12.2591 17.892 12.7548 18.2716 13.369C18.6513 13.9832 18.8513 14.6915 18.8491 15.4136C18.8507 16.3426 18.5177 17.2412 17.9111 17.9449C17.3045 18.6486 16.4647 19.1103 15.5456 19.2455V19.2841H3.8436Z" fill="#6334FF"/>
<path d="M16.2112 12.3377C16.0884 11.8225 15.8491 11.3423 15.5116 10.934C15.174 10.5258 14.7474 10.2004 14.2644 9.98301C13.7814 9.76558 13.2549 9.66186 12.7255 9.67984C12.1962 9.69781 11.678 9.837 11.2108 10.0867C10.756 9.17679 10.0075 8.44692 9.08646 8.01518C8.16538 7.58344 7.12558 7.47508 6.13527 7.70763C5.14497 7.94017 4.26208 8.50002 3.62944 9.29661C2.9968 10.0932 2.65141 11.0799 2.64915 12.0972C2.64915 12.1702 2.64915 12.2475 2.64915 12.3206C1.92749 12.5997 1.32616 13.1225 0.949276 13.7983C0.572393 14.4741 0.443678 15.2604 0.585415 16.0211C0.727153 16.7818 1.13042 17.4689 1.7254 17.9636C2.32038 18.4584 3.06962 18.7294 3.8434 18.73H14.9869C15.7555 18.7264 16.499 18.4559 17.0903 17.9647C17.6815 17.4736 18.0838 16.7924 18.2284 16.0375C18.373 15.2826 18.2509 14.5009 17.883 13.826C17.515 13.1512 16.9241 12.6251 16.2112 12.3377Z" fill="white"/>
<path opacity="0.6" d="M15.0732 7.12685H24.0001L15.0732 0V7.12685Z" fill="#613EEA"/>
<path d="M15.0732 7.12685H24.0001L15.0732 0V7.12685Z" fill="#6334FF"/>
<path d="M8.53047 14.0947C8.98363 14.0947 9.35098 13.7274 9.35098 13.2742C9.35098 12.8211 8.98363 12.4537 8.53047 12.4537C8.07732 12.4537 7.70996 12.8211 7.70996 13.2742C7.70996 13.7274 8.07732 14.0947 8.53047 14.0947Z" fill="#6334FA"/>
<path d="M8.76636 13.575H8.28952L7.73535 15.8646H9.32482L8.76636 13.575Z" fill="#6334FA"/>
</svg>
