<svg width="26" height="23" viewBox="0 0 26 23" fill="none" xmlns="http://www.w3.org/2000/svg">
<path d="M19.4284 0.626953C18.2741 1.51172 16.7624 2.18555 15.3034 2.46094C14.9343 2.53125 14.5768 2.63086 14.5065 2.68359C14.3542 2.80664 14.3073 3.16406 14.2546 4.67578C14.1726 7.14258 14.5007 9.24023 15.1511 10.4062C15.9011 11.748 17.4655 13.207 19.2351 14.209C19.5925 14.4082 19.9499 14.5781 20.0319 14.5781C20.3483 14.5781 21.7311 13.7344 22.7038 12.9492C24.5495 11.4668 25.3698 10.0547 25.6862 7.82812C25.8151 6.9375 25.862 4.97461 25.7858 3.82617C25.7038 2.61328 25.7214 2.64258 24.8308 2.47266C23.2839 2.17383 21.8659 1.55273 20.6472 0.632812C20.3601 0.416016 20.1198 0.28125 20.0319 0.28125C19.9382 0.28125 19.7097 0.416016 19.4284 0.626953ZM20.5417 1.71094C21.5378 2.39648 22.8268 2.96484 24.069 3.26367C24.4675 3.36328 24.8132 3.45703 24.8308 3.48047C24.9011 3.55078 24.8659 6.98438 24.7897 7.54688C24.6198 8.73633 24.403 9.43359 24.0046 10.1016C23.2839 11.2969 21.9655 12.4922 20.3659 13.4004L20.0261 13.5938L19.4108 13.2246C17.3015 11.9531 15.9128 10.377 15.5202 8.81836C15.2565 7.76953 15.1979 7.13672 15.1979 5.2793C15.1979 4.30664 15.2155 3.49805 15.2331 3.48047C15.2507 3.45703 15.5847 3.36914 15.9655 3.27539C17.2253 2.96484 18.3737 2.4668 19.4167 1.78125C19.739 1.57031 20.0202 1.39453 20.0436 1.39453C20.0612 1.39453 20.2897 1.53516 20.5417 1.71094Z" fill="#38004D"/>
<path d="M22.61 5.47852C22.5631 5.49609 21.8424 6.18164 21.0163 7.00781L19.5104 8.50781L18.5202 7.5293C17.6706 6.69141 17.5006 6.55078 17.3483 6.55078C17.2487 6.55078 17.1256 6.56836 17.0729 6.58594C16.9381 6.63867 16.8034 6.9375 16.8444 7.0957C16.862 7.17187 17.4245 7.78125 18.0924 8.44922C19.112 9.46289 19.3346 9.65625 19.4753 9.65625C19.6217 9.65625 19.9089 9.39258 21.4206 7.88672C23.0026 6.31055 23.196 6.09375 23.196 5.92969C23.196 5.61914 22.8796 5.37891 22.61 5.47852Z" fill="#613EEA"/>
<path d="M1.90283 5.53125C1.70361 5.59571 1.52783 5.71289 1.30517 5.92969C0.77783 6.46289 0.812987 5.87696 0.812987 13.875C0.812987 21.8731 0.77783 21.2871 1.30517 21.8203C1.84424 22.3535 0.900877 22.3125 12.063 22.3125C23.2251 22.3125 22.2817 22.3535 22.8208 21.8203C23.3247 21.3164 23.313 21.3926 23.313 17.7598V14.6309L23.1665 14.4902C22.9966 14.3145 22.7329 14.3027 22.5454 14.4551L22.4048 14.5664L22.3755 17.7656L22.3462 20.9648L22.1528 21.1523L21.9653 21.3457H12.063H2.16064L1.97314 21.1523L1.77978 20.9648V13.875V6.78516L1.97314 6.59766L2.16064 6.4043L7.58642 6.375L13.0122 6.34571L13.1235 6.20508C13.2759 6.01758 13.2642 5.75391 13.0884 5.58399L12.9478 5.4375L7.56885 5.44336C2.96338 5.44336 2.14892 5.46094 1.90283 5.53125Z" fill="#38004D"/>
<path d="M7.56901 8.80664C6.4733 9.10547 5.61197 9.98437 5.35416 11.0742C5.13151 12.0117 5.35416 12.9375 5.99283 13.7168L6.25065 14.0391L5.91666 14.1621C5.44791 14.332 4.79166 14.8125 4.4694 15.2109C3.76041 16.0957 3.43815 17.4492 3.7194 18.3867C3.8483 18.8203 4.30533 19.2773 4.73893 19.4062C5.20768 19.5469 11.4186 19.5469 11.8874 19.4062C12.321 19.2773 12.778 18.8203 12.9069 18.3867C13.1061 17.7246 12.9831 16.6934 12.6256 15.9551C12.2331 15.1465 11.5124 14.4668 10.7213 14.1621L10.3815 14.0273L10.6393 13.7168C11.6354 12.4863 11.5885 10.8281 10.5104 9.66797C9.79557 8.89453 8.57682 8.53711 7.56901 8.80664ZM9.16861 9.85547C9.61979 10.0605 10.0182 10.459 10.2292 10.9102C10.3698 11.2148 10.3932 11.3437 10.3932 11.7656C10.3932 12.1875 10.3698 12.3164 10.2292 12.6211C10.0182 13.0723 9.61979 13.4707 9.16276 13.6816C8.86393 13.8223 8.73502 13.8457 8.31315 13.8457C7.89127 13.8457 7.76236 13.8223 7.46354 13.6816C7.00651 13.4707 6.60807 13.0723 6.39713 12.6211C6.25651 12.3164 6.23307 12.1875 6.23307 11.7656C6.23307 11.3437 6.25651 11.2148 6.39713 10.916C6.90104 9.84375 8.11393 9.375 9.16861 9.85547ZM9.98307 14.9004C10.4694 15.0293 10.8678 15.2578 11.2487 15.6328C11.8112 16.1895 12.0983 16.9512 12.0514 17.7539C12.0338 18.1113 12.0104 18.1758 11.8405 18.3457L11.653 18.5332H8.31315H4.9733L4.7858 18.3457C4.61588 18.1758 4.59244 18.1113 4.57486 17.7539C4.49869 16.4238 5.3483 15.2461 6.63151 14.9004C7.08268 14.7832 9.51432 14.7773 9.98307 14.9004Z" fill="#38004D"/>
<path d="M15.0215 15.8965C14.9277 15.9844 14.875 16.1074 14.875 16.2188C14.875 16.3301 14.9277 16.4531 15.0215 16.541L15.1621 16.6875H16.75H18.3379L18.4785 16.541C18.5723 16.4531 18.625 16.3301 18.625 16.2188C18.625 16.1074 18.5723 15.9844 18.4785 15.8965L18.3379 15.75H16.75H15.1621L15.0215 15.8965Z" fill="#38004D"/>
<path d="M15.0215 18.709C14.9277 18.7969 14.875 18.9199 14.875 19.0312C14.875 19.1426 14.9277 19.2656 15.0215 19.3535L15.1621 19.5H17.6875H20.2129L20.3535 19.3535C20.4473 19.2656 20.5 19.1426 20.5 19.0312C20.5 18.9199 20.4473 18.7969 20.3535 18.709L20.2129 18.5625H17.6875H15.1621L15.0215 18.709Z" fill="#38004D"/>
</svg>
