<svg width="32" height="32" viewBox="0 0 32 32" fill="none" xmlns="http://www.w3.org/2000/svg">
<path d="M9.49709 3.10825C9.34975 3.18446 9.21766 3.31147 9.12113 3.46389C8.98395 3.68744 8.97379 3.7484 8.94839 4.33775L8.92298 4.97283H8.25235C7.10413 4.97283 6.24551 5.19129 5.40721 5.70443C4.32504 6.35475 3.55279 7.36071 3.16159 8.61054L3.01933 9.06271L3.00409 16.7598C2.99393 22.4399 3.00409 24.5585 3.04981 24.838C3.18699 25.7372 3.65949 26.6924 4.30472 27.3833C4.97028 28.0946 5.68664 28.5417 6.62655 28.8364L7.08381 28.9786H15.9749H24.8659L25.2673 28.8618C25.8261 28.6992 26.3037 28.4909 26.7356 28.2115C27.2436 27.8863 28.0057 27.0937 28.3105 26.5857C28.6001 26.0929 28.8745 25.3562 28.9507 24.838C28.9964 24.5585 29.0066 22.4399 28.9964 16.7598L28.9812 9.06271L28.8389 8.60546C28.2496 6.72563 26.7406 5.37928 24.8557 5.04904C24.6169 5.00839 24.1191 4.97283 23.7482 4.97283H23.0775L23.0521 4.33775C23.0267 3.7484 23.0166 3.68744 22.8794 3.46389C22.666 3.11841 22.3764 2.97615 21.9395 3.00156C21.5584 3.02188 21.3298 3.14381 21.1266 3.43849C21.0148 3.60107 21.0046 3.67728 20.9894 4.29711L20.9691 4.97283H16.0003H11.0314L11.0111 4.29711C10.9959 3.67728 10.9857 3.60107 10.8739 3.43849C10.6707 3.14381 10.4421 3.02188 10.061 3.00156C9.78161 2.98631 9.68507 3.00664 9.49709 3.10825ZM8.93823 8.02119C8.93823 9.21005 8.97887 9.42851 9.26338 9.72319C9.74096 10.2211 10.564 10.1195 10.9044 9.51996C11.0162 9.3269 11.0213 9.26085 11.0213 8.18377V7.05587H16.0003H20.9792V8.18377C20.9792 9.26085 20.9843 9.3269 21.0961 9.51996C21.4365 10.1195 22.2596 10.2211 22.7371 9.72319C23.0216 9.42851 23.0623 9.21005 23.0623 8.02119V7.05587H23.6872C24.9015 7.05587 25.7144 7.4166 26.324 8.22949C26.7711 8.829 26.9134 9.28625 26.9591 10.2871L26.9896 10.9679H16.0003H5.01092L5.04141 10.2871C5.07189 9.56061 5.16334 9.10843 5.35641 8.73755C5.53423 8.38191 5.8543 7.98054 6.14898 7.73667C6.76373 7.23369 7.30735 7.06095 8.29299 7.06095L8.93823 7.05587V8.02119ZM26.9642 18.7514C26.9489 24.1114 26.9388 24.4722 26.8524 24.7364C26.5831 25.5492 26.0395 26.23 25.374 26.5755C24.6627 26.9464 25.3333 26.921 16.0003 26.921C6.6672 26.921 7.33784 26.9464 6.62655 26.5755C5.961 26.23 5.41737 25.5492 5.1481 24.7364C5.06173 24.4722 5.05157 24.1114 5.03633 18.7514L5.02109 13.051H16.0003H26.9794L26.9642 18.7514Z" fill="#38004D"/>
<path d="M15.5423 16.0742C15.4 16.1562 15.2687 16.3532 15.2632 16.5009C15.2632 16.5611 15.1593 16.6486 14.9897 16.7362C14.5903 16.9386 14.3606 17.1683 14.1691 17.5404C13.6439 18.5962 14.4043 19.8108 15.6626 19.9202C16.051 19.9585 16.248 20.0405 16.4066 20.243C16.8005 20.7408 16.0839 21.3536 15.4547 21.0527C15.2304 20.9487 15.1265 20.7955 15.0827 20.511C15.0444 20.2539 14.7873 19.9913 14.5739 19.9913C14.3934 19.9913 14.1308 20.1281 14.0597 20.2594C13.9502 20.4727 13.994 20.8885 14.1691 21.2387C14.3606 21.6107 14.5903 21.8405 14.9897 22.0429C15.1429 22.1195 15.2632 22.2179 15.2632 22.2617C15.2632 22.5298 15.5423 22.7814 15.8432 22.7814C16.0237 22.7814 16.3574 22.4587 16.3574 22.2781C16.3574 22.1797 16.4121 22.1304 16.62 22.0429C17.178 21.8131 17.6157 21.1566 17.6157 20.5384C17.6157 19.9257 17.1999 19.2965 16.6036 19.0284C16.4395 18.9518 16.1276 18.8698 15.8979 18.8479C15.6681 18.8205 15.4383 18.7658 15.3836 18.7275C15.0663 18.4868 15.0061 18.1422 15.2359 17.8905C15.6736 17.4145 16.5215 17.6662 16.5215 18.2735C16.5215 18.4649 16.8443 18.7877 17.0358 18.7877C17.2492 18.7877 17.4516 18.6728 17.5391 18.5087C17.8072 17.9835 17.3093 17.0152 16.62 16.7362C16.4121 16.6486 16.3574 16.5994 16.3574 16.4954C16.3574 16.4243 16.2753 16.2875 16.1714 16.1836C15.969 15.9812 15.772 15.9483 15.5423 16.0742Z" fill="#613EEA"/>
</svg>
