<svg width="24" height="24" viewBox="0 0 24 24" fill="none" xmlns="http://www.w3.org/2000/svg">
<path d="M12.6332 0.15C12.5114 0.267187 11.7004 1.86094 9.16448 6.96094C7.34573 10.6219 5.84573 13.6969 5.83167 13.7906C5.79417 14.0203 5.95354 14.3531 6.15979 14.4844C6.30979 14.5734 6.38479 14.5781 8.78479 14.5781C10.3082 14.5781 11.2504 14.5969 11.2504 14.6203C11.2504 14.6484 11.0301 16.6359 10.7582 19.0453C10.2098 23.9109 10.2192 23.6766 10.5426 23.8922C10.6598 23.9719 10.7676 24 10.9551 24C11.1754 24 11.227 23.9812 11.3629 23.8453C11.4848 23.7328 12.366 22.0406 14.7754 17.3016C16.5614 13.7859 18.0614 10.8141 18.1082 10.6969C18.2207 10.4109 18.1785 10.2 17.977 9.99844L17.8223 9.84375H15.2489H12.6754L13.2051 5.28281C13.5285 2.49375 13.7207 0.651562 13.702 0.539062C13.6832 0.407812 13.6223 0.299999 13.5004 0.178123C13.3364 0.014061 13.3035 0 13.0598 0C12.8254 0 12.7785 0.0187492 12.6332 0.15Z" fill="#613EEA"/>
<path d="M9.91362 1.56562C8.59644 1.8375 7.448 2.2875 6.37925 2.9625C3.71206 4.64062 1.94487 7.32187 1.47144 10.4062C1.36831 11.0578 1.3355 12.4641 1.40112 13.0687C1.83237 16.8469 4.03081 19.9781 7.38237 21.5906C8.04331 21.9094 9.08862 22.2891 9.14019 22.2328C9.15894 22.2094 9.22925 21.6469 9.29956 20.9766C9.36987 20.3062 9.43081 19.7297 9.4355 19.6969C9.44019 19.6594 9.32769 19.5891 9.15894 19.5234C5.84487 18.2672 3.70269 14.9109 3.98394 11.4047C4.21831 8.52656 5.91987 6.02812 8.50737 4.77187L9.00894 4.52812L9.75425 3.0375C10.1621 2.21719 10.4996 1.52812 10.4996 1.5C10.4996 1.44375 10.5371 1.43906 9.91362 1.56562Z" fill="#38004D"/>
<path d="M14.836 1.84219C14.8172 1.92657 14.5969 3.89531 14.5641 4.25625C14.5547 4.35 14.611 4.3875 14.9766 4.5375C16.1766 5.03906 17.1938 5.75156 18.0094 6.67969C21.525 10.6641 20.325 16.7719 15.5578 19.2094L15.0282 19.4766L14.2594 20.9906C13.8375 21.825 13.5 22.5141 13.5141 22.5281C13.5516 22.5656 14.4422 22.3781 14.986 22.2234C16.9266 21.6656 18.7313 20.5031 20.0532 18.9609C21.3985 17.3953 22.275 15.4547 22.5516 13.4297C22.65 12.7359 22.636 11.0766 22.5328 10.4297C21.9282 6.60938 19.4485 3.50157 15.8907 2.09532C15.5953 1.97813 15.2391 1.85156 15.1078 1.80938C14.8641 1.73907 14.8594 1.73907 14.836 1.84219Z" fill="#38004D"/>
</svg>
