<svg width="100" height="30" viewBox="0 0 100 30" fill="none" xmlns="http://www.w3.org/2000/svg">
<path d="M7.30868 0.496821C7.14293 0.582556 6.99432 0.725448 6.88572 0.896918C6.7314 1.14841 6.71997 1.217 6.69139 1.88001L6.66281 2.59447H5.90834C4.6166 2.59447 3.65065 2.84025 2.70756 3.41753C1.49013 4.14914 0.621343 5.28084 0.181237 6.68689L0.0211977 7.19559L0.00405069 15.8548C-0.00738065 22.245 0.00405069 24.6284 0.0554917 24.9427C0.209815 25.9544 0.741372 27.029 1.46726 27.8063C2.21602 28.6065 3.02193 29.1095 4.07932 29.441L4.59374 29.601H24.5986L25.0501 29.4696C25.6788 29.2867 26.2161 29.0523 26.702 28.738C27.2735 28.3722 28.1309 27.4805 28.4738 26.9089C28.7996 26.3545 29.1083 25.5257 29.194 24.9427C29.2454 24.6284 29.2569 22.245 29.2454 15.8548L29.2283 7.19559L29.0682 6.68118C28.4052 4.56638 26.7077 3.05173 24.5872 2.68021C24.3185 2.63448 23.7584 2.59447 23.3411 2.59447H22.5867L22.5581 1.88001C22.5295 1.217 22.5181 1.14841 22.3638 0.896918C22.1237 0.508253 21.7979 0.348214 21.3064 0.376792C20.8777 0.399655 20.6205 0.536831 20.3919 0.86834C20.2661 1.05124 20.2547 1.13698 20.2375 1.83429L20.2147 2.59447H9.03481L9.01195 1.83429C8.9948 1.13698 8.98337 1.05124 8.85763 0.86834C8.629 0.536831 8.37179 0.399655 7.94312 0.376792C7.62876 0.359645 7.52016 0.382508 7.30868 0.496821ZM6.67996 6.02388C6.67996 7.36134 6.72568 7.60712 7.04576 7.93863C7.58303 8.49876 8.50897 8.38445 8.89192 7.71C9.01767 7.4928 9.02338 7.4185 9.02338 6.20678V4.9379H20.2261V6.20678C20.2261 7.4185 20.2318 7.4928 20.3576 7.71C20.7405 8.38445 21.6664 8.49876 22.2037 7.93863C22.5238 7.60712 22.5695 7.36134 22.5695 6.02388V4.9379H23.2726C24.6386 4.9379 25.5531 5.34371 26.239 6.25822C26.742 6.93267 26.902 7.44708 26.9534 8.57306L26.9877 9.33897H2.26174L2.29604 8.57306C2.33033 7.75572 2.43321 7.24703 2.65041 6.82979C2.85046 6.42969 3.21054 5.97815 3.54205 5.7038C4.23365 5.13795 4.84522 4.94361 5.95407 4.94361L6.67996 4.9379V6.02388ZM26.9592 18.0954C26.942 24.1254 26.9306 24.5312 26.8334 24.8284C26.5305 25.7429 25.9189 26.5088 25.1702 26.8975C24.37 27.3148 25.1244 27.2862 14.6247 27.2862C4.12505 27.2862 4.87952 27.3148 4.07932 26.8975C3.33057 26.5088 2.71899 25.7429 2.41606 24.8284C2.3189 24.5312 2.30747 24.1254 2.29032 18.0954L2.27317 11.6824H26.9763L26.9592 18.0954Z" fill="#613EEA"/>
<path d="M14.1095 15.0835C13.9495 15.1758 13.8018 15.3974 13.7956 15.5636C13.7956 15.6313 13.6787 15.7297 13.4879 15.8282C13.0386 16.0559 12.7801 16.3144 12.5647 16.733C11.9738 17.9208 12.8293 19.2872 14.2449 19.4103C14.6819 19.4533 14.9035 19.5457 15.082 19.7734C15.5251 20.3335 14.7188 21.0228 14.011 20.6843C13.7587 20.5673 13.6418 20.395 13.5925 20.075C13.5494 19.7857 13.2602 19.4903 13.0201 19.4903C12.817 19.4903 12.5216 19.6441 12.4416 19.7918C12.3185 20.0319 12.3677 20.4996 12.5647 20.8935C12.7801 21.3121 13.0386 21.5706 13.4879 21.7983C13.6602 21.8844 13.7956 21.9952 13.7956 22.0445C13.7956 22.3461 14.1095 22.6292 14.448 22.6292C14.6511 22.6292 15.0266 22.266 15.0266 22.0629C15.0266 21.9521 15.0881 21.8968 15.322 21.7983C15.9498 21.5398 16.4421 20.8012 16.4421 20.1057C16.4421 19.4164 15.9744 18.7086 15.3035 18.407C15.1189 18.3209 14.7681 18.2285 14.5096 18.2039C14.2511 18.1732 13.9926 18.1116 13.931 18.0685C13.5741 17.7977 13.5064 17.41 13.7649 17.1269C14.2572 16.5914 15.2112 16.8745 15.2112 17.5577C15.2112 17.7731 15.5743 18.1362 15.7898 18.1362C16.0298 18.1362 16.2575 18.007 16.356 17.8223C16.6576 17.2315 16.0975 16.1421 15.322 15.8282C15.0881 15.7297 15.0266 15.6743 15.0266 15.5574C15.0266 15.4774 14.9342 15.3235 14.8173 15.2066C14.5896 14.9789 14.368 14.9419 14.1095 15.0835Z" fill="#613EEA"/>
<path d="M38.7911 28V19.2728H41.9019C42.5809 19.2728 43.1434 19.3963 43.5894 19.6435C44.0354 19.8907 44.3692 20.2287 44.5908 20.6577C44.8124 21.0838 44.9232 21.564 44.9232 22.0981C44.9232 22.635 44.811 23.1179 44.5866 23.5469C44.365 23.9731 44.0297 24.3111 43.5809 24.5611C43.1348 24.8083 42.5738 24.9319 41.8976 24.9319H39.7584V23.8154H41.7783C42.2073 23.8154 42.5553 23.7415 42.8223 23.5938C43.0894 23.4432 43.2854 23.2387 43.4104 22.9802C43.5354 22.7216 43.5979 22.4276 43.5979 22.0981C43.5979 21.7685 43.5354 21.4759 43.4104 21.2202C43.2854 20.9645 43.088 20.7642 42.8181 20.6194C42.551 20.4745 42.1988 20.402 41.7613 20.402H40.1079V28H38.7911Z" fill="#171D33"/>
<path d="M54.3478 23.6364C54.3478 24.5682 54.1774 25.3694 53.8365 26.0398C53.4956 26.7074 53.0282 27.2216 52.4345 27.5824C51.8436 27.9404 51.1717 28.1194 50.4189 28.1194C49.6632 28.1194 48.9885 27.9404 48.3947 27.5824C47.8038 27.2216 47.3379 26.706 46.997 26.0356C46.6561 25.3651 46.4856 24.5654 46.4856 23.6364C46.4856 22.7046 46.6561 21.9049 46.997 21.2373C47.3379 20.5668 47.8038 20.0526 48.3947 19.6946C48.9885 19.3338 49.6632 19.1535 50.4189 19.1535C51.1717 19.1535 51.8436 19.3338 52.4345 19.6946C53.0282 20.0526 53.4956 20.5668 53.8365 21.2373C54.1774 21.9049 54.3478 22.7046 54.3478 23.6364ZM53.0439 23.6364C53.0439 22.9262 52.9288 22.3282 52.6987 21.8424C52.4714 21.3537 52.1589 20.9844 51.7612 20.7344C51.3663 20.4816 50.9189 20.3552 50.4189 20.3552C49.916 20.3552 49.4672 20.4816 49.0723 20.7344C48.6774 20.9844 48.3649 21.3537 48.1348 21.8424C47.9075 22.3282 47.7939 22.9262 47.7939 23.6364C47.7939 24.3466 47.9075 24.9461 48.1348 25.4347C48.3649 25.9205 48.6774 26.2898 49.0723 26.5427C49.4672 26.7927 49.916 26.9177 50.4189 26.9177C50.9189 26.9177 51.3663 26.7927 51.7612 26.5427C52.1589 26.2898 52.4714 25.9205 52.6987 25.4347C52.9288 24.9461 53.0439 24.3466 53.0439 23.6364Z" fill="#171D33"/>
<path d="M61.0495 21.5654C61.004 21.162 60.8165 20.8495 60.487 20.6279C60.1574 20.4035 59.7427 20.2912 59.2427 20.2912C58.8847 20.2912 58.575 20.3481 58.3137 20.4617C58.0523 20.5725 57.8492 20.7259 57.7043 20.9219C57.5623 21.1151 57.4912 21.3353 57.4912 21.5824C57.4912 21.7898 57.5395 21.9688 57.6361 22.1194C57.7356 22.2699 57.8648 22.3963 58.0239 22.4986C58.1858 22.5981 58.3591 22.6819 58.5438 22.75C58.7285 22.8154 58.906 22.8694 59.0765 22.912L59.9287 23.1336C60.2071 23.2017 60.4927 23.2941 60.7853 23.4106C61.0779 23.527 61.3492 23.6804 61.5992 23.8708C61.8492 24.0611 62.0509 24.2969 62.2043 24.5782C62.3606 24.8594 62.4387 25.1961 62.4387 25.5881C62.4387 26.0824 62.3108 26.5213 62.0552 26.9049C61.8023 27.2884 61.4344 27.591 60.9515 27.8125C60.4714 28.0341 59.8904 28.1449 59.2086 28.1449C58.5552 28.1449 57.9898 28.0412 57.5125 27.8338C57.0353 27.6265 56.6617 27.3324 56.3918 26.9517C56.1219 26.5682 55.9728 26.1137 55.9444 25.5881H57.2654C57.291 25.9035 57.3932 26.1662 57.5722 26.3765C57.754 26.5838 57.9856 26.7387 58.2668 26.841C58.5509 26.9404 58.862 26.9901 59.2 26.9901C59.5722 26.9901 59.9032 26.9319 60.1929 26.8154C60.4856 26.6961 60.7157 26.5313 60.8833 26.3211C61.0509 26.108 61.1347 25.8594 61.1347 25.5753C61.1347 25.3168 61.0608 25.1052 60.9131 24.9404C60.7682 24.7756 60.5708 24.6392 60.3208 24.5313C60.0736 24.4233 59.7938 24.3282 59.4813 24.2458L58.45 23.9645C57.7512 23.7742 57.1972 23.4944 56.7881 23.125C56.3819 22.7557 56.1787 22.2671 56.1787 21.6591C56.1787 21.1563 56.3151 20.7174 56.5878 20.3424C56.8606 19.9674 57.2299 19.6762 57.6958 19.4688C58.1617 19.2586 58.6873 19.1535 59.2725 19.1535C59.8634 19.1535 60.3847 19.2571 60.8364 19.4645C61.291 19.6719 61.6489 19.9574 61.9103 20.3211C62.1716 20.6819 62.308 21.0966 62.3194 21.5654H61.0495Z" fill="#171D33"/>
<path d="M63.8818 20.4063V19.2728H70.6361V20.4063H67.913V28H66.6005V20.4063H63.8818Z" fill="#171D33"/>
<path d="M72.4286 28V19.2728H75.5394C76.2184 19.2728 76.7809 19.3963 77.2269 19.6435C77.6729 19.8907 78.0067 20.2287 78.2283 20.6577C78.4499 21.0838 78.5607 21.564 78.5607 22.0981C78.5607 22.635 78.4485 23.1179 78.2241 23.5469C78.0025 23.9731 77.6672 24.3111 77.2184 24.5611C76.7723 24.8083 76.2113 24.9319 75.5351 24.9319H73.3959V23.8154H75.4158C75.8448 23.8154 76.1928 23.7415 76.4598 23.5938C76.7269 23.4432 76.9229 23.2387 77.0479 22.9802C77.1729 22.7216 77.2354 22.4276 77.2354 22.0981C77.2354 21.7685 77.1729 21.4759 77.0479 21.2202C76.9229 20.9645 76.7255 20.7642 76.4556 20.6194C76.1885 20.4745 75.8363 20.402 75.3988 20.402H73.7454V28H72.4286Z" fill="#171D33"/>
<path d="M80.2158 28H78.8181L81.9587 19.2728H83.48L86.6206 28H85.2229L82.7556 20.858H82.6874L80.2158 28ZM80.4502 24.5824H84.9843V25.6904H80.4502V24.5824Z" fill="#171D33"/>
<path d="M89.4977 19.2728V28H88.1809V19.2728H89.4977Z" fill="#171D33"/>
<path d="M94.5406 28H91.7153V19.2728H94.6301C95.4852 19.2728 96.2196 19.4475 96.8332 19.7969C97.4469 20.1435 97.917 20.6421 98.2437 21.2927C98.5733 21.9404 98.738 22.7174 98.738 23.6236C98.738 24.5327 98.5719 25.314 98.2395 25.9674C97.9099 26.6208 97.4326 27.1236 96.8076 27.4759C96.1826 27.8253 95.427 28 94.5406 28ZM93.0321 26.8495H94.4682C95.1329 26.8495 95.6855 26.7245 96.1258 26.4745C96.5662 26.2216 96.8957 25.8566 97.1145 25.3793C97.3332 24.8992 97.4426 24.314 97.4426 23.6236C97.4426 22.939 97.3332 22.358 97.1145 21.8807C96.8986 21.4035 96.5761 21.0412 96.1471 20.7941C95.7182 20.5469 95.1855 20.4233 94.5491 20.4233H93.0321V26.8495Z" fill="#171D33"/>
<path d="M37.6245 13.0579V1.00004H40.6961C41.637 1.00004 42.3842 1.27335 42.9376 1.81998C43.4911 2.36124 43.7678 3.07936 43.7678 3.97432V10.0836C43.7678 10.9732 43.4911 11.6914 42.9376 12.238C42.3842 12.7846 41.637 13.0579 40.6961 13.0579H37.6245ZM39.866 10.8875H40.6961C40.9618 10.8875 41.1666 10.8152 41.3105 10.6705C41.4544 10.5204 41.5263 10.3248 41.5263 10.0836V3.97432C41.5263 3.73316 41.4544 3.54023 41.3105 3.39554C41.1666 3.24549 40.9618 3.17046 40.6961 3.17046H39.866V10.8875Z" fill="#171D33"/>
<path d="M45.71 13.0579V4.21548H47.7855V13.0579H45.71ZM45.71 3.57239V1.48236H47.7855V3.57239H45.71Z" fill="#171D33"/>
<path d="M52.3874 16C51.5018 16 50.7962 15.7267 50.2704 15.1801C49.7446 14.6335 49.4817 13.9154 49.4817 13.0258V12.6721H51.5572V13.1865C51.5572 13.4277 51.6291 13.6206 51.773 13.7653C51.9169 13.9154 52.1217 13.9904 52.3874 13.9904C52.653 13.9904 52.8578 13.9154 53.0017 13.7653C53.1456 13.6206 53.2175 13.4277 53.2175 13.1865V10.582L53.5828 11.0483C53.4113 11.3913 53.165 11.6592 52.844 11.8521C52.5285 12.0451 52.1383 12.1415 51.6734 12.1415C51.3137 12.1415 50.965 12.0638 50.6274 11.9084C50.2953 11.753 50.0214 11.4743 49.8055 11.0724C49.5897 10.6651 49.4817 10.0836 49.4817 9.32802V6.81998C49.4817 6.06435 49.5897 5.48289 49.8055 5.0756C50.0214 4.66832 50.2953 4.38965 50.6274 4.23959C50.965 4.08418 51.3137 4.00647 51.6734 4.00647C52.1383 4.00647 52.5285 4.10294 52.844 4.29586C53.165 4.48343 53.4113 4.75138 53.5828 5.09972L53.2175 5.56596V4.21548H55.293V13.0579C55.293 13.6474 55.1712 14.1619 54.9277 14.6013C54.6897 15.0461 54.3521 15.3891 53.9149 15.6303C53.4832 15.8768 52.974 16 52.3874 16ZM52.3874 10.1319C52.653 10.1319 52.8578 10.0595 53.0017 9.91483C53.1456 9.76478 53.2175 9.56917 53.2175 9.32802V6.81998C53.2175 6.57882 53.1456 6.38589 53.0017 6.2412C52.8578 6.09115 52.653 6.01612 52.3874 6.01612C52.1217 6.01612 51.9169 6.09115 51.773 6.2412C51.6291 6.38589 51.5572 6.57882 51.5572 6.81998V9.32802C51.5572 9.56917 51.6291 9.76478 51.773 9.91483C51.9169 10.0595 52.1217 10.1319 52.3874 10.1319Z" fill="#171D33"/>
<path d="M57.2547 13.0579V4.21548H59.3301V13.0579H57.2547ZM57.2547 3.57239V1.48236H59.3301V3.57239H57.2547Z" fill="#171D33"/>
<path d="M62.7566 13.0579L61.229 1.00004H63.5203L64.4003 9.34409H64.1347L65.5127 1.00004H67.3225L68.7006 9.34409H68.435L69.315 1.00004H71.6063L70.0787 13.0579H67.6546L66.2433 5.80712H66.6086L65.1807 13.0579H62.7566Z" fill="#613EEA"/>
<path d="M74.5141 13.2669C73.7669 13.2669 73.1969 13.0418 72.8039 12.5917C72.4165 12.1362 72.2228 11.5601 72.2228 10.8634C72.2228 10.4615 72.2837 10.1212 72.4054 9.84249C72.5272 9.56381 72.6877 9.3307 72.8869 9.14313C73.0917 8.9502 73.3186 8.78675 73.5677 8.65277C73.8499 8.49736 74.1405 8.36874 74.4394 8.26692C74.7382 8.15974 75.015 8.05524 75.2695 7.95342C75.5241 7.84624 75.7289 7.71762 75.8839 7.56757C76.0444 7.41751 76.1246 7.22191 76.1246 6.98075V6.81998C76.1246 6.57882 76.0527 6.38589 75.9088 6.2412C75.7649 6.09115 75.5601 6.01612 75.2944 6.01612C75.0288 6.01612 74.824 6.09115 74.6801 6.2412C74.5362 6.38589 74.4643 6.57882 74.4643 6.81998V7.30229H72.3888V6.98075C72.3888 6.08579 72.6517 5.36767 73.1775 4.82641C73.7033 4.27978 74.4089 4.00647 75.2944 4.00647C75.8866 4.00647 76.3986 4.12973 76.8303 4.37625C77.2675 4.62276 77.6051 4.9711 77.8431 5.42126C78.0811 5.86607 78.2001 6.38589 78.2001 6.98075V13.0579H76.1246V11.6753L76.4899 12.1254C76.3183 12.4952 76.061 12.7792 75.7178 12.9775C75.3802 13.1705 74.979 13.2669 74.5141 13.2669ZM75.1948 11.418C75.4273 11.418 75.6404 11.3511 75.8341 11.2171C76.0278 11.0831 76.1246 10.8446 76.1246 10.5016V9.26371C75.9807 9.38697 75.8036 9.48343 75.5933 9.5531C75.383 9.6174 75.1672 9.70315 74.9458 9.81033C74.7244 9.91215 74.5611 10.0274 74.456 10.156C74.3508 10.2792 74.2982 10.432 74.2982 10.6142C74.2982 10.8232 74.3729 11.0108 74.5224 11.1769C74.6718 11.3377 74.896 11.418 75.1948 11.418Z" fill="#613EEA"/>
<path d="M80.0336 13.0579V1.00004H82.109V13.0579H80.0336Z" fill="#613EEA"/>
<path d="M84.071 13.0579V1.00004H86.1464V13.0579H84.071Z" fill="#613EEA"/>
<path d="M90.7483 13.2669C90.1561 13.2669 89.6414 13.1437 89.2042 12.8971C88.7725 12.6453 88.4377 12.2969 88.1997 11.8521C87.9617 11.4073 87.8427 10.8875 87.8427 10.2926V6.98075C87.8427 6.38589 87.9617 5.86607 88.1997 5.42126C88.4377 4.9711 88.7725 4.62276 89.2042 4.37625C89.6414 4.12973 90.1561 4.00647 90.7483 4.00647C91.6394 4.00647 92.345 4.27978 92.8653 4.82641C93.3911 5.36767 93.6539 6.08579 93.6539 6.98075V9.15117H89.6525V7.30229H91.5785V6.81998C91.5785 6.57882 91.5066 6.38589 91.3627 6.2412C91.2188 6.09115 91.014 6.01612 90.7483 6.01612C90.4827 6.01612 90.2779 6.09115 90.134 6.2412C89.9901 6.38589 89.9182 6.57882 89.9182 6.81998V10.4534C89.9182 10.6946 89.9901 10.8902 90.134 11.0402C90.2779 11.1849 90.4827 11.2573 90.7483 11.2573C91.014 11.2573 91.2188 11.1849 91.3627 11.0402C91.5066 10.8902 91.5785 10.6946 91.5785 10.4534V10.1319H93.6539V10.2926C93.6539 11.1823 93.3911 11.9004 92.8653 12.447C92.345 12.9936 91.6394 13.2669 90.7483 13.2669Z" fill="#613EEA"/>
<path d="M98.7113 13.1705C97.8258 13.1705 97.1201 12.9239 96.5943 12.4309C96.0686 11.9379 95.8057 11.2466 95.8057 10.357V6.06435H94.3113V4.21548H95.8057V2.12544H97.8811V4.21548H99.6245V6.06435H97.8811V10.357C97.8811 10.5981 97.953 10.7937 98.0969 10.9438C98.2408 11.0885 98.4456 11.1608 98.7113 11.1608H99.6245V13.1705H98.7113Z" fill="#613EEA"/>
</svg>
