<svg width="24" height="24" viewBox="0 0 24 24" fill="none" xmlns="http://www.w3.org/2000/svg">
<path d="M11.2673 1.09953C10.4708 1.37077 3.74582 3.83777 3.59083 3.91526C3.05696 4.1822 2.72114 4.86676 2.82877 5.45229C2.8546 5.58576 2.94071 5.87422 3.02251 6.0981C3.10432 6.31767 3.1732 6.51572 3.1732 6.53294C3.1732 6.55017 3.04404 6.58891 2.88905 6.61905C2.31212 6.72669 1.68354 7.15723 1.36063 7.65665C1.28744 7.7772 1.17119 8.00108 1.11092 8.16038L0.998979 8.44885L0.986062 14.6701C0.977452 20.758 0.977452 20.8957 1.06356 21.2273C1.1755 21.6707 1.36063 21.9893 1.70506 22.3337C2.03227 22.6567 2.41976 22.8676 2.85891 22.958C3.29806 23.0527 19.4089 23.0527 19.848 22.958C20.4809 22.8246 21.1052 22.3682 21.4195 21.8128C21.6993 21.322 21.7295 21.0766 21.7295 19.419V17.9422H21.8285C21.9964 17.9422 22.3667 17.7399 22.569 17.5332C22.681 17.4256 22.823 17.2232 22.8833 17.0898L22.9996 16.8444V14.7563V12.6681L22.8876 12.4313C22.6896 12.0051 22.3624 11.7209 21.9318 11.5918L21.751 11.5401L21.7295 9.99448C21.7036 8.46607 21.7036 8.44454 21.596 8.16038C21.2774 7.34236 20.5842 6.75252 19.7619 6.61044L19.4519 6.55878L19.439 5.58576L19.4261 4.61274L19.284 4.32858C19.129 4.00998 18.875 3.76027 18.5521 3.59666L18.3497 3.49764L16.0679 3.47611L13.786 3.45459L13.5018 2.6667C13.1617 1.73243 13.1101 1.62479 12.869 1.40091C12.6106 1.16412 12.2791 1.02204 11.9261 0.996205C11.6807 0.978984 11.573 0.996205 11.2673 1.09953ZM11.9433 2.30505C12.0036 2.34379 12.0768 2.5074 12.2748 3.0628L12.4169 3.4632L12.0638 3.48903C11.7711 3.50625 11.6591 3.53208 11.4439 3.64833C11.1296 3.81624 10.91 4.04873 10.755 4.37594C10.6474 4.61274 10.6431 4.64288 10.6301 5.59437L10.6172 6.576H7.59484H4.57246L4.32274 5.90005C4.10317 5.3016 4.08164 5.21549 4.13761 5.138C4.18067 5.06911 5.18813 4.68593 7.97803 3.66555C10.0575 2.9035 11.7926 2.27921 11.827 2.27491C11.8615 2.27491 11.9132 2.28782 11.9433 2.30505ZM18.0871 4.83662C18.1431 4.89259 18.156 5.03467 18.156 5.74075V6.576H15.0346H11.9132V5.74075C11.9132 5.03467 11.9261 4.89259 11.982 4.83662C12.0423 4.77634 12.3781 4.76773 15.0346 4.76773C17.691 4.76773 18.0268 4.77634 18.0871 4.83662ZM19.7188 7.92789C19.9556 8.014 20.1623 8.19052 20.2958 8.41871L20.4163 8.62106L20.4292 10.072L20.4421 11.5229L18.9439 11.5358L17.4456 11.5487L17.1012 11.6693C16.0076 12.0525 15.2369 12.8619 14.9442 13.9382C14.8451 14.287 14.8365 15.1437 14.9226 15.4839C15.1594 16.4181 15.7923 17.2146 16.6233 17.6193C17.2906 17.9465 17.3423 17.9552 18.9869 17.9767L20.4378 17.9896V19.4018C20.4378 20.9905 20.4249 21.0852 20.1408 21.3779C20.0547 21.4684 19.904 21.5803 19.8136 21.6234C19.6456 21.7095 19.5036 21.7095 11.3535 21.7095C3.20334 21.7095 3.06126 21.7095 2.89335 21.6234C2.80294 21.5803 2.65225 21.4641 2.56614 21.3736C2.24754 21.0464 2.26476 21.4985 2.27768 14.7132L2.2906 8.62106L2.41115 8.41871C2.54462 8.19052 2.75127 8.014 2.98807 7.92789C3.22917 7.84178 19.4777 7.84178 19.7188 7.92789ZM21.6606 12.8877C21.7208 12.9437 21.7295 13.1762 21.7295 14.7433C21.7295 16.3492 21.7208 16.543 21.6563 16.6162C21.5917 16.6894 21.4754 16.6937 19.7318 16.6937C17.7211 16.6937 17.6135 16.6851 17.1571 16.4526C16.7008 16.2201 16.2917 15.6776 16.1798 15.1523C16.0119 14.3472 16.3735 13.5163 17.0839 13.0901C17.5145 12.8317 17.5963 12.8231 19.693 12.8231C21.3678 12.8188 21.6003 12.8274 21.6606 12.8877Z" fill="#38004D"/>
<path d="M18.005 13.9383C17.3355 14.2635 17.3479 15.2268 18.0236 15.552C18.1662 15.6195 18.346 15.6747 18.4266 15.6747C18.7056 15.6747 19.0776 15.4416 19.2264 15.1777C19.6666 14.4046 18.8172 13.5395 18.005 13.9383Z" fill="#613EEA"/>
</svg>
