<svg width="18" height="19" viewBox="0 0 18 19" fill="none" xmlns="http://www.w3.org/2000/svg">
<path d="M8.70962 1.02884C8.37031 1.09531 8.19739 1.21828 7.53834 1.85974C7.12398 2.26189 6.86623 2.48789 6.78467 2.51781C6.67047 2.56101 6.59217 2.55437 5.91354 2.4613C5.50245 2.40148 5.06852 2.35163 4.95106 2.35163C4.46166 2.34498 4.01794 2.58428 3.74388 2.9964C3.58075 3.24899 3.54486 3.37197 3.38825 4.28928C3.31648 4.70805 3.23491 5.09358 3.20881 5.15008C3.14682 5.26641 3.06199 5.32291 2.39315 5.67853C1.48287 6.16378 1.32626 6.29007 1.13703 6.69223C1.03263 6.91823 1.00326 7.07776 1 7.38021C1 7.65939 1.04894 7.79898 1.45351 8.64317C1.71778 9.19821 1.79935 9.39763 1.79935 9.50066C1.79935 9.60369 1.71778 9.8031 1.45351 10.3581C1.04894 11.2023 1 11.3419 1 11.6211C1.00326 11.9236 1.03263 12.0831 1.13703 12.3091C1.32626 12.7112 1.48287 12.8375 2.39315 13.3228C3.06199 13.6784 3.14682 13.7349 3.20881 13.8512C3.23491 13.9077 3.31648 14.2933 3.38825 14.7154C3.46003 15.1341 3.5416 15.5463 3.56444 15.6293C3.74062 16.2276 4.28874 16.643 4.90538 16.6497C5.03263 16.653 5.47635 16.6032 5.89723 16.5433C6.59217 16.4469 6.67047 16.4403 6.78467 16.4835C6.86623 16.5134 7.12398 16.7394 7.53834 17.1416C8.03752 17.6301 8.20718 17.7731 8.37031 17.8495C8.64763 17.9824 8.94127 18.029 9.21533 17.9824C9.62316 17.9127 9.77325 17.8129 10.4617 17.1416C10.876 16.7394 11.1338 16.5134 11.2153 16.4835C11.3295 16.4403 11.4078 16.4469 12.0865 16.54C12.4976 16.5998 12.9315 16.6497 13.0489 16.6497C13.5383 16.6563 13.9821 16.417 14.2561 16.0049C14.4192 15.7523 14.4551 15.6293 14.6117 14.712C14.6835 14.2933 14.7651 13.9077 14.7912 13.8512C14.8532 13.7316 14.925 13.6851 15.6917 13.2763C16.416 12.8874 16.5759 12.7711 16.7488 12.5052C16.9217 12.2459 16.9967 12 17 11.6743C17 11.3353 16.9674 11.2389 16.5465 10.3581C16.2822 9.8031 16.2007 9.60369 16.2007 9.50066C16.2007 9.39763 16.2822 9.19821 16.5465 8.64317C16.9674 7.76242 17 7.66604 17 7.32703C16.9967 7.00132 16.9217 6.75538 16.7488 6.49614C16.5759 6.23025 16.416 6.11392 15.6917 5.72506C14.925 5.31626 14.8532 5.26973 14.7912 5.15008C14.7651 5.09358 14.6835 4.70805 14.6117 4.28928C14.4551 3.37197 14.4192 3.24899 14.2561 2.9964C13.9821 2.58428 13.5383 2.34498 13.0489 2.35163C12.9315 2.35163 12.4976 2.40148 12.0865 2.4613C11.4078 2.55437 11.3295 2.56101 11.2153 2.51781C11.1338 2.48789 10.876 2.26189 10.4617 1.85974C9.969 1.38114 9.78956 1.22825 9.63622 1.15514C9.323 1.00557 9.02936 0.965692 8.70962 1.02884ZM9.2447 2.0525C9.30016 2.08906 9.61011 2.37822 9.93964 2.69728C10.5922 3.33873 10.7651 3.45506 11.1501 3.51488C11.3719 3.55144 11.447 3.54479 12.4486 3.39856C12.7945 3.3487 13.0946 3.31879 13.1599 3.33208C13.2969 3.35867 13.447 3.48497 13.4959 3.60794C13.5155 3.66112 13.5938 4.0533 13.6688 4.48204C13.8124 5.32623 13.8646 5.50238 14.044 5.76827C14.2039 6.00757 14.354 6.1106 15.1533 6.54267C15.5285 6.74873 15.8613 6.93817 15.8972 6.96809C15.9788 7.0412 16.0473 7.21403 16.0473 7.34365C16.0473 7.41012 15.907 7.73916 15.6721 8.23437C15.2839 9.05197 15.2316 9.19821 15.2316 9.50066C15.2316 9.8031 15.2839 9.94934 15.6721 10.7669C15.907 11.2622 16.0473 11.5912 16.0473 11.6577C16.0473 11.7873 15.9788 11.9601 15.8972 12.0332C15.8613 12.0631 15.5285 12.2526 15.1533 12.4586C14.354 12.8907 14.2039 12.9937 14.044 13.233C13.8646 13.4989 13.8124 13.6751 13.6688 14.5193C13.5938 14.948 13.5155 15.3402 13.4959 15.3934C13.447 15.5163 13.2969 15.6426 13.1599 15.6692C13.0946 15.6825 12.7945 15.6526 12.4486 15.6028C11.447 15.4565 11.3719 15.4499 11.1501 15.4864C10.7651 15.5463 10.5922 15.6626 9.93964 16.304C9.61011 16.6231 9.30016 16.9123 9.2447 16.9488C9.13377 17.0219 8.89233 17.0319 8.7814 16.9688C8.74225 16.9455 8.44535 16.6696 8.11909 16.3539C7.48613 15.739 7.35563 15.6393 7.07504 15.5396C6.81403 15.4499 6.50734 15.4598 5.68189 15.5828C5.2447 15.646 4.90865 15.6825 4.84013 15.6692C4.7031 15.6426 4.55302 15.5163 4.50408 15.3934C4.4845 15.3402 4.4062 14.948 4.33116 14.5193C4.1876 13.6751 4.1354 13.4989 3.95595 13.233C3.79608 12.9937 3.646 12.8907 2.84666 12.4586C2.47145 12.2526 2.13866 12.0631 2.10277 12.0332C2.02121 11.9601 1.95269 11.7873 1.95269 11.6577C1.95269 11.5912 2.09299 11.2622 2.3279 10.7669C2.71615 9.94934 2.76835 9.8031 2.76835 9.50066C2.76835 9.19821 2.71615 9.05197 2.3279 8.23437C2.09299 7.73916 1.95269 7.41012 1.95269 7.34365C1.95269 7.21403 2.02121 7.0412 2.10277 6.96809C2.13866 6.93817 2.47145 6.74873 2.84666 6.54267C3.646 6.1106 3.79608 6.00757 3.95595 5.76827C4.1354 5.50238 4.1876 5.32623 4.33116 4.48204C4.4062 4.0533 4.4845 3.66112 4.50408 3.60794C4.55302 3.48497 4.7031 3.35867 4.84013 3.33208C4.90538 3.31879 5.20555 3.3487 5.55139 3.39856C6.55302 3.54479 6.62806 3.55144 6.84992 3.51488C7.23491 3.45506 7.40783 3.33873 8.06036 2.69728C8.38989 2.37822 8.7031 2.08906 8.7553 2.0525C8.81403 2.01594 8.91191 1.98936 9 1.98936C9.08809 1.98936 9.18597 2.01594 9.2447 2.0525Z" fill="white"/>
<path d="M6.52148 4.87697C5.64961 5.07033 5.02734 5.84728 5.02734 6.73322C5.03086 7.57345 5.60039 8.31877 6.43008 8.56486C6.67266 8.63517 7.12969 8.63869 7.39336 8.56838C8.08945 8.38908 8.65547 7.78439 8.79258 7.08127C9.0457 5.76994 7.82578 4.58517 6.52148 4.87697ZM7.36875 6.00197C7.83281 6.29025 7.9207 6.92658 7.54805 7.3133C7.20352 7.67189 6.66563 7.67892 6.31406 7.33439C6.09258 7.11291 6.00469 6.69103 6.12422 6.40627C6.32812 5.92463 6.9293 5.73127 7.36875 6.00197Z" fill="white"/>
<path d="M12.2153 5.60124C12.1063 5.661 5.17 12.6008 5.11023 12.7063C4.99422 12.9243 5.08914 13.2301 5.31414 13.3673C5.4407 13.4446 5.65516 13.4587 5.77469 13.3989C5.88367 13.3426 12.8235 6.40983 12.8868 6.29382C13.0028 6.07585 12.9079 5.76999 12.6829 5.63288C12.5563 5.55554 12.3278 5.54147 12.2153 5.60124Z" fill="white"/>
<path d="M10.5912 10.4317C9.90565 10.618 9.34315 11.2227 9.20604 11.9188C9.12167 12.3547 9.23065 12.9137 9.46972 13.2793C9.77206 13.7364 10.2783 14.0668 10.8021 14.1477C11.9307 14.32 12.9748 13.4164 12.9713 12.2668C12.9678 11.4266 12.3982 10.6813 11.5685 10.4352C11.333 10.3649 10.8443 10.3649 10.5912 10.4317ZM11.456 11.5039C11.7514 11.6516 11.9307 11.9469 11.9271 12.2774C11.9201 12.7836 11.5264 13.1457 11.0166 13.1141C10.2994 13.0684 9.95487 12.2035 10.4506 11.6868C10.7178 11.4055 11.1221 11.3317 11.456 11.5039Z" fill="white"/>
</svg>
