<?xml version="1.0" encoding="UTF-8"?>
<svg version="1.1" xmlns="http://www.w3.org/2000/svg" width="50" height="50">
<path d="M0 0 C1.26650391 0.62648437 1.26650391 0.62648437 2.55859375 1.265625 C4.5625 2.75 4.5625 2.75 5.53515625 4.671875 C5.57303544 7.55069316 4.34580265 8.52804589 2.5625 10.75 C1.79622671 12.69411386 1.06956863 14.65413017 0.375 16.625 C-2.33093687 23.38159237 -6.05103802 26.55676901 -12.4375 29.75 C-12.1075 30.41 -11.7775 31.07 -11.4375 31.75 C-10.90631748 36.66996928 -10.68644447 40.52327597 -13.3125 44.8125 C-17.05535149 48.22509989 -20.04519925 48.07843064 -24.953125 48.04296875 C-28.40948834 47.63537873 -30.12413869 46.28723498 -32.4375 43.75 C-33.67439062 41.27621876 -33.57060087 39.57084683 -33.5625 36.8125 C-33.56507812 35.93722656 -33.56765625 35.06195313 -33.5703125 34.16015625 C-33.4375 31.75 -33.4375 31.75 -32.4375 28.75 C-33.23766928 26.40410715 -33.23766928 26.40410715 -34.4375 23.9375 C-36.65114604 18.5814054 -36.72954923 16.00077226 -34.58203125 10.59765625 C-30.83551403 3.31074089 -24.88054204 1.22773793 -17.5078125 -1.25390625 C-11.34994958 -2.98406781 -5.79959441 -3.00384609 0 0 Z M-28.64453125 7.72265625 C-31.05221426 10.85674484 -32.90014916 13.78128024 -33.4375 17.75 C-32.92455618 19.91878904 -32.92455618 19.91878904 -32 22 C-31.71253906 22.70640625 -31.42507812 23.4128125 -31.12890625 24.140625 C-30.78666016 24.93726563 -30.78666016 24.93726563 -30.4375 25.75 C-29.4475 24.76 -28.4575 23.77 -27.4375 22.75 C-28.0975 20.77 -28.7575 18.79 -29.4375 16.75 C-28.633125 16.46125 -27.82875 16.1725 -27 15.875 C-24.3048532 15.01737432 -24.3048532 15.01737432 -23.4375 12.75 C-20.1375 13.08 -16.8375 13.41 -13.4375 13.75 C-14.076875 14.678125 -14.71625 15.60625 -15.375 16.5625 C-17.52372093 19.59219943 -17.52372093 19.59219943 -18.4375 22.75 C-19.77083333 23.08333333 -21.10416667 23.41666667 -22.4375 23.75 C-24.1449998 25.03062485 -25.82013741 26.3572711 -27.4375 27.75 C-27.08963292 29.72536745 -27.08963292 29.72536745 -26.4375 31.75 C-25.7775 32.08 -25.1175 32.41 -24.4375 32.75 C-22.73163143 31.81844742 -21.07162814 30.80233217 -19.4375 29.75 C-18.45652344 29.20601562 -17.47554687 28.66203125 -16.46484375 28.1015625 C-15.44519531 27.53179688 -14.42554687 26.96203125 -13.375 26.375 C-12.35277344 25.81039063 -11.33054687 25.24578125 -10.27734375 24.6640625 C-5.62975791 21.53157686 -3.19987116 17.85418309 -1.1875 12.6875 C-0.85234375 11.85089844 -0.5171875 11.01429687 -0.171875 10.15234375 C0.75739137 7.53113697 0.75739137 7.53113697 0.5625 3.75 C-0.46875 3.255 -1.5 2.76 -2.5625 2.25 C-3.14257812 1.9715625 -3.72265625 1.693125 -4.3203125 1.40625 C-12.15240302 -1.02140905 -22.68984475 2.40032584 -28.64453125 7.72265625 Z M-24.1875 17.125 C-25.64073692 18.67251592 -25.64073692 18.67251592 -25.4375 20.75 C-22.99269921 20.56171228 -22.99269921 20.56171228 -20.4375 19.75 C-19.07729849 17.78241727 -19.07729849 17.78241727 -18.4375 15.75 C-22.28421473 15.33811897 -22.28421473 15.33811897 -24.1875 17.125 Z M-17.4375 31.75 C-18.38625 32.245 -19.335 32.74 -20.3125 33.25 C-23.7598432 34.90472474 -24.89634164 34.93038612 -28.4375 33.75 C-29.0975 33.42 -29.7575 33.09 -30.4375 32.75 C-30.91964126 38.28168272 -30.91964126 38.28168272 -28.9375 43.25 C-25.40161027 45.37153384 -22.45848277 45.541013 -18.4375 44.75 C-15.77083333 43.41666667 -15.77083333 43.41666667 -14.4375 40.75 C-14.12165087 37.99158426 -14.2512343 35.54398546 -14.4375 32.75 C-15.4275 32.42 -16.4175 32.09 -17.4375 31.75 Z " fill="#209F25" transform="translate(41.4375,2.25)"/>
</svg>
