<svg width="32" height="32" viewBox="0 0 32 32" fill="none" xmlns="http://www.w3.org/2000/svg">
<g clip-path="url(#clip0_92_1094)">
<path d="M8.2125 0.762503C7.08125 1.91875 6.31875 3.00625 5.65625 4.4C4.2125 7.43125 4 11.0063 5.075 14.2375C5.56875 15.7313 6.5125 17.4125 7.48125 18.525C8.125 19.2688 8.1 19.2125 7.91875 19.45C7.14375 20.4813 7.00625 22.15 7.6 23.3188C7.68125 23.4875 7.75 23.6688 7.75 23.7313C7.75 23.7938 7.45625 25.2375 7.10625 26.9375L6.4625 30.0313L5.41875 30.05L4.375 30.0625V31.0313V32H11H17.625V31.0313V30.0625H16.6H15.575L15.4812 29.6375C15.425 29.4063 15.125 27.975 14.8125 26.4563L14.2375 23.7L14.4187 23.3125C14.5938 22.9313 14.5938 22.9313 14.8125 22.9688C16.4313 23.2375 17.5875 23.3 18.75 23.1938C21.9188 22.8938 24.5813 21.65 26.9375 19.3875L27.6562 18.6938L23.1875 14.2188L18.7188 9.74375L19.0312 9.45C19.2063 9.2875 19.5688 8.95625 19.8375 8.70625L20.3375 8.25625L19.7188 7.58125C19.3813 7.2125 19.0813 6.88125 19.0563 6.85C19.0312 6.825 18.6938 7.0875 18.3 7.44375C17.9125 7.8 17.525 8.15 17.45 8.2125L17.3063 8.3375L13.1375 4.16875L8.9625 -0.00624847L8.2125 0.762503ZM24.6125 18.8313C24.35 19.0625 23.225 19.8125 23.15 19.8125C23.1187 19.8125 19.65 16.3688 15.4438 12.1625L7.79375 4.5125L8.00625 4.15625C8.125 3.9625 8.3875 3.58125 8.5875 3.30625L8.9625 2.80625L16.8875 10.7313L24.8188 18.6563L24.6125 18.8313ZM14.0813 13.6125L21.2 20.7313L20.5813 20.8938C19.4313 21.2 18.8625 21.275 17.625 21.275C16.525 21.275 15.7 21.1875 14.9875 20.9938C14.775 20.9375 14.75 20.9063 14.6562 20.575C14.2875 19.2938 13.225 18.2188 12.025 17.9063C11.5375 17.7813 10.7 17.7938 10.1562 17.9375L9.71875 18.05L9.48125 17.825C9.1 17.4625 8.4625 16.6438 8.08125 16.0313C6.38125 13.3063 5.91875 10.1125 6.7625 6.98125C6.8375 6.71875 6.9125 6.5 6.93125 6.5C6.95 6.5 10.1688 9.7 14.0813 13.6125ZM11.8 20.025C12.125 20.1875 12.4938 20.5563 12.6625 20.8875C12.8188 21.1938 12.85 21.8563 12.725 22.2375C12.5875 22.65 12.2 23.075 11.7875 23.2813C10.9375 23.7 9.89375 23.3563 9.4125 22.5C9.2375 22.1938 9.21875 22.1 9.21875 21.6563C9.21875 21.2375 9.25 21.1063 9.3875 20.8438C9.8625 19.9375 10.9188 19.5813 11.8 20.025ZM10.6375 25.4938C11.1813 25.55 11.7125 25.4813 12.1937 25.2875C12.3938 25.2063 12.5625 25.1625 12.5625 25.1875C12.5625 25.2125 12.7875 26.3125 13.0625 27.625C13.3375 28.9375 13.5625 30.025 13.5625 30.0375C13.5625 30.05 12.4062 30.0625 10.9938 30.0625C8.9625 30.0625 8.43125 30.0438 8.45625 29.9875C8.46875 29.9438 8.70625 28.8375 8.975 27.5313L9.4625 25.15L9.83125 25.3C10.0312 25.3813 10.3938 25.4688 10.6375 25.4938Z" fill="#38004D"/>
<path d="M20.375 0.950006V1.91876L20.8625 1.95626C21.4562 2.00001 22.2125 2.23126 22.75 2.54376C23.275 2.85001 24.1562 3.73126 24.4562 4.25001C24.7625 4.77501 25 5.53751 25.0562 6.12501L25.0937 6.59376L26.0812 6.61251L27.075 6.63126L27.0312 6.20626C26.9687 5.53751 26.875 5.07501 26.7062 4.53126C25.9187 2.02501 23.5625 0.168756 20.9875 0.0187559L20.375 -0.018744V0.950006Z" fill="#613EEA"/>
<path d="M20.375 4.71875C20.375 5.68125 20.375 5.6875 20.5187 5.6875C20.8438 5.6875 21.3125 6.15625 21.3125 6.48125C21.3125 6.625 21.3188 6.625 22.2875 6.625H23.2687L23.2313 6.2125C23.1313 4.95625 21.8563 3.75625 20.6125 3.75H20.375V4.71875Z" fill="#613EEA"/>
</g>
<defs>
<clipPath id="clip0_92_1094">
<rect width="32" height="32" fill="white"/>
</clipPath>
</defs>
</svg>
