<?xml version="1.0" encoding="UTF-8"?>
<svg version="1.1" xmlns="http://www.w3.org/2000/svg" width="48" height="48">
<path d="M0 0 C0.76634766 0.34804687 1.53269531 0.69609375 2.32226562 1.0546875 C6.5109946 3.05815397 6.5109946 3.05815397 8.0625 4.25 C8.78344727 6.38378906 8.78344727 6.38378906 9.0625 8.25 C5.5975 10.23 5.5975 10.23 2.0625 12.25 C1.72824265 14.62374861 1.72824265 14.62374861 2.0625 17.25 C3.9629467 19.09315671 3.9629467 19.09315671 6.0625 20.25 C5.5675 21.735 5.5675 21.735 5.0625 23.25 C3.7425 23.25 2.4225 23.25 1.0625 23.25 C1.0625 26.55 1.0625 29.85 1.0625 33.25 C3.01466435 31.29783565 3.91076645 29.71800047 5.0625 27.25 C6.0525 27.25 7.0425 27.25 8.0625 27.25 C8.41921933 31.08473284 8.36021416 32.80342875 6.1875 36.0625 C3.18597041 39.15230988 1.45071295 39.44283951 -2.75 39.5625 C-6.46450988 39.53566106 -7.73816645 39.37204095 -11 37.375 C-12.9375 35.25 -12.9375 35.25 -13.9375 33.25 C-16.2515622 32.51924352 -18.58578869 31.84861742 -20.9375 31.25 C-20.9375 30.26 -20.9375 29.27 -20.9375 28.25 C-20.009375 28.229375 -19.08125 28.20875 -18.125 28.1875 C-16.5471875 27.7234375 -16.5471875 27.7234375 -14.9375 27.25 C-13.25359415 23.8765242 -13.25359415 23.8765242 -11.9375 20.25 C-9.43816732 17.57829955 -8.37982347 17.27551866 -4.6875 17.0625 C-3.32625 17.1553125 -3.32625 17.1553125 -1.9375 17.25 C-1.9375 16.26 -1.9375 15.27 -1.9375 14.25 C-2.9275 14.745 -3.9175 15.24 -4.9375 15.75 C-9.18954621 17.55389839 -12.33026325 17.68878445 -16.9375 17.25 C-18.9175 16.26 -20.8975 15.27 -22.9375 14.25 C-22.6075 19.53 -22.2775 24.81 -21.9375 30.25 C-23.5875 30.25 -25.2375 30.25 -26.9375 30.25 C-26.9375 23.98 -26.9375 17.71 -26.9375 11.25 C-28.5875 10.92 -30.2375 10.59 -31.9375 10.25 C-32.9275 9.59 -33.9175 8.93 -34.9375 8.25 C-34.57294574 5.81198357 -34.38669482 4.59506555 -32.39038086 3.06152344 C-30.2250658 2.02446968 -28.06106491 0.99283015 -25.875 0 C-25.13572266 -0.36351562 -24.39644531 -0.72703125 -23.63476562 -1.1015625 C-14.69690648 -5.26161592 -8.68697882 -4.27153971 0 0 Z M-22.3125 3.25 C-23.90191406 4.0853125 -23.90191406 4.0853125 -25.5234375 4.9375 C-26.32007813 5.370625 -27.11671875 5.80375 -27.9375 6.25 C-26.9475 7.57 -25.9575 8.89 -24.9375 10.25 C-24.33421875 9.97285156 -23.7309375 9.69570313 -23.109375 9.41015625 C-22.31015625 9.04792969 -21.5109375 8.68570312 -20.6875 8.3125 C-19.50414062 7.77302734 -19.50414062 7.77302734 -18.296875 7.22265625 C-16.17926302 6.34966721 -14.17080638 5.73661492 -11.9375 5.25 C-13.18296405 8.98639216 -14.57154953 9.43756513 -17.9375 11.25 C-16.08240637 13.51975434 -16.08240637 13.51975434 -13.2109375 13.5625 C-9.38712898 13.19745861 -6.94127689 12.05201434 -3.5625 10.25 C-1.97308594 9.4146875 -1.97308594 9.4146875 -0.3515625 8.5625 C0.44507812 8.129375 1.24171875 7.69625 2.0625 7.25 C-0.47047829 5.28553461 -2.9723889 3.55099196 -5.8125 2.0625 C-6.44929688 1.71832031 -7.08609375 1.37414062 -7.7421875 1.01953125 C-13.33793749 -0.9419683 -17.2622529 0.55653488 -22.3125 3.25 Z M-7.9375 22.25 C-10.23913882 25.70245824 -10.28240322 27.19738713 -9.9375 31.25 C-9.2775 31.91 -8.6175 32.57 -7.9375 33.25 C-6.9475 31.93 -5.9575 30.61 -4.9375 29.25 C-5.5975 29.25 -6.2575 29.25 -6.9375 29.25 C-6.6075 26.94 -6.2775 24.63 -5.9375 22.25 C-6.5975 22.25 -7.2575 22.25 -7.9375 22.25 Z " fill="#219F25" transform="translate(36.9375,6.75)"/>
</svg>
