<svg width="32" height="32" viewBox="0 0 32 32" fill="none" xmlns="http://www.w3.org/2000/svg">
<path d="M15.1248 1.50625C12.1435 1.86875 9.54351 3.45 7.92476 5.86875C6.76226 7.6125 6.22476 9.3625 6.23101 11.4375C6.23101 12.8562 6.43726 13.9437 6.94351 15.2187C7.48726 16.5875 8.26226 17.7125 9.43101 18.825C10.2873 19.6375 10.581 19.9875 10.8935 20.5625C11.206 21.1375 11.3685 21.7312 11.431 22.5062C11.4623 22.875 11.5123 23.2125 11.5373 23.2625C11.5685 23.3062 11.606 24.0625 11.6248 24.9375C11.656 26.4562 11.6685 26.5437 11.806 26.8125C12.031 27.25 12.2185 27.4687 12.531 27.6625L12.8123 27.8437V28.35C12.8123 29.3187 13.1498 29.9312 13.8998 30.3125L14.331 30.5312H15.9998H17.6685L18.0998 30.3125C18.8498 29.9312 19.1873 29.3187 19.1873 28.35V27.8437L19.4935 27.6437C19.656 27.5375 19.881 27.3125 19.9935 27.15C20.331 26.6375 20.3748 26.3812 20.3748 24.8687C20.3748 24.0312 20.3998 23.4437 20.4435 23.3312C20.481 23.2375 20.5373 22.8625 20.5685 22.5C20.631 21.7312 20.7998 21.1312 21.106 20.5625C21.4185 19.9875 21.7123 19.6375 22.5685 18.825C24.3248 17.15 25.356 15.1812 25.6935 12.8687C25.7935 12.1875 25.7935 10.6687 25.6935 10.0312C25.356 7.825 24.4185 5.975 22.8498 4.4C21.656 3.2125 20.381 2.43125 18.781 1.91875C17.606 1.54375 16.1435 1.375 15.1248 1.50625ZM17.6685 3.05625C19.3748 3.48125 20.6435 4.19375 21.8435 5.4C22.5998 6.1625 23.031 6.75 23.4623 7.6C24.6498 9.95625 24.6873 12.75 23.556 15.1187C23.0373 16.2125 22.6435 16.7437 21.5248 17.85C20.9685 18.4062 20.3998 19.025 20.2623 19.225C19.6185 20.1812 19.1873 21.4062 19.1873 22.3062C19.1873 22.7687 19.081 23.0562 18.856 23.1875C18.6685 23.3062 18.5185 23.3125 15.9998 23.3125C13.481 23.3125 13.331 23.3062 13.1435 23.1875C12.9185 23.0562 12.8123 22.7687 12.8123 22.3062C12.8123 21.3437 12.3185 20.0187 11.6185 19.0875C11.4435 18.85 10.931 18.3 10.4748 17.8687C9.51226 16.9437 9.01226 16.275 8.49351 15.2187C7.31851 12.8125 7.32476 10.0437 8.50601 7.66875C8.95601 6.7625 9.38101 6.175 10.156 5.4C11.4623 4.0875 12.9248 3.31875 14.781 2.9625C15.4248 2.8375 17.006 2.8875 17.6685 3.05625ZM18.9998 25.2812C18.9998 26.0812 18.9248 26.3437 18.6685 26.5C18.481 26.6187 18.3373 26.625 15.9998 26.625C13.6623 26.625 13.5185 26.6187 13.331 26.5C13.0748 26.3437 12.9998 26.0812 12.9998 25.2812V24.6562H15.9998H18.9998V25.2812ZM17.8123 28.325C17.8123 28.7625 17.6498 29.0312 17.331 29.1187C17.0248 29.2062 14.9748 29.2062 14.6685 29.1187C14.3498 29.0312 14.1873 28.7625 14.1873 28.325V28H15.9998H17.8123V28.325Z" fill="#38004D"/>
<path d="M16.7898 7.06875C16.734 7.12246 16.3623 7.85293 15.2 10.1904C14.3664 11.8684 13.6789 13.2777 13.6724 13.3207C13.6553 13.426 13.7283 13.5785 13.8228 13.6387C13.8916 13.6795 13.926 13.6816 15.026 13.6816C15.7242 13.6816 16.156 13.6902 16.156 13.701C16.156 13.7139 16.0551 14.6248 15.9304 15.7291C15.6791 17.9592 15.6834 17.8518 15.8316 17.9506C15.8853 17.9871 15.9347 18 16.0207 18C16.1217 18 16.1453 17.9914 16.2076 17.9291C16.2635 17.8775 16.6674 17.102 17.7717 14.9299C18.5902 13.3186 19.2777 11.9564 19.2992 11.9027C19.3508 11.7717 19.3314 11.675 19.239 11.5826L19.1681 11.5117H17.9887H16.8092L17.0519 9.42129C17.2002 8.14297 17.2883 7.29863 17.2797 7.24707C17.2711 7.18691 17.2431 7.1375 17.1873 7.08164C17.1121 7.00644 17.097 7 16.9853 7C16.8779 7 16.8564 7.00859 16.7898 7.06875Z" fill="#613EEA"/>
</svg>
