<svg width="32" height="32" viewBox="0 0 32 32" fill="none" xmlns="http://www.w3.org/2000/svg">
<g clip-path="url(#clip0_98_517)">
<path d="M2.01875 5.90625C1.13125 6.15 0.41875 6.8125 0.11875 7.66875C0.00625 7.99375 0 8.2125 0 10.7625V13.5062L0.15 13.6562C0.23125 13.7375 0.41875 13.8375 0.56875 13.875C1.21875 14.05 1.76875 14.4875 2.05625 15.05C2.325 15.5812 2.325 16.4187 2.05625 16.95C1.76875 17.5125 1.21875 17.95 0.56875 18.125C0.41875 18.1625 0.23125 18.2625 0.15 18.3437L0 18.4937V21.2375C0 23.7875 0.00625 24.0062 0.11875 24.3312C0.33125 24.95 0.875 25.5875 1.43125 25.8687C2.08125 26.2062 1.3125 26.1875 16 26.1875C30.6875 26.1875 29.9188 26.2062 30.5688 25.8687C31.1188 25.5937 31.6313 24.9937 31.8688 24.3562C31.9938 24.0062 32 23.9062 32 21.2437V18.4937L31.85 18.3437C31.7688 18.2625 31.5813 18.1625 31.4313 18.125C30.275 17.8125 29.5563 16.7437 29.7563 15.6437C29.9188 14.775 30.5438 14.1187 31.4313 13.875C31.5813 13.8375 31.7688 13.7375 31.85 13.6562L32 13.5062V10.7625C32 8.2125 31.9938 7.99375 31.8813 7.66875C31.5813 6.79375 30.8625 6.14375 29.9563 5.90625C29.4313 5.76875 2.525 5.775 2.01875 5.90625ZM29.7 7.2C30.0313 7.3 30.4563 7.6875 30.6 8.0125C30.7063 8.25625 30.7188 8.50625 30.7375 10.475L30.7563 12.6687L30.3313 12.875C29.4813 13.2875 28.7188 14.25 28.5 15.1812C28.4 15.6125 28.4 16.3875 28.5 16.8187C28.7188 17.75 29.4813 18.7125 30.3313 19.125L30.7563 19.3312L30.7375 21.525C30.7188 23.4937 30.7063 23.7437 30.6 23.9875C30.4563 24.3125 30.0313 24.7 29.7 24.8C29.3438 24.9062 2.65625 24.9062 2.3 24.8C1.96875 24.7 1.54375 24.3125 1.4 23.9875C1.29375 23.7437 1.28125 23.4937 1.2625 21.525L1.24375 19.3312L1.66875 19.125C2.51875 18.7125 3.28125 17.75 3.5 16.8187C3.6 16.3937 3.6 15.6125 3.5 15.1812C3.2875 14.2562 2.51875 13.2937 1.66875 12.875L1.24375 12.6687L1.2625 10.475C1.28125 8.39375 1.2875 8.26875 1.4125 7.99375C1.5625 7.675 1.9375 7.325 2.25625 7.2125C2.55625 7.1 29.3375 7.0875 29.7 7.2Z" fill="#38004D"/>
<path d="M18.6126 8.86249C18.4251 9.03124 18.4126 9.07499 18.3876 9.56874C18.3564 10.1687 18.4501 10.4875 18.7126 10.6625C18.9439 10.8125 19.3626 10.75 19.5439 10.5312C19.6751 10.3812 19.6876 10.3 19.6876 9.71249C19.6876 9.06874 19.6814 9.04999 19.5064 8.86874C19.2501 8.61874 18.8939 8.61249 18.6126 8.86249Z" fill="#38004D"/>
<path d="M10.581 11.8188C10.0248 11.9188 9.78103 12.1438 9.31228 12.9688C9.13103 13.275 8.96853 13.5563 8.93728 13.5813C8.91228 13.6125 8.57478 13.7 8.19353 13.7875C7.81228 13.8688 7.38728 13.9938 7.24978 14.0625C6.77478 14.3063 6.45603 14.925 6.51228 15.5C6.55603 15.9188 6.69978 16.1688 7.25603 16.7688L7.75603 17.3063L7.68728 17.825C7.65603 18.1063 7.62478 18.525 7.62478 18.75C7.62478 19.1063 7.65603 19.2063 7.83103 19.5C8.10603 19.9625 8.53103 20.1938 9.07478 20.2C9.41853 20.2 9.56228 20.1625 10.1685 19.8875L10.8685 19.5688L11.5623 19.8875C12.1373 20.15 12.3123 20.2 12.6185 20.2C13.0873 20.2 13.4623 20.0375 13.7623 19.7C14.131 19.2938 14.181 18.9625 14.056 17.9125L13.981 17.325L14.5248 16.7188C14.9498 16.2375 15.081 16.0438 15.1623 15.775C15.281 15.35 15.2373 14.9938 14.9935 14.575C14.7435 14.1375 14.4435 13.975 13.5373 13.7875C13.1373 13.7063 12.7998 13.6313 12.7873 13.6188C12.7748 13.6063 12.6123 13.3063 12.4123 12.9563C12.2185 12.6063 11.9685 12.2438 11.856 12.15C11.4998 11.85 11.056 11.7313 10.581 11.8188ZM11.406 13.8688C11.631 14.275 11.8748 14.6625 11.9373 14.7188C12.0123 14.7875 12.3935 14.8938 12.9123 15C13.381 15.0938 13.806 15.2125 13.856 15.2688C13.9435 15.3563 13.8873 15.4313 13.3498 16.0188C13.0185 16.3813 12.7185 16.7563 12.6873 16.85C12.6373 16.975 12.6498 17.25 12.7185 17.8563C12.7748 18.3188 12.806 18.7375 12.7873 18.7875C12.731 18.9313 12.5935 18.8938 11.781 18.5313C11.3623 18.3438 10.9498 18.1875 10.8623 18.1875C10.7748 18.1875 10.3435 18.3563 9.89978 18.5563C8.87478 19.025 8.88103 19.0313 8.98728 18.075C9.09978 17.0875 9.08728 16.8625 8.92478 16.65C8.84978 16.55 8.56853 16.2313 8.29978 15.9375C7.82478 15.425 7.74978 15.2938 7.86853 15.2188C7.90603 15.2 8.28728 15.1125 8.73103 15.025C9.16853 14.9313 9.60603 14.825 9.69353 14.775C9.78728 14.7313 9.94978 14.5313 10.0623 14.3313C10.6373 13.3063 10.756 13.125 10.8748 13.125C10.956 13.125 11.106 13.3313 11.406 13.8688Z" fill="#613EEA"/>
<path d="M23.0248 12.4375C22.7123 12.5625 22.5748 13.125 22.7811 13.4125C22.9623 13.675 23.1311 13.6937 25.0811 13.675L26.9373 13.6562L27.1061 13.4812C27.2436 13.3437 27.2811 13.25 27.2811 13.025C27.2811 12.7812 27.2498 12.7125 27.0748 12.5562L26.8748 12.375L25.0123 12.3812C23.9936 12.3812 23.0936 12.4062 23.0248 12.4375Z" fill="#38004D"/>
<path d="M18.6187 13.05C18.4312 13.2187 18.4187 13.2625 18.3874 13.7312C18.3437 14.5562 18.5562 14.9375 19.0749 14.9375C19.2624 14.9375 19.3624 14.8937 19.5062 14.7562C19.6812 14.575 19.6874 14.5562 19.6874 13.9062C19.6874 13.2562 19.6812 13.2375 19.5062 13.0562C19.2499 12.8062 18.8937 12.8 18.6187 13.05Z" fill="#38004D"/>
<path d="M22.85 15.5687C22.7375 15.7 22.6875 15.8312 22.6875 16C22.6875 16.1687 22.7375 16.3 22.85 16.4312L23.0125 16.625H24.3125H25.6125L25.775 16.4312C25.8875 16.3 25.9375 16.1687 25.9375 16C25.9375 15.8312 25.8875 15.7 25.775 15.5687L25.6125 15.375H24.3125H23.0125L22.85 15.5687Z" fill="#613EEA"/>
<path d="M18.6938 17.1625C18.4813 17.3125 18.375 17.625 18.375 18.0937C18.375 18.7875 18.6063 19.125 19.0813 19.125C19.2625 19.125 19.3688 19.0812 19.5063 18.9437C19.6813 18.7625 19.6875 18.7437 19.6875 18.0937C19.6875 17.4437 19.6813 17.425 19.5063 17.2437C19.2938 17.0312 18.9313 16.9937 18.6938 17.1625Z" fill="#38004D"/>
<path d="M22.9875 18.4062C22.7625 18.5312 22.6875 18.6812 22.6875 18.9937C22.6875 19.1687 22.7313 19.2937 22.8375 19.4187L22.9875 19.5937L24.9313 19.6125L26.8688 19.6312L27.075 19.4437C27.25 19.2875 27.2813 19.2187 27.2813 18.975C27.2813 18.75 27.2438 18.6562 27.1063 18.5187L26.9375 18.3437L25.0438 18.3312C23.4625 18.3187 23.1313 18.3312 22.9875 18.4062Z" fill="#38004D"/>
<path d="M18.6748 21.3687C18.4373 21.5562 18.356 21.8687 18.3873 22.4562C18.4185 22.925 18.431 22.9687 18.6185 23.1375C18.8935 23.3875 19.2498 23.3812 19.506 23.1312C19.681 22.95 19.6873 22.9312 19.6873 22.2875C19.6873 21.6937 19.6748 21.6187 19.5435 21.4687C19.3435 21.2312 18.9123 21.1875 18.6748 21.3687Z" fill="#38004D"/>
</g>
<defs>
<clipPath id="clip0_98_517">
<rect width="32" height="32" fill="white"/>
</clipPath>
</defs>
</svg>
