<svg width="24" height="24" viewBox="0 0 24 24" fill="none" xmlns="http://www.w3.org/2000/svg">
<path fill-rule="evenodd" clip-rule="evenodd" d="M16.2863 16.5454C16.1242 16.3969 15.9041 16.2055 15.6725 16.0024C15.1687 15.5649 14.609 15.0786 14.3484 14.7485L14.3233 14.7661C13.7906 15.1352 13.1324 15.3813 12.2329 15.3793C11.3933 15.3774 10.7622 15.1411 10.2429 14.7914C10.1156 14.7055 9.99782 14.6137 9.88394 14.518C9.62723 14.8579 8.99799 15.3989 8.43825 15.8793C8.09661 16.1723 7.78199 16.4418 7.616 16.6059C7.03695 17.3383 6.52546 18.1196 6.09503 18.9926L7.87657 18.9477L11.9743 22.5532L16.072 18.9477L17.8536 18.9926C17.4135 18.0942 16.8866 17.2954 16.2863 16.5454ZM8.8706 12.768C9.36473 13.0922 9.90903 13.352 10.5035 13.5434C10.5634 13.4067 10.6464 13.2856 10.766 13.1918C11.125 12.9106 12.177 12.9379 12.5012 13.2094C12.7734 13.4379 12.7773 13.9614 12.5765 14.2348C12.2291 14.7075 10.9668 14.4575 10.2121 14.2504C10.3259 14.35 10.4456 14.4438 10.5711 14.5297C11.0073 14.8246 11.5362 15.0239 12.2349 15.0239C12.9915 15.0258 13.5455 14.8188 13.9952 14.5082C14.0782 14.4496 14.1592 14.3891 14.2384 14.3227C14.2635 14.2797 14.3021 14.2446 14.3503 14.225C14.6592 13.9477 14.9275 13.6235 15.1938 13.2993L15.6686 12.7231C15.7265 12.6528 15.7458 12.6293 15.7671 12.6039C15.825 12.5356 15.8906 12.4575 15.9543 12.3774C15.9717 12.3559 15.9948 12.3364 16.0219 12.3227C16.0991 12.0688 16.157 11.8032 16.1975 11.5239C16.3326 10.6118 16.3365 9.90277 15.9311 9.06293C15.5799 8.33832 15.0857 7.96137 14.5472 7.69184C15.1282 8.34809 15.6088 8.9848 15.4833 9.50824C14.773 8.71918 14.0415 8.02973 13.283 7.46137C11.6983 6.63324 10.766 5.51019 10.351 4.15082C8.00203 6.52387 7.59284 9.30121 8.46334 12.3227C8.49422 12.3364 8.52124 12.3559 8.54055 12.3793L8.8706 12.768ZM9.27015 13.9008C8.68338 13.6039 8.13135 13.1664 7.61021 12.7309L6.65671 12.7563C6.52545 12.6039 6.41544 12.4282 6.32279 12.2309C6.24751 12.2231 6.17224 12.2075 6.09889 12.184C5.18206 11.893 4.42158 9.83051 4.57213 8.85785C4.65706 8.30707 4.85007 8.10785 5.16276 7.98676C5.14732 7.94183 5.1396 7.89496 5.1396 7.84418V5.76801C5.1396 4.98676 5.37122 4.21918 5.7476 3.52387C6.15872 2.76019 6.74549 2.07855 7.38631 1.56293C8.69496 0.506288 10.3896 -0.0171497 12.0747 0.000428381C13.7462 0.0180065 15.4139 0.570741 16.6897 1.66644C17.3054 2.19574 17.8246 2.8891 18.1875 3.65473C18.5407 4.40082 18.7453 5.21723 18.7453 6.01996V7.7348C18.7453 7.97894 18.5504 8.17621 18.3091 8.17621C18.1701 8.17621 18.0466 8.11176 17.9675 8.00824C18.1817 9.63715 17.981 11.3129 17.3382 12.7036H16.2515C16.2265 12.7329 16.2033 12.7621 16.1801 12.7895L16.0836 12.9047L15.6088 13.4809C15.3328 13.8168 15.0529 14.1547 14.7229 14.4496C14.8966 14.6801 15.4756 15.1821 15.989 15.6293C16.155 15.7739 16.3172 15.9145 16.4581 16.0395C17.8652 16.5942 19.2394 17.1625 20.3068 17.8383C21.131 18.3598 21.5556 18.7543 21.8896 19.3871C22.4165 20.3871 22.8315 21.4965 22.955 22.8129C23.065 23.9907 23.0554 23.9379 21.9378 23.9614C16.0469 24.0805 7.84376 23.8618 2.08029 23.9614C1.03221 23.9789 0.924122 24.0551 1.03414 22.5454C1.39122 20.8325 1.18855 21.059 2.07064 19.3871C2.40456 18.7543 2.82919 18.3618 3.65337 17.8383C4.72654 17.1567 6.10854 16.5864 7.52528 16.0297C7.69899 15.8735 7.90938 15.6918 8.13135 15.5004C8.749 14.9692 9.45737 14.3618 9.53651 14.1821C9.44386 14.0922 9.35507 13.9985 9.27015 13.9008ZM17.871 7.43207V6.02191C17.871 5.35004 17.6992 4.66254 17.4019 4.03558C17.0931 3.38129 16.6492 2.79144 16.1261 2.34027C15.0085 1.37933 13.5416 0.89496 12.065 0.879335C10.5711 0.86371 9.07327 1.32465 7.92482 2.25238C7.36894 2.7016 6.8613 3.28754 6.50808 3.94574C6.19926 4.51801 6.0101 5.14105 6.0101 5.76996V7.54535C6.48299 5.24262 7.44807 3.56488 8.94781 2.56293C10.0519 1.82465 10.71 1.78363 11.9975 1.78363C13.1228 1.78363 13.8118 1.75824 14.7711 2.39691C16.4272 3.49848 17.4772 5.39691 17.871 7.43207ZM10.5962 20.4125L11.4088 17.561L11.0112 17.1196C10.8316 16.8539 10.793 16.6235 10.8915 16.4243C11.1077 15.9926 11.5535 16.0727 11.9704 16.0727C12.4067 16.0727 12.9452 15.9887 13.0822 16.5414C13.1285 16.727 13.0706 16.9204 12.9432 17.1196L12.5456 17.561L13.3582 20.4125L11.9782 21.5161L10.5962 20.4125Z" fill="#613EEA"/>
</svg>
