<svg width="24" height="24" viewBox="0 0 24 24" fill="none" xmlns="http://www.w3.org/2000/svg">
<path d="M19.384 2.03907C18.5027 2.22188 17.734 2.80782 17.3215 3.61407C17.0637 4.11563 16.998 4.40626 16.998 5.01563C16.998 5.47032 17.0215 5.61563 17.1293 5.93907C17.8324 8.07657 20.5371 8.71876 22.1262 7.12501C23.4809 5.77501 23.2652 3.54845 21.6762 2.48907C21.034 2.05782 20.1387 1.8797 19.384 2.03907Z" fill="#171D33"/>
<path d="M1.5706 4.07344C0.867478 4.39687 0.783103 5.40469 1.41592 5.84062L1.6081 5.97656L7.9456 5.99062L14.2784 6L14.4894 5.89219C14.6019 5.83125 14.7612 5.69062 14.8362 5.58281C14.9628 5.4 14.9769 5.34844 14.9769 4.99687C14.9769 4.64531 14.9628 4.58906 14.8409 4.41562C14.7565 4.29375 14.6206 4.17656 14.4706 4.10156L14.2315 3.98438H7.99717C2.02529 3.98438 1.74873 3.98906 1.5706 4.07344Z" fill="#171D33"/>
<path d="M7.19531 9.08908C6.80156 9.20627 6.68906 9.25783 6.39375 9.44533C5.8875 9.76877 5.46563 10.2516 5.25 10.7531L5.16094 10.9641L3.43594 10.9781L1.71094 10.9922L1.5 11.1094C1.3875 11.175 1.22813 11.3203 1.14844 11.4281C1.02188 11.6156 1.00781 11.6672 1.00781 12C1.00781 12.3328 1.02188 12.3844 1.14844 12.5719C1.22813 12.6797 1.3875 12.825 1.5 12.8906L1.71094 13.0078L3.43125 13.0219L5.15156 13.036L5.24531 13.2422C5.56875 13.9688 6.25781 14.5969 7.03125 14.8641C7.44844 15.0047 8.29219 15.0422 8.71875 14.9344C10.0922 14.5922 11.0156 13.411 11.0156 12C11.0156 11.1703 10.7203 10.4438 10.1391 9.86252C9.76875 9.48752 9.2625 9.20158 8.74219 9.07033C8.35781 8.97189 7.55625 8.98127 7.19531 9.08908Z" fill="#171D33"/>
<path d="M13.6781 11.0344C13.4109 11.1281 13.2797 11.2313 13.1344 11.4469C13.0219 11.6156 13.0078 11.6859 13.0078 12.0047C13.0078 12.3328 13.0219 12.3844 13.1484 12.5719C13.2281 12.6797 13.3875 12.825 13.5 12.8906L13.7109 13.0078H18H22.2891L22.5 12.8906C22.6125 12.825 22.7719 12.6797 22.8516 12.5719C22.9781 12.3844 22.9922 12.3328 22.9922 12C22.9922 11.6672 22.9781 11.6156 22.8516 11.4281C22.7719 11.3203 22.6125 11.175 22.5 11.1094L22.2891 10.9922L18.0703 10.9828C14.6344 10.9734 13.8188 10.9828 13.6781 11.0344Z" fill="#171D33"/>
<path d="M15.2438 16.0781C14.6531 16.2375 14.3156 16.4297 13.8703 16.875C13.2516 17.4891 12.9844 18.1266 12.9844 19.0031C12.9797 21.2485 15.3141 22.6922 17.3438 21.6985C17.8875 21.4313 18.4219 20.9016 18.6797 20.3766L18.8578 20.0156H20.55C22.4156 20.0156 22.4578 20.0063 22.7438 19.7063C23.1563 19.2656 23.0813 18.5016 22.5844 18.1594L22.3922 18.0235L20.6297 18.0094L18.8672 17.9953L18.6609 17.5969C18.3094 16.9125 17.7188 16.4016 16.9594 16.1391C16.4813 15.9703 15.7313 15.9422 15.2438 16.0781Z" fill="#171D33"/>
<path d="M1.5705 18.0656C0.937688 18.3469 0.787688 19.2656 1.29394 19.7438C1.59863 20.0297 1.383 20.0156 6.00956 20.0156C10.0314 20.0156 10.2518 20.0109 10.4299 19.9266C11.133 19.6031 11.2174 18.5953 10.5846 18.1594L10.3924 18.0234L6.05175 18.0141C2.51269 18.0047 1.683 18.0141 1.5705 18.0656Z" fill="#171D33"/>
</svg>
