<svg width="30" height="30" viewBox="0 0 30 30" fill="none" xmlns="http://www.w3.org/2000/svg">
<g clip-path="url(#clip0_210_851)">
<path d="M13.7692 0.0351706C10.4704 0.345717 7.55242 1.459 4.99773 3.37501C4.03679 4.09572 3.53288 4.59962 3.48015 4.88087C3.39226 5.37306 3.69109 5.84767 4.1657 5.97658C4.52898 6.07619 4.78679 5.98244 5.2614 5.57228C7.5114 3.63869 10.0602 2.46681 13.0075 2.00978C13.9567 1.8633 16.0427 1.86915 17.0212 2.01564C19.8278 2.43751 22.3356 3.56837 24.5153 5.38478C25.236 5.9883 25.4704 6.09376 25.8512 5.98244C26.3141 5.84181 26.6012 5.3672 26.5192 4.88087C26.4665 4.59376 25.945 4.07814 24.9372 3.32814C22.6872 1.65236 20.1384 0.591811 17.3727 0.175796C16.5759 0.0586081 14.4372 -0.0234232 13.7692 0.0351706Z" fill="#613EEA"/>
<path d="M13.1663 3.77931C8.97681 4.28908 5.13306 6.53908 2.5022 10.0313C1.96314 10.7461 1.85767 10.9688 1.89283 11.2969C1.96314 11.9531 2.719 12.3457 3.26392 12.0176C3.36353 11.9531 3.67994 11.5899 3.96119 11.209C4.55298 10.4238 5.719 9.19337 6.41627 8.63087C8.25611 7.14259 10.4299 6.15236 12.7678 5.73048C13.4065 5.61329 13.7053 5.59572 15.0002 5.59572C16.301 5.59572 16.594 5.61329 17.2385 5.73048C19.6233 6.15822 21.8674 7.19533 23.6604 8.70119C24.4104 9.32228 25.4475 10.418 26.0393 11.209C26.3206 11.5899 26.637 11.9531 26.7366 12.0176C27.2815 12.3457 28.0374 11.9531 28.1077 11.2969C28.1428 10.9746 28.0491 10.7695 27.4983 10.0371C24.8733 6.5215 21.0237 4.27736 16.7581 3.77931C15.8674 3.67384 14.0452 3.67384 13.1663 3.77931Z" fill="#613EEA"/>
<path d="M14.2098 7.35937C12.3641 7.54101 11.1336 7.88086 9.69808 8.5957C7.35433 9.76758 5.45589 11.6543 4.25472 14.0039C2.63753 17.1621 2.37972 20.7012 3.52229 24.1113C3.90901 25.2656 4.97542 27.1875 5.60823 27.873C6.00667 28.3008 6.56331 28.3359 6.96175 27.9434C7.1844 27.7266 7.29573 27.3926 7.243 27.1172C7.22542 27.0059 7.0555 26.707 6.868 26.4492C6.12386 25.4414 5.66097 24.5449 5.26839 23.3848C4.49495 21.0586 4.49495 18.7207 5.27425 16.3945C5.81917 14.7598 6.61604 13.4707 7.84651 12.2461C8.78987 11.3086 9.47542 10.8047 10.5184 10.2891C11.4266 9.84375 11.9364 9.65625 12.8035 9.46289C17.3563 8.4375 21.8914 10.6758 24.0535 15.0293C24.5399 16.0078 24.827 16.8047 25.0203 17.6719C25.3016 18.9551 25.3953 20.5254 25.2254 21.1699C24.9032 22.4062 23.9129 23.209 22.7059 23.209C21.9617 23.209 21.4227 22.9863 20.9012 22.459C20.327 21.8848 20.0985 21.2754 20.0985 20.3027C20.0985 18.5801 19.6414 17.3262 18.616 16.248C17.9188 15.5156 16.9871 14.9883 16.0321 14.7832C15.4227 14.6543 14.4325 14.6719 13.8582 14.8242C12.3582 15.2109 11.2391 16.1836 10.5125 17.7187C10.0907 18.6211 9.9969 19.0781 9.99104 20.2734C9.99104 21.1992 10.0086 21.3633 10.1551 21.9375C10.6414 23.8652 11.7606 25.7109 13.4539 27.375C14.2039 28.1133 14.6492 28.4766 15.4227 28.9863C16.3485 29.5957 17.3446 30 17.9305 30C18.2176 30 18.6102 29.7891 18.7567 29.5547C18.9149 29.291 18.9266 28.8516 18.7742 28.5937C18.6219 28.3418 18.3524 28.1895 17.9246 28.1191C17.116 27.9902 16.0203 27.2637 14.7899 26.0449C13.8172 25.084 13.1551 24.2168 12.6629 23.2617C12.0125 21.9902 11.8016 21.1582 11.8543 20.0391C11.9012 19.002 12.2117 18.2227 12.8504 17.543C13.4891 16.8574 14.1219 16.5703 15.0067 16.5703C15.8973 16.5703 16.5535 16.8457 17.1981 17.4902C17.9598 18.252 18.1532 18.791 18.2235 20.332C18.2762 21.5215 18.3582 21.8906 18.7215 22.6172C19.3016 23.7656 20.3856 24.6504 21.6043 24.9668C22.1727 25.1074 23.1395 25.125 23.6961 24.9961C25.0086 24.6914 26.2157 23.6836 26.7782 22.418C27.1121 21.6621 27.159 21.3926 27.159 20.1855C27.1532 18.6445 26.9832 17.502 26.5321 16.1133C25.0379 11.5078 21.2821 8.17383 16.7821 7.47656C16.1903 7.38281 14.661 7.3125 14.2098 7.35937Z" fill="#613EEA"/>
<path d="M14.0332 11.0508C11.9883 11.3496 10.418 12.1348 8.98832 13.5586C7.69926 14.8535 6.93168 16.2832 6.52739 18.1641C6.37504 18.8672 6.36918 20.7363 6.52153 21.4453C7.03129 23.8477 8.58403 26.5899 10.9102 29.2207C11.6192 30.0176 11.9414 30.1524 12.4805 29.8652C12.7852 29.707 12.9493 29.4258 12.9493 29.0625C12.9493 28.7109 12.8614 28.5645 12.3047 27.9551C11.0215 26.5547 9.69145 24.5918 9.05278 23.1563C8.49614 21.8965 8.26176 20.918 8.26176 19.875C8.26176 18.6797 8.50785 17.6602 9.04106 16.6172C10.2774 14.2031 12.6739 12.7852 15.3164 12.9082C17.7129 13.0195 19.8399 14.4141 20.959 16.6172C21.4454 17.5664 21.6563 18.3516 21.7325 19.459C21.7676 19.9688 21.8086 20.1973 21.8965 20.3438C22.2481 20.9473 23.127 20.9649 23.502 20.3789C23.6133 20.1973 23.6192 20.127 23.5899 19.3652C23.5079 17.1445 22.6172 15.1641 20.9825 13.5352C19.7286 12.2871 18.5215 11.6133 16.8164 11.209C16.3184 11.0918 16.0137 11.0625 15.2051 11.0449C14.6602 11.0332 14.1329 11.0391 14.0332 11.0508Z" fill="#613EEA"/>
<path d="M14.5602 18.4219C14.3434 18.5156 14.0738 18.8203 14.027 19.0254C13.9566 19.3008 14.0563 20.5254 14.2027 21.1523C14.4723 22.3359 14.941 23.4023 15.6383 24.4395C17.027 26.502 18.984 27.8672 20.9293 28.125C21.5328 28.207 21.8258 28.1426 22.0836 27.8848C22.4293 27.5449 22.4645 27.0117 22.1656 26.6602C21.9547 26.4082 21.7731 26.332 21.2691 26.2852C19.9684 26.1621 18.6266 25.3184 17.5484 23.9356C16.5699 22.6816 15.9899 21.1992 15.8902 19.6816C15.8316 18.8731 15.7438 18.668 15.3512 18.4688C15.0582 18.3223 14.818 18.3106 14.5602 18.4219Z" fill="#613EEA"/>
</g>
<defs>
<clipPath id="clip0_210_851">
<rect width="30" height="30" fill="white"/>
</clipPath>
</defs>
</svg>
