<svg width="32" height="32" viewBox="0 0 32 32" fill="none" xmlns="http://www.w3.org/2000/svg">
<mask id="path-1-outside-1_98_467" maskUnits="userSpaceOnUse" x="0.5" y="0.5" width="31" height="31" fill="black">
<rect fill="white" x="0.5" y="0.5" width="31" height="31"/>
<path d="M2.6125 2.6125C1.5375 3.68125 1.5 3.73125 1.5 3.975C1.5 4.1125 1.5375 4.26875 1.575 4.325C1.61875 4.38125 4.36875 6.3 7.6875 8.59375C11.0063 10.8875 13.725 12.7687 13.7313 12.775C13.7438 12.7812 12.4813 14.3125 10.9375 16.175L8.125 19.5562L7.73125 19.4062C7.51875 19.325 6.63125 18.975 5.7625 18.6312C4.7625 18.2312 4.1 18 3.95625 18C3.7375 18 3.65 18.0687 2.6125 19.1125C1.54375 20.1812 1.5 20.2312 1.5 20.4688C1.5 20.6062 1.525 20.75 1.55 20.7937C1.575 20.8375 2.41875 21.4812 3.41875 22.2312L5.23125 23.5938L5.0875 23.925C4.78125 24.6125 4.4875 25.6437 4.49375 26.0125C4.49375 26.45 4.65 26.8312 4.94375 27.1063C5.53125 27.6625 6.2625 27.6375 7.84375 27L8.40625 26.775L9.76875 28.5875C10.5188 29.5875 11.1625 30.425 11.2063 30.45C11.25 30.475 11.3938 30.5 11.5313 30.5C11.7688 30.5 11.8188 30.4563 12.8875 29.3875C13.925 28.3563 14 28.2625 14 28.05C14 27.9 13.7188 27.1125 13.225 25.8625C12.6313 24.3688 12.4688 23.8875 12.5188 23.8312C12.5625 23.7875 14.0813 22.5187 15.9063 21.0062C18.7875 18.6125 19.225 18.275 19.2875 18.3625C22.2125 22.6125 27.6 30.3625 27.675 30.425C27.7313 30.4625 27.8875 30.5 28.025 30.5C28.2688 30.5 28.3188 30.4625 29.3875 29.3875C30.45 28.325 30.5 28.2687 30.5 28.0312C30.5 27.8687 30.2063 27.0125 29.625 25.4625C29.1438 24.1875 28.75 23.1188 28.75 23.0875C28.75 23.0625 29.1 22.6813 29.5313 22.25C29.975 21.8 30.35 21.3625 30.4063 21.2312C30.4563 21.1062 30.5 20.825 30.5 20.6062C30.5 20.2375 30.4688 20.1375 30.1 19.4C29.5438 18.275 29.2188 18 28.4375 18C27.9688 18 27.6688 18.1187 27.3375 18.4437L27.0813 18.6937L26.0938 16.0562C25.425 14.275 25.125 13.3937 25.1625 13.3438C25.1938 13.3 25.725 12.8375 26.3438 12.325C26.9625 11.8125 27.6438 11.2125 27.8563 10.9937C29.2563 9.54375 30.2313 7.51875 30.5 5.48125C30.6813 4.15625 30.1 2.8375 29.0188 2.10625C28.4063 1.68125 27.975 1.54375 27.1875 1.5125C25.425 1.44375 23.1938 2.30625 21.5 3.71875C20.9063 4.2125 20.6125 4.53125 19.5375 5.825C19.0563 6.40625 18.6375 6.875 18.6063 6.875C18.5688 6.875 17.3625 6.43125 15.925 5.89375L13.3125 4.9125L13.5563 4.6625C13.8813 4.33125 14 4.03125 14 3.5625C14 2.78125 13.725 2.45625 12.6 1.9C11.8625 1.53125 11.7625 1.5 11.3938 1.5C11.175 1.5 10.8938 1.54375 10.7688 1.59375C10.6375 1.65 10.1938 2.03125 9.7375 2.48125L8.9375 3.275L6.575 2.3875C5.01875 1.80625 4.125 1.5 3.9625 1.5C3.73125 1.5 3.66875 1.55625 2.6125 2.6125ZM12.1875 2.875C12.525 3.04375 12.8375 3.24375 12.875 3.30625C13.0125 3.56875 12.95 3.75 12.5813 4.13125L12.2188 4.50625L11.1875 4.11875C10.6188 3.90625 10.1375 3.7125 10.1063 3.69375C10.0813 3.66875 10.3125 3.40625 10.6188 3.10625C11.2938 2.44375 11.3188 2.4375 12.1875 2.875ZM28.0688 2.79375C29.0563 3.28125 29.5875 4.3 29.4313 5.41875C29.1813 7.23125 28.2875 9.01875 26.9688 10.3375C26.3813 10.9312 9.8875 24.6188 9.25 25.0437C8.275 25.6937 6.54375 26.4375 6 26.4375C5.71875 26.4375 5.5625 26.2812 5.5625 26.0125C5.5625 25.4625 6.30625 23.7188 6.95625 22.75C7.49375 21.9375 21.2188 5.475 21.8625 4.8625C23.3188 3.475 25.4438 2.54375 27.0625 2.58125C27.5938 2.59375 27.7063 2.61875 28.0688 2.79375ZM11.3125 5.3125C14.9063 6.65625 17.8563 7.76875 17.8688 7.78125C17.9 7.81875 14.4938 11.9062 14.4313 11.9062C14.3938 11.9062 3.09375 4.13125 2.88125 3.95625C2.8625 3.94375 3.14375 3.64375 3.49375 3.2875L4.14375 2.6375L4.4625 2.75C4.6375 2.8125 7.71875 3.9625 11.3125 5.3125ZM26.7938 20.9875L29.3688 27.8438L28.7188 28.5C28.3625 28.8562 28.0563 29.1375 28.0438 29.125C27.9313 28.9812 20.1063 17.6438 20.0875 17.5938C20.075 17.5437 24.0875 14.1437 24.1875 14.1313C24.2063 14.125 25.375 17.2125 26.7938 20.9875ZM28.6938 19.125C28.8563 19.2188 29.4375 20.3875 29.4375 20.6312C29.4375 20.7937 29.3438 20.925 28.8938 21.3812C28.5938 21.6875 28.3313 21.9187 28.3063 21.8938C28.2875 21.8625 28.0938 21.3812 27.875 20.8125L27.4875 19.7875L27.8625 19.425C28.25 19.05 28.4313 18.9875 28.6938 19.125ZM6 19.875C6.70625 20.1562 7.3 20.4 7.325 20.4125C7.35 20.4312 7.13125 20.7437 6.8375 21.1062C6.5375 21.475 6.16875 21.9625 6.01875 22.2C5.825 22.5 5.71875 22.6125 5.66875 22.575C5.625 22.5437 5.01875 22.0875 4.3125 21.5625C3.60625 21.0375 2.9875 20.5687 2.9375 20.525C2.85625 20.45 2.93125 20.35 3.49375 19.7875L4.14375 19.1375L4.43125 19.25C4.5875 19.3125 5.29375 19.5938 6 19.875ZM12.2375 26.2812L12.8688 27.8438L12.2313 28.4813C11.8813 28.8375 11.575 29.125 11.5563 29.125C11.5313 29.125 11.1 28.5688 10.5938 27.8875C10.0813 27.2125 9.6 26.5687 9.51875 26.4625L9.375 26.2687L9.89375 25.9187C10.175 25.725 10.6625 25.3625 10.9688 25.1062C11.2813 24.85 11.55 24.6562 11.575 24.6813C11.5938 24.7 11.8938 25.4187 12.2375 26.2812Z"/>
</mask>
<path d="M2.6125 2.6125C1.5375 3.68125 1.5 3.73125 1.5 3.975C1.5 4.1125 1.5375 4.26875 1.575 4.325C1.61875 4.38125 4.36875 6.3 7.6875 8.59375C11.0063 10.8875 13.725 12.7687 13.7313 12.775C13.7438 12.7812 12.4813 14.3125 10.9375 16.175L8.125 19.5562L7.73125 19.4062C7.51875 19.325 6.63125 18.975 5.7625 18.6312C4.7625 18.2312 4.1 18 3.95625 18C3.7375 18 3.65 18.0687 2.6125 19.1125C1.54375 20.1812 1.5 20.2312 1.5 20.4688C1.5 20.6062 1.525 20.75 1.55 20.7937C1.575 20.8375 2.41875 21.4812 3.41875 22.2312L5.23125 23.5938L5.0875 23.925C4.78125 24.6125 4.4875 25.6437 4.49375 26.0125C4.49375 26.45 4.65 26.8312 4.94375 27.1063C5.53125 27.6625 6.2625 27.6375 7.84375 27L8.40625 26.775L9.76875 28.5875C10.5188 29.5875 11.1625 30.425 11.2063 30.45C11.25 30.475 11.3938 30.5 11.5313 30.5C11.7688 30.5 11.8188 30.4563 12.8875 29.3875C13.925 28.3563 14 28.2625 14 28.05C14 27.9 13.7188 27.1125 13.225 25.8625C12.6313 24.3688 12.4688 23.8875 12.5188 23.8312C12.5625 23.7875 14.0813 22.5187 15.9063 21.0062C18.7875 18.6125 19.225 18.275 19.2875 18.3625C22.2125 22.6125 27.6 30.3625 27.675 30.425C27.7313 30.4625 27.8875 30.5 28.025 30.5C28.2688 30.5 28.3188 30.4625 29.3875 29.3875C30.45 28.325 30.5 28.2687 30.5 28.0312C30.5 27.8687 30.2063 27.0125 29.625 25.4625C29.1438 24.1875 28.75 23.1188 28.75 23.0875C28.75 23.0625 29.1 22.6813 29.5313 22.25C29.975 21.8 30.35 21.3625 30.4063 21.2312C30.4563 21.1062 30.5 20.825 30.5 20.6062C30.5 20.2375 30.4688 20.1375 30.1 19.4C29.5438 18.275 29.2188 18 28.4375 18C27.9688 18 27.6688 18.1187 27.3375 18.4437L27.0813 18.6937L26.0938 16.0562C25.425 14.275 25.125 13.3937 25.1625 13.3438C25.1938 13.3 25.725 12.8375 26.3438 12.325C26.9625 11.8125 27.6438 11.2125 27.8563 10.9937C29.2563 9.54375 30.2313 7.51875 30.5 5.48125C30.6813 4.15625 30.1 2.8375 29.0188 2.10625C28.4063 1.68125 27.975 1.54375 27.1875 1.5125C25.425 1.44375 23.1938 2.30625 21.5 3.71875C20.9063 4.2125 20.6125 4.53125 19.5375 5.825C19.0563 6.40625 18.6375 6.875 18.6063 6.875C18.5688 6.875 17.3625 6.43125 15.925 5.89375L13.3125 4.9125L13.5563 4.6625C13.8813 4.33125 14 4.03125 14 3.5625C14 2.78125 13.725 2.45625 12.6 1.9C11.8625 1.53125 11.7625 1.5 11.3938 1.5C11.175 1.5 10.8938 1.54375 10.7688 1.59375C10.6375 1.65 10.1938 2.03125 9.7375 2.48125L8.9375 3.275L6.575 2.3875C5.01875 1.80625 4.125 1.5 3.9625 1.5C3.73125 1.5 3.66875 1.55625 2.6125 2.6125ZM12.1875 2.875C12.525 3.04375 12.8375 3.24375 12.875 3.30625C13.0125 3.56875 12.95 3.75 12.5813 4.13125L12.2188 4.50625L11.1875 4.11875C10.6188 3.90625 10.1375 3.7125 10.1063 3.69375C10.0813 3.66875 10.3125 3.40625 10.6188 3.10625C11.2938 2.44375 11.3188 2.4375 12.1875 2.875ZM28.0688 2.79375C29.0563 3.28125 29.5875 4.3 29.4313 5.41875C29.1813 7.23125 28.2875 9.01875 26.9688 10.3375C26.3813 10.9312 9.8875 24.6188 9.25 25.0437C8.275 25.6937 6.54375 26.4375 6 26.4375C5.71875 26.4375 5.5625 26.2812 5.5625 26.0125C5.5625 25.4625 6.30625 23.7188 6.95625 22.75C7.49375 21.9375 21.2188 5.475 21.8625 4.8625C23.3188 3.475 25.4438 2.54375 27.0625 2.58125C27.5938 2.59375 27.7063 2.61875 28.0688 2.79375ZM11.3125 5.3125C14.9063 6.65625 17.8563 7.76875 17.8688 7.78125C17.9 7.81875 14.4938 11.9062 14.4313 11.9062C14.3938 11.9062 3.09375 4.13125 2.88125 3.95625C2.8625 3.94375 3.14375 3.64375 3.49375 3.2875L4.14375 2.6375L4.4625 2.75C4.6375 2.8125 7.71875 3.9625 11.3125 5.3125ZM26.7938 20.9875L29.3688 27.8438L28.7188 28.5C28.3625 28.8562 28.0563 29.1375 28.0438 29.125C27.9313 28.9812 20.1063 17.6438 20.0875 17.5938C20.075 17.5437 24.0875 14.1437 24.1875 14.1313C24.2063 14.125 25.375 17.2125 26.7938 20.9875ZM28.6938 19.125C28.8563 19.2188 29.4375 20.3875 29.4375 20.6312C29.4375 20.7937 29.3438 20.925 28.8938 21.3812C28.5938 21.6875 28.3313 21.9187 28.3063 21.8938C28.2875 21.8625 28.0938 21.3812 27.875 20.8125L27.4875 19.7875L27.8625 19.425C28.25 19.05 28.4313 18.9875 28.6938 19.125ZM6 19.875C6.70625 20.1562 7.3 20.4 7.325 20.4125C7.35 20.4312 7.13125 20.7437 6.8375 21.1062C6.5375 21.475 6.16875 21.9625 6.01875 22.2C5.825 22.5 5.71875 22.6125 5.66875 22.575C5.625 22.5437 5.01875 22.0875 4.3125 21.5625C3.60625 21.0375 2.9875 20.5687 2.9375 20.525C2.85625 20.45 2.93125 20.35 3.49375 19.7875L4.14375 19.1375L4.43125 19.25C4.5875 19.3125 5.29375 19.5938 6 19.875ZM12.2375 26.2812L12.8688 27.8438L12.2313 28.4813C11.8813 28.8375 11.575 29.125 11.5563 29.125C11.5313 29.125 11.1 28.5688 10.5938 27.8875C10.0813 27.2125 9.6 26.5687 9.51875 26.4625L9.375 26.2687L9.89375 25.9187C10.175 25.725 10.6625 25.3625 10.9688 25.1062C11.2813 24.85 11.55 24.6562 11.575 24.6813C11.5938 24.7 11.8938 25.4187 12.2375 26.2812Z" fill="#38004D"/>
<path d="M2.6125 2.6125C1.5375 3.68125 1.5 3.73125 1.5 3.975C1.5 4.1125 1.5375 4.26875 1.575 4.325C1.61875 4.38125 4.36875 6.3 7.6875 8.59375C11.0063 10.8875 13.725 12.7687 13.7313 12.775C13.7438 12.7812 12.4813 14.3125 10.9375 16.175L8.125 19.5562L7.73125 19.4062C7.51875 19.325 6.63125 18.975 5.7625 18.6312C4.7625 18.2312 4.1 18 3.95625 18C3.7375 18 3.65 18.0687 2.6125 19.1125C1.54375 20.1812 1.5 20.2312 1.5 20.4688C1.5 20.6062 1.525 20.75 1.55 20.7937C1.575 20.8375 2.41875 21.4812 3.41875 22.2312L5.23125 23.5938L5.0875 23.925C4.78125 24.6125 4.4875 25.6437 4.49375 26.0125C4.49375 26.45 4.65 26.8312 4.94375 27.1063C5.53125 27.6625 6.2625 27.6375 7.84375 27L8.40625 26.775L9.76875 28.5875C10.5188 29.5875 11.1625 30.425 11.2063 30.45C11.25 30.475 11.3938 30.5 11.5313 30.5C11.7688 30.5 11.8188 30.4563 12.8875 29.3875C13.925 28.3563 14 28.2625 14 28.05C14 27.9 13.7188 27.1125 13.225 25.8625C12.6313 24.3688 12.4688 23.8875 12.5188 23.8312C12.5625 23.7875 14.0813 22.5187 15.9063 21.0062C18.7875 18.6125 19.225 18.275 19.2875 18.3625C22.2125 22.6125 27.6 30.3625 27.675 30.425C27.7313 30.4625 27.8875 30.5 28.025 30.5C28.2688 30.5 28.3188 30.4625 29.3875 29.3875C30.45 28.325 30.5 28.2687 30.5 28.0312C30.5 27.8687 30.2063 27.0125 29.625 25.4625C29.1438 24.1875 28.75 23.1188 28.75 23.0875C28.75 23.0625 29.1 22.6813 29.5313 22.25C29.975 21.8 30.35 21.3625 30.4063 21.2312C30.4563 21.1062 30.5 20.825 30.5 20.6062C30.5 20.2375 30.4688 20.1375 30.1 19.4C29.5438 18.275 29.2188 18 28.4375 18C27.9688 18 27.6688 18.1187 27.3375 18.4437L27.0813 18.6937L26.0938 16.0562C25.425 14.275 25.125 13.3937 25.1625 13.3438C25.1938 13.3 25.725 12.8375 26.3438 12.325C26.9625 11.8125 27.6438 11.2125 27.8563 10.9937C29.2563 9.54375 30.2313 7.51875 30.5 5.48125C30.6813 4.15625 30.1 2.8375 29.0188 2.10625C28.4063 1.68125 27.975 1.54375 27.1875 1.5125C25.425 1.44375 23.1938 2.30625 21.5 3.71875C20.9063 4.2125 20.6125 4.53125 19.5375 5.825C19.0563 6.40625 18.6375 6.875 18.6063 6.875C18.5688 6.875 17.3625 6.43125 15.925 5.89375L13.3125 4.9125L13.5563 4.6625C13.8813 4.33125 14 4.03125 14 3.5625C14 2.78125 13.725 2.45625 12.6 1.9C11.8625 1.53125 11.7625 1.5 11.3938 1.5C11.175 1.5 10.8938 1.54375 10.7688 1.59375C10.6375 1.65 10.1938 2.03125 9.7375 2.48125L8.9375 3.275L6.575 2.3875C5.01875 1.80625 4.125 1.5 3.9625 1.5C3.73125 1.5 3.66875 1.55625 2.6125 2.6125ZM12.1875 2.875C12.525 3.04375 12.8375 3.24375 12.875 3.30625C13.0125 3.56875 12.95 3.75 12.5813 4.13125L12.2188 4.50625L11.1875 4.11875C10.6188 3.90625 10.1375 3.7125 10.1063 3.69375C10.0813 3.66875 10.3125 3.40625 10.6188 3.10625C11.2938 2.44375 11.3188 2.4375 12.1875 2.875ZM28.0688 2.79375C29.0563 3.28125 29.5875 4.3 29.4313 5.41875C29.1813 7.23125 28.2875 9.01875 26.9688 10.3375C26.3813 10.9312 9.8875 24.6188 9.25 25.0437C8.275 25.6937 6.54375 26.4375 6 26.4375C5.71875 26.4375 5.5625 26.2812 5.5625 26.0125C5.5625 25.4625 6.30625 23.7188 6.95625 22.75C7.49375 21.9375 21.2188 5.475 21.8625 4.8625C23.3188 3.475 25.4438 2.54375 27.0625 2.58125C27.5938 2.59375 27.7063 2.61875 28.0688 2.79375ZM11.3125 5.3125C14.9063 6.65625 17.8563 7.76875 17.8688 7.78125C17.9 7.81875 14.4938 11.9062 14.4313 11.9062C14.3938 11.9062 3.09375 4.13125 2.88125 3.95625C2.8625 3.94375 3.14375 3.64375 3.49375 3.2875L4.14375 2.6375L4.4625 2.75C4.6375 2.8125 7.71875 3.9625 11.3125 5.3125ZM26.7938 20.9875L29.3688 27.8438L28.7188 28.5C28.3625 28.8562 28.0563 29.1375 28.0438 29.125C27.9313 28.9812 20.1063 17.6438 20.0875 17.5938C20.075 17.5437 24.0875 14.1437 24.1875 14.1313C24.2063 14.125 25.375 17.2125 26.7938 20.9875ZM28.6938 19.125C28.8563 19.2188 29.4375 20.3875 29.4375 20.6312C29.4375 20.7937 29.3438 20.925 28.8938 21.3812C28.5938 21.6875 28.3313 21.9187 28.3063 21.8938C28.2875 21.8625 28.0938 21.3812 27.875 20.8125L27.4875 19.7875L27.8625 19.425C28.25 19.05 28.4313 18.9875 28.6938 19.125ZM6 19.875C6.70625 20.1562 7.3 20.4 7.325 20.4125C7.35 20.4312 7.13125 20.7437 6.8375 21.1062C6.5375 21.475 6.16875 21.9625 6.01875 22.2C5.825 22.5 5.71875 22.6125 5.66875 22.575C5.625 22.5437 5.01875 22.0875 4.3125 21.5625C3.60625 21.0375 2.9875 20.5687 2.9375 20.525C2.85625 20.45 2.93125 20.35 3.49375 19.7875L4.14375 19.1375L4.43125 19.25C4.5875 19.3125 5.29375 19.5938 6 19.875ZM12.2375 26.2812L12.8688 27.8438L12.2313 28.4813C11.8813 28.8375 11.575 29.125 11.5563 29.125C11.5313 29.125 11.1 28.5688 10.5938 27.8875C10.0813 27.2125 9.6 26.5687 9.51875 26.4625L9.375 26.2687L9.89375 25.9187C10.175 25.725 10.6625 25.3625 10.9688 25.1062C11.2813 24.85 11.55 24.6562 11.575 24.6813C11.5938 24.7 11.8938 25.4187 12.2375 26.2812Z" stroke="#38004D" stroke-width="0.6" mask="url(#path-1-outside-1_98_467)"/>
<path d="M23.5246 6.18004L23.5246 6.18006L23.5225 6.17974C23.4239 6.16567 23.3241 6.13944 23.2379 6.10656C23.1562 6.07541 23.0697 6.03192 23.0126 5.97482C22.8914 5.85358 22.8467 5.66279 22.8476 5.49841C22.8485 5.33333 22.8955 5.14227 23.0188 5.01893C23.1315 4.90624 23.31 4.86133 23.4878 4.84725C23.6731 4.83256 23.8917 4.8489 24.1189 4.889C24.5724 4.96903 25.0857 5.14834 25.4744 5.3986C26.4704 6.03026 27.1499 7.21362 27.1499 8.325C27.1499 8.58364 27.1245 8.79869 27.016 8.94601C26.896 9.10884 26.7082 9.15 26.4999 9.15C26.3138 9.15 26.1481 9.10477 26.0241 8.97854C25.9046 8.85677 25.8466 8.6821 25.8199 8.47545L25.8199 8.47527C25.7675 8.06548 25.7011 7.7805 25.5956 7.54287C25.4912 7.30767 25.3447 7.10999 25.1188 6.88107C24.8899 6.65526 24.6922 6.50867 24.457 6.40429C24.2194 6.29884 23.9344 6.23242 23.5246 6.18004Z" fill="#613EEA" stroke="#613EEA" stroke-width="0.3"/>
<path d="M20.35 9C20.35 8.80718 20.4001 8.63776 20.5189 8.51893C20.6378 8.40011 20.8072 8.35 21 8.35C21.1928 8.35 21.3622 8.40011 21.4811 8.51893C21.5999 8.63776 21.65 8.80718 21.65 9C21.65 9.19282 21.5999 9.36224 21.4811 9.48107C21.3622 9.59989 21.1928 9.65 21 9.65C20.8072 9.65 20.6378 9.59989 20.5189 9.48107C20.4001 9.36224 20.35 9.19282 20.35 9Z" fill="#613EEA" stroke="#613EEA" stroke-width="0.3"/>
<path d="M16.4171 15.5997C16.3631 15.6417 16.2859 15.6679 16.2199 15.684C16.1484 15.7014 16.0662 15.7125 15.9875 15.7125C15.8028 15.7125 15.6364 15.6633 15.5172 15.5418C15.3984 15.4208 15.35 15.252 15.35 15.0625C15.35 14.9909 15.3582 14.9195 15.3966 14.8284C15.4323 14.7436 15.4925 14.6457 15.5869 14.5147C15.7758 14.2524 16.1268 13.8241 16.7721 13.0479C17.1853 12.55 17.6393 12.0021 18.0221 11.5401C18.3452 11.1501 18.6177 10.8213 18.7721 10.6354L18.7721 10.6354L18.773 10.6344L18.7942 10.6093C19.0841 10.2666 19.2458 10.0755 19.3683 9.97531C19.4371 9.91898 19.5024 9.88334 19.5781 9.86545C19.6438 9.84992 19.711 9.84996 19.7726 9.85C19.7755 9.85 19.7784 9.85 19.7812 9.85C19.8937 9.85 19.9933 9.85727 20.0818 9.89288C20.1762 9.93088 20.2413 9.99397 20.3 10.0709C20.4939 10.3195 20.5126 10.6348 20.3297 10.8977C20.2801 10.9701 20.0162 11.2959 19.6569 11.7338C19.2928 12.1775 18.8229 12.7457 18.3552 13.3084C17.8875 13.871 17.4218 14.4283 17.0664 14.8502C16.8887 15.061 16.7383 15.2383 16.6288 15.3656C16.5742 15.4292 16.5293 15.4807 16.4962 15.5179C16.4798 15.5365 16.4656 15.5521 16.4544 15.5641L16.4538 15.5647C16.4463 15.5726 16.4316 15.5884 16.4171 15.5997ZM16.4171 15.5997L16.325 15.4812M16.4171 15.5997C16.4168 15.5999 16.4164 15.6002 16.4161 15.6004L16.325 15.4812M16.325 15.4812C16.2688 15.525 16.1188 15.5625 15.9875 15.5625C15.6688 15.5625 15.5 15.3937 15.5 15.0625C15.5 14.8375 15.5938 14.7 16.8875 13.1437L16.325 15.4812Z" fill="#613EEA" stroke="#613EEA" stroke-width="0.3"/>
</svg>
