<svg width="32" height="32" viewBox="0 0 32 32" fill="none" xmlns="http://www.w3.org/2000/svg">
<g clip-path="url(#clip0_92_1152)">
<path d="M14 5.78127C9.3625 6.35627 5.2125 8.94377 2.575 12.9C0.99375 15.2813 0 18.4875 0 21.2188C0 22.0438 0.05625 22.2063 0.4125 22.4438C0.58125 22.5563 0.7625 22.5625 3.775 22.5625C6.80625 22.5625 6.9625 22.5563 7.15 22.4438C7.48125 22.2375 7.55625 22.025 7.625 21.175C7.7 20.2 7.775 19.8125 8.03125 19.025C8.43125 17.8063 9.05625 16.775 9.975 15.8125C10.9313 14.8188 12.0688 14.1 13.375 13.6625C14.375 13.325 15.0875 13.2313 16.3125 13.2688C17.6812 13.3125 18.5188 13.5188 19.7188 14.1125C20.2437 14.375 20.9375 14.8063 20.9375 14.8688C20.9375 14.9 19.55 15.8 17.8625 16.8813C13.8562 19.425 13.5813 19.6063 13.2125 20.0188C12.8438 20.4188 12.4812 21.0813 12.3438 21.6C12.2188 22.075 12.225 23.0313 12.35 23.5188C12.6875 24.8188 13.7438 25.875 15.0437 26.2125C15.525 26.3375 16.4813 26.3375 16.9375 26.2188C17.5875 26.05 18.1812 25.7 18.675 25.2063C19.2063 24.675 19.15 24.7875 21.4312 19.8875L22.8625 16.8L23.05 17.075C23.3062 17.4438 23.7688 18.3875 23.9312 18.8688C24.175 19.575 24.3062 20.2563 24.375 21.1125C24.4438 22.025 24.5188 22.2313 24.85 22.4438C25.0375 22.5563 25.1938 22.5625 28.225 22.5625C31.2375 22.5625 31.4188 22.5563 31.5875 22.4438C31.9438 22.2063 32 22.0438 32 21.2188C32 18.4875 31.0063 15.2813 29.425 12.9C27.3188 9.74377 24.225 7.42502 20.6625 6.35002C19.8375 6.09377 18.5813 5.84377 17.7375 5.75002C16.9188 5.66252 14.8063 5.68127 14 5.78127ZM15.0625 9.46877V11.3063L14.8625 11.3375C13.875 11.5 13.375 11.6125 12.825 11.7875C11.7375 12.1438 10.65 12.7 9.8375 13.325L9.425 13.6375L8.1125 12.3313L6.80625 11.0188L7.24375 10.6688C8.25 9.85002 9.83125 8.95627 11.0437 8.50627C12.275 8.05627 13.75 7.72502 14.9563 7.63127C15.0563 7.62502 15.0625 7.75002 15.0625 9.46877ZM17.7812 7.71877C18.7313 7.83127 20.0375 8.16252 21.0312 8.53127C22.2 8.97502 23.775 9.87502 24.7563 10.6688L25.1938 11.0188L23.8875 12.3313L22.575 13.6375L22.1625 13.325C21.35 12.7 20.2625 12.1438 19.175 11.7875C18.625 11.6125 18.125 11.5 17.1438 11.3375L16.9375 11.3063V9.46252V7.61877L17.2063 7.65002C17.35 7.66877 17.6125 7.70002 17.7812 7.71877ZM7.7 15.4625C7.075 16.275 6.51875 17.3625 6.1625 18.45C5.9875 19 5.875 19.5 5.7125 20.4813L5.68125 20.6875H3.80625H1.925L1.9625 20.45C1.98125 20.325 2.0125 20.0625 2.03125 19.875C2.29375 17.5 3.4625 14.7563 5.04375 12.8438L5.3875 12.425L6.7 13.7375L8.0125 15.05L7.7 15.4625ZM27.2688 13.2438C28.7125 15.1625 29.7313 17.6563 29.9625 19.8438C29.9875 20.05 30.0188 20.325 30.0375 20.45L30.075 20.6875H28.1938H26.3188L26.2875 20.4813C26.125 19.5 26.0125 19 25.8375 18.45C25.4813 17.3625 24.925 16.275 24.3 15.4625L23.9875 15.05L25.2875 13.7438C26.7938 12.2375 26.5562 12.3 27.2688 13.2438ZM18.9875 20.5063C18.2625 22.0688 17.5875 23.4625 17.4875 23.6063C16.9875 24.3438 16.0125 24.5875 15.2 24.1813C14.7688 23.9688 14.55 23.7375 14.3375 23.2813C14.0125 22.5938 14.2375 21.6438 14.8313 21.175C15.0813 20.975 20.2688 17.6375 20.2938 17.6563C20.3062 17.6625 19.7125 18.9438 18.9875 20.5063Z" fill="#38004D"/>
<path d="M8.70617 23.0766C8.54881 23.1613 8.40356 23.3646 8.3975 23.517C8.3975 23.5792 8.28251 23.6695 8.09489 23.7599C7.65307 23.9688 7.39887 24.206 7.18704 24.59C6.60602 25.6799 7.44729 26.9336 8.83932 27.0465C9.26904 27.0861 9.48692 27.1708 9.66244 27.3797C10.0982 27.8936 9.30535 28.5261 8.60933 28.2155C8.36119 28.1082 8.2462 27.9501 8.19778 27.6564C8.15541 27.391 7.87095 27.1199 7.63491 27.1199C7.43518 27.1199 7.14467 27.2611 7.06599 27.3967C6.94495 27.6169 6.99337 28.0461 7.18704 28.4075C7.39887 28.7915 7.65307 29.0287 8.09489 29.2376C8.26435 29.3167 8.3975 29.4183 8.3975 29.4635C8.3975 29.7402 8.70617 30 9.03905 30C9.23878 30 9.60797 29.6668 9.60797 29.4805C9.60797 29.3788 9.66849 29.328 9.89848 29.2376C10.5158 29.0005 11 28.3228 11 27.6847C11 27.0522 10.54 26.4028 9.88032 26.126C9.69875 26.047 9.35377 25.9623 9.09957 25.9397C8.84537 25.9114 8.59118 25.855 8.53065 25.8154C8.17962 25.567 8.11304 25.2112 8.36724 24.9514C8.85143 24.4601 9.78954 24.7199 9.78954 25.3467C9.78954 25.5444 10.1466 25.8776 10.3585 25.8776C10.5945 25.8776 10.8184 25.759 10.9153 25.5896C11.2118 25.0474 10.6611 24.0479 9.89848 23.7599C9.66849 23.6695 9.60797 23.6187 9.60797 23.5114C9.60797 23.438 9.51718 23.2968 9.40219 23.1895C9.17825 22.9806 8.96037 22.9467 8.70617 23.0766Z" fill="#613EEA"/>
</g>
<defs>
<clipPath id="clip0_92_1152">
<rect width="32" height="32" fill="white"/>
</clipPath>
</defs>
</svg>
