<svg width="24" height="24" viewBox="0 0 24 24" fill="none" xmlns="http://www.w3.org/2000/svg">
<path d="M1.28162 1.78329C1.02157 1.92228 0.976729 2.29443 1.20091 2.46929C1.28162 2.53655 1.41613 2.55896 1.79276 2.58138C2.0573 2.59932 2.36667 2.63967 2.47877 2.67554C2.80159 2.77418 3.06165 2.89076 3.06165 2.92663C3.06165 2.94456 2.92714 3.11943 2.76572 3.31223C2.37564 3.77853 2.29942 3.93546 2.29942 4.25829C2.29942 4.6932 2.37116 4.76943 3.66246 5.80516C4.891 6.78261 5.02999 6.86331 5.39317 6.81399C5.66667 6.77812 5.86396 6.62568 6.2361 6.16834L6.57687 5.74239L6.66654 5.84551C6.81002 6.02038 7.07904 6.6481 7.16871 7.00679C7.27632 7.45068 7.28081 8.35638 7.16871 8.90788C7.01178 9.71943 6.541 10.9211 6.09711 11.6609C6.01192 11.7999 5.81912 12.1586 5.67116 12.4545C4.68475 14.4183 4.22741 16.2701 4.41572 17.5076C4.5323 18.2743 4.73407 18.6823 5.23624 19.1711C5.78325 19.7046 6.63515 19.9871 7.59915 19.9557C8.10581 19.9378 8.13271 19.9333 8.50037 19.7495C9.30295 19.3504 9.72442 18.642 9.90377 17.3865C10.0248 16.5033 9.95309 15.5079 9.6751 14.2838C9.4823 13.4319 9.55404 12.7863 9.90825 12.1048C10.1997 11.5443 10.8229 10.9973 11.3968 10.7955L11.5807 10.7327V15.3644V19.9961L11.2937 20.0185C10.796 20.0588 10.4822 20.3189 10.3701 20.7807C10.3342 20.9107 10.3208 21.2874 10.3342 21.812C10.3477 22.619 10.3521 22.637 10.4732 22.8477C10.5405 22.9643 10.6839 23.1167 10.7826 23.184L10.9709 23.305L17.0911 23.3185C23.9288 23.3319 23.44 23.3543 23.7494 23.0136C23.8346 22.9194 23.9243 22.7625 23.9512 22.6683C24.0184 22.4352 24.014 20.8704 23.9512 20.6776C23.8167 20.2875 23.4983 20.0588 23.0275 20.0185L22.7451 19.9961L22.7361 11.2932L22.7227 2.59035L22.6106 2.38858C22.5478 2.28098 22.4088 2.12853 22.3057 2.05231L22.1084 1.9178H17.1629H12.2174L12.0201 2.05231C11.9169 2.12853 11.778 2.28098 11.7152 2.38858L11.6031 2.59035L11.5896 6.23111L11.5807 9.87187L11.343 9.94361C10.8857 10.0916 10.3342 10.4189 9.96654 10.7596C8.93081 11.7236 8.55866 13.0508 8.90839 14.5394C9.0967 15.351 9.17292 16.0459 9.14602 16.7364C9.09222 18.2609 8.65282 18.9827 7.6664 19.1621C7.41083 19.2114 7.33013 19.2069 6.95798 19.1173C6.44235 19.0007 6.13298 18.8617 5.88638 18.6375C5.44697 18.2385 5.26763 17.8125 5.22727 17.0727C5.16898 15.9204 5.61287 14.369 6.48271 12.7011C7.34806 11.0376 7.54086 10.6296 7.73814 10.0288C8.02062 9.14552 8.10581 8.65231 8.10581 7.83628C8.10132 7.13234 8.06097 6.8409 7.87714 6.3163C7.64847 5.64823 7.366 5.26263 6.51858 4.43763C5.13312 3.09252 3.79697 2.20027 2.68053 1.87296C2.16042 1.72051 1.49235 1.67568 1.28162 1.78329ZM21.8842 2.75625C21.9604 2.83247 21.9604 19.8795 21.8842 19.9557C21.8438 19.9961 20.7274 20.0095 17.136 20.0095C12.8989 20.0095 12.4415 20.0005 12.4146 19.9378C12.4012 19.8974 12.3877 16.028 12.3877 11.338C12.3877 4.76494 12.4012 2.7966 12.4415 2.75625C12.5178 2.68002 21.808 2.68002 21.8842 2.75625ZM4.9448 4.2269C5.47388 4.64837 5.93121 5.02948 5.9626 5.06984C6.01192 5.13709 5.97157 5.20883 5.69358 5.55856C5.51423 5.78723 5.33488 5.98451 5.29453 5.99796C5.19589 6.03383 3.10648 4.3928 3.10648 4.28519C3.10648 4.20896 3.7073 3.43777 3.79249 3.40638C3.87768 3.375 3.91803 3.40638 4.9448 4.2269ZM23.1396 20.8524C23.18 20.8838 23.1934 21.0811 23.1845 21.6954L23.171 22.498L17.2346 22.5114C12.8854 22.5159 11.2847 22.5069 11.2399 22.4711C11.1547 22.4038 11.1502 20.9511 11.2309 20.8704C11.2713 20.83 12.6523 20.8166 17.1853 20.8166C20.427 20.8166 23.1083 20.8345 23.1396 20.8524Z" fill="#38004D"/>
<path d="M13.9804 4.08791C13.8818 4.13275 13.7473 4.2269 13.68 4.29864C13.411 4.5856 13.42 4.48696 13.42 7.75557C13.42 10.5758 13.4289 10.7596 13.5051 10.93C13.55 11.0287 13.6441 11.1632 13.7159 11.2304C14.0028 11.4995 13.9042 11.4905 17.1728 11.4905C19.9931 11.4905 20.1769 11.4815 20.3473 11.4053C20.4459 11.3605 20.5804 11.2663 20.6477 11.1946C20.9167 10.9076 20.9077 11.0063 20.9077 7.7466C20.9077 4.48696 20.9167 4.5856 20.6477 4.29864C20.5804 4.2269 20.4459 4.13275 20.3473 4.08791C20.1769 4.01169 19.9931 4.00272 17.1638 4.00272C14.3346 4.00272 14.1508 4.01169 13.9804 4.08791ZM20.0738 4.88152C20.0872 4.92188 20.1007 6.21766 20.1007 7.76454C20.1007 9.88981 20.0872 10.5893 20.0469 10.6296C19.9706 10.7058 14.357 10.7058 14.2808 10.6296C14.2405 10.5893 14.227 9.88981 14.227 7.76454C14.227 6.21766 14.2405 4.92188 14.2539 4.88152C14.2808 4.81875 14.5768 4.80978 17.1638 4.80978C19.7509 4.80978 20.0469 4.81875 20.0738 4.88152Z" fill="#38004D"/>
<path d="M14.8754 13.0553C14.5974 13.1719 14.5212 13.5351 14.7409 13.7189L14.8575 13.822H17.18H19.5026L19.5968 13.7189C19.8075 13.4947 19.7402 13.1584 19.4667 13.0643C19.2964 13.006 15.0189 12.997 14.8754 13.0553Z" fill="#613EEA"/>
</svg>
