<svg width="88" height="88" viewBox="0 0 88 88" fill="none" xmlns="http://www.w3.org/2000/svg">
<g filter="url(#filter0_bd_161_552)">
<circle cx="43.9482" cy="40.3506" r="26.6494" fill="white" fill-opacity="0.25"/>
<circle cx="43.9482" cy="40.3506" r="27.1494" stroke="white" stroke-opacity="0.06"/>
</g>
<g clip-path="url(#clip0_161_552)">
<path d="M33.4331 27.9229C32.4681 28.1338 31.5874 28.8457 31.1497 29.7738C30.828 30.4647 30.8386 29.9057 30.8544 40.674L30.8702 50.4932L30.9862 50.8359C31.3343 51.8484 32.1517 52.6658 33.1642 53.0139L33.5069 53.1299L43.3261 53.1457C54.3054 53.1615 53.5513 53.1826 54.3581 52.7766C55.1333 52.3863 55.745 51.6586 56.014 50.8096L56.13 50.4404V40.5V30.5596L56.014 30.1904C55.6554 29.0566 54.6745 28.1549 53.546 27.9229C53.0081 27.8121 33.9499 27.8121 33.4331 27.9229ZM53.5196 29.6842C53.8413 29.8529 54.1313 30.1377 54.3001 30.4541L54.4425 30.7178L54.453 36.1231L54.4688 41.5283L53.1874 40.2311C51.8269 38.8494 51.7056 38.7598 51.1044 38.649C50.7142 38.5752 50.2343 38.6648 49.8704 38.8863C49.6858 38.9971 49.1743 39.498 48.3306 40.3945C47.6345 41.1328 47.0491 41.7445 47.0333 41.7551C47.0122 41.7604 45.8573 40.5527 44.4651 39.0656C43.0729 37.5785 41.8231 36.2549 41.686 36.1336C41.338 35.8119 41.0269 35.6854 40.5206 35.659C39.7823 35.6221 39.8983 35.5482 36.0224 38.5805L32.5577 41.291L32.5419 36.1125C32.5261 30.1113 32.4944 30.5648 33.027 30.0322C33.5755 29.4838 32.4944 29.5365 43.5792 29.5471L53.2823 29.5576L53.5196 29.6842Z" fill="white"/>
<path d="M46.7222 33.6709C46.353 33.7764 46.1368 33.9135 45.8784 34.2035C45.6095 34.5094 45.4829 34.8891 45.4829 35.3426C45.4829 36.0281 45.9628 36.6715 46.6325 36.893C46.9806 37.009 47.5554 36.9721 47.8771 36.8139C48.1987 36.6504 48.494 36.3604 48.6522 36.0439C48.8315 35.6959 48.8737 35.1369 48.7524 34.773C48.4729 33.9346 47.5554 33.4389 46.7222 33.6709Z" fill="white"/>
</g>
<defs>
<filter id="filter0_bd_161_552" x="0.298828" y="0.701294" width="87.2988" height="87.2987" filterUnits="userSpaceOnUse" color-interpolation-filters="sRGB">
<feFlood flood-opacity="0" result="BackgroundImageFix"/>
<feGaussianBlur in="BackgroundImageFix" stdDeviation="6"/>
<feComposite in2="SourceAlpha" operator="in" result="effect1_backgroundBlur_161_552"/>
<feColorMatrix in="SourceAlpha" type="matrix" values="0 0 0 0 0 0 0 0 0 0 0 0 0 0 0 0 0 0 127 0" result="hardAlpha"/>
<feOffset dy="4"/>
<feGaussianBlur stdDeviation="8"/>
<feColorMatrix type="matrix" values="0 0 0 0 0.0666667 0 0 0 0 0.0941176 0 0 0 0 0.152941 0 0 0 0.02 0"/>
<feBlend mode="normal" in2="effect1_backgroundBlur_161_552" result="effect2_dropShadow_161_552"/>
<feBlend mode="normal" in="SourceGraphic" in2="effect2_dropShadow_161_552" result="shape"/>
</filter>
<clipPath id="clip0_161_552">
<rect width="27" height="27" fill="white" transform="translate(30 27)"/>
</clipPath>
</defs>
</svg>
