<?xml version="1.0" standalone="no"?>
<!DOCTYPE svg PUBLIC "-//W3C//DTD SVG 20010904//EN"
 "http://www.w3.org/TR/2001/REC-SVG-20010904/DTD/svg10.dtd">
<svg version="1.0" xmlns="http://www.w3.org/2000/svg"
 width="100.000000pt" height="100.000000pt" viewBox="0 0 100.000000 100.000000"
 preserveAspectRatio="xMidYMid meet">

<g transform="translate(0.000000,100.000000) scale(0.100000,-0.100000)"
fill="#000000" stroke="none">
<path d="M405 978 c-40 -131 -68 -196 -131 -313 -103 -190 -126 -251 -127
-346 0 -64 4 -86 27 -132 14 -30 44 -71 66 -91 38 -34 128 -86 150 -86 17 0
11 26 -11 46 -66 60 -75 152 -28 277 18 45 33 84 35 86 8 9 34 -35 47 -79 8
-25 20 -45 28 -45 20 0 59 123 72 229 l11 89 37 -44 c21 -24 55 -77 75 -116
31 -61 38 -86 42 -152 6 -102 -14 -163 -74 -230 -25 -28 -43 -55 -39 -60 3 -6
23 -5 51 4 211 63 279 303 157 549 -46 94 -106 170 -242 309 -110 112 -137
132 -146 105z m135 -135 c158 -162 243 -289 269 -403 19 -82 13 -189 -13 -245
-20 -44 -112 -142 -123 -132 -2 3 8 26 22 53 75 144 39 319 -100 487 -72 87
-89 87 -86 -3 2 -70 -10 -148 -31 -200 l-13 -33 -33 52 c-20 33 -38 51 -48 49
-19 -4 -80 -159 -94 -236 -7 -39 -5 -64 5 -99 8 -26 13 -48 12 -50 -2 -1 -20
12 -41 29 -56 46 -86 117 -86 204 0 91 21 152 109 312 69 126 131 266 131 296
0 32 27 14 120 -81z"/>
</g>
</svg>
