<svg width="30" height="30" viewBox="0 0 30 30" fill="none" xmlns="http://www.w3.org/2000/svg">
<g clip-path="url(#clip0_188_1372)">
<mask id="path-1-outside-1_188_1372" maskUnits="userSpaceOnUse" x="-1.01367" y="3.66406" width="32" height="23" fill="black">
<rect fill="white" x="-1.01367" y="3.66406" width="32" height="23"/>
<path d="M2.24365 4.42383C1.17725 4.71094 0.368652 5.53125 0.0874024 6.60352C-0.0473633 7.10742 -0.0473633 22.8926 0.0874024 23.3965C0.368652 24.4805 1.18311 25.2949 2.26709 25.5762C2.54834 25.6523 3.33936 25.6641 7.39404 25.6641H12.187L12.3745 25.4941C12.6323 25.2656 12.644 24.9199 12.4038 24.6855L12.2456 24.5215L7.36475 24.4922C2.53076 24.4629 2.48975 24.4629 2.22022 24.3398C1.86865 24.1758 1.48779 23.7949 1.32373 23.4434C1.20068 23.1797 1.20068 23.1211 1.18311 19.377L1.16553 15.5859H7.52881H13.8862L13.9448 15.7441C14.1089 16.2012 14.4136 16.5645 14.8237 16.8047C14.9702 16.8867 15.0933 16.957 15.105 16.9629C15.1108 16.9688 14.894 17.3613 14.6187 17.8359C14.0034 18.8906 13.98 18.9434 14.062 19.1953C14.2026 19.623 14.4722 19.6582 15.4624 19.3887C15.8257 19.2949 16.1362 19.2246 16.1538 19.2363C16.1655 19.2539 16.2534 19.5527 16.3472 19.8984C16.4409 20.25 16.5522 20.6133 16.5874 20.7012C16.6636 20.877 16.9097 21.0352 17.1089 21.0352C17.437 21.0352 17.5249 20.9121 18.896 18.5215C19.6401 17.2324 20.2612 16.1836 20.2847 16.1895C20.3081 16.1953 21.0698 17.5195 21.978 19.1309C22.8804 20.7422 23.6831 22.125 23.7651 22.207C23.8706 22.3125 23.9702 22.3535 24.1401 22.3535C24.5151 22.3535 24.6382 22.1777 24.8667 21.334C24.9722 20.9414 25.0776 20.6074 25.1011 20.584C25.1187 20.5664 25.4468 20.6309 25.8335 20.7305C26.2144 20.8359 26.5952 20.918 26.6772 20.918C26.8765 20.918 27.1636 20.666 27.2046 20.4668C27.2456 20.2441 27.187 20.1152 26.273 18.5098C25.8335 17.7363 25.4878 17.0918 25.4995 17.0742C25.5171 17.0625 25.6812 17.0215 25.8687 16.9922C26.519 16.8867 27.064 16.418 27.3042 15.75L27.3628 15.5859H28.0952H28.8335L28.8159 19.377C28.7983 23.1211 28.7983 23.1797 28.6753 23.4434C28.5112 23.7949 28.1304 24.1758 27.7788 24.3398C27.5151 24.4629 27.439 24.4629 24.3628 24.4805L21.2163 24.498L21.1987 22.7871L21.1812 21.082L20.9819 20.9062C20.8179 20.7598 20.7534 20.7363 20.5718 20.7656C20.437 20.7832 20.3022 20.8652 20.2026 20.9766L20.0386 21.1523V22.8223V24.4863L18.398 24.5039L16.7573 24.5215L16.5991 24.6855C16.3765 24.9082 16.3765 25.248 16.5991 25.4707L16.7573 25.6348L22.0483 25.6523C25.605 25.6582 27.4331 25.6465 27.6323 25.6055C28.7222 25.377 29.6245 24.5039 29.9116 23.3965C30.0464 22.8926 30.0464 7.10742 29.9116 6.60352C29.6304 5.51953 28.8159 4.70508 27.7319 4.42383C27.2397 4.29492 2.71826 4.30078 2.24365 4.42383ZM20.0386 8.11523C20.0386 9.55078 20.0327 10.7402 20.0269 10.7637C20.021 10.793 19.9155 10.8516 19.7983 10.9043L19.5874 11.0039L18.0405 10.2715C16.2065 9.4043 16.1362 9.375 15.7026 9.36914C15.1812 9.35742 14.7944 9.51562 14.4136 9.89648C13.9038 10.4062 13.8862 10.5 13.8862 12.6328V14.4141H7.52881H1.17139V10.7344C1.17139 6.73828 1.17139 6.73242 1.49365 6.26367C1.70459 5.96484 2.00928 5.73633 2.37256 5.61328C2.64795 5.51953 3.26904 5.51367 11.355 5.50781H20.0386V8.11523ZM27.7788 5.66016C28.1304 5.82422 28.5112 6.20508 28.6753 6.55664C28.7983 6.82031 28.7983 6.87891 28.8159 10.6172L28.8335 14.4141H28.0952H27.3628V12.6328C27.3628 10.5 27.3452 10.4062 26.8355 9.89648C26.4546 9.51562 26.0679 9.35742 25.5464 9.36914C25.1128 9.375 25.0366 9.4043 23.2612 10.248C22.4409 10.6406 21.7261 10.957 21.6733 10.957C21.6206 10.957 21.4858 10.9219 21.3804 10.875L21.1812 10.793L21.1987 8.15039L21.2105 5.50195L24.3628 5.51953C27.439 5.53711 27.5151 5.53711 27.7788 5.66016ZM17.355 11.2441C18.7554 11.9004 18.8022 11.9297 18.7612 12.0703C18.7085 12.2637 18.7085 14.1094 18.7612 14.2969C18.8022 14.4375 18.7554 14.4668 17.3667 15.1172C16.5757 15.4863 15.8608 15.8086 15.773 15.8262C15.5562 15.8672 15.3159 15.7793 15.1753 15.6035C15.064 15.457 15.0581 15.3633 15.0581 13.1895C15.0581 11.1914 15.0698 10.9102 15.1519 10.7871C15.2749 10.6113 15.5737 10.4883 15.7612 10.5293C15.8433 10.5527 16.5581 10.8691 17.355 11.2441ZM25.8042 10.5703C26.1968 10.7344 26.1909 10.6816 26.1909 13.1836C26.1909 15.1758 26.1792 15.457 26.0972 15.5801C25.9741 15.7559 25.6636 15.8848 25.4819 15.8379C25.353 15.8027 22.6812 14.5605 22.5171 14.4551C22.4644 14.4199 22.4585 14.3672 22.5054 14.25C22.5464 14.1562 22.5581 13.6641 22.5522 12.9902L22.5288 11.8945L23.9409 11.2266C24.7144 10.8574 25.3999 10.5469 25.4644 10.5293C25.523 10.5176 25.5815 10.5 25.5933 10.4941C25.5991 10.4941 25.6987 10.5234 25.8042 10.5703ZM21.1284 12.0586C21.3511 12.2344 21.3862 12.3867 21.3862 13.207V14.0039L21.2163 14.1914C21.0522 14.373 21.023 14.3848 20.6304 14.3848C20.2554 14.3848 20.2026 14.3672 20.0562 14.2207C19.898 14.0684 19.8921 14.0332 19.8745 13.3477C19.8511 12.4922 19.8862 12.2754 20.0796 12.0938C20.2085 11.9766 20.2905 11.9531 20.6187 11.9531C20.894 11.9531 21.0405 11.9824 21.1284 12.0586ZM22.7808 15.8906L23.6831 16.3184L24.5503 17.8418C25.0249 18.6797 25.4058 19.3711 25.3999 19.3828C25.3882 19.3945 25.2241 19.3594 25.0249 19.3066C24.8315 19.2598 24.603 19.2305 24.5269 19.2539C24.3101 19.3066 24.1401 19.5234 24.0522 19.8633C24.0054 20.0332 23.9644 20.1797 23.9526 20.1914C23.9233 20.2148 21.3276 15.6035 21.3276 15.5332C21.3276 15.4453 21.6382 15.3633 21.7671 15.416C21.8315 15.4395 22.2886 15.6504 22.7808 15.8906ZM19.1362 15.7734C19.0542 15.9141 18.6089 16.6758 18.1519 17.4727L17.3198 18.9258L17.1909 18.5332C17.1206 18.3164 17.0034 18.0938 16.9331 18.0352C16.7866 17.918 16.4878 17.9004 16.1538 17.9941C16.0249 18.0293 15.9136 18.041 15.9019 18.0293C15.8843 18.0176 16.0308 17.7305 16.2241 17.3965L16.5815 16.7871L17.8823 16.1602C18.603 15.8203 19.2124 15.5332 19.2358 15.5332C19.2651 15.5273 19.2183 15.6387 19.1362 15.7734Z"/>
</mask>
<path d="M2.24365 4.42383C1.17725 4.71094 0.368652 5.53125 0.0874024 6.60352C-0.0473633 7.10742 -0.0473633 22.8926 0.0874024 23.3965C0.368652 24.4805 1.18311 25.2949 2.26709 25.5762C2.54834 25.6523 3.33936 25.6641 7.39404 25.6641H12.187L12.3745 25.4941C12.6323 25.2656 12.644 24.9199 12.4038 24.6855L12.2456 24.5215L7.36475 24.4922C2.53076 24.4629 2.48975 24.4629 2.22022 24.3398C1.86865 24.1758 1.48779 23.7949 1.32373 23.4434C1.20068 23.1797 1.20068 23.1211 1.18311 19.377L1.16553 15.5859H7.52881H13.8862L13.9448 15.7441C14.1089 16.2012 14.4136 16.5645 14.8237 16.8047C14.9702 16.8867 15.0933 16.957 15.105 16.9629C15.1108 16.9688 14.894 17.3613 14.6187 17.8359C14.0034 18.8906 13.98 18.9434 14.062 19.1953C14.2026 19.623 14.4722 19.6582 15.4624 19.3887C15.8257 19.2949 16.1362 19.2246 16.1538 19.2363C16.1655 19.2539 16.2534 19.5527 16.3472 19.8984C16.4409 20.25 16.5522 20.6133 16.5874 20.7012C16.6636 20.877 16.9097 21.0352 17.1089 21.0352C17.437 21.0352 17.5249 20.9121 18.896 18.5215C19.6401 17.2324 20.2612 16.1836 20.2847 16.1895C20.3081 16.1953 21.0698 17.5195 21.978 19.1309C22.8804 20.7422 23.6831 22.125 23.7651 22.207C23.8706 22.3125 23.9702 22.3535 24.1401 22.3535C24.5151 22.3535 24.6382 22.1777 24.8667 21.334C24.9722 20.9414 25.0776 20.6074 25.1011 20.584C25.1187 20.5664 25.4468 20.6309 25.8335 20.7305C26.2144 20.8359 26.5952 20.918 26.6772 20.918C26.8765 20.918 27.1636 20.666 27.2046 20.4668C27.2456 20.2441 27.187 20.1152 26.273 18.5098C25.8335 17.7363 25.4878 17.0918 25.4995 17.0742C25.5171 17.0625 25.6812 17.0215 25.8687 16.9922C26.519 16.8867 27.064 16.418 27.3042 15.75L27.3628 15.5859H28.0952H28.8335L28.8159 19.377C28.7983 23.1211 28.7983 23.1797 28.6753 23.4434C28.5112 23.7949 28.1304 24.1758 27.7788 24.3398C27.5151 24.4629 27.439 24.4629 24.3628 24.4805L21.2163 24.498L21.1987 22.7871L21.1812 21.082L20.9819 20.9062C20.8179 20.7598 20.7534 20.7363 20.5718 20.7656C20.437 20.7832 20.3022 20.8652 20.2026 20.9766L20.0386 21.1523V22.8223V24.4863L18.398 24.5039L16.7573 24.5215L16.5991 24.6855C16.3765 24.9082 16.3765 25.248 16.5991 25.4707L16.7573 25.6348L22.0483 25.6523C25.605 25.6582 27.4331 25.6465 27.6323 25.6055C28.7222 25.377 29.6245 24.5039 29.9116 23.3965C30.0464 22.8926 30.0464 7.10742 29.9116 6.60352C29.6304 5.51953 28.8159 4.70508 27.7319 4.42383C27.2397 4.29492 2.71826 4.30078 2.24365 4.42383ZM20.0386 8.11523C20.0386 9.55078 20.0327 10.7402 20.0269 10.7637C20.021 10.793 19.9155 10.8516 19.7983 10.9043L19.5874 11.0039L18.0405 10.2715C16.2065 9.4043 16.1362 9.375 15.7026 9.36914C15.1812 9.35742 14.7944 9.51562 14.4136 9.89648C13.9038 10.4062 13.8862 10.5 13.8862 12.6328V14.4141H7.52881H1.17139V10.7344C1.17139 6.73828 1.17139 6.73242 1.49365 6.26367C1.70459 5.96484 2.00928 5.73633 2.37256 5.61328C2.64795 5.51953 3.26904 5.51367 11.355 5.50781H20.0386V8.11523ZM27.7788 5.66016C28.1304 5.82422 28.5112 6.20508 28.6753 6.55664C28.7983 6.82031 28.7983 6.87891 28.8159 10.6172L28.8335 14.4141H28.0952H27.3628V12.6328C27.3628 10.5 27.3452 10.4062 26.8355 9.89648C26.4546 9.51562 26.0679 9.35742 25.5464 9.36914C25.1128 9.375 25.0366 9.4043 23.2612 10.248C22.4409 10.6406 21.7261 10.957 21.6733 10.957C21.6206 10.957 21.4858 10.9219 21.3804 10.875L21.1812 10.793L21.1987 8.15039L21.2105 5.50195L24.3628 5.51953C27.439 5.53711 27.5151 5.53711 27.7788 5.66016ZM17.355 11.2441C18.7554 11.9004 18.8022 11.9297 18.7612 12.0703C18.7085 12.2637 18.7085 14.1094 18.7612 14.2969C18.8022 14.4375 18.7554 14.4668 17.3667 15.1172C16.5757 15.4863 15.8608 15.8086 15.773 15.8262C15.5562 15.8672 15.3159 15.7793 15.1753 15.6035C15.064 15.457 15.0581 15.3633 15.0581 13.1895C15.0581 11.1914 15.0698 10.9102 15.1519 10.7871C15.2749 10.6113 15.5737 10.4883 15.7612 10.5293C15.8433 10.5527 16.5581 10.8691 17.355 11.2441ZM25.8042 10.5703C26.1968 10.7344 26.1909 10.6816 26.1909 13.1836C26.1909 15.1758 26.1792 15.457 26.0972 15.5801C25.9741 15.7559 25.6636 15.8848 25.4819 15.8379C25.353 15.8027 22.6812 14.5605 22.5171 14.4551C22.4644 14.4199 22.4585 14.3672 22.5054 14.25C22.5464 14.1562 22.5581 13.6641 22.5522 12.9902L22.5288 11.8945L23.9409 11.2266C24.7144 10.8574 25.3999 10.5469 25.4644 10.5293C25.523 10.5176 25.5815 10.5 25.5933 10.4941C25.5991 10.4941 25.6987 10.5234 25.8042 10.5703ZM21.1284 12.0586C21.3511 12.2344 21.3862 12.3867 21.3862 13.207V14.0039L21.2163 14.1914C21.0522 14.373 21.023 14.3848 20.6304 14.3848C20.2554 14.3848 20.2026 14.3672 20.0562 14.2207C19.898 14.0684 19.8921 14.0332 19.8745 13.3477C19.8511 12.4922 19.8862 12.2754 20.0796 12.0938C20.2085 11.9766 20.2905 11.9531 20.6187 11.9531C20.894 11.9531 21.0405 11.9824 21.1284 12.0586ZM22.7808 15.8906L23.6831 16.3184L24.5503 17.8418C25.0249 18.6797 25.4058 19.3711 25.3999 19.3828C25.3882 19.3945 25.2241 19.3594 25.0249 19.3066C24.8315 19.2598 24.603 19.2305 24.5269 19.2539C24.3101 19.3066 24.1401 19.5234 24.0522 19.8633C24.0054 20.0332 23.9644 20.1797 23.9526 20.1914C23.9233 20.2148 21.3276 15.6035 21.3276 15.5332C21.3276 15.4453 21.6382 15.3633 21.7671 15.416C21.8315 15.4395 22.2886 15.6504 22.7808 15.8906ZM19.1362 15.7734C19.0542 15.9141 18.6089 16.6758 18.1519 17.4727L17.3198 18.9258L17.1909 18.5332C17.1206 18.3164 17.0034 18.0938 16.9331 18.0352C16.7866 17.918 16.4878 17.9004 16.1538 17.9941C16.0249 18.0293 15.9136 18.041 15.9019 18.0293C15.8843 18.0176 16.0308 17.7305 16.2241 17.3965L16.5815 16.7871L17.8823 16.1602C18.603 15.8203 19.2124 15.5332 19.2358 15.5332C19.2651 15.5273 19.2183 15.6387 19.1362 15.7734Z" fill="#38004D"/>
<path d="M2.24365 4.42383C1.17725 4.71094 0.368652 5.53125 0.0874024 6.60352C-0.0473633 7.10742 -0.0473633 22.8926 0.0874024 23.3965C0.368652 24.4805 1.18311 25.2949 2.26709 25.5762C2.54834 25.6523 3.33936 25.6641 7.39404 25.6641H12.187L12.3745 25.4941C12.6323 25.2656 12.644 24.9199 12.4038 24.6855L12.2456 24.5215L7.36475 24.4922C2.53076 24.4629 2.48975 24.4629 2.22022 24.3398C1.86865 24.1758 1.48779 23.7949 1.32373 23.4434C1.20068 23.1797 1.20068 23.1211 1.18311 19.377L1.16553 15.5859H7.52881H13.8862L13.9448 15.7441C14.1089 16.2012 14.4136 16.5645 14.8237 16.8047C14.9702 16.8867 15.0933 16.957 15.105 16.9629C15.1108 16.9688 14.894 17.3613 14.6187 17.8359C14.0034 18.8906 13.98 18.9434 14.062 19.1953C14.2026 19.623 14.4722 19.6582 15.4624 19.3887C15.8257 19.2949 16.1362 19.2246 16.1538 19.2363C16.1655 19.2539 16.2534 19.5527 16.3472 19.8984C16.4409 20.25 16.5522 20.6133 16.5874 20.7012C16.6636 20.877 16.9097 21.0352 17.1089 21.0352C17.437 21.0352 17.5249 20.9121 18.896 18.5215C19.6401 17.2324 20.2612 16.1836 20.2847 16.1895C20.3081 16.1953 21.0698 17.5195 21.978 19.1309C22.8804 20.7422 23.6831 22.125 23.7651 22.207C23.8706 22.3125 23.9702 22.3535 24.1401 22.3535C24.5151 22.3535 24.6382 22.1777 24.8667 21.334C24.9722 20.9414 25.0776 20.6074 25.1011 20.584C25.1187 20.5664 25.4468 20.6309 25.8335 20.7305C26.2144 20.8359 26.5952 20.918 26.6772 20.918C26.8765 20.918 27.1636 20.666 27.2046 20.4668C27.2456 20.2441 27.187 20.1152 26.273 18.5098C25.8335 17.7363 25.4878 17.0918 25.4995 17.0742C25.5171 17.0625 25.6812 17.0215 25.8687 16.9922C26.519 16.8867 27.064 16.418 27.3042 15.75L27.3628 15.5859H28.0952H28.8335L28.8159 19.377C28.7983 23.1211 28.7983 23.1797 28.6753 23.4434C28.5112 23.7949 28.1304 24.1758 27.7788 24.3398C27.5151 24.4629 27.439 24.4629 24.3628 24.4805L21.2163 24.498L21.1987 22.7871L21.1812 21.082L20.9819 20.9062C20.8179 20.7598 20.7534 20.7363 20.5718 20.7656C20.437 20.7832 20.3022 20.8652 20.2026 20.9766L20.0386 21.1523V22.8223V24.4863L18.398 24.5039L16.7573 24.5215L16.5991 24.6855C16.3765 24.9082 16.3765 25.248 16.5991 25.4707L16.7573 25.6348L22.0483 25.6523C25.605 25.6582 27.4331 25.6465 27.6323 25.6055C28.7222 25.377 29.6245 24.5039 29.9116 23.3965C30.0464 22.8926 30.0464 7.10742 29.9116 6.60352C29.6304 5.51953 28.8159 4.70508 27.7319 4.42383C27.2397 4.29492 2.71826 4.30078 2.24365 4.42383ZM20.0386 8.11523C20.0386 9.55078 20.0327 10.7402 20.0269 10.7637C20.021 10.793 19.9155 10.8516 19.7983 10.9043L19.5874 11.0039L18.0405 10.2715C16.2065 9.4043 16.1362 9.375 15.7026 9.36914C15.1812 9.35742 14.7944 9.51562 14.4136 9.89648C13.9038 10.4062 13.8862 10.5 13.8862 12.6328V14.4141H7.52881H1.17139V10.7344C1.17139 6.73828 1.17139 6.73242 1.49365 6.26367C1.70459 5.96484 2.00928 5.73633 2.37256 5.61328C2.64795 5.51953 3.26904 5.51367 11.355 5.50781H20.0386V8.11523ZM27.7788 5.66016C28.1304 5.82422 28.5112 6.20508 28.6753 6.55664C28.7983 6.82031 28.7983 6.87891 28.8159 10.6172L28.8335 14.4141H28.0952H27.3628V12.6328C27.3628 10.5 27.3452 10.4062 26.8355 9.89648C26.4546 9.51562 26.0679 9.35742 25.5464 9.36914C25.1128 9.375 25.0366 9.4043 23.2612 10.248C22.4409 10.6406 21.7261 10.957 21.6733 10.957C21.6206 10.957 21.4858 10.9219 21.3804 10.875L21.1812 10.793L21.1987 8.15039L21.2105 5.50195L24.3628 5.51953C27.439 5.53711 27.5151 5.53711 27.7788 5.66016ZM17.355 11.2441C18.7554 11.9004 18.8022 11.9297 18.7612 12.0703C18.7085 12.2637 18.7085 14.1094 18.7612 14.2969C18.8022 14.4375 18.7554 14.4668 17.3667 15.1172C16.5757 15.4863 15.8608 15.8086 15.773 15.8262C15.5562 15.8672 15.3159 15.7793 15.1753 15.6035C15.064 15.457 15.0581 15.3633 15.0581 13.1895C15.0581 11.1914 15.0698 10.9102 15.1519 10.7871C15.2749 10.6113 15.5737 10.4883 15.7612 10.5293C15.8433 10.5527 16.5581 10.8691 17.355 11.2441ZM25.8042 10.5703C26.1968 10.7344 26.1909 10.6816 26.1909 13.1836C26.1909 15.1758 26.1792 15.457 26.0972 15.5801C25.9741 15.7559 25.6636 15.8848 25.4819 15.8379C25.353 15.8027 22.6812 14.5605 22.5171 14.4551C22.4644 14.4199 22.4585 14.3672 22.5054 14.25C22.5464 14.1562 22.5581 13.6641 22.5522 12.9902L22.5288 11.8945L23.9409 11.2266C24.7144 10.8574 25.3999 10.5469 25.4644 10.5293C25.523 10.5176 25.5815 10.5 25.5933 10.4941C25.5991 10.4941 25.6987 10.5234 25.8042 10.5703ZM21.1284 12.0586C21.3511 12.2344 21.3862 12.3867 21.3862 13.207V14.0039L21.2163 14.1914C21.0522 14.373 21.023 14.3848 20.6304 14.3848C20.2554 14.3848 20.2026 14.3672 20.0562 14.2207C19.898 14.0684 19.8921 14.0332 19.8745 13.3477C19.8511 12.4922 19.8862 12.2754 20.0796 12.0938C20.2085 11.9766 20.2905 11.9531 20.6187 11.9531C20.894 11.9531 21.0405 11.9824 21.1284 12.0586ZM22.7808 15.8906L23.6831 16.3184L24.5503 17.8418C25.0249 18.6797 25.4058 19.3711 25.3999 19.3828C25.3882 19.3945 25.2241 19.3594 25.0249 19.3066C24.8315 19.2598 24.603 19.2305 24.5269 19.2539C24.3101 19.3066 24.1401 19.5234 24.0522 19.8633C24.0054 20.0332 23.9644 20.1797 23.9526 20.1914C23.9233 20.2148 21.3276 15.6035 21.3276 15.5332C21.3276 15.4453 21.6382 15.3633 21.7671 15.416C21.8315 15.4395 22.2886 15.6504 22.7808 15.8906ZM19.1362 15.7734C19.0542 15.9141 18.6089 16.6758 18.1519 17.4727L17.3198 18.9258L17.1909 18.5332C17.1206 18.3164 17.0034 18.0938 16.9331 18.0352C16.7866 17.918 16.4878 17.9004 16.1538 17.9941C16.0249 18.0293 15.9136 18.041 15.9019 18.0293C15.8843 18.0176 16.0308 17.7305 16.2241 17.3965L16.5815 16.7871L17.8823 16.1602C18.603 15.8203 19.2124 15.5332 19.2358 15.5332C19.2651 15.5273 19.2183 15.6387 19.1362 15.7734Z" stroke="#38004D" stroke-width="0.6" mask="url(#path-1-outside-1_188_1372)"/>
<path d="M3.544 7.55274C3.169 7.71094 3.06939 8.19727 3.3565 8.47852L3.51471 8.64258L7.98541 8.66016C12.6729 8.67774 12.6846 8.67188 12.8604 8.41407C12.96 8.27344 12.9776 7.95118 12.8897 7.78711C12.7315 7.49415 12.8077 7.5 8.0733 7.50586C5.64752 7.50586 3.60846 7.5293 3.544 7.55274Z" fill="#613EEA"/>
<path d="M3.544 10.7168C3.169 10.875 3.06939 11.3613 3.3565 11.6426L3.51471 11.8066L5.53619 11.8242L7.55182 11.8418L7.74518 11.666C7.90338 11.5254 7.93854 11.4551 7.93854 11.25C7.93854 11.0449 7.90338 10.9746 7.74518 10.834L7.55768 10.6641L5.6065 10.6699C4.5401 10.6699 3.60846 10.6934 3.544 10.7168Z" fill="#613EEA"/>
<path d="M9.40414 10.7285C8.97055 10.9805 8.97641 11.5488 9.42758 11.7774C9.84946 11.9941 10.3592 11.502 10.1717 11.0566C10.1307 10.9512 10.0545 10.834 10.0018 10.793C9.87289 10.6875 9.54477 10.6524 9.40414 10.7285Z" fill="#613EEA"/>
<path d="M3.544 20.7949C3.169 20.9531 3.06939 21.4395 3.3565 21.7207L3.51471 21.8848L7.98541 21.9023C12.6729 21.9199 12.6846 21.9141 12.8604 21.6563C12.96 21.5156 12.9776 21.1934 12.8897 21.0293C12.7315 20.7363 12.8077 20.7422 8.0733 20.7481C5.64752 20.7481 3.60846 20.7715 3.544 20.7949Z" fill="#613EEA"/>
<path d="M14.2088 24.5566C13.6346 24.8906 13.9159 25.7578 14.5545 25.6406C15.1873 25.5234 15.1639 24.6094 14.5252 24.5156C14.4198 24.5039 14.2733 24.5215 14.2088 24.5566Z" fill="#613EEA"/>
</g>
<defs>
<clipPath id="clip0_188_1372">
<rect width="30" height="30" fill="white"/>
</clipPath>
</defs>
</svg>
