<svg width="32" height="32" viewBox="0 0 32 32" fill="none" xmlns="http://www.w3.org/2000/svg">
<g clip-path="url(#clip0_131_1024)">
<path d="M2.38115 5.16248C1.2749 5.45622 0.381152 6.35623 0.0874023 7.46873C-0.0375977 7.93122 -0.0375977 24.0687 0.0874023 24.5312C0.381152 25.65 1.2874 26.55 2.40615 26.8437C2.73115 26.925 4.3249 26.9375 15.9999 26.9375C30.5874 26.9375 29.5437 26.9687 30.3374 26.5437C31.0687 26.1562 31.6937 25.3625 31.9124 24.5312C32.0374 24.0687 32.0374 7.93122 31.9124 7.46873C31.6187 6.34998 30.7124 5.44998 29.5937 5.15623C29.2687 5.07498 27.6812 5.06248 15.9687 5.06873C4.60615 5.06873 2.66865 5.08122 2.38115 5.16248ZM29.2812 7.11872C29.5874 7.25623 29.8624 7.52497 29.9937 7.81248C30.0812 8.00623 30.0937 8.69373 30.1124 14.2937L30.1312 20.5625H15.9999H1.86865L1.8874 14.2937C1.90615 8.69373 1.91865 8.00623 2.00615 7.81248C2.1374 7.52497 2.4124 7.25623 2.71865 7.11872C2.95615 7.00623 3.49365 6.99998 15.9999 6.99998C28.5062 6.99998 29.0437 7.00623 29.2812 7.11872ZM30.1124 23.2312C30.0937 23.6375 30.0437 24.05 30.0062 24.1562C29.8999 24.4187 29.5749 24.7437 29.2812 24.8812C29.0374 24.9937 28.5624 25 15.9999 25C3.49365 25 2.95615 24.9937 2.71865 24.8812C2.40615 24.7375 2.1374 24.475 2.0124 24.1875C1.95615 24.0562 1.90615 23.6812 1.8874 23.2312L1.85615 22.5H15.9999H30.1437L30.1124 23.2312Z" fill="#38004D"/>
<path d="M6.66544 10.2352L6.66589 10.2347C7.1007 9.79991 7.54605 9.55575 8.13472 9.40856C10.055 8.94396 11.9335 10.4182 11.9396 12.4065C11.9396 12.9987 11.8596 13.3816 11.6593 13.7823C11.615 13.8679 11.5754 13.9519 11.5467 14.0181C11.5323 14.0512 11.5204 14.0804 11.512 14.1035C11.5078 14.1149 11.5042 14.1256 11.5015 14.1349C11.4996 14.1418 11.4958 14.1553 11.4958 14.1688C11.4958 14.1931 11.5077 14.2115 11.5124 14.2184C11.5189 14.228 11.5269 14.237 11.5347 14.2449C11.5506 14.261 11.5717 14.2788 11.5956 14.2969C11.6437 14.3334 11.7087 14.3756 11.7796 14.4143M6.66544 10.2352L11.8125 14.3563M6.66544 10.2352C6.01594 10.8724 5.73554 11.555 5.74167 12.4621V12.4626C5.74167 12.7447 5.77851 13.0394 5.84137 13.3001C5.90453 13.562 5.99265 13.7839 6.0919 13.924L6.09191 13.924L6.09269 13.9252C6.12596 13.9743 6.15356 14.0201 6.16898 14.0635C6.18517 14.1092 6.18937 14.1564 6.17066 14.2041C6.15303 14.2491 6.11831 14.2858 6.07615 14.319C6.0336 14.3526 5.97718 14.3875 5.90793 14.4268L5.9077 14.4269C4.68461 15.1153 3.81667 16.587 3.81667 17.9751C3.81667 18.1878 3.82307 18.3176 3.8427 18.415C3.86162 18.509 3.89318 18.5743 3.94892 18.6564L3.94892 18.6564L3.94945 18.6572C3.9642 18.6796 3.97729 18.7002 3.98934 18.7191C4.04303 18.8033 4.076 18.855 4.14249 18.8972C4.2245 18.9493 4.36275 18.988 4.66094 19.0125C5.19198 19.0563 6.18888 19.0535 8.17154 19.0479C8.40643 19.0473 8.65515 19.0466 8.91858 19.0459M6.66544 10.2352L8.91875 19.1126M11.7796 14.4143C11.7799 14.4145 11.7803 14.4147 11.7806 14.4149L11.8125 14.3563M11.7796 14.4143C11.7794 14.4142 11.7791 14.414 11.7789 14.4139L11.8125 14.3563M11.7796 14.4143C12.1777 14.6473 12.7269 15.1408 13.0282 15.5342M11.8125 14.3563C12.2188 14.5938 12.775 15.0938 13.0813 15.4938M13.0282 15.5342C13.0282 15.5341 13.0281 15.5341 13.028 15.534L13.0813 15.4938M13.0282 15.5342C13.5203 16.1863 13.7664 16.8249 13.8776 17.6956M13.0282 15.5342C13.0282 15.5343 13.0283 15.5343 13.0283 15.5344L13.0813 15.4938M13.0813 15.4938L13.8776 17.6956M13.8776 17.6956C13.8775 17.6954 13.8775 17.6953 13.8775 17.6952L13.9438 17.6876L13.8776 17.696C13.8776 17.6959 13.8776 17.6957 13.8776 17.6956ZM13.8776 17.6956C13.9091 17.9703 13.9235 18.1073 13.9141 18.2113C13.9052 18.3097 13.8749 18.3793 13.8032 18.5195M13.8776 17.6956L13.8625 18.5501M13.8032 18.5195C13.8033 18.5195 13.8033 18.5194 13.8034 18.5193L13.8625 18.5501M13.8032 18.5195C13.8032 18.5196 13.8032 18.5197 13.8031 18.5197L13.8625 18.5501M13.8032 18.5195C13.7647 18.5935 13.7108 18.6761 13.655 18.7484C13.5983 18.822 13.5435 18.8801 13.5043 18.9088L13.5037 18.9092C13.4829 18.9249 13.4671 18.9358 13.4463 18.9454C13.4253 18.9551 13.3965 18.9645 13.3502 18.9732C13.2559 18.9909 13.0981 19.0038 12.8041 19.0131C12.2204 19.0318 11.1166 19.0365 8.9477 19.0458L8.91858 19.0459M13.8625 18.5501C13.7812 18.7063 13.6375 18.8938 13.5437 18.9626C13.3692 19.0935 13.2941 19.0938 8.95092 19.1124L8.91875 19.1126M8.91858 19.0459L8.91875 19.1126M8.91858 19.0459L8.91846 19.0459L8.91875 19.1126M9.21457 11.193L9.21457 11.193L9.21523 11.1932C9.52076 11.2972 9.75711 11.471 9.91172 11.7029C10.0663 11.9348 10.136 12.2201 10.1165 12.5416L10.1165 12.542C10.1003 12.7883 10.0383 12.9971 9.92027 13.1738C9.80229 13.3504 9.63147 13.4901 9.40515 13.6033C8.69829 13.9664 7.8227 13.5829 7.59238 12.8129L7.59228 12.8126C7.30304 11.8265 8.24814 10.8753 9.21457 11.193ZM11.6226 16.6983L11.6227 16.6983L11.6239 16.7002C11.6897 16.7973 11.7513 16.8904 11.7965 16.9634C11.8191 16.9998 11.8382 17.0322 11.8518 17.058C11.8586 17.0708 11.8646 17.0831 11.8691 17.0941C11.8724 17.1022 11.8792 17.1193 11.8792 17.1376C11.8792 17.176 11.8495 17.1937 11.8461 17.1958L11.8459 17.1959C11.8382 17.2005 11.831 17.2028 11.8279 17.2037C11.8207 17.2059 11.8131 17.2073 11.8071 17.2082C11.7944 17.2101 11.7773 17.2118 11.757 17.2134C11.7159 17.2166 11.6563 17.2196 11.5806 17.2226C11.429 17.2284 11.2103 17.2339 10.941 17.2386C10.4023 17.248 9.65967 17.2542 8.84375 17.2542H5.875H5.76713L5.81537 17.1578L5.93412 16.9203L5.93412 16.9203L5.93441 16.9197C6.20641 16.3887 6.84144 15.8964 7.48237 15.7233C7.61363 15.6868 7.83653 15.6628 8.09771 15.6488C8.36101 15.6348 8.66906 15.6307 8.97377 15.6358C9.27846 15.6409 9.58075 15.6552 9.83251 15.6781C10.0806 15.7007 10.2883 15.7323 10.3986 15.7752C10.8547 15.9424 11.3464 16.3192 11.6226 16.6983Z" fill="#613EEA" stroke="#613EEA" stroke-width="0.133333"/>
<path d="M25.7375 11.8063C25.9062 12.1063 25.9125 12.4313 25.75 12.75L25.7375 11.8063ZM25.7375 11.8063L25.6794 11.839M25.7375 11.8063L25.6794 11.839C25.6794 11.839 25.6794 11.839 25.6794 11.839M25.6794 11.839C25.8369 12.1191 25.8432 12.4204 25.6906 12.7198L25.6906 12.7198C25.6061 12.8859 25.4932 12.9994 25.3324 13.073C25.1692 13.1477 24.952 13.1834 24.6562 13.1834H24.1875H24.1208V13.25V13.7188C24.1208 14.0146 24.0852 14.2317 24.0105 14.3949C23.9369 14.5556 23.8235 14.6685 23.6575 14.753M25.6794 11.839C25.5893 11.6792 25.4671 11.5658 25.3009 11.4914C25.1329 11.4161 24.9167 11.3792 24.6375 11.3792H24.1875H24.1208V11.3125V10.8375C24.1208 10.5419 24.0837 10.3287 24.005 10.1685C23.9276 10.0108 23.807 9.89857 23.6273 9.8101C23.467 9.73455 23.3383 9.69959 23.2129 9.7003C23.0874 9.701 22.9586 9.73743 22.7983 9.81603C22.6297 9.9004 22.5113 10.0179 22.4338 10.1831C22.3552 10.3503 22.3167 10.5706 22.3167 10.8625V11.3125V11.3792H22.25H21.8C21.5048 11.3792 21.2831 11.4178 21.1161 11.497C20.9512 11.5751 20.8354 11.6946 20.754 11.8661L20.754 11.8661L20.7529 11.8684C20.7178 11.9356 20.6865 12.0173 20.664 12.0945C20.6412 12.1728 20.6292 12.2407 20.6292 12.2813C20.6292 12.3219 20.6412 12.3898 20.664 12.4681C20.6865 12.5453 20.7178 12.627 20.7529 12.6942L20.7529 12.6942L20.754 12.6965C20.8354 12.8679 20.9512 12.9875 21.1161 13.0656C21.2831 13.1448 21.5048 13.1834 21.8 13.1834H22.25H22.3167V13.25V13.7C22.3167 13.9952 22.3553 14.2169 22.4345 14.384C22.5126 14.5488 22.6321 14.6647 22.8036 14.7461L22.8036 14.7461L22.8044 14.7464C22.9635 14.8245 23.1036 14.8616 23.2386 14.8623C23.3735 14.863 23.5084 14.8275 23.6575 14.753M23.6575 14.753C23.6575 14.753 23.6576 14.7529 23.6577 14.7529L23.6875 14.8125L23.6573 14.7531C23.6573 14.7531 23.6574 14.753 23.6575 14.753Z" fill="#613EEA" stroke="#613EEA" stroke-width="0.133333"/>
<path d="M19 16.8562C18.675 17.025 18.5 17.325 18.5 17.7187C18.5 18.1125 18.675 18.4125 19 18.5812C19.2063 18.6812 19.5063 18.6875 23.2938 18.675C27.325 18.6562 27.3688 18.6562 27.5437 18.525C28.0875 18.1187 28.0875 17.3187 27.5437 16.9125C27.3688 16.7812 27.325 16.7812 23.2938 16.7625C19.5063 16.75 19.2063 16.7562 19 16.8562Z" fill="#38004D"/>
</g>
<defs>
<clipPath id="clip0_131_1024">
<rect width="32" height="32" fill="white"/>
</clipPath>
</defs>
</svg>
