<svg width="34" height="32" viewBox="0 0 34 32" fill="none" xmlns="http://www.w3.org/2000/svg">
<path d="M6.5386 11.3614C6.43809 11.3675 6.33478 11.351 6.23567 11.3094C5.89152 11.164 5.7301 10.7659 5.87488 10.4202C5.95758 10.2233 7.94967 5.59245 12.7011 5.45197C13.0743 5.44068 13.3859 5.7355 13.3972 6.11009C13.4084 6.48492 13.1158 6.79739 12.7419 6.80915C8.85329 6.93127 7.13766 10.9063 7.12079 10.9468C7.0177 11.1929 6.78717 11.3461 6.5386 11.3614Z" fill="#38004D"/>
<path d="M24.0913 13.9008H22.8271L20.8167 10.8749C20.7036 10.7046 20.5037 10.6128 20.3032 10.6361C20.101 10.6596 19.9288 10.7947 19.8574 10.9862L18.7696 13.9008H17.4572L16.11 10.9502C16.0133 10.7382 15.7924 10.6121 15.5614 10.6351C15.3301 10.6589 15.1399 10.8281 15.0879 11.0556L14.028 15.701L13.1473 13.0483C13.0735 12.8257 12.8662 12.6756 12.6326 12.6756H8.97082C8.67117 12.6756 8.42822 12.9196 8.42822 13.2206C8.42822 13.5215 8.67117 13.7655 8.97082 13.7655H12.2416L13.61 17.8886C13.6843 18.1119 13.8921 18.2613 14.1245 18.2613C14.1332 18.2613 14.1421 18.2611 14.1508 18.2606C14.3939 18.2488 14.5994 18.0761 14.6535 17.838L15.7891 12.8622L16.6159 14.673C16.7042 14.8667 16.897 14.9909 17.109 14.9909H19.1456C19.3719 14.9909 19.5744 14.85 19.6538 14.637L20.5019 12.3646L22.0856 14.7483C22.1863 14.8999 22.3555 14.9909 22.5371 14.9909H24.0915C24.3912 14.9909 24.6341 14.7469 24.6341 14.446C24.6339 14.1448 24.3909 13.9008 24.0913 13.9008Z" fill="#613EEA"/>
<path d="M29.5328 19.788C27.2678 19.2685 25.1159 18.4702 23.1337 17.4135L22.9978 17.3389L22.857 17.4142C20.8729 18.4709 18.7203 19.2697 16.4602 19.7878C16.2236 19.8408 16.069 20.0582 16.1008 20.293C16.9466 26.7085 21.8791 29.5485 22.8758 30.0608L22.9971 30.118L23.069 30.0855C23.0892 30.0763 23.1119 30.0646 23.1346 30.0528C24.1146 29.5481 29.0465 26.7055 29.8915 20.2942C29.9238 20.0584 29.7695 19.841 29.5328 19.788ZM28.6531 20.7426C27.7898 25.5194 24.4841 27.9556 22.9964 28.8281C21.5087 27.9544 18.2026 25.517 17.3397 20.7426C19.3212 20.241 21.2229 19.529 22.9964 18.6245C24.7659 19.5283 26.6678 20.2405 28.6531 20.7426Z" fill="#38004D"/>
<path d="M29.5608 18.8919C28.9266 18.7448 28.3027 18.5733 27.6896 18.3773C29.6133 16.4173 30.5577 13.6561 30.1742 10.9926C29.7909 8.31513 28.2367 6.0403 25.9089 4.74877C25.8182 4.69983 25.7278 4.65089 25.6371 4.60524C23.0549 3.28571 19.9848 3.31724 17.427 4.69277C17.169 4.82924 16.8624 4.82924 16.6047 4.69277C15.2908 3.98594 13.8481 3.63253 12.4122 3.63253C10.9557 3.63253 9.49892 3.99653 8.17477 4.71748C8.08762 4.76642 7.99695 4.81889 7.91003 4.87136C5.04549 6.56172 3.46339 9.71867 3.78061 13.1064C3.99661 15.3742 5.16755 17.5373 7.00056 19.0352L17.1412 27.3298L17.7997 26.7768C18.1621 27.2702 18.5419 27.7147 18.9217 28.1138L17.709 29.1357C17.5488 29.2721 17.3466 29.3423 17.1479 29.3423C16.9528 29.3423 16.7576 29.2757 16.5974 29.1463L5.90272 20.3933C3.71079 18.6013 2.303 16.0043 2.04857 13.2709C1.66529 9.20055 3.57139 5.40336 7.02492 3.36288C7.12941 3.29983 7.2339 3.2403 7.34214 3.181C10.3564 1.53606 13.9388 1.45206 17.0158 2.93959C19.9919 1.50476 23.4766 1.53606 26.428 3.04453C26.5395 3.10053 26.644 3.15653 26.752 3.21606C29.5608 4.77348 31.4391 7.51748 31.8989 10.7408C32.3139 13.6384 31.4355 16.6168 29.5608 18.8919Z" fill="#38004D"/>
<path d="M25.4135 23.1158H23.606V21.3003H22.3863V23.1158H20.5786V24.3408H22.3863V26.1563H23.606V24.3408H25.4135V23.1158Z" fill="#613EEA"/>
</svg>
