<svg width="32" height="32" viewBox="0 0 32 32" fill="none" xmlns="http://www.w3.org/2000/svg">
<path d="M15.3256 0.812541C15.0392 0.919963 14.8064 1.08706 14.3588 1.49884C13.4219 2.36418 12.467 3.00871 11.3152 3.56372C9.62633 4.36938 8.10453 4.72148 5.82481 4.8468C5.16835 4.88261 4.53576 4.93632 4.41043 4.96616C3.88526 5.10342 3.30638 5.67037 3.14525 6.20747C3.02589 6.61925 2.94831 12.0918 3.0438 13.8224C3.29445 18.4654 4.18962 21.6523 6.02772 24.4273C7.97324 27.3814 11.0347 29.6492 14.9437 31.0456C15.8568 31.3739 16.1731 31.3679 17.1757 31.0039C20.9533 29.6372 23.9909 27.3814 25.9006 24.5288C27.7924 21.7119 28.6936 18.5549 28.9562 13.8224C29.0517 12.0977 28.9801 6.62522 28.8547 6.20747C28.6936 5.6644 28.1147 5.10342 27.5895 4.96616C27.4642 4.93632 26.8257 4.88261 26.1632 4.84084C22.499 4.6439 19.9984 3.65324 17.5636 1.42723C16.9548 0.878188 16.6982 0.758831 16.0597 0.740927C15.7314 0.728992 15.4748 0.758831 15.3256 0.812541ZM16.4535 2.94306C17.0981 3.52194 17.4144 3.77856 18.0291 4.19631C20.2968 5.75392 22.8153 6.54167 25.9842 6.6849C26.5631 6.70877 27.0584 6.75055 27.0763 6.76845C27.0942 6.78635 27.1181 8.42154 27.1181 10.4029C27.13 14.1507 27.1061 14.7773 26.8555 16.508C26.02 22.3266 23.3404 26.0864 18.3036 28.5093C17.4263 28.933 16.179 29.4284 15.994 29.4284C15.809 29.4284 14.5677 28.9211 13.583 28.4496C10.8318 27.1188 8.76696 25.3225 7.33468 23.007C6.01578 20.8764 5.2698 18.3282 4.94754 14.837C4.86996 13.9955 4.84609 6.84007 4.92367 6.76845C4.94157 6.75055 5.4369 6.70877 6.01578 6.6849C9.88892 6.51183 12.8609 5.35407 15.4927 2.99677C15.7493 2.76403 15.9821 2.57306 16 2.57306C16.0239 2.57306 16.2268 2.74016 16.4535 2.94306Z" fill="#38004D"/>
<path d="M13.9591 9.25701C13.7383 9.32266 13.5533 9.45992 13.4279 9.65686C13.3265 9.80606 13.3145 9.96719 13.3145 11.4174V13.0168H11.7271C9.91287 13.0168 9.85319 13.0287 9.62044 13.5181C9.50109 13.7568 9.49512 13.8702 9.49512 15.7083C9.49512 17.8865 9.51899 18.0059 9.9248 18.2565C10.1277 18.3818 10.1993 18.3878 11.7271 18.3878H13.3145V19.9753C13.3145 22.3266 13.1653 22.2072 16.0001 22.2072C18.1843 22.2072 18.3037 22.1834 18.5543 21.7776C18.6796 21.5746 18.6856 21.503 18.6856 19.9753V18.3878H20.273C22.6244 18.3878 22.4991 18.537 22.505 15.7083C22.505 12.8735 22.6244 13.0168 20.273 13.0168H18.6856V11.4293C18.6856 9.65089 18.6737 9.59718 18.2559 9.34653C18.0709 9.23314 17.9396 9.22717 16.0896 9.21524C15.0094 9.20927 14.0486 9.22717 13.9591 9.25701ZM16.8475 12.6109C16.8654 14.0611 16.8773 14.1984 16.9848 14.3894C17.0564 14.5027 17.1996 14.646 17.313 14.7176C17.504 14.825 17.6412 14.8369 19.0914 14.8549L20.655 14.8728V15.7023V16.5318L19.0914 16.5497C17.3369 16.5676 17.2653 16.5855 16.9967 17.0152C16.8714 17.2122 16.8654 17.3017 16.8475 18.7877L16.8296 20.3572H16.0001H15.1705L15.1526 18.7877C15.1347 17.3017 15.1288 17.2122 15.0034 17.0152C14.7349 16.5855 14.6633 16.5676 12.9147 16.5497L11.3451 16.5318V15.7023V14.8728L12.9147 14.8549C14.3589 14.8369 14.4962 14.825 14.6871 14.7176C14.8005 14.646 14.9438 14.5027 15.0154 14.3894C15.1228 14.1984 15.1347 14.0611 15.1526 12.6109L15.1705 11.0474H16.0001H16.8296L16.8475 12.6109Z" fill="#613EEA"/>
</svg>
