<svg width="30" height="33" viewBox="0 0 30 33" fill="none" xmlns="http://www.w3.org/2000/svg">
<g clip-path="url(#clip0_143_539)">
<path fill-rule="evenodd" clip-rule="evenodd" d="M20.8484 22.2961C20.6273 22.0961 20.3272 21.8381 20.0114 21.5644C19.3244 20.9748 18.5611 20.3194 18.2058 19.8746L18.1716 19.8983C17.4451 20.3958 16.5476 20.7274 15.3211 20.7248C14.1761 20.7221 13.3155 20.4037 12.6074 19.9325C12.4337 19.8167 12.2732 19.693 12.1179 19.564C11.7678 20.022 10.9098 20.7511 10.1465 21.3986C9.68061 21.7934 9.25159 22.1566 9.02523 22.3777C8.23562 23.3647 7.53813 24.4175 6.95118 25.5941L9.38056 25.5335L14.9684 30.3923L20.5562 25.5335L22.9856 25.5941C22.3855 24.3833 21.6669 23.3068 20.8484 22.2961ZM10.7361 17.2057C11.4099 17.6427 12.1521 17.9927 12.9628 18.2507C13.0444 18.0664 13.1575 17.9032 13.3207 17.7769C13.8103 17.3979 15.2447 17.4347 15.6869 17.8006C16.058 18.1085 16.0633 18.8139 15.7896 19.1824C15.3158 19.8194 13.5945 19.4825 12.5653 19.2035C12.7206 19.3377 12.8838 19.464 13.0549 19.5798C13.6497 19.9773 14.3709 20.2457 15.3237 20.2457C16.3555 20.2484 17.1109 19.9694 17.7241 19.5509C17.8373 19.4719 17.9478 19.3903 18.0558 19.3008C18.09 19.2429 18.1426 19.1956 18.2084 19.1692C18.6295 18.7955 18.9954 18.3586 19.3586 17.9217L20.0061 17.1452C20.0851 17.0504 20.1114 17.0189 20.1403 16.9846C20.2193 16.8925 20.3088 16.7872 20.3956 16.6793C20.4193 16.6504 20.4509 16.6241 20.4878 16.6056C20.5931 16.2635 20.672 15.9055 20.7273 15.5291C20.9115 14.3 20.9168 13.3445 20.3641 12.2128C19.885 11.2363 19.2112 10.7283 18.4769 10.3651C19.2691 11.2494 19.9245 12.1075 19.7534 12.8129C18.7848 11.7495 17.7873 10.8204 16.7529 10.0545C14.592 8.9385 13.3207 7.42508 12.7548 5.59318C9.55164 8.79111 8.99365 12.5339 10.1807 16.6056C10.2228 16.6241 10.2597 16.6504 10.286 16.682L10.7361 17.2057ZM11.2809 18.7323C10.4808 18.3323 9.72799 17.7427 9.01734 17.1557L7.71711 17.1899C7.53813 16.9846 7.3881 16.7478 7.26177 16.4819C7.15912 16.4714 7.05647 16.4503 6.95645 16.4188C5.70623 16.0266 4.66921 13.2471 4.8745 11.9364C4.99031 11.1942 5.25352 10.9257 5.67991 10.7625C5.65885 10.702 5.64832 10.6388 5.64832 10.5704V7.77251C5.64832 6.71969 5.96417 5.6853 6.47742 4.74829C7.03804 3.71916 7.83818 2.80058 8.71202 2.10572C10.4965 0.681788 12.8075 -0.0235994 15.1052 8.90075e-05C17.3846 0.0237774 19.6587 0.768645 21.3985 2.24522C22.2381 2.9585 22.9461 3.89288 23.4409 4.92464C23.9226 5.93008 24.2016 7.03027 24.2016 8.11204V10.423C24.2016 10.752 23.9357 11.0178 23.6067 11.0178C23.4172 11.0178 23.2488 10.931 23.1409 10.7915C23.433 12.9866 23.1593 15.2449 22.2828 17.1189H20.801C20.7668 17.1584 20.7352 17.1978 20.7036 17.2347L20.572 17.39L19.9245 18.1664C19.5481 18.6191 19.1665 19.0745 18.7164 19.4719C18.9533 19.7825 19.7429 20.4589 20.443 21.0617C20.6694 21.2564 20.8905 21.446 21.0826 21.6144C23.0014 22.3619 24.8754 23.1278 26.3309 24.0385C27.4548 24.7413 28.0338 25.2729 28.4892 26.1257C29.2077 27.4733 29.7736 28.9683 29.9421 30.7423C30.0921 32.3294 30.0789 32.2584 28.555 32.29C20.522 32.4505 9.33581 32.1557 1.47654 32.29C0.0473417 32.3137 -0.100053 32.4163 0.0499738 30.3817C0.536901 28.0734 0.260537 28.3788 1.46338 26.1257C1.91872 25.2729 2.49777 24.7439 3.62165 24.0385C5.08507 23.1199 6.96961 22.3514 8.90153 21.6012C9.13841 21.3907 9.4253 21.1459 9.72799 20.888C10.5702 20.172 11.5362 19.3535 11.6441 19.1113C11.5178 18.9903 11.3967 18.8639 11.2809 18.7323ZM23.0093 10.015V8.11467C23.0093 7.20925 22.775 6.28277 22.3697 5.43789C21.9486 4.55615 21.3432 3.76128 20.6299 3.15327C19.1059 1.85831 17.1056 1.20556 15.0921 1.18451C13.0549 1.16345 11.0124 1.78461 9.44636 3.03483C8.68833 3.6402 7.9961 4.42981 7.51444 5.31681C7.09331 6.088 6.83537 6.92762 6.83537 7.77514V10.1677C7.48022 7.06449 8.79624 4.80356 10.8413 3.45333C12.3469 2.45842 13.2444 2.40314 15 2.40314C16.5344 2.40314 17.4741 2.36893 18.7822 3.2296C21.0405 4.71407 22.4723 7.27242 23.0093 10.015ZM13.0891 27.5075L14.1972 23.6648L13.655 23.0699C13.4102 22.712 13.3576 22.4014 13.4918 22.1329C13.7866 21.5512 14.3946 21.6592 14.9631 21.6592C15.558 21.6592 16.2923 21.546 16.4792 22.2908C16.5423 22.5409 16.4634 22.8015 16.2897 23.0699L15.7475 23.6648L16.8556 27.5075L14.9736 28.9946L13.0891 27.5075Z" fill="#613EEA"/>
</g>
<defs>
<clipPath id="clip0_143_539">
<rect width="30" height="32.3425" fill="white"/>
</clipPath>
</defs>
</svg>
