<svg width="249" height="81" viewBox="0 0 249 81" fill="none" xmlns="http://www.w3.org/2000/svg">
<g clip-path="url(#clip0_154_773)">
<path d="M0 40.5V72.2988H1.42383H2.84766V40.5V8.70117H1.42383H0V40.5Z" fill="#171D33"/>
<path d="M4.27148 40.5V72.2988H4.9834H5.69531V40.5V8.70117H4.9834H4.27148V40.5Z" fill="#171D33"/>
<path d="M8.54297 40.5V72.2988H9.25488H9.9668V40.5V8.70117H9.25488H8.54297V40.5Z" fill="#171D33"/>
<path d="M15.6621 40.5V72.2988H16.374H17.0859V40.5V8.70117H16.374H15.6621V40.5Z" fill="#171D33"/>
<path d="M21.3574 40.5V72.3146L22.7496 72.2672L24.126 72.2197L24.1734 40.4525L24.2051 8.70116H22.7813H21.3574V40.5Z" fill="#171D33"/>
<path d="M28.4766 40.5158V72.3146L29.1568 72.2672L29.8213 72.2197L29.8688 40.4525L29.9004 8.70116H29.1885H28.4766V40.5158Z" fill="#171D33"/>
<path d="M31.3242 40.5158V72.3146L32.0045 72.2672L32.6689 72.2197L32.7164 40.4525L32.748 8.70116H32.0361H31.3242V40.5158Z" fill="#171D33"/>
<path d="M34.1719 40.5158V72.3146L34.8521 72.2672L35.5166 72.2197L35.5641 40.4525L35.5957 8.70116H34.8838H34.1719V40.5158Z" fill="#171D33"/>
<path d="M39.7406 40.4525L39.7881 72.2197L41.1803 72.2672L42.5566 72.3146V40.5V8.70116H41.1328H39.709L39.7406 40.4525Z" fill="#171D33"/>
<path d="M46.8281 40.5V72.2988H48.252H49.6758V40.5V8.70117H48.252H46.8281V40.5Z" fill="#171D33"/>
<path d="M52.5234 40.5V72.2988H53.9473H55.3711V40.5V8.70117H53.9473H52.5234V40.5Z" fill="#171D33"/>
<path d="M58.2188 40.5V72.2988H59.6426H61.0664V40.5V8.70117H59.6426H58.2188V40.5Z" fill="#171D33"/>
<path d="M62.4902 40.5V72.2988H63.9141H65.3379V40.5V8.70117H63.9141H62.4902V40.5Z" fill="#171D33"/>
<path d="M69.6094 40.5V72.2988H71.7451H73.8809V40.5V8.70117H71.7451H69.6094V40.5Z" fill="#171D33"/>
<path d="M75.3047 40.5V72.2988H76.0166H76.7285V40.5V8.70117H76.0166H75.3047V40.5Z" fill="#171D33"/>
<path d="M78.1523 40.5V72.2988H79.5762H81V40.5V8.70117H79.5762H78.1523V40.5Z" fill="#171D33"/>
</g>
<g clip-path="url(#clip1_154_773)">
<path d="M165 40.5V72.2988H163.576H162.152V40.5V8.70117H163.576H165V40.5Z" fill="#171D33"/>
<path d="M160.729 40.5V72.2988H160.017H159.305V40.5V8.70117H160.017H160.729V40.5Z" fill="#171D33"/>
<path d="M156.457 40.5V72.2988H155.745H155.033V40.5V8.70117H155.745H156.457V40.5Z" fill="#171D33"/>
<path d="M149.338 40.5V72.2988H148.626H147.914V40.5V8.70117H148.626H149.338V40.5Z" fill="#171D33"/>
<path d="M143.643 40.5V72.3146L142.25 72.2672L140.874 72.2197L140.827 40.4525L140.795 8.70116H142.219H143.643V40.5Z" fill="#171D33"/>
<path d="M136.523 40.5158V72.3146L135.843 72.2672L135.179 72.2197L135.131 40.4525L135.1 8.70116H135.812H136.523V40.5158Z" fill="#171D33"/>
<path d="M133.676 40.5158V72.3146L132.996 72.2672L132.331 72.2197L132.284 40.4525L132.252 8.70116H132.964H133.676V40.5158Z" fill="#171D33"/>
<path d="M130.828 40.5158V72.3146L130.148 72.2672L129.483 72.2197L129.436 40.4525L129.404 8.70116H130.116H130.828V40.5158Z" fill="#171D33"/>
<path d="M125.259 40.4525L125.212 72.2197L123.82 72.2672L122.443 72.3146V40.5V8.70116H123.867H125.291L125.259 40.4525Z" fill="#171D33"/>
<path d="M118.172 40.5V72.2988H116.748H115.324V40.5V8.70117H116.748H118.172V40.5Z" fill="#171D33"/>
<path d="M112.477 40.5V72.2988H111.053H109.629V40.5V8.70117H111.053H112.477V40.5Z" fill="#171D33"/>
<path d="M106.781 40.5V72.2988H105.357H103.934V40.5V8.70117H105.357H106.781V40.5Z" fill="#171D33"/>
<path d="M102.51 40.5V72.2988H101.086H99.6621V40.5V8.70117H101.086H102.51V40.5Z" fill="#171D33"/>
<path d="M95.3906 40.5V72.2988H93.2549H91.1191V40.5V8.70117H93.2549H95.3906V40.5Z" fill="#171D33"/>
<path d="M89.6953 40.5V72.2988H88.9834H88.2715V40.5V8.70117H88.9834H89.6953V40.5Z" fill="#171D33"/>
<path d="M86.8477 40.5V72.2988H85.4238H84V40.5V8.70117H85.4238H86.8477V40.5Z" fill="#171D33"/>
</g>
<g clip-path="url(#clip2_154_773)">
<path d="M249 40.5V72.2988H247.576H246.152V40.5V8.70117H247.576H249V40.5Z" fill="#171D33"/>
<path d="M244.729 40.5V72.2988H244.017H243.305V40.5V8.70117H244.017H244.729V40.5Z" fill="#171D33"/>
<path d="M240.457 40.5V72.2988H239.745H239.033V40.5V8.70117H239.745H240.457V40.5Z" fill="#171D33"/>
<path d="M233.338 40.5V72.2988H232.626H231.914V40.5V8.70117H232.626H233.338V40.5Z" fill="#171D33"/>
<path d="M227.643 40.5V72.3146L226.25 72.2672L224.874 72.2197L224.827 40.4525L224.795 8.70116H226.219H227.643V40.5Z" fill="#171D33"/>
<path d="M220.523 40.5158V72.3146L219.843 72.2672L219.179 72.2197L219.131 40.4525L219.1 8.70116H219.812H220.523V40.5158Z" fill="#171D33"/>
<path d="M217.676 40.5158V72.3146L216.996 72.2672L216.331 72.2197L216.284 40.4525L216.252 8.70116H216.964H217.676V40.5158Z" fill="#171D33"/>
<path d="M214.828 40.5158V72.3146L214.148 72.2672L213.483 72.2197L213.436 40.4525L213.404 8.70116H214.116H214.828V40.5158Z" fill="#171D33"/>
<path d="M209.259 40.4525L209.212 72.2197L207.82 72.2672L206.443 72.3146V40.5V8.70116H207.867H209.291L209.259 40.4525Z" fill="#171D33"/>
<path d="M202.172 40.5V72.2988H200.748H199.324V40.5V8.70117H200.748H202.172V40.5Z" fill="#171D33"/>
<path d="M196.477 40.5V72.2988H195.053H193.629V40.5V8.70117H195.053H196.477V40.5Z" fill="#171D33"/>
<path d="M190.781 40.5V72.2988H189.357H187.934V40.5V8.70117H189.357H190.781V40.5Z" fill="#171D33"/>
<path d="M186.51 40.5V72.2988H185.086H183.662V40.5V8.70117H185.086H186.51V40.5Z" fill="#171D33"/>
<path d="M179.391 40.5V72.2988H177.255H175.119V40.5V8.70117H177.255H179.391V40.5Z" fill="#171D33"/>
<path d="M173.695 40.5V72.2988H172.983H172.271V40.5V8.70117H172.983H173.695V40.5Z" fill="#171D33"/>
<path d="M170.848 40.5V72.2988H169.424H168V40.5V8.70117H169.424H170.848V40.5Z" fill="#171D33"/>
</g>
<defs>
<clipPath id="clip0_154_773">
<rect width="81" height="81" fill="white"/>
</clipPath>
<clipPath id="clip1_154_773">
<rect width="81" height="81" fill="white" transform="matrix(-1 0 0 1 165 0)"/>
</clipPath>
<clipPath id="clip2_154_773">
<rect width="81" height="81" fill="white" transform="matrix(-1 0 0 1 249 0)"/>
</clipPath>
</defs>
</svg>
