<?xml version="1.0" encoding="UTF-8"?>
<svg version="1.1" xmlns="http://www.w3.org/2000/svg" width="48" height="48">
<path d="M0 0 C2.59556651 1.2088644 4.89782014 2.7504012 7.25 4.375 C7.87390625 4.7875 8.4978125 5.2 9.140625 5.625 C11.61744991 7.27977526 13.88943251 8.88943251 16 11 C16.25878906 13.765625 16.25878906 13.765625 16.265625 17.25 C16.26949219 19.12171875 16.26949219 19.12171875 16.2734375 21.03125 C16.26570313 22.3409375 16.25796875 23.650625 16.25 25 C16.26160156 26.96453125 16.26160156 26.96453125 16.2734375 28.96875 C16.27085938 30.2165625 16.26828125 31.464375 16.265625 32.75 C16.26336914 33.89984375 16.26111328 35.0496875 16.25878906 36.234375 C16 39 16 39 14 41 C11.44249547 41.1995697 8.99561859 41.27986826 6.4375 41.265625 C5.31686157 41.26849518 5.31686157 41.26849518 4.17358398 41.27142334 C2.59325829 41.27278498 1.01292142 41.26909 -0.56738281 41.26074219 C-2.99048922 41.250042 -5.41285423 41.26063779 -7.8359375 41.2734375 C-9.36979331 41.2721159 -10.90364865 41.2695535 -12.4375 41.265625 C-13.16461182 41.26967346 -13.89172363 41.27372192 -14.64086914 41.27789307 C-19.77007639 41.22992361 -19.77007639 41.22992361 -22 39 C-22.59747629 34.43940168 -22.55621268 29.84499297 -22.625 25.25 C-22.68300781 23.97382813 -22.74101562 22.69765625 -22.80078125 21.3828125 C-22.92576855 12.1722097 -22.92576855 12.1722097 -20.31982422 8.87255859 C-18.28165856 7.33647418 -16.27554953 6.14740993 -14 5 C-13.23429688 4.44570312 -12.46859375 3.89140625 -11.6796875 3.3203125 C-11.08414062 2.92585937 -10.48859375 2.53140625 -9.875 2.125 C-9.27429687 1.71507812 -8.67359375 1.30515625 -8.0546875 0.8828125 C-5.10407446 -0.38494139 -3.19823221 -0.40464252 0 0 Z M-12.1875 7.375 C-12.82880859 7.7875 -13.47011719 8.2 -14.13085938 8.625 C-17.62366115 10.77523345 -17.62366115 10.77523345 -20 14 C-20.26672816 17.64003111 -20.23153718 21.28878599 -20.25 24.9375 C-20.270625 25.95263672 -20.29125 26.96777344 -20.3125 28.01367188 C-20.31765625 28.98755859 -20.3228125 29.96144531 -20.328125 30.96484375 C-20.3374707 31.8580835 -20.34681641 32.75132324 -20.35644531 33.67163086 C-20.15571938 36.0160672 -20.15571938 36.0160672 -18.87402344 37.78979492 C-16.13098124 39.56119411 -13.93278742 39.38878984 -10.6875 39.3984375 C-9.44742187 39.40230469 -8.20734375 39.40617187 -6.9296875 39.41015625 C-5.63289063 39.39855469 -4.33609375 39.38695312 -3 39.375 C-1.05480469 39.39240234 -1.05480469 39.39240234 0.9296875 39.41015625 C2.16976563 39.40628906 3.40984375 39.40242188 4.6875 39.3984375 C5.82574219 39.39505371 6.96398437 39.39166992 8.13671875 39.38818359 C10.96421307 39.21269269 10.96421307 39.21269269 12.86743164 37.78540039 C15.23452544 34.0538727 14.467658 29.3421941 14.4375 25.0625 C14.45748047 24.06025391 14.47746094 23.05800781 14.49804688 22.02539062 C14.58847392 16.45139572 14.58847392 16.45139572 12.31640625 11.54296875 C11.55199219 11.03378906 10.78757812 10.52460938 10 10 C9.1234375 9.36578125 8.246875 8.7315625 7.34375 8.078125 C5.93609375 7.17320313 5.93609375 7.17320313 4.5 6.25 C3.09234375 5.32960938 3.09234375 5.32960938 1.65625 4.390625 C-4.01194988 1.42315565 -7.44130483 4.20763127 -12.1875 7.375 Z " fill="#219F26" transform="translate(27,3)"/>
<path d="M0 0 C0.66 0 1.32 0 2 0 C2 2.64 2 5.28 2 8 C4.64 8 7.28 8 10 8 C10 8.66 10 9.32 10 10 C7.36 10 4.72 10 2 10 C2 12.64 2 15.28 2 18 C1.34 18 0.68 18 0 18 C0 15.36 0 12.72 0 10 C-2.64 10 -5.28 10 -8 10 C-8 9.34 -8 8.68 -8 8 C-5.36 8 -2.72 8 0 8 C0 5.36 0 2.72 0 0 Z " fill="#229E26" transform="translate(23,17)"/>
</svg>
