<svg width="18" height="19" viewBox="0 0 18 19" fill="none" xmlns="http://www.w3.org/2000/svg">
<g clip-path="url(#clip0_1202_2469)">
<path d="M4.18742 0.685867C3.5811 0.848708 3.08564 1.37188 2.97131 1.9782C2.95052 2.08561 2.93666 2.78895 2.93666 3.66205V5.16227L2.74264 5.30779C2.41002 5.55725 2.11206 6.03191 1.99772 6.48579C1.95961 6.6417 1.94922 7.21338 1.94922 9.51048V12.3481L2.04623 12.4312C2.16403 12.5317 2.24025 12.5352 2.36152 12.4416L2.4516 12.3723V9.69757C2.4516 8.20082 2.46893 6.90848 2.48625 6.76297C2.57633 6.06309 3.13761 5.48795 3.83748 5.37708C4.14584 5.32858 13.854 5.32858 14.1623 5.37708C14.8622 5.48795 15.4235 6.06309 15.5136 6.76297C15.5309 6.90502 15.5482 7.39354 15.5482 7.84395V8.66509L15.6383 8.73438C15.815 8.87297 16.009 8.78289 16.054 8.54383C16.0644 8.478 16.0679 8.01373 16.061 7.51481C16.0437 6.64863 16.0402 6.5932 15.9501 6.31948C15.8288 5.94529 15.5621 5.55378 15.278 5.32511L15.0631 5.15534V3.65859C15.0631 2.78895 15.0493 2.08561 15.0285 1.9782C14.9107 1.36495 14.4152 0.845244 13.7985 0.682402C13.5006 0.606179 4.47846 0.606179 4.18742 0.685867ZM13.8886 1.26447C14.1173 1.37534 14.3459 1.60748 14.4499 1.83615C14.5226 1.99206 14.5261 2.0475 14.5365 3.46803C14.5469 4.83659 14.5434 4.9336 14.488 4.91281C14.287 4.83659 13.5941 4.82273 8.9999 4.82273C4.4057 4.82273 3.71276 4.83659 3.5118 4.91281C3.45637 4.9336 3.4529 4.83659 3.4633 3.46803C3.47369 2.05789 3.47716 1.99206 3.54645 1.83961C3.68504 1.54511 3.96568 1.29566 4.27057 1.19864C4.38144 1.164 5.38967 1.15707 9.05187 1.16053L13.6946 1.16746L13.8886 1.26447Z" fill="white"/>
<path d="M4.23185 1.84645C4.16948 1.91574 4.16602 1.98503 4.16602 3.00366C4.16602 4.02228 4.16948 4.09158 4.23185 4.16087C4.31846 4.25442 4.50556 4.25788 4.5991 4.16434C4.66147 4.10197 4.6684 4.05 4.6684 3.66195V3.22886H5.10149H5.53458V3.66195C5.53458 4.05 5.5415 4.10197 5.60387 4.16434C5.69742 4.25788 5.88451 4.25442 5.97113 4.16087C6.03349 4.09158 6.03696 4.01189 6.04735 3.02445C6.05775 1.98503 6.05428 1.95732 5.98499 1.86723C5.89144 1.74943 5.70781 1.73904 5.60387 1.84298C5.5415 1.90535 5.53458 1.95732 5.53458 2.31072V2.70916H5.10149H4.6684V2.31765C4.6684 1.84991 4.63375 1.77369 4.42933 1.77369C4.33925 1.77369 4.27689 1.79794 4.23185 1.84645Z" fill="white"/>
<path d="M7.12088 1.85684C6.71551 2.02315 6.45912 2.33844 6.36557 2.79231C6.31707 3.02791 6.35864 3.32588 6.47644 3.55455C6.58385 3.76243 6.84024 4.01536 7.05505 4.1193C7.22828 4.20591 7.28718 4.21631 7.59554 4.21631C7.92469 4.21631 7.95241 4.20938 8.16029 4.09851C8.42014 3.95646 8.59338 3.77283 8.71811 3.50951C8.79433 3.34667 8.80819 3.26698 8.80819 3.00366C8.80819 2.71955 8.7978 2.66758 8.69386 2.4597C8.55527 2.17906 8.30927 1.94346 8.04249 1.84645C7.77224 1.74251 7.3842 1.74944 7.12088 1.85684ZM7.94201 2.37308C8.27116 2.56018 8.40282 3.00366 8.22958 3.33281C8.10485 3.56494 7.9039 3.68967 7.63365 3.707C7.3738 3.72432 7.19364 3.6481 7.0308 3.45061C6.7363 3.09374 6.85756 2.57057 7.28372 2.34883C7.4431 2.26568 7.77224 2.27607 7.94201 2.37308Z" fill="white"/>
<path d="M8.96485 1.84298C8.88863 1.91921 8.87477 2.05086 8.9302 2.15481C8.96831 2.22756 9.13809 2.29339 9.29746 2.29339H9.4118L9.42219 3.19075C9.43259 4.01535 9.43951 4.09504 9.49842 4.16087C9.58503 4.25442 9.77213 4.25788 9.86567 4.16434C9.9315 4.09851 9.93497 4.05 9.93497 3.19422V2.29339H10.0701C10.2433 2.29339 10.4131 2.23103 10.4547 2.15481C10.5101 2.05086 10.4963 1.91921 10.42 1.84298C10.3542 1.77715 10.3057 1.77369 9.69244 1.77369C9.07919 1.77369 9.03068 1.77715 8.96485 1.84298Z" fill="white"/>
<path d="M10.971 1.83953L10.8878 1.90536L10.8774 2.97595C10.867 4.0223 10.8705 4.05001 10.9398 4.1401L11.0126 4.23364H11.5461H12.0797L12.149 4.14356C12.2668 3.99458 12.2391 3.8456 12.0797 3.76591C12.0173 3.73126 11.8787 3.71394 11.6847 3.71394H11.3902V3.48873V3.26352H11.6951C11.9723 3.26352 12.0104 3.25659 12.0762 3.18384C12.1767 3.07643 12.1732 2.93438 12.0658 2.83044C11.9896 2.75075 11.955 2.74382 11.6847 2.74382H11.3902V2.51861V2.29341H11.7194C12.0243 2.29341 12.0589 2.28648 12.1351 2.20679C12.1836 2.16175 12.2217 2.08206 12.2217 2.03355C12.2217 1.98505 12.1836 1.90536 12.1351 1.86032C12.0554 1.77716 12.0346 1.7737 11.5531 1.7737C11.1096 1.7737 11.0403 1.78063 10.971 1.83953Z" fill="white"/>
<path d="M12.7053 1.84302C12.6394 1.90885 12.636 1.95735 12.636 3.0037C12.636 4.348 12.5805 4.23367 13.2215 4.23367C13.7135 4.23367 13.7897 4.20595 13.8348 4.01886C13.8521 3.94263 13.8348 3.90452 13.7516 3.8179C13.6546 3.72089 13.6269 3.71396 13.4017 3.71396H13.1557V2.83393C13.1557 1.99893 13.1522 1.95043 13.0829 1.86381C12.9928 1.74947 12.8092 1.73908 12.7053 1.84302Z" fill="white"/>
<path d="M4.17844 6.85644C3.98788 6.88762 3.71763 7.08511 3.60329 7.27913C3.46124 7.5182 3.44738 7.64639 3.46124 8.63383C3.47164 9.54159 3.49242 9.6386 3.73495 9.87766C3.95323 10.0959 4.05717 10.1237 4.73625 10.1237C5.43612 10.1237 5.52621 10.0959 5.76181 9.83955C5.99048 9.59009 6.00087 9.53466 6.00087 8.47792C6.00087 7.60135 5.99741 7.53206 5.92811 7.38654C5.83457 7.18558 5.66133 7.01235 5.46384 6.92227C5.33218 6.86337 5.22824 6.84951 4.78822 6.84604C4.50412 6.84258 4.22694 6.84604 4.17844 6.85644ZM5.33911 7.45237C5.4777 7.58056 5.49849 7.72608 5.49849 8.49524C5.49849 9.60395 5.49849 9.60395 4.73279 9.60395H4.21655L4.10568 9.50347L3.99134 9.403V8.49871V7.59789L4.09182 7.49394C4.22001 7.36229 4.24427 7.35536 4.79515 7.36229C5.22478 7.36921 5.25596 7.37268 5.33911 7.45237Z" fill="white"/>
<path d="M8.35109 6.89455C8.0947 6.98463 7.94572 7.11629 7.83139 7.3415L7.73438 7.54245V8.47792C7.73438 9.53466 7.74477 9.59009 7.97344 9.83955C8.20904 10.0959 8.29912 10.1237 8.99899 10.1237C9.67808 10.1237 9.78202 10.0959 10.0003 9.87766C10.2428 9.63167 10.2636 9.54505 10.274 8.60958C10.2809 8.06909 10.2705 7.70183 10.2463 7.5771C10.1874 7.29299 10.028 7.08164 9.78202 6.95345C9.58453 6.85297 9.55681 6.84951 9.05443 6.83911C8.61788 6.83218 8.50008 6.84258 8.35109 6.89455ZM9.62957 7.48355L9.74391 7.59442L9.7543 8.4017C9.77162 9.61088 9.77509 9.60395 8.99899 9.60395C8.2229 9.60395 8.22636 9.61088 8.24369 8.4017L8.25408 7.59788L8.35456 7.49394C8.48275 7.36228 8.507 7.35536 9.05789 7.36228L9.5187 7.36921L9.62957 7.48355Z" fill="white"/>
<path d="M12.6648 6.88069C12.353 6.96384 12.0827 7.23063 12.0238 7.52166C12.0065 7.59096 11.9961 8.04483 11.9961 8.52989C11.9961 9.53119 12.0065 9.59356 12.2352 9.83955C12.4708 10.0959 12.5608 10.1237 13.2607 10.1237C13.7735 10.1237 13.8878 10.1133 14.0056 10.0578C14.1893 9.97467 14.3625 9.79797 14.4526 9.60395C14.5219 9.45843 14.5253 9.38914 14.5253 8.47792V7.5078L14.4214 7.32071C14.3001 7.10243 14.1165 6.95691 13.874 6.88416C13.6557 6.81833 12.9004 6.81833 12.6648 6.88069ZM13.8913 7.48355L14.0056 7.59442V8.49871V9.403L13.8913 9.50347L13.7804 9.60395H13.2642C12.4985 9.60395 12.4985 9.60395 12.4985 8.49524C12.4985 7.73994 12.5227 7.58056 12.644 7.46623C12.7549 7.36228 12.8068 7.35536 13.3196 7.36228L13.7804 7.36921L13.8913 7.48355Z" fill="white"/>
<path d="M15.6337 9.38222C15.5645 9.43419 15.5645 9.48616 15.5471 12.4901L15.5298 15.5459L13.2708 15.5563L11.0118 15.5633L11.0014 13.9106L10.991 12.2545L10.901 12.0604C10.7762 11.7971 10.5891 11.5996 10.357 11.4853L10.1595 11.3883L9.07505 11.3779C7.82429 11.364 7.73421 11.3779 7.43278 11.6239C7.30459 11.7278 7.2145 11.8422 7.12789 12.0085L7.00662 12.2475L6.99623 13.9071L6.98583 15.5633L4.72684 15.5563L2.46785 15.5459L2.45053 14.3402C2.43321 13.1969 2.42974 13.131 2.36738 13.0825C2.28769 13.0271 2.16296 13.0202 2.06941 13.0687C1.94468 13.1345 1.93082 13.2869 1.93082 14.4684V15.6152L1.77491 15.6811C1.55663 15.7711 1.30371 16.0102 1.17552 16.2493C1.03693 16.5091 0.981493 16.8556 1.00228 17.351C1.01961 17.6906 1.03346 17.7564 1.12008 17.9193C1.17552 18.0197 1.2656 18.1375 1.3245 18.1826C1.58782 18.3835 1.0889 18.3697 8.99883 18.3697C16.9053 18.3697 16.4029 18.3835 16.6697 18.1791C16.7321 18.1306 16.8256 18.0128 16.881 17.9158C16.9642 17.7564 16.9781 17.6906 16.9954 17.351C17.0162 16.8556 16.9607 16.5091 16.8221 16.2493C16.6939 16.0102 16.441 15.7711 16.2227 15.6811L16.0668 15.6152V12.6148C16.0668 10.5152 16.0564 9.57971 16.0287 9.50348C15.9664 9.33025 15.7793 9.27135 15.6337 9.38222ZM10.1283 11.9565C10.2981 12.0327 10.402 12.1678 10.454 12.3792C10.4783 12.4797 10.4887 13.034 10.4817 14.0388L10.4713 15.5459H8.99883H7.52633V13.9314V12.3203L7.61987 12.1782C7.67185 12.0985 7.77232 12.0085 7.8624 11.9634C8.00446 11.8941 8.05989 11.8907 8.99883 11.8907C9.88579 11.8907 10.0001 11.8976 10.1283 11.9565ZM16.0357 16.1627C16.3752 16.3428 16.4999 16.6581 16.4757 17.2887C16.4618 17.6455 16.4618 17.6525 16.3509 17.7495L16.2401 17.85H8.99883H1.75759L1.64672 17.7495C1.53585 17.6525 1.53585 17.6455 1.52199 17.2887C1.49773 16.6581 1.62246 16.3428 1.96201 16.1627L2.11445 16.083H8.99883H15.8832L16.0357 16.1627Z" fill="white"/>
<path d="M4.07435 11.4194C3.77638 11.5268 3.55117 11.7797 3.48881 12.0846C3.46456 12.2059 3.45416 12.5801 3.46109 13.131C3.47495 14.0734 3.48188 14.1184 3.70016 14.3679C3.76599 14.4406 3.89418 14.5376 3.99119 14.5792C4.15057 14.6554 4.21293 14.6624 4.70146 14.6624C4.99596 14.6624 5.29739 14.645 5.36668 14.6277C5.56417 14.5723 5.78245 14.3852 5.89678 14.1773L6.00072 13.9867V13.0339C6.00072 12.1019 5.99726 12.0777 5.91757 11.8975C5.82056 11.6827 5.62307 11.4991 5.40133 11.4263C5.19691 11.357 4.26144 11.3501 4.07435 11.4194ZM5.31471 11.9599C5.38747 12.0049 5.43598 12.0673 5.46023 12.1574C5.50873 12.3306 5.50873 13.7026 5.46023 13.8759C5.39786 14.1011 5.28699 14.1426 4.7361 14.1426C3.97387 14.1426 3.97387 14.1426 3.97387 13.0305C3.97387 12.1678 3.99119 12.0604 4.16096 11.9564C4.25105 11.901 4.33766 11.8906 4.7361 11.8906C5.13801 11.8906 5.2177 11.901 5.31471 11.9599Z" fill="white"/>
<path d="M12.5816 11.4263C12.3737 11.5025 12.1728 11.6896 12.0792 11.8975C11.9996 12.0777 11.9961 12.1019 11.9961 13.0339C11.9961 13.8551 12.0065 14.004 12.055 14.1115C12.1416 14.2985 12.2767 14.4441 12.4604 14.5515C12.6197 14.645 12.6267 14.645 13.2607 14.645C13.8532 14.645 13.9121 14.6381 14.0437 14.5688C14.21 14.4787 14.3902 14.2847 14.4699 14.1115C14.5392 13.9521 14.5704 12.386 14.508 12.0811C14.4595 11.8455 14.3036 11.6342 14.0749 11.4921L13.9086 11.3882L13.3161 11.3813C12.8623 11.3743 12.689 11.3847 12.5816 11.4263ZM13.8185 11.946C14.0022 12.0396 14.0229 12.147 14.0229 13.0235C14.0229 14.1426 14.0229 14.1426 13.2607 14.1426C12.8588 14.1426 12.7791 14.1322 12.6821 14.0733C12.5227 13.9763 12.4985 13.8447 12.4985 13.0166C12.4985 12.1885 12.5227 12.0569 12.6821 11.9599C12.7757 11.901 12.8588 11.8906 13.2538 11.8906C13.6037 11.8906 13.7388 11.9044 13.8185 11.946Z" fill="white"/>
</g>
<defs>
<clipPath id="clip0_1202_2469">
<rect width="18" height="18" fill="white" transform="translate(0 0.5)"/>
</clipPath>
</defs>
</svg>
