<svg width="24" height="24" viewBox="0 0 24 24" fill="none" xmlns="http://www.w3.org/2000/svg">
<path d="M10.9796 1.02153C8.40509 1.27123 6.04579 2.382 4.21605 4.20744C2.50685 5.91664 1.46067 8.0047 1.0775 10.4932C0.974168 11.1863 0.974168 12.8137 1.0775 13.5069C1.46067 15.991 2.49824 18.0661 4.20744 19.784C5.91663 21.4932 8.0047 22.5393 10.4931 22.9225C11.1863 23.0258 12.8137 23.0258 13.5068 22.9225C15.991 22.5393 18.0661 21.5018 19.784 19.7926C21.4931 18.0834 22.5393 15.9953 22.9225 13.5069C23.0258 12.8137 23.0258 11.1863 22.9225 10.4932C22.5393 8.009 21.5018 5.93386 19.7926 4.21605C18.0963 2.51546 15.9824 1.45636 13.5499 1.08611C13.0117 1.00431 11.535 0.969864 10.9796 1.02153ZM13.3992 2.80822C15.3883 3.1182 17.1405 4.00939 18.5656 5.43444C20.0035 6.87241 20.8818 8.61174 21.2004 10.6438C21.2521 10.9796 21.2736 11.3757 21.2736 12C21.2736 12.6243 21.2521 13.0204 21.2004 13.3562C20.8818 15.3883 20.0035 17.1276 18.5656 18.5656C17.1276 20.0035 15.3883 20.8818 13.3562 21.2004C12.7061 21.3037 11.2939 21.3037 10.6438 21.2004C8.61174 20.8818 6.87241 20.0035 5.43444 18.5656C3.99648 17.1276 3.1182 15.3883 2.79961 13.3562C2.69628 12.7061 2.69628 11.2939 2.79961 10.6438C3.1182 8.61174 3.99648 6.87241 5.43444 5.43444C7.01879 3.8501 8.9002 2.97182 11.2466 2.72642C11.5953 2.69198 12.9816 2.74364 13.3992 2.80822Z" fill="#613EEA"/>
<path d="M11.3327 6.5752C9.77852 6.90671 8.66345 8.19399 8.56873 9.75681C8.55151 10.084 8.56012 10.1486 8.65053 10.3165C8.79261 10.592 9.02079 10.7599 9.28341 10.7858C9.5977 10.8159 9.76991 10.7685 9.96795 10.6006C10.1703 10.4241 10.2521 10.2261 10.3124 9.7482C10.3899 9.14546 10.73 8.66757 11.2681 8.40925C11.5265 8.2844 11.5824 8.27579 12 8.27579C12.4177 8.27579 12.4736 8.2844 12.7319 8.40925C13.4208 8.74076 13.8083 9.48127 13.6877 10.2261C13.5586 10.9967 12.9601 11.5607 12.1636 11.6597C11.6944 11.7157 11.6427 11.7329 11.4662 11.8793C11.1519 12.1376 11.139 12.2065 11.139 13.6143C11.139 14.8284 11.1433 14.8715 11.238 15.0566C11.2897 15.1599 11.4059 15.3063 11.4963 15.3752C11.6513 15.5001 11.6901 15.5087 12 15.5087C12.31 15.5087 12.3488 15.5001 12.5038 15.3752C12.5942 15.3063 12.7104 15.1599 12.7664 15.0566C12.8525 14.8801 12.8611 14.8112 12.8611 14.0879V13.3044L13.2184 13.1709C14.0623 12.848 14.7382 12.2151 15.1171 11.3885C15.3582 10.8676 15.4184 10.5834 15.4184 9.95485C15.4184 9.32628 15.3582 9.04213 15.1214 8.5255C14.7081 7.6343 13.9977 6.99712 13.0548 6.67853C12.7621 6.57951 12.6243 6.56229 12.1077 6.54937C11.7762 6.54076 11.4274 6.55368 11.3327 6.5752Z" fill="#613EEA"/>
<path d="M11.587 16.2793C11.389 16.3655 11.1479 16.5979 11.0402 16.796C10.9111 17.0414 10.9111 17.5064 11.0402 17.7518C11.1479 17.9541 11.3933 18.1866 11.5956 18.2684C11.7807 18.3459 12.2199 18.3459 12.405 18.2684C12.6074 18.1866 12.8528 17.9541 12.9604 17.7518C13.0293 17.6183 13.0508 17.4977 13.0508 17.2739C13.0508 17.05 13.0293 16.9294 12.9604 16.796C12.8528 16.5936 12.6074 16.3611 12.405 16.2793C12.2242 16.2018 11.7635 16.2062 11.587 16.2793Z" fill="#613EEA"/>
</svg>
