<svg width="30" height="29" viewBox="0 0 30 29" fill="none" xmlns="http://www.w3.org/2000/svg">
<g clip-path="url(#clip0_143_542)">
<path fill-rule="evenodd" clip-rule="evenodd" d="M25.3687 18.4252L19.3188 21.5526L18.894 20.7519L23.2178 18.5204L23.2739 18.4936C23.3738 18.4412 23.4623 18.3695 23.5343 18.2827C23.6063 18.1958 23.6603 18.0956 23.6932 17.9877C23.7262 17.8798 23.7373 17.7665 23.7261 17.6543C23.7149 17.542 23.6815 17.4331 23.6279 17.3339L23.4229 16.9482H23.4375L22.4438 15.1122L18.584 7.83927L19.4946 7.36563L25.3687 18.4252ZM27.1216 20.5395H29.7437C29.7768 20.5394 29.8095 20.5461 29.84 20.5591C29.8704 20.5722 29.8979 20.5913 29.9208 20.6152C29.9436 20.6392 29.9613 20.6676 29.9728 20.6986C29.9844 20.7297 29.9895 20.7627 29.9878 20.7958V27.1581C29.9873 27.2241 29.9619 27.2875 29.9166 27.3355C29.8713 27.3835 29.8095 27.4126 29.7437 27.4169H27.1216C27.0531 27.4163 26.9877 27.3888 26.9393 27.3404C26.8909 27.292 26.8634 27.2266 26.8628 27.1581V20.7958C26.8634 20.7276 26.891 20.6624 26.9394 20.6144C26.9879 20.5664 27.0534 20.5395 27.1216 20.5395ZM26.0229 26.8554V21.1108H23.4375C22.3413 21.3085 21.2402 21.9018 20.1489 22.5927H18.1421C17.2314 22.6464 16.7554 23.5693 17.6392 24.1747C18.3447 24.6899 19.2725 24.663 20.2246 24.5751C20.8813 24.5434 20.9106 25.4247 20.2246 25.4272C19.9805 25.4467 19.7363 25.3905 19.4922 25.3905C18.3032 25.3905 17.3267 25.161 16.7285 24.2235L16.4258 23.5204L13.4497 22.0409C11.9556 21.5526 10.8936 23.1127 11.9849 24.1991C14.0678 25.7167 16.2954 27.0251 18.6353 28.1054C20.2832 29.1088 21.9336 29.0819 23.5791 28.1054L26.0205 26.8481L26.0229 26.8554ZM3.5376 2.31925C3.53047 2.21751 3.55707 2.11626 3.61328 2.03116C3.77197 1.81876 4.15039 1.87979 4.39453 1.87979C4.64655 1.88712 4.89864 1.86747 5.14648 1.8212C5.51189 1.72573 5.87071 1.60667 6.2207 1.46476C7.13135 1.13761 7.94922 0.895908 8.81836 0.580967C10.7715 -0.119717 10.1855 -0.271084 12.1899 0.580967C13.0553 0.946986 13.8961 1.3686 14.707 1.84317C14.8228 1.90599 14.9303 1.98309 15.0269 2.07267C15.1223 2.16867 15.2044 2.27706 15.271 2.39493C16.0376 3.51065 16.6943 4.64103 17.3242 5.7714C17.5366 6.16935 17.6245 6.54532 17.4805 6.78214C16.8872 7.7587 15.8203 6.36954 14.6729 5.44913C14.1846 5.06095 13.5327 4.71671 12.9639 4.32364C12.2314 4.02091 11.8994 3.73282 11.1206 3.56925C9.92676 3.46671 9.8291 5.18058 11.3989 5.24405C12.4512 5.28556 14.6484 6.25235 15.2734 7.14103C15.8496 7.9711 15.5322 8.78653 14.3604 8.75724L13.3838 8.57413C11.8237 8.28116 11.8677 8.22257 10.2441 8.5253C9.37256 8.68644 8.45947 8.85489 7.55859 8.68644C7.01172 8.58634 6.72363 8.36661 6.23535 7.99308C5.99706 7.78469 5.73673 7.60295 5.45898 7.45108C5.2358 7.31907 4.99607 7.21727 4.74609 7.14835C4.37256 7.05802 3.84522 7.18497 3.62793 6.86271C3.56758 6.76705 3.53621 6.65597 3.5376 6.54288V2.31925ZM0.244141 1.25968H2.68555C2.7503 1.25968 2.8124 1.2854 2.85818 1.33118C2.90397 1.37697 2.92969 1.43907 2.92969 1.50382V7.43155C2.92969 7.4963 2.90397 7.5584 2.85818 7.60419C2.8124 7.64997 2.7503 7.67569 2.68555 7.67569H0.244141C0.179391 7.67569 0.117292 7.64997 0.0715071 7.60419C0.0257219 7.5584 0 7.4963 0 7.43155V1.50138C0 1.43663 0.0257219 1.37453 0.0715071 1.32874C0.117292 1.28296 0.179391 1.25724 0.244141 1.25724V1.25968ZM16.8457 12.39C17.1738 12.3896 17.4946 12.4864 17.7676 12.6684C18.0406 12.8504 18.2534 13.1092 18.3792 13.4123C18.505 13.7153 18.538 14.0488 18.4741 14.3706C18.4102 14.6924 18.2523 14.988 18.0203 15.2199C17.7883 15.4519 17.4927 15.6099 17.1709 15.6737C16.8492 15.7376 16.5156 15.7046 16.2126 15.5788C15.9096 15.4531 15.6508 15.2402 15.4688 14.9672C15.2868 14.6942 15.1899 14.3734 15.1904 14.0453C15.1911 13.6065 15.3657 13.1859 15.676 12.8756C15.9862 12.5653 16.4069 12.3907 16.8457 12.39ZM17.6074 7.75138L22.9492 17.8222L16.5039 21.1571L10.7153 10.2709L12.749 9.21866L12.8198 9.23331L14.2236 9.49454C14.2634 9.49826 14.3035 9.49826 14.3433 9.49454C14.6 9.50451 14.8568 9.4757 15.105 9.40909L13.2593 10.3759C13.3903 10.6288 13.4156 10.9233 13.3295 11.1948C13.2434 11.4663 13.0531 11.6925 12.8003 11.8236L16.4404 18.5546C16.6933 18.4236 16.9878 18.3983 17.2593 18.4844C17.5308 18.5704 17.757 18.7608 17.8882 19.0136L20.437 17.6928C20.3722 17.5678 20.3326 17.4312 20.3206 17.2909C20.3086 17.1505 20.3243 17.0092 20.367 16.875C20.4096 16.7408 20.4783 16.6163 20.569 16.5086C20.6598 16.4009 20.7709 16.3122 20.896 16.2475L17.2583 9.5214C17.1329 9.58619 16.9961 9.62566 16.8555 9.63753C16.7148 9.64941 16.5733 9.63347 16.4388 9.59062C16.3044 9.54777 16.1797 9.47885 16.0719 9.3878C15.9641 9.29675 15.8753 9.18535 15.8105 9.05997L15.7764 9.0795C15.9215 8.95806 16.0417 8.80966 16.1304 8.64249C16.2394 8.43164 16.2987 8.19864 16.3037 7.96134C16.3095 7.88006 16.3095 7.79847 16.3037 7.7172C16.792 7.96134 17.2192 8.00528 17.6099 7.75382L17.6074 7.75138Z" fill="#613EEA"/>
</g>
<defs>
<clipPath id="clip0_143_542">
<rect width="30" height="28.855" fill="white"/>
</clipPath>
</defs>
</svg>
