<?xml version="1.0" encoding="UTF-8"?>
<svg version="1.1" xmlns="http://www.w3.org/2000/svg" width="50" height="50">
<path d="M0 0 C0 0.66 0 1.32 0 2 C0.928125 2.1546875 0.928125 2.1546875 1.875 2.3125 C4 3 4 3 6 6 C6.30078125 9.1796875 6.30078125 9.1796875 6.3125 12.875 C6.32925781 14.08929688 6.34601562 15.30359375 6.36328125 16.5546875 C5.98024116 20.18739025 5.11277302 22.06776093 3 25 C3.495 24.835 3.99 24.67 4.5 24.5 C10.46008512 23.30798298 15.38604965 23.75441986 21 26 C21.45185409 33.53090149 20.46174209 37.8729222 15.6875 43.9375 C13 46 13 46 9.875 46 C7 45 7 45 5.72143555 43.45581055 C3.11373233 41.25048729 0.94356467 41.66139957 -2.41796875 41.70703125 C-3.67158203 41.71669922 -4.92519531 41.72636719 -6.21679688 41.73632812 C-7.52712891 41.76146484 -8.83746094 41.78660156 -10.1875 41.8125 C-11.52277163 41.82755033 -12.85805937 41.84123813 -14.19335938 41.85351562 C-17.46264576 41.88892306 -20.73112093 41.9383111 -24 42 C-23.4872449 35.4872449 -23.4872449 35.4872449 -21.29296875 33.29296875 C-20.59816406 32.92816406 -19.90335938 32.56335937 -19.1875 32.1875 C-18.50042969 31.80980469 -17.81335938 31.43210937 -17.10546875 31.04296875 C-16.41066406 30.69878906 -15.71585938 30.35460937 -15 30 C-14.25363281 29.62488281 -13.50726563 29.24976562 -12.73828125 28.86328125 C-12.16464844 28.57839844 -11.59101563 28.29351562 -11 28 C-11.54723683 24.62537285 -12.0549 22.91765 -14 20 C-14.3359375 16.8203125 -14.3359375 16.8203125 -14.375 13.125 C-14.40335938 11.91070312 -14.43171875 10.69640625 -14.4609375 9.4453125 C-13.92423923 5.43372036 -12.81933478 3.84029638 -10 1 C-6.78548731 -0.60725635 -3.56387464 -0.05748185 0 0 Z M-9.25 4.3125 C-12.04418661 8.6035723 -11.63945351 13.02564653 -11 18 C-9.64599355 20.72981832 -9.64599355 20.72981832 -8 23 C-7.3125 26.8125 -7.3125 26.8125 -7 30 C-3.98968256 30.93423645 -3.13349732 31.04449911 0 30 C0 30.99 0 31.98 0 33 C-0.66 33 -1.32 33 -2 33 C-1.67 35.31 -1.34 37.62 -1 40 C0.32 40 1.64 40 3 40 C2.34 35.38 1.68 30.76 1 26 C0.34 26 -0.32 26 -1 26 C-0.34 24.906875 0.32 23.81375 1 22.6875 C3.52183937 17.59846445 4.19988314 12.57856115 3 7 C-0.73530328 3.34958998 -4.33598548 1.44599153 -9.25 4.3125 Z M4 29 C4.33709806 35.51722911 5.44225737 38.32539218 10 43 C13.95963389 41.72726053 15.37729554 39.31700287 17.25 35.8203125 C18.21958411 33.46705106 18.3045585 31.51260766 18 29 C13.28775829 26.10015895 8.71224171 26.10015895 4 29 Z M-19 36 C-19.66 37.32 -20.32 38.64 -21 40 C-16.38 40 -11.76 40 -7 40 C-6.67 37.69 -6.34 35.38 -6 33 C-10.96826257 31.13690154 -14.91512663 32.99721229 -19 36 Z " fill="#209F25" transform="translate(29,4)"/>
<path d="M0 0 C0.99 0.33 1.98 0.66 3 1 C1.62845496 3.95409701 0.01136276 6.44008376 -2 9 C-4 8 -6 7 -8 6 C-7.67 5.01 -7.34 4.02 -7 3 C-5.02 3.495 -5.02 3.495 -3 4 C-2.01 2.68 -1.02 1.36 0 0 Z " fill="#1F9F24" transform="translate(43,34)"/>
</svg>
