<svg width="30" height="30" viewBox="0 0 30 30" fill="none" xmlns="http://www.w3.org/2000/svg">
<path d="M1.50262 1.05939C1.30002 1.15247 1.11932 1.34412 1.04266 1.54673C0.998849 1.65624 0.982422 5.3688 0.982422 13.8288V25.9521H1.85854H2.73466L2.72371 13.7467L2.70728 1.53577L2.59229 1.38793C2.53206 1.30579 2.41707 1.18533 2.34041 1.13057C2.15423 0.993675 1.72165 0.955345 1.50262 1.05939Z" fill="#613EEA"/>
<path d="M3.61133 7.11555V11.9342H9.81535C14.6942 11.9342 16.0413 11.9178 16.1125 11.863C16.1617 11.8302 17.016 10.7788 18.0071 9.53035C19.3979 7.79454 19.8195 7.23054 19.8195 7.11555C19.8195 7.00056 19.3979 6.43656 18.0071 4.70075C17.016 3.45228 16.1617 2.40093 16.1125 2.3626C16.0413 2.31332 14.6942 2.29689 9.81535 2.29689H3.61133V7.11555ZM6.54085 4.18603L6.67774 4.31744V7.11555V9.91365L6.54085 10.0451C6.45871 10.1327 6.34372 10.182 6.23969 10.182C6.13565 10.182 6.02066 10.1327 5.93852 10.0451L5.80163 9.91365V7.11555V4.31744L5.93852 4.18603C6.02066 4.09841 6.13565 4.04913 6.23969 4.04913C6.34372 4.04913 6.45871 4.09841 6.54085 4.18603ZM10.0179 4.20245C10.4067 4.3941 10.6422 4.61313 10.8448 4.99096C11.0145 5.30855 11.031 5.37426 11.031 5.80137C11.031 6.22848 11.0145 6.29419 10.8448 6.61178C10.6367 6.99508 10.4615 7.16483 10.0508 7.37291C9.80439 7.49885 9.6894 7.52075 9.1035 7.54266L8.42998 7.56456V8.74185C8.42998 9.91365 8.42998 9.91365 8.29309 10.0451C8.21095 10.1327 8.09596 10.182 7.99192 10.182C7.88788 10.182 7.77289 10.1327 7.69076 10.0451L7.55386 9.91365V7.11555V4.31744L7.69623 4.18055L7.83313 4.03818L8.80233 4.06008C9.6675 4.07651 9.79892 4.09294 10.0179 4.20245ZM14.404 4.20793C14.7818 4.38863 15.0173 4.61313 15.2254 4.99096L15.4116 5.33593V7.11555V8.89517L15.2254 9.24014C15.0173 9.62344 14.8421 9.79319 14.4314 10.0067C14.1959 10.1272 14.081 10.1491 13.6867 10.1491C13.2596 10.1546 13.1939 10.1382 12.8763 9.96841C12.4985 9.76581 12.2794 9.53583 12.0878 9.14157C11.9673 8.90064 11.9618 8.85136 11.9618 7.11555V5.33593L12.0987 5.06215C12.3287 4.59123 12.7722 4.22983 13.276 4.09841C13.5443 4.02723 14.1412 4.08746 14.404 4.20793Z" fill="#613EEA"/>
<path d="M8.42969 5.80138V6.68845L9.02654 6.66654C9.67268 6.65012 9.79862 6.60083 10.0396 6.27229C10.1984 6.05874 10.1984 5.54402 10.0396 5.33046C9.79862 5.00192 9.67268 4.95264 9.02654 4.93621L8.42969 4.9143V5.80138Z" fill="#613EEA"/>
<path d="M13.3301 5.00192C13.1056 5.10048 12.8756 5.37974 12.8372 5.59877C12.8208 5.69734 12.8099 6.44204 12.8208 7.2634C12.8372 8.66519 12.8427 8.75828 12.9522 8.90065C13.1658 9.19086 13.341 9.27847 13.686 9.27847C14.031 9.27847 14.2062 9.19086 14.4197 8.90065C14.5292 8.75828 14.5347 8.68162 14.5347 7.11555C14.5347 5.54949 14.5292 5.47283 14.4197 5.33046C14.3595 5.24833 14.2445 5.12786 14.1678 5.0731C13.9871 4.93621 13.5491 4.89788 13.3301 5.00192Z" fill="#613EEA"/>
<path d="M24.3372 11.195C24.1729 11.3538 24.162 11.6002 24.3043 11.7754C24.3974 11.8904 24.4686 11.9123 24.8519 11.9342L25.2955 11.9616L23.6089 13.6481L21.9169 15.3401L19.8307 14.2943C18.6808 13.7193 17.6787 13.2484 17.602 13.2484C17.5035 13.2484 17.2516 13.44 16.715 13.9274C13.6047 16.7145 12.8874 17.3771 12.8436 17.4976C12.7396 17.8042 13.0736 18.1382 13.3802 18.0342C13.4514 18.0068 14.4535 17.1362 15.6034 16.1013L17.7006 14.2121L19.7978 15.2635C20.9806 15.8548 21.9662 16.3148 22.0483 16.3148C22.1688 16.3148 22.5302 15.9808 24.0744 14.4421L25.9525 12.5639V12.991C25.9525 13.3689 25.969 13.4346 26.0894 13.5496C26.1716 13.6372 26.2866 13.6865 26.3906 13.6865C26.4946 13.6865 26.6096 13.6372 26.6918 13.5496C26.8287 13.4181 26.8287 13.4072 26.8287 12.3723C26.8287 10.965 26.9218 11.0581 25.5145 11.0581C24.4796 11.0581 24.4686 11.0581 24.3372 11.195Z" fill="#613EEA"/>
<path d="M25.2131 15.5756L25.0762 15.707V20.4764V25.2457L25.2131 25.3771L25.3445 25.514H26.6094H27.8743L28.0057 25.3771L28.1426 25.2457V20.4764V15.707L28.0057 15.5756L27.8743 15.4387H26.6094H25.3445L25.2131 15.5756Z" fill="#613EEA"/>
<path d="M16.1834 17.3059L16.041 17.4154V21.3525V25.2895L16.1834 25.399C16.3203 25.5086 16.3969 25.514 17.5523 25.514C18.7625 25.514 18.7734 25.514 18.9267 25.3826L19.0801 25.2512V21.3525V17.4537L18.9267 17.3223C18.7734 17.1909 18.7625 17.1909 17.5523 17.1909C16.3969 17.1909 16.3203 17.1964 16.1834 17.3059Z" fill="#613EEA"/>
<path d="M20.69 18.2258L20.5312 18.3901L20.5422 21.8179L20.5586 25.2512L20.7119 25.3826C20.8653 25.514 20.8762 25.514 22.0973 25.514H23.3294L23.4608 25.3771L23.5977 25.2457V21.7905V18.3353L23.4608 18.2039L23.3294 18.067H22.0918H20.8488L20.69 18.2258Z" fill="#613EEA"/>
<path d="M11.633 19.9562L11.4961 20.0876V22.6667V25.2457L11.633 25.3771L11.7644 25.514H13.0293H14.2942L14.4256 25.3771L14.5625 25.2457V22.6667V20.0876L14.4256 19.9562L14.2942 19.8193H13.0293H11.7644L11.633 19.9562Z" fill="#613EEA"/>
<path d="M0.982422 27.7865C0.982422 28.7338 0.982422 28.7502 1.11932 28.8816L1.25073 29.0185H15.0003H28.7499L28.8813 28.8816C29.0128 28.7557 29.0182 28.7283 29.0182 27.9234C29.0182 27.1184 29.0128 27.0911 28.8813 26.9651L28.7499 26.8282H14.8634H0.982422V27.7865Z" fill="#613EEA"/>
</svg>
