<svg width="22" height="24" viewBox="0 0 22 24" fill="none" xmlns="http://www.w3.org/2000/svg">
<path d="M2.28125 0.0984421C1.82656 0.21563 1.49844 0.379692 1.15625 0.651566C0.645313 1.06407 0.270313 1.62657 0.0921875 2.25C0.0125 2.54063 0.0078125 2.98125 0.0078125 12C0.0078125 21.0188 0.0125 21.4594 0.0921875 21.75C0.382812 22.7672 1.14688 23.5547 2.14062 23.8688L2.49219 23.9766H8.02344H13.5547L13.9531 23.8313C14.4266 23.6625 14.7828 23.4375 15.1203 23.0953C15.7016 22.5047 15.95 21.9047 16.0016 20.9766L16.0297 20.4984L15.1906 20.4656C14.7313 20.4516 14.2719 20.4234 14.1781 20.4094L14 20.3813V20.7844C14 21.3844 13.8313 21.7031 13.4141 21.8953C13.2359 21.9797 12.9875 21.9844 8.00938 21.9844C2.3 21.9844 2.61875 21.9984 2.30938 21.7125C2.23438 21.6422 2.13594 21.5016 2.08906 21.3984C2.00469 21.2203 2 20.8641 2 12.0094C2 1.91719 1.98125 2.63438 2.27188 2.32969C2.52969 2.05782 2.70312 2.00625 3.3125 2.025C3.81875 2.03907 3.875 2.04844 4.04375 2.16563C4.32031 2.3625 4.4375 2.56875 4.48906 2.95313C4.54063 3.37032 4.67656 3.62813 4.94375 3.82032L5.15 3.96094H8H10.85L11.0563 3.82032C11.3234 3.62813 11.4594 3.37032 11.5109 2.95313C11.5625 2.57344 11.6891 2.34375 11.9703 2.15625C12.125 2.04844 12.1953 2.03907 12.6922 2.025C13.1656 2.01094 13.2641 2.02032 13.4188 2.1C13.8453 2.32032 14 2.62032 14 3.225V3.6375L14.3891 3.58125C14.6 3.54844 15.0547 3.52032 15.4016 3.52032L16.0297 3.51563L16.0016 3.02813C15.9688 2.4375 15.8703 2.04375 15.6594 1.64063C15.2422 0.839066 14.5766 0.318754 13.6906 0.0937538C13.3391 0.00469208 13.1516 3.8147e-06 7.98125 0.00469208C2.82969 0.00469208 2.61875 0.00937843 2.28125 0.0984421Z" fill="#38004D"/>
<path d="M15.0081 5.51719C13.9065 5.60625 12.7909 6 11.8299 6.64219C11.3893 6.9375 10.6393 7.65938 10.269 8.15625C9.05962 9.75937 8.69868 11.9109 9.29399 13.9219C9.45806 14.475 9.91274 15.3703 10.269 15.8438C10.6534 16.3547 11.3987 17.0766 11.8721 17.3859C13.3721 18.375 15.2143 18.7312 16.9018 18.3469C18.0596 18.0844 19.1659 17.4891 19.9909 16.6828C21.0268 15.6609 21.6268 14.5453 21.9034 13.1016C22.0159 12.525 22.0112 11.4703 21.8987 10.875C21.4768 8.625 19.9721 6.79219 17.8721 5.94844C17.0096 5.60625 15.9127 5.44219 15.0081 5.51719ZM15.8752 8.11875C16.1002 8.27344 16.2127 8.44687 16.2362 8.68594L16.2596 8.89219L16.6065 8.92031C16.8221 8.93438 17.0143 8.98125 17.1081 9.03281C17.2909 9.14062 17.4549 9.37969 17.4971 9.59063C17.5346 9.80156 17.3612 10.1578 17.1456 10.2984C16.9956 10.4016 16.9393 10.4062 16.1331 10.4062C15.3456 10.4062 15.2706 10.4156 15.1581 10.5C15.0034 10.6219 14.9612 10.8234 15.0502 11.0344C15.1299 11.2266 15.1627 11.2359 15.744 11.2641C16.2549 11.2922 16.5784 11.4328 16.9206 11.775C17.6706 12.525 17.6893 13.7297 16.9534 14.5031C16.8221 14.6391 16.6159 14.8031 16.4893 14.8641L16.2596 14.9719L16.2409 15.2438C16.2174 15.5484 16.1237 15.7078 15.8752 15.8766C15.4487 16.1719 14.8252 15.8531 14.7643 15.3141L14.7409 15.1078L14.3987 15.0797C13.8924 15.0422 13.6487 14.8828 13.5315 14.5125C13.4284 14.1984 13.5971 13.8234 13.9159 13.6594C14.0096 13.6125 14.2534 13.5938 14.8815 13.5938C15.6549 13.5938 15.7299 13.5844 15.8424 13.5C15.9971 13.3781 16.0393 13.1766 15.9502 12.9656C15.8706 12.7781 15.8377 12.7641 15.2612 12.7359C14.7643 12.7078 14.4081 12.5531 14.0659 12.2156C13.4987 11.6438 13.344 10.7578 13.6909 10.0031C13.8409 9.675 14.2159 9.28125 14.5112 9.14531L14.7409 9.0375L14.7596 8.76094C14.7924 8.31563 15.0877 8.01562 15.5002 8.01562C15.6502 8.01562 15.7674 8.04844 15.8752 8.11875Z" fill="#613EEA"/>
</svg>
