<svg width="20" height="26" viewBox="0 0 20 26" fill="none" xmlns="http://www.w3.org/2000/svg">
<path d="M11.0929 2.55187L11.0933 2.5519C11.3716 2.57509 11.7583 2.62514 12.0813 2.67478C12.2427 2.69959 12.387 2.72412 12.4931 2.74494C12.5198 2.75017 12.5437 2.75511 12.5647 2.75969C12.5635 2.762 12.5623 2.76435 12.5611 2.76674C12.526 2.83648 12.473 2.93658 12.4061 3.05997C12.2723 3.30651 12.0839 3.64348 11.8731 4.01116L11.8731 4.01125L11.1435 5.28692L11.0257 5.26631C11.0256 5.26629 11.0255 5.26626 11.0253 5.26624L11.0251 5.2662L11.0078 5.3647C10.9047 5.34594 10.4497 5.33187 9.9995 5.33187C9.54927 5.33187 9.09434 5.34594 8.99117 5.3647L11.0929 2.55187ZM11.0929 2.55187C10.4562 2.4961 9.48184 2.49609 8.83562 2.55188C8.60223 2.57269 8.23223 2.62383 7.91482 2.67469C7.75627 2.70009 7.61202 2.72523 7.50556 2.74623C7.47933 2.75141 7.45569 2.75628 7.43488 2.76078C7.43587 2.76274 7.43687 2.76473 7.43788 2.76674C7.47304 2.83648 7.52597 2.93658 7.59293 3.05997C7.72672 3.30651 7.91509 3.64348 8.12586 4.01116L8.12591 4.01125L8.85551 5.28692L11.0929 2.55187ZM13.6137 10.8631L13.6138 10.8631C14.0744 11.1901 14.9497 12.0278 15.3481 12.5189C16.407 13.8262 17.1319 15.4201 17.4506 16.9568C17.7698 18.4955 17.6794 19.9647 17.124 21.0298L17.1238 21.03C16.9205 21.4232 16.4761 21.9324 16.0885 22.2197C15.3116 22.7955 14.1078 23.1865 12.4734 23.3826L13.6137 10.8631ZM13.6137 10.8631C12.8923 10.3498 12.004 9.94745 11.1968 9.76291C11.006 9.72029 10.6473 9.68309 10.2835 9.66262C9.9191 9.64212 9.56339 9.63918 9.37832 9.66148L9.37795 9.66152C7.44418 9.88713 5.50248 11.2022 4.1167 13.2483L4.11664 13.2484C3.25262 14.5212 2.69059 15.9858 2.47186 17.3765C2.25289 18.7687 2.3793 20.0772 2.87982 21.044C2.98656 21.2485 3.18153 21.5047 3.41045 21.7492C3.63903 21.9934 3.89553 22.2196 4.12123 22.3663L4.1214 22.3664M13.6137 10.8631L4.1214 22.3664M4.1214 22.3664C5.00493 22.9432 6.46146 23.3169 8.39794 23.4572M4.1214 22.3664L8.39794 23.4572M8.39794 23.4572C9.3961 23.5272 11.6125 23.485 12.4733 23.3826L8.39794 23.4572ZM8.74757 0.945679L8.74819 0.945625C10.3022 0.813368 12.1992 0.973696 13.6552 1.36135L13.6557 1.36148C13.8707 1.41989 14.0128 1.46271 14.1193 1.5103C14.2307 1.56003 14.3027 1.6146 14.3803 1.69212C14.458 1.76982 14.5168 1.83141 14.5478 1.91698C14.5773 1.99838 14.5784 2.09396 14.5784 2.22713L14.5784 2.22874L14.5737 2.51952L14.5733 2.5453L14.5604 2.56766L13.6459 4.16224L13.6458 4.16243L12.7805 5.66349L13.0161 5.77633L13.0165 5.7765C14.2141 6.35568 14.6386 7.88263 13.9046 8.96638L13.9037 8.96764C13.8731 9.01134 13.8458 9.05498 13.8263 9.08906C13.8292 9.0911 13.8322 9.09321 13.8353 9.0954C13.8774 9.12453 13.9374 9.16125 14.0049 9.19725L14.0049 9.19722L14.0071 9.19845C14.7337 9.60955 15.9247 10.6742 16.5962 11.5018L16.5963 11.5019C17.3581 12.4436 18.1468 13.8319 18.5586 14.9538C19.2393 16.7973 19.4261 18.9617 19.0307 20.5052C18.7064 21.7831 18.05 22.7793 17.0282 23.5122C16.0087 24.2434 14.632 24.7078 12.8733 24.9365L12.8732 24.9365C10.9788 25.1815 8.24394 25.1441 6.49809 24.8468L6.49808 24.8468C4.19809 24.4548 2.57295 23.554 1.66595 22.1527C0.66013 20.6008 0.485965 18.3032 1.16101 15.839C1.8938 13.1632 3.81683 10.4996 5.92443 9.24643C6.01052 9.19524 6.08886 9.14683 6.14518 9.10985C6.15368 9.10428 6.16154 9.09904 6.16876 9.09417C6.16578 9.08895 6.16261 9.08345 6.15927 9.07768C6.13 9.02718 6.08948 8.96001 6.04504 8.88751L6.04482 8.88715C5.37569 7.78505 5.81449 6.34131 6.99604 5.77208C6.99629 5.77196 6.99653 5.77184 6.99678 5.77173L7.21931 5.66045L6.35327 4.16254L6.35311 4.16227C5.89932 3.37164 5.66834 2.96904 5.55099 2.72958C5.49194 2.60908 5.45875 2.5242 5.44092 2.44829C5.42286 2.3714 5.42179 2.30816 5.42061 2.23818V2.23651C5.42061 2.07577 5.44269 1.94092 5.50126 1.8259C5.56066 1.70925 5.65253 1.62282 5.77427 1.55028L5.77524 1.54972C5.86146 1.49965 6.03332 1.44427 6.24328 1.38852C6.4581 1.33148 6.72608 1.27079 7.01458 1.2128C7.59121 1.09688 8.25507 0.990667 8.74757 0.945679ZM11.3591 6.95424L11.3577 6.95395C11.1433 6.9088 10.7199 6.86919 10.3031 6.84692C9.88461 6.82455 9.49094 6.82068 9.33322 6.84259C8.77215 6.92208 8.35465 7.00334 8.05394 7.09212C7.74931 7.18206 7.58089 7.27529 7.49989 7.3676L7.49987 7.36762C7.42062 7.45788 7.37611 7.5314 7.35365 7.60301C7.33151 7.67357 7.32817 7.75062 7.34509 7.85234C7.37719 8.03622 7.50194 8.2055 7.67385 8.28992C7.75098 8.32516 7.77946 8.33524 7.84075 8.33152C7.91638 8.32692 8.03233 8.30061 8.27816 8.24094L8.27853 8.24085C9.01388 8.06532 9.60466 8.00799 10.2851 8.03654L10.2854 8.03655C10.9117 8.06502 11.2136 8.11299 11.8381 8.26438L11.8393 8.2647C12.027 8.31281 12.1116 8.33242 12.1695 8.33432C12.2154 8.33582 12.2424 8.32667 12.3205 8.28991C12.497 8.20551 12.6218 8.03624 12.6539 7.85235C12.6708 7.75056 12.6675 7.67361 12.6454 7.60377C12.6231 7.53306 12.5788 7.46089 12.4999 7.37324L12.499 7.37218C12.4316 7.2951 12.3284 7.22533 12.1484 7.15714C11.9677 7.08867 11.7164 7.02429 11.3591 6.95424Z" fill="#38004D" stroke="#38004D" stroke-width="0.2"/>
<path d="M9.66199 11.7383C9.38059 11.8837 9.29617 12.1041 9.29617 12.681V13.1641L9.05229 13.2813C8.74276 13.422 8.26907 13.8863 8.12838 14.1865C7.71097 15.0541 7.85636 15.9733 8.52233 16.6346C8.9116 17.0286 9.46501 17.2678 9.9809 17.2678C10.3561 17.2678 10.7032 17.6054 10.7032 17.9713C10.7032 18.2058 10.539 18.4731 10.328 18.5809C9.96683 18.7639 9.6104 18.6607 9.16016 18.2292C8.99601 18.0744 8.81311 17.9478 8.71462 17.9197C8.20811 17.779 7.72504 18.2949 7.8845 18.8154C7.95954 19.0734 8.5364 19.6034 8.9585 19.805L9.29148 19.9645V20.4475C9.29617 21.0244 9.3759 21.2214 9.66199 21.3855C9.89179 21.5122 10.0888 21.5168 10.328 21.3949C10.6187 21.2448 10.7032 21.0338 10.7032 20.4475V19.9645L10.9517 19.8519C11.2519 19.7112 11.7162 19.2516 11.8709 18.9421C12.2884 18.0791 12.143 17.1552 11.477 16.4892C11.083 16.0953 10.539 15.8608 10.0137 15.8608C9.64792 15.8608 9.29617 15.5137 9.29617 15.1479C9.29617 14.7962 9.64323 14.4538 9.99966 14.4538C10.2107 14.4538 10.4874 14.5804 10.736 14.7962C11.069 15.0729 11.416 15.0823 11.7115 14.8243C11.9085 14.6508 11.9835 14.4116 11.9225 14.149C11.8663 13.9004 11.4723 13.5299 11.0361 13.3188L10.7078 13.1641V12.681C10.7032 12.0948 10.6187 11.879 10.328 11.7336C10.0982 11.6164 9.8871 11.6164 9.66199 11.7383Z" fill="#613EEA"/>
</svg>
