<svg width="25" height="25" viewBox="0 0 25 25" fill="none" xmlns="http://www.w3.org/2000/svg">
<path d="M7.9324 0.975628L7.93401 0.97538C7.95749 0.971767 8.01207 0.969362 8.08375 0.967196C8.15921 0.964914 8.26235 0.962749 8.38975 0.960726C8.64465 0.956675 8.99794 0.953163 9.42379 0.950415C10.2756 0.94492 11.4184 0.942478 12.6467 0.94492C14.7383 0.947361 15.8602 0.949799 16.4907 0.962641C17.1165 0.975388 17.2708 0.998074 17.4149 1.04785C18.3431 1.35575 18.9872 2.00952 19.2703 2.92454L19.2706 2.92552C19.3172 3.08172 19.3383 3.27554 19.3499 4.51445C19.3615 5.76138 19.3627 8.0789 19.3627 12.5V21.7529V21.7683L19.3581 21.7829L19.2507 22.1247L19.2505 22.1251C19.0992 22.5994 18.915 22.9011 18.5624 23.2587C18.2372 23.589 17.8563 23.8118 17.3882 23.9578L17.3882 23.9578L17.3874 23.958C17.2354 24.0041 17.0803 24.0258 16.438 24.0374C15.7929 24.049 14.6455 24.0502 12.5 24.0502H7.93457H7.91923L7.90459 24.0456L7.56279 23.9382L7.56279 23.9382L7.56237 23.938C7.08811 23.7867 6.78647 23.6025 6.42886 23.25C6.09856 22.9247 5.8757 22.5438 5.72973 22.0757L5.72972 22.0757L5.72937 22.0745C5.68278 21.9183 5.66165 21.7245 5.65013 20.4855C5.63852 19.2386 5.6373 16.9211 5.6373 12.5C5.6373 8.0789 5.63852 5.76138 5.65013 4.51445C5.66165 3.27554 5.68278 3.08172 5.72936 2.92552L5.7297 2.92443C6.05306 1.88361 6.86402 1.15792 7.9324 0.975628ZM9.50675 2.86814L9.50655 2.86784L9.06291 2.20009L8.57512 2.20449H8.57422C8.20873 2.20449 7.98806 2.22448 7.81312 2.28557C7.64184 2.34538 7.50566 2.44775 7.31663 2.63436C7.26959 2.68137 7.22283 2.71966 7.18573 2.75002C7.17069 2.76233 7.15723 2.77335 7.14599 2.78312C7.10521 2.81856 7.07562 2.85093 7.04982 2.90487C6.99298 3.02365 6.95095 3.25195 6.92546 3.81858C6.88328 4.75624 6.8865 6.56848 6.89298 10.2134C6.89426 10.934 6.89567 11.7262 6.89687 12.5975C6.89687 12.5975 6.89687 12.5975 6.89687 12.5975L6.91148 21.7767L7.01695 21.9744L7.01695 21.9744L7.01727 21.975C7.16445 22.2556 7.4139 22.5094 7.68866 22.6559L7.68866 22.6559L7.68912 22.6561L7.91102 22.776H12.5H17.089L17.3109 22.6561L17.3113 22.6559C17.5861 22.5094 17.8355 22.2556 17.9827 21.975L17.9831 21.9744L18.0885 21.7768V12.5V3.22324L17.983 3.02558L17.9824 3.02438C17.8352 2.7392 17.5862 2.48614 17.3126 2.34474C17.2074 2.29102 17.1393 2.26283 17.0347 2.24449C16.9247 2.22522 16.7734 2.21669 16.5012 2.20934L16.5007 2.20932L15.9414 2.19156L15.4985 2.86269L15.498 2.86341C15.3078 3.14631 15.1772 3.33194 15.0767 3.4545C14.9764 3.5769 14.8985 3.6463 14.8111 3.68513L14.8111 3.68516L14.8086 3.68622C14.7791 3.69837 14.736 3.70552 14.694 3.71095C14.648 3.7169 14.5895 3.72227 14.5212 3.72714C14.3844 3.73689 14.2035 3.74495 13.994 3.75138C13.5747 3.76424 13.0371 3.77065 12.5 3.77065C11.9629 3.77065 11.4253 3.76424 11.006 3.75138C10.7965 3.74495 10.6156 3.73689 10.4788 3.72714C10.4105 3.72227 10.352 3.7169 10.306 3.71095C10.264 3.70552 10.2209 3.69837 10.1914 3.68622L10.1914 3.68625L10.1889 3.68513C10.1015 3.64631 10.0236 3.57693 9.92384 3.45507C9.82396 3.33306 9.69455 3.14861 9.50675 2.86814ZM12.5 2.48789H14.2772L14.408 2.28984L14.4087 2.28866L14.4657 2.19961H12.5H10.5343L10.5913 2.28866L10.592 2.28984L10.7228 2.48789H12.5Z" fill="#38004D" stroke="#38004D" stroke-width="0.2"/>
<path d="M8.49137 8.49121L8.34977 8.63281V9.87793C8.34977 11.5771 8.26676 11.4941 9.98551 11.4648C11.1427 11.4453 11.2648 11.4209 11.382 11.1865C11.4699 11.0156 11.5089 8.99414 11.4308 8.73047C11.4015 8.63281 11.3185 8.50586 11.2453 8.45215C11.1281 8.35449 11.0548 8.34961 9.87809 8.34961H8.63297L8.49137 8.49121ZM10.4005 9.8877V10.4004H9.88785H9.37516V9.8877V9.375H9.88785H10.4005V9.8877Z" fill="#613EEA"/>
<path d="M12.2119 8.42773C12.0215 8.56445 11.9629 8.78418 11.9629 9.375C11.9629 10.1416 12.0996 10.4004 12.5 10.4004C12.9004 10.4004 13.0371 10.1416 13.0371 9.375C13.0371 8.6084 12.9004 8.34961 12.5 8.34961C12.4023 8.34961 12.2754 8.38379 12.2119 8.42773Z" fill="#38004D"/>
<path d="M13.7745 8.42773C13.5548 8.58398 13.5255 8.75488 13.5255 9.91699C13.5255 11.5234 13.4816 11.4746 15.0245 11.4746C16.1036 11.4746 16.3624 11.4404 16.5138 11.2891C16.6505 11.1572 16.6847 10.7422 16.6505 9.58008L16.6261 8.58398L16.4894 8.4668C16.3527 8.34961 16.3527 8.34961 15.1222 8.34961C14.0626 8.34961 13.8722 8.35938 13.7745 8.42773ZM15.6251 9.8877V10.4004H15.1124H14.5997V9.8877V9.375H15.1124H15.6251V9.8877Z" fill="#613EEA"/>
<path d="M12.2266 11.0303C12.0459 11.1426 11.9629 11.3477 11.9629 11.6992V11.9629H11.6943C11.3477 11.9629 11.1084 12.0605 11.0156 12.251C10.918 12.4365 10.918 12.5635 11.0156 12.749C11.1328 12.9736 11.3379 13.0371 11.9922 13.0371C12.9297 13.0371 13.0371 12.9297 13.0371 11.9922C13.0371 11.3379 12.9736 11.1328 12.749 11.0156C12.5537 10.9131 12.4121 10.918 12.2266 11.0303Z" fill="#38004D"/>
<path d="M8.70603 11.9971C8.64744 12.0068 8.54002 12.085 8.47166 12.1631C8.29588 12.373 8.30564 12.6416 8.49119 12.8516L8.63279 13.0127L9.23338 13.0322C9.90721 13.0518 10.1513 12.998 10.2978 12.8076C10.4199 12.6562 10.4297 12.373 10.3222 12.2119C10.1855 12.0166 9.9658 11.9629 9.36521 11.9678C9.06248 11.9727 8.76463 11.9873 8.70603 11.9971Z" fill="#38004D"/>
<path d="M15.9326 12.0361C15.708 12.1338 15.625 12.3291 15.625 12.7686C15.625 13.3203 15.7812 13.5254 16.1914 13.5254C16.3184 13.5254 16.4062 13.4863 16.5088 13.3838C16.6455 13.2471 16.6504 13.2227 16.6504 12.7832C16.6504 12.2656 16.5967 12.1436 16.3281 12.0312C16.1328 11.9482 16.1279 11.9482 15.9326 12.0361Z" fill="#38004D"/>
<path d="M14.2237 12.1289C14.1016 12.2363 14.087 12.2803 14.0723 12.6318C14.0528 13.0176 14.0528 13.0176 13.9015 13.0664C13.6231 13.1494 13.5499 13.3154 13.5352 13.9551C13.5255 14.2822 13.5401 14.5996 13.5694 14.707C13.6427 14.9414 13.8282 15.0879 14.0577 15.0879C14.4044 15.0879 14.5997 14.8193 14.5997 14.3408C14.5997 14.0869 14.6046 14.082 14.7706 14.0186C15.044 13.9209 15.088 13.7793 15.088 12.9883V12.2949L14.9464 12.1533C14.7559 11.9629 14.4288 11.9531 14.2237 12.1289Z" fill="#38004D"/>
<path d="M8.66211 13.5938C8.35449 13.7305 8.34961 13.7598 8.34961 15.1221C8.34961 16.3525 8.34961 16.3525 8.4668 16.4893L8.58398 16.626L9.58008 16.6504C10.7422 16.6846 11.1572 16.6504 11.2891 16.5137C11.4404 16.3623 11.4746 16.1035 11.4746 15.0244C11.4746 13.4766 11.5234 13.5254 9.90234 13.5254C9.09668 13.5303 8.77441 13.5449 8.66211 13.5938ZM10.4004 15.1123V15.625H9.8877H9.375V15.1123V14.5996H9.8877H10.4004V15.1123Z" fill="#613EEA"/>
<path d="M12.2705 13.6035C12.0654 13.7061 11.9629 13.9355 11.9629 14.3018C11.9629 14.8193 12.1484 15.0879 12.5 15.0879C12.8516 15.0879 13.0371 14.8193 13.0371 14.3018C13.0371 13.9307 12.9346 13.7061 12.7197 13.6035C12.5195 13.5059 12.4658 13.5059 12.2705 13.6035Z" fill="#38004D"/>
<path d="M15.9424 14.1064C15.8887 14.1309 15.8008 14.1992 15.7471 14.2578C15.6641 14.3506 15.6495 14.4482 15.6348 14.9951L15.6153 15.625H15.3028C15.1221 15.625 14.9268 15.6543 14.8487 15.6982C14.5655 15.8398 14.5215 16.3232 14.7706 16.5381C14.8926 16.6455 14.9415 16.6504 15.6299 16.6504H16.3672L16.5088 16.5088L16.6504 16.3672V15.4102C16.6504 14.7754 16.6309 14.4141 16.5918 14.3311C16.4942 14.1113 16.1915 14.0088 15.9424 14.1064Z" fill="#38004D"/>
<path d="M12.2265 15.7178C12.0116 15.8496 11.9335 16.0938 12.0263 16.3232C12.1532 16.6211 12.246 16.6504 12.998 16.6504C13.3886 16.6504 13.7157 16.626 13.789 16.5967C14.0819 16.46 14.1357 16.001 13.8866 15.7666C13.7694 15.6543 13.7255 15.6494 13.0712 15.6348C12.4511 15.625 12.3632 15.6299 12.2265 15.7178Z" fill="#38004D"/>
<path d="M11.7869 21.4062C11.4793 21.543 11.3719 21.9287 11.577 22.1826C11.7235 22.373 11.9676 22.4268 12.6414 22.4072L13.242 22.3877L13.3836 22.2266C13.5789 22.0068 13.5789 21.7432 13.3836 21.5234L13.242 21.3623L12.5877 21.3477C12.1092 21.3379 11.8992 21.3574 11.7869 21.4062Z" fill="#38004D"/>
</svg>
