<svg width="24" height="24" viewBox="0 0 24 24" fill="none" xmlns="http://www.w3.org/2000/svg">
<g clip-path="url(#clip0_45_765)">
<path d="M14.7047 0.0890598C15.5625 0.299997 16.275 0.867186 16.6687 1.65468C16.9969 2.30156 16.9922 2.23594 16.9922 5.41406V8.27344L16.8609 8.49375C16.6312 8.8875 16.1625 9.075 15.7172 8.94844C15.4406 8.87344 15.1359 8.58281 15.0562 8.31562C15.0141 8.17031 15 7.42969 15 5.46562C15 2.56875 15.0047 2.62031 14.7281 2.32969C14.6578 2.25468 14.5219 2.15625 14.4281 2.10468C14.2547 2.01562 14.0906 2.01562 8.44687 2.025L2.63906 2.03906L2.45625 2.16562C2.35781 2.23594 2.22187 2.37187 2.15625 2.47031L2.03906 2.64375V12V21.3562L2.15625 21.5297C2.22187 21.6281 2.35781 21.7641 2.45625 21.8344L2.63906 21.9609L8.44687 21.975C14.0906 21.9844 14.2547 21.9844 14.4281 21.8953C14.5219 21.8437 14.6578 21.7453 14.7281 21.6703C15.0047 21.3797 15 21.4312 15 18.5344C15 16.5703 15.0141 15.8297 15.0562 15.6844C15.1359 15.4172 15.4406 15.1266 15.7172 15.0516C16.1625 14.925 16.6312 15.1125 16.8609 15.5062L16.9922 15.7266V18.5859C16.9922 21.7641 16.9969 21.6984 16.6687 22.3453C16.3734 22.9359 15.9047 23.4 15.3047 23.6906C14.6531 24.0094 14.8875 24 8.475 24C2.02031 24 2.34844 24.0141 1.64062 23.6672C0.871872 23.2875 0.243748 22.4719 0.0703106 21.6328C-0.032814 21.1406 -0.032814 2.85937 0.0703106 2.36719C0.243748 1.52812 0.871872 0.712498 1.64062 0.332809C2.35312 -0.0140648 2.01093 -1.90735e-06 8.53125 0.00468445C13.9547 0.00468445 14.3906 0.014061 14.7047 0.0890598Z" fill="#38004D"/>
<path d="M11.3202 8.07187C11.5452 8.15155 11.7093 8.28749 11.8312 8.49843C11.9952 8.77968 12.0233 8.9953 11.9343 9.29062C11.8687 9.51562 11.7937 9.60937 11.1562 10.2422C10.7718 10.6266 10.453 10.9594 10.453 10.9781C10.453 11.0016 13.3312 11.0156 16.8515 11.0156C23.0577 11.0156 23.2593 11.0203 23.428 11.1047C24.1874 11.4937 24.1874 12.5062 23.428 12.8953C23.2593 12.9797 23.0577 12.9844 16.8515 12.9844C13.3312 12.9844 10.453 12.9984 10.453 13.0219C10.453 13.0406 10.7718 13.3734 11.1562 13.7578C11.9437 14.5453 12.028 14.6812 11.9905 15.1125C11.9483 15.6187 11.5358 15.9984 11.0202 15.9984C10.8655 15.9984 10.6921 15.9656 10.5937 15.9187C10.378 15.8062 7.2374 12.6797 7.12021 12.4594C6.99834 12.225 6.99834 11.775 7.12021 11.5406C7.17178 11.4469 7.94521 10.6359 8.84521 9.74062C10.214 8.38124 10.5046 8.10937 10.664 8.06718C10.8937 8.00624 11.1327 8.00624 11.3202 8.07187Z" fill="#613EEA"/>
</g>
<defs>
<clipPath id="clip0_45_765">
<rect width="24" height="24" fill="white" transform="matrix(-1 0 0 1 24 0)"/>
</clipPath>
</defs>
</svg>
