<svg width="30" height="29" viewBox="0 0 30 29" fill="none" xmlns="http://www.w3.org/2000/svg">
<g clip-path="url(#clip0_208_814)">
<path fill-rule="evenodd" clip-rule="evenodd" d="M25.3687 18.4253L19.3188 21.5527L18.894 20.752L23.2178 18.5205L23.2739 18.4937C23.3738 18.4413 23.4623 18.3696 23.5343 18.2828C23.6063 18.1959 23.6603 18.0957 23.6932 17.9878C23.7262 17.8799 23.7373 17.7666 23.7261 17.6543C23.7149 17.5421 23.6815 17.4332 23.6279 17.334L23.4229 16.9482H23.4375L22.4438 15.1123L18.584 7.83936L19.4946 7.36573L25.3687 18.4253ZM27.1216 20.5396H29.7437C29.7768 20.5395 29.8095 20.5462 29.84 20.5592C29.8704 20.5723 29.8979 20.5913 29.9208 20.6153C29.9436 20.6393 29.9613 20.6677 29.9728 20.6987C29.9844 20.7298 29.9895 20.7628 29.9878 20.7959V27.1582C29.9873 27.2242 29.9619 27.2876 29.9166 27.3356C29.8713 27.3836 29.8095 27.4127 29.7437 27.417H27.1216C27.0531 27.4164 26.9877 27.3889 26.9393 27.3405C26.8909 27.2921 26.8634 27.2266 26.8628 27.1582V20.7959C26.8634 20.7277 26.891 20.6625 26.9394 20.6145C26.9879 20.5665 27.0534 20.5396 27.1216 20.5396ZM26.0229 26.8555V21.1108H23.4375C22.3413 21.3086 21.2402 21.9019 20.1489 22.5928H18.1421C17.2314 22.6465 16.7554 23.5693 17.6392 24.1748C18.3447 24.6899 19.2725 24.6631 20.2246 24.5752C20.8813 24.5435 20.9106 25.4248 20.2246 25.4273C19.9805 25.4468 19.7363 25.3906 19.4922 25.3906C18.3032 25.3906 17.3267 25.1611 16.7285 24.2236L16.4258 23.5205L13.4497 22.041C11.9556 21.5527 10.8936 23.1128 11.9849 24.1992C14.0678 25.7168 16.2954 27.0252 18.6353 28.1055C20.2832 29.1089 21.9336 29.082 23.5791 28.1055L26.0205 26.8482L26.0229 26.8555ZM3.5376 2.31934C3.53047 2.2176 3.55707 2.11635 3.61328 2.03125C3.77197 1.81885 4.15039 1.87989 4.39453 1.87989C4.64655 1.88721 4.89864 1.86756 5.14648 1.82129C5.51189 1.72582 5.87071 1.60676 6.2207 1.46485C7.13135 1.1377 7.94922 0.896 8.81836 0.581058C10.7715 -0.119625 10.1855 -0.270993 12.1899 0.581058C13.0553 0.947078 13.8961 1.36869 14.707 1.84327C14.8228 1.90608 14.9303 1.98318 15.0269 2.07276C15.1223 2.16876 15.2044 2.27715 15.271 2.39502C16.0376 3.51075 16.6943 4.64112 17.3242 5.77149C17.5366 6.16944 17.6245 6.54541 17.4805 6.78223C16.8872 7.75879 15.8203 6.36963 14.6729 5.44922C14.1846 5.06104 13.5327 4.7168 12.9639 4.32373C12.2314 4.021 11.8994 3.73291 11.1206 3.56934C9.92676 3.4668 9.8291 5.18067 11.3989 5.24414C12.4512 5.28565 14.6484 6.25245 15.2734 7.14112C15.8496 7.9712 15.5322 8.78662 14.3604 8.75733L13.3838 8.57422C11.8237 8.28125 11.8677 8.22266 10.2441 8.52539C9.37256 8.68653 8.45947 8.85499 7.55859 8.68653C7.01172 8.58643 6.72363 8.3667 6.23535 7.99317C5.99706 7.78478 5.73673 7.60304 5.45898 7.45118C5.2358 7.31916 4.99607 7.21736 4.74609 7.14844C4.37256 7.05811 3.84522 7.18506 3.62793 6.8628C3.56758 6.76714 3.53621 6.65606 3.5376 6.54297V2.31934ZM0.244141 1.25977H2.68555C2.7503 1.25977 2.8124 1.28549 2.85818 1.33128C2.90397 1.37706 2.92969 1.43916 2.92969 1.50391V7.43164C2.92969 7.49639 2.90397 7.55849 2.85818 7.60428C2.8124 7.65006 2.7503 7.67579 2.68555 7.67579H0.244141C0.179391 7.67579 0.117292 7.65006 0.0715071 7.60428C0.0257219 7.55849 0 7.49639 0 7.43164V1.50147C0 1.43672 0.0257219 1.37462 0.0715071 1.32884C0.117292 1.28305 0.179391 1.25733 0.244141 1.25733V1.25977ZM16.8457 12.3901C17.1738 12.3897 17.4946 12.4865 17.7676 12.6685C18.0406 12.8505 18.2534 13.1093 18.3792 13.4123C18.505 13.7154 18.538 14.0489 18.4741 14.3707C18.4102 14.6925 18.2523 14.9881 18.0203 15.22C17.7883 15.452 17.4927 15.61 17.1709 15.6738C16.8492 15.7377 16.5156 15.7047 16.2126 15.5789C15.9096 15.4531 15.6508 15.2403 15.4688 14.9673C15.2868 14.6943 15.1899 14.3735 15.1904 14.0454C15.1911 13.6066 15.3657 13.186 15.676 12.8757C15.9862 12.5654 16.4069 12.3908 16.8457 12.3901ZM17.6074 7.75147L22.9492 17.8223L16.5039 21.1572L10.7153 10.271L12.749 9.21875L12.8198 9.2334L14.2236 9.49463C14.2634 9.49836 14.3035 9.49836 14.3433 9.49463C14.6 9.5046 14.8568 9.47579 15.105 9.40918L13.2593 10.376C13.3903 10.6288 13.4156 10.9234 13.3295 11.1949C13.2434 11.4664 13.0531 11.6926 12.8003 11.8237L16.4404 18.5547C16.6933 18.4237 16.9878 18.3984 17.2593 18.4845C17.5308 18.5705 17.757 18.7609 17.8882 19.0137L20.437 17.6929C20.3722 17.5679 20.3326 17.4313 20.3206 17.291C20.3086 17.1506 20.3243 17.0093 20.367 16.8751C20.4096 16.7409 20.4783 16.6164 20.569 16.5087C20.6598 16.401 20.7709 16.3123 20.896 16.2476L17.2583 9.52149C17.1329 9.58628 16.9961 9.62575 16.8555 9.63762C16.7148 9.6495 16.5733 9.63356 16.4388 9.59071C16.3044 9.54786 16.1797 9.47894 16.0719 9.38789C15.9641 9.29684 15.8753 9.18544 15.8105 9.06006L15.7764 9.07959C15.9215 8.95816 16.0417 8.80975 16.1304 8.64258C16.2394 8.43174 16.2987 8.19873 16.3037 7.96143C16.3095 7.88015 16.3095 7.79857 16.3037 7.71729C16.792 7.96143 17.2192 8.00537 17.6099 7.75391L17.6074 7.75147Z" fill="#613EEA"/>
</g>
<defs>
<clipPath id="clip0_208_814">
<rect width="30" height="28.855" fill="white"/>
</clipPath>
</defs>
</svg>
