<svg width="30" height="30" viewBox="0 0 30 30" fill="none" xmlns="http://www.w3.org/2000/svg">
<rect x="2.5" y="2.5" width="25" height="25" rx="6.5" fill="white" stroke="#613EEA" stroke-width="3"/>
<path d="M13.3405 18.3877C13.1084 18.54 12.8962 18.7207 12.7089 18.9256C11.8863 19.6724 11.0711 20.4274 10.2511 21.1767C10.226 21.2202 10.1891 21.2556 10.1446 21.279C10.1002 21.3023 10.05 21.3125 10 21.3085L13.8085 8L15.4504 11.0874C16.0163 12.176 16.5718 13.27 17.1553 14.349C17.1923 14.3935 17.2192 14.4455 17.2344 14.5013C17.2496 14.5571 17.2527 14.6156 17.2434 14.6727C17.2341 14.7298 17.2127 14.7843 17.1806 14.8324C17.1486 14.8806 17.1065 14.9213 17.0574 14.9518C15.8235 16.0646 14.6067 17.1968 13.384 18.3221C13.3761 18.3234 13.3687 18.3262 13.362 18.3305C13.3553 18.3347 13.3495 18.3403 13.345 18.3468C13.3405 18.3533 13.3374 18.3607 13.3357 18.3685C13.3341 18.3762 13.3341 18.3842 13.3356 18.392L13.3405 18.3877Z" fill="#38004D"/>
<path d="M13.3837 18.3223C14.6064 17.1967 15.823 16.0646 17.0571 14.9515C17.1063 14.921 17.1483 14.8803 17.1804 14.8321C17.2125 14.784 17.2339 14.7295 17.2431 14.6724C17.2524 14.6153 17.2494 14.5568 17.2342 14.501C17.219 14.4452 17.192 14.3932 17.155 14.3487C16.5715 13.27 16.016 12.176 15.4501 11.0873L16.1513 8.70402L16.22 8.47052C16.2545 8.47919 16.2854 8.49828 16.3086 8.52518C16.3319 8.55208 16.3462 8.58549 16.3497 8.62084C17.4469 10.713 18.5437 12.8054 19.6401 14.8981C19.6624 14.9239 19.6791 14.9542 19.6889 14.9869C19.6987 15.0196 19.7015 15.054 19.6971 15.0879C19.6927 15.1217 19.6812 15.1543 19.6634 15.1834C19.6455 15.2125 19.6217 15.2375 19.5936 15.2568C17.2518 17.3951 14.9134 19.5371 12.5784 21.6828C12.5582 21.7021 12.5342 21.717 12.5079 21.7265C12.4816 21.736 12.4537 21.7399 12.4258 21.738C12.5039 21.4608 12.5809 21.1833 12.66 20.9063C12.8783 20.1432 13.0988 19.3812 13.3137 18.6176C13.3355 18.5839 13.3492 18.5456 13.3538 18.5057C13.3583 18.4658 13.3536 18.4254 13.3399 18.3876L13.3354 18.392C13.399 18.4014 13.3796 18.3538 13.3837 18.3223Z" fill="#613EEA"/>
</svg>
