                                                                                                           <svg width="32" height="32" viewBox="0 0 32 32" fill="none" xmlns="http://www.w3.org/2000/svg">
<path d="M3.52895 2.07221C2.93695 2.28598 2.43814 2.73546 2.1531 3.31102L1.99414 3.63991V16.0006V28.3614L2.1531 28.6902C2.37784 29.1452 2.82184 29.5947 3.27132 29.8194L3.63858 30.0058L10.6932 30.0222L17.7424 30.0332L17.8575 29.8907C18.011 29.6934 18.0055 29.4193 17.8411 29.2274L17.7095 29.0739L10.7809 29.0465L3.85784 29.0191L3.65503 28.8931C3.40288 28.7396 3.12881 28.4271 3.03014 28.1914C2.96436 28.0379 2.9534 26.0646 2.9534 16.0006C2.9534 2.72998 2.92051 3.83176 3.32066 3.39324C3.74821 2.91635 2.8054 2.95472 13.0119 2.95472C21.6562 2.95472 22.0673 2.9602 22.2756 3.05887C22.5661 3.19043 22.8402 3.46998 22.9827 3.77694C23.0978 4.02361 23.0978 4.06746 23.1143 10.3218C23.1252 15.3593 23.1143 16.631 23.0594 16.6694C23.0211 16.6913 22.884 16.7132 22.7634 16.7132C21.8316 16.7132 20.3406 17.2778 19.3978 17.9794C17.1778 19.6348 16.1966 22.4414 16.9092 25.0999C17.5725 27.5939 19.6609 29.5125 22.1879 29.951C22.7908 30.0606 23.9748 30.0551 24.5559 29.951C25.9372 29.6934 27.1212 29.063 28.1134 28.0654C29.0397 27.128 29.5934 26.1085 29.9332 24.7162C29.9825 24.5134 30.0045 24.0584 29.999 23.3184C29.999 22.3208 29.9825 22.1728 29.8565 21.7014C29.5331 20.4954 28.9191 19.443 28.0476 18.5988C27.5542 18.1165 26.7978 17.5683 26.3812 17.3929C26.0414 17.2504 25.7563 17.382 25.6741 17.7163C25.6028 17.9959 25.7289 18.1603 26.2661 18.4728C26.6334 18.692 26.9294 18.9223 27.3514 19.3443C28.234 20.2214 28.6999 21.071 28.9465 22.2495C29.0891 22.9402 29.0617 24.1351 28.8808 24.7984C28.7382 25.3246 28.3765 26.1085 28.0585 26.5854C27.7516 27.0348 27.0335 27.7529 26.584 28.0599C26.1071 28.3778 25.3233 28.7396 24.7971 28.8821C24.238 29.0356 23.0814 29.0904 22.4784 28.9917C21.2122 28.7889 20.1049 28.1914 19.195 27.2102C17.7698 25.6919 17.3039 23.4993 17.9781 21.5314C18.3509 20.4406 19.1292 19.4101 20.083 18.7304C21.0203 18.0617 21.9741 17.7437 23.2294 17.667C23.772 17.6341 23.8488 17.6177 23.9584 17.4971L24.0845 17.36L24.1009 10.8316C24.1064 6.70405 24.0954 4.16613 24.0625 3.94139C23.9474 3.19591 23.4377 2.51072 22.747 2.17087L22.3852 1.99547L13.0941 1.9845C4.23606 1.97354 3.79206 1.97354 3.52895 2.07221Z" fill="#38004D"/>
<path d="M5.61171 4.71427C5.30475 4.86775 5.09645 5.08153 4.94845 5.39397C4.81689 5.66805 4.81689 5.67901 4.81689 7.64138C4.81689 9.51056 4.82786 9.62567 4.93201 9.86137C5.08001 10.1903 5.28282 10.3986 5.61171 10.552L5.88578 10.6836H12.7157H19.5456L19.6662 10.552C19.7923 10.4205 19.8252 10.2012 19.7539 9.98197C19.6662 9.68597 19.8745 9.69693 12.7102 9.69693H6.07215L5.9406 9.55989L5.80356 9.42834V7.65234C5.80356 5.93664 5.80904 5.87086 5.91867 5.72834L6.0283 5.58582H13.0062H19.9841L20.0992 5.7119C20.2144 5.83797 20.2198 5.88182 20.2198 7.08227C20.2198 8.51293 20.2472 8.65545 20.5652 8.7596C20.7735 8.83086 20.905 8.79797 21.0859 8.639C21.2065 8.52937 21.2065 8.51293 21.2065 7.0713C21.2065 5.42686 21.1901 5.34464 20.757 4.95545C20.3349 4.57175 20.905 4.59916 13.0007 4.59916C5.97349 4.60464 5.82549 4.60464 5.61171 4.71427Z" fill="#38004D"/>
<path d="M17.6438 6.3423C17.2711 6.52319 17.2985 7.08779 17.6877 7.2029L17.8631 7.25223V7.99771C17.8631 8.7103 17.8686 8.75415 17.9891 8.86378C18.0714 8.94052 18.1865 8.98438 18.3126 8.98438C18.8004 8.98438 18.8497 8.86926 18.8497 7.64141C18.8497 6.52319 18.8114 6.39164 18.477 6.30393C18.1755 6.21623 17.8631 6.23268 17.6438 6.3423Z" fill="#613EEA"/>
<path d="M5.77617 12.3226C5.3815 12.4212 5.05261 12.6953 4.90461 13.0516C4.77854 13.3476 4.77854 15.2004 4.90461 15.4964C5.00876 15.754 5.22254 15.9787 5.50209 16.1267C5.71039 16.2418 5.79261 16.2473 7.0972 16.2473H8.47305L8.74165 16.0829C8.90609 15.9787 9.07053 15.8143 9.17468 15.6498L9.33913 15.3812V14.2795V13.1777L9.18564 12.9201C8.85676 12.3609 8.56624 12.2732 7.0698 12.2787C6.45039 12.2842 5.86935 12.3007 5.77617 12.3226ZM8.27024 13.3695C8.36891 13.4682 8.37987 13.5504 8.37987 14.274C8.37987 15.3593 8.46757 15.2881 7.10268 15.2881C6.23661 15.2881 6.02283 15.2716 5.92417 15.2004C5.80906 15.1181 5.80358 15.0852 5.80358 14.274C5.80358 13.4627 5.80906 13.4298 5.92417 13.3476C6.02283 13.2764 6.23661 13.2599 7.10268 13.2599C8.08935 13.2599 8.16609 13.2654 8.27024 13.3695Z" fill="#38004D"/>
<path d="M11.6029 12.339C11.3453 12.4047 10.9835 12.7172 10.8464 12.9913C10.7478 13.1776 10.7368 13.3147 10.7368 14.2739C10.7368 15.4689 10.7533 15.5292 11.1096 15.9074C11.422 16.2253 11.6577 16.2747 12.9842 16.2747C14.3217 16.2747 14.5519 16.2253 14.8918 15.8855C15.2261 15.5566 15.259 15.4031 15.259 14.2739C15.259 13.1447 15.2261 12.9913 14.8918 12.6624C14.5519 12.317 14.3217 12.2732 12.9623 12.2787C12.3264 12.2841 11.718 12.3061 11.6029 12.339ZM14.1682 13.3969C14.3053 13.5339 14.3053 13.5449 14.2888 14.3342C14.2724 15.0523 14.2614 15.14 14.1682 15.2113C14.0038 15.3264 12.014 15.3209 11.8441 15.2003C11.729 15.1181 11.7235 15.0852 11.7235 14.2739C11.7235 13.4627 11.729 13.4298 11.8441 13.3476C11.9427 13.2763 12.1565 13.2598 13.0007 13.2598C14.0312 13.2598 14.0312 13.2598 14.1682 13.3969Z" fill="#38004D"/>
<path d="M17.5181 12.3609C17.1618 12.4705 16.8494 12.7884 16.7452 13.1557C16.6246 13.5558 16.6246 14.992 16.7452 15.3921C16.8549 15.7758 17.1563 16.0773 17.54 16.187C17.8909 16.2911 19.919 16.313 20.3027 16.2144C20.6042 16.1376 20.9714 15.8307 21.103 15.5401C21.1907 15.3483 21.2071 15.1674 21.2071 14.2849C21.2071 13.1667 21.1743 12.9913 20.8892 12.6953C20.807 12.6076 20.6426 12.4815 20.522 12.4212C20.3191 12.3061 20.215 12.3006 19.042 12.2896C18.0443 12.2787 17.7264 12.2951 17.5181 12.3609ZM20.0999 13.3476C20.215 13.4298 20.2205 13.4627 20.2205 14.2739C20.2205 15.0852 20.215 15.1181 20.0999 15.2003C20.0012 15.2716 19.7874 15.288 18.9214 15.288C17.5455 15.288 17.6277 15.3593 17.6552 14.2356C17.6716 13.501 17.6826 13.4078 17.7757 13.3366C17.9402 13.2215 19.93 13.227 20.0999 13.3476Z" fill="#38004D"/>
<path d="M5.46913 18.0671C5.24987 18.1822 5.13476 18.2863 5.00868 18.4891L4.84424 18.7577V19.8924V21.0271L5.00868 21.2902C5.12927 21.4875 5.25535 21.6026 5.46913 21.7122L5.75964 21.8657H7.08616C8.59357 21.8657 8.69771 21.8383 9.04305 21.4327C9.3226 21.1093 9.36645 20.9065 9.36645 19.8814C9.36645 18.8619 9.31164 18.6152 9.02112 18.3082C8.67579 17.9465 8.56068 17.9191 7.08616 17.9191H5.77061L5.46913 18.0671ZM8.28112 18.9989C8.36883 19.0757 8.37979 19.1798 8.37979 19.8814C8.37979 20.5447 8.36334 20.6927 8.2866 20.7804C8.20438 20.8681 8.09475 20.8791 7.08616 20.8791C6.14883 20.8791 5.96246 20.8681 5.8912 20.7914C5.81994 20.7201 5.8035 20.5611 5.8035 19.9143C5.8035 19.4703 5.8309 19.0702 5.85831 19.0099C5.91313 18.9112 5.98438 18.9057 7.04779 18.9057C8.02349 18.9057 8.19342 18.9167 8.28112 18.9989Z" fill="#38004D"/>
<path d="M11.4058 18.0342C11.1317 18.1712 10.8686 18.4727 10.7864 18.7413C10.7535 18.8564 10.737 19.3662 10.748 20.013L10.7645 21.0874L10.9289 21.3285C11.0385 21.482 11.1975 21.6191 11.3893 21.7122L11.6908 21.8657H12.9461C13.7299 21.8657 14.2836 21.8438 14.4151 21.8054C14.6892 21.7177 14.9907 21.4711 15.1387 21.1915C15.2538 20.9777 15.2593 20.89 15.2593 19.8924C15.2593 18.9002 15.2483 18.8071 15.1387 18.6042C14.9907 18.3247 14.7659 18.1109 14.5083 18.0068C14.3439 17.9355 14.0533 17.9191 12.9735 17.9191C11.7292 17.9191 11.625 17.9245 11.4058 18.0342ZM14.2233 19.0373C14.2945 19.1524 14.3055 19.3059 14.289 19.9362C14.2781 20.4789 14.2507 20.7256 14.1959 20.7859C14.1301 20.8681 13.9766 20.8791 13.0283 20.8791C12.3815 20.8791 11.8936 20.8571 11.8279 20.8242C11.7292 20.7694 11.7237 20.6982 11.7237 19.9034C11.7237 19.3004 11.7456 19.0154 11.7895 18.9715C11.8388 18.9222 12.1842 18.9057 12.9954 18.9057H14.1356L14.2233 19.0373Z" fill="#38004D"/>
<path d="M23.1361 19.2347C22.9662 19.3059 22.8511 19.6019 22.8511 19.9637V20.2542L22.577 20.3255C22.2427 20.4132 21.7055 20.7531 21.5191 20.9997C21.256 21.3451 21.1519 21.6411 21.1519 22.085C21.1519 22.8799 21.5191 23.3513 22.3797 23.6582C22.5058 23.7021 22.9169 23.8062 23.2951 23.8939C24.3201 24.1242 24.6052 24.305 24.6052 24.7162C24.6052 25.3465 23.6404 25.7796 22.8401 25.511C22.7031 25.4616 22.4619 25.3136 22.3084 25.1821C21.9576 24.8806 21.7658 24.8587 21.5301 25.0944C21.3327 25.2917 21.3218 25.5055 21.4972 25.7631C21.6671 26.0207 22.1276 26.3277 22.5222 26.4483L22.8511 26.5525V26.832C22.8511 27.2212 22.9388 27.4459 23.1361 27.5446C23.3335 27.6433 23.5363 27.6104 23.7172 27.4459C23.8213 27.3418 23.8378 27.2705 23.8378 26.9307V26.536L24.0406 26.4976C24.5778 26.399 25.1972 25.9276 25.4384 25.4397C25.6138 25.0779 25.6193 24.2996 25.4438 23.9762C25.1807 23.4828 24.7039 23.1978 23.7939 22.9895C22.6264 22.7154 22.3797 22.6277 22.2262 22.403C22.1002 22.2221 22.1166 21.9151 22.2646 21.6959C22.451 21.4218 22.7963 21.2519 23.2348 21.219C23.7172 21.1861 24.0625 21.3012 24.4353 21.6191C24.6381 21.7945 24.7751 21.8658 24.8902 21.8658C25.1095 21.8658 25.3726 21.6027 25.3726 21.3834C25.3726 21.0216 24.808 20.5283 24.1776 20.331L23.8652 20.2323L23.8487 19.9144C23.8323 19.443 23.7994 19.3553 23.6185 19.2621C23.4376 19.1689 23.3225 19.1634 23.1361 19.2347Z" fill="#613EEA"/>
<path d="M5.6446 23.5814C5.37052 23.6855 5.03615 23.9925 4.92104 24.2446C4.83334 24.4365 4.81689 24.6119 4.81689 25.5054C4.81689 26.6675 4.86623 26.8648 5.21704 27.1608C5.55689 27.4513 5.69393 27.4787 6.87245 27.5006C8.47852 27.5335 8.85674 27.4294 9.18563 26.8703L9.33911 26.6072V25.5109C9.33911 24.4913 9.32815 24.3981 9.21852 24.1953C9.08696 23.9432 8.92252 23.7842 8.65393 23.6417C8.484 23.5485 8.31407 23.5375 7.14652 23.5266C6.20371 23.5156 5.77615 23.5321 5.6446 23.5814ZM8.27022 24.6064C8.36889 24.7051 8.37985 24.7873 8.37985 25.4999C8.37985 26.0919 8.35793 26.3112 8.30311 26.3934C8.23185 26.4921 8.14963 26.4975 7.10267 26.4975C6.2366 26.4975 5.96252 26.4811 5.89674 26.4208C5.75971 26.3112 5.75971 24.7435 5.89674 24.5955C5.97897 24.5078 6.0886 24.4968 7.07526 24.4968C8.08933 24.4968 8.16607 24.5023 8.27022 24.6064Z" fill="#38004D"/>
<path d="M11.6029 23.5649C11.3069 23.6526 11.0602 23.8554 10.9013 24.135L10.7368 24.4145V25.4998C10.7368 26.3878 10.7533 26.6181 10.8245 26.7606C10.9506 27.0072 11.1644 27.2265 11.422 27.3635C11.6303 27.4786 11.7125 27.4841 12.9842 27.4841C14.2559 27.4841 14.3381 27.4786 14.5464 27.3635C14.8041 27.2265 15.0124 27.0127 15.1549 26.7441C15.2481 26.5742 15.259 26.4207 15.259 25.5108C15.259 24.5296 15.2536 24.4529 15.1275 24.2062C14.9904 23.9212 14.7383 23.7019 14.4258 23.5868C14.1901 23.5046 11.866 23.4881 11.6029 23.5649ZM14.1682 24.5735C14.2614 24.6447 14.2724 24.7324 14.2888 25.4395C14.3053 26.1576 14.2998 26.2398 14.2011 26.3659L14.0915 26.4975H12.9952C12.151 26.4975 11.8824 26.481 11.8167 26.4207C11.7344 26.3604 11.7235 26.2179 11.7235 25.4779C11.7235 24.7105 11.7344 24.6064 11.8221 24.557C11.877 24.5241 12.3593 24.4967 12.9897 24.4967C13.8284 24.4967 14.0805 24.5132 14.1682 24.5735Z" fill="#38004D"/>
</svg>
