<svg width="18" height="19" viewBox="0 0 18 19" fill="none" xmlns="http://www.w3.org/2000/svg">
<g clip-path="url(#clip0_1202_2451)">
<path d="M0.646767 4.2603C0.44904 4.4568 0.547903 4.78986 0.82404 4.84315C0.885403 4.85314 3.0979 4.86313 5.74677 4.86313C10.424 4.86313 10.574 4.86646 10.9661 4.92974C11.757 5.06297 12.5445 5.3927 13.1786 5.85898C13.2911 5.93891 13.5399 6.15873 13.7343 6.34192L14.0854 6.67831L11.9786 6.69496L9.87177 6.71161L9.67745 6.80154C8.67859 7.25783 8.67859 8.66334 9.67745 9.11963L9.87177 9.20956L13.2809 9.21955L16.6865 9.22621L16.8024 9.33612C17.5729 10.0489 17.3684 11.2645 16.4002 11.7208L16.1445 11.8407L8.45359 11.8574C1.68654 11.8707 0.755858 11.8807 0.697903 11.924C0.578585 12.0139 0.551312 12.0739 0.547903 12.2171C0.547903 12.3337 0.568358 12.3803 0.646767 12.4602L0.745631 12.5568H1.56722H2.38881V12.7966C2.38881 12.9298 2.39904 13.073 2.40927 13.113L2.42972 13.1896H1.68654C0.841085 13.1896 0.71154 13.2129 0.616085 13.3661C0.506994 13.536 0.537676 13.7025 0.697903 13.8291C0.766085 13.8824 0.977449 13.889 3.7729 13.889H6.77631L6.86495 13.8024C6.98768 13.6825 7.01154 13.5493 6.93313 13.3961C6.83768 13.2029 6.77972 13.1929 5.52859 13.1929L4.42745 13.1896L4.4479 13.0864C4.45813 13.0297 4.46836 12.8865 4.46836 12.77V12.5568H8.25245H12.0365V12.7966C12.0365 12.9298 12.0468 13.073 12.057 13.1163L12.0774 13.1896H10.6763C9.16949 13.1896 9.10813 13.1963 8.98881 13.3595C8.90018 13.486 8.91722 13.6659 9.03313 13.7858L9.13199 13.889H13.4684H17.8047L17.9036 13.7925C18.1013 13.5959 18.0024 13.2629 17.7263 13.2096C17.6649 13.1996 16.8229 13.1896 15.8479 13.1896H14.0752L14.0956 13.0864C14.1059 13.0297 14.1161 12.8865 14.1161 12.77V12.5601L15.1831 12.5501C16.1684 12.5368 16.2638 12.5335 16.4684 12.4635C17.7399 12.0472 18.3536 10.645 17.7809 9.46268C17.7127 9.32613 17.5763 9.1163 17.474 8.9964C17.1809 8.64336 14.0581 5.6325 13.7411 5.38937C12.8922 4.74656 12.0297 4.38686 10.9388 4.217C10.649 4.17037 9.97063 4.16371 5.67518 4.16371H0.745631L0.646767 4.2603ZM15.4115 7.97724L16.0081 8.56009L13.0422 8.55343C10.3559 8.54344 10.0661 8.53678 9.97404 8.48682C9.75927 8.37025 9.64336 8.18706 9.64336 7.96058C9.64336 7.72411 9.78313 7.51428 9.99109 7.43102C10.0456 7.41104 10.9559 7.39771 12.4456 7.39771L14.8149 7.39438L15.4115 7.97724ZM3.75245 12.74C3.75245 12.9431 3.68768 13.0997 3.5854 13.1563C3.4729 13.2129 3.31949 13.1929 3.21722 13.1097C3.1354 13.0397 3.12177 13.0031 3.11154 12.7933L3.0979 12.5568H3.42518H3.75245V12.74ZM13.4002 12.74C13.4002 12.9431 13.3354 13.0997 13.2331 13.1563C13.1206 13.2129 12.9672 13.1929 12.8649 13.1097C12.7831 13.0397 12.7695 13.0031 12.7593 12.7933L12.7456 12.5568H13.0729H13.4002V12.74Z" fill="white"/>
<path d="M0.645144 6.7916C0.51219 6.92483 0.505372 7.14465 0.631508 7.27121C0.863326 7.49436 1.2281 7.35114 1.2281 7.03807C1.2281 6.83157 1.09174 6.69502 0.88719 6.69502C0.77469 6.69502 0.723553 6.715 0.645144 6.7916Z" fill="white"/>
<path d="M1.9413 6.79154C1.80153 6.92809 1.80153 7.11794 1.9413 7.26781L2.04016 7.37772L4.21857 7.39438C6.33562 7.41103 6.39698 7.41436 6.51289 7.48097C6.76175 7.62086 6.8538 7.96391 6.71744 8.22703C6.63562 8.38356 6.50266 8.48015 6.30494 8.52345C6.20948 8.54676 5.15266 8.56008 3.4413 8.56008H0.727663L0.635618 8.64668C0.509482 8.77324 0.509482 9.01305 0.635618 9.13961L0.727663 9.2262H3.60153C6.82653 9.2262 6.62198 9.23953 6.98335 8.97974C7.68221 8.48015 7.66857 7.42102 6.96289 6.92809C6.62539 6.68829 6.69016 6.69495 4.23562 6.69495H2.04016L1.9413 6.79154Z" fill="white"/>
<path d="M7.82176 13.2396C7.58654 13.3362 7.52858 13.6026 7.70245 13.7858C7.8354 13.9257 8.0604 13.9324 8.19336 13.8025C8.4729 13.5294 8.18313 13.0864 7.82176 13.2396Z" fill="white"/>
</g>
<defs>
<clipPath id="clip0_1202_2451">
<rect width="18" height="18" fill="white" transform="translate(0 0.5)"/>
</clipPath>
</defs>
</svg>
