<svg width="33" height="32" viewBox="0 0 33 32" fill="none" xmlns="http://www.w3.org/2000/svg">
<g clip-path="url(#clip0_98_528)">
<path d="M1.18151 7.05625C0.819008 7.425 1.00026 8.05 1.50651 8.15C1.61901 8.16875 5.67526 8.1875 10.5315 8.1875C19.1065 8.1875 19.3815 8.19375 20.1003 8.3125C21.5503 8.5625 22.994 9.18125 24.1565 10.0562C24.3628 10.2062 24.819 10.6187 25.1753 10.9625L25.819 11.5937L21.9565 11.625L18.094 11.6562L17.7378 11.825C15.9065 12.6812 15.9065 15.3187 17.7378 16.175L18.094 16.3437L24.344 16.3625L30.5878 16.375L30.8003 16.5812C32.2128 17.9187 31.8378 20.2 30.0628 21.0562L29.594 21.2812L15.494 21.3125C3.08776 21.3375 1.38151 21.3562 1.27526 21.4375C1.05651 21.6062 1.00651 21.7187 1.00026 21.9875C1.00026 22.2062 1.03776 22.2937 1.18151 22.4437L1.36276 22.625H2.86901H4.37526V23.075C4.37526 23.325 4.39401 23.5937 4.41276 23.6687L4.45026 23.8125H3.08776C1.53776 23.8125 1.30026 23.8562 1.12526 24.1437C0.925258 24.4625 0.981508 24.775 1.27526 25.0125C1.40026 25.1125 1.78776 25.125 6.91276 25.125H12.419L12.5815 24.9625C12.8065 24.7375 12.8503 24.4875 12.7065 24.2C12.5315 23.8375 12.4253 23.8187 10.1315 23.8187L8.11276 23.8125L8.15026 23.6187C8.16901 23.5125 8.18776 23.2437 8.18776 23.025V22.625H15.1253H22.0628V23.075C22.0628 23.325 22.0815 23.5937 22.1003 23.675L22.1378 23.8125H19.569C16.8065 23.8125 16.694 23.825 16.4753 24.1312C16.3128 24.3687 16.344 24.7062 16.5565 24.9312L16.7378 25.125H24.6878H32.6378L32.819 24.9437C33.1815 24.575 33.0003 23.95 32.494 23.85C32.3815 23.8312 30.8378 23.8125 29.0503 23.8125H25.8003L25.8378 23.6187C25.8565 23.5125 25.8753 23.2437 25.8753 23.025V22.6312L27.8315 22.6125C29.6378 22.5875 29.8128 22.5812 30.1878 22.45C32.519 21.6687 33.644 19.0375 32.594 16.8187C32.469 16.5625 32.219 16.1687 32.0315 15.9437C31.494 15.2812 25.769 9.63125 25.1878 9.175C23.6315 7.96875 22.0503 7.29375 20.0503 6.975C19.519 6.8875 18.2753 6.875 10.4003 6.875H1.36276L1.18151 7.05625ZM28.2503 14.0312L29.344 15.125L23.9065 15.1125C18.9815 15.0937 18.4503 15.0812 18.2815 14.9875C17.8878 14.7687 17.6753 14.425 17.6753 14C17.6753 13.5562 17.9315 13.1625 18.3128 13.0062C18.4128 12.9687 20.0815 12.9437 22.8128 12.9437L27.1565 12.9375L28.2503 14.0312ZM6.87526 22.9687C6.87526 23.35 6.75651 23.6437 6.56901 23.75C6.36276 23.8562 6.08151 23.8187 5.89401 23.6625C5.74401 23.5312 5.71901 23.4625 5.70026 23.0687L5.67526 22.625H6.27526H6.87526V22.9687ZM24.5628 22.9687C24.5628 23.35 24.444 23.6437 24.2565 23.75C24.0503 23.8562 23.769 23.8187 23.5815 23.6625C23.4315 23.5312 23.4065 23.4625 23.3878 23.0687L23.3628 22.625H23.9628H24.5628V22.9687Z" fill="#38004D"/>
<path d="M1.18163 11.8062C0.937875 12.0562 0.925375 12.4687 1.15663 12.7062C1.58163 13.125 2.25038 12.8562 2.25038 12.2687C2.25038 11.8812 2.00038 11.625 1.62538 11.625C1.41913 11.625 1.32538 11.6625 1.18163 11.8062Z" fill="#38004D"/>
<path d="M3.55645 11.8063C3.3002 12.0625 3.3002 12.4188 3.55645 12.7L3.7377 12.9063L7.73145 12.9375C11.6127 12.9688 11.7252 12.975 11.9377 13.1C12.3939 13.3625 12.5627 14.0063 12.3127 14.5C12.1627 14.7938 11.9189 14.975 11.5564 15.0563C11.3814 15.1 9.44395 15.125 6.30645 15.125H1.33145L1.1627 15.2875C0.931445 15.525 0.931445 15.975 1.1627 16.2125L1.33145 16.375H6.6002C12.5127 16.375 12.1377 16.4 12.8002 15.9125C14.0814 14.975 14.0564 12.9875 12.7627 12.0625C12.1439 11.6125 12.2627 11.625 7.7627 11.625H3.7377L3.55645 11.8063Z" fill="#613EEA"/>
<path d="M14.3378 23.9063C13.9065 24.0875 13.8003 24.5875 14.119 24.9313C14.3628 25.1938 14.7753 25.2063 15.019 24.9625C15.5315 24.45 15.0003 23.6188 14.3378 23.9063Z" fill="#613EEA"/>
</g>
<defs>
<clipPath id="clip0_98_528">
<rect width="33" height="32" fill="white"/>
</clipPath>
</defs>
</svg>
