<svg width="32" height="32" viewBox="0 0 32 32" fill="none" xmlns="http://www.w3.org/2000/svg">
<g clip-path="url(#clip0_92_1079)">
<path d="M8.65625 0.112495C7.5625 0.481245 6.75 1.3375 6.46875 2.40625C6.3875 2.73125 6.375 4.325 6.375 16C6.375 27.675 6.3875 29.2687 6.46875 29.5937C6.75 30.6687 7.64375 31.5875 8.7125 31.9062C9.175 32.0437 22.825 32.0437 23.2875 31.9062C24.3563 31.5875 25.25 30.6687 25.5312 29.5937C25.6125 29.2687 25.625 27.675 25.625 16C25.625 4.325 25.6125 2.73125 25.5312 2.40625C25.25 1.33125 24.3563 0.412497 23.2875 0.0937462C23.025 0.012495 21.9563 -3.8147e-06 15.975 0.00624466C9.56875 0.00624466 8.94375 0.0187454 8.65625 0.112495ZM22.85 1.71875C23.2688 1.84375 23.5813 2.11875 23.7938 2.55L23.9688 2.90625V16V29.0937L23.7938 29.45C23.5813 29.8812 23.2688 30.1562 22.85 30.2812C22.3875 30.4187 9.6125 30.4187 9.15 30.2812C8.73125 30.1562 8.41875 29.8812 8.20625 29.45L8.03125 29.0937V16V2.90625L8.20625 2.55C8.4125 2.13125 8.73125 1.84375 9.125 1.71875C9.55625 1.5875 22.4 1.58125 22.85 1.71875Z" fill="#38004D"/>
<path d="M12.7062 2.725C12.1062 3.025 12.1124 3.925 12.7124 4.2125C12.9812 4.3375 13.1437 4.3375 13.4187 4.20625C14.0249 3.91875 14.0249 3.01875 13.4187 2.73125C13.1437 2.6 12.9624 2.6 12.7062 2.725Z" fill="#613EEA"/>
<path d="M15.4001 2.71249C14.7626 2.99374 14.7751 3.95624 15.4126 4.22499C15.7376 4.36249 18.9939 4.34999 19.2876 4.21249C19.8939 3.92499 19.8939 3.01249 19.2876 2.72499C19.1064 2.63749 18.8064 2.62499 17.3314 2.62499C16.0126 2.63124 15.5501 2.64999 15.4001 2.71249Z" fill="#38004D"/>
<path d="M15.2624 26.2875C14.2499 26.7938 14.0686 28.1812 14.9249 28.95C15.1811 29.1812 15.6749 29.375 15.9999 29.375C16.3249 29.375 16.8186 29.1812 17.0749 28.95C18.1936 27.9438 17.4999 26.125 15.9999 26.125C15.6811 26.125 15.5124 26.1625 15.2624 26.2875Z" fill="#613EEA"/>
</g>
<defs>
<clipPath id="clip0_92_1079">
<rect width="32" height="32" fill="white"/>
</clipPath>
</defs>
</svg>
