<svg width="46" height="46" viewBox="0 0 46 46" fill="none" xmlns="http://www.w3.org/2000/svg">
<path d="M27.0165 3.07189C26.2944 3.29907 25.7021 3.80212 25.3451 4.49989L25.1504 4.865V18.0901V31.3153L25.3451 31.721C25.6048 32.2321 26.0997 32.7271 26.6108 32.9867L27.0165 33.1814H34.0753H41.1342L41.5398 32.9624C42.0429 32.7027 42.5865 32.1267 42.8218 31.6155L43.0003 31.2342V18.0901V4.94613L42.765 4.47555C42.481 3.92382 41.9699 3.42078 41.4344 3.17737C41.053 2.99887 41.0368 2.99887 34.197 2.98264C28.8177 2.96642 27.268 2.99076 27.0165 3.07189ZM40.9719 4.24836C41.3695 4.42686 41.7102 4.8082 41.8238 5.21388C41.8887 5.42484 41.905 9.36804 41.8887 18.3011L41.8644 31.0881L41.6291 31.4208C41.4993 31.6074 41.2559 31.8265 41.0611 31.9238C40.7204 32.0861 40.5906 32.0861 34.0429 32.0861C28.0551 32.0861 27.3492 32.0699 27.1139 31.9563C26.7488 31.7697 26.5784 31.5993 26.3999 31.2585C26.2538 30.9664 26.2457 30.5526 26.2457 18.0658V5.18143L26.481 4.81632C26.6271 4.57291 26.838 4.3863 27.0652 4.27271L27.4222 4.09421H34.0348C40.2741 4.09421 40.6636 4.10232 40.9719 4.24836Z" fill="#38004D"/>
<path d="M32.98 12.5648C30.7568 13.0354 29.0611 14.6987 28.5662 16.8893C28.0063 19.3721 29.2477 21.9928 31.5195 23.1125C31.9414 23.3153 32.5499 23.5425 32.8583 23.6074C34.9597 24.0455 37.1666 23.2585 38.4566 21.6033C39.3004 20.5242 39.6574 19.5019 39.6656 18.1307C39.6737 17.0922 39.5601 16.6135 39.0895 15.6155C38.7731 14.9583 38.6108 14.7392 38.0185 14.1469C37.2558 13.3924 36.4363 12.8974 35.5357 12.6621C34.8461 12.4755 33.6209 12.435 32.98 12.5648ZM35.4222 13.8224C35.7142 13.9198 36.1767 14.1307 36.4445 14.3092C38.8299 15.8508 39.2599 19.007 37.3694 21.149C36.4039 22.2362 34.6838 22.8041 33.2071 22.5202C31.5033 22.1875 30.0104 20.7189 29.6615 19.0394C29.2396 17.0191 30.2457 14.9745 32.0875 14.0901C32.4688 13.9035 32.9637 13.725 33.1828 13.6763C33.7589 13.5628 34.7893 13.6277 35.4222 13.8224Z" fill="#38004D"/>
<path d="M32.5337 29.368C32.2903 29.6114 32.2822 29.8062 32.5013 30.0901L32.6636 30.3011H34.0266C35.122 30.3011 35.4141 30.2767 35.5601 30.1713C35.7954 30.009 35.8035 29.5546 35.5763 29.3275C35.4303 29.1814 35.3086 29.1652 34.0753 29.1652C32.7528 29.1652 32.7285 29.1652 32.5337 29.368Z" fill="#613EEA"/>
<path d="M12.2494 4.57289C11.8762 4.74328 11.6085 5.01102 11.4868 5.33557C11.43 5.4735 11.3975 6.32543 11.3975 7.51001C11.3975 8.57289 11.3732 9.44916 11.3326 9.44916C11.3001 9.44916 10.8377 9.01102 10.3022 8.47553C9.25552 7.42887 9.06079 7.3234 8.72002 7.66417C8.35491 8.02928 8.44416 8.16721 10.1724 9.88729C11.6815 11.3883 11.8113 11.4938 12.0223 11.4451C12.2738 11.3802 15.0567 8.67837 15.2596 8.29703C15.4462 7.93192 15.1866 7.5019 14.7809 7.5019C14.578 7.5019 14.3671 7.66417 13.5314 8.49175L12.5334 9.48161V7.61549C12.5334 6.26863 12.5578 5.72502 12.6308 5.652C12.7038 5.57898 13.9695 5.55464 17.8235 5.55464C22.8133 5.55464 22.9188 5.55464 23.0811 5.39236C23.3164 5.15707 23.292 4.79196 23.0324 4.58912C22.8214 4.41873 22.7565 4.41873 17.6937 4.41873C12.8904 4.41873 12.5578 4.43496 12.2494 4.57289Z" fill="#38004D"/>
<path d="M4.90669 12.8488C4.1927 13.0678 3.49493 13.6926 3.1785 14.3822L3 14.7636V27.9076V41.0516L3.1785 41.4329C3.42191 41.9684 3.92495 42.4796 4.47667 42.7636L4.94726 42.9989H11.925H18.9026L19.284 42.8204C19.7951 42.5851 20.3712 42.0415 20.6308 41.5384L20.8499 41.1327V27.9076V14.6824L20.6552 14.2768C20.3955 13.7656 19.9006 13.2707 19.3895 13.011L18.9838 12.8163L12.0467 12.8001C8.23327 12.792 5.02028 12.8163 4.90669 12.8488ZM18.927 14.0658C19.2677 14.2443 19.4381 14.4147 19.6247 14.7798C19.7465 15.0151 19.7546 16.2078 19.7546 27.9319V40.8163L19.5193 41.1895C19.3651 41.4329 19.1623 41.6114 18.927 41.7332C18.57 41.9035 18.5538 41.9035 11.9574 41.9035C5.72617 41.9035 5.33671 41.8954 5.0284 41.7494C4.63083 41.5709 4.29006 41.1895 4.17647 40.7839C4.11156 40.5729 4.09533 36.6135 4.11156 27.6966L4.1359 14.9177L4.35497 14.5851C4.47667 14.3985 4.71197 14.1875 4.92292 14.082C5.27181 13.9117 5.28803 13.9117 11.9493 13.9117C18.3428 13.9117 18.6349 13.9198 18.927 14.0658Z" fill="#38004D"/>
<path d="M10.6269 22.4228C8.60666 22.9177 7.00828 24.4837 6.4809 26.4877C6.3024 27.1368 6.28617 28.5323 6.44033 29.1652C6.49713 29.4086 6.70808 29.9603 6.91092 30.3822C7.22735 31.0313 7.38962 31.2585 7.98191 31.8508C8.57421 32.4431 8.80139 32.6054 9.45047 32.9218C9.87238 33.1246 10.4241 33.3356 10.6675 33.3924C11.3085 33.5465 12.704 33.5303 13.345 33.3599C15.3896 32.8082 16.9718 31.1611 17.4342 29.1084C17.9941 26.6256 16.7527 24.005 14.4809 22.8853C14.059 22.6824 13.4586 22.4553 13.1422 22.3903C12.3957 22.2362 11.3328 22.2443 10.6269 22.4228ZM12.8744 23.4938C15.2923 23.9968 16.915 26.577 16.3065 28.9624C15.8683 30.6743 14.3998 32.0374 12.6635 32.3376C10.5052 32.7027 8.30646 31.3315 7.64114 29.2058C7.41396 28.4593 7.39774 27.2991 7.6168 26.65C8.12796 25.1327 9.24763 24.005 10.6675 23.583C11.2923 23.3964 12.2172 23.3559 12.8744 23.4938Z" fill="#38004D"/>
<path d="M10.4395 39.1125C10.2042 39.2747 10.1961 39.7291 10.4232 39.9563C10.5693 40.1023 10.691 40.1186 11.9243 40.1186C13.2468 40.1186 13.2711 40.1186 13.4658 39.9157C13.7093 39.6723 13.7174 39.4776 13.4983 39.1936L13.336 38.9827H11.9729C10.8776 38.9827 10.5855 39.007 10.4395 39.1125Z" fill="#613EEA"/>
<path d="M34.1156 35.0488C33.929 35.1137 31.1217 37.921 30.9838 38.1725C30.7972 38.5376 31.0568 38.9676 31.4625 38.9676C31.6653 38.9676 31.8763 38.8053 32.712 37.9778L33.7099 36.9879V38.854C33.7099 40.2009 33.6856 40.7445 33.6126 40.8175C33.5395 40.8905 32.2738 40.9149 28.4199 40.9149C23.43 40.9149 23.3245 40.9149 23.1623 41.0772C22.927 41.3124 22.9513 41.6776 23.2109 41.8804C23.4219 42.0508 23.4868 42.0508 28.5497 42.0508C33.3529 42.0508 33.6856 42.0346 33.9939 41.8966C34.3671 41.7262 34.6349 41.4585 34.7566 41.1339C34.8134 40.996 34.8458 40.1441 34.8458 38.9595C34.8458 37.8966 34.8702 37.0204 34.9107 37.0204C34.9432 37.0204 35.4057 37.4585 35.9412 37.994C36.9878 39.0406 37.1826 39.1461 37.5233 38.8053C37.8884 38.4402 37.7992 38.3023 36.0791 36.5903C35.1947 35.7141 34.4158 34.992 34.3509 35.0001C34.286 35.0001 34.1805 35.0244 34.1156 35.0488Z" fill="#38004D"/>
<path d="M13.0619 27.5072L12.9222 27.9975H10.3564L10.4942 27.5072H13.0619ZM11.7283 30.2235L10.4196 28.7877L10.4215 28.3468H11.0682C11.2123 28.3468 11.3329 28.3221 11.4298 28.2727C11.5267 28.2233 11.5995 28.1563 11.6479 28.0716C11.6964 27.987 11.7213 27.8905 11.7225 27.7824C11.7213 27.6201 11.6696 27.4878 11.5676 27.3855C11.4668 27.282 11.3003 27.2303 11.0682 27.2303H10.3564L10.5133 26.6112H11.0682C11.3935 26.6112 11.6645 26.6564 11.8813 26.747C12.0995 26.8364 12.2627 26.9639 12.3712 27.1297C12.4808 27.2955 12.5363 27.4931 12.5376 27.7224C12.5363 27.9258 12.4993 28.1034 12.4266 28.2551C12.3552 28.4067 12.2423 28.5332 12.088 28.6343C11.9349 28.7354 11.7353 28.8107 11.4891 28.8601L11.4585 28.8706L12.6294 30.1917V30.2235H11.7283ZM13.0657 26.6112L12.9222 27.1086H10.8099L10.9534 26.6112H13.0657Z" fill="#613EEA"/>
<path d="M35.639 17.5734L35.4993 18.0637H32.9336L33.0714 17.5734H35.639ZM34.3054 20.2896L32.9967 18.8539L32.9986 18.4129H33.6453C33.7895 18.4129 33.91 18.3882 34.007 18.3389C34.1039 18.2895 34.1766 18.2224 34.2251 18.1378C34.2735 18.0531 34.2984 17.9567 34.2997 17.8485C34.2984 17.6862 34.2468 17.554 34.1447 17.4517C34.0439 17.3482 33.8775 17.2964 33.6453 17.2964H32.9336L33.0905 16.6773H33.6453C33.9706 16.6773 34.2417 16.7226 34.4585 16.8132C34.6766 16.9025 34.8399 17.0301 34.9483 17.1959C35.058 17.3617 35.1135 17.5592 35.1148 17.7885C35.1135 17.992 35.0765 18.1695 35.0038 18.3212C34.9324 18.4729 34.8195 18.5993 34.6651 18.7004C34.5121 18.8016 34.3124 18.8768 34.0663 18.9262L34.0357 18.9368L35.2066 20.2579V20.2896H34.3054ZM35.6428 16.6773L35.4993 17.1747H33.387L33.5305 16.6773H35.6428Z" fill="#613EEA"/>
</svg>
