<svg width="32" height="32" viewBox="0 0 32 32" fill="none" xmlns="http://www.w3.org/2000/svg">
<mask id="path-1-outside-1_81_592" maskUnits="userSpaceOnUse" x="2.69824" y="1.00874" width="26" height="30" fill="black">
<rect fill="white" x="2.69824" y="1.00874" width="26" height="30"/>
<path d="M22.9263 2.0307C22.5816 2.11278 5.76631 6.99374 5.58027 7.07035C4.96741 7.31112 4.3655 7.84737 4.0536 8.44381C3.75264 9.02383 3.67604 9.35762 3.7034 10.0307C3.72528 10.5669 3.76359 10.7256 4.1904 12.1428L4.65004 13.675L4.6774 20.5696C4.70476 26.8076 4.72117 27.4916 4.80325 27.7652C5.13157 28.8432 5.94689 29.653 6.97561 29.9266C7.22732 29.9923 7.90037 30.0087 10.9318 30.0087H14.5925L14.7512 29.85C14.9592 29.6366 14.9701 29.3192 14.7786 29.0949L14.6473 28.9417L11.0413 28.9143C7.45167 28.887 7.44073 28.887 7.12883 28.7611C6.58163 28.5422 6.1986 28.1592 5.97972 27.612L5.85387 27.3001L5.83745 23.426L5.82103 19.5573H16.5241H27.2272L27.2108 23.4862L27.1944 27.4095L27.0467 27.7214C26.7512 28.3507 26.204 28.7611 25.52 28.8596C25.3285 28.887 23.665 28.9143 21.8264 28.9143H18.4831L18.3408 29.0511C18.1931 29.2043 18.1384 29.3849 18.1821 29.5983C18.1931 29.6694 18.2697 29.7953 18.3408 29.8719L18.4831 30.0087H22.1602C26.1876 30.0087 26.0617 30.0196 26.7402 29.6749C27.1178 29.4834 27.6431 29.0073 27.8839 28.6352C27.9769 28.482 28.1246 28.1975 28.2012 27.995L28.3435 27.6284L28.3599 20.6407L28.3709 13.6531L28.2122 13.4725L28.0535 13.2919L18.7622 13.2646L9.46534 13.2372L18.2478 10.6982C23.0795 9.3029 27.1014 8.12096 27.1944 8.07171C27.2874 8.017 27.3859 7.89661 27.4297 7.77623C27.5063 7.58471 27.4899 7.51905 27.0576 6.00332C26.5214 4.13192 26.39 3.75436 26.1547 3.38227C25.7498 2.74752 25.0822 2.26052 24.3545 2.069C24.0918 1.99787 23.1671 1.97598 22.9263 2.0307ZM24.4201 3.33302C24.8086 3.54095 25.1315 3.86927 25.2902 4.214C25.4817 4.64081 26.1985 7.14696 26.1329 7.18526C26.1 7.20715 25.624 7.35489 25.0658 7.51358L24.059 7.80906L22.111 5.93219C21.0385 4.89799 20.1739 4.04437 20.1849 4.03343C20.1903 4.02248 20.8743 3.82002 21.7006 3.57926C23.1288 3.15792 23.2218 3.1415 23.665 3.15792C24.0535 3.16886 24.1794 3.20169 24.4201 3.33302ZM20.9673 6.44655C21.9413 7.37678 22.7184 8.15927 22.691 8.18115C22.6691 8.20304 22.0453 8.39456 21.2957 8.60796L19.9441 9.00194L18.0016 7.13054C16.9291 6.10182 16.07 5.24272 16.0864 5.22631C16.1028 5.20989 16.7266 5.02385 17.4708 4.80497L18.8223 4.41646L19.0139 4.58062C19.1178 4.66817 19.9933 5.51085 20.9673 6.44655ZM16.6773 7.47527C17.7498 8.504 18.6199 9.35215 18.6089 9.36856C18.5925 9.37951 17.9633 9.57102 17.2027 9.7899L15.8237 10.1948L13.8921 8.3289C12.8251 7.30564 11.9551 6.45202 11.9551 6.43013C11.9551 6.40825 14.5378 5.63123 14.6965 5.60934C14.7129 5.60387 15.6049 6.44655 16.6773 7.47527ZM12.5843 8.69004C13.6514 9.71329 14.5159 10.556 14.5105 10.5614C14.505 10.5669 13.8702 10.7584 13.1042 10.9773L11.7034 11.3877L9.79366 9.54366C8.74852 8.53683 7.87848 7.68321 7.86754 7.65038C7.84565 7.59019 10.4339 6.8077 10.5761 6.82411C10.6144 6.82958 11.5228 7.67226 12.5843 8.69004ZM8.48039 9.89934L10.4229 11.7543L9.99612 11.8802C6.90995 12.7776 5.71159 13.1114 5.68424 13.084C5.66235 13.0621 5.46536 12.4164 5.24101 11.6394C4.85797 10.3207 4.83061 10.2003 4.8525 9.81179C4.88533 9.2646 5.06591 8.88156 5.4763 8.50947C5.76631 8.24134 6.24784 8.00058 6.44483 8.02794C6.49955 8.03341 7.41337 8.87609 8.48039 9.89934ZM10.4558 14.6435C10.3792 14.7748 9.86479 15.6668 9.30665 16.6298L8.29435 18.3808L7.06316 18.3973L5.82651 18.4082V16.4109V14.4137H8.2068H10.5926L10.4558 14.6435ZM14.8443 14.4575C14.8388 14.4848 14.3244 15.3822 13.7061 16.4547L12.5843 18.4027L11.1179 18.4082C10.1986 18.4082 9.65686 18.3863 9.6678 18.3535C9.67875 18.3261 10.1876 17.4287 10.806 16.3617L11.9277 14.4137H13.3942C14.204 14.4137 14.8552 14.4356 14.8443 14.4575ZM19.1233 14.452C19.1233 14.4684 18.6144 15.3658 17.9906 16.4492L16.8579 18.4082H15.386C14.5816 18.4082 13.9304 18.3918 13.9414 18.3644C14.0672 18.1401 16.0919 14.6271 16.1466 14.5341C16.2232 14.4137 16.2287 14.4137 17.6732 14.4137C18.4721 14.4137 19.1233 14.4301 19.1233 14.452ZM23.3969 14.5067C23.3695 14.5614 22.8552 15.4534 22.2533 16.493L21.1589 18.3808L19.676 18.3973L18.1985 18.4082L18.7731 17.4123C19.0959 16.8596 19.6103 15.9622 19.9277 15.4096L20.5022 14.4137H21.9797C23.3641 14.4137 23.4461 14.4192 23.3969 14.5067ZM27.2218 16.4109V18.4082H24.8634C23.5282 18.4082 22.5159 18.3863 22.5268 18.359C22.5378 18.3316 23.0467 17.4342 23.665 16.3617L24.7868 14.4137H26.007H27.2218V16.4109Z"/>
</mask>
<path d="M22.9263 2.0307C22.5816 2.11278 5.76631 6.99374 5.58027 7.07035C4.96741 7.31112 4.3655 7.84737 4.0536 8.44381C3.75264 9.02383 3.67604 9.35762 3.7034 10.0307C3.72528 10.5669 3.76359 10.7256 4.1904 12.1428L4.65004 13.675L4.6774 20.5696C4.70476 26.8076 4.72117 27.4916 4.80325 27.7652C5.13157 28.8432 5.94689 29.653 6.97561 29.9266C7.22732 29.9923 7.90037 30.0087 10.9318 30.0087H14.5925L14.7512 29.85C14.9592 29.6366 14.9701 29.3192 14.7786 29.0949L14.6473 28.9417L11.0413 28.9143C7.45167 28.887 7.44073 28.887 7.12883 28.7611C6.58163 28.5422 6.1986 28.1592 5.97972 27.612L5.85387 27.3001L5.83745 23.426L5.82103 19.5573H16.5241H27.2272L27.2108 23.4862L27.1944 27.4095L27.0467 27.7214C26.7512 28.3507 26.204 28.7611 25.52 28.8596C25.3285 28.887 23.665 28.9143 21.8264 28.9143H18.4831L18.3408 29.0511C18.1931 29.2043 18.1384 29.3849 18.1821 29.5983C18.1931 29.6694 18.2697 29.7953 18.3408 29.8719L18.4831 30.0087H22.1602C26.1876 30.0087 26.0617 30.0196 26.7402 29.6749C27.1178 29.4834 27.6431 29.0073 27.8839 28.6352C27.9769 28.482 28.1246 28.1975 28.2012 27.995L28.3435 27.6284L28.3599 20.6407L28.3709 13.6531L28.2122 13.4725L28.0535 13.2919L18.7622 13.2646L9.46534 13.2372L18.2478 10.6982C23.0795 9.3029 27.1014 8.12096 27.1944 8.07171C27.2874 8.017 27.3859 7.89661 27.4297 7.77623C27.5063 7.58471 27.4899 7.51905 27.0576 6.00332C26.5214 4.13192 26.39 3.75436 26.1547 3.38227C25.7498 2.74752 25.0822 2.26052 24.3545 2.069C24.0918 1.99787 23.1671 1.97598 22.9263 2.0307ZM24.4201 3.33302C24.8086 3.54095 25.1315 3.86927 25.2902 4.214C25.4817 4.64081 26.1985 7.14696 26.1329 7.18526C26.1 7.20715 25.624 7.35489 25.0658 7.51358L24.059 7.80906L22.111 5.93219C21.0385 4.89799 20.1739 4.04437 20.1849 4.03343C20.1903 4.02248 20.8743 3.82002 21.7006 3.57926C23.1288 3.15792 23.2218 3.1415 23.665 3.15792C24.0535 3.16886 24.1794 3.20169 24.4201 3.33302ZM20.9673 6.44655C21.9413 7.37678 22.7184 8.15927 22.691 8.18115C22.6691 8.20304 22.0453 8.39456 21.2957 8.60796L19.9441 9.00194L18.0016 7.13054C16.9291 6.10182 16.07 5.24272 16.0864 5.22631C16.1028 5.20989 16.7266 5.02385 17.4708 4.80497L18.8223 4.41646L19.0139 4.58062C19.1178 4.66817 19.9933 5.51085 20.9673 6.44655ZM16.6773 7.47527C17.7498 8.504 18.6199 9.35215 18.6089 9.36856C18.5925 9.37951 17.9633 9.57102 17.2027 9.7899L15.8237 10.1948L13.8921 8.3289C12.8251 7.30564 11.9551 6.45202 11.9551 6.43013C11.9551 6.40825 14.5378 5.63123 14.6965 5.60934C14.7129 5.60387 15.6049 6.44655 16.6773 7.47527ZM12.5843 8.69004C13.6514 9.71329 14.5159 10.556 14.5105 10.5614C14.505 10.5669 13.8702 10.7584 13.1042 10.9773L11.7034 11.3877L9.79366 9.54366C8.74852 8.53683 7.87848 7.68321 7.86754 7.65038C7.84565 7.59019 10.4339 6.8077 10.5761 6.82411C10.6144 6.82958 11.5228 7.67226 12.5843 8.69004ZM8.48039 9.89934L10.4229 11.7543L9.99612 11.8802C6.90995 12.7776 5.71159 13.1114 5.68424 13.084C5.66235 13.0621 5.46536 12.4164 5.24101 11.6394C4.85797 10.3207 4.83061 10.2003 4.8525 9.81179C4.88533 9.2646 5.06591 8.88156 5.4763 8.50947C5.76631 8.24134 6.24784 8.00058 6.44483 8.02794C6.49955 8.03341 7.41337 8.87609 8.48039 9.89934ZM10.4558 14.6435C10.3792 14.7748 9.86479 15.6668 9.30665 16.6298L8.29435 18.3808L7.06316 18.3973L5.82651 18.4082V16.4109V14.4137H8.2068H10.5926L10.4558 14.6435ZM14.8443 14.4575C14.8388 14.4848 14.3244 15.3822 13.7061 16.4547L12.5843 18.4027L11.1179 18.4082C10.1986 18.4082 9.65686 18.3863 9.6678 18.3535C9.67875 18.3261 10.1876 17.4287 10.806 16.3617L11.9277 14.4137H13.3942C14.204 14.4137 14.8552 14.4356 14.8443 14.4575ZM19.1233 14.452C19.1233 14.4684 18.6144 15.3658 17.9906 16.4492L16.8579 18.4082H15.386C14.5816 18.4082 13.9304 18.3918 13.9414 18.3644C14.0672 18.1401 16.0919 14.6271 16.1466 14.5341C16.2232 14.4137 16.2287 14.4137 17.6732 14.4137C18.4721 14.4137 19.1233 14.4301 19.1233 14.452ZM23.3969 14.5067C23.3695 14.5614 22.8552 15.4534 22.2533 16.493L21.1589 18.3808L19.676 18.3973L18.1985 18.4082L18.7731 17.4123C19.0959 16.8596 19.6103 15.9622 19.9277 15.4096L20.5022 14.4137H21.9797C23.3641 14.4137 23.4461 14.4192 23.3969 14.5067ZM27.2218 16.4109V18.4082H24.8634C23.5282 18.4082 22.5159 18.3863 22.5268 18.359C22.5378 18.3316 23.0467 17.4342 23.665 16.3617L24.7868 14.4137H26.007H27.2218V16.4109Z" fill="#38004D"/>
<path d="M22.9263 2.0307C22.5816 2.11278 5.76631 6.99374 5.58027 7.07035C4.96741 7.31112 4.3655 7.84737 4.0536 8.44381C3.75264 9.02383 3.67604 9.35762 3.7034 10.0307C3.72528 10.5669 3.76359 10.7256 4.1904 12.1428L4.65004 13.675L4.6774 20.5696C4.70476 26.8076 4.72117 27.4916 4.80325 27.7652C5.13157 28.8432 5.94689 29.653 6.97561 29.9266C7.22732 29.9923 7.90037 30.0087 10.9318 30.0087H14.5925L14.7512 29.85C14.9592 29.6366 14.9701 29.3192 14.7786 29.0949L14.6473 28.9417L11.0413 28.9143C7.45167 28.887 7.44073 28.887 7.12883 28.7611C6.58163 28.5422 6.1986 28.1592 5.97972 27.612L5.85387 27.3001L5.83745 23.426L5.82103 19.5573H16.5241H27.2272L27.2108 23.4862L27.1944 27.4095L27.0467 27.7214C26.7512 28.3507 26.204 28.7611 25.52 28.8596C25.3285 28.887 23.665 28.9143 21.8264 28.9143H18.4831L18.3408 29.0511C18.1931 29.2043 18.1384 29.3849 18.1821 29.5983C18.1931 29.6694 18.2697 29.7953 18.3408 29.8719L18.4831 30.0087H22.1602C26.1876 30.0087 26.0617 30.0196 26.7402 29.6749C27.1178 29.4834 27.6431 29.0073 27.8839 28.6352C27.9769 28.482 28.1246 28.1975 28.2012 27.995L28.3435 27.6284L28.3599 20.6407L28.3709 13.6531L28.2122 13.4725L28.0535 13.2919L18.7622 13.2646L9.46534 13.2372L18.2478 10.6982C23.0795 9.3029 27.1014 8.12096 27.1944 8.07171C27.2874 8.017 27.3859 7.89661 27.4297 7.77623C27.5063 7.58471 27.4899 7.51905 27.0576 6.00332C26.5214 4.13192 26.39 3.75436 26.1547 3.38227C25.7498 2.74752 25.0822 2.26052 24.3545 2.069C24.0918 1.99787 23.1671 1.97598 22.9263 2.0307ZM24.4201 3.33302C24.8086 3.54095 25.1315 3.86927 25.2902 4.214C25.4817 4.64081 26.1985 7.14696 26.1329 7.18526C26.1 7.20715 25.624 7.35489 25.0658 7.51358L24.059 7.80906L22.111 5.93219C21.0385 4.89799 20.1739 4.04437 20.1849 4.03343C20.1903 4.02248 20.8743 3.82002 21.7006 3.57926C23.1288 3.15792 23.2218 3.1415 23.665 3.15792C24.0535 3.16886 24.1794 3.20169 24.4201 3.33302ZM20.9673 6.44655C21.9413 7.37678 22.7184 8.15927 22.691 8.18115C22.6691 8.20304 22.0453 8.39456 21.2957 8.60796L19.9441 9.00194L18.0016 7.13054C16.9291 6.10182 16.07 5.24272 16.0864 5.22631C16.1028 5.20989 16.7266 5.02385 17.4708 4.80497L18.8223 4.41646L19.0139 4.58062C19.1178 4.66817 19.9933 5.51085 20.9673 6.44655ZM16.6773 7.47527C17.7498 8.504 18.6199 9.35215 18.6089 9.36856C18.5925 9.37951 17.9633 9.57102 17.2027 9.7899L15.8237 10.1948L13.8921 8.3289C12.8251 7.30564 11.9551 6.45202 11.9551 6.43013C11.9551 6.40825 14.5378 5.63123 14.6965 5.60934C14.7129 5.60387 15.6049 6.44655 16.6773 7.47527ZM12.5843 8.69004C13.6514 9.71329 14.5159 10.556 14.5105 10.5614C14.505 10.5669 13.8702 10.7584 13.1042 10.9773L11.7034 11.3877L9.79366 9.54366C8.74852 8.53683 7.87848 7.68321 7.86754 7.65038C7.84565 7.59019 10.4339 6.8077 10.5761 6.82411C10.6144 6.82958 11.5228 7.67226 12.5843 8.69004ZM8.48039 9.89934L10.4229 11.7543L9.99612 11.8802C6.90995 12.7776 5.71159 13.1114 5.68424 13.084C5.66235 13.0621 5.46536 12.4164 5.24101 11.6394C4.85797 10.3207 4.83061 10.2003 4.8525 9.81179C4.88533 9.2646 5.06591 8.88156 5.4763 8.50947C5.76631 8.24134 6.24784 8.00058 6.44483 8.02794C6.49955 8.03341 7.41337 8.87609 8.48039 9.89934ZM10.4558 14.6435C10.3792 14.7748 9.86479 15.6668 9.30665 16.6298L8.29435 18.3808L7.06316 18.3973L5.82651 18.4082V16.4109V14.4137H8.2068H10.5926L10.4558 14.6435ZM14.8443 14.4575C14.8388 14.4848 14.3244 15.3822 13.7061 16.4547L12.5843 18.4027L11.1179 18.4082C10.1986 18.4082 9.65686 18.3863 9.6678 18.3535C9.67875 18.3261 10.1876 17.4287 10.806 16.3617L11.9277 14.4137H13.3942C14.204 14.4137 14.8552 14.4356 14.8443 14.4575ZM19.1233 14.452C19.1233 14.4684 18.6144 15.3658 17.9906 16.4492L16.8579 18.4082H15.386C14.5816 18.4082 13.9304 18.3918 13.9414 18.3644C14.0672 18.1401 16.0919 14.6271 16.1466 14.5341C16.2232 14.4137 16.2287 14.4137 17.6732 14.4137C18.4721 14.4137 19.1233 14.4301 19.1233 14.452ZM23.3969 14.5067C23.3695 14.5614 22.8552 15.4534 22.2533 16.493L21.1589 18.3808L19.676 18.3973L18.1985 18.4082L18.7731 17.4123C19.0959 16.8596 19.6103 15.9622 19.9277 15.4096L20.5022 14.4137H21.9797C23.3641 14.4137 23.4461 14.4192 23.3969 14.5067ZM27.2218 16.4109V18.4082H24.8634C23.5282 18.4082 22.5159 18.3863 22.5268 18.359C22.5378 18.3316 23.0467 17.4342 23.665 16.3617L24.7868 14.4137H26.007H27.2218V16.4109Z" stroke="#38004D" stroke-width="0.4" mask="url(#path-1-outside-1_81_592)"/>
<path d="M14.5762 20.9745L14.4175 21.1332V24.1537V27.1742L14.5762 27.3329C14.7622 27.519 15.0303 27.5463 15.3039 27.4041C15.4681 27.3165 19.9058 24.7611 20.1083 24.6298C20.3655 24.4711 20.4038 24.0169 20.1794 23.7762C20.0919 23.6886 18.9264 22.9882 17.5857 22.2167C14.8935 20.6681 14.8881 20.6681 14.5762 20.9745ZM17.334 23.415C18.0125 23.8035 18.5761 24.1373 18.5761 24.1537C18.5761 24.1701 17.9797 24.5258 17.2519 24.9472C16.5187 25.363 15.8402 25.757 15.7472 25.8117L15.5666 25.9157V24.1592V22.4027L15.8292 22.5504C15.9715 22.638 16.65 23.021 17.334 23.415Z" fill="#613EEA"/>
<path d="M16.1521 29.0511C15.7854 29.4232 16.0207 30.0087 16.5351 30.0087C16.7321 30.0087 16.8087 29.9759 16.94 29.85C17.2957 29.4889 17.0495 28.9143 16.5351 28.9143C16.3491 28.9143 16.2615 28.9471 16.1521 29.0511Z" fill="#613EEA"/>
</svg>
