<svg width="32" height="32" viewBox="0 0 32 32" fill="none" xmlns="http://www.w3.org/2000/svg">
<path d="M2.66875 3.15C1.95 3.45 1.525 3.85 1.20625 4.5375L1.03125 4.90625V16V27.0938L1.23125 27.5125C1.4875 28.0625 1.9375 28.5125 2.4875 28.7687L2.90625 28.9688H16H29.0938L29.5125 28.7687C30.0625 28.5125 30.5125 28.0625 30.7688 27.5125L30.9688 27.0938V16V4.90625L30.7688 4.4875C30.5125 3.9375 30.0625 3.4875 29.5125 3.23125L29.0938 3.03125L16.0625 3.01875L3.03125 3L2.66875 3.15ZM5.55 5.075C5.53125 5.11875 5.23125 6.01875 4.88125 7.075L4.2375 9H3.61875H2.99375L3.0125 7.23125C3.03125 5.2625 3.05 5.1875 3.45625 5.06875C3.5625 5.0375 4.0875 5.00625 4.61875 5.00625C5.3625 5 5.56875 5.01875 5.55 5.075ZM10.55 5.075C10.5312 5.11875 10.2312 6.01875 9.88125 7.075L9.2375 9H7.83125C6.73125 9 6.43125 8.98125 6.45 8.91875C6.46875 8.88125 6.76875 7.98125 7.11875 6.91875L7.7625 5H9.16875C10.2688 5 10.5688 5.01875 10.55 5.075ZM15.55 5.075C15.5312 5.11875 15.2312 6.01875 14.8813 7.075L14.2375 9H12.8313C11.7312 9 11.4313 8.98125 11.45 8.91875C11.4688 8.88125 11.7688 7.98125 12.1188 6.91875L12.7625 5H14.1687C15.2688 5 15.5688 5.01875 15.55 5.075ZM20.55 5.075C20.5312 5.11875 20.2313 6.01875 19.8813 7.075L19.2375 9H17.8313C16.7312 9 16.4313 8.98125 16.45 8.91875C16.4688 8.88125 16.7688 7.98125 17.1187 6.91875L17.7625 5H19.1688C20.2688 5 20.5688 5.01875 20.55 5.075ZM25.55 5.075C25.5312 5.11875 25.2313 6.01875 24.8813 7.075L24.2375 9H22.8313C21.7313 9 21.4312 8.98125 21.45 8.91875C21.4688 8.88125 21.7688 7.98125 22.1187 6.91875L22.7625 5H24.1688C25.2688 5 25.5688 5.01875 25.55 5.075ZM28.7188 5.15C28.9625 5.3125 29 5.60625 29 7.35625V9H27.7125C26.7063 9 26.4312 8.98125 26.45 8.91875C26.4688 8.88125 26.7688 7.975 27.125 6.9125L27.7688 4.98125L28.1625 5.01875C28.3813 5.03125 28.6313 5.09375 28.7188 5.15ZM28.9875 18.7688C28.9688 27.475 29.0063 26.8 28.5188 26.9312C28.1875 27.025 3.8125 27.025 3.48125 26.9312C2.99375 26.8 3.03125 27.475 3.0125 18.7688L3 11H16H29L28.9875 18.7688Z" fill="#38004D"/>
<path d="M12.2 14.125C12.0875 14.1937 11.9438 14.3375 11.875 14.45C11.7563 14.65 11.75 14.775 11.75 19C11.75 23.225 11.7563 23.35 11.875 23.55C12.0625 23.8563 12.3438 24 12.7563 24H13.1063L16.5375 21.8875C19.1375 20.2938 20 19.7312 20.1062 19.5687C20.3063 19.275 20.3063 18.725 20.1062 18.4313C20 18.2687 19.1375 17.7062 16.5375 16.1062L13.1063 14H12.7563C12.5188 14 12.3438 14.0375 12.2 14.125ZM15.5 17.9125C16.425 18.4812 17.1875 18.975 17.1875 19C17.1875 19.0437 13.85 21.125 13.7812 21.125C13.7625 21.125 13.75 20.1688 13.75 19C13.75 17.8312 13.7625 16.875 13.7812 16.875C13.8 16.875 14.5688 17.3438 15.5 17.9125Z" fill="#613EEA"/>
</svg>
