<?xml version="1.0" standalone="no"?>
<!DOCTYPE svg PUBLIC "-//W3C//DTD SVG 20010904//EN"
 "http://www.w3.org/TR/2001/REC-SVG-20010904/DTD/svg10.dtd">
<svg version="1.0" xmlns="http://www.w3.org/2000/svg"
 width="50.000000pt" height="50.000000pt" viewBox="0 0 50.000000 50.000000"
 preserveAspectRatio="xMidYMid meet">

<g transform="translate(0.000000,50.000000) scale(0.100000,-0.100000)"
fill="#000000" stroke="none">
<path d="M120 440 c-15 -27 1 -54 50 -85 64 -40 60 -45 -44 -45 l-96 0 0 -130
0 -130 220 0 220 0 0 130 0 130 -84 0 c-47 0 -87 4 -90 9 -6 9 20 35 46 44 30
10 51 53 38 76 -21 40 -100 16 -100 -31 0 -9 -7 -21 -15 -28 -18 -15 -45 2
-45 30 0 44 -79 68 -100 30z m72 -7 c10 -9 18 -21 18 -27 0 -6 36 -47 80 -91
58 -57 80 -87 80 -105 0 -22 -11 -14 -88 63 -48 48 -93 87 -100 87 -7 0 -24
11 -38 25 -20 20 -23 28 -14 45 13 24 37 26 62 3z m176 -11 c4 -27 -14 -52
-36 -52 -8 0 -24 -8 -34 -17 -27 -24 -49 -2 -25 25 9 10 17 22 17 27 0 5 8 17
17 27 23 25 57 19 61 -10z m-288 -136 c0 -2 -7 -9 -15 -16 -12 -10 -15 -10
-15 4 0 9 7 16 15 16 8 0 15 -2 15 -4z m160 -6 c0 -5 -6 -10 -14 -10 -25 0
-56 -50 -56 -90 0 -40 31 -90 56 -90 8 0 14 -4 14 -10 0 -6 -31 -10 -72 -10
-64 0 -76 3 -95 24 -33 34 -33 138 0 172 19 21 31 24 95 24 41 0 72 -4 72 -10z
m188 -14 c18 -19 22 -35 22 -86 0 -51 -4 -67 -22 -86 -20 -21 -32 -24 -95 -24
-42 0 -73 4 -73 10 0 6 6 10 14 10 21 0 56 48 56 76 0 27 12 31 30 9 7 -8 17
-12 22 -9 16 10 -1 66 -29 96 l-27 28 40 0 c28 0 45 -7 62 -24z m22 8 c0 -14
-3 -14 -15 -4 -8 7 -15 14 -15 16 0 2 7 4 15 4 8 0 15 -7 15 -16z m-210 -29
c0 -8 5 -15 10 -15 6 0 10 7 10 15 0 21 10 19 37 -7 30 -28 32 -89 3 -118 -24
-24 -40 -26 -40 -5 0 8 -4 15 -10 15 -5 0 -10 -7 -10 -15 0 -22 -27 -18 -44 7
-31 44 -10 138 30 138 8 0 14 -7 14 -15z m-170 -160 c10 -12 10 -15 -4 -15 -9
0 -16 7 -16 15 0 8 2 15 4 15 2 0 9 -7 16 -15z m380 0 c0 -8 -7 -15 -16 -15
-14 0 -14 3 -4 15 7 8 14 15 16 15 2 0 4 -7 4 -15z"/>
<path d="M162 411 c4 -13 18 -16 19 -4 0 4 -5 9 -11 12 -7 2 -11 -2 -8 -8z"/>
<path d="M320 404 c0 -8 5 -12 10 -9 6 3 10 10 10 16 0 5 -4 9 -10 9 -5 0 -10
-7 -10 -16z"/>
<path d="M240 180 c0 -16 5 -30 10 -30 6 0 10 14 10 30 0 17 -4 30 -10 30 -5
0 -10 -13 -10 -30z"/>
</g>
</svg>
