<?xml version="1.0" standalone="no"?>
<!DOCTYPE svg PUBLIC "-//W3C//DTD SVG 20010904//EN"
 "http://www.w3.org/TR/2001/REC-SVG-20010904/DTD/svg10.dtd">
<svg version="1.0" xmlns="http://www.w3.org/2000/svg"
 width="100.000000pt" height="100.000000pt" viewBox="0 0 100.000000 100.000000"
 preserveAspectRatio="xMidYMid meet">

<g transform="translate(0.000000,100.000000) scale(0.100000,-0.100000)"
fill="#000000" stroke="none">
<path d="M457 954 c-4 -4 -7 -18 -7 -30 0 -12 -7 -30 -16 -38 -14 -15 -18 -14
-44 4 -37 26 -41 25 -74 -9 l-28 -30 20 -33 c24 -39 19 -51 -28 -64 -33 -9
-35 -12 -35 -54 0 -42 2 -44 34 -51 45 -9 54 -27 30 -60 -25 -35 -24 -40 10
-73 l30 -28 33 20 c39 24 51 19 64 -28 9 -33 12 -35 54 -35 42 0 44 2 53 35
12 46 25 53 58 29 35 -25 40 -24 73 10 l28 30 -20 33 c-24 39 -19 51 28 64 33
9 35 12 35 54 0 42 -2 44 -35 53 -46 12 -53 25 -29 58 25 35 24 40 -10 73
l-30 28 -33 -20 c-39 -24 -51 -19 -64 28 -9 32 -13 35 -50 38 -22 2 -43 0 -47
-4z m63 -64 c0 -25 6 -33 34 -47 34 -16 45 -14 78 9 26 19 33 2 13 -35 -16
-31 -16 -36 -2 -64 11 -21 26 -32 47 -37 38 -7 35 -30 -4 -34 -19 -3 -32 -13
-43 -37 -16 -33 -14 -44 9 -77 19 -26 2 -33 -35 -13 -31 16 -36 16 -64 2 -21
-11 -32 -26 -37 -47 -7 -38 -30 -35 -34 4 -3 19 -13 32 -37 43 -33 16 -44 14
-77 -9 -26 -19 -33 -2 -13 35 16 31 16 36 2 64 -11 20 -26 32 -47 36 -41 9
-41 37 0 37 25 0 33 6 47 36 14 28 15 38 5 52 -34 48 -26 63 21 37 31 -16 36
-16 64 -2 20 11 32 26 36 47 9 41 37 41 37 0z"/>
<path d="M451 786 c-47 -26 -63 -84 -37 -135 35 -66 137 -66 172 0 23 45 17
78 -20 115 -37 37 -73 43 -115 20z m89 -46 c55 -55 -24 -135 -82 -83 -25 23
-23 68 4 87 30 21 54 20 78 -4z"/>
<path d="M184 416 c-82 -32 -144 -64 -144 -76 0 -23 28 -19 117 20 83 37 103
42 149 38 43 -4 60 -11 92 -40 40 -36 94 -54 186 -60 45 -3 71 -31 46 -49 -13
-9 -157 -7 -260 3 -17 2 -25 -2 -25 -12 0 -22 76 -38 187 -39 l96 -1 108 71
c121 80 160 97 176 81 17 -17 -5 -38 -132 -120 -166 -109 -242 -152 -266 -152
-12 0 -71 25 -133 55 -62 30 -124 55 -139 55 -33 0 -102 -45 -102 -65 0 -20
19 -19 58 5 18 11 39 20 47 20 7 0 64 -25 126 -55 62 -30 125 -55 141 -55 39
0 86 25 270 145 184 121 205 148 157 196 -16 16 -29 20 -54 16 -18 -3 -38 0
-44 6 -12 12 -97 29 -156 30 -31 1 -55 -8 -107 -42 -75 -47 -109 -49 -144 -9
-29 32 -94 58 -144 57 -25 0 -72 -10 -106 -23z m526 -23 c0 -14 -79 -53 -106
-53 -33 0 -25 9 31 39 40 21 75 27 75 14z m100 -20 c0 -10 -113 -83 -128 -83
-28 0 -8 28 40 58 50 30 88 41 88 25z"/>
</g>
</svg>
