<svg width="32" height="32" viewBox="0 0 32 32" fill="none" xmlns="http://www.w3.org/2000/svg">
<g clip-path="url(#clip0_108_473)">
<path d="M14.5375 0.0937468C14.2313 0.199997 13.8938 0.518747 13.7438 0.843747C13.5688 1.225 13.5938 1.6 13.85 2.28125C13.975 2.6125 14.0625 2.9 14.0438 2.9125C14.025 2.93125 13.925 2.9 13.825 2.85C13.7188 2.79375 13.3875 2.675 13.0813 2.5875C12.5938 2.4375 12.425 2.41875 11.5938 2.4125C10.575 2.40625 10.1813 2.48125 9.36875 2.81875C8.9375 2.99375 8.1875 3.44375 7.98125 3.65C7.83125 3.80625 7.84375 4.15 8.0125 4.3125C8.2125 4.49375 8.425 4.46875 8.78125 4.2125C10.0688 3.2875 11.8188 3.0625 13.2688 3.63125C13.5813 3.75625 18.6125 6.34375 18.7063 6.43125C18.8 6.525 18.3 7 17.9 7.19375C17.55 7.36875 17.425 7.39375 17.0438 7.39375C16.6313 7.3875 16.4375 7.33125 14.7875 6.725C13.6125 6.3 12.9313 6.075 12.8375 6.1C12.6125 6.15625 12.5313 6.30625 12.3875 6.8875C12.1313 7.95625 11.5688 8.94375 10.7938 9.66875C9.9875 10.4187 8.9625 10.8375 7.73125 10.9187C7.1875 10.95 7.08125 10.975 6.95625 11.1C6.60625 11.45 6.8875 11.875 7.475 11.875C7.9625 11.875 8.7 11.7625 9.275 11.5937C9.55 11.5125 9.7875 11.4562 9.8 11.4625C9.80625 11.475 9.71875 11.6875 9.6 11.9437C9.1375 12.9562 8.7375 14.375 8.65 15.3562C8.625 15.6062 8.58125 15.8125 8.55 15.8125C8.525 15.8125 8.15625 15.6375 7.73125 15.4312C6.73125 14.925 6.0375 14.6625 5.275 14.4937C4.74375 14.3812 4.4 14.3562 2.8 14.3312L0.9375 14.3V10.5875V6.875H3.0875C4.44375 6.875 5.30625 6.85 5.4125 6.8125C5.59375 6.74375 7.0125 5.64375 7.20625 5.425C7.35 5.25625 7.34375 5.05625 7.18125 4.85C6.94375 4.55 6.75 4.61875 5.90625 5.28125L5.15625 5.875H2.83125C1.38125 5.875 0.44375 5.9 0.3375 5.9375C-0.0125 6.075 0.00625 5.875 0 10.5687C0 14.8812 0 14.925 0.13125 15.0875L0.25625 15.25H2.08125C4.93125 15.25 5.39375 15.3437 7.35 16.3062L8.6125 16.9312L8.65625 17.2C9.0875 19.9937 11.2438 21.625 15.25 22.1875C17.0063 22.4312 19.625 22.4312 21.5313 22.175C21.9688 22.1187 22.1188 22.075 22.2313 21.9625C22.4188 21.775 22.4125 21.5312 22.2188 21.3437C22.0438 21.1625 22.0625 21.1625 21.0938 21.2812C19.3813 21.4937 16.7875 21.4625 15.1563 21.2187C12.2063 20.775 10.425 19.6812 9.80625 17.9375C9.25625 16.3875 9.575 14.1125 10.6563 11.9062C11.3688 10.45 12.6625 8.80625 13.9063 7.775L14.2188 7.5125L15.2375 7.88125C16.45 8.31875 16.8938 8.40625 17.4813 8.3125C18.1188 8.20625 18.65 7.925 19.1438 7.425L19.5625 7H20.7125H21.8563L22.2563 7.30625C25.2563 9.5875 27.1875 13.0875 27.1875 16.25C27.1938 17.6437 26.8688 18.5 26.0313 19.35C25.4813 19.9062 24.925 20.2625 24.1438 20.5625C23.4313 20.8375 23.3563 20.8875 23.2875 21.1062C23.2188 21.3562 23.3563 21.6 23.6063 21.6625C23.8938 21.7375 25.175 21.2125 25.85 20.7437C26.9188 20.0125 27.6688 18.975 27.9688 17.8187C28.4813 15.8312 27.8375 12.85 26.3938 10.5C25.625 9.25625 24.1563 7.56875 23.2063 6.85L22.8813 6.60625L23.025 6.4125C23.3125 6.03125 23.3875 5.5375 23.2375 5.0375C23.15 4.74375 22.6563 4.2125 22.4125 4.15C22.325 4.13125 22.25 4.0875 22.25 4.05625C22.25 4.025 22.45 3.48125 22.6875 2.84375C23.1688 1.58125 23.2125 1.29375 23.0063 0.843747C22.8625 0.524997 22.45 0.149997 22.1438 0.0687468C21.9875 0.0249968 20.6688 -3.24435e-06 18.3438 -3.24435e-06C15.475 0.00624676 14.7313 0.0249968 14.5375 0.0937468ZM22.0313 1.09375C22.1188 1.175 22.1875 1.30625 22.1875 1.38125C22.1875 1.50625 21.3938 3.6625 21.25 3.9375C21.1875 4.05625 21.1188 4.0625 18.6688 4.05625H16.1563L15.7563 3.825L15.35 3.59375L14.9563 2.5625C14.7375 1.99375 14.5625 1.46875 14.5625 1.3875C14.5625 1.30625 14.6313 1.175 14.7188 1.09375L14.8688 0.937497H18.375H21.8813L22.0313 1.09375ZM22.2188 5.15625C22.325 5.25625 22.375 5.375 22.375 5.53125C22.375 5.6875 22.325 5.80625 22.2188 5.90625C22.0688 6.0625 22.0563 6.0625 20.8688 6.0625H19.6625L19.5063 5.875C19.4188 5.76875 19.05 5.53125 18.6875 5.34375L18.0313 5.00625L20.05 5H22.0688L22.2188 5.15625Z" fill="#38004D"/>
<path d="M18.0313 10.4062C17.925 10.5062 17.875 10.625 17.875 10.775C17.875 10.975 17.85 11.0062 17.6438 11.0937C16.9438 11.3875 16.5437 12.2375 16.7563 12.9812C16.85 13.3312 17.2188 13.725 17.6125 13.9L17.875 14.0187V15.0062V15.9937L17.7063 15.9375C17.6063 15.9125 17.4188 15.825 17.2813 15.7562C16.9063 15.5562 16.5625 15.7187 16.5625 16.1062C16.5625 16.4312 16.9438 16.7187 17.5875 16.8812C17.8563 16.95 17.875 16.9625 17.875 17.1687C17.875 17.425 18.1063 17.6875 18.3438 17.6875C18.5938 17.6875 18.8125 17.4312 18.8125 17.1312C18.8125 16.9 18.8313 16.8812 19.0438 16.8062C19.3875 16.6937 19.9563 16.1 20.0813 15.725C20.2063 15.3625 20.2188 14.8937 20.1125 14.55C20.0063 14.1875 19.5688 13.7312 19.1563 13.5562L18.8125 13.4062V12.7C18.8125 12.3187 18.825 12 18.8438 12C18.8563 12 18.9813 12.0562 19.1125 12.125C19.4938 12.325 19.8313 12.1375 19.8313 11.7375C19.8313 11.4875 19.5625 11.2375 19.1313 11.0812C18.8375 10.9812 18.8125 10.9562 18.8125 10.7625C18.8125 10.5125 18.575 10.25 18.3438 10.25C18.2563 10.25 18.1125 10.3187 18.0313 10.4062ZM17.8438 12.9312C17.7813 12.9937 17.625 12.7437 17.625 12.5812C17.625 12.5 17.675 12.3437 17.7375 12.2312L17.8438 12.0312L17.8625 12.4625C17.875 12.6937 17.8625 12.9062 17.8438 12.9312ZM19.0875 14.6312C19.3563 14.9437 19.2875 15.4625 18.9438 15.775L18.8125 15.8937V15.1687C18.8125 14.7625 18.8375 14.4375 18.8688 14.4375C18.9 14.4375 19 14.525 19.0875 14.6312Z" fill="#613EEA"/>
<path d="M23.2812 22.9687C22.6874 23.075 22.2187 23.2437 21.3062 23.6687L20.5312 24.0312L18.7124 24.0625L16.8999 24.0937L16.4249 24.3312C15.6749 24.7 15.1687 25.3312 14.9812 26.1375C14.9374 26.3 14.8874 26.4375 14.8562 26.4375C14.8312 26.4375 13.3812 26.05 11.6374 25.5812C8.15617 24.6437 7.91867 24.6062 7.36867 24.85C6.18742 25.3937 5.87492 26.9062 6.76242 27.8062C6.91242 27.9562 7.14367 28.1312 7.28117 28.1937C7.91867 28.475 11.7124 29.875 11.8437 29.875C12.1999 29.875 12.3937 29.3375 12.1312 29.1C12.0624 29.0375 11.0437 28.625 9.86242 28.1812C8.68742 27.7312 7.65617 27.325 7.57492 27.275C7.08742 26.9562 7.06867 26.1625 7.53742 25.8312C7.91867 25.5625 7.88117 25.5562 11.8874 26.6375L15.6562 27.6562H18.5499H21.4499L21.5999 27.4812C21.7812 27.2687 21.7874 27.1312 21.6187 26.9125L21.4937 26.75H18.6812H15.8749V26.5125C15.8749 26.1875 16.1437 25.6687 16.4499 25.4125C16.8937 25.0312 17.0749 25 18.9562 25H20.6437L21.5874 24.5687C22.1062 24.3312 22.6749 24.0937 22.8437 24.0437C23.8874 23.7125 25.0687 23.7437 26.1499 24.1187C26.6312 24.2875 27.0437 24.525 27.9312 25.1312L28.6437 25.625H29.8562H31.0624V27.6562V29.6875H29.8624H28.6687L25.4437 30.2562C21.2874 30.9875 21.2437 30.9937 20.2499 31.0437C18.9374 31.1 17.4812 30.9187 16.1999 30.5312C15.9374 30.4562 15.2624 30.2187 14.6999 30.0062C14.1437 29.8 13.6187 29.625 13.5437 29.625C13.1874 29.625 12.9812 30.1625 13.2437 30.4C13.3999 30.5437 15.1437 31.2 16.0624 31.4687C17.5937 31.9125 19.4249 32.0875 20.9374 31.9437C21.3687 31.9 23.3062 31.5875 25.2437 31.2437L28.7624 30.625H30.2499H31.7437L31.8687 30.4625C31.9937 30.3 31.9999 30.2312 31.9999 27.675C31.9999 26.0875 31.9749 25.0062 31.9374 24.9375C31.8249 24.7312 31.5249 24.6875 30.2062 24.6875H28.9374L28.1687 24.1687C27.0687 23.4187 26.4312 23.1375 25.4437 22.9687C24.8124 22.8562 23.8812 22.8562 23.2812 22.9687Z" fill="#38004D"/>
</g>
<defs>
<clipPath id="clip0_108_473">
<rect width="32" height="32" fill="white"/>
</clipPath>
</defs>
</svg>
