<svg width="30" height="28" viewBox="0 0 30 28" fill="none" xmlns="http://www.w3.org/2000/svg">
<path d="M14.749 27.9395C14.538 27.8164 14.4736 27.5234 14.4736 26.6562C14.4736 25.8594 14.4677 25.8242 14.3271 25.6895C14.0869 25.4434 13.9111 25.4902 13.2607 25.9824C12.6044 26.4805 12.4111 26.5273 12.1591 26.2754C12.0009 26.1172 11.9658 25.8125 12.0888 25.6602C12.1298 25.6074 12.6455 25.1855 13.2431 24.7227C13.8408 24.2598 14.3564 23.8379 14.3974 23.7852C14.4502 23.7207 14.4677 22.8008 14.4736 19.9414V16.1855L14.3388 16.0625C14.2509 15.9805 14.1279 15.9336 13.999 15.9336C13.8115 15.9336 13.6181 16.1152 11.1455 18.5879C9.0771 20.6562 8.49703 21.2715 8.49703 21.3828C8.49703 21.4648 8.5732 22.1445 8.67281 22.8945C8.78414 23.7676 8.82515 24.3066 8.79586 24.3887C8.68453 24.6699 8.37398 24.7812 8.09273 24.6406C7.89351 24.5352 7.82906 24.3535 7.76461 23.7266C7.68843 22.9531 7.55953 22.7305 7.18453 22.7305C7.0439 22.7305 6.89156 22.8477 6.3525 23.375C5.74312 23.9727 5.67867 24.0195 5.46773 24.0195C5.16304 24.0195 4.9814 23.832 4.9814 23.5273C4.9814 23.3281 5.03414 23.252 5.62593 22.6484C6.15328 22.1094 6.27046 21.957 6.27046 21.8164C6.27046 21.4414 6.04781 21.3125 5.27437 21.2363C4.65328 21.1719 4.46578 21.1074 4.36617 20.9141C4.25484 20.6973 4.25484 20.5625 4.37203 20.3984C4.54195 20.1523 4.665 20.1465 6.1064 20.3281C6.8564 20.4277 7.53609 20.5039 7.61812 20.5039C7.72945 20.5039 8.34468 19.9238 10.413 17.8555C12.9267 15.3418 13.0673 15.1895 13.0673 14.9902C13.0673 14.8496 13.0263 14.7441 12.9326 14.6562L12.7978 14.5273H9.04781C6.1357 14.5273 5.27437 14.5449 5.20406 14.6035C5.15132 14.6387 4.73531 15.1602 4.27242 15.7578C3.80953 16.3555 3.39351 16.8711 3.34078 16.9121C3.2939 16.9531 3.16499 16.9883 3.05953 16.9883C2.63179 16.9883 2.42671 16.4785 2.71382 16.127C3.48726 15.1895 3.58687 14.9434 3.31148 14.6738C3.17671 14.5332 3.14156 14.5273 2.33296 14.5273C1.3896 14.5273 1.13179 14.457 1.03218 14.1641C0.950151 13.9238 1.04976 13.6953 1.28999 13.5781C1.45992 13.4902 1.65328 13.4727 2.3564 13.4727C3.21187 13.4727 3.21773 13.4727 3.33492 13.3203C3.54585 13.0508 3.49898 12.8867 3.01851 12.2539C2.52632 11.5977 2.47359 11.4043 2.72554 11.1582C2.88374 11 3.18843 10.9648 3.34664 11.0879C3.39351 11.1289 3.81539 11.6445 4.27828 12.2422C4.74703 12.8398 5.16304 13.3555 5.21578 13.3965C5.28023 13.4492 6.20015 13.4668 9.05953 13.4727H12.8154L12.9384 13.3379C13.0205 13.25 13.0673 13.127 13.0673 12.998C13.0673 12.8105 12.8857 12.6172 10.413 10.1445C8.34468 8.07617 7.72945 7.49609 7.61812 7.49609C7.53609 7.49609 6.8564 7.57227 6.1064 7.67188C5.23335 7.7832 4.69429 7.82422 4.61226 7.79492C4.33101 7.68359 4.21968 7.37305 4.36031 7.0918C4.46578 6.89258 4.64742 6.82812 5.27437 6.76367C6.04781 6.6875 6.27046 6.55859 6.27046 6.18359C6.27046 6.04297 6.15328 5.89062 5.62593 5.35156C5.02828 4.74219 4.9814 4.67773 4.9814 4.4668C4.9814 4.16211 5.1689 3.98047 5.47359 3.98047C5.67281 3.98047 5.74898 4.0332 6.3525 4.625C6.89156 5.15234 7.0439 5.26953 7.18453 5.26953C7.55953 5.26953 7.68843 5.04688 7.76461 4.27344C7.82906 3.65234 7.89351 3.46484 8.08687 3.36523C8.30367 3.25391 8.43843 3.25391 8.6025 3.37109C8.84859 3.54102 8.85445 3.66406 8.67281 5.10547C8.5732 5.85547 8.49703 6.53516 8.49703 6.61719C8.49703 6.72852 9.0771 7.34375 11.1455 9.41211C13.6591 11.9258 13.8115 12.0664 14.0107 12.0664C14.1513 12.0664 14.2568 12.0254 14.3447 11.9316L14.4736 11.7969V8.04688C14.4736 5.13477 14.456 4.27344 14.4033 4.20312C14.3623 4.15039 13.8408 3.73438 13.2431 3.27148C12.6455 2.80859 12.1298 2.39258 12.0888 2.33984C12.0478 2.29297 12.0127 2.16406 12.0127 2.05859C12.0127 1.63086 12.5224 1.42578 12.874 1.71289C13.8115 2.48633 14.0576 2.58594 14.3271 2.31055C14.4677 2.17578 14.4736 2.14062 14.4736 1.33203C14.4736 0.652344 14.4912 0.453125 14.5791 0.289062C14.7724 -0.0976562 15.2294 -0.0976562 15.4228 0.289062C15.5107 0.458984 15.5283 0.652344 15.5283 1.35547C15.5283 2.21094 15.5283 2.2168 15.6806 2.33398C15.9794 2.56836 16.1669 2.49219 16.9814 1.83008C17.3623 1.52539 17.6201 1.49609 17.8427 1.72461C18.0009 1.88281 18.0361 2.1875 17.913 2.3457C17.872 2.39258 17.3564 2.81445 16.7587 3.27734C16.1611 3.73438 15.6396 4.15625 15.6044 4.20312C15.5459 4.27344 15.5283 5.13477 15.5283 8.05273V11.8145L15.663 11.9375C15.7509 12.0195 15.874 12.0664 16.0029 12.0664C16.1904 12.0664 16.3837 11.8848 18.8564 9.41211C20.9248 7.34375 21.5048 6.72852 21.5048 6.61719C21.5048 6.53516 21.4287 5.85547 21.3291 5.10547C21.1474 3.66406 21.1533 3.54102 21.3994 3.37109C21.5634 3.25391 21.6982 3.25391 21.915 3.36523C22.1084 3.46484 22.1728 3.65234 22.2373 4.27344C22.3134 5.04688 22.4423 5.26953 22.8173 5.26953C22.958 5.26953 23.1103 5.15234 23.6494 4.625C24.2587 4.02734 24.3232 3.98047 24.5341 3.98047C24.8388 3.98047 25.0205 4.16797 25.0205 4.47266C25.0205 4.67188 24.9677 4.74805 24.3759 5.35156C23.8486 5.89062 23.7314 6.04297 23.7314 6.18359C23.7314 6.55859 23.9541 6.6875 24.7275 6.76367C25.3486 6.82812 25.5361 6.89258 25.6357 7.08594C25.747 7.30273 25.747 7.4375 25.6298 7.60156C25.4599 7.84766 25.3369 7.85352 23.8955 7.67188C23.1455 7.57227 22.4658 7.49609 22.3837 7.49609C22.2724 7.49609 21.6572 8.07617 19.5888 10.1445C17.0752 12.6582 16.9345 12.8105 16.9345 13.0098C16.9345 13.1504 16.9755 13.2559 17.0693 13.3438L17.2041 13.4727H20.9541C23.8662 13.4727 24.7275 13.4551 24.7978 13.4023C24.8505 13.3613 25.2666 12.8398 25.7295 12.2422C26.1923 11.6445 26.6084 11.1289 26.6611 11.0879C26.708 11.0469 26.8369 11.0117 26.9423 11.0117C27.3701 11.0117 27.5752 11.5215 27.288 11.873C26.5322 12.793 26.4326 13.0215 26.667 13.3203C26.7841 13.4727 26.79 13.4727 27.6455 13.4727C28.3486 13.4727 28.542 13.4902 28.7119 13.5781C28.9521 13.6953 29.0517 13.9238 28.9697 14.1641C28.8701 14.457 28.6123 14.5273 27.6689 14.5273C26.8603 14.5273 26.8252 14.5332 26.6904 14.6738C26.415 14.9434 26.497 15.1484 27.1709 15.9805C27.4755 16.3613 27.5048 16.6191 27.2763 16.8418C27.124 17 26.8134 17.0352 26.6611 16.9121C26.6084 16.8711 26.1923 16.3555 25.7295 15.7578C25.2666 15.1602 24.8447 14.6387 24.7978 14.6035C24.7275 14.5449 23.8662 14.5273 20.9482 14.5273H17.1865L17.0634 14.6621C16.9814 14.75 16.9345 14.873 16.9345 15.002C16.9345 15.1895 17.1162 15.3828 19.5888 17.8555C21.6572 19.9238 22.2724 20.5039 22.3837 20.5039C22.4658 20.5039 23.1455 20.4277 23.8955 20.3281C25.3369 20.1465 25.4599 20.1523 25.6298 20.3984C25.747 20.5625 25.747 20.6973 25.6357 20.9141C25.5361 21.1074 25.3486 21.1719 24.7275 21.2363C23.9541 21.3125 23.7314 21.4414 23.7314 21.8164C23.7314 21.957 23.8486 22.1094 24.3759 22.6484C24.9736 23.2578 25.0205 23.3223 25.0205 23.5332C25.0205 23.8379 24.833 24.0195 24.5283 24.0195C24.3291 24.0195 24.2529 23.9668 23.6494 23.375C23.1103 22.8477 22.958 22.7305 22.8173 22.7305C22.4423 22.7305 22.3134 22.9531 22.2373 23.7266C22.1728 24.3477 22.1084 24.5352 21.915 24.6348C21.6982 24.7461 21.5634 24.7461 21.3994 24.6289C21.1533 24.459 21.1474 24.3359 21.3291 22.8945C21.4287 22.1445 21.5048 21.4648 21.5048 21.3828C21.5048 21.2715 20.9248 20.6562 18.8564 18.5879C16.3427 16.0742 16.1904 15.9336 15.9912 15.9336C15.8505 15.9336 15.7451 15.9746 15.6572 16.0684L15.5283 16.2031V19.9531C15.5283 22.8652 15.5459 23.7266 15.6044 23.7969C15.6396 23.8438 16.0966 24.2129 16.6123 24.6055C17.8544 25.5605 17.9892 25.6895 17.9892 25.9355C17.9892 26.2051 17.7724 26.4219 17.497 26.4219C17.3505 26.4219 17.2158 26.3574 16.9814 26.1699C16.1669 25.5078 15.9794 25.4316 15.6806 25.666C15.5283 25.7832 15.5283 25.7891 15.5283 26.6328C15.5283 27.5352 15.4638 27.8223 15.247 27.9395C15.0947 28.0215 14.8837 28.0215 14.749 27.9395Z" fill="#171D33"/>
<path d="M0.663139 7.26546L29.3196 20.3442L28.9211 21.2173L0.264621 8.1386L0.663139 7.26546Z" fill="#171D33" stroke="#F5F5F5" stroke-width="0.4"/>
</svg>
