<svg width="24" height="24" viewBox="0 0 24 24" fill="none" xmlns="http://www.w3.org/2000/svg">
<path d="M20.8762 16.6547C21.4266 17.1914 21.7162 17.8315 21.7361 18.5571C21.7529 19.11 21.5962 19.6051 21.2706 20.0283C21.1969 20.1227 21.117 20.2051 21.0138 20.3084C20.9355 20.3859 20.857 20.4628 20.7666 20.5324C20.345 20.8569 19.841 21.0145 19.2962 20.9978C18.5714 20.9771 17.9313 20.6874 17.3937 20.1379L13.4841 16.1377L10.7241 16.5913L10.733 16.605C10.9025 16.881 10.9546 17.2034 10.8802 17.513C10.8091 17.8073 10.6307 18.0537 10.377 18.2073C10.201 18.3129 9.99059 18.3664 9.7715 18.3529C9.37386 18.3329 9.00422 18.1065 8.80749 17.765L8.34261 16.9826L5.62025 17.4298C5.32909 17.4746 5.0603 17.3897 4.86905 17.1825L4.77302 17.0793C4.42749 16.7049 4.08343 16.3313 3.75141 15.9497C3.58347 15.7561 3.51061 15.5017 3.55226 15.2513C3.59391 15.0026 3.74271 14.7874 3.96101 14.6609L9.23451 12.0409C8.59285 11.3865 7.95856 10.736 7.33045 10.0905L5.03999 10.2545C4.75043 10.2753 4.52395 10.1778 4.32722 9.96899C3.9928 9.61543 3.65998 9.26493 3.32638 8.92018C3.19272 8.78344 3.05036 8.61054 3.00482 8.36184C3.0008 8.34189 3 8.25309 3 8.233C3.0008 8.20742 3.00482 8.11461 3.01125 8.08983C3.1113 7.689 3.41531 7.52343 3.63522 7.43305C4.32402 7.15221 5.01522 6.86748 5.70803 6.58181L6.84978 6.11052L7.32817 4.95135C7.61143 4.26416 7.89375 3.58019 8.17301 2.89622C8.2618 2.67698 8.42666 2.37296 8.90346 2.26262L9.10181 2.26664C9.34824 2.31218 9.52102 2.45387 9.65854 2.5874C10.0041 2.92262 10.3538 3.25543 10.7065 3.58824C10.9177 3.78578 11.0138 4.02579 10.9929 4.30179L10.8296 6.59304C11.4745 7.21944 12.124 7.85383 12.78 8.4971L15.3528 3.31241L15.4007 3.22362C15.5272 3.00518 15.7432 2.85638 15.9927 2.81486C16.2407 2.77562 16.4959 2.84607 16.6895 3.01482C17.0751 3.35084 17.4536 3.69961 17.8344 4.04994L17.9224 4.1315C18.1287 4.32195 18.2167 4.58915 18.1688 4.8827L17.7224 7.60506L18.5016 8.0675C18.848 8.26666 19.0744 8.63631 19.0928 9.03395C19.104 9.2548 19.0535 9.4652 18.9464 9.64119C18.7936 9.89324 18.5463 10.0716 18.2528 10.1428C17.9431 10.2172 17.6216 10.1651 17.3463 9.99637L17.3312 9.98753L16.8784 12.7475L20.8762 16.6547ZM9.36026 17.4426C9.45147 17.601 9.62102 17.7049 9.80344 17.7138C9.86986 17.717 9.96348 17.7105 10.0467 17.6602C10.153 17.5954 10.2283 17.4906 10.2595 17.3634C10.2931 17.2202 10.2675 17.0706 10.1875 16.9394L10.0436 16.7034L9.02035 16.8714L9.36026 17.4426ZM17.4884 4.59945L17.4012 4.51789C17.0245 4.17153 16.6508 3.82669 16.27 3.49467C16.2036 3.43627 16.1317 3.43868 16.0981 3.44431C16.0373 3.45475 15.9845 3.49065 15.9541 3.54355L15.9165 3.6164L13.2013 9.08841C13.1742 9.14359 13.1005 9.28997 12.9197 9.32037C12.8134 9.33872 12.6501 9.266 12.5772 9.19475C11.8236 8.45479 11.0756 7.72516 10.3333 7.00433C10.2221 6.89558 10.1732 6.76353 10.1853 6.61313L10.3532 4.25558C10.3588 4.18674 10.346 4.12915 10.2668 4.05482C9.91085 3.71879 9.55891 3.38357 9.21241 3.04767C9.11076 2.94923 9.04916 2.90852 9.04755 2.90129L8.98353 2.89325C8.89715 2.91481 8.83634 2.95968 8.76429 3.13807C8.48505 3.82286 8.20272 4.50844 7.91867 5.19642L7.39073 6.47799C7.35792 6.55714 7.29551 6.62035 7.21636 6.65236L5.95235 7.17319C5.25875 7.45953 4.56672 7.74522 3.87631 8.02605C3.69792 8.09811 3.65305 8.15891 3.6339 8.2461C3.64595 8.31253 3.68586 8.37333 3.7843 8.47404C4.12033 8.82119 4.45637 9.1733 4.79223 9.52926C4.85786 9.5989 4.90982 9.61645 4.96822 9.61645C4.97625 9.61645 4.98415 9.61645 4.99219 9.61564L7.35321 9.44662C7.49959 9.43457 7.63647 9.48586 7.74362 9.59622C8.46362 10.337 9.19408 11.085 9.93403 11.8394C10.0373 11.9449 10.0796 12.0603 10.0589 12.1811C10.0421 12.2819 9.9181 12.4162 9.82689 12.4619L4.3566 15.177C4.3566 15.177 4.28294 15.2147 4.28213 15.2147C4.23017 15.2451 4.19414 15.297 4.1845 15.357C4.17807 15.3931 4.17646 15.4634 4.23405 15.5298C4.56124 15.9057 4.90208 16.2746 5.2436 16.6458L5.33882 16.7491C5.37083 16.7843 5.41636 16.8155 5.51721 16.7986L8.42361 16.321C8.44625 16.3154 8.46701 16.3106 8.49018 16.3098L13.451 15.4954C13.6238 15.4666 13.7742 15.5193 13.9022 15.6498L17.8526 19.6907C18.2758 20.1243 18.7542 20.3419 19.3158 20.3579C19.7342 20.3747 20.075 20.2579 20.3766 20.0243C20.4446 19.9716 20.5038 19.9116 20.5822 19.8347C20.6454 19.7715 20.7086 19.7091 20.7646 19.6363C20.9974 19.3339 21.1101 18.9771 21.0982 18.5755C21.0815 18.0131 20.863 17.5348 20.4302 17.1123L16.391 13.1636C16.2581 13.0356 16.2062 12.8828 16.2358 12.7108L16.7741 9.42998C16.775 9.42033 16.7766 9.41163 16.779 9.40279L17.0502 7.74998C17.051 7.72681 17.055 7.70511 17.0614 7.68194L17.5382 4.77636C17.5541 4.67645 17.5237 4.63239 17.4885 4.59958L17.4884 4.59945ZM17.6796 9.44917C17.8085 9.52913 17.9573 9.55471 18.102 9.51881C18.2285 9.48761 18.3348 9.41328 18.3988 9.3068C18.4484 9.22363 18.4556 9.12841 18.4524 9.06279C18.4436 8.88118 18.3396 8.71163 18.1772 8.618L17.61 8.28117L17.442 9.30439L17.6796 9.44917Z" fill="#A6AAB4" stroke="#A6AAB4" stroke-width="0.5"/>
</svg>
