<svg width="24" height="24" viewBox="0 0 24 24" fill="none" xmlns="http://www.w3.org/2000/svg">
<path d="M20.8762 7.34534C21.4266 6.80856 21.7162 6.16851 21.7361 5.44289C21.7529 4.89003 21.5962 4.39491 21.2706 3.97169C21.1969 3.87727 21.117 3.7949 21.0138 3.69164C20.9355 3.6141 20.857 3.53722 20.7666 3.46758C20.345 3.14307 19.841 2.98545 19.2962 3.00218C18.5714 3.02294 17.9313 3.31263 17.3937 3.86214L13.4841 7.86226L10.7241 7.40865L10.733 7.39499C10.9025 7.11897 10.9546 6.7966 10.8802 6.48697C10.8091 6.19273 10.6307 5.94628 10.377 5.79268C10.201 5.68715 9.99059 5.63358 9.7715 5.6471C9.37386 5.66706 9.00422 5.89353 8.80749 6.23503L8.34261 7.01744L5.62025 6.57025C5.32909 6.52538 5.0603 6.61029 4.86905 6.81748L4.77302 6.92074C4.42749 7.29507 4.08343 7.66871 3.75141 8.05028C3.58347 8.24394 3.51061 8.49826 3.55226 8.74872C3.59391 8.99742 3.74271 9.21264 3.96101 9.33908L9.23451 11.9591C8.59285 12.6135 7.95856 13.264 7.33045 13.9095L5.03999 13.7455C4.75043 13.7247 4.52395 13.8222 4.32722 14.031C3.9928 14.3846 3.65998 14.7351 3.32638 15.0798C3.19272 15.2166 3.05036 15.3895 3.00482 15.6382C3.0008 15.6581 3 15.7469 3 15.767C3.0008 15.7926 3.00482 15.8854 3.01125 15.9102C3.1113 16.311 3.41531 16.4766 3.63522 16.5669C4.32402 16.8478 5.01522 17.1325 5.70803 17.4182L6.84978 17.8895L7.32817 19.0487C7.61143 19.7358 7.89375 20.4198 8.17301 21.1038C8.2618 21.323 8.42666 21.627 8.90346 21.7374L9.10181 21.7334C9.34824 21.6878 9.52102 21.5461 9.65854 21.4126C10.0041 21.0774 10.3538 20.7446 10.7065 20.4118C10.9177 20.2142 11.0138 19.9742 10.9929 19.6982L10.8296 17.407C11.4745 16.7806 12.124 16.1462 12.78 15.5029L15.3528 20.6876L15.4007 20.7764C15.5272 20.9948 15.7432 21.1436 15.9927 21.1851C16.2407 21.2244 16.4959 21.1539 16.6895 20.9852C17.0751 20.6492 17.4536 20.3004 17.8344 19.9501L17.9224 19.8685C18.1287 19.6781 18.2167 19.4109 18.1688 19.1173L17.7224 16.3949L18.5016 15.9325C18.848 15.7333 19.0744 15.3637 19.0928 14.966C19.104 14.7452 19.0535 14.5348 18.9464 14.3588C18.7936 14.1068 18.5463 13.9284 18.2528 13.8572C17.9431 13.7828 17.6216 13.8349 17.3463 14.0036L17.3312 14.0125L16.8784 11.2525L20.8762 7.34534ZM9.36026 6.55745C9.45147 6.39901 9.62102 6.29508 9.80344 6.28624C9.86986 6.28303 9.96348 6.28946 10.0467 6.33981C10.153 6.40463 10.2283 6.50937 10.2595 6.6366C10.2931 6.77977 10.2675 6.92937 10.1875 7.06061L10.0436 7.29659L9.02035 7.12865L9.36026 6.55745ZM17.4884 19.4005L17.4012 19.4821C17.0245 19.8285 16.6508 20.1733 16.27 20.5053C16.2036 20.5637 16.1317 20.5613 16.0981 20.5557C16.0373 20.5452 15.9845 20.5094 15.9541 20.4565L15.9165 20.3836L13.2013 14.9116C13.1742 14.8564 13.1005 14.71 12.9197 14.6796C12.8134 14.6613 12.6501 14.734 12.5772 14.8053C11.8236 15.5452 11.0756 16.2748 10.3333 16.9957C10.2221 17.1044 10.1732 17.2365 10.1853 17.3869L10.3532 19.7444C10.3588 19.8133 10.346 19.8709 10.2668 19.9452C9.91085 20.2812 9.55891 20.6164 9.21241 20.9523C9.11076 21.0508 9.04916 21.0915 9.04755 21.0987L8.98353 21.1067C8.89715 21.0852 8.83634 21.0403 8.76429 20.8619C8.48505 20.1771 8.20272 19.4916 7.91867 18.8036L7.39073 17.522C7.35792 17.4429 7.29551 17.3796 7.21636 17.3476L5.95235 16.8268C5.25875 16.5405 4.56672 16.2548 3.87631 15.9739C3.69792 15.9019 3.65305 15.8411 3.6339 15.7539C3.64595 15.6875 3.68586 15.6267 3.7843 15.526C4.12033 15.1788 4.45637 14.8267 4.79223 14.4707C4.85786 14.4011 4.90982 14.3836 4.96822 14.3836C4.97625 14.3836 4.98415 14.3836 4.99219 14.3844L7.35321 14.5534C7.49959 14.5654 7.63647 14.5141 7.74362 14.4038C8.46362 13.663 9.19408 12.915 9.93403 12.1606C10.0373 12.0551 10.0796 11.9397 10.0589 11.8189C10.0421 11.7181 9.9181 11.5838 9.82689 11.5381L4.3566 8.82298C4.3566 8.82298 4.28294 8.78534 4.28213 8.78534C4.23017 8.75494 4.19414 8.70298 4.1845 8.64298C4.17807 8.60695 4.17646 8.53664 4.23405 8.47021C4.56124 8.09426 4.90208 7.72542 5.2436 7.35417L5.33882 7.25091C5.37083 7.21569 5.41636 7.18448 5.51721 7.20136L8.42361 7.67896C8.44625 7.68459 8.46701 7.68941 8.49018 7.69021L13.451 8.50463C13.6238 8.53343 13.7742 8.48066 13.9022 8.35022L17.8526 4.3093C18.2758 3.87565 18.7542 3.65814 19.3158 3.64206C19.7342 3.62532 20.075 3.74211 20.3766 3.97568C20.4446 4.02845 20.5038 4.08845 20.5822 4.16532C20.6454 4.22854 20.7086 4.29095 20.7646 4.36367C20.9974 4.66608 21.1101 5.02288 21.0982 5.42451C21.0815 5.98686 20.863 6.46525 20.4302 6.88768L16.391 10.8364C16.2581 10.9644 16.2062 11.1172 16.2358 11.2892L16.7741 14.57C16.775 14.5797 16.7766 14.5884 16.779 14.5972L17.0502 16.25C17.051 16.2732 17.055 16.2949 17.0614 16.3181L17.5382 19.2236C17.5541 19.3236 17.5237 19.3676 17.4885 19.4004L17.4884 19.4005ZM17.6796 14.5508C17.8085 14.4709 17.9573 14.4453 18.102 14.4812C18.2285 14.5124 18.3348 14.5867 18.3988 14.6932C18.4484 14.7764 18.4556 14.8716 18.4524 14.9372C18.4436 15.1188 18.3396 15.2884 18.1772 15.382L17.61 15.7188L17.442 14.6956L17.6796 14.5508Z" fill="#A6AAB4" stroke="#A6AAB4" stroke-width="0.5"/>
</svg>
