<svg width="32" height="32" viewBox="0 0 32 32" fill="none" xmlns="http://www.w3.org/2000/svg">
<g clip-path="url(#clip0_399_2929)">
<path d="M6.01903 0.0937556C5.34403 0.306256 4.70653 0.918756 4.42528 1.60626C4.28778 1.96251 4.28153 2.00626 4.26278 4.97501L4.24403 7.98751L3.13778 8.01876C2.36903 8.03751 1.93153 8.08126 1.70653 8.15001C1.26278 8.28751 0.694034 8.72501 0.425284 9.13126C-0.0184664 9.81251 -0.00596641 9.58751 0.0127836 14.6313L0.0315336 19.1563L0.225284 19.5625C0.469034 20.0813 0.919034 20.5313 1.43778 20.775C1.84403 20.9688 1.85028 20.9688 3.04403 20.9875L4.24403 21.0063L4.26278 25.5188L4.28153 30.0313L4.42528 30.3938C4.71278 31.1063 5.35653 31.7 6.06278 31.9125C6.31903 31.9875 7.51903 32 14.1065 31.9875L21.844 31.9688L22.2503 31.775C22.769 31.5313 23.219 31.0813 23.4628 30.5625L23.6565 30.1563L23.6753 25.8L23.694 21.4438L26.8628 21.425C30.0128 21.4063 30.0315 21.4063 30.394 21.2625C31.1003 20.975 31.694 20.3438 31.9065 19.6563C32.044 19.2 32.044 7.43751 31.9065 6.98126C31.7003 6.30001 31.0878 5.64376 30.394 5.36251C30.0315 5.21876 30.0065 5.21876 26.8628 5.20001L23.694 5.18126L23.6753 3.51251L23.6565 1.84376L23.4628 1.43751C23.219 0.918756 22.769 0.468756 22.2503 0.225006L21.844 0.0312556L14.0628 0.0187556C7.78153 0.0125056 6.23153 0.0250056 6.01903 0.0937556ZM21.6253 1.12501C21.9503 1.21251 22.3065 1.54376 22.4753 1.90001C22.6065 2.18126 22.6253 2.31251 22.6253 3.01251V3.81251H21.7815C21.0253 3.81251 20.9253 3.82501 20.8128 3.93751C20.544 4.20626 20.6003 4.62501 20.9378 4.79376C21.0378 4.84376 21.3753 4.87501 21.8628 4.87501H22.6253V5.03126V5.18751H20.019C18.5315 5.18751 17.2315 5.21876 17.0003 5.25001C16.0065 5.41251 15.219 6.11876 14.9628 7.09376C14.894 7.35001 14.8753 9.01876 14.8753 15.9125V24.4188L15.0065 24.5875C15.1065 24.7188 15.1878 24.75 15.4065 24.75H15.6753L17.294 23.0938L18.9128 21.4375H20.769H22.6253V23.5938V25.75H13.969H5.31278V23.375V21H7.25028H9.18778L10.5065 22.7625C11.2315 23.7375 11.8815 24.5813 11.9503 24.6375C12.1253 24.7938 12.5253 24.7875 12.6815 24.6313C12.7503 24.5625 12.819 24.3875 12.844 24.2375C12.8628 24.0875 12.8753 22.3625 12.8628 20.3938L12.844 16.825L12.694 16.6625C12.544 16.5 12.269 16.45 12.0378 16.5375C11.794 16.6313 11.7815 16.7625 11.7503 19.7063L11.719 22.5688L10.8128 21.35C10.3128 20.6813 9.85028 20.1 9.78153 20.0563C9.68153 19.9875 8.90653 19.9625 5.83153 19.9375L2.01278 19.9063L1.74403 19.7188C1.59403 19.6125 1.38778 19.4063 1.28153 19.2563L1.09403 18.9875L1.07528 14.6688C1.06278 11.6125 1.07528 10.275 1.12528 10.1063C1.22528 9.76876 1.63778 9.34376 1.98778 9.20626C2.26278 9.10001 2.58153 9.09376 6.40653 9.09376C10.9503 9.09376 10.8128 9.08126 11.2628 9.48751C11.7315 9.91251 11.7128 9.80626 11.7503 12.575L11.7815 15.05L11.9315 15.2125C12.1253 15.4188 12.4628 15.4313 12.669 15.2375L12.8128 15.1063V12.5938C12.8128 9.80001 12.8128 9.78126 12.3878 9.13126C12.2628 8.94376 12.0003 8.67501 11.794 8.52501C11.1378 8.04376 11.1378 8.04376 8.05028 8.01251L5.31278 7.99376V6.43126V4.87501H12.0565C16.1815 4.87501 18.8628 4.85001 18.9628 4.81251C19.2815 4.69376 19.3628 4.22501 19.119 3.96251L18.9815 3.81251H12.1378H5.29403L5.32528 2.98126C5.35653 2.06251 5.43153 1.83126 5.82528 1.45626C6.25653 1.04376 5.71278 1.06876 13.9378 1.06251C18.6003 1.06251 21.4878 1.08751 21.6253 1.12501ZM30.0315 6.39376C30.3628 6.54376 30.6753 6.84376 30.819 7.15626C30.9315 7.39376 30.9378 7.68751 30.9378 13.3125C30.9378 18.9 30.9315 19.2313 30.819 19.4688C30.6815 19.7688 30.3815 20.075 30.069 20.2313C29.8565 20.3375 29.4815 20.3438 24.1565 20.3625L18.469 20.375L17.2065 21.6438L15.9378 22.9063V15.1875V7.46876L16.0878 7.15626C16.3065 6.68126 16.6378 6.42501 17.219 6.29376C17.2878 6.27501 20.144 6.26876 23.5628 6.27501C29.4065 6.28126 29.794 6.28751 30.0315 6.39376ZM22.6253 28.2938C22.6253 29.725 22.619 29.7938 22.4753 30.1C22.3065 30.4563 21.9503 30.7875 21.6253 30.875C21.4878 30.9125 18.594 30.9375 13.9503 30.9375C5.72528 30.9375 6.26278 30.9625 5.82528 30.5438C5.36903 30.1125 5.35028 30.0125 5.32528 28.325L5.30028 26.8125H13.9628H22.6253V28.2938Z" fill="#38004D"/>
<path d="M13.0371 2.25625C12.8371 2.41875 12.8121 2.78125 12.9933 3.00625C13.1058 3.14375 13.1621 3.15625 13.8433 3.175C14.4371 3.19375 14.5933 3.18125 14.7246 3.09375C15.0308 2.89375 15.0683 2.5 14.7996 2.25C14.6808 2.1375 14.5808 2.125 13.9308 2.125C13.2871 2.125 13.1871 2.1375 13.0371 2.25625Z" fill="#613EEA"/>
<path d="M20.4563 7.25625C20.1188 7.31875 19.8813 7.44375 19.6313 7.7C19.2875 8.05 19.2188 8.225 19.2188 8.81875C19.2188 9.30625 19.2375 9.38125 19.4063 9.65625C19.6125 9.99375 19.975 10.2625 20.9188 10.7875L21.5313 11.125H20.4938C19.4938 11.125 19.4563 11.1312 19.325 11.2687L19.1875 11.4125V15.0687V18.7312L19.3313 18.8625L19.475 19H23.4188C25.5875 19 27.4125 18.9812 27.4688 18.9625C27.7438 18.8562 27.75 18.7625 27.75 15.0625C27.75 11.275 27.7438 11.2312 27.4188 11.1562C27.3438 11.1375 26.8625 11.1187 26.3438 11.1062L25.4063 11.0937L26.0625 10.7312C27.2563 10.075 27.5625 9.76875 27.6875 9.1375C27.9313 7.825 26.6063 6.81875 25.4063 7.40625C25.2188 7.49375 24.9875 7.675 24.8875 7.8C24.6875 8.05625 24.1625 8.95 23.75 9.73125C23.6 10.0187 23.4625 10.25 23.4438 10.25C23.425 10.25 23.2875 10.0187 23.1438 9.73125C22.7063 8.88125 22.2313 8.08125 21.9875 7.79375C21.6125 7.34375 21.05 7.15 20.4563 7.25625ZM21.0688 8.39375C21.1938 8.4875 21.5188 9 21.9 9.7L22.1938 10.2437L21.4313 9.825C20.5125 9.325 20.25 9.1 20.25 8.81875C20.25 8.43125 20.7625 8.1625 21.0688 8.39375ZM26.4688 8.46875C26.575 8.56875 26.625 8.6875 26.625 8.83125C26.625 9.14375 26.4188 9.30625 25.1125 10.025L24.6938 10.25L25.1063 9.50625C25.65 8.51875 25.8188 8.3125 26.1 8.3125C26.25 8.3125 26.3688 8.3625 26.4688 8.46875ZM22.9375 12.7812V13.375H21.5938H20.25V12.7812V12.1875H21.5938H22.9375V12.7812ZM26.6875 12.7812V13.375H25.3438H24V12.7812V12.1875H25.3438H26.6875V12.7812ZM22.9375 16.1875V17.9375H21.5938H20.25V16.1875V14.4375H21.5938H22.9375V16.1875ZM26.6875 16.1875V17.9375H25.3438H24V16.1875V14.4375H25.3438H26.6875V16.1875Z" fill="#38004D"/>
<path d="M12.0806 27.4C11.7806 27.5375 11.7368 27.775 11.7618 29.1062C11.7868 30.6687 11.5806 30.525 13.8243 30.55C15.7056 30.5687 15.8681 30.55 15.9931 30.275C16.0368 30.175 16.0618 29.675 16.0618 28.9062C16.0618 27.7125 16.0618 27.6937 15.9118 27.5187L15.7618 27.3437L14.0181 27.3312C12.6306 27.3187 12.2431 27.3312 12.0806 27.4ZM14.9993 28.9687V29.5H13.9056H12.8118V28.9687V28.4375H13.9056H14.9993V28.9687Z" fill="#613EEA"/>
</g>
<defs>
<clipPath id="clip0_399_2929">
<rect width="32" height="32" fill="white"/>
</clipPath>
</defs>
</svg>
