<svg width="32" height="32" viewBox="0 0 32 32" fill="none" xmlns="http://www.w3.org/2000/svg">
<g clip-path="url(#clip0_107_466)">
<mask id="path-1-outside-1_107_466" maskUnits="userSpaceOnUse" x="-1" y="0.804321" width="34" height="30" fill="black">
<rect fill="white" x="-1" y="0.804321" width="34" height="30"/>
<path d="M15.4857 15.9618H14.3338C14.2371 15.9519 14.1396 15.9724 14.055 16.0204C13.9704 16.0683 13.9027 16.1414 13.8615 16.2296C13.8203 16.3177 13.8076 16.4165 13.825 16.5122C13.8424 16.6079 13.8892 16.6958 13.9588 16.7637L16.5495 19.2893C16.5935 19.3323 16.6457 19.3662 16.7028 19.3891C16.76 19.412 16.8211 19.4234 16.8827 19.4226C16.9443 19.4218 17.0051 19.409 17.0617 19.3847C17.1183 19.3604 17.1696 19.3253 17.2126 19.2812C17.2556 19.2371 17.2895 19.185 17.3124 19.1278C17.3352 19.0707 17.3466 19.0095 17.3459 18.948C17.3451 18.8864 17.3322 18.8256 17.308 18.7689C17.2837 18.7123 17.2485 18.6611 17.2045 18.6181L15.4407 16.8993H15.4845C15.9151 16.898 16.3328 16.7516 16.67 16.4838C17.0073 16.2159 17.2444 15.8423 17.3432 15.4231H17.7245C17.8488 15.4231 17.968 15.3737 18.0559 15.2858C18.1438 15.1979 18.1932 15.0786 18.1932 14.9543C18.1932 14.83 18.1438 14.7108 18.0559 14.6229C17.968 14.535 17.8488 14.4856 17.7245 14.4856H17.3313C17.2857 14.3129 17.2162 14.1473 17.1251 13.9937H17.7245C17.8488 13.9937 17.968 13.9443 18.0559 13.8564C18.1438 13.7685 18.1932 13.6493 18.1932 13.5249C18.1932 13.4006 18.1438 13.2814 18.0559 13.1935C17.968 13.1056 17.8488 13.0562 17.7245 13.0562H14.3057C14.1814 13.0562 14.0622 13.1056 13.9743 13.1935C13.8864 13.2814 13.837 13.4006 13.837 13.5249C13.837 13.6493 13.8864 13.7685 13.9743 13.8564C14.0622 13.9443 14.1814 13.9937 14.3057 13.9937H15.4845C15.6556 13.9942 15.8236 14.04 15.9713 14.1264C16.119 14.2128 16.2413 14.3367 16.3257 14.4856H14.307C14.1827 14.4856 14.0634 14.535 13.9755 14.6229C13.8876 14.7108 13.8382 14.83 13.8382 14.9543C13.8382 15.0786 13.8876 15.1979 13.9755 15.2858C14.0634 15.3737 14.1827 15.4231 14.307 15.4231H16.3526C16.2723 15.5844 16.1487 15.7203 15.9956 15.8154C15.8425 15.9105 15.666 15.9612 15.4857 15.9618ZM32.0001 10.6806C32.0001 10.6743 32.0001 10.6687 32.0001 10.6624C31.9995 10.6507 31.9982 10.639 31.9963 10.6274V10.6212C31.9791 10.5167 31.9269 10.4212 31.8484 10.3501C31.7698 10.2791 31.6695 10.2367 31.5638 10.2299L29.4076 10.0943C29.2833 10.0865 29.161 10.1284 29.0675 10.2108C28.9741 10.2932 28.9173 10.4094 28.9095 10.5337C28.9017 10.658 28.9436 10.7803 29.026 10.8738C29.1084 10.9672 29.2245 11.024 29.3488 11.0318L30.4313 11.0993L27.337 14.0274V7.77932C27.3371 7.66583 27.2959 7.55616 27.2212 7.47074C27.1464 7.38531 27.0432 7.32995 26.9307 7.31495C24.853 7.03661 22.8399 6.39764 20.982 5.42682C19.2566 4.52665 17.6893 3.35171 16.3413 1.94807C16.2983 1.90336 16.2468 1.86763 16.1898 1.84295C16.1328 1.81828 16.0716 1.80515 16.0095 1.80432H16.0001C15.8771 1.8039 15.7589 1.85169 15.6707 1.93745C14.5069 3.08817 13.2024 4.08732 11.7882 4.9112C9.71298 6.11904 7.43311 6.9345 5.0626 7.31682C4.95281 7.33464 4.85295 7.39097 4.78092 7.47572C4.70888 7.56047 4.66937 7.6681 4.66947 7.77932V14.0199C4.66977 14.8888 4.7421 15.7562 4.88572 16.6131L0.146348 21.0943C0.101658 21.1367 0.0657468 21.1874 0.0406653 21.2436C0.0155839 21.2999 0.00182327 21.3605 0.000169224 21.422C-0.00148482 21.4836 0.00900008 21.5449 0.0310253 21.6024C0.0530505 21.6599 0.0861846 21.7124 0.128536 21.7571C0.170887 21.8018 0.221626 21.8377 0.277856 21.8628C0.334086 21.8879 0.394705 21.9017 0.456253 21.9033C0.517801 21.905 0.579072 21.8945 0.636568 21.8725C0.694063 21.8504 0.746658 21.8173 0.791348 21.7749L5.10385 17.6956C5.60966 19.7761 6.5078 21.741 7.7501 23.4849C9.69947 26.2443 12.482 28.5474 15.7976 30.1487C15.8611 30.1795 15.9308 30.1956 16.0013 30.1956C16.0719 30.1956 16.1416 30.1795 16.2051 30.1487C19.5207 28.5487 22.3032 26.2443 24.2526 23.4849C25.9957 21.0168 27.0276 18.2349 27.2757 15.3731L31.0626 11.7887V12.8668C31.0626 12.9911 31.112 13.1104 31.1999 13.1983C31.2878 13.2862 31.407 13.3356 31.5313 13.3356C31.6557 13.3356 31.7749 13.2862 31.8628 13.1983C31.9507 13.1104 32.0001 12.9911 32.0001 12.8668V10.6974C32.0001 10.6918 32.0001 10.6874 32.0001 10.6806ZM23.4857 22.9437C21.6676 25.5168 19.0826 27.6787 16.0001 29.2049C12.9176 27.6787 10.3326 25.5174 8.51447 22.9437C7.23279 21.1482 6.34097 19.1044 5.89635 16.9437L6.70885 16.1731C7.0551 18.3662 7.92572 20.4856 9.27885 22.4024C10.872 24.6587 13.1188 26.6062 15.7788 28.0349C15.8471 28.0714 15.9233 28.0905 16.0007 28.0905C16.0781 28.0905 16.1543 28.0714 16.2226 28.0349C18.8801 26.6062 21.127 24.6599 22.7226 22.4024C23.7751 20.9253 24.551 19.2696 25.0126 17.5156L26.2082 16.3843C25.8307 18.6962 24.9088 20.9293 23.4857 22.9437ZM12.3538 19.6562C13.3052 20.6119 14.5939 21.1556 15.9422 21.1702C17.2906 21.1848 18.5908 20.6692 19.5626 19.7343L20.8751 20.8537C20.963 20.9285 21.0754 20.9682 21.1907 20.9652C21.3061 20.9622 21.4162 20.9167 21.5001 20.8374L23.5845 18.8656C23.162 19.9255 22.6148 20.9313 21.9545 21.8618C20.4882 23.9374 18.4332 25.7406 16.0001 27.0887C13.567 25.7406 11.512 23.9374 10.0463 21.8618C8.64385 19.8768 7.79635 17.6587 7.55135 15.3781L10.8388 12.2674L11.7607 13.0562C11.0733 14.0524 10.7563 15.2579 10.8646 16.4634C10.9729 17.6689 11.4998 18.7985 12.3538 19.6562ZM11.7813 15.9999C11.783 15.0221 12.1236 14.075 12.7451 13.3201C13.3666 12.5651 14.2306 12.049 15.1899 11.8596C16.1493 11.6701 17.1446 11.8191 18.0065 12.2812C18.8683 12.7433 19.5432 13.4898 19.9164 14.3937C20.2896 15.2976 20.3379 16.3029 20.053 17.2383C19.7682 18.1738 19.1679 18.9816 18.3543 19.5241C17.5408 20.0667 16.5643 20.3104 15.5912 20.2138C14.6181 20.1172 13.7086 19.6862 13.0176 18.9943C12.6241 18.6015 12.3123 18.1347 12.1001 17.6207C11.8879 17.1068 11.7796 16.556 11.7813 15.9999ZM21.1613 19.8668L20.1807 19.0274C20.9453 17.9773 21.2858 16.6775 21.1344 15.3874C20.9829 14.0973 20.3507 12.9117 19.3637 12.0671C18.3767 11.2226 17.1076 10.7813 15.8095 10.8311C14.5115 10.881 13.28 11.4184 12.3607 12.3362L11.1251 11.2812C11.0373 11.2063 10.925 11.1665 10.8096 11.1694C10.6943 11.1723 10.584 11.2177 10.5001 11.2968L7.47947 14.1549C7.47947 14.1099 7.47947 14.0649 7.47947 14.0199V9.68307C9.48707 9.17317 11.4137 8.38579 13.2038 7.3437C14.1712 6.78008 15.0946 6.14432 15.9663 5.44182C17.111 6.39861 18.3552 7.22943 19.6776 7.91995C21.211 8.72114 22.8384 9.32791 24.522 9.7262V14.0199C24.5215 15.0317 24.4021 16.0398 24.1663 17.0237L21.1613 19.8668ZM26.3963 14.0199C26.3963 14.3274 26.3866 14.6345 26.367 14.9412L25.3263 15.9256C25.4146 15.2942 25.4589 14.6575 25.4588 14.0199V9.35182C25.4587 9.24495 25.4221 9.14133 25.3551 9.05812C25.288 8.97491 25.1945 8.91712 25.0901 8.89432C23.3572 8.5173 21.6825 7.91003 20.1107 7.0887C18.7358 6.37069 17.4498 5.49409 16.2788 4.47682C16.1946 4.40386 16.0872 4.36323 15.9758 4.3622C15.8644 4.36117 15.7563 4.39981 15.6707 4.4712C14.7511 5.23984 13.7685 5.92977 12.7332 6.5337C10.9149 7.59173 8.95043 8.3756 6.90322 8.85995C6.80063 8.88427 6.70923 8.94247 6.6438 9.02514C6.57836 9.10782 6.54271 9.21014 6.5426 9.31557V14.0199C6.5426 14.3508 6.55468 14.6806 6.57885 15.0093L5.71635 15.8218C5.64237 15.223 5.60522 14.6202 5.6051 14.0168V8.17432C7.94944 7.75063 10.2019 6.92133 12.2613 5.7237C13.6078 4.93883 14.8599 4.00231 15.9932 2.93245C17.3358 4.26252 18.8704 5.38355 20.5457 6.25807C22.3776 7.21612 24.3539 7.86786 26.3963 8.18745V14.0199Z"/>
</mask>
<path d="M15.4857 15.9618H14.3338C14.2371 15.9519 14.1396 15.9724 14.055 16.0204C13.9704 16.0683 13.9027 16.1414 13.8615 16.2296C13.8203 16.3177 13.8076 16.4165 13.825 16.5122C13.8424 16.6079 13.8892 16.6958 13.9588 16.7637L16.5495 19.2893C16.5935 19.3323 16.6457 19.3662 16.7028 19.3891C16.76 19.412 16.8211 19.4234 16.8827 19.4226C16.9443 19.4218 17.0051 19.409 17.0617 19.3847C17.1183 19.3604 17.1696 19.3253 17.2126 19.2812C17.2556 19.2371 17.2895 19.185 17.3124 19.1278C17.3352 19.0707 17.3466 19.0095 17.3459 18.948C17.3451 18.8864 17.3322 18.8256 17.308 18.7689C17.2837 18.7123 17.2485 18.6611 17.2045 18.6181L15.4407 16.8993H15.4845C15.9151 16.898 16.3328 16.7516 16.67 16.4838C17.0073 16.2159 17.2444 15.8423 17.3432 15.4231H17.7245C17.8488 15.4231 17.968 15.3737 18.0559 15.2858C18.1438 15.1979 18.1932 15.0786 18.1932 14.9543C18.1932 14.83 18.1438 14.7108 18.0559 14.6229C17.968 14.535 17.8488 14.4856 17.7245 14.4856H17.3313C17.2857 14.3129 17.2162 14.1473 17.1251 13.9937H17.7245C17.8488 13.9937 17.968 13.9443 18.0559 13.8564C18.1438 13.7685 18.1932 13.6493 18.1932 13.5249C18.1932 13.4006 18.1438 13.2814 18.0559 13.1935C17.968 13.1056 17.8488 13.0562 17.7245 13.0562H14.3057C14.1814 13.0562 14.0622 13.1056 13.9743 13.1935C13.8864 13.2814 13.837 13.4006 13.837 13.5249C13.837 13.6493 13.8864 13.7685 13.9743 13.8564C14.0622 13.9443 14.1814 13.9937 14.3057 13.9937H15.4845C15.6556 13.9942 15.8236 14.04 15.9713 14.1264C16.119 14.2128 16.2413 14.3367 16.3257 14.4856H14.307C14.1827 14.4856 14.0634 14.535 13.9755 14.6229C13.8876 14.7108 13.8382 14.83 13.8382 14.9543C13.8382 15.0786 13.8876 15.1979 13.9755 15.2858C14.0634 15.3737 14.1827 15.4231 14.307 15.4231H16.3526C16.2723 15.5844 16.1487 15.7203 15.9956 15.8154C15.8425 15.9105 15.666 15.9612 15.4857 15.9618ZM32.0001 10.6806C32.0001 10.6743 32.0001 10.6687 32.0001 10.6624C31.9995 10.6507 31.9982 10.639 31.9963 10.6274V10.6212C31.9791 10.5167 31.9269 10.4212 31.8484 10.3501C31.7698 10.2791 31.6695 10.2367 31.5638 10.2299L29.4076 10.0943C29.2833 10.0865 29.161 10.1284 29.0675 10.2108C28.9741 10.2932 28.9173 10.4094 28.9095 10.5337C28.9017 10.658 28.9436 10.7803 29.026 10.8738C29.1084 10.9672 29.2245 11.024 29.3488 11.0318L30.4313 11.0993L27.337 14.0274V7.77932C27.3371 7.66583 27.2959 7.55616 27.2212 7.47074C27.1464 7.38531 27.0432 7.32995 26.9307 7.31495C24.853 7.03661 22.8399 6.39764 20.982 5.42682C19.2566 4.52665 17.6893 3.35171 16.3413 1.94807C16.2983 1.90336 16.2468 1.86763 16.1898 1.84295C16.1328 1.81828 16.0716 1.80515 16.0095 1.80432H16.0001C15.8771 1.8039 15.7589 1.85169 15.6707 1.93745C14.5069 3.08817 13.2024 4.08732 11.7882 4.9112C9.71298 6.11904 7.43311 6.9345 5.0626 7.31682C4.95281 7.33464 4.85295 7.39097 4.78092 7.47572C4.70888 7.56047 4.66937 7.6681 4.66947 7.77932V14.0199C4.66977 14.8888 4.7421 15.7562 4.88572 16.6131L0.146348 21.0943C0.101658 21.1367 0.0657468 21.1874 0.0406653 21.2436C0.0155839 21.2999 0.00182327 21.3605 0.000169224 21.422C-0.00148482 21.4836 0.00900008 21.5449 0.0310253 21.6024C0.0530505 21.6599 0.0861846 21.7124 0.128536 21.7571C0.170887 21.8018 0.221626 21.8377 0.277856 21.8628C0.334086 21.8879 0.394705 21.9017 0.456253 21.9033C0.517801 21.905 0.579072 21.8945 0.636568 21.8725C0.694063 21.8504 0.746658 21.8173 0.791348 21.7749L5.10385 17.6956C5.60966 19.7761 6.5078 21.741 7.7501 23.4849C9.69947 26.2443 12.482 28.5474 15.7976 30.1487C15.8611 30.1795 15.9308 30.1956 16.0013 30.1956C16.0719 30.1956 16.1416 30.1795 16.2051 30.1487C19.5207 28.5487 22.3032 26.2443 24.2526 23.4849C25.9957 21.0168 27.0276 18.2349 27.2757 15.3731L31.0626 11.7887V12.8668C31.0626 12.9911 31.112 13.1104 31.1999 13.1983C31.2878 13.2862 31.407 13.3356 31.5313 13.3356C31.6557 13.3356 31.7749 13.2862 31.8628 13.1983C31.9507 13.1104 32.0001 12.9911 32.0001 12.8668V10.6974C32.0001 10.6918 32.0001 10.6874 32.0001 10.6806ZM23.4857 22.9437C21.6676 25.5168 19.0826 27.6787 16.0001 29.2049C12.9176 27.6787 10.3326 25.5174 8.51447 22.9437C7.23279 21.1482 6.34097 19.1044 5.89635 16.9437L6.70885 16.1731C7.0551 18.3662 7.92572 20.4856 9.27885 22.4024C10.872 24.6587 13.1188 26.6062 15.7788 28.0349C15.8471 28.0714 15.9233 28.0905 16.0007 28.0905C16.0781 28.0905 16.1543 28.0714 16.2226 28.0349C18.8801 26.6062 21.127 24.6599 22.7226 22.4024C23.7751 20.9253 24.551 19.2696 25.0126 17.5156L26.2082 16.3843C25.8307 18.6962 24.9088 20.9293 23.4857 22.9437ZM12.3538 19.6562C13.3052 20.6119 14.5939 21.1556 15.9422 21.1702C17.2906 21.1848 18.5908 20.6692 19.5626 19.7343L20.8751 20.8537C20.963 20.9285 21.0754 20.9682 21.1907 20.9652C21.3061 20.9622 21.4162 20.9167 21.5001 20.8374L23.5845 18.8656C23.162 19.9255 22.6148 20.9313 21.9545 21.8618C20.4882 23.9374 18.4332 25.7406 16.0001 27.0887C13.567 25.7406 11.512 23.9374 10.0463 21.8618C8.64385 19.8768 7.79635 17.6587 7.55135 15.3781L10.8388 12.2674L11.7607 13.0562C11.0733 14.0524 10.7563 15.2579 10.8646 16.4634C10.9729 17.6689 11.4998 18.7985 12.3538 19.6562ZM11.7813 15.9999C11.783 15.0221 12.1236 14.075 12.7451 13.3201C13.3666 12.5651 14.2306 12.049 15.1899 11.8596C16.1493 11.6701 17.1446 11.8191 18.0065 12.2812C18.8683 12.7433 19.5432 13.4898 19.9164 14.3937C20.2896 15.2976 20.3379 16.3029 20.053 17.2383C19.7682 18.1738 19.1679 18.9816 18.3543 19.5241C17.5408 20.0667 16.5643 20.3104 15.5912 20.2138C14.6181 20.1172 13.7086 19.6862 13.0176 18.9943C12.6241 18.6015 12.3123 18.1347 12.1001 17.6207C11.8879 17.1068 11.7796 16.556 11.7813 15.9999ZM21.1613 19.8668L20.1807 19.0274C20.9453 17.9773 21.2858 16.6775 21.1344 15.3874C20.9829 14.0973 20.3507 12.9117 19.3637 12.0671C18.3767 11.2226 17.1076 10.7813 15.8095 10.8311C14.5115 10.881 13.28 11.4184 12.3607 12.3362L11.1251 11.2812C11.0373 11.2063 10.925 11.1665 10.8096 11.1694C10.6943 11.1723 10.584 11.2177 10.5001 11.2968L7.47947 14.1549C7.47947 14.1099 7.47947 14.0649 7.47947 14.0199V9.68307C9.48707 9.17317 11.4137 8.38579 13.2038 7.3437C14.1712 6.78008 15.0946 6.14432 15.9663 5.44182C17.111 6.39861 18.3552 7.22943 19.6776 7.91995C21.211 8.72114 22.8384 9.32791 24.522 9.7262V14.0199C24.5215 15.0317 24.4021 16.0398 24.1663 17.0237L21.1613 19.8668ZM26.3963 14.0199C26.3963 14.3274 26.3866 14.6345 26.367 14.9412L25.3263 15.9256C25.4146 15.2942 25.4589 14.6575 25.4588 14.0199V9.35182C25.4587 9.24495 25.4221 9.14133 25.3551 9.05812C25.288 8.97491 25.1945 8.91712 25.0901 8.89432C23.3572 8.5173 21.6825 7.91003 20.1107 7.0887C18.7358 6.37069 17.4498 5.49409 16.2788 4.47682C16.1946 4.40386 16.0872 4.36323 15.9758 4.3622C15.8644 4.36117 15.7563 4.39981 15.6707 4.4712C14.7511 5.23984 13.7685 5.92977 12.7332 6.5337C10.9149 7.59173 8.95043 8.3756 6.90322 8.85995C6.80063 8.88427 6.70923 8.94247 6.6438 9.02514C6.57836 9.10782 6.54271 9.21014 6.5426 9.31557V14.0199C6.5426 14.3508 6.55468 14.6806 6.57885 15.0093L5.71635 15.8218C5.64237 15.223 5.60522 14.6202 5.6051 14.0168V8.17432C7.94944 7.75063 10.2019 6.92133 12.2613 5.7237C13.6078 4.93883 14.8599 4.00231 15.9932 2.93245C17.3358 4.26252 18.8704 5.38355 20.5457 6.25807C22.3776 7.21612 24.3539 7.86786 26.3963 8.18745V14.0199Z" fill="#38004D"/>
<path d="M15.4857 15.9618H14.3338C14.2371 15.9519 14.1396 15.9724 14.055 16.0204C13.9704 16.0683 13.9027 16.1414 13.8615 16.2296C13.8203 16.3177 13.8076 16.4165 13.825 16.5122C13.8424 16.6079 13.8892 16.6958 13.9588 16.7637L16.5495 19.2893C16.5935 19.3323 16.6457 19.3662 16.7028 19.3891C16.76 19.412 16.8211 19.4234 16.8827 19.4226C16.9443 19.4218 17.0051 19.409 17.0617 19.3847C17.1183 19.3604 17.1696 19.3253 17.2126 19.2812C17.2556 19.2371 17.2895 19.185 17.3124 19.1278C17.3352 19.0707 17.3466 19.0095 17.3459 18.948C17.3451 18.8864 17.3322 18.8256 17.308 18.7689C17.2837 18.7123 17.2485 18.6611 17.2045 18.6181L15.4407 16.8993H15.4845C15.9151 16.898 16.3328 16.7516 16.67 16.4838C17.0073 16.2159 17.2444 15.8423 17.3432 15.4231H17.7245C17.8488 15.4231 17.968 15.3737 18.0559 15.2858C18.1438 15.1979 18.1932 15.0786 18.1932 14.9543C18.1932 14.83 18.1438 14.7108 18.0559 14.6229C17.968 14.535 17.8488 14.4856 17.7245 14.4856H17.3313C17.2857 14.3129 17.2162 14.1473 17.1251 13.9937H17.7245C17.8488 13.9937 17.968 13.9443 18.0559 13.8564C18.1438 13.7685 18.1932 13.6493 18.1932 13.5249C18.1932 13.4006 18.1438 13.2814 18.0559 13.1935C17.968 13.1056 17.8488 13.0562 17.7245 13.0562H14.3057C14.1814 13.0562 14.0622 13.1056 13.9743 13.1935C13.8864 13.2814 13.837 13.4006 13.837 13.5249C13.837 13.6493 13.8864 13.7685 13.9743 13.8564C14.0622 13.9443 14.1814 13.9937 14.3057 13.9937H15.4845C15.6556 13.9942 15.8236 14.04 15.9713 14.1264C16.119 14.2128 16.2413 14.3367 16.3257 14.4856H14.307C14.1827 14.4856 14.0634 14.535 13.9755 14.6229C13.8876 14.7108 13.8382 14.83 13.8382 14.9543C13.8382 15.0786 13.8876 15.1979 13.9755 15.2858C14.0634 15.3737 14.1827 15.4231 14.307 15.4231H16.3526C16.2723 15.5844 16.1487 15.7203 15.9956 15.8154C15.8425 15.9105 15.666 15.9612 15.4857 15.9618ZM32.0001 10.6806C32.0001 10.6743 32.0001 10.6687 32.0001 10.6624C31.9995 10.6507 31.9982 10.639 31.9963 10.6274V10.6212C31.9791 10.5167 31.9269 10.4212 31.8484 10.3501C31.7698 10.2791 31.6695 10.2367 31.5638 10.2299L29.4076 10.0943C29.2833 10.0865 29.161 10.1284 29.0675 10.2108C28.9741 10.2932 28.9173 10.4094 28.9095 10.5337C28.9017 10.658 28.9436 10.7803 29.026 10.8738C29.1084 10.9672 29.2245 11.024 29.3488 11.0318L30.4313 11.0993L27.337 14.0274V7.77932C27.3371 7.66583 27.2959 7.55616 27.2212 7.47074C27.1464 7.38531 27.0432 7.32995 26.9307 7.31495C24.853 7.03661 22.8399 6.39764 20.982 5.42682C19.2566 4.52665 17.6893 3.35171 16.3413 1.94807C16.2983 1.90336 16.2468 1.86763 16.1898 1.84295C16.1328 1.81828 16.0716 1.80515 16.0095 1.80432H16.0001C15.8771 1.8039 15.7589 1.85169 15.6707 1.93745C14.5069 3.08817 13.2024 4.08732 11.7882 4.9112C9.71298 6.11904 7.43311 6.9345 5.0626 7.31682C4.95281 7.33464 4.85295 7.39097 4.78092 7.47572C4.70888 7.56047 4.66937 7.6681 4.66947 7.77932V14.0199C4.66977 14.8888 4.7421 15.7562 4.88572 16.6131L0.146348 21.0943C0.101658 21.1367 0.0657468 21.1874 0.0406653 21.2436C0.0155839 21.2999 0.00182327 21.3605 0.000169224 21.422C-0.00148482 21.4836 0.00900008 21.5449 0.0310253 21.6024C0.0530505 21.6599 0.0861846 21.7124 0.128536 21.7571C0.170887 21.8018 0.221626 21.8377 0.277856 21.8628C0.334086 21.8879 0.394705 21.9017 0.456253 21.9033C0.517801 21.905 0.579072 21.8945 0.636568 21.8725C0.694063 21.8504 0.746658 21.8173 0.791348 21.7749L5.10385 17.6956C5.60966 19.7761 6.5078 21.741 7.7501 23.4849C9.69947 26.2443 12.482 28.5474 15.7976 30.1487C15.8611 30.1795 15.9308 30.1956 16.0013 30.1956C16.0719 30.1956 16.1416 30.1795 16.2051 30.1487C19.5207 28.5487 22.3032 26.2443 24.2526 23.4849C25.9957 21.0168 27.0276 18.2349 27.2757 15.3731L31.0626 11.7887V12.8668C31.0626 12.9911 31.112 13.1104 31.1999 13.1983C31.2878 13.2862 31.407 13.3356 31.5313 13.3356C31.6557 13.3356 31.7749 13.2862 31.8628 13.1983C31.9507 13.1104 32.0001 12.9911 32.0001 12.8668V10.6974C32.0001 10.6918 32.0001 10.6874 32.0001 10.6806ZM23.4857 22.9437C21.6676 25.5168 19.0826 27.6787 16.0001 29.2049C12.9176 27.6787 10.3326 25.5174 8.51447 22.9437C7.23279 21.1482 6.34097 19.1044 5.89635 16.9437L6.70885 16.1731C7.0551 18.3662 7.92572 20.4856 9.27885 22.4024C10.872 24.6587 13.1188 26.6062 15.7788 28.0349C15.8471 28.0714 15.9233 28.0905 16.0007 28.0905C16.0781 28.0905 16.1543 28.0714 16.2226 28.0349C18.8801 26.6062 21.127 24.6599 22.7226 22.4024C23.7751 20.9253 24.551 19.2696 25.0126 17.5156L26.2082 16.3843C25.8307 18.6962 24.9088 20.9293 23.4857 22.9437ZM12.3538 19.6562C13.3052 20.6119 14.5939 21.1556 15.9422 21.1702C17.2906 21.1848 18.5908 20.6692 19.5626 19.7343L20.8751 20.8537C20.963 20.9285 21.0754 20.9682 21.1907 20.9652C21.3061 20.9622 21.4162 20.9167 21.5001 20.8374L23.5845 18.8656C23.162 19.9255 22.6148 20.9313 21.9545 21.8618C20.4882 23.9374 18.4332 25.7406 16.0001 27.0887C13.567 25.7406 11.512 23.9374 10.0463 21.8618C8.64385 19.8768 7.79635 17.6587 7.55135 15.3781L10.8388 12.2674L11.7607 13.0562C11.0733 14.0524 10.7563 15.2579 10.8646 16.4634C10.9729 17.6689 11.4998 18.7985 12.3538 19.6562ZM11.7813 15.9999C11.783 15.0221 12.1236 14.075 12.7451 13.3201C13.3666 12.5651 14.2306 12.049 15.1899 11.8596C16.1493 11.6701 17.1446 11.8191 18.0065 12.2812C18.8683 12.7433 19.5432 13.4898 19.9164 14.3937C20.2896 15.2976 20.3379 16.3029 20.053 17.2383C19.7682 18.1738 19.1679 18.9816 18.3543 19.5241C17.5408 20.0667 16.5643 20.3104 15.5912 20.2138C14.6181 20.1172 13.7086 19.6862 13.0176 18.9943C12.6241 18.6015 12.3123 18.1347 12.1001 17.6207C11.8879 17.1068 11.7796 16.556 11.7813 15.9999ZM21.1613 19.8668L20.1807 19.0274C20.9453 17.9773 21.2858 16.6775 21.1344 15.3874C20.9829 14.0973 20.3507 12.9117 19.3637 12.0671C18.3767 11.2226 17.1076 10.7813 15.8095 10.8311C14.5115 10.881 13.28 11.4184 12.3607 12.3362L11.1251 11.2812C11.0373 11.2063 10.925 11.1665 10.8096 11.1694C10.6943 11.1723 10.584 11.2177 10.5001 11.2968L7.47947 14.1549C7.47947 14.1099 7.47947 14.0649 7.47947 14.0199V9.68307C9.48707 9.17317 11.4137 8.38579 13.2038 7.3437C14.1712 6.78008 15.0946 6.14432 15.9663 5.44182C17.111 6.39861 18.3552 7.22943 19.6776 7.91995C21.211 8.72114 22.8384 9.32791 24.522 9.7262V14.0199C24.5215 15.0317 24.4021 16.0398 24.1663 17.0237L21.1613 19.8668ZM26.3963 14.0199C26.3963 14.3274 26.3866 14.6345 26.367 14.9412L25.3263 15.9256C25.4146 15.2942 25.4589 14.6575 25.4588 14.0199V9.35182C25.4587 9.24495 25.4221 9.14133 25.3551 9.05812C25.288 8.97491 25.1945 8.91712 25.0901 8.89432C23.3572 8.5173 21.6825 7.91003 20.1107 7.0887C18.7358 6.37069 17.4498 5.49409 16.2788 4.47682C16.1946 4.40386 16.0872 4.36323 15.9758 4.3622C15.8644 4.36117 15.7563 4.39981 15.6707 4.4712C14.7511 5.23984 13.7685 5.92977 12.7332 6.5337C10.9149 7.59173 8.95043 8.3756 6.90322 8.85995C6.80063 8.88427 6.70923 8.94247 6.6438 9.02514C6.57836 9.10782 6.54271 9.21014 6.5426 9.31557V14.0199C6.5426 14.3508 6.55468 14.6806 6.57885 15.0093L5.71635 15.8218C5.64237 15.223 5.60522 14.6202 5.6051 14.0168V8.17432C7.94944 7.75063 10.2019 6.92133 12.2613 5.7237C13.6078 4.93883 14.8599 4.00231 15.9932 2.93245C17.3358 4.26252 18.8704 5.38355 20.5457 6.25807C22.3776 7.21612 24.3539 7.86786 26.3963 8.18745V14.0199Z" stroke="#38004D" stroke-width="0.4" mask="url(#path-1-outside-1_107_466)"/>
</g>
<defs>
<clipPath id="clip0_107_466">
<rect width="32" height="32" fill="white"/>
</clipPath>
</defs>
</svg>
