<svg width="113" height="114" viewBox="0 0 113 114" fill="none" xmlns="http://www.w3.org/2000/svg">
<path d="M18.7588 3.68761C17.9643 3.84312 16.5297 4.37627 15.5586 4.86499C11.5639 6.8643 8.80508 10.2631 7.56914 14.6616C7.19395 16.0389 7.17188 18.1937 7.17188 61.8676C7.17188 107.23 7.17188 107.63 7.61328 108.385C7.85605 108.785 8.40781 109.318 8.82715 109.54C9.55547 109.94 10.8576 109.962 43.8086 109.962C75.943 109.962 78.0617 109.94 78.79 109.562C79.2094 109.362 79.7832 108.851 80.0481 108.429L80.5557 107.674V84.3931V61.1123L91.5467 61.0456C102.052 60.979 102.538 60.9568 103.266 60.5347C103.663 60.2903 104.193 59.735 104.414 59.3129C104.811 58.5798 104.833 57.6024 104.833 37.9203C104.833 14.595 104.877 15.4391 103.134 11.7959C102.317 10.0632 101.831 9.37454 100.331 7.88617C98.874 6.3978 98.1457 5.86465 96.4463 5.02049C92.8047 3.22112 95.6076 3.33218 55.7266 3.3544C26.1965 3.3544 19.9506 3.42104 18.7588 3.68761ZM77.2451 9.64112C77.2451 9.68555 76.892 10.3076 76.4727 11.0184C76.0313 11.7515 75.4133 13.1288 75.0822 14.1062L74.4863 15.8834L74.4201 59.8016L74.376 103.742H43.9189H13.4619L13.5061 59.8016L13.5723 15.8834L14.2123 14.5505C15.3379 12.2847 17.6773 10.352 20.0168 9.79662C20.8113 9.6189 77.2451 9.4634 77.2451 9.64112ZM93.2461 10.3964C94.9455 11.2184 96.6008 12.7067 97.3953 14.1729C98.6754 16.5276 98.6533 16.2166 98.6533 36.2542V54.6478H89.6045H80.5557V36.2542C80.5557 16.2166 80.5336 16.5276 81.8137 14.1729C82.8731 12.218 85.3229 10.352 87.552 9.77441C89.1189 9.37454 91.657 9.66334 93.2461 10.3964Z" fill="#38004D"/>
<path d="M57.0498 17.2385C56.6967 17.4384 55.4828 18.5047 54.3573 19.6155L52.3268 21.637L51.3778 20.9483C48.6411 18.9712 45.5291 17.9938 42.042 17.9938C37.628 17.9938 34.0526 19.4822 31.0069 22.5478C27.9391 25.6356 26.5266 28.8345 26.328 33.0997C26.1735 36.032 26.7252 38.5423 28.0715 41.1858C29.3957 43.7849 32.287 46.6728 34.8692 47.939C35.9065 48.45 37.3852 49.0497 38.1797 49.2497C40.1219 49.7606 43.9842 49.7606 45.9043 49.2497C50.4508 48.0279 54.1586 44.9623 56.167 40.7637C58.0651 36.7873 58.3299 32.7665 56.9616 28.679L56.2553 26.5908L58.7934 24.0139C60.8018 21.948 61.3535 21.2815 61.4639 20.6151C61.9274 18.0826 59.301 16.0611 57.0498 17.2385ZM46.2354 25.1913L47.9569 26.0355L45.1539 28.8345L42.3731 31.6557L41.3358 30.6117C40.0336 29.3676 39.5481 29.1011 38.5108 29.1011C36.7672 29.1011 35.5313 30.4117 35.5313 32.2333C35.5313 33.4996 36.061 34.2771 38.6432 36.7873C40.6295 38.72 41.0709 39.031 41.9317 39.0976C43.609 39.2531 43.609 39.2309 47.5596 35.2989C51.775 31.1226 51.6426 31.167 51.6426 33.7661C51.6205 39.6752 46.2354 44.3403 40.5633 43.3184C32.9932 41.9633 29.8371 32.8775 35.0016 27.3017C37.0983 25.0802 39.2832 24.1694 42.3952 24.2805C44.3373 24.3249 44.6684 24.4138 46.2354 25.1913Z" fill="#613EEA"/>
<path d="M21.4062 62.3785C20.391 62.8894 19.6406 64.0446 19.6406 65.1331C19.6406 66.9769 20.8986 68.1987 22.8187 68.1987C23.7678 68.1987 23.9885 68.1098 24.7168 67.3546C25.8203 66.2438 26.0189 65.2664 25.401 63.8891C25.0479 63.0671 24.7609 62.7561 24.0105 62.4229C22.8408 61.8898 22.3773 61.8676 21.4062 62.3785Z" fill="#38004D"/>
<path d="M34.1188 62.2008C32.927 62.5784 32 63.8891 32 65.2219C32 66.1327 32.64 67.2657 33.4346 67.7544C34.1408 68.1987 34.4939 68.1987 50.0977 68.1987C67.8863 68.1987 66.8049 68.2876 67.7318 66.6437C68.5264 65.1997 68.1732 63.5781 66.849 62.6228L66.0986 62.0897L50.4287 62.0453C41.8213 62.0231 34.4719 62.0897 34.1188 62.2008Z" fill="#38004D"/>
<path d="M21.0319 75.0852C18.5159 76.618 19.6415 80.7055 22.5768 80.7055C23.9452 80.7055 24.8942 80.1279 25.4239 78.9283C26.0198 77.5733 25.8212 76.5958 24.7176 75.4851C23.9893 74.7298 23.7686 74.6409 22.8196 74.6409C22.1354 74.6409 21.4733 74.7964 21.0319 75.0852Z" fill="#38004D"/>
<path d="M33.4125 75.063C32.6621 75.5295 32 76.7291 32 77.6177C32 78.5729 32.5518 79.6392 33.3463 80.2168L34.0967 80.7499H49.9873C64.7744 80.7499 65.9221 80.7277 66.5842 80.3501C68.5705 79.2616 68.6809 76.2182 66.7828 75.063C66.1207 74.6631 65.3703 74.6409 50.0977 74.6409C34.825 74.6409 34.0746 74.6631 33.4125 75.063Z" fill="#38004D"/>
<path d="M21.0315 87.5254C18.8245 88.8805 19.3542 92.3459 21.8922 93.1234C24.342 93.8565 26.6153 91.1463 25.4456 88.8582C24.6069 87.2144 22.5323 86.5924 21.0315 87.5254Z" fill="#38004D"/>
<path d="M33.8766 87.281C32.2213 87.9919 31.5151 90.28 32.4862 91.7461C33.5676 93.3678 32.7289 93.3012 50.0541 93.3012C66.8717 93.3012 66.5186 93.3234 67.4897 92.0794C68.0414 91.3907 68.3063 90.2133 68.1076 89.4136C68.0194 89.1026 67.6221 88.4584 67.2028 88.0141L66.4744 87.1922L50.3852 87.1477C41.5571 87.1255 34.1194 87.1922 33.8766 87.281Z" fill="#38004D"/>
</svg>
