<svg width="32" height="32" viewBox="0 0 32 32" fill="none" xmlns="http://www.w3.org/2000/svg">
<mask id="path-1-outside-1_131_1019" maskUnits="userSpaceOnUse" x="1.81641" y="0.995361" width="28" height="30" fill="black">
<rect fill="white" x="1.81641" y="0.995361" width="28" height="30"/>
<path d="M6.12581 2.06738C5.65539 2.25336 5.34906 2.5378 5.14667 2.97541C5.03727 3.21609 5.0318 3.31456 5.0318 4.89541V6.56379L5.18496 6.87558C5.34359 7.20379 5.74838 7.60857 5.97265 7.66327C6.09846 7.69609 6.09846 7.70704 6.09846 8.47832V9.26054L4.69812 11.1094C3.2212 13.0677 2.9641 13.4889 2.87111 14.0852C2.83829 14.3094 2.81641 16.4811 2.81641 19.9108C2.81641 25.917 2.81094 25.7255 3.15009 26.4038C3.35795 26.814 3.89402 27.3665 4.26598 27.558C4.91145 27.8807 4.72 27.8698 9.73607 27.8698H14.3419L14.495 28.105C14.9381 28.7723 15.7586 29.4233 16.5354 29.7241C17.1699 29.9648 17.5474 30.0195 18.3405 29.9867C19.079 29.9593 19.5385 29.8499 20.0745 29.5764C20.4738 29.3795 27.0325 25.5887 27.3224 25.3918C28.225 24.7737 28.9087 23.6687 29.1111 22.4708C29.1877 22.0168 29.1932 21.8527 29.1385 21.3713C28.9251 19.4568 27.6561 17.9908 25.8181 17.5313C25.3969 17.4274 25.2274 17.411 24.5874 17.4328C23.6027 17.4711 23.2417 17.5915 21.9453 18.3409C21.3983 18.6527 20.8185 18.9864 20.6653 19.0739L20.3754 19.238V16.6999C20.3754 13.9429 20.3644 13.8609 20.0581 13.2646C19.9761 13.1005 19.2704 12.1214 18.4991 11.093L17.0933 9.21678V8.48379V7.7508L17.334 7.60857C17.6841 7.40618 18.0123 7.00686 18.1108 6.66772C18.1764 6.43797 18.1874 6.08789 18.1764 4.77507C18.16 3.19968 18.16 3.16686 18.0287 2.90977C17.8373 2.54327 17.5091 2.23695 17.1644 2.10567C16.88 1.99627 16.7378 1.99627 11.5795 2.00173C7.66291 2.00173 6.24616 2.02361 6.12581 2.06738ZM16.612 3.14498C16.7214 3.1778 16.8636 3.26532 16.9292 3.34738C17.0332 3.47866 17.0386 3.56071 17.0386 4.89541C17.0386 6.23011 17.0332 6.31216 16.9292 6.44345C16.8636 6.5255 16.7214 6.61302 16.612 6.64584C16.3056 6.72789 6.78769 6.71695 6.53607 6.62943C6.18598 6.50908 6.15316 6.36686 6.15316 4.89541C6.15316 3.42396 6.18598 3.28173 6.53607 3.16139C6.78769 3.07387 16.3056 3.06293 16.612 3.14498ZM15.9446 8.34156V8.88857H13.401C10.573 8.88857 10.6496 8.87763 10.5292 9.2496C10.48 9.38635 10.48 9.48481 10.5292 9.62156C10.6496 9.99353 10.5621 9.98259 13.5378 9.98259H16.2181L17.6185 11.8534C18.9641 13.6475 19.1118 13.8664 19.1938 14.2055L19.2267 14.3587H11.6232C4.26051 14.3587 4.01983 14.3532 4.01983 14.2547C4.01983 14.0031 4.2441 13.6585 5.69915 11.7221L7.24718 9.64891V8.72447V7.79456H11.5959H15.9446V8.34156ZM19.2267 17.679V19.9108L17.7935 20.7313C17.0058 21.1799 16.1525 21.6831 15.8954 21.8417C15.3593 22.1754 14.8287 22.6677 14.5169 23.1217L14.2981 23.439H9.13436H3.96513V19.4458V15.4527H11.5959H19.2267V17.679ZM25.572 18.6527C26.6879 18.9481 27.5631 19.8178 27.9022 20.9501C28.0335 21.3932 28.0335 22.2082 27.9022 22.6404C27.6834 23.3734 27.2568 23.997 26.6988 24.3908C26.3432 24.6424 23.8051 26.1193 23.7285 26.1193C23.6848 26.1193 20.5285 20.6985 20.4957 20.5727C20.4848 20.5234 22.8807 19.1122 23.4769 18.8222C23.9747 18.5761 24.9812 18.494 25.572 18.6527ZM21.0427 23.8711C21.907 25.3699 22.6291 26.6281 22.6455 26.6773C22.6674 26.7375 22.268 26.9946 21.0865 27.6728C20.2168 28.1761 19.358 28.6356 19.1829 28.7012C18.7398 28.8599 17.8373 28.8981 17.3723 28.7778C16.7651 28.6246 16.3385 28.3785 15.8844 27.9245C15.2171 27.2681 14.9053 26.5351 14.9053 25.627C14.9053 24.7026 15.1952 24.0188 15.8571 23.3624C16.2509 22.974 16.4643 22.8318 17.8318 22.0387C18.6742 21.5518 19.3908 21.1525 19.4181 21.147C19.4509 21.147 20.1785 22.3723 21.0427 23.8711ZM13.8222 24.7628C13.773 25.0034 13.773 26.2616 13.8277 26.5132L13.8715 26.7211H9.58291C4.75829 26.7211 5.00445 26.7429 4.51761 26.3053C4.16752 25.9935 4.01436 25.6325 3.97607 25.0417L3.94872 24.5877H8.90462H13.866L13.8222 24.7628Z"/>
</mask>
<path d="M6.12581 2.06738C5.65539 2.25336 5.34906 2.5378 5.14667 2.97541C5.03727 3.21609 5.0318 3.31456 5.0318 4.89541V6.56379L5.18496 6.87558C5.34359 7.20379 5.74838 7.60857 5.97265 7.66327C6.09846 7.69609 6.09846 7.70704 6.09846 8.47832V9.26054L4.69812 11.1094C3.2212 13.0677 2.9641 13.4889 2.87111 14.0852C2.83829 14.3094 2.81641 16.4811 2.81641 19.9108C2.81641 25.917 2.81094 25.7255 3.15009 26.4038C3.35795 26.814 3.89402 27.3665 4.26598 27.558C4.91145 27.8807 4.72 27.8698 9.73607 27.8698H14.3419L14.495 28.105C14.9381 28.7723 15.7586 29.4233 16.5354 29.7241C17.1699 29.9648 17.5474 30.0195 18.3405 29.9867C19.079 29.9593 19.5385 29.8499 20.0745 29.5764C20.4738 29.3795 27.0325 25.5887 27.3224 25.3918C28.225 24.7737 28.9087 23.6687 29.1111 22.4708C29.1877 22.0168 29.1932 21.8527 29.1385 21.3713C28.9251 19.4568 27.6561 17.9908 25.8181 17.5313C25.3969 17.4274 25.2274 17.411 24.5874 17.4328C23.6027 17.4711 23.2417 17.5915 21.9453 18.3409C21.3983 18.6527 20.8185 18.9864 20.6653 19.0739L20.3754 19.238V16.6999C20.3754 13.9429 20.3644 13.8609 20.0581 13.2646C19.9761 13.1005 19.2704 12.1214 18.4991 11.093L17.0933 9.21678V8.48379V7.7508L17.334 7.60857C17.6841 7.40618 18.0123 7.00686 18.1108 6.66772C18.1764 6.43797 18.1874 6.08789 18.1764 4.77507C18.16 3.19968 18.16 3.16686 18.0287 2.90977C17.8373 2.54327 17.5091 2.23695 17.1644 2.10567C16.88 1.99627 16.7378 1.99627 11.5795 2.00173C7.66291 2.00173 6.24616 2.02361 6.12581 2.06738ZM16.612 3.14498C16.7214 3.1778 16.8636 3.26532 16.9292 3.34738C17.0332 3.47866 17.0386 3.56071 17.0386 4.89541C17.0386 6.23011 17.0332 6.31216 16.9292 6.44345C16.8636 6.5255 16.7214 6.61302 16.612 6.64584C16.3056 6.72789 6.78769 6.71695 6.53607 6.62943C6.18598 6.50908 6.15316 6.36686 6.15316 4.89541C6.15316 3.42396 6.18598 3.28173 6.53607 3.16139C6.78769 3.07387 16.3056 3.06293 16.612 3.14498ZM15.9446 8.34156V8.88857H13.401C10.573 8.88857 10.6496 8.87763 10.5292 9.2496C10.48 9.38635 10.48 9.48481 10.5292 9.62156C10.6496 9.99353 10.5621 9.98259 13.5378 9.98259H16.2181L17.6185 11.8534C18.9641 13.6475 19.1118 13.8664 19.1938 14.2055L19.2267 14.3587H11.6232C4.26051 14.3587 4.01983 14.3532 4.01983 14.2547C4.01983 14.0031 4.2441 13.6585 5.69915 11.7221L7.24718 9.64891V8.72447V7.79456H11.5959H15.9446V8.34156ZM19.2267 17.679V19.9108L17.7935 20.7313C17.0058 21.1799 16.1525 21.6831 15.8954 21.8417C15.3593 22.1754 14.8287 22.6677 14.5169 23.1217L14.2981 23.439H9.13436H3.96513V19.4458V15.4527H11.5959H19.2267V17.679ZM25.572 18.6527C26.6879 18.9481 27.5631 19.8178 27.9022 20.9501C28.0335 21.3932 28.0335 22.2082 27.9022 22.6404C27.6834 23.3734 27.2568 23.997 26.6988 24.3908C26.3432 24.6424 23.8051 26.1193 23.7285 26.1193C23.6848 26.1193 20.5285 20.6985 20.4957 20.5727C20.4848 20.5234 22.8807 19.1122 23.4769 18.8222C23.9747 18.5761 24.9812 18.494 25.572 18.6527ZM21.0427 23.8711C21.907 25.3699 22.6291 26.6281 22.6455 26.6773C22.6674 26.7375 22.268 26.9946 21.0865 27.6728C20.2168 28.1761 19.358 28.6356 19.1829 28.7012C18.7398 28.8599 17.8373 28.8981 17.3723 28.7778C16.7651 28.6246 16.3385 28.3785 15.8844 27.9245C15.2171 27.2681 14.9053 26.5351 14.9053 25.627C14.9053 24.7026 15.1952 24.0188 15.8571 23.3624C16.2509 22.974 16.4643 22.8318 17.8318 22.0387C18.6742 21.5518 19.3908 21.1525 19.4181 21.147C19.4509 21.147 20.1785 22.3723 21.0427 23.8711ZM13.8222 24.7628C13.773 25.0034 13.773 26.2616 13.8277 26.5132L13.8715 26.7211H9.58291C4.75829 26.7211 5.00445 26.7429 4.51761 26.3053C4.16752 25.9935 4.01436 25.6325 3.97607 25.0417L3.94872 24.5877H8.90462H13.866L13.8222 24.7628Z" fill="#38004D"/>
<path d="M6.12581 2.06738C5.65539 2.25336 5.34906 2.5378 5.14667 2.97541C5.03727 3.21609 5.0318 3.31456 5.0318 4.89541V6.56379L5.18496 6.87558C5.34359 7.20379 5.74838 7.60857 5.97265 7.66327C6.09846 7.69609 6.09846 7.70704 6.09846 8.47832V9.26054L4.69812 11.1094C3.2212 13.0677 2.9641 13.4889 2.87111 14.0852C2.83829 14.3094 2.81641 16.4811 2.81641 19.9108C2.81641 25.917 2.81094 25.7255 3.15009 26.4038C3.35795 26.814 3.89402 27.3665 4.26598 27.558C4.91145 27.8807 4.72 27.8698 9.73607 27.8698H14.3419L14.495 28.105C14.9381 28.7723 15.7586 29.4233 16.5354 29.7241C17.1699 29.9648 17.5474 30.0195 18.3405 29.9867C19.079 29.9593 19.5385 29.8499 20.0745 29.5764C20.4738 29.3795 27.0325 25.5887 27.3224 25.3918C28.225 24.7737 28.9087 23.6687 29.1111 22.4708C29.1877 22.0168 29.1932 21.8527 29.1385 21.3713C28.9251 19.4568 27.6561 17.9908 25.8181 17.5313C25.3969 17.4274 25.2274 17.411 24.5874 17.4328C23.6027 17.4711 23.2417 17.5915 21.9453 18.3409C21.3983 18.6527 20.8185 18.9864 20.6653 19.0739L20.3754 19.238V16.6999C20.3754 13.9429 20.3644 13.8609 20.0581 13.2646C19.9761 13.1005 19.2704 12.1214 18.4991 11.093L17.0933 9.21678V8.48379V7.7508L17.334 7.60857C17.6841 7.40618 18.0123 7.00686 18.1108 6.66772C18.1764 6.43797 18.1874 6.08789 18.1764 4.77507C18.16 3.19968 18.16 3.16686 18.0287 2.90977C17.8373 2.54327 17.5091 2.23695 17.1644 2.10567C16.88 1.99627 16.7378 1.99627 11.5795 2.00173C7.66291 2.00173 6.24616 2.02361 6.12581 2.06738ZM16.612 3.14498C16.7214 3.1778 16.8636 3.26532 16.9292 3.34738C17.0332 3.47866 17.0386 3.56071 17.0386 4.89541C17.0386 6.23011 17.0332 6.31216 16.9292 6.44345C16.8636 6.5255 16.7214 6.61302 16.612 6.64584C16.3056 6.72789 6.78769 6.71695 6.53607 6.62943C6.18598 6.50908 6.15316 6.36686 6.15316 4.89541C6.15316 3.42396 6.18598 3.28173 6.53607 3.16139C6.78769 3.07387 16.3056 3.06293 16.612 3.14498ZM15.9446 8.34156V8.88857H13.401C10.573 8.88857 10.6496 8.87763 10.5292 9.2496C10.48 9.38635 10.48 9.48481 10.5292 9.62156C10.6496 9.99353 10.5621 9.98259 13.5378 9.98259H16.2181L17.6185 11.8534C18.9641 13.6475 19.1118 13.8664 19.1938 14.2055L19.2267 14.3587H11.6232C4.26051 14.3587 4.01983 14.3532 4.01983 14.2547C4.01983 14.0031 4.2441 13.6585 5.69915 11.7221L7.24718 9.64891V8.72447V7.79456H11.5959H15.9446V8.34156ZM19.2267 17.679V19.9108L17.7935 20.7313C17.0058 21.1799 16.1525 21.6831 15.8954 21.8417C15.3593 22.1754 14.8287 22.6677 14.5169 23.1217L14.2981 23.439H9.13436H3.96513V19.4458V15.4527H11.5959H19.2267V17.679ZM25.572 18.6527C26.6879 18.9481 27.5631 19.8178 27.9022 20.9501C28.0335 21.3932 28.0335 22.2082 27.9022 22.6404C27.6834 23.3734 27.2568 23.997 26.6988 24.3908C26.3432 24.6424 23.8051 26.1193 23.7285 26.1193C23.6848 26.1193 20.5285 20.6985 20.4957 20.5727C20.4848 20.5234 22.8807 19.1122 23.4769 18.8222C23.9747 18.5761 24.9812 18.494 25.572 18.6527ZM21.0427 23.8711C21.907 25.3699 22.6291 26.6281 22.6455 26.6773C22.6674 26.7375 22.268 26.9946 21.0865 27.6728C20.2168 28.1761 19.358 28.6356 19.1829 28.7012C18.7398 28.8599 17.8373 28.8981 17.3723 28.7778C16.7651 28.6246 16.3385 28.3785 15.8844 27.9245C15.2171 27.2681 14.9053 26.5351 14.9053 25.627C14.9053 24.7026 15.1952 24.0188 15.8571 23.3624C16.2509 22.974 16.4643 22.8318 17.8318 22.0387C18.6742 21.5518 19.3908 21.1525 19.4181 21.147C19.4509 21.147 20.1785 22.3723 21.0427 23.8711ZM13.8222 24.7628C13.773 25.0034 13.773 26.2616 13.8277 26.5132L13.8715 26.7211H9.58291C4.75829 26.7211 5.00445 26.7429 4.51761 26.3053C4.16752 25.9935 4.01436 25.6325 3.97607 25.0417L3.94872 24.5877H8.90462H13.866L13.8222 24.7628Z" stroke="#38004D" stroke-width="0.6" mask="url(#path-1-outside-1_131_1019)"/>
<path d="M8.42874 8.86926L8.42874 8.86925L8.43012 8.86819C8.4865 8.82482 8.5612 8.79355 8.63394 8.77299C8.70887 8.75182 8.79372 8.73862 8.87713 8.73862C9.07831 8.73862 9.25728 8.80683 9.38655 8.93429C9.51592 9.06185 9.58508 9.23854 9.58508 9.43563C9.58508 9.83272 9.29094 10.0758 8.98498 10.1278C8.67887 10.1798 8.32245 10.0465 8.19862 9.66864C8.10318 9.38174 8.19641 9.0523 8.42874 8.86926Z" fill="#613EEA" stroke="#613EEA" stroke-width="0.3"/>
<path d="M10.94 22.1103C10.9254 22.0686 10.9162 22.0065 10.9092 21.9457C10.9017 21.8792 10.895 21.7965 10.8894 21.7037C10.8783 21.5178 10.8714 21.2864 10.8714 21.054V20.3616H10.1188C9.8645 20.3616 9.66363 20.3596 9.50468 20.3512C9.34719 20.3428 9.22117 20.3278 9.12044 20.2981C9.01534 20.267 8.93226 20.2184 8.86817 20.1415C8.8082 20.0695 8.77413 19.9832 8.74588 19.8985C8.64404 19.5991 8.74917 19.242 9.01191 19.0644L9.0119 19.0644L9.01395 19.0631C9.10339 19.0047 9.19978 18.9742 9.36263 18.9556C9.52087 18.9375 9.75643 18.9293 10.1323 18.9239L10.8714 18.9056V18.2424C10.8714 17.8157 10.8805 17.5358 10.9178 17.3422C10.937 17.2428 10.9648 17.1591 11.007 17.0864C11.0499 17.0124 11.1035 16.9571 11.1645 16.9096L11.1651 16.9091C11.2215 16.8658 11.2962 16.8345 11.3689 16.8139C11.4439 16.7928 11.5287 16.7796 11.6121 16.7796C11.7149 16.7796 11.8045 16.788 11.8903 16.8225C11.9764 16.8572 12.0449 16.9125 12.1152 16.9799L12.1153 16.9799L12.1175 16.9821L12.2761 17.1408L12.3201 17.1847V17.2468V18.1549V18.9129H12.9523C13.1685 18.9129 13.3889 18.9198 13.5695 18.9302C13.7437 18.9403 13.8968 18.9543 13.9678 18.9721L13.9678 18.972L13.9717 18.9731C14.5076 19.1223 14.6974 19.7602 14.3065 20.1581L14.3065 20.1581L14.3055 20.1591L14.1469 20.3177L14.103 20.3616H14.0408H13.1055H12.3201V21.147V22.0824V22.1445L12.2761 22.1885L12.1175 22.3471C12.0483 22.4163 11.9797 22.4717 11.8943 22.5065C11.8093 22.5411 11.7211 22.5497 11.6231 22.5497C11.4647 22.5497 11.3193 22.5148 11.1988 22.4392C11.0769 22.3628 10.989 22.25 10.94 22.1103ZM10.94 22.1103C10.94 22.1103 10.9401 22.1104 10.9401 22.1104L11.0815 22.0605M10.94 22.1103C10.94 22.1102 10.94 22.1101 10.9399 22.1101L11.0815 22.0605M11.0815 22.0605C11.0487 21.9675 11.0214 21.5135 11.0214 21.054V20.3616L12.0114 22.241C11.8856 22.3668 11.8036 22.3997 11.6231 22.3997C11.3496 22.3997 11.1581 22.2793 11.0815 22.0605Z" fill="#613EEA" stroke="#613EEA" stroke-width="0.3"/>
</svg>
