<svg width="135" height="109" viewBox="0 0 135 109" fill="none" xmlns="http://www.w3.org/2000/svg">
<circle r="1.4921" transform="matrix(1 0 0 -1 133.273 69.7629)" fill="white"/>
<circle cx="54" cy="54.3164" r="54" fill="#EAE7F9"/>
<circle r="1.4921" transform="matrix(1 0 0 -1 25.4921 62.3024)" fill="#76D4B5"/>
<circle r="3.73025" transform="matrix(1 0 0 -1 71.7302 104.73)" fill="#613EEA"/>
<circle r="3.73025" transform="matrix(1 0 0 -1 18.7302 14.7302)" fill="#FB847C"/>
<rect x="31" y="12.6652" width="45.5308" height="80.3485" rx="5" fill="#613EEA"/>
<line x1="44.0522" y1="37.1089" x2="63.4785" y2="37.1089" stroke="#FBFAFF" stroke-width="2" stroke-linecap="round"/>
<line x1="44.0522" y1="57.196" x2="63.4785" y2="57.196" stroke="#FBFAFF" stroke-width="2" stroke-linecap="round"/>
<line x1="40.0352" y1="47.822" x2="70.1746" y2="47.822" stroke="#FBFAFF" stroke-width="2" stroke-linecap="round"/>
<path d="M76.5308 89.3528C76.5308 92.1142 74.2922 94.3528 71.5308 94.3528H35.9999C33.2385 94.3528 30.9999 92.1142 30.9999 89.3528V82.3005H76.5308V89.3528Z" fill="#6399F9"/>
<circle r="2.67828" transform="matrix(1 0 0 -1 53.7657 88.9963)" fill="white"/>
<circle r="3" transform="matrix(1 0 0 -1 40.4131 22.4605)" fill="white"/>
<rect opacity="0.1" x="21.6367" y="59.1821" width="21.0944" height="15.2753" rx="3.56757" fill="#214876"/>
<rect x="18.5946" y="57.5945" width="21.5701" height="14.5256" rx="2.97297" fill="#FBFAFF" stroke="white" stroke-width="1.18919"/>
<circle cx="28.9107" cy="65.0013" r="4.36436" fill="#FB847C"/>
<path d="M29.2742 62.8191L28.1831 67.1835" stroke="#FBFAFF" stroke-width="0.5" stroke-linecap="round"/>
</svg>
