<svg width="24" height="24" viewBox="0 0 24 24" fill="none" xmlns="http://www.w3.org/2000/svg">
<path d="M2.45156 3.70782C2.10469 3.84376 1.77656 4.15313 1.6125 4.50938L1.47656 4.80469V10.875V16.9453L1.6125 17.2406C1.78125 17.6016 2.10469 17.9109 2.46563 18.0422C2.71875 18.1406 2.79375 18.1406 7.49531 18.1406H12.2719L12.2906 18.6891C12.3047 19.1578 12.3281 19.2797 12.4313 19.5C12.5766 19.8188 12.8203 20.0719 13.1391 20.2406L13.3828 20.3672L15.9188 20.3813C18.4172 20.3953 18.4594 20.3906 18.7313 20.2922C18.9328 20.2172 19.0781 20.1188 19.2703 19.9266C19.5984 19.5891 19.6828 19.3594 19.7203 18.6703L19.7484 18.15L20.5969 18.1313C21.4125 18.1172 21.4547 18.1125 21.6844 17.9906C21.9984 17.8266 22.3313 17.4516 22.4391 17.1422C22.5188 16.9125 22.5234 16.5797 22.5234 10.8516V4.80469L22.3875 4.51407C22.2188 4.14376 21.9047 3.84376 21.5484 3.70782L21.2766 3.60938L11.9859 3.61407C2.8125 3.61407 2.69063 3.61407 2.45156 3.70782ZM21.3328 4.81876L21.4688 4.96876V6.16407V7.35938H12H2.53125V6.16876C2.53125 5.02501 2.53594 4.97813 2.62969 4.85626C2.68594 4.78594 2.775 4.70626 2.83125 4.68751C2.88281 4.66407 7.04063 4.65001 12.0609 4.65469L21.1969 4.66407L21.3328 4.81876ZM21.4688 12.5859V16.7813L21.3328 16.9313L21.1969 17.0859L20.4703 17.1L19.7484 17.1141L19.7203 16.1859C19.6922 15.0563 19.6547 14.9109 19.2703 14.5266C19.125 14.3813 18.9281 14.2359 18.8297 14.1984L18.6563 14.1375V13.5703C18.6563 13.2609 18.6234 12.8672 18.5906 12.6984C18.3141 11.4141 17.0766 10.4953 15.7688 10.6172C14.7281 10.7109 13.8609 11.3906 13.4906 12.4031C13.4063 12.6281 13.3875 12.8109 13.3688 13.3969L13.35 14.1141L13.1297 14.2219C12.8344 14.3766 12.5719 14.6438 12.4266 14.9531C12.3094 15.2016 12.3047 15.2484 12.2906 16.1625L12.2719 17.1094L7.5375 17.1L2.80313 17.0859L2.66719 16.9313L2.53125 16.7813V12.5859V8.39063H12H21.4688V12.5859ZM16.7109 11.8219C16.9922 11.9672 17.2969 12.2766 17.4328 12.5484C17.5453 12.7781 17.625 13.2422 17.625 13.7203V14.0625H16.0031H14.3813L14.4 13.4625C14.4141 12.9844 14.4375 12.825 14.5172 12.6469C14.7188 12.2016 15.0281 11.9063 15.4688 11.7469C15.7969 11.6297 16.4063 11.6672 16.7109 11.8219ZM18.4219 15.1734C18.4969 15.2156 18.5766 15.3 18.6047 15.3609C18.6375 15.4359 18.6563 16.0734 18.6563 17.25V19.0313L18.5203 19.1813L18.3844 19.3359L16.0453 19.35C13.7953 19.3594 13.7063 19.3594 13.5609 19.2703C13.3125 19.1156 13.2984 18.9844 13.3359 17.0625C13.3734 15.2297 13.3688 15.2391 13.6172 15.1359C13.6688 15.1172 14.7422 15.0984 15.9984 15.0984C18.0563 15.0938 18.3047 15.1031 18.4219 15.1734Z" fill="#38004D"/>
<path d="M4.63594 12.5109C4.52344 12.6281 4.5 12.6891 4.5 12.8766C4.5 13.1297 4.59844 13.2797 4.81406 13.3641C4.87969 13.3875 6.01406 13.4062 7.50937 13.4062C10.2937 13.4062 10.3219 13.4016 10.4437 13.1578C10.5609 12.9281 10.5281 12.675 10.3641 12.5109L10.2281 12.375H7.5H4.77187L4.63594 12.5109Z" fill="#613EEA"/>
<path d="M4.725 14.9344C4.55625 15.0234 4.5 15.1359 4.5 15.375C4.5 15.6188 4.56094 15.7313 4.73438 15.8203C4.84688 15.8813 5.16563 15.8906 6.75 15.8906C8.33438 15.8906 8.65313 15.8813 8.76563 15.8203C8.93906 15.7313 9 15.6188 9 15.375C9 15.1313 8.93906 15.0188 8.76563 14.9297C8.56406 14.8266 4.91719 14.8266 4.725 14.9344Z" fill="#613EEA"/>
<path d="M15.7594 16.0078C15.5063 16.1203 15.4688 16.2844 15.4688 17.2172C15.4688 17.6766 15.4922 18.0938 15.5203 18.1781C15.6094 18.4313 15.9234 18.5625 16.1906 18.45C16.4859 18.3281 16.5 18.2719 16.5 17.2172V16.2656L16.3734 16.1297C16.2141 15.9563 15.975 15.9094 15.7594 16.0078Z" fill="#613EEA"/>
</svg>
