<svg width="24" height="24" viewBox="0 0 24 24" fill="none" xmlns="http://www.w3.org/2000/svg">
<path d="M7.24223 1.19063C7.06879 1.27032 6.86723 1.48125 6.8016 1.65469C6.77348 1.72969 6.75004 2.14688 6.75004 2.625V3.45938L5.40473 3.48282C3.89535 3.50157 3.69848 3.53438 3.02817 3.87657C2.00629 4.3875 1.2891 5.31563 1.05942 6.43125C0.99379 6.75 0.984415 7.52344 0.984415 13.1719C0.984415 20.1094 0.97504 19.8844 1.24223 20.5453C1.68754 21.6328 2.69535 22.5 3.8391 22.7672C4.17192 22.8469 4.67348 22.8516 12 22.8516C20.7282 22.8516 20.1188 22.875 20.8641 22.5188C21.7454 22.0969 22.3829 21.4359 22.7391 20.5688C23.025 19.8703 23.0157 20.1609 23.0157 13.1719C23.0157 6.17813 23.025 6.45 22.7391 5.75625C22.3407 4.80469 21.4829 4.00313 20.5313 3.68438C19.9782 3.50157 19.6547 3.46875 18.3422 3.46875H17.1094V2.68125C17.1094 1.79532 17.0672 1.58907 16.8563 1.37813C16.4766 0.998442 15.8625 1.08282 15.5907 1.54688C15.5016 1.69219 15.4922 1.80469 15.4782 2.5875L15.4594 3.46875H11.9063H8.34848L8.33441 2.54063C8.32035 1.65 8.31566 1.6125 8.20785 1.45782C8.00629 1.17188 7.56098 1.05 7.24223 1.19063ZM6.75004 5.53125C6.75004 6.06563 6.80629 6.24844 7.0266 6.43594C7.42035 6.76406 7.99691 6.675 8.24066 6.24375C8.32973 6.08438 8.34379 5.98594 8.34379 5.55938V5.0625H11.9063H15.4688V5.47032C15.4688 5.98594 15.5297 6.21094 15.7219 6.40313C16.0922 6.77344 16.7204 6.68907 16.9875 6.23438C17.0672 6.10313 17.0907 5.96719 17.1047 5.56407L17.1188 5.0625H18.2532C19.0547 5.0625 19.4766 5.08594 19.7016 5.13281C20.5172 5.30625 21.136 5.90157 21.3516 6.73594C21.4594 7.14375 21.4547 19.2047 21.3516 19.6172C21.1266 20.4797 20.4329 21.1078 19.5704 21.2344C19.1204 21.2953 4.87973 21.2953 4.42973 21.2344C3.56723 21.1078 2.87348 20.4797 2.64848 19.6172C2.58754 19.3734 2.57817 18.5625 2.57817 13.1859C2.57817 8.77969 2.59223 6.96563 2.62973 6.7875C2.80785 5.97188 3.4641 5.31094 4.27973 5.13281C4.47192 5.09063 4.93129 5.06719 5.66254 5.06719L6.75004 5.0625V5.53125Z" fill="#38004D"/>
<path d="M11.3439 7.12968C9.27198 7.38281 7.56104 8.42343 6.42198 10.1203C6.13604 10.5422 5.74229 11.3906 5.60167 11.8828C5.14698 13.4578 5.27354 15.2391 5.93448 16.6406C6.91417 18.7125 8.68135 20.0625 10.9454 20.4703C11.5126 20.5734 12.6282 20.5687 13.2142 20.4656C16.0079 19.9594 18.1454 17.8406 18.6845 15.0469C18.8017 14.4328 18.8017 13.2234 18.6845 12.6094C18.2767 10.4859 16.8892 8.67187 14.9814 7.7625C13.8845 7.2375 12.4595 6.98906 11.3439 7.12968ZM12.9704 8.78906C14.9345 9.16406 16.5282 10.65 17.0157 12.5672C17.461 14.3156 16.9501 16.1578 15.661 17.4422C14.9017 18.2016 14.0157 18.6703 12.9704 18.8672C12.5017 18.9562 11.6017 18.9562 11.147 18.8719C9.17823 18.4969 7.60792 17.0344 7.0876 15.0984C6.97979 14.6953 6.96573 14.5641 6.96573 13.8281C6.96573 13.0922 6.97979 12.9609 7.09229 12.5531C7.59854 10.6641 9.11729 9.21562 11.0157 8.8125C11.522 8.7 12.4595 8.69062 12.9704 8.78906Z" fill="#38004D"/>
<path d="M13.9944 12.3891L13.7881 13.1492H10L10.2034 12.3891H13.9944ZM12.0254 16.6L10.0932 14.3742L10.096 13.6906H11.0508C11.2637 13.6906 11.4416 13.6523 11.5847 13.5758C11.7279 13.4992 11.8352 13.3953 11.9068 13.2641C11.9783 13.1328 12.0151 12.9833 12.0169 12.8156C12.0151 12.5641 11.9388 12.359 11.7881 12.2004C11.6394 12.04 11.3936 11.9598 11.0508 11.9598H10L10.2316 11H11.0508C11.5311 11 11.9313 11.0702 12.2514 11.2105C12.5734 11.3491 12.8145 11.5469 12.9746 11.8039C13.1365 12.0609 13.2185 12.3672 13.2203 12.7227C13.2185 13.038 13.1638 13.3133 13.0565 13.5484C12.951 13.7836 12.7844 13.9796 12.5565 14.1363C12.3305 14.2931 12.0358 14.4098 11.6723 14.4863L11.6271 14.5027L13.3559 16.5508V16.6H12.0254ZM14 11L13.7881 11.7711H10.6695L10.8814 11H14Z" fill="#613EEA"/>
</svg>
