<svg width="32" height="32" viewBox="0 0 32 32" fill="none" xmlns="http://www.w3.org/2000/svg">
<g clip-path="url(#clip0_108_478)">
<path d="M8.62515 0.43117C7.2689 0.72492 6.00015 1.53117 5.17515 2.62492C4.75015 3.18117 4.2814 4.16242 4.1189 4.84367C3.9439 5.54992 3.9314 6.73117 4.08765 7.42492C5.00015 11.5062 9.6814 13.4249 13.1251 11.1187C13.7814 10.6749 14.5564 9.88117 14.9251 9.25617C15.5126 8.26242 15.7626 7.34367 15.7564 6.15617C15.7501 4.29992 14.9126 2.61867 13.4314 1.49992C12.8376 1.05617 12.0939 0.68742 11.4002 0.49992C10.6939 0.29992 9.3564 0.26867 8.62515 0.43117ZM10.4002 1.31242C13.4189 1.66242 15.4251 4.59992 14.6189 7.49992C14.0314 9.63117 12.0751 11.1249 9.87515 11.1249C6.63765 11.1249 4.2564 7.99367 5.12515 4.88742C5.65015 2.99992 7.30015 1.56867 9.2314 1.31867C9.82515 1.24367 9.7814 1.24367 10.4002 1.31242Z" fill="#38004D"/>
<path d="M9.65009 2.8875C9.48759 2.9625 9.37509 3.1875 9.37509 3.4375C9.37509 3.5875 9.33759 3.6375 9.16884 3.7125C8.61259 3.94375 8.24384 4.49375 8.24384 5.10625C8.23759 5.6 8.38759 5.94375 8.75009 6.26875C9.07509 6.55625 9.39384 6.6875 9.80009 6.6875C10.1501 6.6875 10.3501 6.79375 10.4688 7.0375C10.5876 7.2875 10.5438 7.5 10.3313 7.7C10.1876 7.83125 10.1126 7.84375 9.30009 7.875C8.32509 7.9125 8.25009 7.94375 8.25009 8.35625C8.25009 8.7 8.42509 8.8125 8.93759 8.8125H9.37509V9.025C9.37509 9.33125 9.58134 9.5625 9.85009 9.5625C10.1563 9.5625 10.3751 9.33125 10.3751 9.0125C10.3751 8.8 10.4001 8.75625 10.5376 8.725C10.7876 8.6625 11.2938 8.15 11.4126 7.84375C11.4813 7.65 11.5063 7.44375 11.4876 7.1625C11.4376 6.35625 10.8626 5.8 9.98759 5.7125C9.41884 5.65625 9.21884 5.50625 9.21884 5.125C9.21884 4.9125 9.25634 4.83125 9.39384 4.7125C9.56259 4.56875 9.61884 4.5625 10.3688 4.5625C11.0876 4.5625 11.1876 4.55 11.3376 4.43125C11.5563 4.25625 11.5626 3.93125 11.3438 3.71875C11.2126 3.58125 11.1376 3.5625 10.7813 3.5625H10.3751V3.36875C10.3751 3.24375 10.3126 3.11875 10.1938 2.99375C10.0001 2.80625 9.86884 2.775 9.65009 2.8875Z" fill="#613EEA"/>
<path d="M27.9438 7.75625C26.7 7.90625 26.4563 7.95 26.35 8.05625C26.1688 8.2375 26.1813 8.60625 26.3688 8.75625C26.5375 8.89375 26.7313 8.9 27.625 8.7875C27.9875 8.74375 28.2938 8.7125 28.3063 8.725C28.3188 8.7375 28.2188 8.88125 28.0813 9.04375C27.9438 9.20625 26.6688 10.75 25.2563 12.4688C23.8375 14.1875 22.6563 15.6 22.625 15.6125C22.6 15.6188 21.1125 14.9813 19.3188 14.1813C17.025 13.1688 16.0125 12.75 15.9125 12.775C15.8375 12.7938 14.3188 13.8813 12.5375 15.1875C10.7563 16.4938 9.275 17.5625 9.2375 17.5625C9.1875 17.5625 7.225 16.1375 3.75 13.5688C3.18125 13.15 2.65 12.7938 2.56875 12.7688C2.23125 12.6813 1.9125 13.0688 2.0375 13.4125C2.075 13.5313 3.08125 14.3063 5.5625 16.1313C8.38125 18.2 9.06875 18.6813 9.23125 18.6875C9.39375 18.6875 9.99375 18.275 12.75 16.25L16.0688 13.8125L19.3688 15.2813C21.1875 16.0875 22.7313 16.75 22.8 16.75C22.8688 16.75 22.9813 16.7 23.05 16.6375C23.125 16.5813 24.4813 14.9563 26.0688 13.0313C27.65 11.1063 28.975 9.51875 29.0063 9.5125C29.0375 9.5 29.0625 9.85625 29.0625 10.3063C29.0625 11.0438 29.075 11.1375 29.1875 11.25C29.2625 11.325 29.3938 11.375 29.5313 11.375C29.6688 11.375 29.8 11.325 29.875 11.25C29.9938 11.1313 30 11.0438 30 9.5375C30 8.6625 29.9813 7.9 29.9625 7.84375C29.9188 7.7375 29.6188 7.55625 29.4875 7.56875C29.4438 7.575 28.75 7.65625 27.9438 7.75625Z" fill="#38004D"/>
<path d="M27.9374 13.7C27.5999 13.875 27.4374 14.0875 27.3687 14.4437C27.2999 14.8187 27.2999 30.5312 27.3749 30.8375C27.4437 31.1375 27.5999 31.3625 27.8812 31.55C28.0874 31.6937 28.1124 31.6937 29.5687 31.675C31.1999 31.6562 31.2062 31.65 31.5249 31.225C31.6562 31.0562 31.6562 31.0375 31.6562 22.6375V14.2187L31.5062 14.0062C31.2249 13.6125 31.0124 13.5625 29.5312 13.5625C28.2874 13.5625 28.1999 13.5687 27.9374 13.7ZM30.7187 22.6562V30.7187H29.5312H28.3437L28.3249 22.6375L28.3124 14.5625L29.5124 14.575L30.7187 14.5937V22.6562Z" fill="#38004D"/>
<path d="M0.8625 17.3125C0.7375 17.3812 0.56875 17.525 0.4875 17.6375L0.34375 17.8437V24.45C0.34375 31.0187 0.34375 31.0562 0.475 31.225C0.79375 31.65 0.8 31.6562 2.43125 31.675C3.8875 31.6937 3.9125 31.6937 4.11875 31.55C4.4 31.3625 4.55625 31.1375 4.625 30.8375C4.7 30.5312 4.7 18.4437 4.63125 18.0687C4.56875 17.7687 4.425 17.5437 4.1625 17.35C4 17.225 3.89375 17.2187 2.54375 17.2062C1.20625 17.1937 1.075 17.2 0.8625 17.3125ZM3.675 24.45L3.65625 30.7187H2.46875H1.28125L1.2625 24.5312C1.25625 21.125 1.2625 18.3062 1.28125 18.2625C1.3 18.2062 1.60625 18.1875 2.5 18.1875H3.6875L3.675 24.45Z" fill="#38004D"/>
<path d="M14.375 17.3312C14.1875 17.4312 14.0563 17.5625 13.9563 17.75L13.8125 18.0187V24.4312C13.8125 30.55 13.8188 30.8562 13.9313 31.1C13.9938 31.2437 14.1438 31.425 14.2563 31.5062C14.4688 31.6562 14.4813 31.6562 16 31.6562C17.4875 31.6562 17.5375 31.65 17.7313 31.5125C17.8375 31.4375 17.9875 31.25 18.0563 31.1062C18.1875 30.8375 18.1875 30.7937 18.1875 24.425V18.0187L18.0438 17.75C17.9438 17.5625 17.8125 17.4312 17.625 17.3312C17.3688 17.1937 17.2938 17.1875 16 17.1875C14.7063 17.1875 14.6313 17.1937 14.375 17.3312ZM17.175 24.45L17.1563 30.7187H16H14.8438L14.825 24.45L14.8125 18.1875H16H17.1875L17.175 24.45Z" fill="#38004D"/>
<path d="M21.2813 19.3438C20.9688 19.4563 20.7126 19.7313 20.6251 20.0563C20.5813 20.225 20.5626 21.9938 20.5751 25.6375L20.5938 30.9688L20.7313 31.1875C20.8063 31.3125 20.9813 31.475 21.1188 31.55C21.3626 31.6875 21.4126 31.6938 22.8313 31.675L24.2938 31.6563L24.5126 31.4875C24.9626 31.1438 24.9376 31.4938 24.9376 25.5063C24.9376 21.1 24.9251 20.0813 24.8501 19.9188C24.7438 19.6563 24.4376 19.4 24.1376 19.3125C23.7751 19.2125 21.5876 19.2375 21.2813 19.3438ZM23.9251 25.4813L23.9063 30.7188H22.7501H21.5938L21.5751 25.4813L21.5626 20.25H22.7501H23.9376L23.9251 25.4813Z" fill="#38004D"/>
<path d="M7.59386 21.0813C7.45636 21.1625 7.28761 21.3313 7.20636 21.4688L7.06261 21.7188V26.3C7.06261 31.4063 7.04386 31.1438 7.48761 31.4875L7.70636 31.6563L9.16886 31.675C10.5876 31.6938 10.6376 31.6875 10.8814 31.55C11.0189 31.475 11.1939 31.3125 11.2689 31.1875L11.4064 30.9688L11.4251 26.4688C11.4376 23.2313 11.4251 21.8938 11.3689 21.7063C11.2939 21.425 11.0064 21.1063 10.7314 21.0063C10.6251 20.9625 10.0064 20.9375 9.20011 20.9375C7.90636 20.9375 7.83136 20.9438 7.59386 21.0813ZM10.4251 26.325L10.4064 30.7188H9.25011H8.09386L8.07511 26.325L8.06261 21.9375H9.25011H10.4376L10.4251 26.325Z" fill="#38004D"/>
</g>
<defs>
<clipPath id="clip0_108_478">
<rect width="32" height="32" fill="white"/>
</clipPath>
</defs>
</svg>
