<svg width="117" height="117" viewBox="0 0 117 117" fill="none" xmlns="http://www.w3.org/2000/svg">
<path d="M40.356 2.74219C34.6202 3.65625 28.7245 6.94688 25.2739 11.1744C21.4806 15.7904 19.6296 20.8406 19.5839 26.6221C19.5153 32.2436 21.115 37.1338 24.4284 41.5213C27.7191 45.8859 32.2437 48.948 37.6595 50.4563C39.6704 51.0047 40.2417 51.0732 43.8751 51.0732C47.3257 51.0732 48.1255 51.0047 49.8165 50.5477C56.9005 48.6281 62.5677 44.035 65.6755 37.6365C70.3372 28.1531 68.4634 17.0016 60.9681 9.57481C57.906 6.53555 54.0669 4.36465 49.8622 3.29063C47.3714 2.65079 42.7097 2.37657 40.356 2.74219Z" fill="#171D33"/>
<path d="M19.1268 61.3793C14.3508 62.2477 10.3518 64.3729 6.8555 67.8691C3.26781 71.4568 1.18831 75.433 0.342807 80.3918C0.0457365 82.06 3.33767e-05 84.2537 0.0457365 92.5031C0.114291 102.261 0.137143 102.581 0.594174 103.198C0.845541 103.54 1.34828 104.043 1.69105 104.295C2.30804 104.774 2.39945 104.774 34.0489 104.843L65.7897 104.889L65.8582 95.4738L65.9268 86.0361L66.6123 84.1166C66.978 83.0654 67.7549 81.4658 68.3262 80.5746C69.6516 78.5408 72.211 76.1414 74.1305 75.1588L75.5702 74.4047L75.6844 71.9824C75.7758 70.0172 75.9586 69.126 76.5985 67.2293L77.3983 64.8756L76.1186 64.1443C74.4047 63.1389 72.2795 62.2705 70.0401 61.6535L68.2119 61.1279L44.5606 61.0822C24.9539 61.0594 20.6121 61.1051 19.1268 61.3793Z" fill="#171D33"/>
<path d="M92.2289 61.3564C88.3441 62.3391 85.0078 65.3555 83.591 69.126C83.134 70.36 83.0654 70.9998 82.9969 75.433L82.9283 80.3689L81.3516 80.5289C77.9467 80.826 75.4102 82.517 73.9934 85.4191L73.2393 86.9502V97.5762V108.202L73.9934 109.733C74.9074 111.607 76.7127 113.321 78.5637 114.075L79.8662 114.601H95.0625H110.259L111.561 114.075C113.412 113.321 115.218 111.607 116.132 109.733L116.886 108.202V97.5762V86.9502L116.132 85.4191C114.715 82.517 112.178 80.826 108.773 80.5289L107.197 80.3689L107.128 75.433C107.06 71.0227 106.991 70.36 106.557 69.1717C105.231 65.6297 102.421 62.8646 98.9244 61.6764C97.0506 61.0365 94.057 60.8994 92.2289 61.3564ZM96.8449 68.6918C97.9646 69.1488 98.9016 70.0629 99.4271 71.1826C99.7928 71.9596 99.8613 72.6908 99.8613 76.2557V80.4375H95.0625H90.2637V76.21C90.2637 72.4852 90.3094 71.8682 90.6979 71.1141C91.909 68.7832 94.5598 67.732 96.8449 68.6918Z" fill="#613EEA"/>
</svg>
