<svg width="32" height="32" viewBox="0 0 32 32" fill="none" xmlns="http://www.w3.org/2000/svg">
<mask id="path-1-outside-1_80_487" maskUnits="userSpaceOnUse" x="0.993652" y="1.01157" width="30" height="30" fill="black">
<rect fill="white" x="0.993652" y="1.01157" width="30" height="30"/>
<path d="M16.8197 2.08287C16.4914 2.17041 16.1413 2.35641 15.8732 2.59166C15.4738 2.93633 15.2605 2.95274 14.8447 2.66825C14.314 2.30171 13.7122 2.38924 13.384 2.88162C13.1323 3.26458 13.1651 3.45059 13.8271 5.32709L14.418 6.9957L12.2132 9.21139C10.7087 10.7213 9.9045 11.5803 9.68567 11.8866C9.00181 12.8495 8.47661 13.9765 8.20307 15.0652C7.77087 16.7557 7.80917 18.676 8.30702 20.2461C8.45473 20.7111 8.48755 20.6564 7.92406 20.8643L7.59033 20.9847L7.40433 20.8096C7.30038 20.7111 7.1089 20.5798 6.97213 20.5196C6.74235 20.4102 6.61652 20.4048 5.0245 20.3883C3.40513 20.3719 3.31213 20.3774 3.0167 20.4868C2.61186 20.64 2.25625 20.9901 2.10854 21.3895C1.99912 21.6849 1.99365 21.7889 1.99365 25.1918C1.99365 28.5946 1.99912 28.6986 2.10854 28.994C2.25625 29.3934 2.61186 29.7435 3.01123 29.8967L3.3176 30.0116L11.2066 29.9897C19.0627 29.9733 19.0901 29.9733 19.6372 29.8529C21.3988 29.47 22.7008 28.7752 24.074 27.4786C25.9286 25.7388 29.5339 22.1828 29.6762 21.964C30.3272 20.9409 29.9333 19.5185 28.8501 18.9878C28.2975 18.7197 27.5535 18.6979 27.0939 18.9331L26.9407 19.0152L26.979 18.6158C27.0556 17.9265 27.0173 16.4548 26.9189 15.8913C26.7547 14.9558 26.5578 14.354 26.3554 14.1461C26.1912 13.982 26.1475 13.9656 25.9669 13.9929C25.8356 14.0148 25.7098 14.0859 25.6113 14.2008C25.4253 14.4032 25.4308 14.4525 25.6496 15.2348C26.0052 16.515 26.0435 17.8827 25.7645 19.2559C25.573 20.1805 25.7207 19.9999 23.4394 22.0296C21.0432 24.1523 20.8626 24.3109 20.5563 24.5024C20.425 24.579 20.3155 24.6447 20.3101 24.6447C20.2991 24.6447 20.2991 24.4587 20.3101 24.2289C20.3429 23.5286 20.042 22.8776 19.5058 22.4892C19.2761 22.3196 16.185 20.8151 15.0471 20.3118C13.4606 19.617 11.7482 19.5513 9.99204 20.1148C9.70755 20.2023 9.47231 20.268 9.46137 20.257C9.39572 20.1914 9.14953 19.1848 9.07294 18.6705C9.00181 18.2 8.99087 17.8389 9.01276 17.1496C9.06199 15.7928 9.30818 14.8135 9.90998 13.6373C10.4571 12.5596 10.7087 12.2587 13.094 9.85695L15.3097 7.63032H17.4707H19.6372L21.3331 9.32628C22.9634 10.9511 23.04 11.0222 23.2424 11.0222C23.505 11.0222 23.6363 10.9511 23.7458 10.7378C23.9208 10.3986 23.8825 10.3493 22.1483 8.6096L20.5289 6.98476L21.1088 5.31067C21.5191 4.11803 21.6887 3.56 21.6887 3.37947C21.6887 2.84879 21.2511 2.43301 20.693 2.43301C20.4906 2.43301 20.3757 2.47677 20.1131 2.65184C19.6754 2.94727 19.4894 2.94727 19.1393 2.64637C18.45 2.07193 17.6129 1.86951 16.8197 2.08287ZM17.9138 3.17157C18.0451 3.21534 18.2968 3.37947 18.4828 3.52718C18.6633 3.67489 18.9259 3.83355 19.0572 3.88278C19.391 3.99767 19.8779 3.98673 20.2116 3.8609C20.3593 3.80072 20.4851 3.76242 20.4851 3.76789C20.4851 3.80072 19.5551 6.44314 19.5277 6.48691C19.5058 6.51426 18.6633 6.53615 17.4543 6.53615H15.4137L14.9432 5.17937C14.6806 4.43534 14.4672 3.80619 14.4672 3.78431C14.4672 3.76242 14.5493 3.78431 14.6477 3.83902C14.779 3.91014 14.9486 3.93749 15.3152 3.93749C15.8623 3.93749 16.092 3.84996 16.4805 3.50529C16.9291 3.10592 17.4105 2.99651 17.9138 3.17157ZM28.3632 19.9671C28.6969 20.1367 28.9102 20.5032 28.9102 20.9026C28.9102 21.291 28.8993 21.302 23.5105 26.5102C22.1866 27.7904 21.1362 28.3758 19.4457 28.7806C19.0682 28.8682 18.5758 28.8791 13.4332 28.8955L7.83105 28.9174L7.86935 28.7916C7.88576 28.7205 7.90217 27.1722 7.90217 25.3504V22.0351L9.26442 21.5372C10.9111 20.9354 11.2996 20.8479 12.2515 20.8424C13.0338 20.8424 13.4989 20.919 14.1663 21.1433C14.779 21.3567 18.729 23.2551 18.9205 23.4301C19.3144 23.8022 19.3363 24.4313 18.9642 24.8252C18.5758 25.241 18.3077 25.2355 16.9564 24.8033C12.7931 23.4739 12.6563 23.4356 12.4649 23.4958C12.2241 23.5779 12.1147 23.742 12.1147 24.0155C12.1147 24.1851 12.1476 24.2726 12.2515 24.3711C12.35 24.4641 13.1487 24.7377 15.1073 25.3613C17.7989 26.2203 17.8372 26.2312 18.3296 26.2312C19.4074 26.2312 20.518 25.8756 21.3988 25.2519C21.552 25.1425 22.7446 24.1085 24.0467 22.9487C27.4878 19.8905 27.4112 19.9561 27.641 19.896C27.8708 19.8358 28.1553 19.8631 28.3632 19.9671ZM6.64935 21.6302L6.808 21.7889V25.1918V28.5946L6.64935 28.7533L6.49069 28.9119H4.94791H3.40513L3.24648 28.7533L3.08782 28.5946V25.1918V21.7889L3.24648 21.6302L3.40513 21.4716H4.94791H6.49069L6.64935 21.6302Z"/>
</mask>
<path d="M16.8197 2.08287C16.4914 2.17041 16.1413 2.35641 15.8732 2.59166C15.4738 2.93633 15.2605 2.95274 14.8447 2.66825C14.314 2.30171 13.7122 2.38924 13.384 2.88162C13.1323 3.26458 13.1651 3.45059 13.8271 5.32709L14.418 6.9957L12.2132 9.21139C10.7087 10.7213 9.9045 11.5803 9.68567 11.8866C9.00181 12.8495 8.47661 13.9765 8.20307 15.0652C7.77087 16.7557 7.80917 18.676 8.30702 20.2461C8.45473 20.7111 8.48755 20.6564 7.92406 20.8643L7.59033 20.9847L7.40433 20.8096C7.30038 20.7111 7.1089 20.5798 6.97213 20.5196C6.74235 20.4102 6.61652 20.4048 5.0245 20.3883C3.40513 20.3719 3.31213 20.3774 3.0167 20.4868C2.61186 20.64 2.25625 20.9901 2.10854 21.3895C1.99912 21.6849 1.99365 21.7889 1.99365 25.1918C1.99365 28.5946 1.99912 28.6986 2.10854 28.994C2.25625 29.3934 2.61186 29.7435 3.01123 29.8967L3.3176 30.0116L11.2066 29.9897C19.0627 29.9733 19.0901 29.9733 19.6372 29.8529C21.3988 29.47 22.7008 28.7752 24.074 27.4786C25.9286 25.7388 29.5339 22.1828 29.6762 21.964C30.3272 20.9409 29.9333 19.5185 28.8501 18.9878C28.2975 18.7197 27.5535 18.6979 27.0939 18.9331L26.9407 19.0152L26.979 18.6158C27.0556 17.9265 27.0173 16.4548 26.9189 15.8913C26.7547 14.9558 26.5578 14.354 26.3554 14.1461C26.1912 13.982 26.1475 13.9656 25.9669 13.9929C25.8356 14.0148 25.7098 14.0859 25.6113 14.2008C25.4253 14.4032 25.4308 14.4525 25.6496 15.2348C26.0052 16.515 26.0435 17.8827 25.7645 19.2559C25.573 20.1805 25.7207 19.9999 23.4394 22.0296C21.0432 24.1523 20.8626 24.3109 20.5563 24.5024C20.425 24.579 20.3155 24.6447 20.3101 24.6447C20.2991 24.6447 20.2991 24.4587 20.3101 24.2289C20.3429 23.5286 20.042 22.8776 19.5058 22.4892C19.2761 22.3196 16.185 20.8151 15.0471 20.3118C13.4606 19.617 11.7482 19.5513 9.99204 20.1148C9.70755 20.2023 9.47231 20.268 9.46137 20.257C9.39572 20.1914 9.14953 19.1848 9.07294 18.6705C9.00181 18.2 8.99087 17.8389 9.01276 17.1496C9.06199 15.7928 9.30818 14.8135 9.90998 13.6373C10.4571 12.5596 10.7087 12.2587 13.094 9.85695L15.3097 7.63032H17.4707H19.6372L21.3331 9.32628C22.9634 10.9511 23.04 11.0222 23.2424 11.0222C23.505 11.0222 23.6363 10.9511 23.7458 10.7378C23.9208 10.3986 23.8825 10.3493 22.1483 8.6096L20.5289 6.98476L21.1088 5.31067C21.5191 4.11803 21.6887 3.56 21.6887 3.37947C21.6887 2.84879 21.2511 2.43301 20.693 2.43301C20.4906 2.43301 20.3757 2.47677 20.1131 2.65184C19.6754 2.94727 19.4894 2.94727 19.1393 2.64637C18.45 2.07193 17.6129 1.86951 16.8197 2.08287ZM17.9138 3.17157C18.0451 3.21534 18.2968 3.37947 18.4828 3.52718C18.6633 3.67489 18.9259 3.83355 19.0572 3.88278C19.391 3.99767 19.8779 3.98673 20.2116 3.8609C20.3593 3.80072 20.4851 3.76242 20.4851 3.76789C20.4851 3.80072 19.5551 6.44314 19.5277 6.48691C19.5058 6.51426 18.6633 6.53615 17.4543 6.53615H15.4137L14.9432 5.17937C14.6806 4.43534 14.4672 3.80619 14.4672 3.78431C14.4672 3.76242 14.5493 3.78431 14.6477 3.83902C14.779 3.91014 14.9486 3.93749 15.3152 3.93749C15.8623 3.93749 16.092 3.84996 16.4805 3.50529C16.9291 3.10592 17.4105 2.99651 17.9138 3.17157ZM28.3632 19.9671C28.6969 20.1367 28.9102 20.5032 28.9102 20.9026C28.9102 21.291 28.8993 21.302 23.5105 26.5102C22.1866 27.7904 21.1362 28.3758 19.4457 28.7806C19.0682 28.8682 18.5758 28.8791 13.4332 28.8955L7.83105 28.9174L7.86935 28.7916C7.88576 28.7205 7.90217 27.1722 7.90217 25.3504V22.0351L9.26442 21.5372C10.9111 20.9354 11.2996 20.8479 12.2515 20.8424C13.0338 20.8424 13.4989 20.919 14.1663 21.1433C14.779 21.3567 18.729 23.2551 18.9205 23.4301C19.3144 23.8022 19.3363 24.4313 18.9642 24.8252C18.5758 25.241 18.3077 25.2355 16.9564 24.8033C12.7931 23.4739 12.6563 23.4356 12.4649 23.4958C12.2241 23.5779 12.1147 23.742 12.1147 24.0155C12.1147 24.1851 12.1476 24.2726 12.2515 24.3711C12.35 24.4641 13.1487 24.7377 15.1073 25.3613C17.7989 26.2203 17.8372 26.2312 18.3296 26.2312C19.4074 26.2312 20.518 25.8756 21.3988 25.2519C21.552 25.1425 22.7446 24.1085 24.0467 22.9487C27.4878 19.8905 27.4112 19.9561 27.641 19.896C27.8708 19.8358 28.1553 19.8631 28.3632 19.9671ZM6.64935 21.6302L6.808 21.7889V25.1918V28.5946L6.64935 28.7533L6.49069 28.9119H4.94791H3.40513L3.24648 28.7533L3.08782 28.5946V25.1918V21.7889L3.24648 21.6302L3.40513 21.4716H4.94791H6.49069L6.64935 21.6302Z" fill="#38004D"/>
<path d="M16.8197 2.08287C16.4914 2.17041 16.1413 2.35641 15.8732 2.59166C15.4738 2.93633 15.2605 2.95274 14.8447 2.66825C14.314 2.30171 13.7122 2.38924 13.384 2.88162C13.1323 3.26458 13.1651 3.45059 13.8271 5.32709L14.418 6.9957L12.2132 9.21139C10.7087 10.7213 9.9045 11.5803 9.68567 11.8866C9.00181 12.8495 8.47661 13.9765 8.20307 15.0652C7.77087 16.7557 7.80917 18.676 8.30702 20.2461C8.45473 20.7111 8.48755 20.6564 7.92406 20.8643L7.59033 20.9847L7.40433 20.8096C7.30038 20.7111 7.1089 20.5798 6.97213 20.5196C6.74235 20.4102 6.61652 20.4048 5.0245 20.3883C3.40513 20.3719 3.31213 20.3774 3.0167 20.4868C2.61186 20.64 2.25625 20.9901 2.10854 21.3895C1.99912 21.6849 1.99365 21.7889 1.99365 25.1918C1.99365 28.5946 1.99912 28.6986 2.10854 28.994C2.25625 29.3934 2.61186 29.7435 3.01123 29.8967L3.3176 30.0116L11.2066 29.9897C19.0627 29.9733 19.0901 29.9733 19.6372 29.8529C21.3988 29.47 22.7008 28.7752 24.074 27.4786C25.9286 25.7388 29.5339 22.1828 29.6762 21.964C30.3272 20.9409 29.9333 19.5185 28.8501 18.9878C28.2975 18.7197 27.5535 18.6979 27.0939 18.9331L26.9407 19.0152L26.979 18.6158C27.0556 17.9265 27.0173 16.4548 26.9189 15.8913C26.7547 14.9558 26.5578 14.354 26.3554 14.1461C26.1912 13.982 26.1475 13.9656 25.9669 13.9929C25.8356 14.0148 25.7098 14.0859 25.6113 14.2008C25.4253 14.4032 25.4308 14.4525 25.6496 15.2348C26.0052 16.515 26.0435 17.8827 25.7645 19.2559C25.573 20.1805 25.7207 19.9999 23.4394 22.0296C21.0432 24.1523 20.8626 24.3109 20.5563 24.5024C20.425 24.579 20.3155 24.6447 20.3101 24.6447C20.2991 24.6447 20.2991 24.4587 20.3101 24.2289C20.3429 23.5286 20.042 22.8776 19.5058 22.4892C19.2761 22.3196 16.185 20.8151 15.0471 20.3118C13.4606 19.617 11.7482 19.5513 9.99204 20.1148C9.70755 20.2023 9.47231 20.268 9.46137 20.257C9.39572 20.1914 9.14953 19.1848 9.07294 18.6705C9.00181 18.2 8.99087 17.8389 9.01276 17.1496C9.06199 15.7928 9.30818 14.8135 9.90998 13.6373C10.4571 12.5596 10.7087 12.2587 13.094 9.85695L15.3097 7.63032H17.4707H19.6372L21.3331 9.32628C22.9634 10.9511 23.04 11.0222 23.2424 11.0222C23.505 11.0222 23.6363 10.9511 23.7458 10.7378C23.9208 10.3986 23.8825 10.3493 22.1483 8.6096L20.5289 6.98476L21.1088 5.31067C21.5191 4.11803 21.6887 3.56 21.6887 3.37947C21.6887 2.84879 21.2511 2.43301 20.693 2.43301C20.4906 2.43301 20.3757 2.47677 20.1131 2.65184C19.6754 2.94727 19.4894 2.94727 19.1393 2.64637C18.45 2.07193 17.6129 1.86951 16.8197 2.08287ZM17.9138 3.17157C18.0451 3.21534 18.2968 3.37947 18.4828 3.52718C18.6633 3.67489 18.9259 3.83355 19.0572 3.88278C19.391 3.99767 19.8779 3.98673 20.2116 3.8609C20.3593 3.80072 20.4851 3.76242 20.4851 3.76789C20.4851 3.80072 19.5551 6.44314 19.5277 6.48691C19.5058 6.51426 18.6633 6.53615 17.4543 6.53615H15.4137L14.9432 5.17937C14.6806 4.43534 14.4672 3.80619 14.4672 3.78431C14.4672 3.76242 14.5493 3.78431 14.6477 3.83902C14.779 3.91014 14.9486 3.93749 15.3152 3.93749C15.8623 3.93749 16.092 3.84996 16.4805 3.50529C16.9291 3.10592 17.4105 2.99651 17.9138 3.17157ZM28.3632 19.9671C28.6969 20.1367 28.9102 20.5032 28.9102 20.9026C28.9102 21.291 28.8993 21.302 23.5105 26.5102C22.1866 27.7904 21.1362 28.3758 19.4457 28.7806C19.0682 28.8682 18.5758 28.8791 13.4332 28.8955L7.83105 28.9174L7.86935 28.7916C7.88576 28.7205 7.90217 27.1722 7.90217 25.3504V22.0351L9.26442 21.5372C10.9111 20.9354 11.2996 20.8479 12.2515 20.8424C13.0338 20.8424 13.4989 20.919 14.1663 21.1433C14.779 21.3567 18.729 23.2551 18.9205 23.4301C19.3144 23.8022 19.3363 24.4313 18.9642 24.8252C18.5758 25.241 18.3077 25.2355 16.9564 24.8033C12.7931 23.4739 12.6563 23.4356 12.4649 23.4958C12.2241 23.5779 12.1147 23.742 12.1147 24.0155C12.1147 24.1851 12.1476 24.2726 12.2515 24.3711C12.35 24.4641 13.1487 24.7377 15.1073 25.3613C17.7989 26.2203 17.8372 26.2312 18.3296 26.2312C19.4074 26.2312 20.518 25.8756 21.3988 25.2519C21.552 25.1425 22.7446 24.1085 24.0467 22.9487C27.4878 19.8905 27.4112 19.9561 27.641 19.896C27.8708 19.8358 28.1553 19.8631 28.3632 19.9671ZM6.64935 21.6302L6.808 21.7889V25.1918V28.5946L6.64935 28.7533L6.49069 28.9119H4.94791H3.40513L3.24648 28.7533L3.08782 28.5946V25.1918V21.7889L3.24648 21.6302L3.40513 21.4716H4.94791H6.49069L6.64935 21.6302Z" stroke="#38004D" stroke-width="0.6" mask="url(#path-1-outside-1_80_487)"/>
<path d="M24.6324 11.8751C24.4463 11.9737 24.3696 12.1105 24.3696 12.3349C24.3696 12.5649 24.4517 12.7017 24.6433 12.8002C24.8787 12.9207 25.0593 12.8988 25.2564 12.7236C25.4042 12.5922 25.437 12.5265 25.437 12.3349C25.437 12.1434 25.4042 12.0777 25.2564 11.9463C25.0593 11.7711 24.8623 11.7492 24.6324 11.8751Z" fill="#613EEA"/>
<path d="M17.2078 11.3024C17.0655 11.3845 16.9342 11.5814 16.9288 11.7292C16.9288 11.7893 16.8248 11.8769 16.6552 11.9644C16.2559 12.1668 16.0261 12.3966 15.8346 12.7686C15.3094 13.8245 16.0698 15.039 17.3281 15.1484C17.7166 15.1867 17.9135 15.2688 18.0722 15.4712C18.4661 15.9691 17.7494 16.5818 17.1202 16.2809C16.8959 16.177 16.792 16.0238 16.7482 15.7393C16.7099 15.4822 16.4528 15.2196 16.2394 15.2196C16.0589 15.2196 15.7963 15.3563 15.7252 15.4876C15.6158 15.701 15.6595 16.1168 15.8346 16.4669C16.0261 16.8389 16.2559 17.0687 16.6552 17.2711C16.8084 17.3477 16.9288 17.4462 16.9288 17.49C16.9288 17.758 17.2078 18.0097 17.5087 18.0097C17.6892 18.0097 18.0229 17.6869 18.0229 17.5064C18.0229 17.4079 18.0776 17.3587 18.2855 17.2711C18.8436 17.0413 19.2812 16.3848 19.2812 15.7666C19.2812 15.1539 18.8654 14.5248 18.2691 14.2567C18.105 14.1801 17.7932 14.098 17.5634 14.0761C17.3336 14.0488 17.1038 13.9941 17.0491 13.9558C16.7318 13.7151 16.6716 13.3704 16.9014 13.1187C17.3391 12.6428 18.1871 12.8944 18.1871 13.5017C18.1871 13.6932 18.5098 14.016 18.7013 14.016C18.9147 14.016 19.1171 13.9011 19.2046 13.737C19.4727 13.2118 18.9749 12.2434 18.2855 11.9644C18.0776 11.8769 18.0229 11.8276 18.0229 11.7237C18.0229 11.6526 17.9409 11.5158 17.8369 11.4118C17.6345 11.2094 17.4376 11.1766 17.2078 11.3024Z" fill="#613EEA"/>
</svg>
