<svg width="24" height="24" viewBox="0 0 24 24" fill="none" xmlns="http://www.w3.org/2000/svg">
<g clip-path="url(#clip0_412_2388)">
<path d="M4.73906 0.984373C3.20625 1.2 1.95937 2.25937 1.49062 3.75C1.39687 4.05937 1.38281 4.19531 1.38281 4.85156C1.38281 5.70469 1.45312 6.01406 1.78594 6.66094C2.65312 8.33437 4.67344 9.15 6.46406 8.55C7.05937 8.35312 7.47656 8.08594 7.96875 7.59375C8.64375 6.91875 8.97656 6.24844 9.09844 5.30156C9.27656 3.97969 8.64375 2.51719 7.54687 1.71094C6.78281 1.14844 5.65312 0.85781 4.73906 0.984373Z" fill="#613EEA"/>
<path d="M16.2049 6.77812C14.1846 7.14375 12.5861 8.68125 12.1315 10.6969C12.0002 11.2969 11.9955 12.2297 12.1315 12.825C12.5861 14.85 14.0815 16.3125 16.1252 16.7437C16.758 16.875 17.7846 16.8422 18.4127 16.6687C19.2658 16.4344 19.9549 16.0359 20.5971 15.4219C22.1721 13.9078 22.608 11.5828 21.6846 9.62812C21.3986 9.02344 21.1408 8.6625 20.6533 8.17969C19.8799 7.41094 19.0127 6.95625 17.9627 6.77344C17.5033 6.68906 16.6783 6.69375 16.2049 6.77812Z" fill="#613EEA"/>
<path d="M1.36875 9.06562C0.46875 10.0312 0 11.2922 0 12.7547V13.2656H5.23125H10.4672L10.4391 12.4781C10.4156 11.6297 10.35 11.2828 10.0781 10.6078C9.85312 10.0453 9.52031 9.53437 9.00937 8.95312L8.82187 8.74219L8.6625 8.8875C8.27344 9.25312 7.50469 9.68906 6.89531 9.88594C6.31875 10.0734 5.90156 10.1391 5.25 10.1391C4.03594 10.1437 3.00937 9.80156 2.02969 9.06562L1.64531 8.775L1.36875 9.06562Z" fill="#613EEA"/>
<path d="M0 17.4609V20.2031H3.26719H6.53906L6.12656 20.6156C5.90156 20.8406 5.71875 21.0469 5.71875 21.0703C5.71875 21.0984 5.93438 21.3328 6.20156 21.6L6.67969 22.0781L7.98281 20.775L9.28125 19.4766L8.00156 18.1969C7.30313 17.4984 6.70313 16.9219 6.67969 16.9219C6.61875 16.9219 5.71875 17.8219 5.71875 17.8828C5.71875 17.9062 5.91563 18.1219 6.15 18.3609L6.58594 18.7969H3.99375H1.40625V16.7578V14.7187H0.703125H0V17.4609Z" fill="#613EEA"/>
<path d="M12.6984 17.0344C11.7047 17.8547 10.9594 18.9516 10.5469 20.1984C10.3125 20.9063 10.2234 21.4688 10.2094 22.3359L10.1953 23.0391L17.1 23.0531L24 23.0625V22.5094C24 20.2922 23.0953 18.3328 21.4406 16.9828L21.2063 16.7859L20.8078 17.0719C20.1281 17.5594 19.2516 17.9391 18.375 18.1266C17.7703 18.2531 16.3078 18.2438 15.7219 18.1031C14.7797 17.8828 13.8281 17.4375 13.1672 16.9172L12.9984 16.7859L12.6984 17.0344Z" fill="#613EEA"/>
</g>
<defs>
<clipPath id="clip0_412_2388">
<rect width="24" height="24" fill="white"/>
</clipPath>
</defs>
</svg>
