<svg width="294" height="217" viewBox="0 0 294 217" fill="none" xmlns="http://www.w3.org/2000/svg">
<path d="M264.541 201.972H245.067V202.119H264.541V201.972Z" fill="#EBEBEB"/>
<path d="M194.757 203.571H189.648V203.718H194.757V203.571Z" fill="#EBEBEB"/>
<path d="M244.479 196.515H233.195V196.662H244.479V196.515Z" fill="#EBEBEB"/>
<path d="M56.2422 197.503H30.8464V197.65H56.2422V197.503Z" fill="#EBEBEB"/>
<path d="M65.2034 197.503H61.4813V197.65H65.2034V197.503Z" fill="#EBEBEB"/>
<path d="M132.388 199.985H77.3043V200.132H132.388V199.985Z" fill="#EBEBEB"/>
<path d="M140.179 166.286H26.6364C25.746 166.286 24.892 165.933 24.2623 165.303C23.6327 164.673 23.2789 163.819 23.2789 162.929V3.32808C23.2867 2.44273 23.6438 1.59627 24.2726 0.972967C24.9015 0.349661 25.751 -3.39429e-05 26.6364 2.4711e-09H140.179C140.62 2.4711e-09 141.057 0.086843 141.464 0.255572C141.871 0.424301 142.242 0.671612 142.553 0.983383C142.865 1.29515 143.112 1.66528 143.281 2.07263C143.45 2.47998 143.537 2.91657 143.537 3.35748V162.929C143.537 163.37 143.45 163.806 143.281 164.214C143.112 164.621 142.865 164.991 142.553 165.303C142.242 165.615 141.871 165.862 141.464 166.031C141.057 166.2 140.62 166.286 140.179 166.286ZM26.6364 0.1176C25.7854 0.119155 24.9697 0.457899 24.368 1.05964C23.7662 1.66139 23.4275 2.47709 23.4259 3.32808V162.929C23.4275 163.78 23.7662 164.596 24.368 165.197C24.9697 165.799 25.7854 166.138 26.6364 166.139H140.179C141.03 166.138 141.846 165.799 142.448 165.197C143.049 164.596 143.388 163.78 143.39 162.929V3.32808C143.388 2.47709 143.049 1.66139 142.448 1.05964C141.846 0.457899 141.03 0.119155 140.179 0.1176H26.6364Z" fill="#EBEBEB"/>
<path d="M267.364 166.286H153.821C152.93 166.286 152.076 165.933 151.447 165.303C150.817 164.673 150.463 163.819 150.463 162.929V3.32808C150.471 2.44273 150.828 1.59627 151.457 0.972967C152.086 0.349661 152.935 -3.39429e-05 153.821 2.4711e-09H267.364C268.254 2.47111e-09 269.108 0.353734 269.738 0.983383C270.367 1.61303 270.721 2.46702 270.721 3.35748V162.929C270.721 163.819 270.367 164.673 269.738 165.303C269.108 165.933 268.254 166.286 267.364 166.286ZM153.821 0.1176C152.97 0.119155 152.154 0.457899 151.552 1.05964C150.951 1.66139 150.612 2.47709 150.61 3.32808V162.929C150.612 163.78 150.951 164.596 151.552 165.197C152.154 165.799 152.97 166.138 153.821 166.139H267.364C268.215 166.138 269.03 165.799 269.632 165.197C270.234 164.596 270.573 163.78 270.574 162.929V3.32808C270.573 2.47709 270.234 1.66139 269.632 1.05964C269.03 0.457899 268.215 0.119155 267.364 0.1176H153.821Z" fill="#EBEBEB"/>
<path d="M294 192.511H0V192.658H294V192.511Z" fill="#EBEBEB"/>
<path d="M237.793 21.362H221.982C216.968 21.362 212.903 25.4267 212.903 30.4408V46.2521C212.903 51.2661 216.968 55.3308 221.982 55.3308H237.793C242.807 55.3308 246.872 51.2661 246.872 46.2521V30.4408C246.872 25.4267 242.807 21.362 237.793 21.362Z" fill="#F0F0F0"/>
<path d="M234.112 33.5454C234.112 36.4384 232.642 38.7786 229.749 38.7786C226.856 38.7786 225.386 36.4266 225.386 33.5454C225.386 30.6642 226.856 28.3063 229.749 28.3063C232.642 28.3063 234.112 30.6524 234.112 33.5454Z" fill="#FAFAFA"/>
<path d="M229.749 48.3806H237.823V43.5826C237.823 40.9307 234.206 38.7786 229.749 38.7786C225.292 38.7786 221.676 40.9307 221.676 43.5826V48.3806H229.749Z" fill="#FAFAFA"/>
<path d="M89.0761 32.7516H78.0335C74.5327 32.7516 71.6948 35.5895 71.6948 39.0902V50.1329C71.6948 53.6336 74.5327 56.4715 78.0335 56.4715H89.0761C92.5768 56.4715 95.4147 53.6336 95.4147 50.1329V39.0902C95.4147 35.5895 92.5768 32.7516 89.0761 32.7516Z" fill="#E6E6E6"/>
<path d="M83.0727 45.8934C83.4289 45.3986 83.8413 44.9467 84.3016 44.5469C84.6158 44.2692 84.9068 43.9663 85.1719 43.6414C85.3532 43.401 85.4504 43.1075 85.4482 42.8064C85.4547 42.6008 85.4096 42.3968 85.3172 42.213C85.2248 42.0291 85.0879 41.8713 84.919 41.7539C84.5028 41.481 84.0108 41.3472 83.5137 41.3717C82.9927 41.3594 82.477 41.4787 82.0143 41.7186C81.5758 41.9548 81.1976 42.2888 80.9089 42.6947L78.7391 41.4246C79.2441 40.6623 79.9475 40.0524 80.7736 39.6606C81.7267 39.2185 82.7692 39.0032 83.8195 39.0314C84.9867 38.9764 86.1427 39.2823 87.1299 39.9076C87.5257 40.1743 87.8476 40.5368 88.0655 40.9614C88.2835 41.386 88.3905 41.8589 88.3765 42.336C88.3861 42.7798 88.302 43.2206 88.1295 43.6296C87.9867 43.9735 87.788 44.2914 87.5415 44.5704C87.3063 44.8291 87.0064 45.1231 86.636 45.4583C86.2814 45.7598 85.9565 46.0945 85.6658 46.4579C85.4569 46.7396 85.3492 47.0835 85.36 47.434H82.6493C82.6276 46.889 82.7755 46.3507 83.0727 45.8934ZM82.7846 51.4618C82.623 51.3124 82.4954 51.1301 82.4102 50.9273C82.325 50.7244 82.2842 50.5057 82.2907 50.2858C82.286 50.0727 82.3271 49.8611 82.4113 49.6653C82.4955 49.4695 82.6208 49.2941 82.7787 49.1509C83.1232 48.8549 83.5623 48.6922 84.0164 48.6922C84.4706 48.6922 84.9097 48.8549 85.2542 49.1509C85.411 49.2946 85.5352 49.4703 85.6184 49.666C85.7015 49.8618 85.7418 50.0731 85.7363 50.2858C85.7428 50.5057 85.702 50.7244 85.6168 50.9273C85.5316 51.1301 85.4039 51.3124 85.2424 51.4618C84.9066 51.7683 84.4682 51.9383 84.0135 51.9383C83.5588 51.9383 83.1204 51.7683 82.7846 51.4618Z" fill="#FAFAFA"/>
<path d="M236.164 113.949H244.708C246.01 113.949 247.259 114.466 248.18 115.387C249.1 116.307 249.618 117.556 249.618 118.858V127.402C249.618 128.703 249.101 129.95 248.181 130.87C247.262 131.789 246.014 132.306 244.714 132.306H236.164C234.864 132.306 233.616 131.789 232.697 130.87C231.777 129.95 231.26 128.703 231.26 127.402V118.858C231.26 117.558 231.777 116.31 232.697 115.391C233.616 114.471 234.864 113.954 236.164 113.954V113.949Z" fill="#EBEBEB"/>
<path d="M240.057 124.121C240.333 123.738 240.653 123.389 241.009 123.08C241.254 122.864 241.48 122.628 241.686 122.375C241.826 122.191 241.9 121.965 241.897 121.734C241.904 121.575 241.869 121.416 241.797 121.274C241.725 121.132 241.618 121.011 241.486 120.922C241.165 120.708 240.783 120.603 240.398 120.622C240.004 120.611 239.613 120.698 239.262 120.877C238.91 121.056 238.61 121.32 238.387 121.645L236.705 120.663C237.094 120.068 237.639 119.592 238.281 119.288C239.017 118.947 239.822 118.78 240.633 118.8C241.538 118.756 242.434 118.994 243.197 119.482C243.504 119.689 243.754 119.971 243.923 120.301C244.092 120.631 244.174 120.999 244.161 121.369C244.168 121.712 244.104 122.052 243.973 122.369C243.862 122.636 243.707 122.882 243.514 123.098C243.294 123.34 243.061 123.57 242.815 123.786C242.542 124.02 242.29 124.278 242.062 124.556C241.904 124.777 241.822 125.043 241.827 125.315H239.734C239.715 124.893 239.828 124.476 240.057 124.121ZM239.833 128.431C239.711 128.317 239.614 128.179 239.549 128.025C239.484 127.871 239.453 127.704 239.457 127.537C239.454 127.372 239.485 127.209 239.549 127.057C239.612 126.905 239.708 126.768 239.828 126.655C240.095 126.427 240.435 126.302 240.786 126.302C241.137 126.302 241.477 126.427 241.744 126.655C241.866 126.768 241.962 126.904 242.027 127.056C242.091 127.208 242.124 127.372 242.121 127.537C242.124 127.705 242.092 127.871 242.026 128.025C241.96 128.18 241.862 128.318 241.739 128.431C241.613 128.554 241.464 128.65 241.3 128.713C241.136 128.777 240.962 128.807 240.786 128.801C240.611 128.806 240.436 128.775 240.273 128.711C240.109 128.648 239.96 128.553 239.833 128.431Z" fill="#FAFAFA"/>
<path d="M68.8606 68.3256H57.818C54.3173 68.3256 51.4794 71.1635 51.4794 74.6642V85.7069C51.4794 89.2076 54.3173 92.0455 57.818 92.0455H68.8606C72.3614 92.0455 75.1993 89.2076 75.1993 85.7069V74.6642C75.1993 71.1635 72.3614 68.3256 68.8606 68.3256Z" fill="#EBEBEB"/>
<path d="M63.3394 73.5C62.6347 73.5 61.9368 73.6389 61.2858 73.9088C60.6348 74.1786 60.0434 74.5741 59.5454 75.0727C59.0474 75.5713 58.6525 76.1632 58.3833 76.8145C58.1142 77.4658 57.976 78.1637 57.9768 78.8684C57.9768 81.8084 60.3759 88.935 63.3394 88.935C66.3029 88.935 68.7019 81.8261 68.7019 78.8684C68.7027 78.1637 68.5646 77.4658 68.2954 76.8145C68.0263 76.1632 67.6314 75.5713 67.1334 75.0727C66.6353 74.5741 66.0439 74.1786 65.3929 73.9088C64.7419 73.6389 64.0441 73.5 63.3394 73.5ZM63.3394 80.4854C63.0196 80.4854 62.7069 80.3906 62.441 80.2129C62.1751 80.0352 61.9678 79.7827 61.8455 79.4872C61.7231 79.1918 61.691 78.8666 61.7534 78.553C61.8158 78.2393 61.9698 77.9512 62.196 77.725C62.4221 77.4989 62.7102 77.3449 63.0239 77.2825C63.3376 77.2201 63.6627 77.2521 63.9582 77.3745C64.2536 77.4969 64.5062 77.7042 64.6839 77.9701C64.8615 78.236 64.9564 78.5486 64.9564 78.8684C64.9502 79.2932 64.7771 79.6985 64.4745 79.9967C64.1719 80.2948 63.7642 80.462 63.3394 80.4619V80.4854Z" fill="#FAFAFA"/>
<path d="M65.709 112.567C65.8815 111.478 65.8815 110.369 65.709 109.28L64.0567 109.062C63.9234 108.455 63.7263 107.864 63.4687 107.298L64.68 106.152C64.1764 105.171 63.5238 104.275 62.7455 103.494L61.2755 104.294C60.821 103.882 60.3244 103.519 59.7937 103.212L60.0995 101.571C59.1229 101.069 58.0731 100.723 56.9889 100.548L56.2775 102.047C55.9776 102.018 55.6895 102 55.3602 102C55.0309 102 54.7369 102 54.437 102.047L53.7255 100.548C52.6356 100.72 51.5798 101.063 50.5974 101.565L50.9031 103.206C50.3725 103.513 49.8758 103.876 49.4214 104.288L47.9514 103.488C47.1731 104.269 46.5205 105.165 46.0169 106.146L47.2281 107.292C46.9705 107.858 46.7734 108.449 46.6401 109.056L44.9937 109.274C44.8134 110.362 44.8134 111.473 44.9937 112.561L46.6401 112.778C46.7734 113.385 46.9705 113.977 47.2281 114.542L46.0169 115.689C46.5194 116.67 47.1721 117.567 47.9514 118.347L49.4214 117.547C49.8758 117.959 50.3725 118.322 50.9031 118.629L50.5974 120.27C51.5798 120.772 52.6356 121.115 53.7255 121.287L54.437 119.787C54.7369 119.817 55.025 119.834 55.3602 119.834C55.6953 119.834 55.9482 119.834 56.2775 119.787L56.9889 121.287C58.0789 121.115 59.1347 120.772 60.1171 120.27L59.8113 118.629C60.342 118.322 60.8387 117.959 61.2931 117.547L62.7631 118.347C63.5414 117.566 64.194 116.67 64.6976 115.689L63.504 114.531C63.7609 113.965 63.9579 113.374 64.092 112.767L65.709 112.567ZM55.3602 114.584C54.6352 114.585 53.9261 114.371 53.3228 113.969C52.7195 113.567 52.249 112.995 51.971 112.325C51.6931 111.655 51.62 110.918 51.7612 110.207C51.9023 109.496 52.2513 108.843 52.764 108.33C53.2767 107.817 53.9299 107.468 54.6411 107.327C55.3522 107.186 56.0893 107.259 56.7589 107.537C57.4285 107.815 58.0006 108.285 58.4026 108.889C58.8047 109.492 59.0187 110.201 59.0175 110.926C59.016 111.896 58.6302 112.825 57.9446 113.511C57.2591 114.196 56.3297 114.582 55.3602 114.584Z" fill="#EBEBEB"/>
<path d="M71.0128 124.397C71.055 124.125 71.0766 123.85 71.0775 123.574C71.0771 123.298 71.0555 123.023 71.0128 122.751L70.1837 122.645C70.1209 122.344 70.0262 122.05 69.9015 121.769L70.4895 121.181C70.2379 120.688 69.9105 120.238 69.5193 119.846L68.7843 120.246C68.5559 120.041 68.3077 119.86 68.0434 119.705L68.1963 118.888C67.7054 118.635 67.1774 118.463 66.6322 118.376L66.2794 119.129C66.1265 119.129 65.9737 119.129 65.8208 119.129C65.6679 119.129 65.5091 119.129 65.3563 119.129L65.0035 118.376C64.4582 118.463 63.9303 118.635 63.4394 118.888L63.5923 119.705C63.3279 119.86 63.0797 120.041 62.8514 120.246L62.1164 119.846C61.7252 120.238 61.3978 120.688 61.1462 121.181L61.7342 121.769C61.6094 122.05 61.5148 122.344 61.4519 122.645L60.6287 122.751C60.5831 123.023 60.5614 123.298 60.5641 123.574C60.562 123.85 60.5836 124.125 60.6287 124.397L61.4519 124.503C61.5148 124.802 61.6094 125.094 61.7342 125.373L61.1462 125.961C61.3983 126.452 61.7257 126.901 62.1164 127.29L62.8514 126.89C63.0767 127.099 63.3253 127.28 63.5923 127.431L63.4394 128.249C63.9303 128.501 64.4582 128.674 65.0035 128.76L65.3563 128.008C65.6632 128.039 65.9725 128.039 66.2794 128.008L66.6322 128.76C67.1774 128.674 67.7054 128.501 68.1963 128.249L68.0434 127.431C68.3103 127.28 68.5589 127.099 68.7843 126.89L69.5193 127.29C69.91 126.901 70.2374 126.452 70.4895 125.961L69.9015 125.373C70.0262 125.094 70.1208 124.802 70.1837 124.503L71.0128 124.397ZM65.8384 125.403C65.4767 125.403 65.1232 125.296 64.8225 125.095C64.5217 124.894 64.2873 124.608 64.1489 124.274C64.0105 123.94 63.9743 123.572 64.0449 123.217C64.1154 122.863 64.2896 122.537 64.5453 122.281C64.8011 122.025 65.1269 121.851 65.4817 121.781C65.8364 121.71 66.2041 121.746 66.5382 121.885C66.8724 122.023 67.158 122.257 67.3589 122.558C67.5598 122.859 67.6671 123.212 67.6671 123.574C67.6656 124.056 67.4749 124.517 67.136 124.859C66.7972 125.201 66.3375 125.397 65.8561 125.403H65.8384Z" fill="#E0E0E0"/>
<path d="M252.687 112.531C252.909 112.368 253.119 112.189 253.316 111.996C253.511 111.801 253.69 111.59 253.851 111.367L253.346 110.709C253.513 110.452 253.651 110.178 253.757 109.891H254.592C254.763 109.367 254.851 108.82 254.851 108.268L254.045 108.033C254.033 107.727 253.986 107.423 253.904 107.128L254.592 106.657C254.426 106.131 254.174 105.637 253.846 105.193L253.063 105.47C252.968 105.35 252.866 105.237 252.758 105.129C252.646 105.017 252.534 104.917 252.417 104.817L252.693 104.035C252.246 103.712 251.752 103.461 251.229 103.288L250.759 103.976C250.46 103.9 250.155 103.853 249.847 103.835L249.612 103.035C249.061 103.034 248.513 103.121 247.989 103.294V104.123C247.703 104.234 247.429 104.374 247.172 104.541L246.507 104.035C246.057 104.364 245.66 104.761 245.331 105.211L245.837 105.869C245.671 106.129 245.531 106.405 245.419 106.693H244.59C244.42 107.217 244.333 107.764 244.332 108.315L245.131 108.551C245.149 108.856 245.196 109.16 245.272 109.456L244.585 109.932C244.757 110.456 245.009 110.95 245.331 111.397L246.113 111.114C246.213 111.232 246.313 111.35 246.425 111.461C246.537 111.573 246.648 111.673 246.766 111.767L246.49 112.549C246.933 112.877 247.428 113.129 247.954 113.296L248.424 112.608C248.72 112.69 249.023 112.737 249.33 112.749L249.565 113.555C250.118 113.554 250.668 113.467 251.194 113.296V112.461C251.48 112.352 251.753 112.214 252.011 112.049L252.687 112.531ZM248.318 109.591C248.063 109.336 247.889 109.01 247.818 108.655C247.748 108.3 247.784 107.933 247.923 107.599C248.061 107.265 248.295 106.979 248.596 106.778C248.897 106.577 249.25 106.47 249.612 106.47C249.974 106.47 250.327 106.577 250.628 106.778C250.928 106.979 251.163 107.265 251.301 107.599C251.44 107.933 251.476 108.3 251.406 108.655C251.335 109.01 251.161 109.336 250.906 109.591C250.736 109.762 250.534 109.897 250.312 109.989C250.089 110.081 249.851 110.128 249.611 110.127C249.37 110.127 249.132 110.078 248.91 109.985C248.689 109.893 248.487 109.757 248.318 109.586V109.591Z" fill="#F0F0F0"/>
<path d="M147 216.801C209.964 216.801 261.007 213.821 261.007 210.145C261.007 206.469 209.964 203.489 147 203.489C84.0355 203.489 32.9927 206.469 32.9927 210.145C32.9927 213.821 84.0355 216.801 147 216.801Z" fill="#F5F5F5"/>
<path d="M167.909 34.5509V25.3898L172.413 24.7548V33.9158L167.909 34.5509Z" fill="#263238"/>
<path d="M152.933 39.6547L149.558 34.2804L152.433 32.2224L155.802 37.5908L152.933 39.6547Z" fill="#263238"/>
<path d="M184.514 33.5513L187.89 27.2362L190.759 28.4886L187.39 34.8096L184.514 33.5513Z" fill="#263238"/>
<g opacity="0.5">
<path d="M167.909 34.5509V25.3898L172.413 24.7548V33.9158L167.909 34.5509Z" fill="white"/>
<path d="M152.933 39.6547L149.558 34.2804L152.433 32.2224L155.802 37.5908L152.933 39.6547Z" fill="white"/>
<path d="M184.514 33.5513L187.89 27.2361L190.759 28.4886L187.39 34.8096L184.514 33.5513Z" fill="white"/>
</g>
<path d="M173.054 26.2307L167.268 27.048C167.058 27.0868 166.842 27.078 166.636 27.0223C166.43 26.9665 166.239 26.8653 166.077 26.7259C165.915 26.5866 165.786 26.4127 165.701 26.2171C165.615 26.0215 165.574 25.8091 165.581 25.5956C165.594 25.1288 165.77 24.6812 166.078 24.3302C166.386 23.9791 166.807 23.7467 167.268 23.6729L173.054 22.8614C173.264 22.8228 173.479 22.8315 173.685 22.8869C173.891 22.9423 174.082 23.043 174.244 23.1817C174.405 23.3204 174.534 23.4935 174.62 23.6884C174.707 23.8832 174.748 24.0949 174.742 24.3079C174.727 24.7745 174.551 25.2214 174.243 25.5723C173.935 25.9231 173.515 26.1558 173.054 26.2307Z" fill="#263238"/>
<path d="M153.368 32.0754L149.081 35.1565C148.992 35.231 148.889 35.2864 148.777 35.3192C148.666 35.352 148.549 35.3616 148.434 35.3472C148.319 35.3329 148.207 35.295 148.107 35.2359C148.007 35.1768 147.921 35.0977 147.853 35.0036C147.739 34.788 147.711 34.538 147.771 34.3022C147.832 34.0664 147.979 33.8617 148.182 33.7277L152.474 30.6524C152.562 30.5772 152.665 30.5212 152.777 30.488C152.888 30.4547 153.004 30.445 153.119 30.4594C153.235 30.4737 153.345 30.5119 153.445 30.5715C153.544 30.6311 153.63 30.7107 153.697 30.8053C153.81 31.0201 153.839 31.2691 153.778 31.5039C153.717 31.7387 153.571 31.9425 153.368 32.0754Z" fill="#263238"/>
<path d="M191.241 29.2295L186.949 27.3596C186.846 27.3077 186.756 27.235 186.683 27.1462C186.61 27.0574 186.557 26.9545 186.526 26.844C186.495 26.7334 186.487 26.6176 186.503 26.504C186.519 26.3903 186.559 26.2812 186.62 26.1836C186.727 25.9636 186.912 25.7909 187.138 25.6986C187.365 25.6064 187.618 25.6011 187.848 25.6838L192.135 27.5596C192.239 27.6102 192.33 27.6821 192.404 27.7707C192.478 27.8593 192.532 27.9626 192.563 28.0737C192.595 28.1847 192.602 28.3012 192.585 28.4152C192.568 28.5293 192.527 28.6385 192.464 28.7356C192.357 28.9541 192.173 29.1254 191.947 29.2165C191.722 29.3077 191.47 29.3123 191.241 29.2295Z" fill="#263238"/>
<path opacity="0.7" d="M173.054 26.2307L167.268 27.048C167.058 27.0868 166.842 27.078 166.636 27.0223C166.43 26.9665 166.239 26.8653 166.077 26.7259C165.915 26.5866 165.786 26.4127 165.701 26.2171C165.615 26.0215 165.574 25.8091 165.581 25.5956C165.594 25.1288 165.77 24.6812 166.078 24.3302C166.386 23.9791 166.807 23.7467 167.268 23.6729L173.054 22.8614C173.264 22.8228 173.479 22.8315 173.685 22.8869C173.891 22.9423 174.082 23.043 174.244 23.1817C174.405 23.3204 174.534 23.4935 174.62 23.6884C174.707 23.8832 174.748 24.0949 174.742 24.3079C174.727 24.7745 174.551 25.2214 174.243 25.5723C173.935 25.9231 173.515 26.1558 173.054 26.2307Z" fill="white"/>
<path opacity="0.7" d="M153.368 32.0754L149.081 35.1565C148.992 35.231 148.889 35.2864 148.777 35.3192C148.666 35.352 148.549 35.3616 148.434 35.3472C148.319 35.3329 148.207 35.295 148.107 35.2359C148.007 35.1768 147.921 35.0977 147.853 35.0036C147.739 34.788 147.711 34.538 147.771 34.3022C147.832 34.0664 147.979 33.8617 148.182 33.7277L152.474 30.6524C152.562 30.5772 152.665 30.5212 152.777 30.488C152.888 30.4547 153.004 30.445 153.119 30.4594C153.235 30.4737 153.345 30.5119 153.445 30.5715C153.544 30.6311 153.63 30.7107 153.697 30.8053C153.81 31.0201 153.839 31.2691 153.778 31.5039C153.717 31.7387 153.571 31.9425 153.368 32.0754Z" fill="white"/>
<path opacity="0.7" d="M191.241 29.2295L186.949 27.3596C186.846 27.3077 186.756 27.235 186.683 27.1462C186.61 27.0574 186.557 26.9545 186.526 26.844C186.495 26.7334 186.487 26.6176 186.503 26.504C186.519 26.3903 186.559 26.2812 186.62 26.1836C186.727 25.9636 186.912 25.7909 187.138 25.6986C187.365 25.6064 187.618 25.6011 187.848 25.6838L192.135 27.5596C192.239 27.6102 192.33 27.6821 192.404 27.7707C192.478 27.8593 192.532 27.9626 192.563 28.0737C192.595 28.1847 192.602 28.3012 192.585 28.4152C192.568 28.5293 192.527 28.6385 192.464 28.7356C192.357 28.9541 192.173 29.1254 191.947 29.2165C191.722 29.3077 191.47 29.3123 191.241 29.2295Z" fill="white"/>
<path d="M170.161 91.9044C154.503 94.1035 141.808 83.1961 141.808 67.5377C141.808 51.8792 154.503 37.3968 170.161 35.1977C185.82 32.9986 198.515 43.906 198.515 59.5644L202.384 59.0234C202.384 41.2247 187.954 28.8296 170.161 31.3286C152.368 33.8276 137.939 50.2858 137.939 68.0786C137.939 85.8715 152.363 98.2724 170.161 95.7734V91.9044Z" fill="#613EEA"/>
<path d="M158.895 83.6351L156.78 87.5979L157.609 88.041L159.725 84.0782L158.895 83.6351Z" fill="#263238"/>
<path d="M182.702 39.056L180.586 43.0188L181.416 43.4619L183.532 39.4991L182.702 39.056Z" fill="#263238"/>
<path d="M147.892 53.3033L147.515 54.1655L151.179 55.7656L151.556 54.9034L147.892 53.3033Z" fill="#263238"/>
<path d="M157.962 43.2414L157.163 43.74L159.272 47.1237L160.072 46.625L157.962 43.2414Z" fill="#263238"/>
<path d="M151.104 76.6663L147.435 79.299L147.983 80.0633L151.652 77.4307L151.104 76.6663Z" fill="#263238"/>
<path d="M192.337 47.0553L188.668 49.6879L189.217 50.4523L192.886 47.8197L192.337 47.0553Z" fill="#263238"/>
<path d="M149.752 65.4695L144.11 66.2624L144.372 68.1257L150.014 67.3327L149.752 65.4695Z" fill="#263238"/>
<path d="M171.102 37.632H169.22V43.2768H171.102V37.632Z" fill="#263238"/>
<path d="M171.102 83.8253H169.22V89.4701H171.102V83.8253Z" fill="#263238"/>
<path d="M162.876 57.4358C162.657 57.6562 162.534 57.9542 162.534 58.2649C162.534 58.5756 162.657 58.8737 162.876 59.094L169.191 64.5154L170.843 62.6279L164.534 57.2006C164.41 57.1061 164.269 57.0372 164.118 56.9979C163.967 56.9585 163.81 56.9495 163.656 56.9714C163.502 56.9933 163.353 57.0456 163.219 57.1253C163.085 57.2051 162.969 57.3106 162.876 57.4358Z" fill="#613EEA"/>
<path opacity="0.4" d="M162.876 57.4358C162.657 57.6562 162.534 57.9542 162.534 58.2649C162.534 58.5756 162.657 58.8737 162.876 59.094L169.191 64.5154L170.843 62.6279L164.534 57.2006C164.41 57.1061 164.269 57.0372 164.118 56.9979C163.967 56.9585 163.81 56.9495 163.656 56.9714C163.502 56.9933 163.353 57.0456 163.219 57.1253C163.085 57.2051 162.969 57.3106 162.876 57.4358Z" fill="white"/>
<path d="M205.141 58.1649L200.432 64.4742L195.728 59.4879L205.141 58.1649Z" fill="#613EEA"/>
<path d="M180.904 51.1207C180.78 51.0262 180.639 50.9573 180.488 50.9179C180.337 50.8786 180.18 50.8696 180.026 50.8915C179.871 50.9134 179.723 50.9657 179.589 51.0454C179.455 51.1251 179.339 51.2307 179.246 51.3559L170.696 61.105C170.238 61.0472 169.773 61.1046 169.343 61.272C168.913 61.4393 168.531 61.7114 168.233 62.0634C167.268 63.1688 167.268 64.7388 168.233 65.5914C169.197 66.444 170.773 66.1794 171.761 65.0975C172.065 64.7582 172.279 64.3473 172.382 63.9031C172.485 63.4589 172.473 62.9959 172.349 62.5573L180.898 52.8024C181.011 52.6933 181.1 52.5628 181.161 52.4186C181.223 52.2744 181.254 52.1194 181.255 51.9628C181.255 51.8061 181.225 51.6509 181.164 51.5063C181.104 51.3617 181.016 51.2306 180.904 51.1207Z" fill="#613EEA"/>
<path d="M182.45 86.5889L189.8 85.554L189.148 88.9467L175.9 90.8107L176.429 88.1118L184.403 80.7441C185.152 80.0661 185.827 79.3091 186.414 78.4862C186.779 77.9688 186.983 77.3552 187.002 76.7222C187.017 76.4658 186.964 76.2099 186.849 75.9806C186.733 75.7513 186.558 75.5568 186.343 75.4169C185.757 75.107 185.079 75.0173 184.432 75.164C183.709 75.2668 183.017 75.5257 182.403 75.9225C181.742 76.34 181.166 76.8786 180.704 77.5101L177.982 75.9167C178.743 74.7906 179.748 73.8501 180.922 73.1648C182.181 72.4108 183.582 71.9225 185.038 71.7301C186.106 71.551 187.2 71.6011 188.248 71.8771C189.09 72.0955 189.842 72.5751 190.394 73.2471C190.911 73.9093 191.181 74.7303 191.159 75.5697C191.148 76.6895 190.838 77.786 190.259 78.7449C189.396 80.0843 188.344 81.2923 187.137 82.3317L182.45 86.5889Z" fill="#263238"/>
<path d="M207.317 82.7198L204.448 83.1256L203.718 86.9005L199.773 87.4532L200.508 83.6724L191.1 85.0013L191.623 82.2024L201.919 69.6545L206.347 69.0371L196.745 80.9088L201.349 80.262L201.996 76.8928L205.771 76.3636L205.118 79.7269L207.993 79.3271L207.317 82.7198Z" fill="#263238"/>
<path d="M218.865 63.7274L222.517 63.21L209.669 88.5645L206.047 89.0702L218.865 63.7274Z" fill="#263238"/>
<path d="M235.535 64.9328L235.012 67.6318L225.663 83.8135L221.164 84.4486L230.137 68.99L224.463 69.7897L223.875 72.7297L220.277 73.2354L221.5 66.9144L235.535 64.9328Z" fill="#263238"/>
<path d="M177.911 108.192C177.354 108.13 176.814 107.958 176.324 107.686L177.182 105.922C177.617 106.177 178.096 106.348 178.593 106.428C179.125 106.513 179.667 106.513 180.199 106.428C180.691 106.379 181.164 106.213 181.58 105.946C181.729 105.857 181.854 105.733 181.942 105.584C182.03 105.435 182.08 105.266 182.086 105.093C182.092 104.964 182.056 104.837 181.983 104.731C181.909 104.624 181.803 104.545 181.68 104.505C181.263 104.365 180.831 104.27 180.393 104.223C179.905 104.151 179.422 104.051 178.946 103.923C178.575 103.815 178.239 103.612 177.97 103.335C177.679 102.997 177.533 102.557 177.564 102.112C177.562 101.507 177.74 100.916 178.076 100.413C178.45 99.8688 178.953 99.4263 179.54 99.125C180.224 98.7666 180.967 98.5336 181.733 98.4371C182.317 98.3492 182.91 98.3354 183.497 98.3959C183.987 98.4362 184.465 98.5657 184.908 98.7781L184.115 100.507C183.759 100.314 183.37 100.188 182.968 100.136C182.525 100.078 182.076 100.078 181.633 100.136C181.125 100.189 180.639 100.367 180.216 100.654C180.063 100.745 179.935 100.872 179.843 101.025C179.752 101.178 179.7 101.352 179.693 101.53C179.688 101.621 179.706 101.711 179.745 101.793C179.784 101.876 179.843 101.947 179.916 102C180.081 102.126 180.272 102.212 180.475 102.253C180.698 102.3 181.016 102.353 181.427 102.412C181.912 102.466 182.391 102.556 182.862 102.682C183.227 102.793 183.557 102.995 183.821 103.27C183.962 103.43 184.069 103.617 184.137 103.819C184.204 104.021 184.231 104.234 184.215 104.446C184.22 105.056 184.04 105.653 183.697 106.158C183.316 106.699 182.81 107.141 182.221 107.445C181.527 107.826 180.77 108.079 179.987 108.192C179.299 108.292 178.599 108.292 177.911 108.192Z" fill="#263238"/>
<path d="M188.713 99.372L188.319 101.412L192.558 100.824L192.235 102.518L187.984 103.106L187.566 105.281L192.546 104.582L192.194 106.346L185.138 107.339L186.96 97.9314L193.864 96.9612L193.511 98.7252L188.713 99.372Z" fill="#263238"/>
<path d="M202.301 100.813C201.822 101.502 201.157 102.042 200.385 102.371L201.972 104.964L199.744 105.281L198.309 102.929L196.51 103.182L195.998 105.811L193.875 106.11L195.698 96.7025L199.42 96.1792C200.313 95.9811 201.247 96.1149 202.049 96.5555C202.364 96.7686 202.617 97.0615 202.783 97.4045C202.948 97.7474 203.019 98.1281 202.989 98.5076C203.005 99.3287 202.764 100.134 202.301 100.813ZM200.273 100.483C200.467 100.293 200.619 100.065 200.72 99.8129C200.822 99.5609 200.869 99.2906 200.861 99.0192C200.878 98.8414 200.846 98.6622 200.769 98.5014C200.691 98.3406 200.57 98.2044 200.42 98.1078C200.028 97.9161 199.582 97.8622 199.156 97.9549L197.486 98.1901L196.845 101.454L198.644 101.201C199.249 101.141 199.82 100.889 200.273 100.483Z" fill="#263238"/>
<path d="M214.061 94.1388L208.287 104.076L206.212 104.364L204.083 95.5441L206.265 95.2384L207.735 101.536L211.851 94.4445L214.061 94.1388Z" fill="#263238"/>
<path d="M214.814 94.0329L216.943 93.7331L215.12 103.141L212.991 103.441L214.814 94.0329Z" fill="#263238"/>
<path d="M219.677 102.141C219.036 101.935 218.481 101.522 218.101 100.965C217.723 100.369 217.532 99.6724 217.554 98.9663C217.549 97.9581 217.794 96.9643 218.266 96.0733C218.742 95.1728 219.43 94.4018 220.271 93.8272C221.147 93.2222 222.155 92.8333 223.211 92.6923C223.932 92.5728 224.67 92.6129 225.374 92.8099C225.952 92.9639 226.457 93.3182 226.797 93.8095L225.269 95.2736C225.014 94.9492 224.671 94.7051 224.281 94.5706C223.891 94.4361 223.47 94.4168 223.07 94.5151C222.43 94.6008 221.823 94.8477 221.306 95.2325C220.805 95.6156 220.402 96.1111 220.13 96.679C219.847 97.2575 219.702 97.8933 219.706 98.537C219.684 98.835 219.734 99.1338 219.85 99.4089C219.967 99.6839 220.147 99.9272 220.376 100.119C220.65 100.304 220.959 100.432 221.283 100.492C221.608 100.553 221.942 100.546 222.264 100.472C223.222 100.339 224.091 99.8396 224.687 99.078L225.939 100.178C225.472 100.772 224.889 101.267 224.227 101.632C223.564 101.997 222.834 102.224 222.082 102.3C221.279 102.44 220.454 102.386 219.677 102.141Z" fill="#263238"/>
<path d="M230.414 93.539L230.02 95.5735L234.259 94.9855L233.936 96.6731L229.685 97.2611L229.267 99.4308L234.247 98.7311L233.895 100.495L226.839 101.489L228.667 92.0808L235.553 91.14L235.2 92.904L230.414 93.539Z" fill="#263238"/>
<path d="M115.524 52.6084C109.239 52.6084 104.147 56.3186 104.147 60.8933C104.147 64.2155 106.846 67.0791 110.732 68.3962C110.316 70.3041 109.599 72.134 108.61 73.8175C110.02 73.6077 111.364 73.0799 112.541 72.2741C113.717 71.4684 114.695 70.4057 115.401 69.1665H115.524C121.81 69.1665 126.902 65.462 126.902 60.8874C126.902 56.3128 121.81 52.6084 115.524 52.6084Z" fill="#613EEA"/>
<path opacity="0.7" d="M115.524 52.6084C109.239 52.6084 104.147 56.3186 104.147 60.8933C104.147 64.2155 106.846 67.0791 110.732 68.3962C110.316 70.3041 109.599 72.134 108.61 73.8175C110.02 73.6077 111.364 73.0799 112.541 72.2741C113.717 71.4684 114.695 70.4057 115.401 69.1665H115.524C121.81 69.1665 126.902 65.462 126.902 60.8874C126.902 56.3128 121.81 52.6084 115.524 52.6084Z" fill="white"/>
<path d="M110.509 62.4868C111.148 62.4868 111.667 61.9681 111.667 61.3284C111.667 60.6887 111.148 60.17 110.509 60.17C109.869 60.17 109.35 60.6887 109.35 61.3284C109.35 61.9681 109.869 62.4868 110.509 62.4868Z" fill="#263238"/>
<path d="M116.606 61.3284C116.606 61.561 116.537 61.7884 116.408 61.9818C116.279 62.1752 116.095 62.3259 115.88 62.4149C115.665 62.5039 115.429 62.5272 115.201 62.4818C114.973 62.4364 114.763 62.3244 114.599 62.16C114.434 61.9955 114.322 61.786 114.277 61.5578C114.231 61.3297 114.255 61.0933 114.344 60.8784C114.433 60.6635 114.584 60.4798 114.777 60.3506C114.97 60.2214 115.198 60.1524 115.43 60.1524C115.742 60.1524 116.041 60.2763 116.262 60.4968C116.482 60.7174 116.606 61.0165 116.606 61.3284Z" fill="#263238"/>
<path d="M120.387 62.4868C121.027 62.4868 121.545 61.9681 121.545 61.3284C121.545 60.6887 121.027 60.17 120.387 60.17C119.747 60.17 119.229 60.6887 119.229 61.3284C119.229 61.9681 119.747 62.4868 120.387 62.4868Z" fill="#263238"/>
<path d="M218.736 179.369C218.736 179.369 218.812 171.52 215.955 172.554C213.097 173.589 218.736 179.369 218.736 179.369Z" fill="#613EEA"/>
<path d="M221.805 172.102C221.805 172.102 225.592 165.822 222.17 164.922C218.748 164.023 221.805 172.102 221.805 172.102Z" fill="#613EEA"/>
<path d="M236.77 167.668C236.77 167.668 244.632 167.262 242.856 164.317C241.08 161.371 236.77 167.668 236.77 167.668Z" fill="#613EEA"/>
<path d="M224.334 169.756C224.334 169.756 232.566 167.897 231.025 172.519C229.485 177.141 224.334 169.756 224.334 169.756Z" fill="#613EEA"/>
<path d="M218.354 186.467C218.354 186.467 215.208 179.34 213.444 181.874C211.68 184.409 218.354 186.467 218.354 186.467Z" fill="#613EEA"/>
<path d="M227.327 168.274C227.327 168.274 235.712 166.075 233.101 162.982C230.49 159.889 227.327 168.274 227.327 168.274Z" fill="#613EEA"/>
<path d="M233.665 167.409C233.665 167.409 240.298 170.667 237.24 172.796C234.183 174.924 233.665 167.409 233.665 167.409Z" fill="#613EEA"/>
<path d="M219.565 176.212C219.565 176.212 224.157 170.685 225.574 174.701C226.992 178.717 219.565 176.212 219.565 176.212Z" fill="#613EEA"/>
<g opacity="0.4">
<path d="M218.354 186.467C218.354 186.467 215.208 179.34 213.444 181.874C211.68 184.409 218.354 186.467 218.354 186.467Z" fill="white"/>
<path d="M227.327 168.274C227.327 168.274 235.712 166.075 233.101 162.982C230.49 159.889 227.327 168.274 227.327 168.274Z" fill="white"/>
<path d="M233.665 167.409C233.665 167.409 240.298 170.667 237.24 172.796C234.183 174.924 233.665 167.409 233.665 167.409Z" fill="white"/>
<path d="M219.565 176.212C219.565 176.212 224.157 170.685 225.574 174.701C226.992 178.717 219.565 176.212 219.565 176.212Z" fill="white"/>
</g>
<path d="M218.307 183.385C218.307 183.385 221.6 176.329 224.251 179.887C226.903 183.444 218.307 183.385 218.307 183.385Z" fill="#613EEA"/>
<path d="M218.36 190.806C217.362 186.208 217.505 181.435 218.777 176.906C221.47 168.086 229.732 166.01 238.081 167.345C238.746 167.451 238.452 168.45 237.793 168.344C233.36 167.639 228.385 167.568 224.522 170.25C221.758 172.184 220.194 175.259 219.442 178.482C218.559 182.455 218.537 186.571 219.377 190.553C219.512 191.212 218.501 191.47 218.36 190.812V190.806Z" fill="#613EEA"/>
<g opacity="0.3">
<path d="M218.36 190.806C217.362 186.208 217.505 181.435 218.777 176.906C221.47 168.086 229.732 166.01 238.081 167.345C238.746 167.451 238.452 168.45 237.793 168.344C233.36 167.639 228.385 167.568 224.522 170.25C221.758 172.184 220.194 175.259 219.442 178.482C218.559 182.455 218.537 186.571 219.377 190.553C219.512 191.212 218.501 191.47 218.36 190.812V190.806Z" fill="black"/>
</g>
<path d="M211.815 176.988C211.815 176.988 207.699 167.392 205.03 169.897C202.36 172.402 211.815 176.988 211.815 176.988Z" fill="#613EEA"/>
<path d="M211.462 166.78C211.462 166.78 212.439 157.484 208.064 157.884C203.689 158.284 211.462 166.78 211.462 166.78Z" fill="#613EEA"/>
<path d="M226.156 154.856C226.156 154.856 234.888 150.934 231.301 148.123C227.715 145.312 226.156 154.856 226.156 154.856Z" fill="#613EEA"/>
<path d="M213.097 162.823C213.097 162.823 221.5 156.943 222.188 163.27C222.875 169.597 213.097 162.823 213.097 162.823Z" fill="#613EEA"/>
<path d="M215.167 185.773C215.167 185.773 207.764 178.493 207.099 182.339C206.435 186.184 215.167 185.773 215.167 185.773Z" fill="#613EEA"/>
<path d="M215.714 159.713C215.714 159.713 224.099 153.374 219.477 150.746C214.855 148.117 215.714 159.713 215.714 159.713Z" fill="#613EEA"/>
<path d="M222.482 155.896C222.482 155.896 231.766 156.972 229.408 160.894C227.05 164.816 222.482 155.896 222.482 155.896Z" fill="#613EEA"/>
<path d="M211.092 172.76C211.092 172.76 213.385 164.028 217.137 168.303C220.888 172.578 211.092 172.76 211.092 172.76Z" fill="#613EEA"/>
<g opacity="0.4">
<path d="M215.167 185.773C215.167 185.773 207.764 178.493 207.099 182.339C206.435 186.184 215.167 185.773 215.167 185.773Z" fill="white"/>
<path d="M215.714 159.713C215.714 159.713 224.099 153.374 219.477 150.746C214.855 148.117 215.714 159.713 215.714 159.713Z" fill="white"/>
<path d="M222.482 155.896C222.482 155.896 231.766 156.972 229.408 160.894C227.05 164.816 222.482 155.896 222.482 155.896Z" fill="white"/>
<path d="M211.092 172.76C211.092 172.76 213.385 164.028 217.137 168.303C220.888 172.578 211.092 172.76 211.092 172.76Z" fill="white"/>
</g>
<path d="M213.479 182.045C213.479 182.045 213.479 172.008 218.383 175.189C223.287 178.37 213.479 182.045 213.479 182.045Z" fill="#613EEA"/>
<path d="M217.472 191.053C214.026 186.014 211.368 179.881 210.569 173.954C208.958 162.053 217.248 155.908 227.474 153.885C228.285 153.727 228.479 155.061 227.679 155.238C222.252 156.308 216.507 158.407 213.567 163.346C211.445 166.904 211.292 171.331 212.145 175.577C213.279 180.843 215.432 185.837 218.483 190.277C218.533 190.344 218.568 190.42 218.588 190.501C218.608 190.582 218.612 190.666 218.599 190.749C218.587 190.831 218.558 190.91 218.515 190.982C218.472 191.053 218.415 191.115 218.348 191.165C218.281 191.214 218.204 191.25 218.124 191.27C218.043 191.29 217.958 191.293 217.876 191.281C217.794 191.268 217.714 191.24 217.643 191.197C217.572 191.153 217.509 191.097 217.46 191.029L217.472 191.053Z" fill="#613EEA"/>
<g opacity="0.3">
<path d="M217.472 191.053C214.026 186.014 211.368 179.881 210.569 173.954C208.958 162.053 217.248 155.908 227.474 153.885C228.285 153.727 228.479 155.061 227.679 155.238C222.252 156.308 216.507 158.407 213.567 163.346C211.445 166.904 211.292 171.331 212.145 175.577C213.279 180.843 215.432 185.837 218.483 190.277C218.533 190.344 218.568 190.42 218.588 190.501C218.608 190.582 218.612 190.666 218.599 190.749C218.587 190.831 218.558 190.91 218.515 190.982C218.472 191.053 218.415 191.115 218.348 191.165C218.281 191.214 218.204 191.25 218.124 191.27C218.043 191.29 217.958 191.293 217.876 191.281C217.794 191.268 217.714 191.24 217.643 191.197C217.572 191.153 217.509 191.097 217.46 191.029L217.472 191.053Z" fill="black"/>
</g>
<path d="M210.839 179.511C210.839 179.511 212.791 173.001 214.885 174.589C216.978 176.177 210.839 179.511 210.839 179.511Z" fill="#613EEA"/>
<path d="M210.157 172.713C210.157 172.713 208.646 166.545 211.704 166.686C214.761 166.827 210.157 172.713 210.157 172.713Z" fill="#613EEA"/>
<path d="M198.932 165.228C198.932 165.228 192.541 162.876 194.769 160.894C196.998 158.913 198.932 165.228 198.932 165.228Z" fill="#613EEA"/>
<path d="M208.675 170.12C208.675 170.12 202.337 166.469 202.437 170.708C202.537 174.948 208.675 170.12 208.675 170.12Z" fill="#613EEA"/>
<path d="M209.328 185.467C209.328 185.467 213.785 180.404 214.591 182.944C215.396 185.485 209.328 185.467 209.328 185.467Z" fill="#613EEA"/>
<path d="M206.582 168.127C206.582 168.127 200.22 164.152 203.172 162.247C206.123 160.342 206.582 168.127 206.582 168.127Z" fill="#613EEA"/>
<path d="M201.56 165.816C201.56 165.816 195.245 166.804 197.227 169.344C199.208 171.884 201.56 165.816 201.56 165.816Z" fill="#613EEA"/>
<path d="M210.957 176.682C210.957 176.682 208.605 170.932 206.376 173.889C204.148 176.847 210.957 176.682 210.957 176.682Z" fill="#613EEA"/>
<g opacity="0.4">
<path d="M209.328 185.467C209.328 185.467 213.785 180.404 214.591 182.944C215.396 185.485 209.328 185.467 209.328 185.467Z" fill="white"/>
<path d="M206.582 168.127C206.582 168.127 200.22 164.152 203.172 162.247C206.123 160.342 206.582 168.127 206.582 168.127Z" fill="white"/>
<path d="M201.56 165.816C201.56 165.816 195.245 166.804 197.227 169.344C199.208 171.884 201.56 165.816 201.56 165.816Z" fill="white"/>
<path d="M210.957 176.682C210.957 176.682 208.605 170.932 206.376 173.889C204.148 176.847 210.957 176.682 210.957 176.682Z" fill="white"/>
</g>
<path d="M210.145 182.933C210.145 182.933 209.246 176.247 206.135 178.511C203.025 180.775 210.145 182.933 210.145 182.933Z" fill="#613EEA"/>
<path d="M208.199 189.048C210.206 185.507 211.313 181.527 211.421 177.458C211.462 169.485 205.177 165.64 197.933 164.593C197.345 164.511 197.345 165.416 197.933 165.498C201.778 166.051 205.923 167.262 208.405 170.485C210.169 172.79 210.698 175.736 210.492 178.587C210.2 182.099 209.159 185.507 207.441 188.583C207.158 189.089 207.929 189.565 208.217 189.054L208.199 189.048Z" fill="#613EEA"/>
<g opacity="0.3">
<path d="M208.199 189.048C210.206 185.507 211.313 181.527 211.421 177.458C211.462 169.485 205.177 165.64 197.933 164.593C197.345 164.511 197.345 165.416 197.933 165.498C201.778 166.051 205.923 167.262 208.405 170.485C210.169 172.79 210.698 175.736 210.492 178.587C210.2 182.099 209.159 185.507 207.441 188.583C207.158 189.089 207.929 189.565 208.217 189.054L208.199 189.048Z" fill="black"/>
</g>
<path d="M226.498 187.396L224.222 204.559C224.08 205.627 223.555 206.606 222.745 207.315C221.935 208.025 220.895 208.416 219.818 208.417H205.665C204.588 208.416 203.548 208.025 202.738 207.315C201.928 206.606 201.403 205.627 201.261 204.559L198.985 187.396H226.498Z" fill="#613EEA"/>
<path opacity="0.3" d="M226.498 187.396L224.222 204.559C224.08 205.627 223.555 206.606 222.745 207.315C221.935 208.025 220.895 208.416 219.818 208.417H205.665C204.588 208.416 203.548 208.025 202.738 207.315C201.928 206.606 201.403 205.627 201.261 204.559L198.985 187.396H226.498Z" fill="white"/>
<path d="M98.7075 154.426H94.8444V179.816H98.7075V154.426Z" fill="#263238"/>
<path opacity="0.5" d="M98.7075 154.426H94.8444V179.816H98.7075V154.426Z" fill="white"/>
<path d="M108.515 198.832L99.466 197.198V179.028C99.4668 178.895 99.441 178.762 99.3902 178.638C99.3393 178.514 99.2644 178.402 99.1698 178.307C99.0752 178.213 98.9628 178.138 98.839 178.087C98.7152 178.036 98.5826 178.01 98.4488 178.011H95.1031C94.969 178.01 94.8361 178.036 94.712 178.087C94.5879 178.138 94.475 178.212 94.38 178.307C94.2849 178.402 94.2094 178.514 94.1579 178.638C94.1064 178.762 94.0799 178.894 94.0799 179.028V197.198L85.0365 198.832C84.4016 198.945 83.8268 199.279 83.4129 199.773C82.999 200.268 82.7724 200.892 82.7727 201.537L96.773 200.273L110.779 201.537C110.778 200.892 110.551 200.269 110.138 199.774C109.724 199.28 109.15 198.947 108.515 198.832Z" fill="#263238"/>
<path d="M85.7128 204.283C85.7128 204.864 85.5403 205.433 85.2173 205.916C84.8942 206.4 84.4351 206.777 83.8979 206.999C83.3606 207.222 82.7695 207.28 82.1992 207.166C81.6289 207.053 81.105 206.773 80.6939 206.362C80.2827 205.951 80.0027 205.427 79.8893 204.857C79.7758 204.286 79.834 203.695 80.0566 203.158C80.2791 202.621 80.6559 202.162 81.1394 201.838C81.6229 201.515 82.1913 201.343 82.7728 201.343C83.5525 201.343 84.3003 201.653 84.8517 202.204C85.403 202.755 85.7128 203.503 85.7128 204.283Z" fill="#613EEA"/>
<path d="M113.719 204.283C113.719 204.864 113.547 205.433 113.224 205.916C112.901 206.4 112.442 206.777 111.904 206.999C111.367 207.222 110.776 207.28 110.206 207.166C109.635 207.053 109.112 206.773 108.7 206.362C108.289 205.951 108.009 205.427 107.896 204.857C107.782 204.286 107.841 203.695 108.063 203.158C108.286 202.621 108.662 202.162 109.146 201.838C109.629 201.515 110.198 201.343 110.779 201.343C111.165 201.343 111.548 201.419 111.904 201.567C112.261 201.715 112.585 201.931 112.858 202.204C113.131 202.477 113.348 202.801 113.495 203.158C113.643 203.515 113.719 203.897 113.719 204.283Z" fill="#613EEA"/>
<path d="M99.0721 204.283C99.0721 205.906 98.4018 207.223 96.7731 207.223C95.1443 207.223 94.4799 205.906 94.4799 204.283C94.4799 202.66 95.1502 201.343 96.7731 201.343C98.3959 201.343 99.0721 202.66 99.0721 204.283Z" fill="#613EEA"/>
<g opacity="0.5">
<path d="M99.5542 197.209V200.526L100.648 200.626V197.409L99.5542 197.209Z" fill="black"/>
<path d="M92.9275 197.403V200.62L94.0212 200.526V197.209L92.9275 197.403Z" fill="black"/>
</g>
<path d="M71.5537 131.3C71.31 131.301 71.0693 131.355 70.8487 131.458C70.628 131.562 70.4328 131.713 70.2769 131.9C70.121 132.087 70.0081 132.307 69.9463 132.542C69.8844 132.778 69.8752 133.025 69.9191 133.264L73.5059 152.592C73.668 153.47 74.1326 154.264 74.819 154.835C75.5053 155.407 76.3701 155.72 77.2632 155.72H133.788C134.121 155.72 134.451 155.654 134.759 155.527C135.067 155.399 135.346 155.212 135.582 154.976C135.817 154.74 136.004 154.46 136.131 154.152C136.258 153.843 136.323 153.513 136.322 153.18C136.322 152.224 135.942 151.307 135.266 150.631C134.59 149.955 133.673 149.575 132.717 149.575H100.466C99.6109 149.576 98.7806 149.29 98.1071 148.763C97.4336 148.237 96.9557 147.5 96.7495 146.671L93.8625 135.017C93.5999 133.956 92.9901 133.014 92.1301 132.341C91.2702 131.668 90.2096 131.301 89.1173 131.3H71.5537Z" fill="#263238"/>
<path d="M79.186 146.671L76.2989 135.017C76.0363 133.956 75.4265 133.014 74.5665 132.341C73.7066 131.668 72.646 131.301 71.5537 131.3C71.31 131.301 71.0693 131.355 70.8487 131.458C70.628 131.562 70.4328 131.713 70.2769 131.9C70.121 132.087 70.0081 132.307 69.9463 132.542C69.8844 132.778 69.8752 133.025 69.9191 133.264L73.5059 152.592C73.668 153.47 74.1326 154.264 74.819 154.835C75.5053 155.407 76.3701 155.72 77.2632 155.72H116.218C116.552 155.721 116.883 155.656 117.191 155.528C117.5 155.401 117.78 155.214 118.016 154.978C118.252 154.742 118.439 154.461 118.567 154.153C118.694 153.844 118.759 153.514 118.758 153.18C118.757 152.224 118.377 151.309 117.701 150.633C117.025 149.957 116.109 149.577 115.154 149.575H82.908C82.0519 149.578 81.2197 149.293 80.5448 148.767C79.87 148.24 79.3914 147.502 79.186 146.671Z" fill="#263238"/>
<path opacity="0.2" d="M79.186 146.671L76.2989 135.017C76.0363 133.956 75.4265 133.014 74.5665 132.341C73.7066 131.668 72.646 131.301 71.5537 131.3C71.31 131.301 71.0693 131.355 70.8487 131.458C70.628 131.562 70.4328 131.713 70.2769 131.9C70.121 132.087 70.0081 132.307 69.9463 132.542C69.8844 132.778 69.8752 133.025 69.9191 133.264L73.5059 152.592C73.668 153.47 74.1326 154.264 74.819 154.835C75.5053 155.407 76.3701 155.72 77.2632 155.72H116.218C116.552 155.721 116.883 155.656 117.191 155.528C117.5 155.401 117.78 155.214 118.016 154.978C118.252 154.742 118.439 154.461 118.567 154.153C118.694 153.844 118.759 153.514 118.758 153.18C118.757 152.224 118.377 151.309 117.701 150.633C117.025 149.957 116.109 149.577 115.154 149.575H82.908C82.0519 149.578 81.2197 149.293 80.5448 148.767C79.87 148.24 79.3914 147.502 79.186 146.671Z" fill="white"/>
<path d="M103.065 75.999C103.065 75.999 109.497 77.9159 106.493 82.6728L103.7 78.6039L103.065 75.999Z" fill="#263238"/>
<path d="M126.238 100.519L129.042 96.4026L131.818 97.2846L132.323 98.4018L128.866 103.347L126.238 100.519Z" fill="#DBB178"/>
<path d="M130.395 101.595C127.584 106.005 123.151 112.437 121.457 112.055C116.483 110.944 109.644 106.234 106.134 101.06C105.604 100.279 105.387 99.3277 105.525 98.3944C105.663 97.4611 106.147 96.6138 106.881 96.0204V95.9851C107.263 95.6727 107.704 95.4387 108.177 95.2968C108.651 95.1548 109.147 95.1076 109.639 95.1579C110.13 95.2081 110.607 95.3548 111.042 95.5896C111.477 95.8244 111.861 96.1426 112.173 96.5261C112.237 96.6025 112.296 96.6849 112.355 96.7672C115.465 101.23 119.411 105.464 120.058 105.822C120.816 106.257 122.786 104.394 126.955 99.1251L130.395 101.595Z" fill="#613EEA"/>
<path opacity="0.6" d="M130.395 101.595C127.584 106.005 123.151 112.437 121.457 112.055C116.483 110.944 109.644 106.234 106.134 101.06C105.604 100.279 105.387 99.3277 105.525 98.3944C105.663 97.4611 106.147 96.6138 106.881 96.0204V95.9851C107.263 95.6727 107.704 95.4387 108.177 95.2968C108.651 95.1548 109.147 95.1076 109.639 95.1579C110.13 95.2081 110.607 95.3548 111.042 95.5896C111.477 95.8244 111.861 96.1426 112.173 96.5261C112.237 96.6025 112.296 96.6849 112.355 96.7672C115.465 101.23 119.411 105.464 120.058 105.822C120.816 106.257 122.786 104.394 126.955 99.1251L130.395 101.595Z" fill="white"/>
<path d="M130.46 98.0373L136.016 99.1251L133.429 94.4681C133.429 94.4681 130.066 94.4681 129.042 96.4026L130.46 98.0373Z" fill="#DBB178"/>
<path opacity="0.2" d="M114.366 108.839C110.338 106.087 109.803 99.6307 109.803 99.6307L107.522 98.59L106.428 101.495C108.613 104.398 111.302 106.885 114.366 108.839Z" fill="black"/>
<path d="M139.944 97.1317L137.568 93.345L133.435 94.4681L136.016 99.125L139.944 97.1317Z" fill="#DBB178"/>
<path d="M109.086 122.974L89.376 124.268C89.376 124.268 89.2349 118.976 88.5469 114.101C88.3335 112.405 87.9954 110.727 87.5356 109.08C87.024 107.398 86.3596 105.511 85.5952 103.317C85.4952 103.047 85.3952 102.777 85.2835 102.494C85.0248 101.812 84.7602 101.101 84.4603 100.36V100.325C84.194 99.6006 84.2229 98.8009 84.5408 98.098C84.8587 97.3951 85.4401 96.8453 86.1596 96.5672C86.2951 96.5145 86.4348 96.4732 86.5771 96.4438C87.8296 96.1792 89.0938 95.9381 90.3756 95.7382L91.481 95.5735C94.4323 95.1338 97.4068 94.8668 100.389 94.7738C101.936 94.7738 103.588 94.8209 104.999 94.8856L106.175 94.9444C107.669 95.0326 108.704 95.1266 108.704 95.1266C108.704 95.1266 109.35 95.256 109.733 98.7193C109.741 98.9163 109.761 99.1126 109.791 99.3073C109.838 100.025 109.88 100.93 109.897 102.018C109.956 106.463 109.691 113.925 109.086 122.974Z" fill="#613EEA"/>
<path opacity="0.6" d="M109.086 122.974L89.376 124.268C89.376 124.268 89.2349 118.976 88.5469 114.101C88.3335 112.405 87.9954 110.727 87.5356 109.08C87.024 107.398 86.3596 105.511 85.5952 103.317C85.4952 103.047 85.3952 102.777 85.2835 102.494C85.0248 101.812 84.7602 101.101 84.4603 100.36V100.325C84.194 99.6006 84.2229 98.8009 84.5408 98.098C84.8587 97.3951 85.4401 96.8453 86.1596 96.5672C86.2951 96.5145 86.4348 96.4732 86.5771 96.4438C87.8296 96.1792 89.0938 95.9381 90.3756 95.7382L91.481 95.5735C94.4323 95.1338 97.4068 94.8668 100.389 94.7738C101.936 94.7738 103.588 94.8209 104.999 94.8856L106.175 94.9444C107.669 95.0326 108.704 95.1266 108.704 95.1266C108.704 95.1266 109.35 95.256 109.733 98.7193C109.741 98.9163 109.761 99.1126 109.791 99.3073C109.838 100.025 109.88 100.93 109.897 102.018C109.956 106.463 109.691 113.925 109.086 122.974Z" fill="white"/>
<path d="M92.1689 95.4795L97.0846 102.03L100.613 99.0075L105.199 101.218L102.718 94.8033C101.953 94.8033 101.165 94.8033 100.407 94.8033C97.6506 94.8778 94.9005 95.1035 92.1689 95.4795Z" fill="#613EEA"/>
<path opacity="0.9" d="M92.1689 95.4795L97.0846 102.03L100.613 99.0075L105.199 101.218L102.718 94.8033C101.953 94.8033 101.165 94.8033 100.407 94.8033C97.6506 94.8778 94.9005 95.1035 92.1689 95.4795Z" fill="white"/>
<path d="M135.675 202.019H131.483L133.394 170.373H141.238L135.675 202.019Z" fill="#DBB178"/>
<path d="M131.018 201.619C130.971 201.219 135.975 200.843 135.975 200.843C135.975 200.843 139.456 203.524 142.514 203.783C145.571 204.042 144.166 206.07 140.855 206.529L132.665 207.705C130.313 208.052 131.5 205.8 131.018 201.619Z" fill="#263238"/>
<path d="M138.486 201.79C137.848 201.752 137.217 201.632 136.61 201.431C136.586 201.425 136.563 201.413 136.545 201.396C136.533 201.356 136.533 201.313 136.545 201.272C136.545 201.219 136.822 199.979 137.463 199.614C137.559 199.556 137.666 199.519 137.778 199.505C137.889 199.492 138.002 199.503 138.109 199.538C138.421 199.632 138.503 199.808 138.509 199.932C138.509 200.185 138.268 200.467 137.921 200.726C138.256 200.631 138.61 200.631 138.944 200.726C139.017 200.753 139.084 200.795 139.14 200.848C139.197 200.902 139.242 200.966 139.274 201.037C139.323 201.13 139.344 201.235 139.334 201.339C139.325 201.443 139.286 201.543 139.221 201.625C139.007 201.774 138.743 201.834 138.486 201.79ZM137.139 201.261C137.892 201.455 138.774 201.584 138.968 201.372C139.015 201.331 139.003 201.243 138.968 201.137C138.954 201.103 138.932 201.072 138.905 201.046C138.877 201.021 138.845 201.002 138.809 200.99C138.238 200.922 137.66 201.016 137.139 201.261ZM137.821 199.791C137.734 199.79 137.648 199.815 137.574 199.861C137.239 200.153 137.003 200.541 136.898 200.973C137.545 200.602 138.192 200.138 138.192 199.938C138.192 199.902 138.121 199.855 138.009 199.814C137.948 199.797 137.885 199.789 137.821 199.791Z" fill="#613EEA"/>
<path opacity="0.2" d="M133.058 175.906L140.226 176.124L141.238 170.373H133.394L133.058 175.906Z" fill="black"/>
<path d="M115.554 202.554L111.538 202.019L117.894 166.98L125.82 169.244L115.554 202.554Z" fill="#DBB178"/>
<path d="M111.014 201.461C111.014 201.049 116.024 201.461 116.024 201.461C116.024 201.461 119.064 204.63 122.045 205.341C125.026 206.053 123.339 207.858 119.999 207.811L111.72 207.711C109.327 207.688 110.856 205.682 111.014 201.461Z" fill="#263238"/>
<path d="M118.658 202.766C117.926 202.676 117.215 202.457 116.559 202.119L116.518 202.084C116.515 202.077 116.514 202.07 116.514 202.063C116.514 202.056 116.515 202.049 116.518 202.043C116.509 202.024 116.505 202.004 116.505 201.984C116.505 201.964 116.509 201.943 116.518 201.925C116.518 201.878 116.977 200.702 117.694 200.426C117.796 200.379 117.906 200.355 118.017 200.355C118.129 200.355 118.239 200.379 118.341 200.426C118.635 200.573 118.688 200.749 118.676 200.873C118.676 201.125 118.359 201.366 117.988 201.566C118.333 201.524 118.684 201.579 118.999 201.725C119.067 201.761 119.126 201.811 119.173 201.872C119.22 201.933 119.253 202.003 119.27 202.078C119.308 202.174 119.315 202.279 119.291 202.379C119.266 202.479 119.212 202.569 119.135 202.637C118.997 202.736 118.828 202.782 118.658 202.766ZM117.088 202.013C117.806 202.319 118.658 202.601 118.852 202.401C118.899 202.366 118.911 202.284 118.852 202.166C118.844 202.131 118.827 202.099 118.805 202.07C118.783 202.042 118.755 202.018 118.723 202.002C118.187 201.862 117.623 201.866 117.088 202.013ZM117.912 200.661C117.847 200.663 117.783 200.677 117.723 200.702C117.353 200.937 117.064 201.279 116.894 201.684C117.612 201.419 118.288 201.037 118.3 200.849C118.3 200.814 118.241 200.755 118.141 200.708C118.078 200.677 118.011 200.657 117.941 200.649L117.912 200.661Z" fill="#613EEA"/>
<path opacity="0.2" d="M125.82 169.244L117.894 166.98L116.642 173.889L123.98 175.212L125.82 169.244Z" fill="black"/>
<path d="M131.318 173.09L141.402 173.619C143.984 161.729 146.559 148.623 146.047 145.748C145.077 140.238 137.592 134.628 108.533 129.872L95.009 150.193C95.009 150.193 114.789 149.27 132.817 149.27C132.812 149.281 131.806 160.595 131.318 173.09Z" fill="#613EEA"/>
<path opacity="0.1" d="M131.318 173.09L141.402 173.619C143.984 161.729 146.559 148.623 146.047 145.748C145.077 140.238 137.592 134.628 108.533 129.872L95.009 150.193C95.009 150.193 114.789 149.27 132.817 149.27C132.812 149.281 131.806 160.595 131.318 173.09Z" fill="black"/>
<path d="M130.642 171.508L130.942 174.148L141.99 174.524L142.531 172.096L130.642 171.508Z" fill="#613EEA"/>
<path d="M102.094 94.7915H100.389C97.9431 94.8679 95.5029 95.0679 93.0745 95.3795C94.1329 96.6437 97.4316 98.6135 99.6424 98.6135C102.729 98.59 102.041 96.2968 102.094 94.7915Z" fill="#DBB178"/>
<path d="M115.642 171.043L125.95 172.719C130.136 161 134.323 148.529 134.252 145.718C134.111 140.12 132.882 137.216 112.637 132.7C112.637 132.7 111.561 131.13 109.109 122.998L89.376 124.291C89.376 124.291 80.3737 140.873 87.3415 147.953C88.8821 149.528 91.9103 150.234 94.9855 150.205C94.9855 150.205 102.1 150.24 119.682 149.417C119.687 149.417 117.6 159.448 115.642 171.043Z" fill="#613EEA"/>
<path d="M115.23 169.244L127.173 171.261L126.038 173.772L115.177 171.99L115.23 169.244Z" fill="#613EEA"/>
<path opacity="0.1" d="M130.642 171.508L130.942 174.148L141.99 174.524L142.531 172.096L130.642 171.508Z" fill="black"/>
<path d="M100.601 93.0922C100.374 94.544 100.434 96.0263 100.777 97.4551L95.3737 96.6613C95.2572 96.6441 95.1464 96.6003 95.0497 96.5333C94.953 96.4662 94.8731 96.3778 94.8161 96.2748C94.7592 96.1718 94.7269 96.057 94.7216 95.9395C94.7163 95.8219 94.7382 95.7047 94.7857 95.597C95.5265 93.9154 95.8205 90.5285 96.0028 88.9703C96.1028 88.0295 96.1439 87.171 96.1498 86.5712C96.1557 85.9715 96.1498 85.748 96.1498 85.748L98.5665 86.8535L102.512 88.6586C101.602 90.0035 100.954 91.5075 100.601 93.0922Z" fill="#DBB178"/>
<path opacity="0.2" d="M102.524 88.6587C101.605 90.0022 100.947 91.506 100.583 93.0922C98.6115 92.3103 96.9833 90.8509 95.991 88.9762C96.0968 88.0354 96.138 87.1769 96.1438 86.5771C97.0023 86.6653 97.802 86.7535 98.5664 86.8594L102.524 88.6587Z" fill="black"/>
<path d="M102.812 84.8014C102.653 86.6065 103.576 88.0648 104.87 88.0648C106.163 88.0648 107.345 86.6065 107.504 84.8014C107.663 82.9962 106.74 81.5321 105.446 81.5321C104.152 81.5321 102.971 82.9962 102.812 84.8014Z" fill="#613EEA"/>
<path opacity="0.5" d="M102.582 84.8014C102.424 86.6065 103.347 88.0648 104.64 88.0648C105.934 88.0648 107.11 86.6065 107.269 84.8014C107.428 82.9962 106.504 81.5321 105.211 81.5321C103.917 81.5321 102.735 82.9962 102.582 84.8014Z" fill="black"/>
<path d="M93.5331 81.6262C94.4974 86.0479 94.8326 88.6822 97.4433 90.699C98.285 91.3675 99.2937 91.7924 100.36 91.9277C101.426 92.0631 102.509 91.9035 103.491 91.4665C104.473 91.0295 105.316 90.3317 105.93 89.4489C106.543 88.5662 106.902 87.5322 106.969 86.4595C107.316 82.3435 105.681 75.7991 101.024 74.5466C100.023 74.2478 98.9613 74.2178 97.945 74.4595C96.9288 74.7012 95.994 75.2062 95.2348 75.9237C94.4756 76.6412 93.9186 77.5459 93.6199 78.5469C93.3212 79.5479 93.2913 80.6099 93.5331 81.6262Z" fill="#DBB178"/>
<path d="M92.51 86.242C93.2261 87.1063 94.2191 87.6963 95.3206 87.9119C96.7142 88.1471 97.0317 86.8594 96.3202 85.6069C95.6852 84.4838 94.1858 83.008 92.9392 83.3372C91.6927 83.6665 91.6104 85.1542 92.51 86.242Z" fill="#DBB178"/>
<path d="M100.513 82.0613C100.572 82.4259 100.807 82.6963 101.048 82.6493C101.289 82.6023 101.43 82.3024 101.377 81.9437C101.324 81.585 101.083 81.3087 100.842 81.3557C100.601 81.4027 100.46 81.6967 100.513 82.0613Z" fill="#263238"/>
<path d="M104.664 81.5732C104.717 81.9378 104.958 82.2083 105.193 82.1612C105.428 82.1142 105.581 81.8143 105.528 81.4498C105.475 81.0852 105.228 80.8206 104.993 80.8618C104.758 80.9029 104.576 81.2087 104.664 81.5732Z" fill="#263238"/>
<path d="M103.353 81.9084C103.961 82.9678 104.707 83.9425 105.57 84.8073C105.345 85.0143 105.077 85.1691 104.785 85.2606C104.493 85.3521 104.185 85.378 103.882 85.3365L103.353 81.9084Z" fill="#C0854B"/>
<path d="M99.0368 80.8912C99.002 80.899 98.9658 80.899 98.931 80.8912C98.9058 80.8777 98.8837 80.8593 98.8659 80.837C98.848 80.8148 98.8349 80.7892 98.8272 80.7617C98.8195 80.7342 98.8174 80.7055 98.8211 80.6772C98.8248 80.649 98.8342 80.6217 98.8486 80.5972C99.0068 80.2971 99.2366 80.0408 99.5177 79.851C99.7987 79.6613 100.122 79.5439 100.46 79.5094C100.488 79.507 100.516 79.5103 100.543 79.5192C100.569 79.5281 100.594 79.5423 100.615 79.561C100.636 79.5798 100.653 79.6026 100.664 79.6281C100.676 79.6536 100.682 79.6812 100.683 79.7093C100.686 79.7376 100.682 79.766 100.673 79.793C100.665 79.82 100.65 79.8449 100.632 79.8663C100.613 79.8877 100.59 79.9051 100.565 79.9176C100.539 79.93 100.512 79.9371 100.483 79.9386C100.218 79.9685 99.9643 80.0636 99.7447 80.2155C99.5251 80.3673 99.3466 80.5712 99.225 80.8088C99.2028 80.837 99.174 80.8592 99.1412 80.8736C99.1084 80.888 99.0725 80.894 99.0368 80.8912Z" fill="#263238"/>
<path d="M106.187 79.968C106.152 79.9692 106.117 79.9611 106.086 79.9446C106.055 79.9281 106.029 79.9037 106.011 79.8739C105.861 79.6415 105.661 79.4464 105.424 79.3037C105.188 79.161 104.922 79.0744 104.646 79.0507C104.596 79.0423 104.549 79.0161 104.516 78.9768C104.483 78.9375 104.464 78.8876 104.464 78.8361C104.464 78.7846 104.483 78.7347 104.516 78.6954C104.549 78.6561 104.596 78.6299 104.646 78.6215C104.992 78.6444 105.327 78.7477 105.625 78.9234C105.923 79.099 106.176 79.342 106.363 79.6328C106.396 79.6798 106.408 79.7375 106.398 79.7936C106.388 79.8497 106.357 79.8996 106.31 79.9327C106.273 79.9552 106.23 79.9673 106.187 79.968Z" fill="#263238"/>
<path d="M94.3975 87.4415C94.3975 87.4415 97.2082 84.5662 95.8322 77.5102C95.8322 77.5102 98.0961 79.4329 103.353 78.01C103.353 78.01 100.242 78.3157 98.8193 76.834C98.8193 76.834 101.718 78.1805 106.404 76.834C106.404 76.834 105.57 72.0888 100.524 71.8477C100.524 71.8477 102.153 70.4777 103.723 70.7423C103.723 70.7423 102.118 69.3605 98.0431 72.0477L96.432 72.7062C96.432 72.7062 91.8926 71.0716 89.376 74.9171C87.3709 77.9571 88.3764 87.5297 94.3975 87.4415Z" fill="#263238"/>
<path d="M104.705 86.142C104.705 86.142 103.282 85.7833 99.272 85.6951C99.7189 86.9123 100.571 87.9178 102.629 87.9413C102.886 87.9698 103.145 87.945 103.392 87.8683C103.638 87.7916 103.866 87.6648 104.061 87.4958C104.256 87.3268 104.414 87.1193 104.525 86.8863C104.636 86.6533 104.697 86.3999 104.705 86.142Z" fill="#263238"/>
<path d="M101.724 86.9711C102.514 86.9422 103.294 87.1623 103.952 87.6003C103.568 87.8464 103.115 87.9638 102.659 87.9354C101.872 87.9684 101.095 87.7478 100.442 87.3063C100.824 87.0625 101.272 86.9452 101.724 86.9711Z" fill="#A02724"/>
<path d="M104.523 86.1067C104.481 86.2545 104.399 86.3877 104.286 86.4915C104.173 86.5954 104.033 86.6657 103.882 86.6947C102.698 86.6674 101.517 86.5415 100.354 86.3184C100.168 86.302 99.989 86.2396 99.833 86.137C99.677 86.0344 99.5489 85.8947 99.4602 85.7304C101.155 85.7249 102.848 85.8507 104.523 86.1067Z" fill="white"/>
<path d="M92.2161 83.1491V78.4039C92.2157 76.9995 92.6688 75.6325 93.5079 74.5063C94.347 73.3801 95.5272 72.5549 96.873 72.1535L98.4606 71.8712C97.0807 72.2829 95.8705 73.1291 95.0102 74.2839C94.1499 75.4387 93.6855 76.8404 93.6861 78.2805V83.1491H92.2161Z" fill="#613EEA"/>
<path d="M95.9028 85.4482C96.0616 87.2533 95.1384 88.7116 93.8448 88.7116C92.5512 88.7116 91.3694 87.2533 91.2165 85.4482C91.0636 83.643 91.9809 82.1789 93.2745 82.1789C94.5681 82.1789 95.7441 83.643 95.9028 85.4482Z" fill="#613EEA"/>
<path opacity="0.5" d="M95.9028 85.4482C96.0616 87.2533 95.1384 88.7116 93.8448 88.7116C92.5512 88.7116 91.3694 87.2533 91.2165 85.4482C91.0636 83.643 91.9809 82.1789 93.2745 82.1789C94.5681 82.1789 95.7441 83.643 95.9028 85.4482Z" fill="black"/>
<path d="M95.1208 85.4482C95.2737 87.2533 94.3564 88.7116 93.0569 88.7116C91.7574 88.7116 90.5873 87.2533 90.4285 85.4482C90.2698 83.643 91.1929 82.1789 92.4865 82.1789C93.7801 82.1789 94.962 83.643 95.1208 85.4482Z" fill="#613EEA"/>
<path opacity="0.3" d="M93.492 85.9245L93.3862 84.9719H93.5684C93.3332 84.037 92.6747 83.3372 91.9514 83.3372C91.2282 83.3372 90.699 84.037 90.6226 84.9719H90.746L90.8519 85.9245H90.7108C90.946 86.8594 91.6045 87.5532 92.3219 87.5532C93.0392 87.5532 93.5802 86.8594 93.6508 85.9245H93.492Z" fill="white"/>
<path d="M85.0425 85.848L87.612 80.7912L89.6877 85.6951C89.6877 85.6951 87.6062 88.3411 85.46 87.9589L85.0425 85.848Z" fill="#DBB178"/>
<path d="M91.6046 78.9272L93.1157 83.1315L89.6818 85.6951L87.6121 80.7912L91.6046 78.9272Z" fill="#DBB178"/>
<path d="M85.7186 91.2929L88.1882 87.1357L87.9295 85.4423L85.7539 84.672L82.6552 89.4936L85.7186 91.2929Z" fill="#DBB178"/>
<path d="M87.5002 88.7057L82.9903 98.6311C82.9903 98.6311 85.1835 96.6613 86.3948 96.3791C88.3234 95.9263 94.1447 97.6845 88.247 104.088C88.247 104.088 76.5693 111.385 74.1879 108.557C72.3357 106.357 80.2032 92.9922 83.8076 87.1357L87.5002 88.7057Z" fill="#613EEA"/>
<path opacity="0.6" d="M87.5002 88.7057L82.9903 98.6311C82.9903 98.6311 85.1835 96.6613 86.3948 96.3791C88.3234 95.9263 94.1447 97.6845 88.247 104.088C88.247 104.088 76.5693 111.385 74.1879 108.557C72.3357 106.357 80.2032 92.9922 83.8076 87.1357L87.5002 88.7057Z" fill="white"/>
<path opacity="0.2" d="M82.9904 98.6311L81.7321 102.506L85.4247 96.826C84.5635 97.3575 83.7491 97.9614 82.9904 98.6311Z" fill="black"/>
<path d="M99.8835 89.8288C99.3898 89.8413 98.8959 89.8098 98.4077 89.7347C97.1493 89.2822 95.9317 88.7235 94.7679 88.0648L95.0031 87.6414C96.1332 88.2754 97.3131 88.8162 98.5311 89.2584C99.7834 89.3621 101.042 89.3621 102.294 89.2584L102.33 89.7465C102.236 89.7465 101.001 89.8288 99.8835 89.8288Z" fill="#613EEA"/>
<path d="M100.413 89.9287L102.765 89.7523C102.765 89.7523 102.7 89.0232 101.589 89.0526C100.477 89.082 100.413 89.9287 100.413 89.9287Z" fill="#613EEA"/>
<g opacity="0.5">
<path d="M99.8835 89.8288C99.3898 89.8413 98.8959 89.8098 98.4077 89.7347C97.1493 89.2822 95.9317 88.7235 94.7679 88.0648L95.0031 87.6414C96.1332 88.2754 97.3131 88.8162 98.5311 89.2584C99.7834 89.3621 101.042 89.3621 102.294 89.2584L102.33 89.7465C102.236 89.7465 101.001 89.8288 99.8835 89.8288Z" fill="black"/>
<path d="M100.413 89.9287L102.765 89.7523C102.765 89.7523 102.7 89.0232 101.589 89.0526C100.477 89.082 100.413 89.9287 100.413 89.9287Z" fill="black"/>
</g>
<path d="M194.075 207.882C193.952 207.886 193.828 207.867 193.712 207.824C193.596 207.781 193.49 207.715 193.399 207.631C193.309 207.547 193.236 207.446 193.184 207.333C193.133 207.221 193.104 207.1 193.099 206.976L187.219 138.897C187.209 138.31 186.979 137.748 186.576 137.322C186.172 136.895 185.623 136.635 185.038 136.592H157.261C156.675 136.635 156.126 136.895 155.723 137.322C155.319 137.748 155.089 138.31 155.079 138.897L149.199 206.976C149.198 207.102 149.172 207.227 149.123 207.343C149.073 207.458 149 207.563 148.909 207.65C148.818 207.737 148.71 207.805 148.593 207.85C148.475 207.895 148.349 207.916 148.223 207.911C147.969 207.86 147.744 207.712 147.595 207.5C147.447 207.288 147.385 207.027 147.423 206.77L153.303 138.686C153.509 136.304 155.208 134.511 157.261 134.511H185.038C187.09 134.511 188.789 136.304 188.995 138.686L194.875 206.77C194.913 207.027 194.852 207.288 194.703 207.5C194.554 207.712 194.329 207.86 194.075 207.911V207.882Z" fill="#613EEA"/>
<g opacity="0.4">
<path d="M194.075 207.882C193.952 207.886 193.828 207.867 193.712 207.824C193.596 207.781 193.49 207.715 193.399 207.631C193.309 207.547 193.236 207.446 193.184 207.333C193.133 207.221 193.104 207.1 193.099 206.976L187.219 138.897C187.209 138.31 186.979 137.748 186.576 137.322C186.172 136.895 185.623 136.635 185.038 136.592H157.261C156.675 136.635 156.126 136.895 155.723 137.322C155.319 137.748 155.089 138.31 155.079 138.897L149.199 206.976C149.198 207.102 149.172 207.227 149.123 207.343C149.073 207.458 149 207.563 148.909 207.65C148.818 207.737 148.71 207.805 148.593 207.85C148.475 207.895 148.349 207.916 148.223 207.911C147.969 207.86 147.744 207.712 147.595 207.5C147.447 207.288 147.385 207.027 147.423 206.77L153.303 138.686C153.509 136.304 155.208 134.511 157.261 134.511H185.038C187.09 134.511 188.789 136.304 188.995 138.686L194.875 206.77C194.913 207.027 194.852 207.288 194.703 207.5C194.554 207.712 194.329 207.86 194.075 207.911V207.882Z" fill="black"/>
</g>
<path d="M193.687 131.565H118.182C117.523 131.565 116.989 132.099 116.989 132.759V136.628C116.989 137.287 117.523 137.821 118.182 137.821H193.687C194.346 137.821 194.881 137.287 194.881 136.628V132.759C194.881 132.099 194.346 131.565 193.687 131.565Z" fill="#263238"/>
<path opacity="0.2" d="M160.7 131.565H193.687C193.999 131.565 194.298 131.689 194.519 131.909C194.739 132.13 194.863 132.429 194.863 132.741V136.61C194.863 136.922 194.739 137.221 194.519 137.442C194.298 137.662 193.999 137.786 193.687 137.786H160.7V131.565Z" fill="white"/>
<path d="M163.652 207.882C163.526 207.887 163.399 207.867 163.281 207.823C163.162 207.778 163.054 207.71 162.962 207.623C162.871 207.536 162.797 207.431 162.747 207.315C162.697 207.198 162.671 207.073 162.67 206.947L156.79 138.868C156.78 138.281 156.551 137.719 156.147 137.292C155.743 136.866 155.194 136.605 154.609 136.563H126.832C126.247 136.607 125.7 136.868 125.297 137.294C124.895 137.72 124.666 138.282 124.656 138.868L118.776 206.976C118.775 207.102 118.749 207.227 118.699 207.343C118.65 207.458 118.577 207.563 118.486 207.65C118.395 207.737 118.287 207.805 118.169 207.85C118.052 207.895 117.926 207.916 117.8 207.911C117.542 207.857 117.315 207.704 117.168 207.486C117.021 207.267 116.965 207 117.012 206.741L122.892 138.656C123.098 136.275 124.803 134.481 126.849 134.481H154.626C156.679 134.481 158.378 136.275 158.584 138.656L164.464 206.741C164.502 206.996 164.441 207.257 164.294 207.469C164.146 207.681 163.923 207.829 163.67 207.882H163.652Z" fill="#613EEA"/>
<g opacity="0.4">
<path d="M163.652 207.882C163.526 207.887 163.399 207.867 163.281 207.823C163.162 207.778 163.054 207.71 162.962 207.623C162.871 207.536 162.797 207.431 162.747 207.315C162.697 207.198 162.671 207.073 162.67 206.947L156.79 138.868C156.78 138.281 156.551 137.719 156.147 137.292C155.743 136.866 155.194 136.605 154.609 136.563H126.832C126.247 136.607 125.7 136.868 125.297 137.294C124.895 137.72 124.666 138.282 124.656 138.868L118.776 206.976C118.775 207.102 118.749 207.227 118.699 207.343C118.65 207.458 118.577 207.563 118.486 207.65C118.395 207.737 118.287 207.805 118.169 207.85C118.052 207.895 117.926 207.916 117.8 207.911C117.542 207.857 117.315 207.704 117.168 207.486C117.021 207.267 116.965 207 117.012 206.741L122.892 138.656C123.098 136.275 124.803 134.481 126.849 134.481H154.626C156.679 134.481 158.378 136.275 158.584 138.656L164.464 206.741C164.502 206.996 164.441 207.257 164.294 207.469C164.146 207.681 163.923 207.829 163.67 207.882H163.652Z" fill="black"/>
</g>
<path d="M141.902 128.484H163.693V130.536C163.693 130.809 163.585 131.071 163.392 131.264C163.199 131.457 162.937 131.565 162.664 131.565H142.931C142.658 131.565 142.396 131.457 142.203 131.264C142.011 131.071 141.902 130.809 141.902 130.536V128.496V128.484Z" fill="#263238"/>
<path opacity="0.2" d="M141.902 128.484H163.693V130.536C163.693 130.809 163.585 131.071 163.392 131.264C163.199 131.457 162.937 131.565 162.664 131.565H142.931C142.658 131.565 142.396 131.457 142.203 131.264C142.011 131.071 141.902 130.809 141.902 130.536V128.496V128.484Z" fill="white"/>
<path d="M126.491 128.484H148.282V130.536C148.282 130.809 148.173 131.071 147.98 131.264C147.788 131.457 147.526 131.565 147.253 131.565H127.52C127.247 131.565 126.985 131.457 126.792 131.264C126.599 131.071 126.491 130.809 126.491 130.536V128.496V128.484Z" fill="#263238"/>
<path opacity="0.6" d="M126.491 128.484H148.282V130.536C148.282 130.809 148.173 131.071 147.98 131.264C147.788 131.457 147.526 131.565 147.253 131.565H127.52C127.247 131.565 126.985 131.457 126.792 131.264C126.599 131.071 126.491 130.809 126.491 130.536V128.496V128.484Z" fill="white"/>
<path d="M145.759 129.654H143.737V130.383H145.759V129.654Z" fill="#263238"/>
<path d="M142.519 129.654H140.497V130.383H142.519V129.654Z" fill="#263238"/>
<path d="M165.228 131.565H166.269C166.554 131.559 166.827 131.453 167.042 131.266C167.257 131.079 167.399 130.823 167.445 130.542L170.973 108.851C171.001 108.678 170.991 108.502 170.945 108.334C170.899 108.166 170.818 108.009 170.707 107.875C170.595 107.741 170.456 107.632 170.299 107.556C170.143 107.48 169.971 107.438 169.797 107.433L152.88 107.404L148.305 131.512H149.346L165.228 131.565Z" fill="#263238"/>
<path opacity="0.6" d="M165.228 131.565H166.269C166.554 131.559 166.827 131.453 167.042 131.266C167.257 131.079 167.399 130.823 167.445 130.542L170.973 108.851C171.001 108.678 170.991 108.502 170.945 108.334C170.899 108.166 170.818 108.009 170.707 107.875C170.595 107.741 170.456 107.632 170.299 107.556C170.143 107.48 169.971 107.438 169.797 107.433L152.88 107.404L148.305 131.512H149.346L165.228 131.565Z" fill="white"/>
<path opacity="0.2" d="M148.57 129.995L148.276 131.536H149.317L165.193 131.565H166.234C166.518 131.559 166.792 131.453 167.007 131.266C167.222 131.079 167.364 130.823 167.41 130.542L167.492 130.03L148.57 129.995Z" fill="black"/>
<path d="M148.3 131.553H149.352C149.637 131.547 149.91 131.442 150.125 131.255C150.34 131.068 150.483 130.811 150.528 130.53L154.056 108.827C154.084 108.655 154.074 108.479 154.028 108.311C153.983 108.143 153.901 107.987 153.79 107.854C153.678 107.72 153.539 107.611 153.382 107.536C153.225 107.46 153.054 107.419 152.88 107.416L148.3 131.553Z" fill="#263238"/>
<path opacity="0.3" d="M148.3 131.553H149.352C149.637 131.547 149.91 131.442 150.125 131.255C150.34 131.068 150.483 130.811 150.528 130.53L154.056 108.827C154.084 108.655 154.074 108.479 154.028 108.311C153.983 108.143 153.901 107.987 153.79 107.854C153.678 107.72 153.539 107.611 153.382 107.536C153.225 107.46 153.054 107.419 152.88 107.416L148.3 131.553Z" fill="white"/>
</svg>
