<svg width="30" height="30" viewBox="0 0 30 30" fill="none" xmlns="http://www.w3.org/2000/svg">
<path d="M18.9887 8.48047L18.5763 9.83789H11L11.4068 8.48047H18.9887ZM15.0508 16L11.1864 12.0254L11.1921 10.8047H13.1017C13.5273 10.8047 13.8832 10.7363 14.1695 10.5996C14.4557 10.4629 14.6704 10.2773 14.8136 10.043C14.9567 9.80859 15.0301 9.54167 15.0339 9.24219C15.0301 8.79297 14.8776 8.42676 14.5763 8.14355C14.2787 7.8571 13.7872 7.71387 13.1017 7.71387H11L11.4633 6H13.1017C14.0621 6 14.8625 6.12533 15.5028 6.37598C16.1469 6.62337 16.629 6.97656 16.9492 7.43555C17.2731 7.89453 17.4369 8.44141 17.4407 9.07617C17.4369 9.63932 17.3277 10.1309 17.113 10.5508C16.9021 10.9707 16.5687 11.3206 16.113 11.6006C15.661 11.8805 15.0716 12.0889 14.3446 12.2256L14.2542 12.2549L17.7119 15.9121V16H15.0508ZM19 6L18.5763 7.37695H12.339L12.7627 6H19Z" fill="#613EEA"/>
<g clip-path="url(#clip0_828_2466)">
<path d="M4.3069 0.082026C4.09011 0.175776 3.89675 0.386714 3.81472 0.60351C3.72683 0.826167 3.72683 26.4785 3.80886 26.7773C3.84987 26.9355 4.21901 27.334 5.34401 28.459C7.34792 30.4512 7.16042 30.4277 8.76003 28.8281L9.80886 27.7734L10.8987 28.8516C12.4514 30.3926 12.3928 30.3926 13.9632 28.8398L15.0003 27.8086L16.0432 28.8398C17.6077 30.3926 17.5491 30.3926 19.1018 28.8516L20.1917 27.7734L21.2405 28.8281C22.8401 30.4277 22.6526 30.4512 24.6565 28.459C25.8225 27.2988 26.1507 26.9355 26.1917 26.7715C26.2327 26.6309 26.2444 21.9082 26.2385 13.5762L26.221 0.591792L26.0979 0.433589C26.0335 0.345698 25.9046 0.216792 25.8167 0.152339L25.6585 0.0292916L15.0706 0.0175729C6.33425 0.00585413 4.45339 0.0175729 4.3069 0.082026ZM24.4925 13.9629V26.1621L23.6253 27.0293L22.7639 27.8906L21.7385 26.8594C21.176 26.2969 20.6428 25.793 20.555 25.7461C20.344 25.6348 20.0217 25.6406 19.7874 25.7578C19.6819 25.8105 19.1428 26.3027 18.5862 26.8535L17.5784 27.8555L16.5061 26.7949C15.6096 25.8984 15.4046 25.7285 15.2229 25.6934C14.7249 25.5996 14.6428 25.6523 13.4944 26.7949L12.4221 27.8555L11.4143 26.8535C10.8577 26.3027 10.3186 25.8105 10.2132 25.7578C9.97878 25.6406 9.65651 25.6348 9.44558 25.7461C9.35769 25.793 8.82448 26.2969 8.26198 26.8594L7.23659 27.8906L6.37526 27.0293L5.50808 26.1621V13.9629V1.75781H15.0003H24.4925V13.9629Z" fill="#38004D"/>
<path d="M10.1074 20.7363C9.66211 20.8477 9.46289 21.1113 9.46289 21.6035C9.46289 21.9492 9.47461 21.9844 9.68555 22.1895L9.90234 22.4121H14.9941H20.0859L20.2441 22.2656C20.4902 22.0312 20.584 21.8086 20.5547 21.5039C20.5254 21.1992 20.3906 20.9824 20.127 20.8184C19.9629 20.7188 19.6934 20.7129 15.1172 20.7012C12.457 20.6953 10.207 20.7129 10.1074 20.7363Z" fill="#38004D"/>
</g>
<defs>
<clipPath id="clip0_828_2466">
<rect width="30" height="30" fill="white"/>
</clipPath>
</defs>
</svg>
