<?xml version="1.0" encoding="UTF-8"?>
<svg version="1.1" xmlns="http://www.w3.org/2000/svg" width="50" height="50">
<path d="M0 0 C1.65 0 3.3 0 5 0 C5 8.91 5 17.82 5 27 C18.2 27 31.4 27 45 27 C45 18.09 45 9.18 45 0 C46.65 0 48.3 0 50 0 C50 0.66 50 1.32 50 2 C49.01 2 48.02 2 47 2 C47 10.91 47 19.82 47 29 C32.48 29 17.96 29 3 29 C3 20.09 3 11.18 3 2 C2.01 2 1.02 2 0 2 C0 1.34 0 0.68 0 0 Z " fill="#219E26" transform="translate(0,19)"/>
<path d="M0 0 C3.12578143 1.6720747 5.39281175 3.7856235 7 7 C7.51512617 11.09157355 7.94367269 15.23589546 5.953125 18.95703125 C3.55501226 21.85592636 1.60351712 23.79811835 -2.171875 24.2734375 C-9.98876369 24.58137554 -9.98876369 24.58137554 -13.5625 21.625 C-17.3057723 17.59378368 -17.39037018 14.90519941 -17.359375 9.55078125 C-16.78039966 5.44131496 -15.00085071 3.78650423 -12 1 C-8.27533151 -0.86233425 -4.05504687 -0.57130829 0 0 Z M-14 8 C-14.69847125 10.8396864 -14.69847125 13.1603136 -14 16 C-12.01078114 18.9838283 -10.61497432 20.60276841 -7.0625 21.4765625 C-3.13936508 21.75890933 -1.32887629 21.21925086 2 19 C4.21925086 15.67112371 4.75890933 13.86063492 4.4765625 9.9375 C3.60276841 6.38502568 1.9838283 4.98921886 -1 3 C-6.81663203 1.56929615 -10.60814906 2.91222359 -14 8 Z " fill="#219E26" transform="translate(30,2)"/>
<path d="M0 0 C2.64 0 5.28 0 8 0 C8 0.66 8 1.32 8 2 C7.01 2.495 7.01 2.495 6 3 C6.515625 3.391875 7.03125 3.78375 7.5625 4.1875 C9 6 9 6 8.75 8.625 C8 11 8 11 7 12 C5.00041636 12.04080783 2.99954746 12.04254356 1 12 C0.34 10.68 -0.32 9.36 -1 8 C1.97 8.495 1.97 8.495 5 9 C5 8.01 5 7.02 5 6 C3.02 6.33 1.04 6.66 -1 7 C-0.67 4.69 -0.34 2.38 0 0 Z " fill="#219E26" transform="translate(21,8)"/>
<path d="M0 0 C0.66 0 1.32 0 2 0 C2.33 2.64 2.66 5.28 3 8 C4.32 7.67 5.64 7.34 7 7 C6.60000283 9.31998359 6.09432121 10.86323424 4.75 12.8125 C3 14 3 14 0.5 13.875 C-2.14603773 12.9488868 -3.35498043 12.25107941 -5 10 C-5 9.01 -5 8.02 -5 7 C-3.68 7.33 -2.36 7.66 -1 8 C-0.67 5.36 -0.34 2.72 0 0 Z " fill="#219E27" transform="translate(24,28)"/>
</svg>
