<svg width="30" height="30" viewBox="0 0 30 30" fill="none" xmlns="http://www.w3.org/2000/svg">
<path d="M6.71257 2.05088C4.29538 2.49268 2.87858 5.0876 3.82819 7.33213C4.2903 8.41885 5.30593 9.27705 6.46882 9.57158C6.82937 9.66299 7.83484 9.66299 8.19538 9.57158C9.5614 9.22627 10.6532 8.15479 11.0188 6.79893C11.1255 6.41299 11.161 5.72744 11.095 5.31104C10.8614 3.79775 9.83054 2.60947 8.37312 2.15244C7.97195 2.03057 7.10866 1.97471 6.71257 2.05088Z" fill="#613EEA"/>
<path d="M14.6344 2.10664C14.416 2.21836 14.2383 2.51797 14.2383 2.76172C14.2383 2.84805 14.284 3.01055 14.3398 3.11719C14.4871 3.40156 14.7156 3.50313 15.3047 3.53867C17.209 3.66055 18.9406 4.8082 19.7988 6.51953C20.0121 6.95117 20.1949 7.45391 20.2559 7.78906C20.2762 7.88555 20.3016 8.00742 20.3117 8.05313C20.3371 8.13438 20.2914 8.14453 19.8953 8.14453C19.3418 8.14453 19.0727 8.27148 18.9406 8.60156C18.8391 8.85547 18.8391 8.96211 18.9305 9.18047C19.0523 9.46992 22.084 13.2328 22.3023 13.3598C22.4039 13.4258 22.5715 13.4766 22.668 13.4766C23.0184 13.4766 23.1656 13.3191 24.7805 11.298C26.2633 9.43945 26.4766 9.13984 26.4766 8.91133C26.4766 8.67266 26.3141 8.39844 26.0957 8.27148C25.9129 8.15977 25.8215 8.14453 25.4 8.14453H24.9176L24.8312 7.6875C24.5469 6.11836 23.6937 4.63047 22.5258 3.65547C21.4187 2.74141 20.2305 2.21328 18.8848 2.05586C18.6359 2.02539 17.6152 2 16.625 2C14.9289 2.00508 14.8121 2.01016 14.6344 2.10664Z" fill="#613EEA"/>
<path d="M3.35078 9.95234C2.66016 10.7496 2.20312 11.7348 2.05586 12.7504C2.02539 12.9484 2 13.573 2 14.1367C2 15.3199 2.04062 15.4723 2.40625 15.6602C2.59922 15.7617 2.6957 15.7617 7.33203 15.7617C11.9684 15.7617 12.0648 15.7617 12.2578 15.6602C12.6234 15.4723 12.6641 15.3199 12.6641 14.1367C12.6641 13.573 12.6387 12.9484 12.6082 12.7504C12.4559 11.7297 11.9684 10.6785 11.2777 9.90664L11.0645 9.66289L10.7852 9.90156C10.191 10.4094 9.41914 10.8105 8.62695 11.0238C8.18008 11.1406 8.02266 11.1559 7.33203 11.1559C6.64141 11.1559 6.48398 11.1406 6.03711 11.0238C5.23984 10.8105 4.50352 10.4195 3.74687 9.79492L3.59453 9.66797L3.35078 9.95234Z" fill="#613EEA"/>
<path d="M22.1855 14.2688C22.1297 14.279 21.957 14.3146 21.8047 14.345C20.7027 14.5685 19.6262 15.4825 19.1539 16.5997C18.9457 17.0923 18.8848 17.4224 18.8848 18.047C18.8848 18.6716 18.9457 19.0017 19.1539 19.4942C19.6262 20.6063 20.6266 21.4595 21.8047 21.7591C22.1652 21.8505 23.1707 21.8505 23.5312 21.7591C24.7094 21.4595 25.7098 20.6063 26.182 19.4942C26.3902 19.0017 26.4512 18.6716 26.4512 18.047C26.4512 17.7169 26.4207 17.3411 26.3801 17.1837C26.0348 15.8177 24.9734 14.736 23.6074 14.3552C23.3484 14.2841 22.3734 14.2231 22.1855 14.2688Z" fill="#613EEA"/>
<path d="M7.05796 16.5945C6.95132 16.6352 6.83452 16.7012 6.79898 16.7367C6.48413 17.077 3.65054 20.6875 3.59468 20.8195C3.50327 21.0379 3.50327 21.1445 3.60484 21.3984C3.66577 21.5457 3.7521 21.6422 3.90444 21.7285C4.08726 21.8402 4.17866 21.8555 4.60015 21.8555H5.08257L5.1689 22.3125C5.45327 23.8816 6.3064 25.3695 7.47437 26.3445C8.5814 27.2586 9.76968 27.7867 11.1154 27.9441C11.3693 27.9746 12.3798 28 13.365 28C15.0611 28 15.1677 27.9949 15.3556 27.8984C15.5841 27.7816 15.7619 27.4922 15.7619 27.2383C15.7619 27.152 15.7162 26.9895 15.6603 26.8828C15.513 26.5984 15.2845 26.4969 14.6955 26.4613C12.7912 26.3395 11.0595 25.1918 10.2013 23.4805C9.98804 23.0488 9.80523 22.5461 9.74429 22.2109C9.72398 22.1145 9.69859 21.9926 9.68843 21.9418C9.66304 21.8656 9.70874 21.8555 10.1048 21.8555C10.6584 21.8555 10.9275 21.7285 11.0595 21.3984C11.1611 21.1445 11.1611 21.0379 11.0697 20.8195C10.9732 20.5859 7.92124 16.7723 7.74859 16.6656C7.54546 16.5438 7.2814 16.5133 7.05796 16.5945Z" fill="#613EEA"/>
<path d="M18.7223 22.1043C18.2043 22.7035 17.8539 23.3129 17.6203 24.0086C17.402 24.6586 17.3359 25.2223 17.3359 26.3648C17.3359 27.5582 17.3766 27.7105 17.7422 27.8984C17.9352 28 18.0316 28 22.668 28C27.3043 28 27.4008 28 27.5938 27.8984C27.9594 27.7105 28 27.5582 28 26.3648C28 25.2223 27.934 24.6586 27.7156 24.0086C27.482 23.3129 27.091 22.6426 26.568 22.0434L26.4004 21.8504L26.1211 22.0891C25.527 22.5969 24.7551 22.998 23.9629 23.2113C23.516 23.3281 23.3586 23.3434 22.668 23.3434C21.9773 23.3434 21.8199 23.3281 21.373 23.2113C20.5758 22.998 19.8395 22.607 19.0879 21.9875L18.9305 21.8605L18.7223 22.1043Z" fill="#613EEA"/>
</svg>
