<svg width="206" height="150" viewBox="0 0 206 150" fill="none" xmlns="http://www.w3.org/2000/svg">
<g clip-path="url(#clip0_251_1264)">
<path d="M200.357 133.895C199.667 128.684 196.394 123.57 191.405 121.911C193.41 127.265 193.456 133.155 191.536 138.54C190.788 140.613 189.74 142.842 190.475 144.921C190.933 146.214 192.035 147.197 193.264 147.808C194.492 148.419 195.852 148.703 197.195 148.983L197.461 149.199C199.551 144.376 201.047 139.106 200.357 133.895Z" fill="#F0F0F0"/>
<path d="M191.357 122.01C194.28 125.234 196.113 129.296 196.595 133.62C196.716 134.549 196.689 135.492 196.516 136.412C196.319 137.304 195.886 138.126 195.263 138.794C194.695 139.428 194.04 140.011 193.636 140.772C193.435 141.165 193.319 141.596 193.297 142.037C193.274 142.477 193.344 142.918 193.504 143.329C193.874 144.365 194.594 145.206 195.327 146.004C196.141 146.889 197 147.796 197.353 148.976C197.395 149.119 197.615 149.045 197.572 148.902C196.959 146.849 194.952 145.696 193.985 143.85C193.534 142.989 193.339 141.986 193.749 141.07C194.107 140.269 194.781 139.667 195.362 139.03C195.979 138.387 196.43 137.603 196.674 136.747C196.893 135.838 196.956 134.898 196.86 133.968C196.678 131.871 196.166 129.815 195.345 127.876C194.42 125.659 193.123 123.616 191.509 121.835C191.409 121.725 191.258 121.901 191.357 122.01Z" fill="white"/>
<path d="M196.522 132.219C197.236 132.039 197.864 131.611 198.292 131.012C198.72 130.413 198.922 129.681 198.86 128.946C198.847 128.798 198.616 128.811 198.629 128.96C198.687 129.643 198.5 130.325 198.1 130.883C197.7 131.44 197.114 131.836 196.447 131.999C196.303 132.035 196.378 132.254 196.522 132.219Z" fill="white"/>
<path d="M195.594 138.51C194.294 137.748 193.33 136.525 192.893 135.084C192.85 134.941 192.631 135.015 192.674 135.158C193.131 136.657 194.137 137.928 195.491 138.718C195.62 138.793 195.722 138.585 195.594 138.51Z" fill="white"/>
<path d="M194.207 125.88C193.945 126.007 193.656 126.067 193.365 126.054C193.074 126.042 192.79 125.957 192.54 125.808C192.412 125.732 192.31 125.94 192.438 126.016C192.715 126.18 193.028 126.273 193.349 126.287C193.671 126.301 193.991 126.237 194.281 126.099C194.31 126.089 194.333 126.067 194.347 126.04C194.36 126.013 194.363 125.981 194.354 125.952C194.344 125.923 194.323 125.899 194.295 125.886C194.268 125.872 194.236 125.87 194.207 125.88L194.207 125.88Z" fill="white"/>
<path d="M176.315 131.349C176.394 131.399 176.472 131.449 176.551 131.501C177.604 132.182 178.6 132.947 179.529 133.789C179.602 133.853 179.675 133.919 179.746 133.985C181.963 136.037 183.78 138.483 185.104 141.199C185.63 142.28 186.073 143.4 186.429 144.548C186.921 146.134 187.328 147.893 188.287 149.185C188.385 149.321 188.492 149.451 188.607 149.574L197.177 149.506C197.196 149.496 197.216 149.488 197.235 149.478L197.577 149.491C197.563 149.431 197.547 149.368 197.533 149.308C197.525 149.273 197.515 149.237 197.507 149.202C197.501 149.179 197.495 149.155 197.491 149.134C197.489 149.126 197.486 149.118 197.485 149.113C197.48 149.091 197.474 149.072 197.47 149.052C197.382 148.703 197.29 148.353 197.196 148.004C197.196 148.002 197.196 148.002 197.194 148C196.503 145.332 195.498 142.755 194.2 140.323C194.16 140.251 194.121 140.177 194.077 140.105C193.477 139.029 192.789 138.004 192.021 137.04C191.599 136.513 191.151 136.008 190.678 135.527C189.453 134.286 188.04 133.245 186.492 132.443C183.405 130.845 179.842 130.251 176.565 131.269C176.481 131.295 176.399 131.321 176.315 131.349Z" fill="#F0F0F0"/>
<path d="M176.335 131.457C180.609 132.271 184.519 134.411 187.508 137.573C188.163 138.242 188.709 139.011 189.125 139.85C189.504 140.681 189.654 141.598 189.559 142.506C189.487 143.354 189.315 144.214 189.451 145.065C189.527 145.5 189.694 145.914 189.941 146.279C190.188 146.645 190.51 146.954 190.885 147.187C191.804 147.791 192.885 148.028 193.951 148.224C195.134 148.441 196.366 148.648 197.358 149.378C197.478 149.467 197.608 149.275 197.488 149.187C195.763 147.916 193.466 148.204 191.583 147.313C190.704 146.897 189.945 146.213 189.72 145.235C189.523 144.38 189.7 143.493 189.78 142.635C189.886 141.75 189.773 140.853 189.453 140.022C189.081 139.164 188.565 138.376 187.929 137.691C186.52 136.127 184.874 134.793 183.051 133.74C180.978 132.526 178.711 131.676 176.351 131.226C176.205 131.198 176.19 131.43 176.335 131.457Z" fill="white"/>
<path d="M186.605 136.498C187.068 135.925 187.311 135.206 187.292 134.469C187.273 133.733 186.993 133.027 186.502 132.478C186.402 132.367 186.225 132.517 186.325 132.628C186.784 133.138 187.045 133.796 187.061 134.481C187.077 135.167 186.847 135.836 186.414 136.368C186.319 136.483 186.511 136.613 186.605 136.498Z" fill="white"/>
<path d="M189.652 142.081C188.156 142.254 186.649 141.858 185.433 140.971C185.312 140.883 185.182 141.074 185.302 141.162C186.57 142.083 188.139 142.493 189.695 142.308C189.843 142.29 189.799 142.063 189.652 142.081Z" fill="white"/>
<path d="M180.94 132.831C180.808 133.09 180.613 133.312 180.373 133.477C180.133 133.643 179.856 133.746 179.567 133.777C179.418 133.793 179.462 134.021 179.61 134.005C179.93 133.968 180.235 133.854 180.501 133.672C180.766 133.49 180.983 133.246 181.132 132.961C181.148 132.936 181.154 132.905 181.149 132.875C181.143 132.845 181.126 132.818 181.101 132.8C181.076 132.783 181.045 132.777 181.015 132.782C180.985 132.788 180.958 132.806 180.941 132.831L180.94 132.831Z" fill="white"/>
<path d="M143.879 81.4672C144.028 81.6631 144.219 81.8241 144.436 81.9386C144.654 82.0532 144.895 82.1185 145.141 82.1301C145.387 82.1417 145.632 82.0993 145.86 82.0057C146.088 81.9122 146.292 81.7699 146.459 81.5888L151.947 83.9756L151.412 80.912L146.283 79.1151C145.96 78.8551 145.553 78.7226 145.139 78.7426C144.725 78.7626 144.333 78.9338 144.036 79.2237C143.74 79.5136 143.561 79.9021 143.532 80.3156C143.503 80.7291 143.626 81.1388 143.879 81.4672V81.4672Z" fill="#A0616A"/>
<path d="M148.873 79.7364L159.356 81.0951L170.168 74.5824C170.746 74.2341 171.391 74.0123 172.061 73.9314C172.732 73.8505 173.411 73.9125 174.056 74.1133C174.7 74.314 175.295 74.649 175.8 75.0961C176.306 75.5432 176.711 76.0923 176.989 76.7074C177.491 77.8205 177.548 79.0834 177.149 80.2373C176.751 81.3913 175.926 82.3492 174.843 82.9147L160.315 88.0917L160.288 88.1015L147.542 82.4237L148.873 79.7364Z" fill="#3F3D56"/>
<path d="M175.665 147.537H173.436L172.376 138.94L175.666 138.941L175.665 147.537Z" fill="#A0616A"/>
<path d="M176.233 149.697L169.047 149.697V149.606C169.047 148.864 169.342 148.153 169.867 147.628C170.391 147.104 171.103 146.809 171.844 146.809H171.845L173.157 145.813L175.606 146.809L176.234 146.809L176.233 149.697Z" fill="#2F2E41"/>
<path d="M167.029 146.132L164.855 146.623L161.927 138.472L165.136 137.747L167.029 146.132Z" fill="#A0616A"/>
<path d="M168.059 148.114L161.049 149.697L161.029 149.608C160.866 148.885 160.997 148.126 161.393 147.499C161.789 146.872 162.418 146.427 163.142 146.264L163.142 146.264L164.203 145.003L166.811 145.435L167.423 145.297L168.059 148.114Z" fill="#2F2E41"/>
<path d="M178.488 94.9845C179.532 98.1359 179.422 101.557 178.236 105.228L177.73 125.899C177.73 125.899 178.485 139.454 176.048 144.224H172.514L170.765 124.661L170.545 111.53L162.969 122.608L167.795 143.904L163.445 144.293L155.615 121.182L165.276 98.7592L178.488 94.9845Z" fill="#2F2E41"/>
<path d="M164.183 98.0311L165.054 95.8525L164.478 93.9795L164.347 75.8298L164.346 75.816L166.438 72.4814L166.455 70.3723L172.294 70.2299L172.927 71.838L174.18 72.5872C175.546 73.4066 176.673 74.5713 177.446 75.9642C178.219 77.3571 178.612 78.9291 178.584 80.522L178.358 92.7676L178.941 93.9331C179.099 94.2496 179.187 94.5966 179.199 94.9503C179.21 95.3039 179.145 95.6559 179.008 95.9821C178.87 96.3082 178.664 96.6008 178.403 96.8397C178.142 97.0786 177.832 97.2582 177.495 97.3661L164.646 99.4214L164.183 98.0311Z" fill="#3F3D56"/>
<path d="M168.839 68.2302C171.77 68.2302 174.145 65.8548 174.145 62.9247C174.145 59.9945 171.77 57.6191 168.839 57.6191C165.909 57.6191 163.534 59.9945 163.534 62.9247C163.534 65.8548 165.909 68.2302 168.839 68.2302Z" fill="#A0616A"/>
<path d="M174.364 64.0812C174.522 63.4145 174.45 62.4764 174.36 61.8052C174.246 60.9201 173.947 60.0689 173.482 59.3068C173.017 58.5447 172.398 57.8888 171.664 57.3814C171.382 57.1676 171.048 57.0346 170.696 56.9969C170.521 56.9821 170.345 57.0233 170.194 57.1145C170.043 57.2058 169.925 57.3424 169.856 57.5049C169.768 57.284 169.635 57.0837 169.466 56.9161C169.297 56.7486 169.096 56.6175 168.874 56.5309C168.429 56.3603 167.95 56.2958 167.476 56.3425C166.556 56.4183 165.675 56.7416 164.924 57.2781C164.174 57.8146 163.582 58.5443 163.213 59.3898C163.071 59.7264 162.675 58.483 162.496 58.801C162.331 59.1317 162.043 59.3846 161.694 59.5057C161.342 59.6038 161.199 61.0534 161.061 60.7154C160.953 60.9651 160.911 61.2381 160.937 61.5087C160.964 61.7793 161.058 62.0388 161.212 62.2631C161.366 62.4873 161.574 62.669 161.817 62.7913C162.06 62.9135 162.33 62.9722 162.601 62.9621C162.956 62.9161 163.308 62.8488 163.656 62.7603C164.293 62.68 164.937 62.8358 165.468 63.1982C165.998 63.5606 166.377 64.1047 166.533 64.7276C166.63 64.3654 166.785 64.0212 166.992 63.7083C167.096 63.5526 167.237 63.4243 167.401 63.3339C167.566 63.2436 167.75 63.1938 167.937 63.1887C168.117 63.2093 168.29 63.2663 168.446 63.3562C168.603 63.4462 168.739 63.5672 168.847 63.7118C169.081 63.986 169.256 64.306 169.491 64.5788C170.182 65.3792 171.116 67.2457 172.1 67.1096C172.876 67.0022 174.148 64.9914 174.364 64.0812Z" fill="#2F2E41"/>
<path d="M149.061 95.5487C149.287 95.6468 149.531 95.6942 149.778 95.6875C150.024 95.6809 150.265 95.6204 150.485 95.5102C150.706 95.4001 150.899 95.243 151.052 95.05C151.205 94.8571 151.314 94.633 151.37 94.3934L157.325 93.7919L155.36 91.381L150.007 92.3218C149.599 92.2529 149.179 92.3363 148.827 92.5562C148.476 92.7761 148.218 93.1172 148.101 93.515C147.984 93.9127 148.018 94.3394 148.195 94.7142C148.371 95.0891 148.68 95.386 149.061 95.5487Z" fill="#A0616A"/>
<path d="M152.57 91.5973L162.379 87.6561L168.626 76.6884C168.96 76.1019 169.414 75.5928 169.959 75.1945C170.504 74.7963 171.127 74.518 171.788 74.378C172.448 74.238 173.13 74.2394 173.79 74.3822C174.45 74.5249 175.072 74.8058 175.615 75.2063C176.597 75.9319 177.265 77.0054 177.481 78.2071C177.697 79.4088 177.446 80.6478 176.779 81.6702L166.637 93.2901L166.618 93.312L152.723 94.5923L152.57 91.5973Z" fill="#3F3D56"/>
<path d="M205.353 150H116.798C116.758 150 116.718 149.992 116.681 149.977C116.644 149.962 116.611 149.94 116.583 149.912C116.554 149.883 116.532 149.85 116.517 149.813C116.502 149.776 116.494 149.737 116.494 149.697C116.494 149.657 116.502 149.618 116.517 149.581C116.532 149.544 116.554 149.511 116.583 149.482C116.611 149.454 116.644 149.432 116.681 149.417C116.718 149.402 116.758 149.394 116.798 149.394H205.353C205.392 149.394 205.432 149.402 205.469 149.417C205.506 149.432 205.539 149.454 205.567 149.482C205.596 149.511 205.618 149.544 205.633 149.581C205.649 149.618 205.656 149.657 205.656 149.697C205.656 149.737 205.649 149.776 205.633 149.813C205.618 149.85 205.596 149.883 205.567 149.912C205.539 149.94 205.506 149.962 205.469 149.977C205.432 149.992 205.392 150 205.353 150Z" fill="#CCCCCC"/>
<path d="M148.123 100.722H107.88C107.599 100.722 107.33 100.61 107.132 100.412C106.934 100.214 106.822 99.945 106.822 99.6645V83.3357C106.822 83.0553 106.934 82.7864 107.132 82.5881C107.33 82.3898 107.599 82.2783 107.88 82.278H148.123C148.403 82.2783 148.672 82.3898 148.87 82.5881C149.068 82.7864 149.18 83.0553 149.18 83.3357V99.6645C149.18 99.945 149.068 100.214 148.87 100.412C148.672 100.61 148.403 100.722 148.123 100.722Z" fill="#F10086"/>
<path d="M144.291 108.555H111.712C111.545 108.555 111.379 108.523 111.225 108.459C111.071 108.395 110.931 108.302 110.813 108.184C110.695 108.066 110.601 107.926 110.537 107.772C110.473 107.618 110.44 107.453 110.44 107.286C110.44 107.119 110.473 106.954 110.537 106.8C110.601 106.646 110.695 106.506 110.813 106.388C110.931 106.27 111.071 106.176 111.225 106.113C111.379 106.049 111.545 106.016 111.712 106.017H144.291C145.928 105.994 145.944 108.578 144.291 108.555Z" fill="#E4E4E4"/>
<path d="M144.291 114.373H111.711C111.375 114.373 111.052 114.239 110.814 114.001C110.576 113.763 110.442 113.44 110.442 113.104C110.442 112.767 110.576 112.444 110.814 112.206C111.052 111.968 111.375 111.834 111.711 111.834H144.291C145.928 111.812 145.944 114.396 144.291 114.373Z" fill="#E4E4E4"/>
<path d="M144.291 120.191H111.712C111.545 120.191 111.379 120.158 111.225 120.095C111.071 120.031 110.931 119.938 110.813 119.82C110.695 119.702 110.601 119.562 110.537 119.408C110.473 119.253 110.44 119.088 110.44 118.921C110.44 118.755 110.473 118.589 110.537 118.435C110.601 118.281 110.695 118.141 110.813 118.023C110.931 117.905 111.071 117.812 111.225 117.748C111.379 117.685 111.545 117.652 111.712 117.652H144.291C145.928 117.629 145.944 120.214 144.291 120.191Z" fill="#E4E4E4"/>
<path d="M7.3826 57.4126C0.298322 48.1046 -2.55553 34.8979 2.71763 24.4568C7.95036 36.0511 17.1155 45.4208 28.5915 50.9082C33.0249 53.0084 38.1747 54.8827 40.2734 59.3169C41.5792 62.076 41.3817 65.3573 40.4006 68.2477C39.4194 71.1382 37.7193 73.7213 36.037 76.2684L35.9568 77.0262C25.0923 72.6917 14.4669 66.7206 7.3826 57.4126Z" fill="#F0F0F0"/>
<path d="M2.94961 24.5368C3.38381 34.1071 6.87826 43.6007 12.8897 51.0783C14.1894 52.695 15.6485 54.2218 17.394 55.3611C19.1039 56.4585 21.0765 57.078 23.1068 57.1552C24.9984 57.2653 26.9461 57.1588 28.778 57.7267C30.709 58.3253 32.148 59.7438 32.9978 61.5546C34.0376 63.77 34.2193 66.227 34.3135 68.6358C34.4181 71.3104 34.4844 74.0901 35.7791 76.5053C35.936 76.798 35.4727 77.0242 35.3161 76.7321C33.0636 72.53 34.4228 67.5625 33.0546 63.1317C32.4161 61.0642 31.1507 59.1766 29.0674 58.3727C27.2455 57.6696 25.237 57.7778 23.3207 57.6829C21.3086 57.5833 19.4243 57.1577 17.6695 56.1367C15.8743 55.0923 14.3525 53.6193 13.0172 52.043C10.0159 48.4459 7.59881 44.3992 5.85454 40.0513C3.8363 35.1001 2.6799 29.8401 2.43538 24.4989C2.42038 24.1683 2.93471 24.2084 2.94961 24.5369L2.94961 24.5368Z" fill="white"/>
<path d="M10.8076 48.7509C9.39822 49.5882 7.73712 49.8974 6.1209 49.6231C4.50469 49.3488 3.0386 48.5089 1.98446 47.2534C1.77204 46.9987 2.15795 46.6566 2.37065 46.9117C3.35011 48.0826 4.71585 48.8648 6.22139 49.1172C7.72693 49.3695 9.2731 49.0754 10.5808 48.2879C10.8652 48.1171 11.0903 48.581 10.8076 48.7509Z" fill="white"/>
<path d="M22.1404 57.2258C22.9961 53.9858 22.5993 50.5423 21.0289 47.5819C20.8731 47.2887 21.3363 47.0623 21.4919 47.3552C23.1203 50.4389 23.526 54.0232 22.6281 57.3929C22.5423 57.714 22.055 57.5452 22.1404 57.2258V57.2258Z" fill="white"/>
<path d="M4.51976 35.1148C5.13258 34.9045 5.68355 34.5452 6.12319 34.0693C6.56284 33.5933 6.87739 33.0157 7.0386 32.3881C7.12029 32.0661 7.60749 32.2352 7.52633 32.5552C7.34498 33.2477 6.99681 33.8852 6.51224 34.4121C6.02766 34.9391 5.42143 35.3393 4.7465 35.5779C4.68477 35.6057 4.61476 35.6089 4.5507 35.587C4.48664 35.565 4.43334 35.5195 4.40163 35.4597C4.37191 35.3983 4.36765 35.3276 4.38977 35.263C4.4119 35.1984 4.45861 35.1452 4.51976 35.1148Z" fill="white"/>
<path d="M41.3387 15.6851C41.2934 15.8876 41.2481 16.0901 41.2057 16.2959C40.6109 19.0222 40.2385 21.7922 40.0923 24.5787C40.0775 24.7939 40.0658 25.0123 40.0573 25.2276C39.7766 31.9446 40.7453 38.6555 42.9144 45.0189C43.7798 47.5503 44.8366 50.0121 46.0755 52.3832C47.7868 55.6576 49.9027 59.0717 50.4171 62.6158C50.4749 62.985 50.5098 63.3574 50.5216 63.7309L36.8875 77.0653C36.8414 77.0801 36.798 77.0981 36.7517 77.113L36.2317 77.6703C36.1592 77.5525 36.0866 77.4287 36.0142 77.3109C35.9719 77.2427 35.9326 77.1716 35.8903 77.1034C35.8631 77.057 35.836 77.0105 35.8087 76.9702C35.7996 76.9548 35.7906 76.9392 35.7845 76.9269C35.7573 76.8866 35.7363 76.8463 35.7121 76.8091C35.3044 76.1184 34.9008 75.4237 34.5014 74.7249C34.4983 74.7218 34.4983 74.7218 34.4983 74.7157C31.4685 69.3836 28.8572 63.7517 27.1837 57.9025C27.1334 57.7265 27.0799 57.5475 27.0359 57.3654C26.2962 54.7247 25.7735 52.0279 25.4732 49.302C25.3136 47.8089 25.2296 46.3086 25.2216 44.807C25.2086 40.9269 25.8059 37.069 26.9916 33.3746C29.3566 26.0102 34.0504 19.4841 40.8189 15.95C40.9921 15.8597 41.1624 15.7722 41.3387 15.6851Z" fill="#F0F0F0"/>
<path d="M41.4773 15.8881C36.062 23.7908 33.1363 33.4748 33.4341 43.0646C33.4985 45.1379 33.7443 47.2355 34.452 49.196C35.1566 51.1017 36.3586 52.784 37.9332 54.068C39.3773 55.2948 40.9965 56.3824 42.1172 57.9388C43.2986 59.5793 43.5935 61.5783 43.1819 63.5357C42.6782 65.9307 41.3441 68.0018 39.969 69.9819C38.4422 72.1804 36.8216 74.4397 36.4012 77.1476C36.3503 77.4757 35.8441 77.3775 35.895 77.0499C36.6264 72.3386 40.7025 69.1907 42.2776 64.8292C43.0126 62.794 43.1388 60.525 41.9593 58.6288C40.928 56.9706 39.2592 55.8476 37.7863 54.6181C36.2397 53.3272 34.9914 51.8529 34.205 49.9812C33.4005 48.0665 33.0722 45.9741 32.9551 43.9115C32.7244 39.2325 33.2309 34.5462 34.4559 30.0245C35.8255 24.8561 38.069 19.96 41.0895 15.5482C41.2766 15.2752 41.6631 15.6169 41.4773 15.8881L41.4773 15.8881Z" fill="white"/>
<path d="M33.1728 39.9526C31.5434 39.7727 30.031 39.0195 28.9057 37.8274C27.7804 36.6353 27.1155 35.082 27.0297 33.4449C27.0134 33.1136 27.5275 33.0728 27.5438 33.4046C27.6208 34.9292 28.2404 36.376 29.2905 37.4839C30.3407 38.5919 31.7523 39.2879 33.2706 39.4465C33.6005 39.4813 33.5009 39.9873 33.1729 39.9526H33.1728Z" fill="white"/>
<path d="M37.119 53.5425C39.753 51.4707 41.5093 48.4823 42.0379 45.1732C42.09 44.8452 42.5961 44.9434 42.5441 45.2709C41.9876 48.7135 40.1536 51.8196 37.4078 53.9695C37.146 54.1742 36.8586 53.7461 37.119 53.5425Z" fill="white"/>
<path d="M36.3622 25.2794C36.9782 25.4804 37.6344 25.5252 38.272 25.4099C38.9095 25.2946 39.5085 25.0227 40.015 24.6187C40.2742 24.4108 40.5613 24.8392 40.3039 25.0458C39.7421 25.4895 39.0803 25.789 38.3761 25.9179C37.672 26.0469 36.947 26.0014 36.2645 25.7856C36.1984 25.7706 36.1406 25.7311 36.1026 25.675C36.0647 25.6189 36.0495 25.5505 36.0602 25.4836C36.0735 25.4166 36.1127 25.3576 36.1692 25.3194C36.2258 25.2811 36.2951 25.2668 36.3622 25.2794Z" fill="white"/>
<path d="M44.975 41.6788C48.1296 41.6788 50.6869 39.1215 50.6869 35.967C50.6869 32.8124 48.1296 30.2551 44.975 30.2551C41.8205 30.2551 39.2632 32.8124 39.2632 35.967C39.2632 39.1215 41.8205 41.6788 44.975 41.6788Z" fill="#2F2E41"/>
<path d="M76.2286 90.9327H35.9856C35.7052 90.9323 35.4363 90.8208 35.238 90.6225C35.0397 90.4242 34.9282 90.1553 34.9279 89.8749V73.546C34.9282 73.2656 35.0397 72.9968 35.238 72.7985C35.4363 72.6002 35.7052 72.4886 35.9856 72.4883H76.2286C76.509 72.4886 76.7779 72.6001 76.9762 72.7984C77.1745 72.9967 77.286 73.2656 77.2863 73.546V89.8749C77.286 90.1553 77.1745 90.4242 76.9762 90.6225C76.7779 90.8208 76.509 90.9323 76.2286 90.9327Z" fill="#D1D3D4"/>
<path d="M72.3967 98.7657H39.8175C39.4818 98.7642 39.1604 98.6298 38.9236 98.3919C38.6868 98.1541 38.5538 97.8321 38.5538 97.4964C38.5538 97.1607 38.6868 96.8387 38.9236 96.6009C39.1604 96.363 39.4818 96.2286 39.8175 96.2271H72.3967C74.0336 96.2042 74.05 98.7888 72.3967 98.7657Z" fill="#E4E4E4"/>
<path d="M72.3967 104.583H39.8175C39.6507 104.584 39.4854 104.551 39.3312 104.487C39.177 104.424 39.0369 104.33 38.9188 104.212C38.8007 104.094 38.7071 103.954 38.6432 103.8C38.5793 103.646 38.5464 103.481 38.5464 103.314C38.5464 103.147 38.5793 102.982 38.6432 102.828C38.7071 102.674 38.8007 102.534 38.9188 102.416C39.0369 102.298 39.177 102.205 39.3312 102.141C39.4854 102.077 39.6507 102.045 39.8175 102.045H72.3967C74.0336 102.022 74.05 104.607 72.3967 104.583Z" fill="#E4E4E4"/>
<path d="M72.3966 110.401H39.8174C39.4808 110.401 39.1579 110.267 38.9199 110.029C38.6818 109.791 38.5481 109.469 38.5481 109.132C38.5481 108.795 38.6818 108.472 38.9199 108.234C39.1579 107.996 39.4808 107.863 39.8174 107.863H72.3966C74.0335 107.84 74.0499 110.424 72.3966 110.401Z" fill="#E4E4E4"/>
<path d="M75.0717 47.2471C74.9169 47.4816 74.7127 47.6793 74.4732 47.8264C74.2338 47.9735 73.9651 48.0662 73.6859 48.0982C73.4067 48.1301 73.124 48.1005 72.8575 48.0113C72.591 47.9222 72.3474 47.7757 72.1436 47.5822L57.8839 53.6692L58.2591 50.1398L72.1556 44.7519C72.5034 44.4312 72.9567 44.2492 73.4297 44.2404C73.9027 44.2317 74.3625 44.3967 74.7219 44.7042C75.0813 45.0118 75.3155 45.4405 75.3799 45.9092C75.4444 46.3778 75.3347 46.8539 75.0717 47.2471Z" fill="#FFB6B6"/>
<path d="M46.0471 46.9192C46.0471 46.9192 44.284 48.6315 46.0337 50.8351C47.7833 53.0387 56.4342 54.4716 57.8217 54.7443C59.2091 55.017 66.9266 49.7674 66.9266 49.7674L67.6741 45.9642L59.0596 48.9197L46.0471 46.9192Z" fill="#F10086"/>
<path d="M41.3123 59.9116L41.4511 62.5494C41.4511 62.5494 41.0414 64.8859 41.3784 65.3901C41.7128 65.8918 50.8395 65.9552 50.8395 65.9552C50.8395 65.9552 51.4426 62.7043 51.962 59.8589L41.3123 59.9116Z" fill="#FFB6B6"/>
<path d="M67.5527 94.7882L69.4608 94.4029L68.9147 86.6958L66.0986 87.2648L67.5527 94.7882Z" fill="#FFB6B6"/>
<path d="M70.2858 84.7587L72.0595 83.9612L69.7586 76.5872L67.1405 77.7646L70.2858 84.7587Z" fill="#FFB6B6"/>
<path d="M71.8309 80.6039L68.491 82.495L60.2541 69.2589C54.4717 73.1545 48.8173 75.0201 43.1171 76.0157C41.1899 76.3588 39.225 76.1849 38.8551 74.2234C38.8378 74.1317 38.824 74.0395 38.8137 73.9468C38.5861 71.8042 41.2513 69.0579 41.59 66.4366L48.8841 65.9987L49.7836 67.152L58.2189 61.9659C58.6284 61.7196 59.0825 61.5567 59.5552 61.4868C60.0279 61.4168 60.5097 61.4411 60.973 61.5582C61.4362 61.6753 61.8717 61.883 62.2543 62.1692C62.637 62.4554 62.9592 62.8145 63.2024 63.2258C63.2581 63.3176 63.3099 63.4117 63.3576 63.5081L71.8309 80.6039Z" fill="#2F2E41"/>
<path d="M69.7867 89.5079L65.965 89.8631L59.0357 75.6914C52.1643 76.8732 45.6818 77.2518 40.0748 75.8222C39.1543 75.5791 38.3664 74.9836 37.8814 74.1643C37.3964 73.345 37.2532 72.3679 37.4829 71.4439C37.5047 71.3532 37.5299 71.2634 37.5586 71.1746C38.2296 69.1272 39.9862 67.6785 41.3702 65.4266L51.4792 65.5802L50.3501 69.476L60.1702 68.2052C60.6447 68.1485 61.1256 68.1863 61.5854 68.3163C62.0452 68.4463 62.4747 68.6661 62.8492 68.9629C63.2237 69.2596 63.5357 69.6276 63.7673 70.0456C63.9989 70.4635 64.1455 70.9232 64.1987 71.398C64.2119 71.5046 64.2205 71.6117 64.2245 71.7191L69.7867 89.5079Z" fill="#2F2E41"/>
<path d="M45.2595 42.1608C47.5265 42.1608 49.3643 40.323 49.3643 38.056C49.3643 35.789 47.5265 33.9512 45.2595 33.9512C42.9925 33.9512 41.1547 35.789 41.1547 38.056C41.1547 40.323 42.9925 42.1608 45.2595 42.1608Z" fill="#FFB6B6"/>
<path d="M42.853 43.6427L46.6168 44.0855C46.7755 44.1042 46.9244 44.1719 47.0428 44.2792C47.1612 44.3866 47.2432 44.5281 47.2773 44.6843L47.8759 47.4232L51.6071 51.8172C51.6071 51.8172 52.9469 54.3294 52.4445 57.1766C51.9421 60.0237 51.7213 62.1393 51.7213 62.1393C51.7213 62.1393 41.7123 65.8921 41.3774 65.3897C41.0424 64.8872 40.9337 62.605 40.9337 62.605L39.5939 47.6992C39.5939 47.6992 41.1012 45.187 41.9386 45.187C42.4791 45.1688 42.4097 43.9524 42.853 43.6427Z" fill="#F10086"/>
<path d="M51.8231 63.0558C52.3509 63.0558 52.7788 62.5424 52.7788 61.909C52.7788 61.2756 52.3509 60.7622 51.8231 60.7622C51.2953 60.7622 50.8674 61.2756 50.8674 61.909C50.8674 62.5424 51.2953 63.0558 51.8231 63.0558Z" fill="#F10086"/>
<path d="M66.6058 92.8038L69.5148 91.3459L70.063 92.625L73.7415 93.3686C73.9231 93.4053 74.0883 93.4991 74.2129 93.6363C74.3375 93.7736 74.415 93.947 74.434 94.1314C74.453 94.3158 74.4126 94.5014 74.3186 94.6612C74.2247 94.821 74.0821 94.9465 73.9118 95.0195L70.3576 96.543L69.2027 95.5404L69.5058 96.9081L68.1658 97.4825L66.6058 92.8038Z" fill="#2F2E41"/>
<path d="M69.4532 84.1452L72.3361 82.6365L72.9068 83.9057L76.5977 84.5844C76.78 84.6179 76.9468 84.7088 77.0738 84.8439C77.2008 84.9789 77.2813 85.151 77.3036 85.335C77.3258 85.519 77.2887 85.7053 77.1975 85.8667C77.1064 86.0281 76.9661 86.1562 76.797 86.2322L73.2702 87.8179L72.0979 86.8358L72.425 88.198L71.0952 88.7959L69.4532 84.1452Z" fill="#2F2E41"/>
<path d="M42.9142 36.7685C41.8298 36.7702 40.7713 36.4363 39.8842 35.8125L39.8546 35.7918V35.7556C39.8558 34.7067 40.273 33.701 41.0148 32.9592C41.7565 32.2175 42.7622 31.8003 43.8112 31.7991H45.4771C46.5261 31.8003 47.5318 32.2175 48.2735 32.9592C49.0153 33.701 49.4325 34.7067 49.4337 35.7556C49.4326 35.9957 49.3378 36.2259 49.1695 36.3971C49.0012 36.5684 48.7727 36.6671 48.5327 36.6724L43.0079 36.7676C42.9767 36.7682 42.9454 36.7685 42.9142 36.7685Z" fill="#2F2E41"/>
<path d="M59.4365 68.6984C59.1568 68.7243 58.8747 68.6885 58.6102 68.5936C58.3458 68.4986 58.1053 68.3469 57.9059 68.149C57.7064 67.9511 57.5527 67.7119 57.4557 67.4482C57.3587 67.1845 57.3207 66.9027 57.3444 66.6227L43.6783 59.2993L46.6674 57.3855L59.5607 64.8625C60.0284 64.9334 60.4539 65.1735 60.7565 65.5371C61.059 65.9008 61.2177 66.3628 61.2024 66.8356C61.1871 67.3084 60.9989 67.7592 60.6734 68.1025C60.348 68.4458 59.9079 68.6578 59.4365 68.6984H59.4365Z" fill="#FFB6B6"/>
<path d="M41.546 45.8411C41.546 45.8411 39.1073 45.5357 38.4814 48.2789C37.8555 51.0221 42.1458 58.6696 42.8005 59.923C43.4551 61.1763 52.3772 63.9174 52.3772 63.9174L55.8127 62.1229L48.1202 57.2476L41.546 45.8411Z" fill="#F10086"/>
<path d="M45.8949 32.4108C46.2789 31.9399 45.9787 31.2424 45.6638 30.7227C44.9421 29.5319 44.1846 28.3638 43.3913 27.2184C42.4 25.7873 41.1988 24.2911 39.492 23.948C37.9354 23.6351 36.3673 24.3748 35.0281 25.2278C33.7115 26.0664 32.4147 27.1228 31.9136 28.6012C31.434 30.016 31.7709 31.5872 32.3676 32.9568C32.8786 34.1297 33.5661 35.5323 32.8373 36.5839C32.4884 37.016 32.0194 37.3352 31.4895 37.5012C30.1436 38.0241 28.6973 38.2375 27.2577 38.1257C29.2342 38.1044 30.9644 40.1339 32.8805 39.6484C33.9671 39.3731 34.6907 38.3601 35.2115 37.3675C35.5924 36.7009 35.8501 35.9711 35.9722 35.2131C36.0988 34.1849 35.825 33.103 36.1706 32.1264C36.5304 31.11 37.4868 30.43 38.4522 29.95C39.0932 29.6312 39.7919 29.365 40.5057 29.4191C42.5291 29.5722 43.5771 32.0627 45.4971 32.7194" fill="#2F2E41"/>
<path d="M114.664 46.3096H74.4215C74.1411 46.3093 73.8722 46.1977 73.6739 45.9994C73.4756 45.8011 73.3641 45.5323 73.3638 45.2518V28.923C73.3641 28.6426 73.4756 28.3737 73.6739 28.1754C73.8722 27.9771 74.1411 27.8656 74.4215 27.8652H114.664C114.945 27.8656 115.214 27.9771 115.412 28.1754C115.61 28.3737 115.722 28.6426 115.722 28.923V45.2518C115.722 45.5323 115.61 45.8011 115.412 45.9994C115.214 46.1977 114.945 46.3093 114.664 46.3096Z" fill="#F10086"/>
<path d="M110.833 54.1427H78.2535C77.9168 54.1427 77.5939 54.0089 77.3559 53.7709C77.1179 53.5329 76.9841 53.21 76.9841 52.8734C76.9841 52.5367 77.1179 52.2139 77.3559 51.9758C77.5939 51.7378 77.9168 51.604 78.2535 51.604H110.833C112.47 51.5812 112.486 54.1657 110.833 54.1427Z" fill="#E4E4E4"/>
<path d="M110.833 59.9603H78.2535C78.0867 59.9605 77.9214 59.9279 77.7672 59.8642C77.613 59.8005 77.4729 59.7071 77.3548 59.5892C77.2368 59.4713 77.1431 59.3313 77.0792 59.1771C77.0153 59.023 76.9824 58.8578 76.9824 58.691C76.9824 58.5241 77.0153 58.3589 77.0792 58.2048C77.1431 58.0507 77.2368 57.9107 77.3548 57.7928C77.4729 57.6749 77.613 57.5814 77.7672 57.5178C77.9214 57.4541 78.0867 57.4214 78.2535 57.4217H110.833C112.47 57.3988 112.486 59.9834 110.833 59.9603Z" fill="#E4E4E4"/>
<path d="M110.833 65.778H78.2535C77.9168 65.778 77.5939 65.6443 77.3559 65.4063C77.1179 65.1682 76.9841 64.8454 76.9841 64.5087C76.9841 64.1721 77.1179 63.8492 77.3559 63.6112C77.5939 63.3731 77.9168 63.2394 78.2535 63.2394H110.833C112.47 63.2166 112.486 65.8011 110.833 65.778Z" fill="#E4E4E4"/>
<path d="M157.608 5.95187H22.8012C22.601 5.95165 22.4091 5.87203 22.2675 5.73047C22.126 5.58891 22.0464 5.39698 22.0461 5.19678V0.755094C22.0464 0.554897 22.126 0.362964 22.2675 0.221403C22.4091 0.0798428 22.601 0.000218914 22.8012 0H157.608C157.809 0.000218914 158 0.0798428 158.142 0.221403C158.284 0.362964 158.363 0.554897 158.363 0.755094V5.19678C158.363 5.39698 158.284 5.58891 158.142 5.73047C158 5.87203 157.809 5.95165 157.608 5.95187Z" fill="#E6E7E8"/>
<path d="M26.4282 3.83135C27.0203 3.83135 27.5003 3.35138 27.5003 2.7593C27.5003 2.16723 27.0203 1.68726 26.4282 1.68726C25.8362 1.68726 25.3562 2.16723 25.3562 2.7593C25.3562 3.35138 25.8362 3.83135 26.4282 3.83135Z" fill="white"/>
<path d="M30.4975 3.83135C31.0895 3.83135 31.5695 3.35138 31.5695 2.7593C31.5695 2.16723 31.0895 1.68726 30.4975 1.68726C29.9054 1.68726 29.4254 2.16723 29.4254 2.7593C29.4254 3.35138 29.9054 3.83135 30.4975 3.83135Z" fill="white"/>
<path d="M34.5668 3.83135C35.1589 3.83135 35.6388 3.35138 35.6388 2.7593C35.6388 2.16723 35.1589 1.68726 34.5668 1.68726C33.9747 1.68726 33.4948 2.16723 33.4948 2.7593C33.4948 3.35138 33.9747 3.83135 34.5668 3.83135Z" fill="white"/>
<path d="M153.621 2.02146H148.936C148.844 2.02072 148.756 1.98382 148.692 1.91881C148.627 1.8538 148.591 1.76594 148.591 1.67437C148.591 1.5828 148.627 1.49493 148.692 1.42992C148.756 1.36491 148.844 1.32801 148.936 1.32727H153.621C153.713 1.32801 153.801 1.36491 153.865 1.42992C153.929 1.49493 153.966 1.5828 153.966 1.67437C153.966 1.76594 153.929 1.8538 153.865 1.91881C153.801 1.98382 153.713 2.02072 153.621 2.02146Z" fill="white"/>
<path d="M153.621 3.32298H148.936C148.844 3.32298 148.755 3.28641 148.69 3.22132C148.625 3.15623 148.589 3.06794 148.589 2.97589C148.589 2.88383 148.625 2.79555 148.69 2.73046C148.755 2.66537 148.844 2.6288 148.936 2.6288H153.621C153.667 2.6284 153.713 2.63709 153.755 2.65436C153.798 2.67163 153.836 2.69713 153.869 2.7294C153.901 2.76167 153.927 2.80006 153.945 2.84237C153.962 2.88468 153.971 2.93005 153.971 2.97589C153.971 3.02172 153.962 3.0671 153.945 3.10941C153.927 3.15171 153.901 3.19011 153.869 3.22238C153.836 3.25465 153.798 3.28015 153.755 3.29742C153.713 3.31469 153.667 3.32337 153.621 3.32298Z" fill="white"/>
<path d="M153.621 4.62461H148.936C148.844 4.62461 148.755 4.58804 148.69 4.52295C148.625 4.45786 148.589 4.36957 148.589 4.27751C148.589 4.18546 148.625 4.09718 148.69 4.03208C148.755 3.96699 148.844 3.93042 148.936 3.93042H153.621C153.713 3.93042 153.802 3.96699 153.867 4.03208C153.932 4.09718 153.968 4.18546 153.968 4.27751C153.968 4.36957 153.932 4.45786 153.867 4.52295C153.802 4.58804 153.713 4.62461 153.621 4.62461Z" fill="white"/>
</g>
<defs>
<clipPath id="clip0_251_1264">
<rect width="205.656" height="150" fill="white"/>
</clipPath>
</defs>
</svg>
