<svg width="24" height="24" viewBox="0 0 24 24" fill="none" xmlns="http://www.w3.org/2000/svg">
<g clip-path="url(#clip0_412_2434)">
<path d="M10.5234 0.824998C9.55312 0.956249 8.67187 1.18594 7.75312 1.55156C7.24219 1.75781 7.125 1.85156 7.125 2.07187C7.125 2.24531 7.84219 3.675 7.97812 3.76875C8.12812 3.87656 8.18437 3.86719 8.70937 3.65625C9.72656 3.24844 10.8094 3.04687 12 3.04687C12.4406 3.04687 12.9703 3.075 13.2609 3.11719C17.2266 3.69844 20.3016 6.77344 20.8828 10.7391C20.9719 11.3812 20.9766 12.6234 20.8828 13.2422C20.6953 14.4937 20.2453 15.7359 19.6219 16.7062L19.4484 16.9828L18.825 16.3641C18.2297 15.7734 18.1969 15.75 18.0094 15.75C17.8734 15.75 17.7844 15.7781 17.7187 15.8437C17.6297 15.9328 17.625 15.9984 17.625 18.1875C17.625 20.3766 17.6297 20.4422 17.7187 20.5312C17.8078 20.6203 17.8734 20.625 20.0437 20.625C21.4078 20.625 22.3031 20.6062 22.3594 20.5781C22.4953 20.5031 22.5562 20.2687 22.4812 20.0953C22.4437 20.0109 22.1203 19.6547 21.7594 19.2937L21.1078 18.6469L21.3516 18.2859C22.1016 17.1891 22.6922 15.8203 22.9922 14.4844C23.3391 12.9562 23.3437 11.1281 23.0109 9.5625C22.8469 8.80312 22.4766 7.75781 22.1016 7.00781C20.4187 3.60937 17.2031 1.31719 13.4391 0.820312C12.7547 0.731248 11.1844 0.731248 10.5234 0.824998Z" fill="#613EEA"/>
<path d="M1.6265 3.43125C1.49056 3.53906 1.44368 3.73594 1.51868 3.90469C1.55618 3.98906 1.87962 4.34531 2.23587 4.70156L2.88743 5.34844L2.55931 5.85469C1.739 7.09688 1.15775 8.56406 0.89056 10.0781C0.75931 10.8094 0.707747 12.4781 0.792122 13.2234C1.19056 16.7156 3.14525 19.7953 6.12181 21.6188C7.289 22.3359 8.68587 22.8656 10.0781 23.1094C10.8093 23.2406 12.4781 23.2922 13.2234 23.2078C14.264 23.0859 15.3468 22.8141 16.3124 22.4203C17.0109 22.1391 17.0249 22.0359 16.5234 21.0563C16.1671 20.3672 16.0077 20.1563 15.8484 20.1563C15.7968 20.1563 15.5484 20.2406 15.2952 20.3391C14.2452 20.7563 13.1906 20.9531 11.9999 20.9531C11.1374 20.9531 10.4999 20.8734 9.71243 20.6719C6.71243 19.8938 4.2515 17.4984 3.39837 14.5266C3.11243 13.5328 3.07025 13.2234 3.07025 11.9766C3.07493 10.9359 3.08431 10.8094 3.19681 10.2609C3.42181 9.225 3.78275 8.27344 4.26556 7.46719C4.4015 7.24219 4.52337 7.04531 4.53275 7.03594C4.54212 7.02188 4.82806 7.29375 5.17493 7.63125C5.7515 8.20313 5.81243 8.25 5.97181 8.25C6.21556 8.25 6.314 8.18438 6.37493 7.97813C6.44056 7.74375 6.44056 3.88125 6.37493 3.64688C6.34681 3.54844 6.28587 3.45 6.23431 3.42188C6.09837 3.34688 1.72493 3.35625 1.6265 3.43125Z" fill="#613EEA"/>
<path d="M15.1908 10.1828L14.8608 11.3773H8.7998L9.12523 10.1828H15.1908ZM12.0405 16.8L8.94896 13.3023L8.95348 12.2281H10.4812C10.8217 12.2281 11.1064 12.168 11.3354 12.0477C11.5644 11.9273 11.7362 11.7641 11.8507 11.5578C11.9652 11.3516 12.0239 11.1167 12.0269 10.8531C12.0239 10.4578 11.9019 10.1355 11.6608 9.88633C11.4228 9.63424 11.0296 9.5082 10.4812 9.5082H8.7998L9.17043 8H10.4812C11.2495 8 11.8898 8.11029 12.4021 8.33086C12.9173 8.54857 13.303 8.85938 13.5591 9.26328C13.8183 9.66719 13.9493 10.1484 13.9523 10.707C13.9493 11.2026 13.862 11.6352 13.6902 12.0047C13.5215 12.3742 13.2548 12.6822 12.8902 12.9285C12.5286 13.1749 12.0571 13.3582 11.4755 13.4785L11.4032 13.5043L14.1693 16.7227V16.8H12.0405ZM15.1998 8L14.8608 9.21172H9.87099L10.21 8H15.1998Z" fill="#613EEA"/>
</g>
<defs>
<clipPath id="clip0_412_2434">
<rect width="24" height="24" fill="white"/>
</clipPath>
</defs>
</svg>
