<svg width="32" height="32" viewBox="0 0 32 32" fill="none" xmlns="http://www.w3.org/2000/svg">
<path d="M12.5364 1.21679C11.4641 2.11326 1.12247 11.3475 1.06974 11.4647C0.934976 11.7576 0.98185 12.0565 1.19864 12.2967L1.39786 12.5135L2.75135 12.5311L4.10485 12.5487V18.2146C4.10485 23.7282 4.11071 23.8864 4.22204 24.068C4.43883 24.4313 4.49156 24.4371 6.50716 24.4371H8.32354V26.6227C8.32354 29.0425 8.34697 29.2418 8.69267 29.8218C8.93876 30.2261 9.31376 30.5601 9.78836 30.7886L10.1692 30.9703L19.5851 30.9878C28.9951 30.9995 29.001 30.9995 29.3232 30.8765C30.0088 30.6246 30.5713 30.0855 30.8291 29.4351L30.9697 29.0953L30.9873 24.0914C30.999 19.6208 30.9931 19.0525 30.9052 18.7595C30.6533 17.8923 29.9619 17.2244 29.0947 17.0193C28.8135 16.9548 28.0811 16.9373 25.4209 16.9373H22.0929V14.74V12.5428H23.3995C24.5713 12.5428 24.7178 12.5311 24.8819 12.4315C25.2393 12.2147 25.3506 11.6815 25.1045 11.3592C25.0049 11.2245 14.3938 1.82029 13.7317 1.27538C13.427 1.02929 13.3625 0.999992 13.0989 0.999992C12.8469 0.999992 12.7649 1.02929 12.5364 1.21679ZM17.9269 7.00576L22.4386 10.9901L21.7706 11.0194C21.0206 11.0545 20.8566 11.1248 20.6749 11.494C20.5812 11.6756 20.5694 11.9334 20.5694 14.3123V16.9314L15.4309 16.949L10.2864 16.9666L9.91726 17.1189C9.23759 17.406 8.79228 17.8513 8.50518 18.531L8.35283 18.9001L8.33526 20.904L8.31182 22.9137H6.97004H5.62827V17.2712C5.62827 11.7869 5.62241 11.6287 5.51108 11.4471C5.31186 11.119 5.1478 11.0545 4.43883 11.0194L3.79431 10.9901L8.44072 6.87686L13.0871 2.76364L13.2512 2.89254C13.3391 2.96285 15.4426 4.81439 17.9269 7.00576ZM28.9365 18.4841C29.3994 18.7243 29.5342 19.07 29.5342 19.9841V20.6872H19.6906H9.84695V19.9431C9.84695 19.0525 9.9407 18.7888 10.3333 18.5486L10.5794 18.4021H19.6788C27.3779 18.4021 28.8017 18.4138 28.9365 18.4841ZM29.5342 23.0309V23.734H19.7491H9.96414V23.0309V22.3278H19.7491H29.5342V23.0309ZM29.5224 27.0328C29.5049 28.8023 29.5049 28.814 29.3642 29.0191C29.2881 29.1304 29.1299 29.2886 29.0185 29.3648L28.8076 29.5054L19.8195 29.523C13.8723 29.5289 10.7551 29.5171 10.6087 29.4761C10.3157 29.4 10.1048 29.2242 9.96414 28.9429C9.85281 28.7379 9.84695 28.5972 9.84695 26.9859V25.2574H19.6964H29.54L29.5224 27.0328Z" fill="#38004D"/>
<path d="M4.47412 1.23437C4.09913 1.45702 4.10499 1.42772 4.10499 4.2812V6.85928H4.86669H5.6284V4.74994V2.6406H7.03463H8.44086V2.81637V2.99215H9.20257H9.96427V2.35935C9.96427 1.6328 9.88224 1.39843 9.54826 1.22265C9.36663 1.12304 9.16741 1.11718 7.00533 1.11718C4.78466 1.11718 4.6499 1.12304 4.47412 1.23437Z" fill="#613EEA"/>
</svg>
