<?xml version="1.0" encoding="UTF-8"?>
<svg version="1.1" xmlns="http://www.w3.org/2000/svg" width="50" height="50">
<path d="M0 0 C1.084021 0.00523682 2.16804199 0.01047363 3.28491211 0.01586914 C5.03964844 0.02070313 5.03964844 0.02070313 6.82983398 0.02563477 C8.0615332 0.03401367 9.29323242 0.04239258 10.56225586 0.05102539 C12.41560547 0.05779297 12.41560547 0.05779297 14.30639648 0.06469727 C17.37089703 0.07652931 20.43530307 0.09301366 23.49975586 0.11352539 C24.17130519 1.40266026 24.83684445 2.69492743 25.49975586 3.98852539 C25.87100586 4.70782227 26.24225586 5.42711914 26.62475586 6.16821289 C27.49975586 8.11352539 27.49975586 8.11352539 27.49975586 10.11352539 C28.81975586 10.11352539 30.13975586 10.11352539 31.49975586 10.11352539 C31.49975586 12.09352539 31.49975586 14.07352539 31.49975586 16.11352539 C30.50975586 16.11352539 29.51975586 16.11352539 28.49975586 16.11352539 C28.49975586 21.39352539 28.49975586 26.67352539 28.49975586 32.11352539 C25.52975586 32.11352539 22.55975586 32.11352539 19.49975586 32.11352539 C19.49975586 30.79352539 19.49975586 29.47352539 19.49975586 28.11352539 C13.55975586 28.11352539 7.61975586 28.11352539 1.49975586 28.11352539 C1.49975586 29.43352539 1.49975586 30.75352539 1.49975586 32.11352539 C-1.47024414 32.11352539 -4.44024414 32.11352539 -7.50024414 32.11352539 C-7.50024414 26.83352539 -7.50024414 21.55352539 -7.50024414 16.11352539 C-8.49024414 16.11352539 -9.48024414 16.11352539 -10.50024414 16.11352539 C-10.50024414 14.13352539 -10.50024414 12.15352539 -10.50024414 10.11352539 C-9.18024414 10.11352539 -7.86024414 10.11352539 -6.50024414 10.11352539 C-6.2952832 9.47543945 -6.09032227 8.83735352 -5.87915039 8.17993164 C-5.60973633 7.35364258 -5.34032227 6.52735352 -5.06274414 5.67602539 C-4.66249023 4.44045898 -4.66249023 4.44045898 -4.25415039 3.17993164 C-3.146104 0.14285112 -3.146104 0.14285112 0 0 Z M-1.01977539 3.96508789 C-2.68113191 6.37602744 -3.17890926 8.22151145 -3.50024414 11.11352539 C-0.54111002 12.09990343 1.41374484 12.24241309 4.49975586 12.24633789 C5.46913086 12.24762695 6.43850586 12.24891602 7.43725586 12.25024414 C8.44788086 12.24637695 9.45850586 12.24250977 10.49975586 12.23852539 C12.01569336 12.24432617 12.01569336 12.24432617 13.56225586 12.25024414 C14.53163086 12.24895508 15.50100586 12.24766602 16.49975586 12.24633789 C17.38663086 12.24520996 18.27350586 12.24408203 19.18725586 12.24291992 C21.65976871 12.20615099 21.65976871 12.20615099 24.49975586 11.11352539 C23.40189161 5.70565154 23.40189161 5.70565154 19.49975586 2.11352539 C16.53546971 1.66717584 13.55670247 1.74325969 10.56225586 1.73852539 C9.34505859 1.70178711 9.34505859 1.70178711 8.10327148 1.66430664 C3.1989149 1.63139062 3.1989149 1.63139062 -1.01977539 3.96508789 Z M-7.50024414 12.11352539 C-7.50024414 12.77352539 -7.50024414 13.43352539 -7.50024414 14.11352539 C-6.84024414 14.11352539 -6.18024414 14.11352539 -5.50024414 14.11352539 C-5.50024414 18.07352539 -5.50024414 22.03352539 -5.50024414 26.11352539 C5.05975586 26.11352539 15.61975586 26.11352539 26.49975586 26.11352539 C26.49975586 22.15352539 26.49975586 18.19352539 26.49975586 14.11352539 C27.15975586 14.11352539 27.81975586 14.11352539 28.49975586 14.11352539 C28.00475586 13.12352539 28.00475586 13.12352539 27.49975586 12.11352539 C26.83975586 12.44352539 26.17975586 12.77352539 25.49975586 13.11352539 C23.28402073 13.21126485 21.06530097 13.24429952 18.84741211 13.24633789 C17.86350746 13.24777298 17.86350746 13.24777298 16.85972595 13.24923706 C15.47191268 13.24991773 14.08409622 13.24807131 12.69628906 13.24389648 C10.57406433 13.23855511 8.45205205 13.24384079 6.32983398 13.25024414 C4.98152623 13.24958317 3.6332186 13.24830162 2.28491211 13.24633789 C1.05651611 13.24520996 -0.17187988 13.24408203 -1.4375 13.24291992 C-4.50024414 13.11352539 -4.50024414 13.11352539 -7.50024414 12.11352539 Z M-5.50024414 28.11352539 C-5.17024414 28.77352539 -4.84024414 29.43352539 -4.50024414 30.11352539 C-3.18024414 29.78352539 -1.86024414 29.45352539 -0.50024414 29.11352539 C-0.50024414 28.78352539 -0.50024414 28.45352539 -0.50024414 28.11352539 C-2.15024414 28.11352539 -3.80024414 28.11352539 -5.50024414 28.11352539 Z M21.49975586 28.11352539 C21.82975586 28.77352539 22.15975586 29.43352539 22.49975586 30.11352539 C23.81975586 29.78352539 25.13975586 29.45352539 26.49975586 29.11352539 C26.49975586 28.78352539 26.49975586 28.45352539 26.49975586 28.11352539 C24.84975586 28.11352539 23.19975586 28.11352539 21.49975586 28.11352539 Z " fill="#229E26" transform="translate(14.500244140625,17.886474609375)"/>
<path d="M0 0 C0.99 0.66 1.98 1.32 3 2 C3 2.66 3 3.32 3 4 C3.99902344 3.98839844 4.99804688 3.97679687 6.02734375 3.96484375 C7.31769531 3.95582031 8.60804687 3.94679687 9.9375 3.9375 C11.22527344 3.92589844 12.51304688 3.91429687 13.83984375 3.90234375 C17 4 17 4 18 5 C18.125 8 18.125 8 18 11 C17 12 17 12 13.83984375 12.09765625 C11.90818359 12.08025391 11.90818359 12.08025391 9.9375 12.0625 C8.64714844 12.05347656 7.35679688 12.04445313 6.02734375 12.03515625 C5.02832031 12.02355469 4.02929688 12.01195312 3 12 C2.67 12.99 2.34 13.98 2 15 C-1.20841035 16.60420518 -4.5193987 16.47462745 -8 16 C-10.5 14.5 -10.5 14.5 -12 12 C-12.791013 7.97901723 -12.62153384 5.03588973 -10.5 1.5 C-6.77354157 -0.73587506 -4.32088243 -0.41151261 0 0 Z M-9 5 C-9.33333333 8 -9.33333333 8 -9 11 C-7.11499729 13.31563087 -7.11499729 13.31563087 -4 13.25 C-0.88500271 13.31563087 -0.88500271 13.31563087 1 11 C1.33333333 8 1.33333333 8 1 5 C-0.88500271 2.68436913 -0.88500271 2.68436913 -4 2.75 C-7.11499729 2.68436913 -7.11499729 2.68436913 -9 5 Z M4 7 C4 7.99 4 8.98 4 10 C7.3 10 10.6 10 14 10 C14.33 9.01 14.66 8.02 15 7 C11.37 7 7.74 7 4 7 Z " fill="#219E26" transform="translate(22,0)"/>
<path d="M0 0 C2.5 0.125 2.5 0.125 3.5 1.125 C3.625 3.625 3.625 3.625 3.5 6.125 C2.5 7.125 2.5 7.125 0 7.25 C-2.5 7.125 -2.5 7.125 -3.5 6.125 C-3.625 3.625 -3.625 3.625 -3.5 1.125 C-2.5 0.125 -2.5 0.125 0 0 Z " fill="#219E27" transform="translate(35.5,34.875)"/>
<path d="M0 0 C2.5 0.125 2.5 0.125 3.5 1.125 C3.625 3.625 3.625 3.625 3.5 6.125 C2.5 7.125 2.5 7.125 0 7.25 C-2.5 7.125 -2.5 7.125 -3.5 6.125 C-3.625 3.625 -3.625 3.625 -3.5 1.125 C-2.5 0.125 -2.5 0.125 0 0 Z " fill="#219E27" transform="translate(14.5,34.875)"/>
<path d="M0 0 C1.32 0 2.64 0 4 0 C4 1.32 4 2.64 4 4 C2.68 4 1.36 4 0 4 C0 2.68 0 1.36 0 0 Z " fill="#219F26" transform="translate(14,6)"/>
</svg>
