<svg width="23" height="16" viewBox="0 0 23 16" fill="none" xmlns="http://www.w3.org/2000/svg">
<path d="M15.8018 11.852C15.5391 12.0245 15.2989 12.2291 15.0869 12.461C14.1557 13.3063 13.233 14.1609 12.3047 15.0091C12.2763 15.0583 12.2345 15.0985 12.1842 15.1249C12.1339 15.1513 12.0771 15.1629 12.0205 15.1583L16.3316 0.0935364L18.1901 3.58835C18.8308 4.82067 19.4596 6.05902 20.1201 7.2804C20.1619 7.33081 20.1924 7.38959 20.2096 7.45279C20.2268 7.51599 20.2303 7.58214 20.2198 7.64679C20.2093 7.71144 20.1851 7.77309 20.1488 7.8276C20.1124 7.8821 20.0649 7.92819 20.0092 7.96278C18.6125 9.22244 17.2351 10.504 15.851 11.7778C15.8422 11.7792 15.8337 11.7825 15.8262 11.7873C15.8186 11.7921 15.8121 11.7984 15.807 11.8058C15.8019 11.8132 15.7983 11.8215 15.7965 11.8303C15.7946 11.8391 15.7946 11.8481 15.7963 11.8569L15.8018 11.852Z" fill="#38004D"/>
<path d="M15.8519 11.778C17.2359 10.504 18.6131 9.22244 20.0101 7.96248C20.0657 7.9279 20.1133 7.88181 20.1496 7.8273C20.1859 7.7728 20.2102 7.71115 20.2207 7.6465C20.2312 7.58185 20.2277 7.5157 20.2105 7.4525C20.1933 7.3893 20.1628 7.33051 20.1209 7.2801C19.4604 6.05902 18.8316 4.82066 18.191 3.58835L18.9848 0.890504L19.0625 0.62619C19.1015 0.636002 19.1366 0.657608 19.1629 0.68806C19.1891 0.718512 19.2054 0.756329 19.2094 0.796353C20.4513 3.16462 21.6928 5.53318 22.934 7.90202C22.9592 7.93125 22.978 7.9655 22.9892 8.00251C23.0003 8.03953 23.0035 8.07847 22.9985 8.1168C22.9935 8.15513 22.9805 8.19197 22.9603 8.22492C22.9401 8.25787 22.9132 8.28618 22.8813 8.30799C20.2304 10.7285 17.5835 13.1532 14.9403 15.5821C14.9174 15.6039 14.8903 15.6207 14.8605 15.6315C14.8308 15.6422 14.7991 15.6467 14.7676 15.6446C14.856 15.3307 14.9432 15.0166 15.0328 14.7031C15.2798 13.8393 15.5294 12.9767 15.7727 12.1123C15.7974 12.0742 15.8129 12.0308 15.818 11.9857C15.8232 11.9405 15.8178 11.8948 15.8024 11.852L15.7972 11.8569C15.8692 11.8676 15.8473 11.8137 15.8519 11.778Z" fill="#613EEA"/>
<path d="M9.74314 5.16523L9.27628 6.70179H0.700195L1.16066 5.16523H9.74314ZM5.28562 13.6771L0.91124 9.17796L0.917635 7.79617H3.07924C3.56102 7.79617 3.96393 7.71879 4.28795 7.56403C4.61198 7.40927 4.855 7.19923 5.01702 6.93393C5.17903 6.66862 5.26217 6.36647 5.26644 6.02747C5.26217 5.51897 5.0895 5.10443 4.74842 4.78385C4.4116 4.45959 3.85521 4.29746 3.07924 4.29746H0.700195L1.22461 2.35742H3.07924C4.16644 2.35742 5.07244 2.49929 5.79724 2.78301C6.52631 3.06306 7.07204 3.46286 7.43444 3.98241C7.8011 4.50197 7.98657 5.12101 7.99083 5.83955C7.98657 6.47702 7.86292 7.03342 7.6199 7.50876C7.38115 7.98409 7.00382 8.38021 6.48794 8.6971C5.97631 9.01399 5.30907 9.24982 4.48621 9.40458L4.38388 9.43774L8.2978 13.5776V13.6771H5.28562ZM9.75593 2.35742L9.27628 3.91609H2.21588L2.69553 2.35742H9.75593Z" fill="#613EEA"/>
</svg>
