<svg width="32" height="32" viewBox="0 0 32 32" fill="none" xmlns="http://www.w3.org/2000/svg">
<path d="M16.0313 0.156249L15.875 0.306249V3.01875V5.73125L16.0313 5.875C16.2313 6.0625 16.5188 6.0625 16.7188 5.875L16.875 5.73125V3.01875V0.306249L16.7188 0.156249C16.625 0.0562495 16.4938 -5.37839e-07 16.375 -5.37839e-07C16.2563 -5.37839e-07 16.125 0.0562495 16.0313 0.156249Z" fill="#38004D"/>
<path d="M12.0938 2.7813L11.9375 2.9313V4.3313V5.7313L12.0938 5.87505C12.1875 5.96255 12.325 6.0188 12.4375 6.0188C12.55 6.0188 12.6875 5.96255 12.7813 5.87505L12.9375 5.7313V4.3313V2.9313L12.7813 2.7813C12.6875 2.6813 12.5563 2.62505 12.4375 2.62505C12.3188 2.62505 12.1875 2.6813 12.0938 2.7813Z" fill="#38004D"/>
<path d="M19.9688 2.78127L19.8125 2.93127V4.32502C19.8188 5.82502 19.825 5.87502 20.1438 5.99377C20.3375 6.06877 20.475 6.03127 20.675 5.85627C20.8125 5.73127 20.8125 5.70002 20.8125 4.33127V2.93127L20.6563 2.78127C20.5625 2.68127 20.4313 2.62502 20.3125 2.62502C20.1938 2.62502 20.0625 2.68127 19.9688 2.78127Z" fill="#38004D"/>
<path d="M15.1251 7.09378C12.7376 7.50003 10.6376 9.05628 9.56885 11.2188C9.01885 12.325 8.7876 13.3188 8.7876 14.5938C8.7876 16.6188 9.48135 18.375 10.8563 19.8188C13.4313 22.5313 17.5001 22.9688 20.6563 20.8875C20.9001 20.7313 21.3813 20.3188 21.7251 19.9688C22.8751 18.8313 23.5751 17.5063 23.8813 15.875C23.9813 15.35 23.9813 13.8313 23.8813 13.3188C23.3313 10.475 21.4313 8.26878 18.7626 7.37503C17.7001 7.01878 16.2313 6.90628 15.1251 7.09378ZM17.4751 8.13128C18.8813 8.38128 20.0938 9.03128 21.1001 10.075C21.8938 10.9 22.4313 11.8563 22.7313 12.9875C22.8751 13.5188 22.8938 13.7188 22.8938 14.5938C22.8938 15.4813 22.8751 15.6688 22.7313 16.2188C21.8876 19.3688 19.0126 21.3938 15.7626 21.1188C12.3126 20.825 9.6501 17.7563 9.83135 14.2875C9.9876 11.275 12.1126 8.80003 15.0938 8.16878C15.6126 8.05628 16.9438 8.03753 17.4751 8.13128Z" fill="#38004D"/>
<path d="M16.0938 9.7C15.875 9.81875 15.8125 9.95 15.8125 10.3188V10.6688L15.5375 10.775C14.7313 11.0813 14.125 11.975 14.125 12.85C14.125 13.5188 14.5625 14.325 15.1125 14.675C15.525 14.9438 15.7125 15.0063 16.2688 15.0688C16.825 15.1375 17.0438 15.225 17.2688 15.4938C17.925 16.275 17.3938 17.4375 16.375 17.4375C15.75 17.4375 15.2938 17.0313 15.1938 16.3688C15.1 15.7875 14.6688 15.575 14.3063 15.9313C14.0937 16.1438 14.0812 16.3063 14.2188 16.8438C14.3938 17.5125 14.9813 18.1625 15.6125 18.3813C15.8063 18.45 15.8125 18.4625 15.8125 18.7938C15.8125 19.2063 15.875 19.3313 16.125 19.4375C16.275 19.5 16.35 19.5 16.5 19.4375C16.75 19.3375 16.8125 19.2063 16.8125 18.8125C16.8125 18.5688 16.8375 18.4875 16.925 18.4625C18.1438 18.0563 18.8313 16.9063 18.5375 15.75C18.2875 14.7875 17.5938 14.1875 16.5813 14.0625C15.9688 13.9813 15.8938 13.9563 15.6313 13.7688C14.8625 13.1875 15.15 11.9438 16.1125 11.6938C16.7938 11.5063 17.5563 12.0875 17.5625 12.8C17.5625 13.0625 17.85 13.375 18.0938 13.375C18.3188 13.375 18.625 13.0625 18.625 12.8313C18.625 12.4875 18.4313 11.9063 18.2125 11.5813C17.9438 11.1875 17.6563 10.9625 17.1938 10.775L16.8438 10.6313L16.825 10.3313C16.8063 9.9625 16.7188 9.7875 16.5188 9.69375C16.3313 9.60625 16.2563 9.6125 16.0938 9.7Z" fill="#613EEA"/>
<path d="M2.38744 21.55C2.31244 21.625 2.23744 21.75 2.22494 21.825C2.15619 22.1375 1.94994 31.1437 2.00619 31.2937C2.11244 31.5812 2.31244 31.6062 4.65619 31.6562L6.84369 31.7L6.98744 31.5437C7.08744 31.4375 7.14994 31.275 7.17494 31.0562L7.21869 30.7312L7.93744 30.3562C9.00619 29.8062 8.76869 29.7812 12.8124 30.9187C14.6562 31.4375 16.3999 31.9 16.6874 31.9437C17.2562 32.025 18.3062 31.9937 18.8749 31.875C19.9124 31.6625 20.3124 31.4687 22.0499 30.35C28.4437 26.225 29.7999 25.3437 29.9562 25.2C30.1874 24.9812 30.1812 24.725 29.9312 24.35C29.6812 23.9812 29.3124 23.675 28.8374 23.4562C28.3562 23.2375 27.4937 23.1812 27.0124 23.3375C26.8374 23.4 25.7437 23.8937 24.5812 24.4437C22.7062 25.3312 22.4624 25.4312 22.4062 25.3375C21.9374 24.5437 21.0749 23.9375 20.1312 23.75C19.9749 23.7187 18.8437 23.6625 17.6187 23.625C15.0499 23.55 14.8437 23.5187 13.8187 23C12.5249 22.3562 11.6062 22.15 10.2312 22.2062C9.31869 22.2375 8.76869 22.3625 7.89369 22.7125L7.35619 22.925L7.39369 22.4875C7.44369 21.9187 7.34369 21.6625 7.04994 21.575C6.93744 21.5375 5.88119 21.4875 4.68119 21.4625C2.53744 21.425 2.51244 21.425 2.38744 21.55ZM6.34369 22.5812C6.34994 22.5875 6.29994 24.2812 6.24369 26.3437C6.18119 28.4062 6.13119 30.2187 6.13119 30.3687L6.12494 30.6437L4.58119 30.6C3.73119 30.575 3.03119 30.55 3.02494 30.5437C3.01244 30.5312 3.23119 22.6062 3.24369 22.5062C3.24994 22.4812 6.33119 22.55 6.34369 22.5812ZM11.9874 23.4125C12.3374 23.5 12.9187 23.725 13.4249 23.9625C14.6249 24.5312 14.7624 24.5625 16.5624 24.6312C19.9437 24.7625 20.0562 24.7687 20.4499 24.95C20.9249 25.1687 21.3312 25.5625 21.5624 26.0187C21.8624 26.6187 21.9124 26.5875 20.6437 26.5437C20.0312 26.5187 18.7187 26.4812 17.7187 26.4625C15.9562 26.4187 15.8999 26.425 15.7499 26.55C15.5374 26.7187 15.5312 27.15 15.7374 27.3125C15.9187 27.4625 16.2124 27.4812 19.6562 27.5687L22.5249 27.6375L22.7062 27.4375C22.8749 27.25 22.8874 27.2 22.8624 26.8312L22.8437 26.4312L25.0124 25.4062C26.2062 24.8375 27.3062 24.35 27.4562 24.3125C27.6062 24.2812 27.8374 24.2687 27.9749 24.2937C28.2687 24.3375 28.8312 24.6062 28.7999 24.6875C28.7812 24.7562 20.2874 30.2562 19.9249 30.4437C19.7999 30.5062 19.4499 30.6375 19.1437 30.7312C18.6437 30.8812 18.4999 30.9 17.5624 30.9H16.5312L13.1874 29.9437C8.99994 28.7437 8.85619 28.725 7.71244 29.2937C7.45619 29.4187 7.24369 29.5125 7.23119 29.4937C7.19994 29.4625 7.34994 24.1937 7.38119 24.1625C7.49369 24.0562 8.31244 23.6562 8.66869 23.5375C9.74369 23.1687 10.8562 23.1312 11.9874 23.4125Z" fill="#38004D"/>
</svg>
