<svg width="30" height="30" viewBox="0 0 30 30" fill="none" xmlns="http://www.w3.org/2000/svg">
<path d="M26.724 10.8824C26.7271 11.0627 26.6997 11.2151 26.6245 11.355C26.55 11.4936 26.4333 11.6111 26.2738 11.7301C26.2735 11.7303 26.2732 11.7305 26.2729 11.7307L26.1115 11.8563L26.0844 11.8774H26.0501H15.0007H3.95131H3.917L3.88992 11.8563L3.72785 11.7303C3.28692 11.4055 3.13018 10.9217 3.3472 10.4664C3.38113 10.3925 3.45784 10.3137 3.60664 10.1939C3.76042 10.0701 4.00636 9.89124 4.39952 9.61857C5.18656 9.0727 6.57243 8.14476 9.01273 6.51689L9.01279 6.51685C10.5322 5.50489 11.9279 4.57901 12.952 3.90231C13.464 3.56397 13.8832 3.28788 14.1787 3.09445C14.3264 2.99775 14.4433 2.92161 14.5254 2.86865C14.5664 2.84219 14.5991 2.82136 14.6226 2.80659C14.642 2.79441 14.6634 2.78102 14.6754 2.77557L14.6753 2.7755L15.3269 2.89077L15.3658 2.79864C15.3659 2.79869 15.3661 2.79875 15.3662 2.79881C15.3995 2.81294 15.4716 2.85567 15.5675 2.91492C15.6678 2.97688 15.803 3.06267 15.9678 3.16872C16.2976 3.38089 16.7473 3.67508 17.2762 4.02384C18.334 4.72142 19.7091 5.63795 21.0757 6.5548C22.4423 7.47164 23.8005 8.38893 24.8243 9.08804C25.3362 9.43755 25.7647 9.73272 26.069 9.94607C26.2211 10.0527 26.3426 10.1392 26.4282 10.202C26.4708 10.2333 26.5052 10.2593 26.5303 10.2791C26.5427 10.289 26.5537 10.298 26.5625 10.3059L26.5629 10.3062C26.5687 10.3113 26.5829 10.3239 26.5929 10.3392L26.5938 10.3406C26.6796 10.4765 26.7239 10.672 26.724 10.8824ZM26.724 10.8824C26.724 10.8821 26.724 10.8818 26.724 10.8815L26.624 10.8833H26.724C26.724 10.883 26.724 10.8827 26.724 10.8824ZM24.1249 10.3785L19.6876 7.42031C18.3918 6.55645 17.2108 5.77116 16.3516 5.20262C15.922 4.91834 15.5729 4.68834 15.3302 4.52983C15.2088 4.45054 15.1143 4.38932 15.0497 4.3482C15.0311 4.33638 15.0152 4.32634 15.0019 4.31806C14.9883 4.32678 14.9718 4.33736 14.9526 4.34978C14.888 4.39159 14.7936 4.45339 14.6725 4.53312C14.4304 4.69253 14.0822 4.92314 13.6537 5.20781C12.7967 5.77712 11.6188 6.56243 10.326 7.4263L10.3259 7.42634L5.90046 10.3785H15.0128H24.1249ZM14.7168 2.86661C14.6503 2.89681 12.107 4.57627 9.06822 6.60008L14.7168 2.86661Z" fill="#38004D" stroke="#38004D" stroke-width="0.2"/>
<path d="M7.57616 13.1729L7.62148 13.0838C7.62538 13.0858 7.6293 13.0878 7.63323 13.0898C7.71585 13.1316 7.80437 13.1764 7.86835 13.2849C7.93095 13.391 7.96532 13.5487 7.98766 13.8046C8.03259 14.3194 8.03259 15.3038 8.03259 17.2662V17.281C8.03259 17.3449 8.03259 17.4079 8.03259 17.4698C8.03264 19.3365 8.03267 20.2744 7.98531 20.7658C7.96105 21.0175 7.92316 21.1723 7.8519 21.2761C7.78461 21.374 7.69275 21.4164 7.60786 21.4556C7.59952 21.4595 7.59125 21.4633 7.58308 21.4671C7.46247 21.5259 7.36845 21.5675 7.26805 21.5675C7.16766 21.5675 7.07364 21.5259 6.95303 21.4671C6.94485 21.4633 6.93657 21.4595 6.92823 21.4556C6.84336 21.4164 6.75152 21.3741 6.68424 21.2762C6.61296 21.1726 6.57507 21.0179 6.5508 20.7665C6.50344 20.2759 6.50347 19.3394 6.50352 17.4756C6.50352 17.4138 6.50352 17.3509 6.50352 17.287C6.50352 16.0304 6.50805 15.1174 6.51864 14.5018C6.52393 14.1941 6.53075 13.9598 6.53933 13.7936C6.54362 13.7106 6.5484 13.6435 6.55379 13.5923C6.55878 13.5449 6.56517 13.5008 6.57599 13.471L6.57597 13.471L6.57677 13.469C6.603 13.4015 6.64901 13.3304 6.70013 13.2686C6.7514 13.2065 6.81315 13.1474 6.87542 13.1071L6.8754 13.1071L6.87797 13.1055C7.00166 13.0306 7.11978 12.9861 7.24548 12.9824C7.37111 12.9787 7.49266 13.0162 7.62264 13.0844L7.57616 13.1729ZM7.57616 13.1729C7.33451 13.0461 7.15931 13.0521 6.92975 13.1911M7.57616 13.1729C7.62672 13.1986 7.67011 13.2202 7.70735 13.2496C7.93259 13.4273 7.93259 13.8905 7.93259 17.281C7.93259 20.6229 7.93682 21.1088 7.70448 21.2881C7.6592 21.3231 7.60494 21.3464 7.53991 21.3769C7.29222 21.4977 7.24389 21.4977 6.9962 21.3769L6.92975 13.1911M6.92975 13.1911C6.82705 13.2575 6.71226 13.3965 6.66997 13.5052L6.92975 13.1911Z" fill="#38004D" stroke="#38004D" stroke-width="0.2"/>
<path d="M23.042 13.1729L23.0873 13.0838C23.0912 13.0858 23.0951 13.0878 23.0991 13.0898C23.1817 13.1316 23.2702 13.1764 23.3342 13.2849C23.3968 13.391 23.4311 13.5487 23.4535 13.8046C23.4984 14.3194 23.4984 15.3038 23.4984 17.2662V17.281C23.4984 17.3449 23.4984 17.4079 23.4984 17.4698C23.4985 19.3365 23.4985 20.2744 23.4511 20.7658C23.4269 21.0175 23.389 21.1723 23.3177 21.2761C23.2504 21.374 23.1586 21.4164 23.0737 21.4556C23.0653 21.4595 23.0571 21.4633 23.0489 21.4671C22.9283 21.5259 22.8343 21.5675 22.7339 21.5675C22.6335 21.5675 22.5395 21.5259 22.4188 21.4671C22.4107 21.4633 22.4024 21.4595 22.394 21.4556C22.3092 21.4164 22.2173 21.3741 22.1501 21.2762C22.0788 21.1726 22.0409 21.0179 22.0166 20.7665C21.9693 20.2759 21.9693 19.3394 21.9693 17.4756C21.9693 17.4138 21.9693 17.3509 21.9693 17.287C21.9693 16.0304 21.9739 15.1174 21.9845 14.5018C21.9898 14.1941 21.9966 13.9598 22.0052 13.7936C22.0094 13.7106 22.0142 13.6435 22.0196 13.5923C22.0246 13.5449 22.031 13.5008 22.0418 13.471L22.0418 13.471L22.0426 13.469C22.0688 13.4015 22.1148 13.3304 22.166 13.2686C22.2172 13.2065 22.279 13.1474 22.3412 13.1071L22.3412 13.1071L22.3438 13.1055C22.4675 13.0306 22.5856 12.9861 22.7113 12.9824C22.8369 12.9787 22.9585 13.0162 23.0885 13.0844L23.042 13.1729ZM23.042 13.1729C22.8003 13.0461 22.6251 13.0521 22.3956 13.1911M23.042 13.1729C23.0925 13.1986 23.1359 13.2202 23.1732 13.2496C23.3984 13.4273 23.3984 13.8905 23.3984 17.281C23.3984 20.6229 23.4026 21.1088 23.1703 21.2881C23.125 21.3231 23.0708 21.3464 23.0057 21.3769C22.758 21.4977 22.7097 21.4977 22.462 21.3769L22.3956 13.1911M22.3956 13.1911C22.2929 13.2575 22.1781 13.3965 22.1358 13.5052L22.3956 13.1911Z" fill="#38004D" stroke="#38004D" stroke-width="0.2"/>
<path d="M3.97861 24.8333L3.97861 24.8333L3.97855 24.8323C3.96309 24.5694 3.97506 24.35 4.02672 24.145C4.07853 23.9394 4.16893 23.7535 4.30379 23.5559C4.56868 23.1649 4.89365 22.9091 5.31394 22.7626C5.48758 22.7014 5.69294 22.6753 6.95607 22.6633C8.22845 22.6513 10.5883 22.6543 15.0916 22.6603L24.5159 22.6724L24.5391 22.6724L24.5599 22.6826L24.9037 22.8515C24.9038 22.8516 24.9039 22.8516 24.904 22.8517C25.2995 23.0431 25.6344 23.3795 25.8547 23.7948L25.8548 23.795C25.9156 23.9103 25.9548 24.0081 25.9775 24.1422C25.9994 24.2722 26.0053 24.4339 26.0053 24.6754C26.0053 24.9169 25.9994 25.0786 25.9775 25.2085C25.9548 25.3427 25.9156 25.4405 25.8548 25.5557L25.8547 25.5559C25.6344 25.9713 25.2995 26.3076 24.904 26.4991C24.9039 26.4991 24.9038 26.4992 24.9037 26.4992L24.5599 26.6681L24.5391 26.6784H24.5158H15.0009H5.48598H5.46275L5.44189 26.6681L5.09794 26.4992C5.09787 26.4991 5.09781 26.4991 5.09774 26.4991C4.43079 26.175 4.02936 25.5692 3.97861 24.8333ZM5.7497 24.1957C5.67461 24.2291 5.59539 24.3012 5.53378 24.3939C5.47083 24.4887 5.43495 24.592 5.43495 24.6754C5.43495 24.7619 5.47094 24.865 5.53475 24.9591C5.59701 25.0508 5.67906 25.124 5.76144 25.161C5.76307 25.1613 5.76558 25.1617 5.76915 25.1622C5.77975 25.1638 5.79508 25.1655 5.81568 25.1672C5.85671 25.1708 5.91429 25.1743 5.98798 25.1778C6.1351 25.1846 6.34272 25.1911 6.60266 25.197C7.12234 25.2089 7.84868 25.2188 8.7131 25.2267C10.4418 25.2426 12.7213 25.2505 15.0009 25.2505C17.2805 25.2505 19.56 25.2426 21.2887 25.2267C22.1531 25.2188 22.8795 25.2089 23.3991 25.197C23.6591 25.1911 23.8667 25.1846 24.0138 25.1778C24.0875 25.1743 24.1451 25.1708 24.1861 25.1672C24.2067 25.1655 24.2221 25.1638 24.2327 25.1622C24.2362 25.1617 24.2387 25.1613 24.2404 25.161C24.3227 25.124 24.4048 25.0508 24.4671 24.9591C24.5309 24.865 24.5669 24.7619 24.5669 24.6754C24.5669 24.5888 24.5309 24.4858 24.4671 24.3917C24.4048 24.3 24.3227 24.2268 24.2404 24.1898C24.2387 24.1895 24.2362 24.1891 24.2327 24.1886C24.2221 24.187 24.2067 24.1853 24.1861 24.1836C24.145 24.18 24.0873 24.1765 24.0135 24.1731C23.8662 24.1663 23.6583 24.1599 23.3979 24.154C22.8774 24.1423 22.15 24.1327 21.2843 24.125C19.5531 24.1097 17.2704 24.1025 14.9881 24.1033C12.7058 24.1041 10.4243 24.1127 8.69529 24.1292C7.83073 24.1374 7.1047 24.1475 6.58593 24.1596C6.32644 24.1656 6.11944 24.1721 5.9731 24.179C5.8998 24.1825 5.84268 24.186 5.80216 24.1895C5.7818 24.1913 5.7668 24.193 5.75656 24.1945C5.75345 24.195 5.75121 24.1954 5.7497 24.1957Z" fill="#38004D" stroke="#38004D" stroke-width="0.2"/>
<path d="M17.9929 15.7363L17.7352 16.6865H13L13.2542 15.7363H17.9929ZM15.5318 21L13.1165 18.2178L13.1201 17.3633H14.3136C14.5796 17.3633 14.802 17.3154 14.9809 17.2197C15.1598 17.124 15.294 16.9941 15.3835 16.8301C15.4729 16.666 15.5188 16.4792 15.5212 16.2695C15.5188 15.9551 15.4235 15.6987 15.2352 15.5005C15.0492 15.3 14.742 15.1997 14.3136 15.1997H13L13.2895 14H14.3136C14.9138 14 15.4141 14.0877 15.8143 14.2632C16.2168 14.4364 16.5181 14.6836 16.7182 15.0049C16.9207 15.3262 17.0231 15.709 17.0254 16.1533C17.0231 16.5475 16.9548 16.8916 16.8206 17.1855C16.6888 17.4795 16.4805 17.7244 16.1956 17.9204C15.9131 18.1164 15.5447 18.2622 15.0904 18.3579L15.0339 18.3784L17.1949 20.9385V21H15.5318ZM18 14L17.7352 14.9639H13.8369L14.1017 14H18Z" fill="#613EEA"/>
</svg>
