<svg width="20" height="20" viewBox="0 0 20 20" fill="none" xmlns="http://www.w3.org/2000/svg">
<path d="M3.3335 5.83333V5C3.3335 4.55797 3.50909 4.13405 3.82165 3.82149C4.13421 3.50893 4.55814 3.33333 5.00016 3.33333H6.66683" stroke="white" stroke-width="2" stroke-linecap="round" stroke-linejoin="round"/>
<path d="M3.3335 14.1667V15C3.3335 15.442 3.50909 15.8659 3.82165 16.1785C4.13421 16.4911 4.55814 16.6667 5.00016 16.6667H6.66683" stroke="white" stroke-width="2" stroke-linecap="round" stroke-linejoin="round"/>
<path d="M13.3335 3.33333H15.0002C15.4422 3.33333 15.8661 3.50893 16.1787 3.82149C16.4912 4.13405 16.6668 4.55797 16.6668 5V5.83333" stroke="white" stroke-width="2" stroke-linecap="round" stroke-linejoin="round"/>
<path d="M13.3335 16.6667H15.0002C15.4422 16.6667 15.8661 16.4911 16.1787 16.1785C16.4912 15.8659 16.6668 15.442 16.6668 15V14.1667" stroke="white" stroke-width="2" stroke-linecap="round" stroke-linejoin="round"/>
<path d="M4.16699 10H15.8337" stroke="white" stroke-width="2" stroke-linecap="round" stroke-linejoin="round"/>
</svg>
