<svg width="27" height="30" viewBox="0 0 27 30" fill="none" xmlns="http://www.w3.org/2000/svg">
<path d="M3.25615 1.1C2.1999 1.38125 1.3749 2.225 1.09365 3.29375C0.949902 3.83125 0.949902 26.1688 1.09365 26.7063C1.3749 27.7875 2.20615 28.625 3.28115 28.9063C3.83115 29.0438 18.1624 29.05 18.7062 28.9063C19.8187 28.6188 20.7062 27.7 20.9374 26.6063C20.9812 26.3875 20.9999 25.475 20.9874 23.95C20.9687 21.725 20.9624 21.625 20.8374 21.4625C20.7687 21.3688 20.6312 21.2313 20.5374 21.1625C20.3687 21.0313 20.3437 21.0313 11.6812 21.0125L2.9999 21L3.0124 12.3188C3.03115 3.65625 3.03115 3.63125 3.1624 3.4625C3.23115 3.36875 3.36865 3.23125 3.4624 3.1625C3.63115 3.03125 3.65615 3.03125 10.9999 3.03125C18.3437 3.03125 18.3687 3.03125 18.5374 3.1625C18.9124 3.4375 18.9687 3.58125 18.9874 4.31875L19.0124 5H20.0062H20.9999V4.325C20.9999 3.24375 20.7624 2.58125 20.1437 1.93125C19.7624 1.53125 19.2624 1.2375 18.7187 1.09375C18.1812 0.956253 3.7749 0.956253 3.25615 1.1ZM12.9999 25V26H10.9999H8.9999V25V24H10.9999H12.9999V25Z" fill="#613EEA"/>
<path d="M14.5938 7.0875C14.3625 7.1875 14.1562 7.4125 14.0688 7.64375C14.025 7.75625 14 8.59375 14 9.94375V12.0625H15H16V10.5312V9H17.5H19V8V7H16.8937C15.275 7.00625 14.7375 7.025 14.5938 7.0875Z" fill="#613EEA"/>
<path d="M21 8V9H22.5H24V10.5V12H25H26.0063L25.9875 9.81875C25.9688 7.725 25.9625 7.625 25.8375 7.4625C25.7688 7.36875 25.6313 7.23125 25.5375 7.1625C25.375 7.0375 25.275 7.03125 23.1813 7.0125L21 6.99375V8Z" fill="#613EEA"/>
<path d="M17.5936 10.0875C17.3374 10.2 17.0749 10.5188 17.0311 10.7688C17.0124 10.8813 16.9999 11.9563 17.0124 13.1688C17.0311 15.275 17.0374 15.375 17.1624 15.5375C17.2311 15.6313 17.3686 15.7688 17.4624 15.8375C17.6311 15.9625 17.7061 15.9688 19.9999 15.9688C22.2936 15.9688 22.3686 15.9625 22.5374 15.8375C22.6311 15.7688 22.7686 15.6313 22.8374 15.5375C22.9624 15.3688 22.9686 15.2938 22.9686 13C22.9686 10.7063 22.9624 10.6313 22.8374 10.4625C22.7686 10.3688 22.6311 10.2313 22.5374 10.1625C22.3749 10.0375 22.2811 10.0313 20.0749 10.0188C18.2624 10.0063 17.7436 10.0188 17.5936 10.0875Z" fill="#84A9FF"/>
<path d="M14.0124 16.1813C14.0312 18.275 14.0374 18.375 14.1624 18.5375C14.2312 18.6313 14.3687 18.7688 14.4624 18.8375C14.6249 18.9625 14.7249 18.9688 16.8812 18.9875L19.1249 19.0063V18V17H17.5624H15.9999V15.5V14H14.9999H13.9937L14.0124 16.1813Z" fill="#613EEA"/>
<path d="M24 15.5V17H22.4688H20.9375V18V19.0063L23.15 18.9875C25.275 18.9688 25.375 18.9625 25.5375 18.8375C25.6313 18.7688 25.7688 18.6313 25.8375 18.5375C25.9625 18.375 25.9688 18.275 25.9875 16.1813L26.0063 14H25H24V15.5Z" fill="#613EEA"/>
</svg>
