<svg width="32" height="32" viewBox="0 0 32 32" fill="none" xmlns="http://www.w3.org/2000/svg">
<path d="M8.30664 1.43125C7.48164 1.69375 6.88164 2.36875 6.69414 3.2375C6.59414 3.70625 6.59414 28.2938 6.69414 28.7625C6.88164 29.6437 7.48164 30.3063 8.32539 30.575C8.68164 30.6812 9.07539 30.6875 16.0004 30.6875C22.9254 30.6875 23.3191 30.6812 23.6754 30.575C24.5191 30.3063 25.1191 29.6437 25.3066 28.7625C25.4066 28.2938 25.4066 3.70625 25.3066 3.2375C25.1191 2.35625 24.5191 1.69375 23.6754 1.425C23.3191 1.31875 22.9316 1.3125 15.9816 1.31875C9.11914 1.31875 8.63164 1.325 8.30664 1.43125ZM11.5004 3.93125C12.0566 5.03125 12.1504 5.18125 12.3379 5.275C12.5316 5.36875 12.9191 5.375 16.0879 5.3625L19.6129 5.34375L19.7816 5.1875C19.8754 5.1 20.2129 4.50625 20.5379 3.85625L21.1254 2.6875H22.1129C23.2754 2.6875 23.5066 2.7625 23.7941 3.19375L23.9691 3.4625L23.9879 15.0437L24.0004 26.625H16.0004H8.00039L8.01289 15.0437L8.03164 3.4625L8.20664 3.19375C8.49414 2.7625 8.72539 2.6875 9.88789 2.6875H10.8691L11.5004 3.93125ZM19.5004 2.71875C19.5004 2.7375 19.3566 3.03125 19.1879 3.375L18.8754 4H16.0004H13.1254L12.8129 3.375C12.6441 3.03125 12.5004 2.7375 12.5004 2.71875C12.5004 2.7 14.0754 2.6875 16.0004 2.6875C17.9254 2.6875 19.5004 2.7 19.5004 2.71875ZM23.9691 28.2938C23.9129 28.7062 23.6754 29.0437 23.3566 29.1938C23.1066 29.3062 22.8379 29.3125 16.0004 29.3125C9.16289 29.3125 8.89414 29.3062 8.64414 29.1938C8.32539 29.0437 8.08789 28.7062 8.03164 28.2938L7.99414 28H16.0004H24.0066L23.9691 28.2938Z" fill="#38004D"/>
<path d="M10.1813 10.1812L10 10.3625V12V13.6375L10.1813 13.8187L10.3625 14H12H13.6375L13.8188 13.8187L14 13.6375V12V10.3625L13.8188 10.1812L13.6375 10H12H10.3625L10.1813 10.1812ZM12.625 12V12.625H12H11.375V12V11.375H12H12.625V12Z" fill="#613EEA"/>
<path d="M16.8375 10.1937L16.6562 10.3812V12V13.6188L16.8375 13.8062L17.025 14H18H18.975L19.15 13.825C19.3625 13.5938 19.4188 13.2688 19.2875 13.0125C19.1437 12.7375 18.8937 12.625 18.4062 12.625H18V11.4937V10.3625L17.8188 10.1812C17.6625 10.0312 17.5813 10 17.3313 10C17.0687 10 16.9938 10.0312 16.8375 10.1937Z" fill="#38004D"/>
<path d="M19.6063 10.0687C19.4562 10.1562 19.3125 10.4562 19.3125 10.7C19.3125 11.1312 19.65 11.375 20.2438 11.375H20.6187L20.6375 12.4937L20.6562 13.6188L20.8375 13.8062C20.9937 13.9688 21.0688 14 21.3312 14C21.5812 14 21.6625 13.9688 21.8188 13.8187L22 13.6375V12V10.3625L21.8188 10.1812L21.6375 10H20.675C20.1438 10 19.6688 10.0312 19.6063 10.0687Z" fill="#38004D"/>
<path d="M10.3 15.4125C10.075 15.5312 10 15.6812 10 16C10 16.5875 10.2 16.6875 11.3813 16.6875H12.2625L12.475 16.475C12.65 16.3 12.6875 16.2125 12.6875 16C12.6875 15.7875 12.65 15.7 12.475 15.525L12.2625 15.3125H11.3687C10.6938 15.3188 10.425 15.3438 10.3 15.4125Z" fill="#38004D"/>
<path d="M14.3 15.4125C14.075 15.5312 14 15.6812 14 16C14 16.5 14.2438 16.6875 14.9062 16.6875H15.3125V17.0938C15.3125 17.7562 15.5 18 16 18C16.5875 18 16.6875 17.8 16.6875 16.6187V15.7375L16.475 15.525L16.2625 15.3125H15.3687C14.6938 15.3187 14.425 15.3438 14.3 15.4125Z" fill="#613EEA"/>
<path d="M18.3004 15.4125C18.2066 15.4625 18.1004 15.5562 18.0629 15.625C17.9816 15.775 17.9816 16.225 18.0629 16.3812C18.2129 16.6562 18.4066 16.6875 20.0004 16.6875C21.5941 16.6875 21.7879 16.6562 21.9379 16.3812C22.0191 16.225 22.0191 15.775 21.9379 15.6187C21.7879 15.3438 21.6004 15.3125 19.9879 15.3125C18.7691 15.3188 18.4379 15.3375 18.3004 15.4125Z" fill="#613EEA"/>
<path d="M10.1813 18.1812L10 18.3625V20V21.6375L10.1813 21.8187L10.3625 22H12H13.6375L13.8188 21.8187L14 21.6375V20V18.3625L13.8188 18.1812L13.6375 18H12H10.3625L10.1813 18.1812ZM12.625 20V20.625H12H11.375V20V19.375H12H12.625V20Z" fill="#38004D"/>
<path d="M18.1813 18.1812L18 18.3625V20V21.6375L18.1813 21.8187L18.3625 22H20H21.6375L21.8188 21.8187L22 21.6375V20V18.3625L21.8188 18.1812L21.6375 18H20H18.3625L18.1813 18.1812ZM20.625 20V20.625H20H19.375V20V19.375H20H20.625V20Z" fill="#38004D"/>
<path d="M15.525 19.525L15.3125 19.7375V20.6187C15.3125 21.8 15.4125 22 16 22C16.5875 22 16.6875 21.8 16.6875 20.6187V19.7375L16.475 19.525C16.3 19.35 16.2125 19.3125 16 19.3125C15.7875 19.3125 15.7 19.35 15.525 19.525Z" fill="#38004D"/>
</svg>
