<svg width="20" height="20" viewBox="0 0 20 20" fill="none" xmlns="http://www.w3.org/2000/svg">
<g clip-path="url(#clip0_405_2287)">
<path d="M7.25798 0.0624866C5.92595 0.257799 4.60954 0.812487 3.49626 1.65624C3.09001 1.96092 2.30876 2.74217 1.99626 3.15624C1.51188 3.79686 0.996258 4.75389 0.765789 5.43358C-0.449055 9.06249 0.949383 12.957 4.19157 14.9726C6.77751 16.5742 10.1877 16.5547 12.7384 14.918L13.0353 14.7265L13.5236 15.2265C13.7931 15.5 14.8986 16.6484 15.9845 17.7773C18.2267 20.1094 18.1252 20.0234 18.672 19.9922C19.0041 19.9726 19.1525 19.9101 19.3595 19.6992C19.5627 19.4961 19.6603 19.2539 19.6603 18.9453C19.6603 18.5625 19.5666 18.3906 19.0705 17.8789C17.4299 16.1836 14.6486 13.2812 14.6486 13.2617C14.6486 13.25 14.7345 13.1328 14.84 12.9961C15.4806 12.1797 15.9767 11.1562 16.2541 10.082C16.8752 7.68358 16.3634 5.17967 14.8361 3.15233C14.5314 2.74608 13.7463 1.96092 13.3283 1.64452C12.2033 0.792955 10.9142 0.257799 9.5236 0.0585804C9.01579 -0.0156384 7.7736 -0.0117321 7.25798 0.0624866ZM9.21891 2.19139C10.422 2.33983 11.59 2.91014 12.5158 3.78905C14.3752 5.56639 14.883 8.26561 13.7931 10.6055C13.2931 11.6719 12.4025 12.6328 11.3478 13.2383C9.8361 14.1055 8.00016 14.25 6.34001 13.6367C3.8947 12.7344 2.27751 10.2031 2.50016 7.62108C2.55095 7.05077 2.62907 6.67967 2.80095 6.17186C3.63688 3.6953 6.04313 2.03124 8.63298 2.14061C8.7736 2.14452 9.03532 2.16796 9.21891 2.19139Z" fill="#171D33"/>
</g>
<defs>
<clipPath id="clip0_405_2287">
<rect width="20" height="20" fill="white"/>
</clipPath>
</defs>
</svg>
