<svg width="30" height="30" viewBox="0 0 30 30" fill="none" xmlns="http://www.w3.org/2000/svg">
<g clip-path="url(#clip0_381_2125)">
<path d="M1.39971 0.105471C1.01299 0.263674 0.731743 0.509768 0.544243 0.849612C0.233696 1.40625 0.157524 1.01367 2.60088 11.625C3.81377 16.9043 4.83331 21.2754 4.86846 21.3398C5.00323 21.5918 5.38409 21.5801 5.58331 21.3164L5.70049 21.1582L4.16534 14.2852C3.32745 10.5059 2.63604 7.32422 2.63604 7.21875C2.63604 6.90235 2.87627 6.55078 3.16338 6.4336C3.35088 6.35742 5.0501 6.375 5.38995 6.45703C6.16338 6.63867 6.96026 7.24805 7.29424 7.91016C7.74541 8.80078 8.6126 11.2383 8.9876 12.6563C9.46221 14.4844 9.6087 15.457 10.0247 19.4766C10.2532 21.7266 10.306 22.4063 10.2532 22.4414C10.2122 22.4648 10.0306 22.5059 9.84893 22.5234L9.51495 22.5645L9.22198 22.2773C8.2376 21.3281 6.72002 21.3398 5.75323 22.3066C5.31377 22.7461 5.0794 23.2617 5.0501 23.8887C5.02666 24.3398 5.06182 24.5215 5.59502 26.7598C5.91143 28.0957 6.22198 29.25 6.29229 29.3848C6.35674 29.5078 6.53252 29.6953 6.66729 29.7949L6.9251 29.9707H15.8724H24.8196L25.2649 29.748C25.9739 29.4023 26.4485 28.7637 26.5364 28.043L26.5716 27.7441L27.3626 27.7148C28.054 27.6914 28.1888 27.668 28.4407 27.5391C28.8567 27.3281 29.22 26.9473 29.431 26.4961C29.6126 26.1211 29.6185 26.0742 29.6126 25.4004C29.6067 24.0059 29.0911 22.7871 28.095 21.8262C27.263 21.0176 26.2024 20.5723 25.1126 20.5664C24.8899 20.5664 21.6731 20.9648 17.97 21.4512C14.2669 21.9375 11.2317 22.3242 11.22 22.3125C11.2083 22.3008 11.0501 20.8594 10.8685 19.1016C10.4583 15.1348 10.2649 13.916 9.72588 12.0117C9.23956 10.2949 8.29034 7.78711 7.90948 7.21875C7.61651 6.7793 7.08331 6.27539 6.66143 6.03516C6.47979 5.93555 6.32745 5.8418 6.32745 5.8418C6.32745 5.83594 6.38018 5.69531 6.43877 5.53125C6.67901 4.89844 6.70831 3.9668 6.50909 3.31055C6.13995 2.10938 4.99737 0.884768 3.77862 0.39844C2.91729 0.0468774 1.85674 -0.0820289 1.39971 0.105471ZM2.89971 1.03125C4.02471 1.31836 5.05596 2.17969 5.54815 3.25781C5.77081 3.75 5.80596 4.56446 5.63018 5.15625L5.50127 5.57813L5.28448 5.54297C5.16729 5.51953 4.63409 5.50196 4.10088 5.4961C3.21026 5.48438 3.11065 5.4961 2.84112 5.61328C2.68291 5.68946 2.50713 5.78906 2.44854 5.8418C2.38409 5.90039 2.31963 5.91797 2.29034 5.88281C2.26104 5.85352 2.00909 4.88672 1.72784 3.72656C1.37627 2.26172 1.22979 1.57031 1.25323 1.43555C1.28838 1.25977 1.5169 0.990237 1.69854 0.914065C1.82745 0.86719 2.49541 0.931643 2.89971 1.03125ZM25.7923 21.5332C27.0814 21.8027 28.2474 22.9922 28.6224 24.4043C28.7747 24.9785 28.7981 25.6523 28.6868 25.9922C28.5814 26.3145 28.2591 26.6719 27.9896 26.7715C27.8841 26.8125 26.9231 26.8359 25.2591 26.8359C22.6165 26.8359 22.3821 26.8535 22.2649 27.0703C22.1712 27.2461 22.1946 27.4688 22.3235 27.5977C22.4349 27.709 22.5169 27.7148 24.0521 27.7148H25.6634V27.9023C25.6634 28.1719 25.3528 28.6816 25.0892 28.8516C24.972 28.9336 24.7669 29.0215 24.638 29.0625C24.4681 29.1094 22.5521 29.1211 17.8118 29.1094L11.22 29.0918L11.0677 28.4473C10.9856 28.0898 10.9271 27.7852 10.9388 27.7617C10.9505 27.7324 13.1712 27.7148 15.8724 27.7148C20.7181 27.7148 20.7825 27.7148 20.888 27.5977C21.0345 27.4336 21.0228 27.1523 20.8646 26.9941L20.7356 26.8652L15.7142 26.8477L10.6927 26.8359L10.2942 25.125C10.0774 24.1875 9.90752 23.4141 9.91338 23.4082C9.97198 23.3613 24.6614 21.457 24.9896 21.4512C25.2181 21.4512 25.5755 21.4863 25.7923 21.5332ZM8.04424 22.5586C8.40752 22.6934 8.73565 22.9863 8.90557 23.3203C8.9876 23.4844 10.3118 28.9219 10.3118 29.1035C10.3118 29.1094 9.61456 29.1211 8.76495 29.1211C7.12432 29.1211 7.08916 29.1152 7.00713 28.8398C6.98956 28.7871 6.7376 27.7383 6.44463 26.5137C5.97002 24.5566 5.91143 24.2402 5.93487 23.8945C6.00518 22.8516 7.05401 22.1895 8.04424 22.5586Z" fill="#171D33"/>
</g>
<defs>
<clipPath id="clip0_381_2125">
<rect width="30" height="30" fill="white"/>
</clipPath>
</defs>
</svg>
