<svg width="46" height="46" viewBox="0 0 46 46" fill="none" xmlns="http://www.w3.org/2000/svg">
<path d="M14.3746 4.4832L5.79455 7.60078L5.7676 15.6418C5.74064 24.6172 5.7676 25.1652 6.33361 27.3484C6.71095 28.8398 7.06135 29.7742 7.72619 31.1309C8.88517 33.4848 10.6731 35.7309 12.6676 37.3391C13.7008 38.1656 22.8918 44.832 22.9996 44.832C23.1793 44.832 33.1699 37.5098 34.0055 36.773C36.9613 34.1496 39.0906 30.4031 39.8813 26.423C40.2317 24.6801 40.2586 23.7906 40.2317 15.543L40.2047 7.5918L31.6246 4.47422C26.9078 2.75821 23.0266 1.35664 22.9996 1.35664C22.9727 1.35664 19.0914 2.75821 14.3746 4.4832ZM29.9356 6.92695C33.7539 8.31953 36.9883 9.49649 37.132 9.54141L37.3746 9.63125V16.5852C37.3746 20.9156 37.3387 23.8805 37.2758 24.4195C36.9883 27.052 36.1078 29.4598 34.6074 31.7148C34.1043 32.4875 33.6192 33.0625 32.7117 33.9699C31.5887 35.093 31.1574 35.4254 27.2492 38.2645L22.9996 41.3461L18.759 38.2645C14.8328 35.4254 14.4195 35.093 13.2875 33.9699C11.1942 31.8676 9.87345 29.5766 9.1547 26.8004C8.65158 24.8148 8.62463 24.3836 8.62463 16.675V9.64024L11.7512 8.49922C13.4672 7.8793 16.6926 6.70234 18.9117 5.89375C21.1399 5.07617 22.9637 4.41133 22.9727 4.41133C22.9906 4.40234 26.1172 5.54336 29.9356 6.92695Z" fill="#38004D"/>
<path d="M25.1832 19.8734L21.2031 23.8535L19.002 21.6523L16.8008 19.4512L15.7945 20.4664L14.7793 21.4727L17.9957 24.6891L21.2031 27.8965L26.2074 22.8922L31.2207 17.8789L30.2324 16.8906C29.6934 16.3516 29.2262 15.9023 29.1992 15.9023C29.1723 15.9023 27.3664 17.6902 25.1832 19.8734Z" fill="#613EEA"/>
</svg>
