<svg width="24" height="24" viewBox="0 0 24 24" fill="none" xmlns="http://www.w3.org/2000/svg">
<g clip-path="url(#clip0_270_1408)">
<path d="M10.6455 0.824989C10.1346 0.960926 9.64707 1.3078 9.3752 1.73436C9.1502 2.08124 9.04707 2.40468 9.00488 2.86874C8.9627 3.31405 8.90176 3.4453 8.65332 3.62811C8.44707 3.7828 8.07207 3.75936 7.85645 3.58124C7.33613 3.16405 7.21895 3.08436 6.98457 2.9953C6.40801 2.77968 5.77051 2.80311 5.2127 3.0703C4.90801 3.21561 4.7627 3.3328 4.11582 3.97499C3.70332 4.37811 3.3002 4.81874 3.21113 4.94999C2.97207 5.31093 2.85957 5.6953 2.85957 6.16405C2.85957 6.78749 3.01895 7.18593 3.48301 7.72968C3.80176 8.09999 3.82988 8.41874 3.57676 8.71874C3.40801 8.9203 3.22988 8.99999 2.94395 8.99999C2.38145 8.99999 1.82363 9.23905 1.40645 9.65624C1.11113 9.95155 0.923633 10.2703 0.820508 10.6641C0.717383 11.0578 0.717383 12.9422 0.820508 13.3359C1.07363 14.2969 1.96895 15 2.94395 15C3.22988 15 3.40801 15.0797 3.57676 15.2812C3.83457 15.5859 3.79707 15.9047 3.47363 16.2797C3.35176 16.4203 3.20176 16.6078 3.14551 16.7016C2.72832 17.3812 2.75176 18.3609 3.21113 19.05C3.3002 19.1812 3.70332 19.6219 4.11582 20.025C4.77676 20.6766 4.90332 20.7844 5.23145 20.9391C5.59707 21.1125 5.61113 21.1172 6.16426 21.1172C6.7127 21.1172 6.73613 21.1125 7.07832 20.9484C7.27051 20.8547 7.55176 20.6719 7.70176 20.5406C8.08613 20.1984 8.40957 20.1609 8.72832 20.4281C8.91113 20.5828 9.0002 20.7937 9.0002 21.0844C9.0002 21.6187 9.24863 22.1906 9.65176 22.5984C9.94707 22.8937 10.2658 23.0719 10.6736 23.1797C10.9924 23.2641 12.8158 23.2781 13.2236 23.2031C14.1189 23.0344 14.8502 22.2562 14.9627 21.3422C14.9861 21.1406 15.0189 20.9062 15.0283 20.8219C15.0611 20.6156 15.2955 20.3578 15.5158 20.2922C15.783 20.2125 15.9846 20.2734 16.2705 20.5172C16.8518 21.0141 17.2408 21.1594 17.9299 21.1312C18.3564 21.1172 18.4314 21.0984 18.7736 20.9391C19.1158 20.775 19.2236 20.6859 19.9549 19.9547C20.6861 19.2234 20.7752 19.1156 20.9393 18.7734C21.0986 18.4312 21.1174 18.3562 21.1314 17.9297C21.1596 17.2406 21.0143 16.8516 20.5174 16.2703C20.1986 15.9 20.1705 15.5766 20.4236 15.2766C20.5877 15.0844 20.7705 15 21.0143 15C22.0689 15 23.0158 14.2312 23.2033 13.2234C23.2643 12.8953 23.2643 11.1047 23.2033 10.7766C23.0205 9.79686 22.0689 8.99999 21.0846 8.99999C20.7939 8.99999 20.583 8.91093 20.4283 8.72811C20.1658 8.41405 20.1986 8.0953 20.5314 7.71561C20.9768 7.20936 21.1549 6.75936 21.1502 6.1453C21.1502 5.71874 21.0189 5.29686 20.7893 4.94999C20.7002 4.81874 20.2971 4.37811 19.8846 3.97499C19.2236 3.32343 19.0971 3.21561 18.7689 3.06093C18.4033 2.88749 18.3893 2.8828 17.8361 2.8828C17.2877 2.8828 17.2643 2.88749 16.9221 3.05155C16.7299 3.1453 16.4627 3.31874 16.3314 3.43593C15.9564 3.77343 15.6611 3.83905 15.3752 3.64218C15.108 3.45936 15.0424 3.32811 14.9955 2.87811C14.9439 2.36249 14.8596 2.09999 14.6299 1.74843C14.3252 1.27968 13.8893 0.965614 13.3268 0.820301C12.9518 0.721865 11.0111 0.726551 10.6455 0.824989ZM13.1252 2.34374C13.3549 2.46093 13.5002 2.72343 13.5002 3.01874C13.5002 3.55311 13.7439 4.1578 14.1096 4.54218C14.9439 5.41405 16.2893 5.47499 17.1799 4.67343C17.3111 4.56093 17.4658 4.44374 17.5221 4.41093C17.6627 4.33593 18.0049 4.33593 18.1502 4.41093C18.2908 4.48593 19.3314 5.50311 19.5049 5.73749C19.6127 5.8828 19.6408 5.97186 19.6408 6.14999C19.6408 6.42655 19.5986 6.51561 19.3268 6.81093C18.6705 7.51874 18.5814 8.64374 19.1158 9.48749C19.4861 10.0781 20.2596 10.5 20.9814 10.5C21.2768 10.5 21.5393 10.6453 21.6564 10.875C21.7408 11.0391 21.7502 11.1469 21.7502 12C21.7502 12.8531 21.7408 12.9609 21.6564 13.125C21.5393 13.3547 21.2768 13.5 20.9814 13.5C20.2596 13.5 19.4861 13.9219 19.1158 14.5125C18.5814 15.3609 18.6705 16.4812 19.3314 17.1984C19.5986 17.4844 19.6408 17.5734 19.6408 17.8453C19.6408 18.1312 19.6033 18.1828 18.9658 18.8391C18.2721 19.5469 18.1408 19.6406 17.8502 19.6406C17.5736 19.6406 17.4846 19.5984 17.1986 19.3312C16.4814 18.6703 15.3611 18.5812 14.5127 19.1156C13.9221 19.4859 13.5002 20.2594 13.5002 20.9812C13.5002 21.2766 13.3549 21.5391 13.1252 21.6562C12.9611 21.7406 12.8533 21.75 12.0002 21.75C11.1471 21.75 11.0393 21.7406 10.8752 21.6562C10.6408 21.5391 10.5002 21.2766 10.5002 20.9672C10.5002 20.8453 10.4674 20.6062 10.4299 20.4422C10.1533 19.2703 8.92051 18.5203 7.76738 18.8203C7.39707 18.9187 7.05957 19.0969 6.80176 19.3312C6.51582 19.5984 6.42676 19.6406 6.1502 19.6406C5.85957 19.6406 5.72832 19.5469 5.03457 18.8391C4.39707 18.1828 4.35957 18.1312 4.35957 17.8453C4.35957 17.5734 4.40176 17.4844 4.67363 17.1891C4.93145 16.9125 5.13301 16.4906 5.20801 16.0687C5.44238 14.7562 4.36895 13.5 3.01895 13.5C2.72363 13.5 2.46113 13.3547 2.34395 13.125C2.25957 12.9609 2.2502 12.8531 2.2502 11.9953C2.2502 11.2219 2.26426 11.025 2.3252 10.8937C2.45176 10.6312 2.62988 10.5375 3.08926 10.4953C3.88613 10.4203 4.4252 10.1344 4.81895 9.56718C5.42363 8.69999 5.3627 7.55155 4.66895 6.80155C4.40176 6.51561 4.35957 6.42655 4.35957 6.14999C4.35957 5.97186 4.3877 5.8828 4.49551 5.73749C4.66895 5.50311 5.70957 4.48593 5.8502 4.41093C5.99551 4.33593 6.3377 4.33593 6.47832 4.41093C6.53457 4.43905 6.68457 4.56093 6.81113 4.67343C7.26582 5.0953 7.96895 5.31093 8.5877 5.21249C9.00488 5.15155 9.52988 4.89843 9.81113 4.62186C10.233 4.21405 10.4346 3.76405 10.4955 3.09374C10.5377 2.62968 10.6268 2.45624 10.8846 2.32968C11.0111 2.26405 11.2127 2.24999 11.9908 2.24999C12.8533 2.24999 12.9564 2.25936 13.1252 2.34374Z" fill="#613EEA"/>
<path d="M11.1568 6.8203C9.86302 7.02655 8.61614 7.77655 7.82396 8.82187C5.49896 11.9109 7.15364 16.3125 10.9458 17.1375C11.7708 17.3156 12.7927 17.2594 13.6365 16.9828C14.4474 16.7203 15.3661 16.1203 15.9052 15.5016C17.6958 13.4484 17.6958 10.5516 15.9052 8.49843C15.5068 8.03905 14.949 7.62187 14.3208 7.31249C13.299 6.80624 12.263 6.64687 11.1568 6.8203ZM12.8911 8.3578C13.8661 8.62499 14.6161 9.15937 15.1411 9.96562C16.0974 11.4281 15.8958 13.3781 14.663 14.625C12.9755 16.3312 10.1724 16.0453 8.85989 14.0297C8.44271 13.3922 8.27396 12.8156 8.27396 12C8.27396 11.1844 8.44271 10.6078 8.85521 9.97499C9.41302 9.12187 10.2802 8.53124 11.2974 8.31562C11.6724 8.23593 12.5255 8.25937 12.8911 8.3578Z" fill="#613EEA"/>
</g>
<defs>
<clipPath id="clip0_270_1408">
<rect width="24" height="24" fill="white"/>
</clipPath>
</defs>
</svg>
