<svg width="24" height="24" viewBox="0 0 24 24" fill="none" xmlns="http://www.w3.org/2000/svg">
<path d="M11.2171 0.0703144C9.54366 0.375002 8.15616 1.56094 7.6171 3.14531C7.48585 3.52031 7.35928 4.21406 7.35928 4.53281V4.72969L6.10772 4.74375C4.86085 4.75781 4.85147 4.75781 4.58428 4.88438C4.08272 5.11875 3.7171 5.56875 3.60928 6.075C3.58585 6.20156 3.31866 9.39375 3.01866 13.1719C2.51241 19.5516 2.47491 20.0719 2.52178 20.5078C2.69522 22.1063 3.74053 23.3484 5.3296 23.8453L5.7421 23.9766H11.9999H18.2577L18.6702 23.8453C20.2593 23.3484 21.3046 22.1063 21.478 20.5078C21.5249 20.0719 21.4874 19.5469 20.9812 13.1719C20.6812 9.39375 20.414 6.20156 20.3905 6.075C20.2827 5.56875 19.9171 5.11875 19.4155 4.88438C19.1483 4.75781 19.139 4.75781 17.8968 4.74375L16.6405 4.72969V4.53281C16.6405 4.21875 16.514 3.52031 16.3921 3.16406C15.928 1.80469 14.8405 0.712502 13.4952 0.257814C12.7733 0.00937653 11.9296 -0.060936 11.2171 0.0703144ZM12.6421 1.48125C13.9124 1.74375 14.8968 2.72813 15.1593 3.99844C15.2015 4.19531 15.2343 4.43906 15.2343 4.54688V4.73438H15.9374H16.6405V6.36094C16.6405 7.90781 16.6358 7.99688 16.5421 8.18438C16.4437 8.39531 16.1624 8.57813 15.9374 8.57813C15.7312 8.57813 15.4452 8.4 15.3374 8.20781C15.239 8.02969 15.2343 7.9875 15.2343 6.37969V4.73438H11.9999H8.76553V6.37969C8.76553 7.9875 8.76085 8.02969 8.66241 8.20781C8.5546 8.4 8.26866 8.57813 8.06241 8.57813C7.83741 8.57813 7.55616 8.39531 7.45772 8.18438C7.36397 7.99688 7.35928 7.90781 7.35928 6.36094V4.73438H8.06241H8.76553V4.54688C8.76553 4.43906 8.79835 4.19531 8.84053 3.99844C9.20147 2.25 10.9077 1.12031 12.6421 1.48125ZM14.9999 11.8078C15.1874 11.9063 15.3749 12.1969 15.3749 12.3938C15.3749 12.4688 15.3327 12.6188 15.2812 12.7219C15.1687 12.9609 11.5218 16.6125 11.3296 16.6828C11.1327 16.7578 10.8187 16.7438 10.6874 16.6594C10.4577 16.5047 8.80303 14.8313 8.71397 14.6625C8.60147 14.4375 8.60147 14.2828 8.72335 14.0344C8.79366 13.8891 8.87335 13.8094 9.01866 13.7391C9.43116 13.5375 9.63272 13.6406 10.4296 14.4375L11.039 15.0469L12.6327 13.4531C13.5093 12.5813 14.2921 11.8313 14.3671 11.7938C14.5546 11.6953 14.803 11.7 14.9999 11.8078Z" fill="#613EEA"/>
</svg>
