<svg width="30" height="30" viewBox="0 0 30 30" fill="none" xmlns="http://www.w3.org/2000/svg">
<g clip-path="url(#clip0_381_2119)">
<path d="M19.5125 0.498047V0.996094L21.2469 1.00781L22.9754 1.02539L21.0653 3.57422C20.0106 4.97461 19.1141 6.19922 19.0614 6.29297C18.9618 6.48633 18.9969 6.69141 19.161 6.85547C19.2723 6.9668 19.3661 6.97266 21.8856 6.97266H24.493V6.47461V5.97656H22.5301C21.452 5.97656 20.5672 5.96484 20.5672 5.94727C20.5672 5.92969 21.3993 4.81055 22.4129 3.45117C23.4325 2.09766 24.3172 0.908203 24.3758 0.802734C24.5399 0.544922 24.5223 0.369141 24.3231 0.169922L24.1532 0H21.8329H19.5125V0.498047Z" fill="#171D33"/>
<path d="M12.5215 4.01953C12.498 4.04297 12.4805 4.27148 12.4805 4.51758V4.98047L13.9746 4.99219L15.4688 5.00977L14.0566 6.82617C13.2773 7.82227 12.6035 8.72461 12.5625 8.83008C12.4688 9.05273 12.5273 9.25781 12.7266 9.39844C12.8438 9.48047 13.125 9.49219 14.9238 9.49219H16.9922V8.99414V8.49609L15.5215 8.48437L14.0508 8.4668L15.5215 6.57422C17.1094 4.5293 17.127 4.5 16.8516 4.17773L16.7109 4.01367L14.6367 3.99609C13.4941 3.99023 12.5449 3.99609 12.5215 4.01953Z" fill="#171D33"/>
<path d="M1.0957 6.05863C0.667969 6.15238 0.310547 6.40434 0.134766 6.73246L0 6.99027V18C0 28.8399 0 29.0098 0.117188 29.2325C0.533203 30.0586 1.86328 30.2579 2.58984 29.6016C2.98242 29.2442 2.98828 29.2207 2.98828 27.2461V25.4883H15H27.0117V27.3692C27.0117 29.168 27.0176 29.2618 27.1348 29.4493C27.3867 29.8653 28.2773 30.0996 29.0156 29.9473C29.4082 29.8653 29.6836 29.6954 29.8652 29.42L30 29.2207L29.9883 21.9375L29.9707 14.6543L29.7715 14.4493C29.4727 14.1387 29.1387 14.0332 28.4766 14.0332C27.9844 14.0332 27.8789 14.0508 27.5859 14.1973C27.0527 14.461 27.0117 14.5606 27.0117 15.709V16.67L26.8828 16.4649C26.4434 15.7442 26.2441 15.4688 25.8633 15.0996C25.4004 14.6368 24.9609 14.3438 24.4453 14.1563C24.1113 14.0332 24.0645 14.0332 16.7109 14.0157L9.31641 14.0039L9.16992 14.1446L9.02344 14.2911L9.01758 15.7149V17.1387L8.88867 16.6993C8.47852 15.3399 7.38281 14.5254 5.95312 14.5196C4.59375 14.5196 3.42773 15.4395 3.09961 16.7871C3 17.1856 2.99414 17.0508 2.99414 12.0821C2.98828 7.17777 2.98242 6.96098 2.87695 6.75004C2.58398 6.18168 1.86328 5.90043 1.0957 6.05863ZM1.92773 7.11332C1.97461 7.14262 1.99219 10.0664 1.99219 17.9825C1.99219 27.9844 1.98633 28.8223 1.89258 28.8926C1.83984 28.9395 1.66406 28.9746 1.49414 28.9746C1.32422 28.9746 1.14844 28.9395 1.0957 28.8926C1.00195 28.8223 0.996094 27.9844 0.996094 17.9825C0.996094 9.82035 1.01367 7.14262 1.06641 7.11332C1.25977 6.99027 1.72852 6.99027 1.92773 7.11332ZM24.0703 15.1055C24.8438 15.3516 25.5527 16.0664 26.1035 17.1621C26.5078 17.9707 26.8477 19.1661 26.9297 20.0508L26.9707 20.5078H18.4922H10.0195V17.7539V15H16.8691C23.3672 15 23.7363 15.0059 24.0703 15.1055ZM28.8223 15.0352L29.0039 15.0704V22.002V28.9336L28.7637 28.9746C28.6348 28.9981 28.4121 28.9981 28.2656 28.9746L28.0078 28.9395V22.002V15.0645L28.1426 15.0411C28.3594 15 28.6289 15 28.8223 15.0352ZM6.7207 15.6504C8.03906 16.1485 8.4082 17.8887 7.40039 18.9024C6.62109 19.6817 5.37891 19.6817 4.59961 18.8965C4.2832 18.5801 4.13086 18.2871 4.04883 17.836C3.87305 16.8633 4.48242 15.8789 5.44922 15.5801C5.75391 15.4922 6.375 15.5215 6.7207 15.6504ZM3.32227 18.8379C3.39258 18.9668 3.51562 19.1661 3.60352 19.2774C3.74414 19.4649 3.74414 19.4825 3.65039 19.5235C3.50977 19.5762 3.08789 19.7637 3.03516 19.793C3.00586 19.8047 2.98828 19.3594 2.99414 18.7969V17.7832L3.09961 18.1934C3.1582 18.4161 3.25781 18.709 3.32227 18.8379ZM9.00586 19.8399C8.98828 19.8575 8.32617 19.5352 8.27344 19.4825C8.26172 19.4707 8.31445 19.3711 8.39648 19.2657C8.61914 18.9668 8.82422 18.5215 8.91211 18.1407C8.99414 17.8008 8.99414 17.8125 9.01172 18.8086C9.01758 19.3653 9.01758 19.8282 9.00586 19.8399ZM8.25586 20.6075C8.32031 20.6661 8.41992 20.8594 8.47852 21.0352C8.55469 21.2578 8.63086 21.3809 8.73047 21.4278C8.84766 21.4864 10.8047 21.5039 17.9473 21.5039H27.0117V22.9981V24.4922H15H2.98828V23.0098V21.5332L3.16406 21.4336C3.33984 21.334 3.42188 21.1993 3.48047 20.9063C3.50391 20.8184 3.57422 20.6895 3.64453 20.625C3.76758 20.5137 3.84375 20.5078 5.95312 20.5078C7.93945 20.5078 8.14453 20.5196 8.25586 20.6075Z" fill="#171D33"/>
<path d="M6.98437 8.50781L7.00195 8.99414L7.94531 9.02344L8.89453 9.05273L8.13281 9.96094C7.14258 11.1445 7.03125 11.2969 7.03125 11.4902C7.03125 11.9824 7.13086 12.0117 8.96484 12.0117H10.4883V11.5137V11.0156H9.55078C9.03516 11.0156 8.61328 10.998 8.61328 10.9805C8.61328 10.957 8.98828 10.4941 9.45117 9.9375C9.91406 9.38672 10.3359 8.87109 10.3887 8.78906C10.5293 8.58398 10.5117 8.33789 10.3418 8.17383L10.2012 8.02734H8.58398H6.9668L6.98437 8.50781Z" fill="#171D33"/>
</g>
<defs>
<clipPath id="clip0_381_2119">
<rect width="30" height="30" fill="white"/>
</clipPath>
</defs>
</svg>
