<?xml version="1.0" standalone="no"?>
<!DOCTYPE svg PUBLIC "-//W3C//DTD SVG 20010904//EN"
 "http://www.w3.org/TR/2001/REC-SVG-20010904/DTD/svg10.dtd">
<svg version="1.0" xmlns="http://www.w3.org/2000/svg"
 width="50.000000pt" height="50.000000pt" viewBox="0 0 50.000000 50.000000"
 preserveAspectRatio="xMidYMid meet">

<g transform="translate(0.000000,50.000000) scale(0.100000,-0.100000)"
fill="#000000" stroke="none">
<path d="M0 310 c0 -100 4 -160 10 -160 6 0 10 57 10 150 l0 150 215 0 c137 0
215 4 215 10 0 6 -82 10 -225 10 l-225 0 0 -160z"/>
<path d="M42 280 c2 -82 7 -153 11 -157 4 -4 64 -9 132 -11 100 -4 125 -7 125
-19 0 -7 11 -25 25 -38 34 -35 96 -35 132 1 24 24 25 30 19 86 -3 34 -6 112
-6 174 l0 114 -221 0 -221 0 4 -150z m418 116 c0 -17 -176 -176 -195 -176 -23
0 -205 156 -205 176 0 11 39 14 200 14 168 0 200 -2 200 -14z m-280 -132 c0 0
-27 -22 -60 -48 l-60 -47 0 101 0 101 60 -53 c33 -29 60 -53 60 -54z m280 17
l0 -79 -45 6 c-52 5 -91 -15 -101 -53 -6 -25 -6 -25 -130 -25 -98 0 -124 3
-124 14 0 13 111 106 127 106 4 0 19 -9 33 -20 14 -11 33 -20 42 -20 9 0 56
34 104 75 48 41 89 75 91 75 2 0 3 -35 3 -79z m-3 -103 c51 -48 15 -138 -56
-138 -47 0 -81 32 -81 79 0 72 84 109 137 59z"/>
<path d="M391 153 c-1 -16 -7 -23 -21 -23 -11 0 -20 -4 -20 -10 0 -5 11 -10
24 -10 18 0 26 -7 29 -22 l4 -23 2 23 c1 15 8 22 24 23 20 1 20 1 -5 10 -15 6
-29 20 -31 32 l-4 22 -2 -22z"/>
</g>
</svg>
