<svg width="30" height="30" viewBox="0 0 30 30" fill="none" xmlns="http://www.w3.org/2000/svg">
<path d="M3.39844 20.4492V23.1973C7.14844 23.1973 10.2012 26.25 10.2012 30H12.9492C12.9492 24.75 8.70117 20.4492 3.39844 20.4492ZM3.39844 25.8984V30H7.5C7.5 27.75 5.64844 25.8984 3.39844 25.8984ZM3.39844 15V17.748C10.2012 17.748 15.6504 23.25 15.6504 30H18.3984C18.3984 21.6973 11.7012 15 3.39844 15ZM23.8477 0H10.1953C8.69531 0 7.44727 1.20117 7.44727 2.74805V12.7969C8.39648 13.0488 9.29883 13.2949 10.1953 13.6465V5.44922H23.8477V23.1973H19.6992C20.3965 24.8965 20.8477 26.748 21 28.6465H23.8477C25.3477 28.6465 26.5957 27.4453 26.5957 25.8984V2.74805C26.6016 1.20117 25.3477 0 23.8477 0Z" fill="#613EEA"/>
</svg>
