<svg width="24" height="24" viewBox="0 0 24 24" fill="none" xmlns="http://www.w3.org/2000/svg">
<path d="M4.5375 1.58906C3.85781 1.80937 3.27656 2.40468 3.075 3.08906C3.00938 3.31874 3 4.2375 3 12.0047C3 20.3719 3.00469 20.6719 3.08906 20.9484C3.30469 21.6375 3.89531 22.2234 4.58906 22.425C4.81406 22.4906 5.40938 22.5 9.75 22.5C15.1078 22.5 14.8875 22.5094 15.375 22.2281C16.0172 21.8578 16.5 21.0984 16.5 20.4469V20.2266L17.0297 20.1C19.0125 19.6219 20.5453 18 20.925 15.9844C21.0328 15.4266 21.0328 13.2047 20.925 12.8391C20.6719 11.9719 19.7766 11.25 18.9563 11.25H18.75V9.50156C18.75 7.60312 18.7406 7.52812 18.4734 6.95624C18.2813 6.54843 17.9531 6.13593 17.6063 5.87343C17.325 5.66249 16.8703 5.42812 16.6219 5.3625L16.5 5.33437V4.33593C16.5 3.4875 16.4859 3.29531 16.4109 3.05156C16.1953 2.3625 15.6047 1.77656 14.9109 1.575C14.6859 1.50937 14.0906 1.49999 9.73125 1.50468C5.08594 1.50468 4.79063 1.50937 4.5375 1.58906ZM8.25 3.16406C8.25 3.60468 8.61563 4.13906 9.07031 4.35937C9.40781 4.52812 9.95625 4.54687 10.3266 4.40624C10.8281 4.21874 11.25 3.64687 11.25 3.16406V2.99999H12.7172C14.2266 2.99999 14.4609 3.02343 14.6672 3.17812C14.9438 3.38437 14.9766 3.50624 14.9906 4.45781L15.0094 5.32968L14.8781 5.3625C14.6297 5.42812 14.175 5.66249 13.8938 5.87343C13.4016 6.24843 12.9797 6.88124 12.825 7.48593C12.7641 7.72031 12.75 8.08124 12.75 9.51093V11.25H12.5438C11.7234 11.25 10.8281 11.9719 10.575 12.8391C10.4672 13.2047 10.4672 15.4266 10.575 15.9844C10.9594 18.0141 12.4547 19.5937 14.4797 20.1047L14.9813 20.2312L14.9484 20.3859C14.9062 20.5875 14.775 20.7656 14.5734 20.8828C14.4188 20.9766 14.3297 20.9766 9.75 20.9766C5.12813 20.9766 5.08594 20.9766 4.92188 20.8781C4.69688 20.7469 4.55625 20.5266 4.52344 20.2359C4.50938 20.1 4.5 16.2984 4.50938 11.7891C4.52344 3.68437 4.52344 3.58593 4.61719 3.42656C4.73438 3.22968 4.90781 3.09374 5.11406 3.04687C5.20312 3.02812 5.94375 3.00937 6.76406 3.00468L8.25 2.99999V3.16406ZM16.3969 6.93281C16.65 7.05937 16.9359 7.34531 17.0578 7.58437C17.2125 7.88906 17.25 8.30156 17.25 9.80624V11.25H15.7453H14.2406L14.2641 9.61874C14.2734 8.54062 14.3016 7.93593 14.3391 7.81874C14.475 7.40156 14.9016 6.96562 15.3 6.84375C15.5531 6.76406 16.1719 6.81562 16.3969 6.93281ZM18.8625 12.7969C19.0922 12.8484 19.2609 12.9703 19.3828 13.1766C19.4672 13.3219 19.4766 13.4156 19.4766 14.3672C19.4719 15.5625 19.4156 15.9094 19.1203 16.5469C18.7406 17.3625 18.1734 17.9344 17.3672 18.3281C16.8047 18.6 16.3453 18.7078 15.75 18.7078C15.1875 18.7078 14.7141 18.6047 14.2031 18.3656C13.3875 17.9906 12.8156 17.4281 12.4219 16.6172C12.0844 15.9234 12.0281 15.6047 12.0234 14.3672C12.0234 13.4156 12.0328 13.3219 12.1172 13.1766C12.2344 12.9797 12.4078 12.8437 12.6141 12.7969C12.8344 12.7453 18.6375 12.7406 18.8625 12.7969Z" fill="#38004D"/>
<path d="M15.3375 14.3437C15.0234 14.5359 15 14.625 15 15.75C15 16.875 15.0234 16.9641 15.3375 17.1562C15.5484 17.2828 15.9516 17.2828 16.1625 17.1562C16.4766 16.9641 16.5 16.875 16.5 15.75C16.5 14.625 16.4766 14.5359 16.1625 14.3437C15.9516 14.2172 15.5484 14.2172 15.3375 14.3437Z" fill="#613EEA"/>
</svg>
