<svg width="32" height="32" viewBox="0 0 32 32" fill="none" xmlns="http://www.w3.org/2000/svg">
<g clip-path="url(#clip0_78_746)">
<path d="M22.0891 17.9321C21.4291 17.7552 20.8192 17.4768 20.2753 17.124C20.1048 17.0093 19.8826 17.0015 19.6988 17.1076L18.5731 17.939C17.2485 16.8076 16.1931 15.0582 15.8578 13.2831L17.1429 12.6727C17.3281 12.5613 17.4271 12.3635 17.4184 12.1599C17.3794 11.511 17.4486 10.8451 17.6254 10.1851C17.7031 9.89528 17.5263 9.5891 17.2365 9.51145L15.3798 9.01394C15.09 8.9363 14.7067 8.97162 14.5989 9.37409C13.2631 14.3593 16.3011 19.6136 21.281 20.9479C21.662 21.05 21.9029 20.7522 21.9819 20.4571L22.478 18.6057C22.5557 18.3159 22.3789 18.0097 22.0891 17.9321Z" fill="#84A9FF"/>
</g>
<path d="M24.0761 1.06668H11.1237C9.69892 1.06668 8.5332 2.2885 8.5332 3.78183V7.85456H11.1237V5.13941H24.0761V26.8606H11.1237V24.1455H8.5332V28.2182C8.5332 29.7115 9.69892 30.9333 11.1237 30.9333H24.0761C25.5008 30.9333 26.6665 29.7115 26.6665 28.2182V3.78183C26.6665 2.2885 25.5008 1.06668 24.0761 1.06668Z" fill="#613EEA"/>
<rect x="6.40039" y="9.60001" width="5.33333" height="1.06667" fill="#613EEA"/>
<rect x="6.40039" y="12.8" width="5.33333" height="2.13333" fill="#613EEA"/>
<rect x="6.40039" y="17.0667" width="5.33333" height="1.06667" fill="#613EEA"/>
<rect x="6.40039" y="21.3333" width="5.33333" height="1.06667" fill="#613EEA"/>
<rect x="14.9336" y="23.4667" width="7.46667" height="2.13333" rx="1" fill="#613EEA"/>
<defs>
<clipPath id="clip0_78_746">
<rect width="13.3333" height="13.3333" fill="white" transform="translate(13.5625 6.80161) rotate(15)"/>
</clipPath>
</defs>
</svg>
