<svg width="32" height="32" viewBox="0 0 32 32" fill="none" xmlns="http://www.w3.org/2000/svg">
<g clip-path="url(#clip0_98_488)">
<path d="M24.9203 3.17683C24.5529 3.61597 23.8634 3.51271 23.6276 2.99119L23.6271 2.98992C23.5411 2.79254 23.4979 2.70327 23.4495 2.64324C23.4044 2.58732 23.3522 2.55347 23.2253 2.4805C23.1171 2.4185 22.9274 2.34215 22.6957 2.26365C22.4661 2.18584 22.2014 2.108 21.9475 2.0421C21.6933 1.97613 21.4519 1.92265 21.2684 1.89306C21.1761 1.87819 21.1015 1.86985 21.0483 1.86839C21.0308 1.86791 21.0171 1.86823 21.0069 1.86898C20.9991 1.88508 20.989 1.90693 20.9768 1.93418C20.9499 1.99414 20.9138 2.07741 20.8717 2.17664C20.7876 2.37496 20.68 2.63521 20.5739 2.89626C20.4677 3.15731 20.3633 3.41869 20.2854 3.61929C20.2466 3.71931 20.2146 3.80367 20.1923 3.86518C20.2427 3.87052 20.3089 3.87632 20.388 3.88231C20.5827 3.89705 20.8519 3.91262 21.148 3.92509L21.1481 3.92509C22.5862 3.98762 24.0248 4.12533 24.6962 4.27102L24.6964 4.27106C25.5035 4.44762 26.1173 4.68765 26.5847 5.03539C27.0542 5.38468 27.3695 5.83768 27.5876 6.42783L27.5877 6.42811L27.7502 6.87186L27.7562 6.88841L27.7563 6.90604L27.775 16.106V16.1061C27.7812 20.5276 27.7844 22.8362 27.7711 24.1089C27.7578 25.3791 27.7283 25.6251 27.6667 25.914C27.3415 27.5077 26.3565 28.6823 24.9256 29.1635L24.9249 29.1638L24.7132 29.2332L24.7892 29.2872L24.7894 29.2874C24.9034 29.3688 25.3038 29.646 25.7289 29.9402C25.7899 29.9825 25.8515 30.0251 25.9128 30.0675C26.1578 30.234 26.3951 30.4053 26.5807 30.5461C26.6736 30.6165 26.754 30.6797 26.8164 30.7312C26.8764 30.7807 26.9257 30.8242 26.9509 30.8537L26.951 30.8536L26.9544 30.858C27.0527 30.9866 27.1 31.1601 27.1 31.3562C27.1 31.5718 27.0301 31.7591 26.8998 31.8931C26.7693 32.0274 26.586 32.1 26.375 32.1C26.2966 32.1 26.2107 32.0915 26.134 32.0772C26.0611 32.0636 25.9859 32.0428 25.9332 32.0127C25.9047 31.9976 25.8314 31.9502 25.7315 31.8842C25.6237 31.8128 25.4768 31.7141 25.3017 31.5952C24.9513 31.3575 24.487 31.0386 23.993 30.6946C23.9929 30.6946 23.9929 30.6946 23.9929 30.6946L22.2251 29.475H16H9.7749L8.00714 30.6946C8.00707 30.6946 8.007 30.6947 8.00694 30.6947C7.51297 31.0386 7.04866 31.3575 6.69834 31.5952C6.52318 31.7141 6.37635 31.8128 6.26847 31.8842C6.16862 31.9503 6.09527 31.9977 6.0668 32.0127C6.0141 32.0428 5.93887 32.0636 5.86602 32.0772C5.78927 32.0915 5.70343 32.1 5.625 32.1C5.41401 32.1 5.2307 32.0274 5.10018 31.8931C4.96989 31.7591 4.9 31.5718 4.9 31.3562C4.9 31.2567 4.90718 31.1649 4.9374 31.0746C4.968 30.9832 5.01987 30.9001 5.09971 30.8129C5.25456 30.6439 5.52816 30.4464 5.99359 30.1299C6.43126 29.8298 6.92368 29.487 7.08475 29.3693L7.08474 29.3693L7.08563 29.3686L7.24095 29.2577L7.13936 29.2184C6.80937 29.0942 6.42012 28.843 6.05892 28.5442C5.69683 28.2448 5.35554 27.8913 5.12403 27.5569L5.12402 27.5569L5.12324 27.5558C4.83651 27.1288 4.56377 26.5641 4.3923 26.0306L4.39229 26.0306L4.39189 26.0293L4.24814 25.5606L4.24375 25.5462V25.5312V16.25V6.96875V6.95274L4.24875 6.93753L4.3925 6.50003L4.39253 6.49993C4.54128 6.04887 4.74658 5.66949 5.04382 5.35311C5.34105 5.03673 5.7258 4.78806 6.22685 4.59203C7.22452 4.2017 8.69603 4.0157 10.8896 3.92508C11.1762 3.91262 11.4359 3.89706 11.6234 3.88234C11.6977 3.87651 11.7599 3.87086 11.8078 3.86565C11.7856 3.8041 11.7535 3.71956 11.7146 3.61929C11.6367 3.41869 11.5323 3.15731 11.4261 2.89626C11.32 2.63521 11.2124 2.37496 11.1283 2.17664C11.0862 2.07741 11.0501 1.99414 11.0232 1.93418C11.011 1.90691 11.0009 1.88505 10.9931 1.86894C10.9825 1.86809 10.9682 1.86769 10.9499 1.86814C10.8964 1.86946 10.8217 1.8776 10.7296 1.89222C10.5463 1.92132 10.3058 1.97421 10.0524 2.03978C9.79933 2.10527 9.53555 2.1829 9.30615 2.26097C9.07478 2.33972 8.88474 2.41682 8.7751 2.48029L8.77485 2.48044C8.64787 2.55345 8.59561 2.5873 8.5505 2.64324C8.50209 2.70327 8.45889 2.79254 8.37294 2.98993L8.37237 2.99119C8.13658 3.51279 7.44687 3.616 7.07953 3.17664L7.07915 3.17619C7.01451 3.09793 6.9676 3.02277 6.93834 2.93122C6.90958 2.84122 6.9 2.74193 6.9 2.61875C6.9 1.88075 7.46656 1.30274 8.50053 0.871C9.53844 0.437614 11.082 0.135006 13.1166 -0.0371475L13.1167 -0.037159C13.6475 -0.0813904 15.0934 -0.0874748 16.5208 -0.0687447C17.9479 -0.0500183 19.371 -0.00631332 19.8554 0.0506821L19.8555 0.0506954C21.3584 0.229158 22.5022 0.464691 23.3346 0.779915C24.1664 1.09489 24.701 1.4947 24.9641 2.01084L24.9644 2.01153C25.0626 2.20794 25.1082 2.42903 25.1023 2.63414C25.0964 2.83791 25.0392 3.03566 24.9203 3.17683ZM24.9203 3.17683C24.9204 3.17677 24.9204 3.1767 24.9205 3.17664L24.8439 3.11261L24.9202 3.17691C24.9203 3.17688 24.9203 3.17686 24.9203 3.17683ZM20.9867 1.87193C20.9867 1.87199 20.9874 1.87183 20.9887 1.87136L20.9867 1.87193ZM11.011 1.87142C11.0119 1.87177 11.0125 1.87193 11.0127 1.87195L11.011 1.87142ZM12.7838 1.59968C12.7321 1.60383 12.687 1.60762 12.6497 1.61094C12.6715 1.67205 12.7026 1.75552 12.7411 1.85657C12.826 2.07927 12.9461 2.38493 13.0803 2.71894C13.0803 2.71895 13.0803 2.71895 13.0803 2.71896L13.5426 3.86875H16H18.457L18.9132 2.71327L19.345 1.61995L18.5613 1.55597C18.5612 1.55596 18.5611 1.55595 18.5609 1.55594C17.478 1.47508 14.5585 1.46885 13.3824 1.55598L13.3817 1.55602C13.1508 1.57162 12.9387 1.58722 12.7838 1.59968ZM22.7724 5.62461L22.7721 5.62458C21.9589 5.55008 20.5893 5.525 16.7809 5.5125C11.524 5.49374 11.3898 5.49379 9.66241 5.59981C8.2781 5.68731 7.37135 5.83534 6.7866 6.10045C6.4966 6.23193 6.28954 6.39065 6.14262 6.58216C5.99568 6.77369 5.90424 7.00407 5.85474 7.28604L5.75625 7.26875L5.85479 7.28578C5.85082 7.30876 5.84567 7.39597 5.84068 7.55202C5.83583 7.70364 5.83126 7.91178 5.82699 8.1686C5.81845 8.68215 5.81113 9.38891 5.80508 10.2246C5.79297 11.8957 5.78594 14.0814 5.78437 16.2657C5.78281 18.4499 5.78672 20.6325 5.79648 22.2975C5.80136 23.13 5.80771 23.8328 5.81556 24.3417C5.81949 24.5961 5.82379 24.8017 5.82846 24.9506C5.8308 25.0251 5.83321 25.0848 5.83568 25.1292C5.83831 25.1763 5.84072 25.1997 5.84196 25.2062L5.84198 25.2063C6.04297 26.26 6.75637 27.2378 7.63748 27.6663L8.05425 27.8687H15.8438H23.6422L24.1286 27.7289L24.1289 27.7288C24.57 27.6032 24.9164 27.4379 25.194 27.2171C25.471 26.9967 25.6839 26.7174 25.8533 26.3574L25.8537 26.3564C25.863 26.3373 25.872 26.3188 25.8807 26.301C25.9624 26.1333 26.0199 26.0154 26.0646 25.8152C26.1149 25.59 26.1489 25.2594 26.1712 24.6487C26.2128 23.5057 26.2127 21.4053 26.2125 17.2311C26.2125 16.9491 26.2125 16.6576 26.2125 16.3562C26.2125 13.3281 26.2078 11.1253 26.1969 9.64527C26.1914 8.90518 26.1844 8.3462 26.1756 7.95527C26.1712 7.75975 26.1664 7.60678 26.1612 7.49444C26.1558 7.37947 26.1502 7.31325 26.1454 7.28664L26.1452 7.28581C26.0986 7.01667 26.0163 6.79662 25.8858 6.61301C25.7555 6.42973 25.5733 6.2771 25.3183 6.14868C24.8034 5.88938 24.0036 5.73397 22.7724 5.62461Z" fill="#38004D" stroke="#38004D" stroke-width="0.2"/>
<path d="M8.3125 8.09372C7.875 8.23122 7.43125 8.55622 7.21875 8.89997L7.03125 9.20622L7.0125 13.4125L7 17.6187L7.15 17.9625C7.36875 18.45 7.85 18.9437 8.33125 19.1625L8.71875 19.3437L15.8063 19.3625C22.0563 19.375 22.9375 19.3687 23.2688 19.2812C23.9438 19.1062 24.5125 18.65 24.8188 18.0312L24.9688 17.7187L24.9875 13.5625C25.0063 8.96872 25.0188 9.10622 24.6063 8.68747C24.3313 8.40622 24.0188 8.21872 23.625 8.09997C23.325 8.01247 22.475 7.99997 15.9438 8.00622C9.81875 8.00622 8.54375 8.02497 8.3125 8.09372ZM23.4188 9.53747L23.5938 9.66872L23.6125 13.525L23.625 17.375L23.3813 17.6187C23.2438 17.7562 23.025 17.8937 22.8938 17.9312C22.5688 18.025 9.375 18.025 9.05 17.9375C8.91875 17.9 8.73125 17.7687 8.6 17.625L8.375 17.375V13.5312C8.375 9.74997 8.375 9.68747 8.5 9.57497C8.56875 9.51872 8.6875 9.44997 8.76875 9.42497C8.84375 9.40622 12.1313 9.39372 16.075 9.39372L23.2438 9.40622L23.4188 9.53747Z" fill="#38004D"/>
<path d="M8.9375 21.4125C8.2125 21.6062 7.5625 22.1562 7.23125 22.8625C7.04375 23.2562 7.03125 23.3187 7.03125 24C7.03125 24.6812 7.04375 24.7437 7.23125 25.1375C7.56875 25.8562 8.2125 26.3937 8.96875 26.5875C10.875 27.0875 12.6375 25.4875 12.3125 23.5562C12.0438 21.9812 10.4938 20.9937 8.9375 21.4125ZM10.0188 22.7562C10.3063 22.8375 10.7 23.175 10.8375 23.4625C10.9688 23.7375 10.9688 24.2625 10.8375 24.5375C10.6938 24.8375 10.3 25.1687 9.99375 25.25C9.39375 25.4125 8.71875 25.0687 8.46875 24.4875C8.225 23.8937 8.475 23.1812 9.03125 22.8937C9.425 22.6875 9.65625 22.6562 10.0188 22.7562Z" fill="#613EEA"/>
<path d="M21.5499 21.4312C20.5436 21.7562 19.8624 22.5375 19.6874 23.5562C19.3624 25.4875 21.1249 27.0875 23.0311 26.5875C23.7874 26.3937 24.4311 25.8562 24.7686 25.1375C24.9561 24.7437 24.9686 24.6812 24.9686 24C24.9686 23.3187 24.9561 23.2562 24.7686 22.8625C24.5499 22.3937 24.1186 21.925 23.6874 21.6687C23.0811 21.3187 22.2124 21.2187 21.5499 21.4312ZM22.9249 22.8687C23.8561 23.3437 23.8624 24.65 22.9374 25.125C22.4186 25.3937 21.9124 25.3312 21.4999 24.9625C21.1936 24.6812 21.0624 24.4 21.0624 24C21.0624 23.025 22.0499 22.4187 22.9249 22.8687Z" fill="#613EEA"/>
</g>
<defs>
<clipPath id="clip0_98_488">
<rect width="32" height="32" fill="white"/>
</clipPath>
</defs>
</svg>
