<svg width="18" height="18" viewBox="0 0 18 18" fill="none" xmlns="http://www.w3.org/2000/svg">
<path d="M7.38281 0.0351555C5.09766 0.228515 3.9375 0.713671 3.9375 1.47305C3.9375 1.60664 3.95859 1.66992 4.02539 1.75078C4.20469 1.96523 4.54219 1.91601 4.6582 1.65937C4.75312 1.44141 4.76719 1.42734 4.90781 1.34648C5.175 1.1918 6.15586 0.938671 6.22266 1.00547C6.25078 1.03711 6.71484 2.17617 6.71484 2.21836C6.71484 2.22891 6.45117 2.25 6.12773 2.26406C3.65977 2.36602 2.85117 2.68242 2.52422 3.67383L2.44336 3.91992V9.14062V14.3613L2.52422 14.625C2.61914 14.9203 2.77031 15.2332 2.92852 15.4687C3.18164 15.8344 3.68086 16.2492 4.03594 16.3828L4.19062 16.4426L4.01836 16.5656C3.92695 16.6324 3.64922 16.8258 3.40312 16.9945C2.87578 17.3531 2.8125 17.4234 2.8125 17.6379C2.8125 17.8559 2.95312 18 3.16406 18C3.24492 18 3.34336 17.9824 3.38555 17.9578C3.42773 17.9367 3.91641 17.6062 4.47187 17.2195L5.48086 16.5234H9H12.5191L13.5281 17.2195C14.0836 17.6062 14.5723 17.9367 14.6145 17.9578C14.6566 17.9824 14.7551 18 14.8359 18C15.0469 18 15.1875 17.8559 15.1875 17.6379C15.1875 17.5359 15.1629 17.4516 15.1172 17.3918C15.075 17.3426 14.8184 17.1457 14.5441 16.9594C14.2699 16.7695 13.9852 16.5727 13.9113 16.5199L13.7777 16.425L14.0027 16.3512C14.7867 16.0875 15.3281 15.4441 15.5074 14.5652C15.5742 14.2523 15.5742 14.0344 15.5672 9.05977L15.5566 3.88477L15.4652 3.63516C15.2262 2.98828 14.7797 2.6543 13.8797 2.45742C13.507 2.37656 12.702 2.29922 11.8934 2.26406C11.5594 2.25 11.2852 2.22891 11.2852 2.21836C11.2852 2.17617 11.7492 1.03711 11.7773 1.00547C11.8406 0.938671 12.8285 1.19531 13.0922 1.34648C13.2328 1.42734 13.2469 1.44141 13.3418 1.65937C13.4578 1.91601 13.7953 1.96523 13.9746 1.75078C14.0871 1.61719 14.0941 1.36055 13.9922 1.15664C13.7145 0.611718 12.8496 0.284765 11.1621 0.0843743C10.6242 0.021093 7.97344 -0.0140632 7.38281 0.0351555ZM10.4449 0.81914L10.9617 0.861327L10.691 1.54687L10.4203 2.23242H9H7.57969L7.30547 1.55039C7.1543 1.17422 7.03477 0.861327 7.0418 0.857812C7.04531 0.854296 7.26328 0.836718 7.52344 0.81914C8.18789 0.769921 9.8332 0.773437 10.4449 0.81914ZM12.8145 3.10781C14.1996 3.23086 14.6531 3.45937 14.7621 4.08867C14.7902 4.24336 14.8008 5.79375 14.8008 9.20039C14.8008 14.5547 14.8078 14.407 14.5934 14.85C14.3965 15.2684 14.0941 15.5074 13.5879 15.6516L13.3066 15.7324H8.91211H4.51758L4.27148 15.6129C3.7582 15.3633 3.34687 14.7973 3.23086 14.1891C3.18164 13.9324 3.18867 4.37344 3.23789 4.08867C3.35391 3.42773 3.87422 3.19219 5.43164 3.09375C6.40547 3.03398 6.48281 3.03398 9.43945 3.04453C11.5805 3.05156 12.3539 3.06562 12.8145 3.10781Z" fill="white"/>
<path d="M4.67578 4.55274C4.42969 4.63008 4.18008 4.81289 4.06055 5.00625L3.95508 5.17852L3.94453 7.54454L3.9375 9.91055L4.02188 10.1039C4.14492 10.3781 4.41563 10.6559 4.68633 10.7789L4.9043 10.8809L8.89102 10.8914C12.4066 10.8984 12.9023 10.8949 13.0887 10.8457C13.4684 10.7473 13.7883 10.4906 13.9605 10.1426L14.0449 9.9668L14.0555 7.62891C14.066 5.04493 14.073 5.12227 13.841 4.88672C13.6863 4.72852 13.5105 4.62305 13.2891 4.55625C13.1203 4.50704 12.6422 4.5 8.96836 4.50352C5.52305 4.50352 4.80586 4.51407 4.67578 4.55274ZM13.173 5.36485L13.2715 5.43868L13.282 7.60782L13.2891 9.77344L13.152 9.91055C13.0746 9.9879 12.9516 10.0652 12.8777 10.0863C12.6949 10.1391 5.27344 10.1391 5.09063 10.0898C5.0168 10.0688 4.91133 9.99493 4.8375 9.91407L4.71094 9.77344V7.61133C4.71094 5.48438 4.71094 5.44922 4.78125 5.38594C4.81992 5.3543 4.88672 5.31563 4.93242 5.30157C4.97461 5.29102 6.82383 5.28399 9.04219 5.28399L13.0746 5.29102L13.173 5.36485Z" fill="white"/>
<path d="M5.02734 12.0446C4.61953 12.1536 4.25391 12.4629 4.06758 12.8602C3.96211 13.0817 3.95508 13.1169 3.95508 13.5001C3.95508 13.8833 3.96211 13.9184 4.06758 14.1399C4.25742 14.5442 4.61953 14.8465 5.04492 14.9555C6.11719 15.2368 7.10859 14.3368 6.92578 13.2504C6.77461 12.3645 5.90273 11.809 5.02734 12.0446ZM5.63555 12.8004C5.79727 12.8462 6.01875 13.036 6.09609 13.1977C6.16992 13.3524 6.16992 13.6477 6.09609 13.8024C6.01523 13.9712 5.79375 14.1575 5.62148 14.2032C5.28398 14.2946 4.9043 14.1012 4.76367 13.7743C4.62656 13.4403 4.76719 13.0395 5.08008 12.8778C5.30156 12.7618 5.43164 12.7442 5.63555 12.8004Z" fill="white"/>
<path d="M12.1223 12.0551C11.5563 12.2379 11.1731 12.6774 11.0746 13.2504C10.8918 14.3368 11.8832 15.2368 12.9555 14.9555C13.3809 14.8465 13.743 14.5442 13.9328 14.1399C14.0383 13.9184 14.0453 13.8833 14.0453 13.5001C14.0453 13.1169 14.0383 13.0817 13.9328 12.8602C13.8098 12.5965 13.5672 12.3329 13.3246 12.1887C12.9836 11.9919 12.4949 11.9356 12.1223 12.0551ZM12.8957 12.8637C13.4195 13.1309 13.4231 13.8657 12.9028 14.1329C12.611 14.284 12.3262 14.2489 12.0942 14.0415C11.9219 13.8833 11.8481 13.7251 11.8481 13.5001C11.8481 12.9516 12.4035 12.6106 12.8957 12.8637Z" fill="white"/>
</svg>
