<svg width="135" height="135" viewBox="0 0 135 135" fill="none" xmlns="http://www.w3.org/2000/svg">
<path d="M67.071 129.425C97.1677 129.425 121.566 105.027 121.566 74.9304C121.566 44.8338 97.1677 20.4356 67.071 20.4356C36.9743 20.4356 12.5762 44.8338 12.5762 74.9304C12.5762 105.027 36.9743 129.425 67.071 129.425Z" fill="#613EEA"/>
<path d="M61.6299 95.89C60.3929 95.8921 59.1887 95.4909 58.1991 94.747L58.1377 94.7009L45.2154 84.7921C44.617 84.3322 44.1147 83.7586 43.7374 83.1041C43.36 82.4496 43.115 81.727 43.0163 80.9776C42.9175 80.2282 42.967 79.4666 43.1618 78.7363C43.3567 78.0061 43.6931 77.3214 44.152 76.7215C44.6108 76.1216 45.183 75.6182 45.8359 75.2399C46.4889 74.8617 47.2097 74.616 47.9573 74.517C48.705 74.4181 49.4647 74.4676 50.1932 74.663C50.9217 74.8583 51.6047 75.1956 52.2032 75.6555L60.5732 82.0894L80.3519 56.224C80.8105 55.6243 81.3825 55.1211 82.0352 54.743C82.6878 54.3649 83.4084 54.1194 84.1557 54.0204C84.903 53.9215 85.6625 53.971 86.3907 54.1663C87.1189 54.3616 87.8016 54.6987 88.3998 55.1584L88.4015 55.1597L88.2787 55.3305L88.4048 55.1597C89.6117 56.0895 90.4014 57.4612 90.6004 58.974C90.7995 60.4867 90.3917 62.0168 89.4666 63.2285L66.2025 93.6383C65.6643 94.339 64.9723 94.906 64.1802 95.2953C63.3881 95.6846 62.5171 95.8858 61.6349 95.8832L61.6299 95.89Z" fill="white"/>
<path opacity="0.6" d="M40.6748 7.98993C42.8812 7.98993 44.6698 6.20132 44.6698 3.99497C44.6698 1.78861 42.8812 0 40.6748 0C38.4684 0 36.6797 1.78861 36.6797 3.99497C36.6797 6.20132 38.4684 7.98993 40.6748 7.98993Z" fill="#613EEA"/>
<path opacity="0.5" d="M131.862 134.297C133.207 134.297 134.297 133.206 134.297 131.861C134.297 130.516 133.207 129.425 131.862 129.425C130.516 129.425 129.426 130.516 129.426 131.861C129.426 133.206 130.516 134.297 131.862 134.297Z" fill="#613EEA"/>
<path opacity="0.25" d="M2.43574 108.621C3.78097 108.621 4.87148 107.531 4.87148 106.185C4.87148 104.84 3.78097 103.75 2.43574 103.75C1.09052 103.75 0 104.84 0 106.185C0 107.531 1.09052 108.621 2.43574 108.621Z" fill="#613EEA"/>
</svg>
