<svg width="46" height="46" viewBox="0 0 46 46" fill="none" xmlns="http://www.w3.org/2000/svg">
<path d="M13.9527 10.1883C13.0273 10.4848 12.2007 11.2125 11.7875 12.1109C11.6078 12.4973 11.5449 12.8117 11.5179 13.3867C11.491 14.0695 11.5 14.1773 11.6976 14.4559C12.048 14.977 12.3445 15.1387 12.9375 15.1387C13.3328 15.1387 13.5304 15.0848 13.7191 14.95C14.1054 14.6625 14.348 14.2402 14.4199 13.7551C14.5367 12.9016 13.3507 12.9824 25.8839 12.9824H36.9168L37.1234 13.1891C37.3211 13.3867 37.33 13.4496 37.357 15.3184L37.3929 17.241L35.066 17.268L32.739 17.2949L32.155 17.5824C31.4363 17.9328 30.8074 18.5797 30.475 19.2984L30.2324 19.8105V23V26.1895L30.475 26.7016C30.8074 27.4203 31.4363 28.0672 32.155 28.4176L32.739 28.7051L35.066 28.732L37.3929 28.759L37.357 30.6816C37.33 32.5504 37.3211 32.6133 37.1234 32.8109L36.9168 33.0176H25.8839C13.3507 33.0176 14.5367 33.0984 14.4199 32.2449C14.348 31.7598 14.1054 31.3375 13.7191 31.05C13.5304 30.9152 13.3328 30.8613 12.9375 30.8613C12.3445 30.8613 12.048 31.023 11.6976 31.5441C11.5 31.8227 11.491 31.9305 11.5179 32.6133C11.5808 33.952 12.2726 35.0121 13.4675 35.6051L14.0605 35.8926H25.875H37.6894L38.2824 35.6051C39.0011 35.2547 39.63 34.6078 39.9625 33.8891C40.205 33.377 40.205 33.359 40.232 31.068L40.2589 28.768L41.1304 28.732C41.8492 28.7051 42.0918 28.6602 42.514 28.4625C43.2328 28.1301 43.8796 27.5012 44.23 26.7824L44.5175 26.1895V23V19.8105L44.23 19.2176C43.8796 18.4988 43.2328 17.8699 42.514 17.5375C42.0918 17.3398 41.8492 17.2949 41.1304 17.268L40.2589 17.232L40.232 14.923L40.205 12.6141L39.9175 12.0301C39.5671 11.3113 38.9203 10.6824 38.2015 10.35L37.6894 10.1074L26.0097 10.0895C16.5312 10.0805 14.2582 10.0984 13.9527 10.1883ZM41.4359 20.3766C41.6425 20.5742 41.6425 20.6012 41.6425 23C41.6425 25.3988 41.6425 25.4258 41.4359 25.6234L41.2293 25.8301H37.375H33.5207L33.314 25.6234C33.1074 25.4258 33.1074 25.3988 33.1074 23.009C33.1074 20.7809 33.1164 20.5742 33.2781 20.4125C33.3679 20.3047 33.5296 20.2059 33.6375 20.1879C33.7363 20.1609 35.4972 20.152 37.5277 20.1609L41.2293 20.1699L41.4359 20.3766Z" fill="#38004D"/>
<path d="M5.43506 14.375C4.97686 14.4738 4.86006 14.5816 3.171 16.2797C0.754199 18.7234 0.754199 18.6516 3.171 21.0953C4.06943 22.0027 4.91397 22.8023 5.04873 22.8742C5.36318 23.0359 6.13584 23.0359 6.46826 22.8652C7.04326 22.5688 7.35772 21.832 7.18701 21.1941C7.13311 20.9965 6.94443 20.673 6.76475 20.4754L6.45029 20.125H12.0925C17.573 20.125 17.7526 20.116 18.0401 19.9453C18.4714 19.6758 18.687 19.2715 18.687 18.6875C18.687 18.1035 18.4714 17.6992 18.0401 17.4297C17.7526 17.259 17.573 17.25 12.0925 17.25H6.43232L6.71084 16.9535C7.09717 16.5492 7.20498 16.2977 7.20498 15.8125C7.20498 14.8422 6.36943 14.1594 5.43506 14.375Z" fill="#613EEA"/>
<path d="M14.0236 21.5625C13.3588 21.7152 12.9186 22.2902 12.9186 22.991C12.9186 23.4852 13.0264 23.7277 13.4127 24.141L13.6912 24.4375H8.03105C2.55059 24.4375 2.3709 24.4465 2.0834 24.6172C1.65215 24.8867 1.43652 25.291 1.43652 25.875C1.43652 26.459 1.65215 26.8633 2.0834 27.1328C2.3709 27.3035 2.55059 27.3125 8.03105 27.3125H13.6732L13.3588 27.6629C13.1791 27.8605 12.9904 28.184 12.9365 28.3816C12.7658 29.0195 13.0803 29.7563 13.6553 30.0527C13.9877 30.2234 14.7604 30.2234 15.0748 30.0617C15.2096 29.9898 16.0541 29.1902 16.9525 28.2828C18.3182 26.8992 18.5967 26.5758 18.6775 26.2523C18.8842 25.4887 18.7584 25.291 16.9525 23.4672C16.0541 22.5598 15.2186 21.7691 15.0928 21.7062C14.7693 21.5355 14.374 21.4906 14.0236 21.5625Z" fill="#613EEA"/>
</svg>
