<?xml version="1.0" encoding="UTF-8"?>
<svg version="1.1" xmlns="http://www.w3.org/2000/svg" width="50" height="50">
<path d="M0 0 C16.5 0 33 0 50 0 C50 10.56 50 21.12 50 32 C33.5 32 17 32 0 32 C0 21.44 0 10.88 0 0 Z M2 2 C2 11.24 2 20.48 2 30 C17.18 30 32.36 30 48 30 C48 20.76 48 11.52 48 2 C32.82 2 17.64 2 2 2 Z " fill="#229F27" transform="translate(0,7)"/>
<path d="M0 0 C10.23 0 20.46 0 31 0 C31 0.66 31 1.32 31 2 C20.77 2 10.54 2 0 2 C0 1.34 0 0.68 0 0 Z " fill="#229F27" transform="translate(9,41)"/>
</svg>
