<svg width="31" height="25" viewBox="0 0 31 25" fill="none" xmlns="http://www.w3.org/2000/svg">
<path d="M20.0764 18.3073C19.6777 18.5691 19.3133 18.8795 18.9915 19.2315C17.5784 20.5144 16.1779 21.8113 14.7692 23.0986C14.7261 23.1733 14.6627 23.2342 14.5863 23.2743C14.51 23.3143 14.4238 23.3319 14.3379 23.3249L20.8804 0.462494L23.701 5.76627C24.6732 7.63644 25.6275 9.51579 26.6299 11.3694C26.6934 11.4459 26.7397 11.5351 26.7658 11.631C26.7919 11.7269 26.7972 11.8273 26.7812 11.9254C26.7653 12.0235 26.7285 12.1171 26.6734 12.1998C26.6183 12.2825 26.5461 12.3525 26.4617 12.4049C24.342 14.3166 22.2516 16.2615 20.1512 18.1946C20.1377 18.1969 20.1249 18.2018 20.1134 18.2091C20.1019 18.2164 20.092 18.2259 20.0842 18.2371C20.0765 18.2483 20.0711 18.261 20.0683 18.2743C20.0656 18.2877 20.0655 18.3014 20.0681 18.3148L20.0764 18.3073Z" fill="#38004D"/>
<path d="M20.1514 18.195C22.2519 16.2615 24.3418 14.3166 26.462 12.4045C26.5464 12.352 26.6186 12.2821 26.6737 12.1994C26.7288 12.1166 26.7656 12.0231 26.7815 11.925C26.7975 11.8268 26.7922 11.7264 26.7661 11.6305C26.74 11.5346 26.6936 11.4454 26.6302 11.3689C25.6278 9.51578 24.6735 7.63643 23.7013 5.76626L24.906 1.67198L25.0239 1.27086C25.0831 1.28575 25.1363 1.31854 25.1762 1.36475C25.2161 1.41097 25.2407 1.46836 25.2468 1.5291C27.1315 5.12321 29.0157 8.71775 30.8992 12.3127C30.9376 12.3571 30.9662 12.4091 30.983 12.4653C30.9999 12.5214 31.0047 12.5805 30.9972 12.6387C30.9896 12.6969 30.9699 12.7528 30.9392 12.8028C30.9086 12.8528 30.8677 12.8957 30.8193 12.9288C26.7964 16.6022 22.7793 20.2819 18.768 23.9681C18.7333 24.0012 18.692 24.0267 18.6469 24.043C18.6018 24.0594 18.5537 24.0661 18.5059 24.0629C18.64 23.5866 18.7724 23.1099 18.9083 22.6341C19.2832 21.3232 19.662 20.0141 20.0313 18.7023C20.0687 18.6444 20.0922 18.5786 20.1001 18.5101C20.1079 18.4416 20.0997 18.3722 20.0763 18.3073L20.0684 18.3148C20.1777 18.3309 20.1444 18.2492 20.1514 18.195Z" fill="#613EEA"/>
<path d="M14.0245 8.15935L13.3159 10.4912H0.300781L0.999582 8.15935H14.0245ZM7.25967 21.077L0.621065 14.2491L0.630771 12.1521H3.91125C4.64241 12.1521 5.25386 12.0347 5.7456 11.7998C6.23735 11.5649 6.60617 11.2462 6.85204 10.8436C7.09791 10.4409 7.22409 9.98237 7.23056 9.4679C7.22409 8.69619 6.96204 8.06709 6.44441 7.58057C5.93325 7.08847 5.08886 6.84242 3.91125 6.84242H0.300781L1.09664 3.89819H3.91125C5.5612 3.89819 6.93615 4.11349 8.03612 4.54408C9.14255 4.96908 9.97076 5.57582 10.5207 6.3643C11.0772 7.15278 11.3587 8.09225 11.3651 9.18271C11.3587 10.1501 11.171 10.9945 10.8022 11.7159C10.4399 12.4373 9.86724 13.0384 9.08432 13.5194C8.30788 14.0003 7.29526 14.3582 6.04648 14.593L5.89119 14.6434L11.831 20.9261V21.077H7.25967ZM14.0439 3.89819L13.3159 6.26364H2.601L3.32892 3.89819H14.0439Z" fill="#613EEA"/>
</svg>
