<svg width="24" height="24" viewBox="0 0 24 24" fill="none" xmlns="http://www.w3.org/2000/svg">
<path d="M9.84675 17.2001C9.50458 17.4247 9.19179 17.6912 8.91563 17.9932C7.70288 19.0942 6.501 20.2072 5.292 21.312C5.25503 21.3761 5.20062 21.4284 5.1351 21.4628C5.06957 21.4972 4.99563 21.5122 4.92188 21.5062L10.5368 1.8855L12.9574 6.43725C13.7918 8.04225 14.6108 9.65512 15.471 11.2459C15.5255 11.3115 15.5652 11.3881 15.5876 11.4704C15.61 11.5527 15.6146 11.6389 15.6009 11.7231C15.5872 11.8073 15.5557 11.8876 15.5083 11.9586C15.461 12.0296 15.3991 12.0896 15.3266 12.1346C13.5075 13.7752 11.7135 15.4444 9.91087 17.1034C9.89935 17.1053 9.88833 17.1095 9.87846 17.1158C9.8686 17.1221 9.8601 17.1303 9.85345 17.1399C9.84681 17.1495 9.84216 17.1603 9.83979 17.1718C9.83741 17.1832 9.83736 17.195 9.83962 17.2065L9.84675 17.2001Z" fill="#38004D"/>
<path d="M9.91225 17.1038C11.7149 15.4444 13.5085 13.7753 15.328 12.1343C15.4004 12.0892 15.4624 12.0292 15.5097 11.9582C15.557 11.8872 15.5886 11.8069 15.6023 11.7227C15.6159 11.6385 15.6114 11.5523 15.589 11.47C15.5666 11.3877 15.5268 11.3112 15.4724 11.2455C14.6121 9.65513 13.7931 8.04225 12.9587 6.43725L13.9926 2.9235L14.0939 2.57925C14.1447 2.59203 14.1903 2.62017 14.2245 2.65984C14.2588 2.6995 14.2799 2.74875 14.2851 2.80088C15.9026 5.88538 17.5196 8.97025 19.1361 12.0555C19.169 12.0936 19.1936 12.1382 19.208 12.1864C19.2225 12.2346 19.2267 12.2853 19.2202 12.3352C19.2137 12.3852 19.1968 12.4331 19.1704 12.4761C19.1441 12.519 19.1091 12.5558 19.0675 12.5843C15.615 15.7368 12.1675 18.8948 8.725 22.0583C8.69518 22.0867 8.65978 22.1086 8.62104 22.1226C8.58231 22.1366 8.54109 22.1424 8.5 22.1396C8.61512 21.7309 8.72875 21.3218 8.84537 20.9134C9.16712 19.7884 9.49225 18.6649 9.80912 17.5391C9.84125 17.4894 9.86146 17.433 9.86816 17.3742C9.87486 17.3153 9.86787 17.2558 9.84775 17.2001L9.841 17.2065C9.93475 17.2204 9.90625 17.1503 9.91225 17.1038Z" fill="#613EEA"/>
<path d="M9.91268 17.1038C9.90668 17.1503 9.93518 17.2204 9.84143 17.2065C9.83922 17.1951 9.83932 17.1833 9.84172 17.1719C9.84412 17.1605 9.84878 17.1497 9.85542 17.1401C9.86206 17.1306 9.87054 17.1224 9.88038 17.1162C9.89021 17.1099 9.9012 17.1057 9.91268 17.1038Z" fill="#FEFEFE"/>
</svg>
