<svg width="49" height="14" viewBox="0 0 49 14" fill="none" xmlns="http://www.w3.org/2000/svg">
<path d="M37.5007 13.9048H34.8777L38.5256 0.729962H41.1488L37.5007 13.9048Z" fill="#613EEA"/>
<path d="M36.1387 1.14661C35.9569 0.895917 35.6764 0.769413 35.2954 0.769413H20.8717L20.1573 3.34983H22.7818V3.34834H33.2788L32.5151 6.10586H22.0178L22.0188 6.10014H19.3954L17.218 13.9607H19.8428L21.304 8.68478H33.1037C33.4722 8.68478 33.8191 8.55909 34.1453 8.30771C34.4708 8.05607 34.685 7.74579 34.7877 7.37526L36.2488 2.09825C36.3554 1.71534 36.3186 1.39758 36.1387 1.14661Z" fill="#613EEA"/>
<path d="M15.6898 13.0823C15.5449 13.604 15.0699 13.9648 14.5284 13.9648H0.995019C0.626252 13.9648 0.352159 13.8392 0.171924 13.5881C-0.00817434 13.3367 -0.0468055 13.0257 0.0561664 12.6553L3.35834 0.768394H5.98378L3.03432 11.3852H13.5364L16.4858 0.768394H19.1107L15.6898 13.0823Z" fill="#613EEA"/>
<path d="M45.6792 0.754476L49.0002 7.35896L42.019 13.9617L45.6792 0.754476Z" fill="#27803B"/>
<path d="M43.3508 0.754476L46.6693 7.35896L39.6853 13.9617L43.3508 0.754476Z" fill="#E9661C"/>
</svg>
