<svg width="30" height="30" viewBox="0 0 30 30" fill="none" xmlns="http://www.w3.org/2000/svg">
<g clip-path="url(#clip0_824_2445)">
<mask id="path-1-outside-1_824_2445" maskUnits="userSpaceOnUse" x="2.16602" y="-0.999756" width="25" height="32" fill="black">
<rect fill="white" x="2.16602" y="-0.999756" width="25" height="32"/>
<path d="M9.1801 11.8822L11.7471 9.31643C11.7879 9.27567 11.8203 9.22726 11.8424 9.17397C11.8645 9.12069 11.8759 9.06357 11.8759 9.00588C11.8759 8.94819 11.8645 8.89108 11.8424 8.83779C11.8203 8.7845 11.7879 8.73609 11.7471 8.69533L9.1801 6.12834C9.11865 6.06696 9.04038 6.02517 8.95518 6.00824C8.86999 5.99132 8.78169 6.00002 8.70144 6.03325C8.62118 6.06648 8.55258 6.12275 8.50429 6.19494C8.45599 6.26714 8.43018 6.35203 8.4301 6.43889V7.34065L7.2178 6.12834C7.15634 6.06696 7.07807 6.02517 6.99288 6.00824C6.90768 5.99132 6.81938 6.00002 6.73913 6.03325C6.65888 6.06648 6.59028 6.12275 6.54198 6.19494C6.49369 6.26714 6.46787 6.35203 6.4678 6.43889V11.5723C6.46763 11.6592 6.49334 11.7443 6.54165 11.8166C6.58996 11.8889 6.65869 11.9452 6.73909 11.9783C6.79215 12.0006 6.84913 12.0119 6.90667 12.0117C7.02327 12.0118 7.13515 11.9657 7.2178 11.8834L8.4301 10.6711V11.5723C8.43009 11.6592 8.45586 11.7442 8.50415 11.8165C8.55244 11.8887 8.62108 11.9451 8.70139 11.9783C8.75466 12.0006 8.81183 12.0119 8.86956 12.0117C8.92729 12.0116 8.98443 12.0001 9.03771 11.9779C9.091 11.9557 9.13938 11.9232 9.1801 11.8822ZM9.30901 9.79104L9.78479 9.31643C9.86694 9.23395 9.91307 9.12229 9.91307 9.00588C9.91307 8.88947 9.86694 8.77781 9.78479 8.69533L9.30901 8.21955V7.50002L10.8149 9.00588L9.30901 10.5117V9.79104ZM8.55901 9.29768L7.34729 10.51V7.50002L8.55901 8.71174L8.85198 9.00471L8.55901 9.29768ZM25.1996 17.1949C24.774 16.7802 24.2849 16.4362 23.7506 16.176V2.20432C23.7498 1.6217 23.518 1.06318 23.106 0.651266C22.694 0.23935 22.1354 0.00767289 21.5528 0.00705278H18.9489C18.8985 -0.0020254 18.8469 -0.0020254 18.7965 0.00705278H10.8946C10.8442 -0.0020254 10.7926 -0.0020254 10.7422 0.00705278H8.13889C7.55633 0.00767318 6.99781 0.239369 6.58588 0.651302C6.17394 1.06324 5.94225 1.62176 5.94163 2.20432V4.29729C5.5258 4.53333 5.14216 4.82204 4.80022 5.15627C4.28333 5.65542 3.87224 6.25354 3.59148 6.91498C3.31071 7.57642 3.16602 8.28762 3.16602 9.00617C3.16602 9.72473 3.31071 10.4359 3.59148 11.0974C3.87224 11.7588 4.28333 12.3569 4.80022 12.8561C5.14243 13.1888 5.52605 13.4762 5.94163 13.711V27.8028C5.94225 28.3853 6.17394 28.9438 6.58588 29.3558C6.99781 29.7677 7.55633 29.9994 8.13889 30H21.5528C22.1353 29.9992 22.6937 29.7675 23.1056 29.3556C23.5175 28.9437 23.7492 28.3853 23.75 27.8028V25.9149C24.2843 25.6544 24.7735 25.3103 25.199 24.8953C25.716 24.3961 26.1271 23.798 26.4078 23.1365C26.6886 22.475 26.8333 21.7637 26.8333 21.0451C26.8333 20.3265 26.6886 19.6153 26.4078 18.9538C26.1271 18.2923 25.7165 17.6941 25.1996 17.1949ZM18.1549 0.885959L17.7535 1.68811C17.7062 1.78204 17.6335 1.86088 17.5438 1.91575C17.454 1.97062 17.3507 1.99933 17.2455 1.99865H12.4485C12.3433 1.99933 12.24 1.97062 12.1502 1.91575C12.0605 1.86088 11.9878 1.78204 11.9405 1.68811L11.5367 0.885959H18.1549ZM5.4137 12.2256C4.98084 11.8083 4.63655 11.3079 4.40139 10.7545C4.16623 10.2011 4.04503 9.606 4.04503 9.00471C4.04503 8.40342 4.16623 7.80829 4.40139 7.25489C4.63655 6.70149 4.98084 6.20117 5.4137 5.78381C6.30474 4.92458 7.49432 4.44445 8.73215 4.44445C9.96999 4.44445 11.1596 4.92458 12.0506 5.78381C12.4837 6.20104 12.8282 6.70132 13.0635 7.25474C13.2988 7.80816 13.4201 8.40335 13.4201 9.00471C13.4201 9.60607 13.2988 10.2013 13.0635 10.7547C12.8282 11.3081 12.4837 11.8084 12.0506 12.2256C11.1596 13.0848 9.96999 13.565 8.73215 13.565C7.49432 13.565 6.30474 13.0848 5.4137 12.2256ZM22.8711 27.8028C22.8707 28.1523 22.7316 28.4873 22.4845 28.7345C22.2373 28.9816 21.9023 29.1207 21.5528 29.1211H8.13889C7.78934 29.1208 7.45419 28.9818 7.20701 28.7346C6.95984 28.4875 6.82084 28.1523 6.82053 27.8028V14.1153C7.43355 14.3333 8.07946 14.4445 8.7301 14.444C10.1985 14.4507 11.6107 13.8797 12.6617 12.8543C13.1788 12.3553 13.59 11.7572 13.8709 11.0957C14.1517 10.4343 14.2965 9.72302 14.2965 9.00442C14.2965 8.28581 14.1517 7.57457 13.8709 6.91312C13.59 6.25167 13.1788 5.65358 12.6617 5.15451C11.6105 4.12946 10.1984 3.55874 8.7301 3.56545C8.07867 3.56464 7.43195 3.67583 6.81819 3.89416V2.20432C6.8185 1.85476 6.9575 1.51961 7.20467 1.27244C7.45184 1.02527 7.78699 0.886269 8.13655 0.885959H10.5524L11.1553 2.08362C11.2755 2.32328 11.4602 2.5246 11.6887 2.66489C11.9172 2.80517 12.1804 2.87883 12.4485 2.87756H17.2432C17.5112 2.87879 17.7743 2.8051 18.0026 2.66482C18.231 2.52454 18.4157 2.32323 18.5358 2.08362L19.1387 0.885959H21.5528C21.9023 0.886424 22.2373 1.02547 22.4845 1.27261C22.7316 1.51975 22.8707 1.85481 22.8711 2.20432V15.8344C22.35 15.6822 21.8097 15.6052 21.2668 15.6059C19.7985 15.5992 18.3865 16.1699 17.3352 17.1949C16.8181 17.6941 16.4069 18.2922 16.126 18.9537C15.8452 19.6152 15.7004 20.3265 15.7004 21.0451C15.7004 21.7638 15.8452 22.4751 16.126 23.1366C16.4069 23.7981 16.8181 24.3962 17.3352 24.8953C18.387 25.921 19.8001 26.4917 21.2692 26.4844C21.8121 26.485 22.3523 26.4081 22.8735 26.2559L22.8711 27.8028ZM24.5856 24.266C23.6945 25.1253 22.5049 25.6054 21.2671 25.6054C20.0293 25.6054 18.8397 25.1253 17.9487 24.266C17.5156 23.8488 17.1711 23.3485 16.9358 22.7951C16.7005 22.2417 16.5792 21.6465 16.5792 21.0451C16.5792 20.4438 16.7005 19.8486 16.9358 19.2952C17.1711 18.7418 17.5156 18.2415 17.9487 17.8242C18.8397 16.965 20.0293 16.4849 21.2671 16.4849C22.5049 16.4849 23.6945 16.965 24.5856 17.8242C25.0184 18.2416 25.3627 18.7419 25.5979 19.2953C25.833 19.8487 25.9542 20.4438 25.9542 21.0451C25.9542 21.6464 25.833 22.2416 25.5979 22.795C25.3627 23.3484 25.0184 23.8487 24.5856 24.266ZM15.428 9.0674C15.428 9.07678 15.428 9.08557 15.428 9.09436V9.09904C15.4384 9.21412 15.4937 9.32044 15.5821 9.39494L17.2672 10.8135C17.3114 10.8507 17.3624 10.8788 17.4175 10.8962C17.4725 10.9136 17.5304 10.9201 17.5879 10.9151C17.6454 10.9102 17.7014 10.8939 17.7526 10.8673C17.8039 10.8408 17.8494 10.8043 17.8865 10.7602C17.9237 10.716 17.9518 10.665 17.9692 10.6099C17.9867 10.5549 17.9931 10.497 17.9882 10.4395C17.9832 10.382 17.967 10.326 17.9404 10.2747C17.9138 10.2235 17.8774 10.178 17.8332 10.1408L17.0656 9.49221H20.4612C20.5777 9.49221 20.6895 9.53851 20.7719 9.62092C20.8543 9.70334 20.9006 9.81511 20.9006 9.93166V13.7766C20.9006 13.8931 20.9469 14.0049 21.0293 14.0873C21.1117 14.1697 21.2235 14.216 21.3401 14.216C21.4566 14.216 21.5684 14.1697 21.6508 14.0873C21.7332 14.0049 21.7795 13.8931 21.7795 13.7766V9.93225C21.7792 9.58269 21.6402 9.24754 21.393 9.00037C21.1459 8.7532 20.8107 8.6142 20.4612 8.61389H17.0071L17.8362 7.85686C17.8788 7.81796 17.9134 7.77104 17.9379 7.71878C17.9625 7.66651 17.9765 7.60993 17.9791 7.55226C17.9818 7.49458 17.9731 7.43695 17.9535 7.38264C17.9339 7.32834 17.9038 7.27843 17.8649 7.23576C17.826 7.1931 17.7791 7.15851 17.7268 7.13398C17.6745 7.10944 17.6179 7.09544 17.5603 7.09278C17.5026 7.09011 17.445 7.09883 17.3907 7.11844C17.3364 7.13804 17.2864 7.16816 17.2438 7.20705L15.6178 8.69123C15.5592 8.73152 15.5112 8.7855 15.4781 8.8485C15.4451 8.91149 15.4278 8.9816 15.428 9.05276C15.428 9.05276 15.428 9.05744 15.428 9.05979C15.428 9.06213 15.428 9.06506 15.428 9.0674ZM23.4729 18.5983C23.4729 18.4817 23.4266 18.3699 23.3442 18.2875C23.2617 18.2051 23.15 18.1588 23.0334 18.1588H19.5002C19.3837 18.1588 19.2719 18.2051 19.1895 18.2875C19.1071 18.3699 19.0608 18.4817 19.0608 18.5983C19.0608 18.7148 19.1071 18.8266 19.1895 18.909C19.2719 18.9914 19.3837 19.0377 19.5002 19.0377H20.7354C20.9317 19.0361 21.1245 19.0894 21.2922 19.1914C21.4599 19.2935 21.5958 19.4404 21.6846 19.6155H19.5002C19.3837 19.6155 19.2719 19.6618 19.1895 19.7442C19.1071 19.8266 19.0608 19.9384 19.0608 20.0549C19.0608 20.1715 19.1071 20.2832 19.1895 20.3656C19.2719 20.4481 19.3837 20.4944 19.5002 20.4944H21.6846C21.5958 20.6695 21.4599 20.8163 21.2922 20.9184C21.1245 21.0204 20.9317 21.0737 20.7354 21.0721H19.4949H19.4692H19.451L19.4276 21.0756L19.4076 21.0791L19.386 21.0844L19.3666 21.0903L19.3449 21.0979L19.3268 21.1049C19.3192 21.1078 19.3121 21.1119 19.3051 21.1155L19.2887 21.1237L19.2676 21.1365C19.2623 21.1393 19.2572 21.1425 19.2524 21.1459L19.2336 21.16L19.2178 21.1723L19.2026 21.1863C19.1966 21.1915 19.1909 21.197 19.1856 21.2028L19.1809 21.2069L19.1721 21.2174C19.1667 21.2232 19.1616 21.2293 19.1569 21.2356C19.1522 21.2408 19.1481 21.2467 19.144 21.252L19.1317 21.2701C19.1276 21.2762 19.1239 21.2824 19.1205 21.2889L19.11 21.3071L19.1012 21.3281C19.0983 21.3346 19.0953 21.341 19.093 21.3475C19.0901 21.3542 19.0876 21.361 19.0854 21.368C19.0854 21.3744 19.0813 21.3815 19.0789 21.3879L19.0737 21.409C19.0737 21.416 19.0737 21.4231 19.069 21.4295C19.0643 21.436 19.069 21.4447 19.066 21.4524C19.0631 21.46 19.066 21.4653 19.066 21.4723C19.0655 21.4805 19.0655 21.4887 19.066 21.4969C19.0657 21.5012 19.0657 21.5055 19.066 21.5098C19.066 21.5098 19.066 21.5139 19.066 21.5156C19.066 21.5174 19.066 21.5321 19.066 21.5403C19.066 21.5485 19.066 21.5531 19.066 21.5596C19.066 21.566 19.066 21.5742 19.069 21.5819C19.0719 21.5895 19.069 21.5959 19.0731 21.6024C19.0743 21.6091 19.0759 21.6157 19.0778 21.6223C19.0778 21.6299 19.0819 21.6369 19.0836 21.644C19.0854 21.651 19.0883 21.6569 19.0912 21.6633C19.0934 21.6703 19.096 21.6771 19.0989 21.6838L19.1082 21.7037C19.1112 21.7096 19.1141 21.716 19.1176 21.7219C19.1211 21.7278 19.1252 21.7348 19.1293 21.7412L19.1399 21.7582L19.1528 21.7752C19.1574 21.7811 19.1615 21.7875 19.1662 21.7928C19.1704 21.798 19.1749 21.8028 19.1797 21.8074L19.1967 21.825C19.1979 21.8265 19.1993 21.8279 19.2008 21.8291L21.8721 24.3487C21.9573 24.4259 22.0695 24.4667 22.1844 24.4622C22.2994 24.4577 22.408 24.4083 22.4869 24.3246C22.5659 24.2409 22.6088 24.1296 22.6066 24.0146C22.6044 23.8995 22.5571 23.79 22.475 23.7094L20.6082 21.9475H20.7371C21.1677 21.9498 21.5866 21.808 21.9273 21.5447C22.2679 21.2813 22.5106 20.9116 22.6168 20.4944H23.0346C23.1511 20.4944 23.2629 20.4481 23.3453 20.3656C23.4277 20.2832 23.474 20.1715 23.474 20.0549C23.474 19.9384 23.4277 19.8266 23.3453 19.7442C23.2629 19.6618 23.1511 19.6155 23.0346 19.6155H22.6168C22.5669 19.41 22.4823 19.2147 22.3666 19.0377H23.0346C23.0922 19.0376 23.1493 19.0262 23.2025 19.0041C23.2557 18.982 23.304 18.9496 23.3447 18.9088C23.3854 18.868 23.4177 18.8195 23.4397 18.7663C23.4617 18.713 23.4729 18.6559 23.4729 18.5983ZM18.8586 27.3633H10.8313C10.7147 27.3633 10.6029 27.4096 10.5205 27.492C10.4381 27.5744 10.3918 27.6862 10.3918 27.8028C10.3918 27.9193 10.4381 28.0311 10.5205 28.1135C10.6029 28.1959 10.7147 28.2422 10.8313 28.2422H18.8586C18.9752 28.2422 19.0869 28.1959 19.1694 28.1135C19.2518 28.0311 19.2981 27.9193 19.2981 27.8028C19.2981 27.6862 19.2518 27.5744 19.1694 27.492C19.0869 27.4096 18.9752 27.3633 18.8586 27.3633ZM12.3406 22.2416C12.2974 22.2803 12.2622 22.3273 12.2372 22.3797C12.2121 22.4321 12.1977 22.4889 12.1948 22.5469C12.1918 22.6049 12.2004 22.6629 12.22 22.7175C12.2396 22.7722 12.2699 22.8224 12.309 22.8653C12.3482 22.9082 12.3954 22.9429 12.4481 22.9675C12.5007 22.992 12.5577 23.0058 12.6157 23.0082C12.6737 23.0106 12.7317 23.0014 12.7861 22.9813C12.8406 22.9611 12.8905 22.9304 12.933 22.8908L14.559 21.4061C14.6175 21.3658 14.6652 21.3119 14.6982 21.249C14.7312 21.1861 14.7484 21.1161 14.7483 21.0451V21.0305C14.7483 21.0217 14.7483 21.0129 14.7483 21.0041C14.7486 21.0024 14.7486 21.0006 14.7483 20.9988C14.7374 20.8847 14.682 20.7795 14.5942 20.7059L12.909 19.2873C12.8198 19.2123 12.7044 19.1757 12.5883 19.1857C12.4721 19.1957 12.3647 19.2514 12.2897 19.3406C12.2146 19.4298 12.1781 19.5452 12.1881 19.6614C12.1981 19.7775 12.2538 19.8849 12.343 19.96L13.1135 20.608H9.53928C9.42273 20.608 9.31096 20.5617 9.22854 20.4793C9.14613 20.3969 9.09983 20.2851 9.09983 20.1686V15.7617C9.09983 15.6452 9.05353 15.5334 8.97112 15.451C8.8887 15.3686 8.77693 15.3223 8.66038 15.3223C8.54383 15.3223 8.43205 15.3686 8.34964 15.451C8.26722 15.5334 8.22092 15.6452 8.22092 15.7617V20.1656C8.22123 20.5152 8.36023 20.8504 8.6074 21.0975C8.85458 21.3447 9.18973 21.4837 9.53928 21.484H13.1721L12.3406 22.2416Z"/>
</mask>
<path d="M9.1801 11.8822L11.7471 9.31643C11.7879 9.27567 11.8203 9.22726 11.8424 9.17397C11.8645 9.12069 11.8759 9.06357 11.8759 9.00588C11.8759 8.94819 11.8645 8.89108 11.8424 8.83779C11.8203 8.7845 11.7879 8.73609 11.7471 8.69533L9.1801 6.12834C9.11865 6.06696 9.04038 6.02517 8.95518 6.00824C8.86999 5.99132 8.78169 6.00002 8.70144 6.03325C8.62118 6.06648 8.55258 6.12275 8.50429 6.19494C8.45599 6.26714 8.43018 6.35203 8.4301 6.43889V7.34065L7.2178 6.12834C7.15634 6.06696 7.07807 6.02517 6.99288 6.00824C6.90768 5.99132 6.81938 6.00002 6.73913 6.03325C6.65888 6.06648 6.59028 6.12275 6.54198 6.19494C6.49369 6.26714 6.46787 6.35203 6.4678 6.43889V11.5723C6.46763 11.6592 6.49334 11.7443 6.54165 11.8166C6.58996 11.8889 6.65869 11.9452 6.73909 11.9783C6.79215 12.0006 6.84913 12.0119 6.90667 12.0117C7.02327 12.0118 7.13515 11.9657 7.2178 11.8834L8.4301 10.6711V11.5723C8.43009 11.6592 8.45586 11.7442 8.50415 11.8165C8.55244 11.8887 8.62108 11.9451 8.70139 11.9783C8.75466 12.0006 8.81183 12.0119 8.86956 12.0117C8.92729 12.0116 8.98443 12.0001 9.03771 11.9779C9.091 11.9557 9.13938 11.9232 9.1801 11.8822ZM9.30901 9.79104L9.78479 9.31643C9.86694 9.23395 9.91307 9.12229 9.91307 9.00588C9.91307 8.88947 9.86694 8.77781 9.78479 8.69533L9.30901 8.21955V7.50002L10.8149 9.00588L9.30901 10.5117V9.79104ZM8.55901 9.29768L7.34729 10.51V7.50002L8.55901 8.71174L8.85198 9.00471L8.55901 9.29768ZM25.1996 17.1949C24.774 16.7802 24.2849 16.4362 23.7506 16.176V2.20432C23.7498 1.6217 23.518 1.06318 23.106 0.651266C22.694 0.23935 22.1354 0.00767289 21.5528 0.00705278H18.9489C18.8985 -0.0020254 18.8469 -0.0020254 18.7965 0.00705278H10.8946C10.8442 -0.0020254 10.7926 -0.0020254 10.7422 0.00705278H8.13889C7.55633 0.00767318 6.99781 0.239369 6.58588 0.651302C6.17394 1.06324 5.94225 1.62176 5.94163 2.20432V4.29729C5.5258 4.53333 5.14216 4.82204 4.80022 5.15627C4.28333 5.65542 3.87224 6.25354 3.59148 6.91498C3.31071 7.57642 3.16602 8.28762 3.16602 9.00617C3.16602 9.72473 3.31071 10.4359 3.59148 11.0974C3.87224 11.7588 4.28333 12.3569 4.80022 12.8561C5.14243 13.1888 5.52605 13.4762 5.94163 13.711V27.8028C5.94225 28.3853 6.17394 28.9438 6.58588 29.3558C6.99781 29.7677 7.55633 29.9994 8.13889 30H21.5528C22.1353 29.9992 22.6937 29.7675 23.1056 29.3556C23.5175 28.9437 23.7492 28.3853 23.75 27.8028V25.9149C24.2843 25.6544 24.7735 25.3103 25.199 24.8953C25.716 24.3961 26.1271 23.798 26.4078 23.1365C26.6886 22.475 26.8333 21.7637 26.8333 21.0451C26.8333 20.3265 26.6886 19.6153 26.4078 18.9538C26.1271 18.2923 25.7165 17.6941 25.1996 17.1949ZM18.1549 0.885959L17.7535 1.68811C17.7062 1.78204 17.6335 1.86088 17.5438 1.91575C17.454 1.97062 17.3507 1.99933 17.2455 1.99865H12.4485C12.3433 1.99933 12.24 1.97062 12.1502 1.91575C12.0605 1.86088 11.9878 1.78204 11.9405 1.68811L11.5367 0.885959H18.1549ZM5.4137 12.2256C4.98084 11.8083 4.63655 11.3079 4.40139 10.7545C4.16623 10.2011 4.04503 9.606 4.04503 9.00471C4.04503 8.40342 4.16623 7.80829 4.40139 7.25489C4.63655 6.70149 4.98084 6.20117 5.4137 5.78381C6.30474 4.92458 7.49432 4.44445 8.73215 4.44445C9.96999 4.44445 11.1596 4.92458 12.0506 5.78381C12.4837 6.20104 12.8282 6.70132 13.0635 7.25474C13.2988 7.80816 13.4201 8.40335 13.4201 9.00471C13.4201 9.60607 13.2988 10.2013 13.0635 10.7547C12.8282 11.3081 12.4837 11.8084 12.0506 12.2256C11.1596 13.0848 9.96999 13.565 8.73215 13.565C7.49432 13.565 6.30474 13.0848 5.4137 12.2256ZM22.8711 27.8028C22.8707 28.1523 22.7316 28.4873 22.4845 28.7345C22.2373 28.9816 21.9023 29.1207 21.5528 29.1211H8.13889C7.78934 29.1208 7.45419 28.9818 7.20701 28.7346C6.95984 28.4875 6.82084 28.1523 6.82053 27.8028V14.1153C7.43355 14.3333 8.07946 14.4445 8.7301 14.444C10.1985 14.4507 11.6107 13.8797 12.6617 12.8543C13.1788 12.3553 13.59 11.7572 13.8709 11.0957C14.1517 10.4343 14.2965 9.72302 14.2965 9.00442C14.2965 8.28581 14.1517 7.57457 13.8709 6.91312C13.59 6.25167 13.1788 5.65358 12.6617 5.15451C11.6105 4.12946 10.1984 3.55874 8.7301 3.56545C8.07867 3.56464 7.43195 3.67583 6.81819 3.89416V2.20432C6.8185 1.85476 6.9575 1.51961 7.20467 1.27244C7.45184 1.02527 7.78699 0.886269 8.13655 0.885959H10.5524L11.1553 2.08362C11.2755 2.32328 11.4602 2.5246 11.6887 2.66489C11.9172 2.80517 12.1804 2.87883 12.4485 2.87756H17.2432C17.5112 2.87879 17.7743 2.8051 18.0026 2.66482C18.231 2.52454 18.4157 2.32323 18.5358 2.08362L19.1387 0.885959H21.5528C21.9023 0.886424 22.2373 1.02547 22.4845 1.27261C22.7316 1.51975 22.8707 1.85481 22.8711 2.20432V15.8344C22.35 15.6822 21.8097 15.6052 21.2668 15.6059C19.7985 15.5992 18.3865 16.1699 17.3352 17.1949C16.8181 17.6941 16.4069 18.2922 16.126 18.9537C15.8452 19.6152 15.7004 20.3265 15.7004 21.0451C15.7004 21.7638 15.8452 22.4751 16.126 23.1366C16.4069 23.7981 16.8181 24.3962 17.3352 24.8953C18.387 25.921 19.8001 26.4917 21.2692 26.4844C21.8121 26.485 22.3523 26.4081 22.8735 26.2559L22.8711 27.8028ZM24.5856 24.266C23.6945 25.1253 22.5049 25.6054 21.2671 25.6054C20.0293 25.6054 18.8397 25.1253 17.9487 24.266C17.5156 23.8488 17.1711 23.3485 16.9358 22.7951C16.7005 22.2417 16.5792 21.6465 16.5792 21.0451C16.5792 20.4438 16.7005 19.8486 16.9358 19.2952C17.1711 18.7418 17.5156 18.2415 17.9487 17.8242C18.8397 16.965 20.0293 16.4849 21.2671 16.4849C22.5049 16.4849 23.6945 16.965 24.5856 17.8242C25.0184 18.2416 25.3627 18.7419 25.5979 19.2953C25.833 19.8487 25.9542 20.4438 25.9542 21.0451C25.9542 21.6464 25.833 22.2416 25.5979 22.795C25.3627 23.3484 25.0184 23.8487 24.5856 24.266ZM15.428 9.0674C15.428 9.07678 15.428 9.08557 15.428 9.09436V9.09904C15.4384 9.21412 15.4937 9.32044 15.5821 9.39494L17.2672 10.8135C17.3114 10.8507 17.3624 10.8788 17.4175 10.8962C17.4725 10.9136 17.5304 10.9201 17.5879 10.9151C17.6454 10.9102 17.7014 10.8939 17.7526 10.8673C17.8039 10.8408 17.8494 10.8043 17.8865 10.7602C17.9237 10.716 17.9518 10.665 17.9692 10.6099C17.9867 10.5549 17.9931 10.497 17.9882 10.4395C17.9832 10.382 17.967 10.326 17.9404 10.2747C17.9138 10.2235 17.8774 10.178 17.8332 10.1408L17.0656 9.49221H20.4612C20.5777 9.49221 20.6895 9.53851 20.7719 9.62092C20.8543 9.70334 20.9006 9.81511 20.9006 9.93166V13.7766C20.9006 13.8931 20.9469 14.0049 21.0293 14.0873C21.1117 14.1697 21.2235 14.216 21.3401 14.216C21.4566 14.216 21.5684 14.1697 21.6508 14.0873C21.7332 14.0049 21.7795 13.8931 21.7795 13.7766V9.93225C21.7792 9.58269 21.6402 9.24754 21.393 9.00037C21.1459 8.7532 20.8107 8.6142 20.4612 8.61389H17.0071L17.8362 7.85686C17.8788 7.81796 17.9134 7.77104 17.9379 7.71878C17.9625 7.66651 17.9765 7.60993 17.9791 7.55226C17.9818 7.49458 17.9731 7.43695 17.9535 7.38264C17.9339 7.32834 17.9038 7.27843 17.8649 7.23576C17.826 7.1931 17.7791 7.15851 17.7268 7.13398C17.6745 7.10944 17.6179 7.09544 17.5603 7.09278C17.5026 7.09011 17.445 7.09883 17.3907 7.11844C17.3364 7.13804 17.2864 7.16816 17.2438 7.20705L15.6178 8.69123C15.5592 8.73152 15.5112 8.7855 15.4781 8.8485C15.4451 8.91149 15.4278 8.9816 15.428 9.05276C15.428 9.05276 15.428 9.05744 15.428 9.05979C15.428 9.06213 15.428 9.06506 15.428 9.0674ZM23.4729 18.5983C23.4729 18.4817 23.4266 18.3699 23.3442 18.2875C23.2617 18.2051 23.15 18.1588 23.0334 18.1588H19.5002C19.3837 18.1588 19.2719 18.2051 19.1895 18.2875C19.1071 18.3699 19.0608 18.4817 19.0608 18.5983C19.0608 18.7148 19.1071 18.8266 19.1895 18.909C19.2719 18.9914 19.3837 19.0377 19.5002 19.0377H20.7354C20.9317 19.0361 21.1245 19.0894 21.2922 19.1914C21.4599 19.2935 21.5958 19.4404 21.6846 19.6155H19.5002C19.3837 19.6155 19.2719 19.6618 19.1895 19.7442C19.1071 19.8266 19.0608 19.9384 19.0608 20.0549C19.0608 20.1715 19.1071 20.2832 19.1895 20.3656C19.2719 20.4481 19.3837 20.4944 19.5002 20.4944H21.6846C21.5958 20.6695 21.4599 20.8163 21.2922 20.9184C21.1245 21.0204 20.9317 21.0737 20.7354 21.0721H19.4949H19.4692H19.451L19.4276 21.0756L19.4076 21.0791L19.386 21.0844L19.3666 21.0903L19.3449 21.0979L19.3268 21.1049C19.3192 21.1078 19.3121 21.1119 19.3051 21.1155L19.2887 21.1237L19.2676 21.1365C19.2623 21.1393 19.2572 21.1425 19.2524 21.1459L19.2336 21.16L19.2178 21.1723L19.2026 21.1863C19.1966 21.1915 19.1909 21.197 19.1856 21.2028L19.1809 21.2069L19.1721 21.2174C19.1667 21.2232 19.1616 21.2293 19.1569 21.2356C19.1522 21.2408 19.1481 21.2467 19.144 21.252L19.1317 21.2701C19.1276 21.2762 19.1239 21.2824 19.1205 21.2889L19.11 21.3071L19.1012 21.3281C19.0983 21.3346 19.0953 21.341 19.093 21.3475C19.0901 21.3542 19.0876 21.361 19.0854 21.368C19.0854 21.3744 19.0813 21.3815 19.0789 21.3879L19.0737 21.409C19.0737 21.416 19.0737 21.4231 19.069 21.4295C19.0643 21.436 19.069 21.4447 19.066 21.4524C19.0631 21.46 19.066 21.4653 19.066 21.4723C19.0655 21.4805 19.0655 21.4887 19.066 21.4969C19.0657 21.5012 19.0657 21.5055 19.066 21.5098C19.066 21.5098 19.066 21.5139 19.066 21.5156C19.066 21.5174 19.066 21.5321 19.066 21.5403C19.066 21.5485 19.066 21.5531 19.066 21.5596C19.066 21.566 19.066 21.5742 19.069 21.5819C19.0719 21.5895 19.069 21.5959 19.0731 21.6024C19.0743 21.6091 19.0759 21.6157 19.0778 21.6223C19.0778 21.6299 19.0819 21.6369 19.0836 21.644C19.0854 21.651 19.0883 21.6569 19.0912 21.6633C19.0934 21.6703 19.096 21.6771 19.0989 21.6838L19.1082 21.7037C19.1112 21.7096 19.1141 21.716 19.1176 21.7219C19.1211 21.7278 19.1252 21.7348 19.1293 21.7412L19.1399 21.7582L19.1528 21.7752C19.1574 21.7811 19.1615 21.7875 19.1662 21.7928C19.1704 21.798 19.1749 21.8028 19.1797 21.8074L19.1967 21.825C19.1979 21.8265 19.1993 21.8279 19.2008 21.8291L21.8721 24.3487C21.9573 24.4259 22.0695 24.4667 22.1844 24.4622C22.2994 24.4577 22.408 24.4083 22.4869 24.3246C22.5659 24.2409 22.6088 24.1296 22.6066 24.0146C22.6044 23.8995 22.5571 23.79 22.475 23.7094L20.6082 21.9475H20.7371C21.1677 21.9498 21.5866 21.808 21.9273 21.5447C22.2679 21.2813 22.5106 20.9116 22.6168 20.4944H23.0346C23.1511 20.4944 23.2629 20.4481 23.3453 20.3656C23.4277 20.2832 23.474 20.1715 23.474 20.0549C23.474 19.9384 23.4277 19.8266 23.3453 19.7442C23.2629 19.6618 23.1511 19.6155 23.0346 19.6155H22.6168C22.5669 19.41 22.4823 19.2147 22.3666 19.0377H23.0346C23.0922 19.0376 23.1493 19.0262 23.2025 19.0041C23.2557 18.982 23.304 18.9496 23.3447 18.9088C23.3854 18.868 23.4177 18.8195 23.4397 18.7663C23.4617 18.713 23.4729 18.6559 23.4729 18.5983ZM18.8586 27.3633H10.8313C10.7147 27.3633 10.6029 27.4096 10.5205 27.492C10.4381 27.5744 10.3918 27.6862 10.3918 27.8028C10.3918 27.9193 10.4381 28.0311 10.5205 28.1135C10.6029 28.1959 10.7147 28.2422 10.8313 28.2422H18.8586C18.9752 28.2422 19.0869 28.1959 19.1694 28.1135C19.2518 28.0311 19.2981 27.9193 19.2981 27.8028C19.2981 27.6862 19.2518 27.5744 19.1694 27.492C19.0869 27.4096 18.9752 27.3633 18.8586 27.3633ZM12.3406 22.2416C12.2974 22.2803 12.2622 22.3273 12.2372 22.3797C12.2121 22.4321 12.1977 22.4889 12.1948 22.5469C12.1918 22.6049 12.2004 22.6629 12.22 22.7175C12.2396 22.7722 12.2699 22.8224 12.309 22.8653C12.3482 22.9082 12.3954 22.9429 12.4481 22.9675C12.5007 22.992 12.5577 23.0058 12.6157 23.0082C12.6737 23.0106 12.7317 23.0014 12.7861 22.9813C12.8406 22.9611 12.8905 22.9304 12.933 22.8908L14.559 21.4061C14.6175 21.3658 14.6652 21.3119 14.6982 21.249C14.7312 21.1861 14.7484 21.1161 14.7483 21.0451V21.0305C14.7483 21.0217 14.7483 21.0129 14.7483 21.0041C14.7486 21.0024 14.7486 21.0006 14.7483 20.9988C14.7374 20.8847 14.682 20.7795 14.5942 20.7059L12.909 19.2873C12.8198 19.2123 12.7044 19.1757 12.5883 19.1857C12.4721 19.1957 12.3647 19.2514 12.2897 19.3406C12.2146 19.4298 12.1781 19.5452 12.1881 19.6614C12.1981 19.7775 12.2538 19.8849 12.343 19.96L13.1135 20.608H9.53928C9.42273 20.608 9.31096 20.5617 9.22854 20.4793C9.14613 20.3969 9.09983 20.2851 9.09983 20.1686V15.7617C9.09983 15.6452 9.05353 15.5334 8.97112 15.451C8.8887 15.3686 8.77693 15.3223 8.66038 15.3223C8.54383 15.3223 8.43205 15.3686 8.34964 15.451C8.26722 15.5334 8.22092 15.6452 8.22092 15.7617V20.1656C8.22123 20.5152 8.36023 20.8504 8.6074 21.0975C8.85458 21.3447 9.18973 21.4837 9.53928 21.484H13.1721L12.3406 22.2416Z" fill="#38004D"/>
<path d="M9.1801 11.8822L11.7471 9.31643C11.7879 9.27567 11.8203 9.22726 11.8424 9.17397C11.8645 9.12069 11.8759 9.06357 11.8759 9.00588C11.8759 8.94819 11.8645 8.89108 11.8424 8.83779C11.8203 8.7845 11.7879 8.73609 11.7471 8.69533L9.1801 6.12834C9.11865 6.06696 9.04038 6.02517 8.95518 6.00824C8.86999 5.99132 8.78169 6.00002 8.70144 6.03325C8.62118 6.06648 8.55258 6.12275 8.50429 6.19494C8.45599 6.26714 8.43018 6.35203 8.4301 6.43889V7.34065L7.2178 6.12834C7.15634 6.06696 7.07807 6.02517 6.99288 6.00824C6.90768 5.99132 6.81938 6.00002 6.73913 6.03325C6.65888 6.06648 6.59028 6.12275 6.54198 6.19494C6.49369 6.26714 6.46787 6.35203 6.4678 6.43889V11.5723C6.46763 11.6592 6.49334 11.7443 6.54165 11.8166C6.58996 11.8889 6.65869 11.9452 6.73909 11.9783C6.79215 12.0006 6.84913 12.0119 6.90667 12.0117C7.02327 12.0118 7.13515 11.9657 7.2178 11.8834L8.4301 10.6711V11.5723C8.43009 11.6592 8.45586 11.7442 8.50415 11.8165C8.55244 11.8887 8.62108 11.9451 8.70139 11.9783C8.75466 12.0006 8.81183 12.0119 8.86956 12.0117C8.92729 12.0116 8.98443 12.0001 9.03771 11.9779C9.091 11.9557 9.13938 11.9232 9.1801 11.8822ZM9.30901 9.79104L9.78479 9.31643C9.86694 9.23395 9.91307 9.12229 9.91307 9.00588C9.91307 8.88947 9.86694 8.77781 9.78479 8.69533L9.30901 8.21955V7.50002L10.8149 9.00588L9.30901 10.5117V9.79104ZM8.55901 9.29768L7.34729 10.51V7.50002L8.55901 8.71174L8.85198 9.00471L8.55901 9.29768ZM25.1996 17.1949C24.774 16.7802 24.2849 16.4362 23.7506 16.176V2.20432C23.7498 1.6217 23.518 1.06318 23.106 0.651266C22.694 0.23935 22.1354 0.00767289 21.5528 0.00705278H18.9489C18.8985 -0.0020254 18.8469 -0.0020254 18.7965 0.00705278H10.8946C10.8442 -0.0020254 10.7926 -0.0020254 10.7422 0.00705278H8.13889C7.55633 0.00767318 6.99781 0.239369 6.58588 0.651302C6.17394 1.06324 5.94225 1.62176 5.94163 2.20432V4.29729C5.5258 4.53333 5.14216 4.82204 4.80022 5.15627C4.28333 5.65542 3.87224 6.25354 3.59148 6.91498C3.31071 7.57642 3.16602 8.28762 3.16602 9.00617C3.16602 9.72473 3.31071 10.4359 3.59148 11.0974C3.87224 11.7588 4.28333 12.3569 4.80022 12.8561C5.14243 13.1888 5.52605 13.4762 5.94163 13.711V27.8028C5.94225 28.3853 6.17394 28.9438 6.58588 29.3558C6.99781 29.7677 7.55633 29.9994 8.13889 30H21.5528C22.1353 29.9992 22.6937 29.7675 23.1056 29.3556C23.5175 28.9437 23.7492 28.3853 23.75 27.8028V25.9149C24.2843 25.6544 24.7735 25.3103 25.199 24.8953C25.716 24.3961 26.1271 23.798 26.4078 23.1365C26.6886 22.475 26.8333 21.7637 26.8333 21.0451C26.8333 20.3265 26.6886 19.6153 26.4078 18.9538C26.1271 18.2923 25.7165 17.6941 25.1996 17.1949ZM18.1549 0.885959L17.7535 1.68811C17.7062 1.78204 17.6335 1.86088 17.5438 1.91575C17.454 1.97062 17.3507 1.99933 17.2455 1.99865H12.4485C12.3433 1.99933 12.24 1.97062 12.1502 1.91575C12.0605 1.86088 11.9878 1.78204 11.9405 1.68811L11.5367 0.885959H18.1549ZM5.4137 12.2256C4.98084 11.8083 4.63655 11.3079 4.40139 10.7545C4.16623 10.2011 4.04503 9.606 4.04503 9.00471C4.04503 8.40342 4.16623 7.80829 4.40139 7.25489C4.63655 6.70149 4.98084 6.20117 5.4137 5.78381C6.30474 4.92458 7.49432 4.44445 8.73215 4.44445C9.96999 4.44445 11.1596 4.92458 12.0506 5.78381C12.4837 6.20104 12.8282 6.70132 13.0635 7.25474C13.2988 7.80816 13.4201 8.40335 13.4201 9.00471C13.4201 9.60607 13.2988 10.2013 13.0635 10.7547C12.8282 11.3081 12.4837 11.8084 12.0506 12.2256C11.1596 13.0848 9.96999 13.565 8.73215 13.565C7.49432 13.565 6.30474 13.0848 5.4137 12.2256ZM22.8711 27.8028C22.8707 28.1523 22.7316 28.4873 22.4845 28.7345C22.2373 28.9816 21.9023 29.1207 21.5528 29.1211H8.13889C7.78934 29.1208 7.45419 28.9818 7.20701 28.7346C6.95984 28.4875 6.82084 28.1523 6.82053 27.8028V14.1153C7.43355 14.3333 8.07946 14.4445 8.7301 14.444C10.1985 14.4507 11.6107 13.8797 12.6617 12.8543C13.1788 12.3553 13.59 11.7572 13.8709 11.0957C14.1517 10.4343 14.2965 9.72302 14.2965 9.00442C14.2965 8.28581 14.1517 7.57457 13.8709 6.91312C13.59 6.25167 13.1788 5.65358 12.6617 5.15451C11.6105 4.12946 10.1984 3.55874 8.7301 3.56545C8.07867 3.56464 7.43195 3.67583 6.81819 3.89416V2.20432C6.8185 1.85476 6.9575 1.51961 7.20467 1.27244C7.45184 1.02527 7.78699 0.886269 8.13655 0.885959H10.5524L11.1553 2.08362C11.2755 2.32328 11.4602 2.5246 11.6887 2.66489C11.9172 2.80517 12.1804 2.87883 12.4485 2.87756H17.2432C17.5112 2.87879 17.7743 2.8051 18.0026 2.66482C18.231 2.52454 18.4157 2.32323 18.5358 2.08362L19.1387 0.885959H21.5528C21.9023 0.886424 22.2373 1.02547 22.4845 1.27261C22.7316 1.51975 22.8707 1.85481 22.8711 2.20432V15.8344C22.35 15.6822 21.8097 15.6052 21.2668 15.6059C19.7985 15.5992 18.3865 16.1699 17.3352 17.1949C16.8181 17.6941 16.4069 18.2922 16.126 18.9537C15.8452 19.6152 15.7004 20.3265 15.7004 21.0451C15.7004 21.7638 15.8452 22.4751 16.126 23.1366C16.4069 23.7981 16.8181 24.3962 17.3352 24.8953C18.387 25.921 19.8001 26.4917 21.2692 26.4844C21.8121 26.485 22.3523 26.4081 22.8735 26.2559L22.8711 27.8028ZM24.5856 24.266C23.6945 25.1253 22.5049 25.6054 21.2671 25.6054C20.0293 25.6054 18.8397 25.1253 17.9487 24.266C17.5156 23.8488 17.1711 23.3485 16.9358 22.7951C16.7005 22.2417 16.5792 21.6465 16.5792 21.0451C16.5792 20.4438 16.7005 19.8486 16.9358 19.2952C17.1711 18.7418 17.5156 18.2415 17.9487 17.8242C18.8397 16.965 20.0293 16.4849 21.2671 16.4849C22.5049 16.4849 23.6945 16.965 24.5856 17.8242C25.0184 18.2416 25.3627 18.7419 25.5979 19.2953C25.833 19.8487 25.9542 20.4438 25.9542 21.0451C25.9542 21.6464 25.833 22.2416 25.5979 22.795C25.3627 23.3484 25.0184 23.8487 24.5856 24.266ZM15.428 9.0674C15.428 9.07678 15.428 9.08557 15.428 9.09436V9.09904C15.4384 9.21412 15.4937 9.32044 15.5821 9.39494L17.2672 10.8135C17.3114 10.8507 17.3624 10.8788 17.4175 10.8962C17.4725 10.9136 17.5304 10.9201 17.5879 10.9151C17.6454 10.9102 17.7014 10.8939 17.7526 10.8673C17.8039 10.8408 17.8494 10.8043 17.8865 10.7602C17.9237 10.716 17.9518 10.665 17.9692 10.6099C17.9867 10.5549 17.9931 10.497 17.9882 10.4395C17.9832 10.382 17.967 10.326 17.9404 10.2747C17.9138 10.2235 17.8774 10.178 17.8332 10.1408L17.0656 9.49221H20.4612C20.5777 9.49221 20.6895 9.53851 20.7719 9.62092C20.8543 9.70334 20.9006 9.81511 20.9006 9.93166V13.7766C20.9006 13.8931 20.9469 14.0049 21.0293 14.0873C21.1117 14.1697 21.2235 14.216 21.3401 14.216C21.4566 14.216 21.5684 14.1697 21.6508 14.0873C21.7332 14.0049 21.7795 13.8931 21.7795 13.7766V9.93225C21.7792 9.58269 21.6402 9.24754 21.393 9.00037C21.1459 8.7532 20.8107 8.6142 20.4612 8.61389H17.0071L17.8362 7.85686C17.8788 7.81796 17.9134 7.77104 17.9379 7.71878C17.9625 7.66651 17.9765 7.60993 17.9791 7.55226C17.9818 7.49458 17.9731 7.43695 17.9535 7.38264C17.9339 7.32834 17.9038 7.27843 17.8649 7.23576C17.826 7.1931 17.7791 7.15851 17.7268 7.13398C17.6745 7.10944 17.6179 7.09544 17.5603 7.09278C17.5026 7.09011 17.445 7.09883 17.3907 7.11844C17.3364 7.13804 17.2864 7.16816 17.2438 7.20705L15.6178 8.69123C15.5592 8.73152 15.5112 8.7855 15.4781 8.8485C15.4451 8.91149 15.4278 8.9816 15.428 9.05276C15.428 9.05276 15.428 9.05744 15.428 9.05979C15.428 9.06213 15.428 9.06506 15.428 9.0674ZM23.4729 18.5983C23.4729 18.4817 23.4266 18.3699 23.3442 18.2875C23.2617 18.2051 23.15 18.1588 23.0334 18.1588H19.5002C19.3837 18.1588 19.2719 18.2051 19.1895 18.2875C19.1071 18.3699 19.0608 18.4817 19.0608 18.5983C19.0608 18.7148 19.1071 18.8266 19.1895 18.909C19.2719 18.9914 19.3837 19.0377 19.5002 19.0377H20.7354C20.9317 19.0361 21.1245 19.0894 21.2922 19.1914C21.4599 19.2935 21.5958 19.4404 21.6846 19.6155H19.5002C19.3837 19.6155 19.2719 19.6618 19.1895 19.7442C19.1071 19.8266 19.0608 19.9384 19.0608 20.0549C19.0608 20.1715 19.1071 20.2832 19.1895 20.3656C19.2719 20.4481 19.3837 20.4944 19.5002 20.4944H21.6846C21.5958 20.6695 21.4599 20.8163 21.2922 20.9184C21.1245 21.0204 20.9317 21.0737 20.7354 21.0721H19.4949H19.4692H19.451L19.4276 21.0756L19.4076 21.0791L19.386 21.0844L19.3666 21.0903L19.3449 21.0979L19.3268 21.1049C19.3192 21.1078 19.3121 21.1119 19.3051 21.1155L19.2887 21.1237L19.2676 21.1365C19.2623 21.1393 19.2572 21.1425 19.2524 21.1459L19.2336 21.16L19.2178 21.1723L19.2026 21.1863C19.1966 21.1915 19.1909 21.197 19.1856 21.2028L19.1809 21.2069L19.1721 21.2174C19.1667 21.2232 19.1616 21.2293 19.1569 21.2356C19.1522 21.2408 19.1481 21.2467 19.144 21.252L19.1317 21.2701C19.1276 21.2762 19.1239 21.2824 19.1205 21.2889L19.11 21.3071L19.1012 21.3281C19.0983 21.3346 19.0953 21.341 19.093 21.3475C19.0901 21.3542 19.0876 21.361 19.0854 21.368C19.0854 21.3744 19.0813 21.3815 19.0789 21.3879L19.0737 21.409C19.0737 21.416 19.0737 21.4231 19.069 21.4295C19.0643 21.436 19.069 21.4447 19.066 21.4524C19.0631 21.46 19.066 21.4653 19.066 21.4723C19.0655 21.4805 19.0655 21.4887 19.066 21.4969C19.0657 21.5012 19.0657 21.5055 19.066 21.5098C19.066 21.5098 19.066 21.5139 19.066 21.5156C19.066 21.5174 19.066 21.5321 19.066 21.5403C19.066 21.5485 19.066 21.5531 19.066 21.5596C19.066 21.566 19.066 21.5742 19.069 21.5819C19.0719 21.5895 19.069 21.5959 19.0731 21.6024C19.0743 21.6091 19.0759 21.6157 19.0778 21.6223C19.0778 21.6299 19.0819 21.6369 19.0836 21.644C19.0854 21.651 19.0883 21.6569 19.0912 21.6633C19.0934 21.6703 19.096 21.6771 19.0989 21.6838L19.1082 21.7037C19.1112 21.7096 19.1141 21.716 19.1176 21.7219C19.1211 21.7278 19.1252 21.7348 19.1293 21.7412L19.1399 21.7582L19.1528 21.7752C19.1574 21.7811 19.1615 21.7875 19.1662 21.7928C19.1704 21.798 19.1749 21.8028 19.1797 21.8074L19.1967 21.825C19.1979 21.8265 19.1993 21.8279 19.2008 21.8291L21.8721 24.3487C21.9573 24.4259 22.0695 24.4667 22.1844 24.4622C22.2994 24.4577 22.408 24.4083 22.4869 24.3246C22.5659 24.2409 22.6088 24.1296 22.6066 24.0146C22.6044 23.8995 22.5571 23.79 22.475 23.7094L20.6082 21.9475H20.7371C21.1677 21.9498 21.5866 21.808 21.9273 21.5447C22.2679 21.2813 22.5106 20.9116 22.6168 20.4944H23.0346C23.1511 20.4944 23.2629 20.4481 23.3453 20.3656C23.4277 20.2832 23.474 20.1715 23.474 20.0549C23.474 19.9384 23.4277 19.8266 23.3453 19.7442C23.2629 19.6618 23.1511 19.6155 23.0346 19.6155H22.6168C22.5669 19.41 22.4823 19.2147 22.3666 19.0377H23.0346C23.0922 19.0376 23.1493 19.0262 23.2025 19.0041C23.2557 18.982 23.304 18.9496 23.3447 18.9088C23.3854 18.868 23.4177 18.8195 23.4397 18.7663C23.4617 18.713 23.4729 18.6559 23.4729 18.5983ZM18.8586 27.3633H10.8313C10.7147 27.3633 10.6029 27.4096 10.5205 27.492C10.4381 27.5744 10.3918 27.6862 10.3918 27.8028C10.3918 27.9193 10.4381 28.0311 10.5205 28.1135C10.6029 28.1959 10.7147 28.2422 10.8313 28.2422H18.8586C18.9752 28.2422 19.0869 28.1959 19.1694 28.1135C19.2518 28.0311 19.2981 27.9193 19.2981 27.8028C19.2981 27.6862 19.2518 27.5744 19.1694 27.492C19.0869 27.4096 18.9752 27.3633 18.8586 27.3633ZM12.3406 22.2416C12.2974 22.2803 12.2622 22.3273 12.2372 22.3797C12.2121 22.4321 12.1977 22.4889 12.1948 22.5469C12.1918 22.6049 12.2004 22.6629 12.22 22.7175C12.2396 22.7722 12.2699 22.8224 12.309 22.8653C12.3482 22.9082 12.3954 22.9429 12.4481 22.9675C12.5007 22.992 12.5577 23.0058 12.6157 23.0082C12.6737 23.0106 12.7317 23.0014 12.7861 22.9813C12.8406 22.9611 12.8905 22.9304 12.933 22.8908L14.559 21.4061C14.6175 21.3658 14.6652 21.3119 14.6982 21.249C14.7312 21.1861 14.7484 21.1161 14.7483 21.0451V21.0305C14.7483 21.0217 14.7483 21.0129 14.7483 21.0041C14.7486 21.0024 14.7486 21.0006 14.7483 20.9988C14.7374 20.8847 14.682 20.7795 14.5942 20.7059L12.909 19.2873C12.8198 19.2123 12.7044 19.1757 12.5883 19.1857C12.4721 19.1957 12.3647 19.2514 12.2897 19.3406C12.2146 19.4298 12.1781 19.5452 12.1881 19.6614C12.1981 19.7775 12.2538 19.8849 12.343 19.96L13.1135 20.608H9.53928C9.42273 20.608 9.31096 20.5617 9.22854 20.4793C9.14613 20.3969 9.09983 20.2851 9.09983 20.1686V15.7617C9.09983 15.6452 9.05353 15.5334 8.97112 15.451C8.8887 15.3686 8.77693 15.3223 8.66038 15.3223C8.54383 15.3223 8.43205 15.3686 8.34964 15.451C8.26722 15.5334 8.22092 15.6452 8.22092 15.7617V20.1656C8.22123 20.5152 8.36023 20.8504 8.6074 21.0975C8.85458 21.3447 9.18973 21.4837 9.53928 21.484H13.1721L12.3406 22.2416Z" stroke="#38004D" stroke-width="0.4" mask="url(#path-1-outside-1_824_2445)"/>
</g>
<defs>
<clipPath id="clip0_824_2445">
<rect width="30" height="30" fill="white"/>
</clipPath>
</defs>
</svg>
