<svg width="178" height="416" viewBox="0 0 178 416" fill="none" xmlns="http://www.w3.org/2000/svg">
<g clip-path="url(#clip0_154_878)">
<path d="M88.9999 -1.22043e-05L19.1211 -1.52588e-05L19.1211 2.37875L19.1211 4.75751L88.9999 4.75752L158.879 4.75752L158.879 2.37876L158.879 -9.14979e-06L88.9999 -1.22043e-05Z" fill="#171D33"/>
<path d="M88.9999 7.13628L19.1211 7.13628L19.1211 8.32566L19.1211 9.51504L88.9999 9.51504L158.879 9.51505L158.879 8.32566L158.879 7.13628L88.9999 7.13628Z" fill="#171D33"/>
<path d="M88.9999 14.2726L19.1211 14.2726L19.1211 15.462L19.1211 16.6513L88.9999 16.6514L158.879 16.6514L158.879 15.462L158.879 14.2726L88.9999 14.2726Z" fill="#171D33"/>
<path d="M88.9999 26.1664L19.1211 26.1664L19.1211 27.3558L19.1211 28.5452L88.9999 28.5452L158.879 28.5452L158.879 27.3558L158.879 26.1664L88.9999 26.1664Z" fill="#171D33"/>
<path d="M89.0005 35.6815L19.0869 35.6815L19.1912 38.0074L19.2955 40.3068L89.1048 40.3861L158.879 40.439L158.879 38.0602L158.879 35.6815L89.0005 35.6815Z" fill="#171D33"/>
<path d="M88.9657 47.5753L19.0869 47.5753L19.1912 48.7118L19.2955 49.8219L89.1048 49.9012L158.879 49.9541L158.879 48.7647L158.879 47.5753L88.9657 47.5753Z" fill="#171D33"/>
<path d="M88.9657 52.3328L19.0869 52.3328L19.1912 53.4693L19.2955 54.5794L89.1048 54.6587L158.879 54.7116L158.879 53.5222L158.879 52.3328L88.9657 52.3328Z" fill="#171D33"/>
<path d="M88.9657 57.0904L19.0869 57.0903L19.1912 58.2269L19.2955 59.337L89.1048 59.4163L158.879 59.4691L158.879 58.2797L158.879 57.0904L88.9657 57.0904Z" fill="#171D33"/>
<path d="M89.1048 66.394L19.2955 66.4733L19.1912 68.7992L19.0869 71.0986L89.0005 71.0986L158.879 71.0986L158.879 68.7199L158.879 66.3411L89.1048 66.394Z" fill="#171D33"/>
<path d="M88.9999 78.2349L19.1211 78.2349L19.1211 80.6137L19.1211 82.9925L88.9999 82.9925L158.879 82.9925L158.879 80.6137L158.879 78.2349L88.9999 78.2349Z" fill="#171D33"/>
<path d="M88.9999 87.75L19.1211 87.75L19.1211 90.1287L19.1211 92.5075L88.9999 92.5075L158.879 92.5075L158.879 90.1288L158.879 87.75L88.9999 87.75Z" fill="#171D33"/>
<path d="M88.9999 97.265L19.1211 97.265L19.1211 99.6438L19.1211 102.023L88.9999 102.023L158.879 102.023L158.879 99.6438L158.879 97.2651L88.9999 97.265Z" fill="#171D33"/>
<path d="M88.9999 104.401L19.1211 104.401L19.1211 106.78L19.1211 109.159L88.9999 109.159L158.879 109.159L158.879 106.78L158.879 104.401L88.9999 104.401Z" fill="#171D33"/>
<path d="M88.9999 116.295L19.1211 116.295L19.1211 119.863L19.1211 123.431L88.9999 123.431L158.879 123.431L158.879 119.863L158.879 116.295L88.9999 116.295Z" fill="#171D33"/>
<path d="M88.9999 125.81L19.1211 125.81L19.1211 127L19.1211 128.189L88.9999 128.189L158.879 128.189L158.879 127L158.879 125.81L88.9999 125.81Z" fill="#171D33"/>
<path d="M88.9999 130.568L19.1211 130.568L19.1211 132.947L19.1211 135.325L88.9999 135.325L158.879 135.325L158.879 132.947L158.879 130.568L88.9999 130.568Z" fill="#171D33"/>
</g>
<g clip-path="url(#clip1_154_878)">
<path d="M88.9999 275.663L19.1211 275.663L19.1211 273.284L19.1211 270.905L88.9999 270.905L158.879 270.905L158.879 273.284L158.879 275.663L88.9999 275.663Z" fill="#171D33"/>
<path d="M88.9999 268.526L19.1211 268.526L19.1211 267.337L19.1211 266.148L88.9999 266.148L158.879 266.148L158.879 267.337L158.879 268.526L88.9999 268.526Z" fill="#171D33"/>
<path d="M88.9999 261.39L19.1211 261.39L19.1211 260.201L19.1211 259.011L88.9999 259.011L158.879 259.011L158.879 260.201L158.879 261.39L88.9999 261.39Z" fill="#171D33"/>
<path d="M88.9999 249.496L19.1211 249.496L19.1211 248.307L19.1211 247.117L88.9999 247.117L158.879 247.117L158.879 248.307L158.879 249.496L88.9999 249.496Z" fill="#171D33"/>
<path d="M89.0005 239.981L19.0869 239.981L19.1912 237.655L19.2955 235.356L89.1048 235.277L158.879 235.224L158.879 237.602L158.879 239.981L89.0005 239.981Z" fill="#171D33"/>
<path d="M88.9657 228.087L19.0869 228.087L19.1912 226.951L19.2955 225.841L89.1048 225.761L158.879 225.709L158.879 226.898L158.879 228.087L88.9657 228.087Z" fill="#171D33"/>
<path d="M88.9657 223.33L19.0869 223.33L19.1912 222.193L19.2955 221.083L89.1048 221.004L158.879 220.951L158.879 222.14L158.879 223.33L88.9657 223.33Z" fill="#171D33"/>
<path d="M88.9657 218.572L19.0869 218.572L19.1912 217.436L19.2955 216.326L89.1048 216.246L158.879 216.194L158.879 217.383L158.879 218.572L88.9657 218.572Z" fill="#171D33"/>
<path d="M89.1048 209.269L19.2955 209.189L19.1912 206.863L19.0869 204.564L89.0005 204.564L158.879 204.564L158.879 206.943L158.879 209.322L89.1048 209.269Z" fill="#171D33"/>
<path d="M88.9999 197.428L19.1211 197.428L19.1211 195.049L19.1211 192.67L88.9999 192.67L158.879 192.67L158.879 195.049L158.879 197.428L88.9999 197.428Z" fill="#171D33"/>
<path d="M88.9999 187.913L19.1211 187.913L19.1211 185.534L19.1211 183.155L88.9999 183.155L158.879 183.155L158.879 185.534L158.879 187.913L88.9999 187.913Z" fill="#171D33"/>
<path d="M88.9999 178.398L19.1211 178.398L19.1211 176.019L19.1211 173.64L88.9999 173.64L158.879 173.64L158.879 176.019L158.879 178.398L88.9999 178.398Z" fill="#171D33"/>
<path d="M88.9999 171.261L19.1211 171.261L19.1211 168.883L19.1211 166.504L88.9999 166.504L158.879 166.504L158.879 168.883L158.879 171.261L88.9999 171.261Z" fill="#171D33"/>
<path d="M88.9999 159.367L19.1211 159.367L19.1211 155.799L19.1211 152.231L88.9999 152.231L158.879 152.231L158.879 155.799L158.879 159.367L88.9999 159.367Z" fill="#171D33"/>
<path d="M88.9999 149.852L19.1211 149.852L19.1211 148.663L19.1211 147.474L88.9999 147.474L158.879 147.474L158.879 148.663L158.879 149.852L88.9999 149.852Z" fill="#171D33"/>
<path d="M88.9999 145.095L19.1211 145.095L19.1211 142.716L19.1211 140.337L88.9999 140.337L158.879 140.337L158.879 142.716L158.879 145.095L88.9999 145.095Z" fill="#171D33"/>
</g>
<g clip-path="url(#clip2_154_878)">
<path d="M88.9999 416L19.1211 416L19.1211 413.621L19.1211 411.242L88.9999 411.242L158.879 411.242L158.879 413.621L158.879 416L88.9999 416Z" fill="#171D33"/>
<path d="M88.9999 408.864L19.1211 408.864L19.1211 407.674L19.1211 406.485L88.9999 406.485L158.879 406.485L158.879 407.674L158.879 408.864L88.9999 408.864Z" fill="#171D33"/>
<path d="M88.9999 401.727L19.1211 401.727L19.1211 400.538L19.1211 399.349L88.9999 399.349L158.879 399.349L158.879 400.538L158.879 401.727L88.9999 401.727Z" fill="#171D33"/>
<path d="M88.9999 389.834L19.1211 389.834L19.1211 388.644L19.1211 387.455L88.9999 387.455L158.879 387.455L158.879 388.644L158.879 389.834L88.9999 389.834Z" fill="#171D33"/>
<path d="M89.0005 380.319L19.0869 380.319L19.1912 377.993L19.2955 375.693L89.1048 375.614L158.879 375.561L158.879 377.94L158.879 380.319L89.0005 380.319Z" fill="#171D33"/>
<path d="M88.9657 368.425L19.0869 368.425L19.1912 367.288L19.2955 366.178L89.1048 366.099L158.879 366.046L158.879 367.235L158.879 368.425L88.9657 368.425Z" fill="#171D33"/>
<path d="M88.9657 363.667L19.0869 363.667L19.1912 362.531L19.2955 361.421L89.1048 361.341L158.879 361.288L158.879 362.478L158.879 363.667L88.9657 363.667Z" fill="#171D33"/>
<path d="M88.9657 358.91L19.0869 358.91L19.1912 357.773L19.2955 356.663L89.1048 356.584L158.879 356.531L158.879 357.72L158.879 358.91L88.9657 358.91Z" fill="#171D33"/>
<path d="M89.1048 349.606L19.2955 349.527L19.1912 347.201L19.0869 344.901L89.0005 344.901L158.879 344.901L158.879 347.28L158.879 349.659L89.1048 349.606Z" fill="#171D33"/>
<path d="M88.9999 337.765L19.1211 337.765L19.1211 335.386L19.1211 333.008L88.9999 333.008L158.879 333.008L158.879 335.386L158.879 337.765L88.9999 337.765Z" fill="#171D33"/>
<path d="M88.9999 328.25L19.1211 328.25L19.1211 325.871L19.1211 323.492L88.9999 323.492L158.879 323.492L158.879 325.871L158.879 328.25L88.9999 328.25Z" fill="#171D33"/>
<path d="M88.9999 318.735L19.1211 318.735L19.1211 316.356L19.1211 313.977L88.9999 313.977L158.879 313.977L158.879 316.356L158.879 318.735L88.9999 318.735Z" fill="#171D33"/>
<path d="M88.9999 311.599L19.1211 311.599L19.1211 309.22L19.1211 306.841L88.9999 306.841L158.879 306.841L158.879 309.22L158.879 311.599L88.9999 311.599Z" fill="#171D33"/>
<path d="M88.9999 299.705L19.1211 299.705L19.1211 296.137L19.1211 292.569L88.9999 292.569L158.879 292.569L158.879 296.137L158.879 299.705L88.9999 299.705Z" fill="#171D33"/>
<path d="M88.9999 290.19L19.1211 290.19L19.1211 289L19.1211 287.811L88.9999 287.811L158.879 287.811L158.879 289L158.879 290.19L88.9999 290.19Z" fill="#171D33"/>
<path d="M88.9999 285.432L19.1211 285.432L19.1211 283.053L19.1211 280.675L88.9999 280.675L158.879 280.675L158.879 283.053L158.879 285.432L88.9999 285.432Z" fill="#171D33"/>
</g>
<defs>
<clipPath id="clip0_154_878">
<rect width="135.325" height="178" fill="white" transform="translate(178) rotate(90)"/>
</clipPath>
<clipPath id="clip1_154_878">
<rect width="135.325" height="178" fill="white" transform="matrix(4.37114e-08 -1 -1 -4.37114e-08 178 275.663)"/>
</clipPath>
<clipPath id="clip2_154_878">
<rect width="135.325" height="178" fill="white" transform="matrix(4.37114e-08 -1 -1 -4.37114e-08 178 416)"/>
</clipPath>
</defs>
</svg>
