<svg width="30" height="30" viewBox="0 0 30 30" fill="none" xmlns="http://www.w3.org/2000/svg">
<rect x="2.5" y="2.5" width="25" height="25" rx="6.5" fill="white" stroke="#613EEA" stroke-width="3"/>
<path d="M19.0753 12.7969L18.6864 14.2777H11.5433L11.9268 12.7969H19.0753ZM15.3626 21L11.7191 16.6641L11.7244 15.3324H13.5249C13.9261 15.3324 14.2617 15.2578 14.5316 15.1087C14.8015 14.9595 15.0039 14.7571 15.1388 14.5014C15.2738 14.2457 15.343 13.9545 15.3466 13.6278C15.343 13.1378 15.1992 12.7383 14.9151 12.4293C14.6346 12.1168 14.1712 11.9606 13.5249 11.9606H11.5433L11.9801 10.0909H13.5249C14.4304 10.0909 15.185 10.2276 15.7887 10.5011C16.396 10.771 16.8505 11.1562 17.1523 11.657C17.4577 12.1577 17.6122 12.7543 17.6158 13.4467C17.6122 14.0611 17.5092 14.5973 17.3068 15.0554C17.108 15.5135 16.7937 15.8952 16.364 16.2006C15.9379 16.506 15.3821 16.7333 14.6967 16.8825L14.6115 16.9144L17.8714 20.9041V21H15.3626ZM19.0859 10.0909L18.6864 11.593H12.8058L13.2053 10.0909H19.0859Z" fill="#613EEA"/>
</svg>
