<svg width="121" height="25" viewBox="0 0 121 25" fill="none" xmlns="http://www.w3.org/2000/svg">
<path d="M41.7045 6.36364L44.733 15.5227H44.8523L47.875 6.36364H50.1932L46.0909 18H43.4886L39.392 6.36364H41.7045ZM51.9349 18V9.27273H53.9918V18H51.9349ZM52.969 8.03409C52.6433 8.03409 52.363 7.92614 52.1281 7.71023C51.8933 7.49053 51.7759 7.22727 51.7759 6.92045C51.7759 6.60985 51.8933 6.34659 52.1281 6.13068C52.363 5.91098 52.6433 5.80114 52.969 5.80114C53.2986 5.80114 53.5789 5.91098 53.8099 6.13068C54.0448 6.34659 54.1622 6.60985 54.1622 6.92045C54.1622 7.22727 54.0448 7.49053 53.8099 7.71023C53.5789 7.92614 53.2986 8.03409 52.969 8.03409ZM60.7665 18V6.36364H65.1301C66.0241 6.36364 66.7741 6.5303 67.3801 6.86364C67.99 7.19697 68.4502 7.6553 68.7608 8.23864C69.0752 8.81818 69.2324 9.47727 69.2324 10.2159C69.2324 10.9621 69.0752 11.625 68.7608 12.2045C68.4464 12.7841 67.9824 13.2405 67.3687 13.5739C66.7551 13.9034 65.9994 14.0682 65.1017 14.0682H62.2097V12.3352H64.8176C65.3403 12.3352 65.7684 12.2443 66.1017 12.0625C66.435 11.8807 66.6812 11.6307 66.8403 11.3125C67.0032 10.9943 67.0847 10.6288 67.0847 10.2159C67.0847 9.80303 67.0032 9.43939 66.8403 9.125C66.6812 8.81061 66.4331 8.56629 66.096 8.39205C65.7627 8.21402 65.3328 8.125 64.8062 8.125H62.8744V18H60.7665ZM71.2724 18V9.27273H73.2668V10.7273H73.3577C73.5168 10.2235 73.7895 9.83523 74.1759 9.5625C74.566 9.28598 75.0111 9.14773 75.5111 9.14773C75.6247 9.14773 75.7516 9.15341 75.8918 9.16477C76.0357 9.17235 76.155 9.18561 76.2497 9.20455V11.0966C76.1626 11.0663 76.0243 11.0398 75.8349 11.017C75.6493 10.9905 75.4694 10.9773 75.2952 10.9773C74.9202 10.9773 74.5831 11.0587 74.2838 11.2216C73.9884 11.3807 73.7554 11.6023 73.5849 11.8864C73.4145 12.1705 73.3293 12.4981 73.3293 12.8693V18H71.2724ZM81.4205 18.1705C80.5455 18.1705 79.7898 17.9886 79.1534 17.625C78.5208 17.2576 78.0341 16.7386 77.6932 16.0682C77.3523 15.3939 77.1818 14.6004 77.1818 13.6875C77.1818 12.7898 77.3523 12.0019 77.6932 11.3239C78.0379 10.642 78.5189 10.1117 79.1364 9.73295C79.7538 9.35038 80.4792 9.15909 81.3125 9.15909C81.8504 9.15909 82.358 9.24621 82.8352 9.42045C83.3163 9.59091 83.7405 9.85606 84.108 10.2159C84.4792 10.5758 84.7708 11.0341 84.983 11.5909C85.1951 12.1439 85.3011 12.803 85.3011 13.5682V14.1989H78.1477V12.8125H83.3295C83.3258 12.4186 83.2405 12.0682 83.0739 11.7614C82.9072 11.4508 82.6742 11.2064 82.375 11.0284C82.0795 10.8504 81.7348 10.7614 81.3409 10.7614C80.9205 10.7614 80.5511 10.8636 80.233 11.0682C79.9148 11.2689 79.6667 11.5341 79.4886 11.8636C79.3144 12.1894 79.2254 12.5473 79.2216 12.9375V14.1477C79.2216 14.6553 79.3144 15.0909 79.5 15.4545C79.6856 15.8144 79.9451 16.0909 80.2784 16.2841C80.6117 16.4735 81.0019 16.5682 81.4489 16.5682C81.7481 16.5682 82.0189 16.5265 82.2614 16.4432C82.5038 16.3561 82.714 16.2292 82.892 16.0625C83.0701 15.8958 83.2045 15.6894 83.2955 15.4432L85.2159 15.6591C85.0947 16.1667 84.8636 16.6098 84.5227 16.9886C84.1856 17.3636 83.7538 17.6553 83.2273 17.8636C82.7008 18.0682 82.0985 18.1705 81.4205 18.1705ZM87.3412 21.2727V9.27273H89.3639V10.7159H89.4832C89.5893 10.5038 89.7389 10.2784 89.9321 10.0398C90.1253 9.79735 90.3866 9.59091 90.7162 9.42045C91.0457 9.24621 91.4662 9.15909 91.9776 9.15909C92.6518 9.15909 93.2598 9.33144 93.8014 9.67614C94.3469 10.017 94.7787 10.5227 95.0969 11.1932C95.4188 11.8598 95.5798 12.678 95.5798 13.6477C95.5798 14.6061 95.4226 15.4205 95.1082 16.0909C94.7938 16.7614 94.3658 17.2727 93.8241 17.625C93.2825 17.9773 92.6688 18.1534 91.9832 18.1534C91.4832 18.1534 91.0685 18.0701 90.7389 17.9034C90.4094 17.7367 90.1442 17.536 89.9435 17.3011C89.7465 17.0625 89.5931 16.8371 89.4832 16.625H89.398V21.2727H87.3412ZM89.3582 13.6364C89.3582 14.2008 89.4378 14.6951 89.5969 15.1193C89.7598 15.5436 89.9927 15.875 90.2957 16.1136C90.6026 16.3485 90.9738 16.4659 91.4094 16.4659C91.8639 16.4659 92.2446 16.3447 92.5514 16.1023C92.8582 15.8561 93.0893 15.5208 93.2446 15.0966C93.4037 14.6686 93.4832 14.1818 93.4832 13.6364C93.4832 13.0947 93.4056 12.6136 93.2503 12.1932C93.095 11.7727 92.8639 11.4432 92.5571 11.2045C92.2503 10.9659 91.8677 10.8466 91.4094 10.8466C90.97 10.8466 90.5969 10.9621 90.2901 11.1932C89.9832 11.4242 89.7503 11.7481 89.5912 12.1648C89.4359 12.5814 89.3582 13.072 89.3582 13.6364ZM100.153 18.1761C99.5995 18.1761 99.1014 18.0777 98.6582 17.8807C98.2188 17.6799 97.8704 17.3845 97.6128 16.9943C97.359 16.6042 97.2321 16.1231 97.2321 15.5511C97.2321 15.0587 97.323 14.6515 97.5048 14.3295C97.6866 14.0076 97.9348 13.75 98.2491 13.5568C98.5635 13.3636 98.9177 13.2178 99.3116 13.1193C99.7094 13.017 100.12 12.9432 100.545 12.8977C101.056 12.8447 101.471 12.7973 101.789 12.7557C102.107 12.7102 102.338 12.642 102.482 12.5511C102.63 12.4564 102.704 12.3106 102.704 12.1136V12.0795C102.704 11.6515 102.577 11.3201 102.323 11.0852C102.069 10.8504 101.704 10.733 101.226 10.733C100.723 10.733 100.323 10.8428 100.028 11.0625C99.7359 11.2822 99.5389 11.5417 99.4366 11.8409L97.5162 11.5682C97.6677 11.0379 97.9177 10.5947 98.2662 10.2386C98.6147 9.87879 99.0408 9.60985 99.5446 9.43182C100.048 9.25 100.605 9.15909 101.215 9.15909C101.636 9.15909 102.054 9.20833 102.471 9.30682C102.887 9.4053 103.268 9.56818 103.613 9.79545C103.957 10.0189 104.234 10.3239 104.442 10.7102C104.654 11.0966 104.761 11.5795 104.761 12.1591V18H102.783V16.8011H102.715C102.59 17.0436 102.414 17.2708 102.187 17.483C101.963 17.6913 101.681 17.8598 101.34 17.9886C101.003 18.1136 100.607 18.1761 100.153 18.1761ZM100.687 16.6648C101.1 16.6648 101.457 16.5833 101.761 16.4205C102.064 16.2538 102.296 16.0341 102.459 15.7614C102.626 15.4886 102.709 15.1913 102.709 14.8693V13.8409C102.645 13.8939 102.535 13.9432 102.38 13.9886C102.228 14.0341 102.058 14.0739 101.868 14.108C101.679 14.142 101.492 14.1723 101.306 14.1989C101.12 14.2254 100.959 14.2481 100.823 14.267C100.516 14.3087 100.242 14.3769 99.9991 14.4716C99.7567 14.5663 99.5654 14.6989 99.4253 14.8693C99.2851 15.036 99.2151 15.2519 99.2151 15.517C99.2151 15.8958 99.3533 16.1818 99.6298 16.375C99.9063 16.5682 100.259 16.6648 100.687 16.6648ZM107.129 18V9.27273H109.186V18H107.129ZM108.163 8.03409C107.837 8.03409 107.557 7.92614 107.322 7.71023C107.087 7.49053 106.97 7.22727 106.97 6.92045C106.97 6.60985 107.087 6.34659 107.322 6.13068C107.557 5.91098 107.837 5.80114 108.163 5.80114C108.492 5.80114 108.773 5.91098 109.004 6.13068C109.239 6.34659 109.356 6.60985 109.356 6.92045C109.356 7.22727 109.239 7.49053 109.004 7.71023C108.773 7.92614 108.492 8.03409 108.163 8.03409ZM114.839 18.1534C114.154 18.1534 113.54 17.9773 112.998 17.625C112.457 17.2727 112.029 16.7614 111.714 16.0909C111.4 15.4205 111.243 14.6061 111.243 13.6477C111.243 12.678 111.402 11.8598 111.72 11.1932C112.042 10.5227 112.476 10.017 113.021 9.67614C113.566 9.33144 114.174 9.15909 114.845 9.15909C115.356 9.15909 115.777 9.24621 116.106 9.42045C116.436 9.59091 116.697 9.79735 116.89 10.0398C117.084 10.2784 117.233 10.5038 117.339 10.7159H117.424V6.36364H119.487V18H117.464V16.625H117.339C117.233 16.8371 117.08 17.0625 116.879 17.3011C116.678 17.536 116.413 17.7367 116.084 17.9034C115.754 18.0701 115.339 18.1534 114.839 18.1534ZM115.413 16.4659C115.849 16.4659 116.22 16.3485 116.527 16.1136C116.834 15.875 117.066 15.5436 117.226 15.1193C117.385 14.6951 117.464 14.2008 117.464 13.6364C117.464 13.072 117.385 12.5814 117.226 12.1648C117.07 11.7481 116.839 11.4242 116.532 11.1932C116.229 10.9621 115.856 10.8466 115.413 10.8466C114.955 10.8466 114.572 10.9659 114.265 11.2045C113.959 11.4432 113.727 11.7727 113.572 12.1932C113.417 12.6136 113.339 13.0947 113.339 13.6364C113.339 14.1818 113.417 14.6686 113.572 15.0966C113.731 15.5208 113.964 15.8561 114.271 16.1023C114.582 16.3447 114.962 16.4659 115.413 16.4659Z" fill="#171D33"/>
<g clip-path="url(#clip0_330_2179)">
<path fill-rule="evenodd" clip-rule="evenodd" d="M13.7721 0L9.88477 15.4987L6.01107 0H0L4.16992 16.6217H15.6042L19.7718 0H13.7721ZM21.7314 16.6217H27.7334V0H21.7337V16.6217H21.7314Z" fill="#EE303C"/>
<path fill-rule="evenodd" clip-rule="evenodd" d="M28 21.7879C28 22.425 27.8084 23.0477 27.4493 23.5774C27.0903 24.1071 26.5799 24.52 25.9829 24.7638C25.3858 25.0075 24.7288 25.0713 24.0949 24.9471C23.4611 24.8228 22.8789 24.516 22.4219 24.0655C21.9649 23.6151 21.6537 23.0411 21.5276 22.4163C21.4016 21.7915 21.4663 21.1439 21.7136 20.5553C21.9609 19.9667 22.3797 19.4637 22.9171 19.1097C23.4544 18.7558 24.0862 18.5669 24.7324 18.5669C25.1615 18.5669 25.5864 18.6502 25.9829 18.8121C26.3793 18.974 26.7395 19.2112 27.0429 19.5103C27.3464 19.8094 27.5871 20.1645 27.7513 20.5553C27.9155 20.9461 28 21.3649 28 21.7879Z" fill="#FED301"/>
</g>
<defs>
<clipPath id="clip0_330_2179">
<rect width="28" height="25" fill="white"/>
</clipPath>
</defs>
</svg>
