<svg width="32" height="32" viewBox="0 0 32 32" fill="none" xmlns="http://www.w3.org/2000/svg">
<g clip-path="url(#clip0_399_2947)">
<path d="M10.0503 0.118744C9.09402 0.424994 8.35652 1.22499 8.09402 2.23124C8.01902 2.51874 8.00027 3.09999 8.00027 5.29374V7.99999H7.31277C6.92527 7.99999 6.40652 8.04374 6.13777 8.09999C4.95027 8.34374 3.94402 9.11874 3.40652 10.2187C2.97527 11.0937 3.00027 10.4937 3.00027 20C3.00027 29.5375 2.97527 28.9687 3.42527 29.875C3.73777 30.5187 4.47527 31.2562 5.12527 31.5812C6.03152 32.0312 5.23152 32 16.4753 32C26.4503 32 26.6128 32 26.969 31.875C27.919 31.55 28.594 30.8687 28.8753 29.9437C29.0003 29.5562 29.0003 29.3187 29.0003 20.0375C29.0003 12.3 28.9815 10.475 28.9128 10.2187C28.6253 9.13124 27.7065 8.26874 26.6315 8.06249C26.444 8.03124 25.7815 7.99999 25.1503 7.99999H24.0003V5.34999C24.0003 3.81249 23.9753 2.56249 23.9378 2.36874C23.7378 1.33124 22.9378 0.431244 21.9315 0.118744C21.569 0.00624275 21.2753 -7.62939e-06 15.9815 0.00624275C10.7503 0.00624275 10.3815 0.0124931 10.0503 0.118744ZM21.2128 1.93749C21.5503 2.01249 21.7565 2.17499 21.9253 2.49999L22.0628 2.77499V8.38749V14H16.0003H9.93777V8.38749V2.77499L10.0815 2.49999C10.2378 2.18749 10.4503 2.01249 10.7565 1.93749C11.0565 1.86874 20.9128 1.86249 21.2128 1.93749ZM8.00027 11.975V14.0125L7.20652 13.9875C6.28777 13.9687 5.98152 13.8625 5.53152 13.4062C5.10652 12.9875 4.96902 12.6312 4.96902 11.9687C4.96902 11.4812 4.99402 11.3625 5.13777 11.0937C5.30027 10.775 5.72527 10.3375 6.00652 10.1812C6.33152 10.0125 6.68152 9.94374 7.33152 9.94374L8.00027 9.93749V11.975ZM26.4753 10.0562C26.619 10.1187 26.8003 10.2687 26.8815 10.3812C27.0315 10.5937 27.0315 10.6062 27.0503 12.4C27.069 14.1062 27.0628 14.2 26.9565 14.1625C26.7128 14.0687 25.919 14.0062 24.9878 14H24.0003V11.9687V9.93749H25.1128C26.0565 9.93749 26.2565 9.95624 26.4753 10.0562ZM5.98777 15.8437C6.31902 15.925 7.51902 15.9375 16.194 15.9375C22.769 15.9375 26.1065 15.9625 26.2628 16C26.394 16.0375 26.5815 16.1375 26.6878 16.2312C27.0565 16.5375 27.0628 16.5875 27.0628 18.4062V20.0625H25.3565C23.5128 20.0625 23.2315 20.1 22.6128 20.4125C22.194 20.625 21.6253 21.1937 21.4128 21.6125C20.9503 22.5312 20.9503 23.5812 21.4253 24.4625C21.644 24.8687 22.194 25.4187 22.6003 25.6375C23.2003 25.9625 23.5003 26 25.3565 26H27.0628V27.6812C27.0628 29.3187 27.0628 29.3625 26.919 29.5687C26.719 29.8687 26.419 30.05 26.044 30.0937C25.8628 30.1125 21.419 30.125 16.1565 30.1125L6.59402 30.0937L6.23152 29.95C5.79402 29.775 5.33152 29.3375 5.12527 28.9062L4.96902 28.5937L4.95027 22.0187L4.93777 15.4437L5.27527 15.5937C5.46277 15.675 5.78152 15.7875 5.98777 15.8437ZM27.0628 23.0312V24.0625H25.4253C23.8378 24.0625 23.7753 24.0562 23.5315 23.9187C23.2253 23.7437 23.0003 23.3687 23.0003 23.0312C23.0003 22.6937 23.2253 22.3187 23.5315 22.1437C23.7753 22.0062 23.8378 22 25.4253 22H27.0628V23.0312Z" fill="#38004D"/>
<g filter="url(#filter0_d_399_2947)">
<path d="M12.4938 4.13124C12.0938 4.36874 12.0312 4.54374 12.0312 5.47499C12.0312 6.27499 12.0312 6.29374 12.2125 6.52499C12.5312 6.94374 12.9625 7.03749 13.4375 6.79374C13.8625 6.57499 13.9375 6.37499 13.9375 5.43749C13.9375 4.76874 13.9188 4.62499 13.8125 4.44999C13.5438 4.01249 12.95 3.86874 12.4938 4.13124Z" fill="#613EEA"/>
</g>
<g filter="url(#filter1_d_399_2947)">
<path d="M18.5308 4.11875C18.4308 4.18125 16.9308 5.65 15.212 7.38125C12.4558 10.15 12.0745 10.5625 12.037 10.7625C11.8933 11.5562 12.662 12.1687 13.3933 11.85C13.5058 11.8 14.9433 10.4062 16.7558 8.5875C19.5245 5.80625 19.9245 5.375 19.962 5.175C20.0433 4.73125 19.8495 4.30625 19.487 4.11875C19.187 3.96875 18.7745 3.96875 18.5308 4.11875Z" fill="#613EEA"/>
</g>
<g filter="url(#filter2_d_399_2947)">
<path d="M18.5312 9.13748C18.1375 9.36873 18.0625 9.58123 18.0625 10.5062C18.0625 11.2187 18.075 11.3125 18.2062 11.5062C18.4875 11.9312 19.1 12.0687 19.5 11.7937C19.9312 11.5062 19.9688 11.3937 19.9688 10.4687C19.9688 9.72498 19.9563 9.61873 19.8375 9.46248C19.5063 9.01248 18.975 8.88123 18.5312 9.13748Z" fill="#613EEA"/>
</g>
</g>
<defs>
<filter id="filter0_d_399_2947" x="8.03125" y="3.99994" width="9.90625" height="10.9264" filterUnits="userSpaceOnUse" color-interpolation-filters="sRGB">
<feFlood flood-opacity="0" result="BackgroundImageFix"/>
<feColorMatrix in="SourceAlpha" type="matrix" values="0 0 0 0 0 0 0 0 0 0 0 0 0 0 0 0 0 0 127 0" result="hardAlpha"/>
<feOffset dy="4"/>
<feGaussianBlur stdDeviation="2"/>
<feComposite in2="hardAlpha" operator="out"/>
<feColorMatrix type="matrix" values="0 0 0 0 0 0 0 0 0 0 0 0 0 0 0 0 0 0 0.25 0"/>
<feBlend mode="normal" in2="BackgroundImageFix" result="effect1_dropShadow_399_2947"/>
<feBlend mode="normal" in="SourceGraphic" in2="effect1_dropShadow_399_2947" result="shape"/>
</filter>
<filter id="filter1_d_399_2947" x="8.01953" y="4.00626" width="15.9609" height="15.9298" filterUnits="userSpaceOnUse" color-interpolation-filters="sRGB">
<feFlood flood-opacity="0" result="BackgroundImageFix"/>
<feColorMatrix in="SourceAlpha" type="matrix" values="0 0 0 0 0 0 0 0 0 0 0 0 0 0 0 0 0 0 127 0" result="hardAlpha"/>
<feOffset dy="4"/>
<feGaussianBlur stdDeviation="2"/>
<feComposite in2="hardAlpha" operator="out"/>
<feColorMatrix type="matrix" values="0 0 0 0 0 0 0 0 0 0 0 0 0 0 0 0 0 0 0.25 0"/>
<feBlend mode="normal" in2="BackgroundImageFix" result="effect1_dropShadow_399_2947"/>
<feBlend mode="normal" in="SourceGraphic" in2="effect1_dropShadow_399_2947" result="shape"/>
</filter>
<filter id="filter2_d_399_2947" x="14.0625" y="9.00778" width="9.90625" height="10.9285" filterUnits="userSpaceOnUse" color-interpolation-filters="sRGB">
<feFlood flood-opacity="0" result="BackgroundImageFix"/>
<feColorMatrix in="SourceAlpha" type="matrix" values="0 0 0 0 0 0 0 0 0 0 0 0 0 0 0 0 0 0 127 0" result="hardAlpha"/>
<feOffset dy="4"/>
<feGaussianBlur stdDeviation="2"/>
<feComposite in2="hardAlpha" operator="out"/>
<feColorMatrix type="matrix" values="0 0 0 0 0 0 0 0 0 0 0 0 0 0 0 0 0 0 0.25 0"/>
<feBlend mode="normal" in2="BackgroundImageFix" result="effect1_dropShadow_399_2947"/>
<feBlend mode="normal" in="SourceGraphic" in2="effect1_dropShadow_399_2947" result="shape"/>
</filter>
<clipPath id="clip0_399_2947">
<rect width="32" height="32" fill="white"/>
</clipPath>
</defs>
</svg>
