<svg width="32" height="32" viewBox="0 0 32 32" fill="none" xmlns="http://www.w3.org/2000/svg">
<path d="M27.1928 29.2848C27.1437 29.2911 27.0153 29.2963 26.8265 29.301C26.6344 29.3058 26.3728 29.3103 26.0519 29.3144C25.41 29.3227 24.5297 29.3296 23.4907 29.3351C21.4125 29.3461 18.6984 29.3516 15.9844 29.3516C13.2704 29.3516 10.5563 29.3461 8.4781 29.3351C7.43904 29.3296 6.55876 29.3227 5.91688 29.3144C5.59598 29.3103 5.33438 29.3058 5.14221 29.301C4.95375 29.2963 4.82555 29.2911 4.77625 29.2848C2.99417 29.0628 1.59034 27.8675 1.03948 26.1131L1.03948 26.1131L1.03928 26.1125L0.904395 25.6726L0.9 25.6583V25.6433V16.8169V7.99047V7.97548L0.904395 7.96115L1.03928 7.52129L1.03947 7.52069C1.57818 5.8028 2.99857 4.57141 4.6935 4.34902L4.69386 4.34897L27.1801 4.44817L27.1925 4.34894C28.9746 4.57095 30.3784 5.76629 30.9293 7.52065L30.9295 7.52129L31.0644 7.96115L31.0688 7.97548V7.99047V16.8169V25.6433V25.6583L31.0644 25.6726L30.9295 26.1125L30.9293 26.1131C30.3784 27.8674 28.9747 29.0627 27.1928 29.2848ZM27.1928 29.2848C27.1928 29.2848 27.1929 29.2848 27.193 29.2848L27.1801 29.1856L27.1925 29.2848C27.1926 29.2848 27.1927 29.2848 27.1928 29.2848ZM29.1155 25.7254C28.9454 26.2239 28.5349 26.7517 28.0774 27.0567L25.7075 12.3946L29.1387 12.3718V10.3715C29.1387 8.3805 29.1314 8.2724 29.0207 7.94028C28.7673 7.19151 28.0485 6.51917 27.3088 6.33404C27.2342 6.31607 27.1112 6.30015 26.8066 6.28762C26.5032 6.27514 26.0258 6.26617 25.2462 6.25994C23.6874 6.24748 20.9256 6.24601 15.9434 6.24894H15.9433C10.788 6.24894 8.02924 6.25188 6.51748 6.26653C5.76128 6.27386 5.31873 6.28412 5.04477 6.29829C4.77107 6.31245 4.6717 6.33031 4.59904 6.35068C3.88052 6.55852 3.19575 7.21437 2.948 7.94034C2.94797 7.94044 2.94793 7.94054 2.9479 7.94064L2.83009 8.29406V16.8169V25.3397L2.9479 25.6931C2.94793 25.6932 2.94797 25.6933 2.94801 25.6934C3.11078 26.1702 3.50701 26.6803 3.94678 26.9735L3.9471 26.9737C4.00097 27.0099 4.04359 27.0414 4.08121 27.0691C4.17654 27.1394 4.23977 27.186 4.37269 27.2268C4.56255 27.2851 4.88502 27.3247 5.58465 27.3497C6.78341 27.3925 9.05539 27.392 13.5844 27.391C14.3227 27.3909 15.121 27.3907 15.9844 27.3907C16.8478 27.3907 17.6461 27.3909 18.3844 27.391C22.9134 27.392 25.1853 27.3925 26.3841 27.3497C27.0837 27.3247 27.4062 27.2851 27.5961 27.2268C27.729 27.186 27.7922 27.1394 27.8875 27.0691C27.9252 27.0414 27.9678 27.0099 28.0216 26.9737L28.022 26.9735C28.4617 26.6803 28.858 26.1702 29.0207 25.6934M29.1155 25.7254L29.0206 25.6938C29.0207 25.6937 29.0207 25.6936 29.0207 25.6934M29.1155 25.7254C29.2328 25.3735 29.2387 25.2445 29.2387 23.2622V21.1626L29.1387 21.262M29.1155 25.7254L29.0209 25.6931C29.0208 25.6932 29.0208 25.6933 29.0207 25.6934M29.0207 25.6934C29.1314 25.3614 29.1387 25.2532 29.1387 23.2622V21.262M29.1387 21.262L25.7075 21.2392C24.1246 21.2304 23.2302 21.2231 22.6919 21.2061C22.1549 21.1893 21.9632 21.1628 21.7915 21.1119C21.7915 21.1119 21.7914 21.1119 21.7914 21.1119L21.8198 21.016M29.1387 21.262L19.6029 19.585C20.1542 20.2419 20.9635 20.7638 21.8198 21.016M21.8198 21.016C22.1365 21.1099 22.5411 21.1216 25.7081 21.1392L21.8198 21.016ZM22.247 19.2135L22.2481 19.2139C22.3555 19.2471 22.5504 19.2694 23.0852 19.282C23.6153 19.2944 24.4673 19.2974 25.8782 19.2974H29.1387V16.8169V14.3366L25.8549 14.3423H25.8547C24.4792 14.3423 23.6198 14.3467 23.0773 14.3598C22.8059 14.3664 22.6154 14.3752 22.48 14.3865C22.3431 14.3979 22.2687 14.4115 22.226 14.4254L22.2243 14.4259C21.0216 14.7929 20.2616 16.0009 20.4697 17.2104L20.4698 17.2106C20.6334 18.17 21.3158 18.937 22.247 19.2135Z" fill="#38004D" stroke="#38004D" stroke-width="0.2"/>
<path d="M22.6411 15.9958C22.0663 16.1718 21.8728 16.9694 22.2951 17.4092C22.5238 17.6497 22.8229 17.7083 23.644 17.6849C24.2598 17.6731 24.3888 17.6497 24.5237 17.5441C24.8169 17.3271 24.9107 17.1453 24.9107 16.8169C24.9107 16.4885 24.8169 16.3066 24.5237 16.0897C24.3829 15.9841 24.2656 15.9665 23.5912 15.9548C23.163 15.9489 22.7349 15.9665 22.6411 15.9958Z" fill="#613EEA"/>
</svg>
