<?xml version="1.0" encoding="UTF-8"?>
<svg version="1.1" xmlns="http://www.w3.org/2000/svg" width="50" height="50">
<path d="M0 0 C1.32 0 2.64 0 4 0 C5.67841013 1.91949086 7.00543649 3.68843043 8.375 5.8125 C8.95991211 6.69023071 8.95991211 6.69023071 9.55664062 7.58569336 C21.3540877 25.54667487 21.3540877 25.54667487 20 37 C18.28268959 42.31059578 15.7573749 45.9504007 11 49 C5.62984366 50.79005211 -0.76234766 51.00459071 -6.203125 49.31640625 C-11.40077327 46.59329052 -14.18324024 42.45027929 -16 37 C-17.28666595 23.49000757 -9.60905716 13.38957707 -2 3 C-1.34 2.01 -0.68 1.02 0 0 Z M1 5 C-6.38115302 13.57061035 -13.79196495 24.31851696 -13 36 C-11.01155883 41.33739473 -8.09332352 44.45333824 -3 47 C2.0111158 47.54978069 5.89696493 47.56154513 10.4375 45.25 C14.70390503 41.50388827 16.73719285 38.62807146 17.3125 32.875 C16.51957448 23.04272354 9.63125357 12.10491454 3 5 C2.34 5 1.68 5 1 5 Z " fill="#20A125" transform="translate(23,0)"/>
<path d="M0 0 C0.99 0 1.98 0 3 0 C1.22032461 4.78795916 -1.17908233 9.2199515 -3.69726562 13.65234375 C-6.07786546 18.15618128 -6.22222683 21.09294079 -5 26 C-3.12852073 28.58442376 -0.88461151 29.70689829 2 31 C2 31.99 2 32.98 2 34 C-2.0654389 33.81090982 -3.72808284 33.24170414 -6.8125 30.5 C-9.66434015 26.62038629 -10.39468901 22.75994949 -10 18 C-8.21892755 11.63431513 -4.37522419 4.93525289 0 0 Z " fill="#219F26" transform="translate(23,11)"/>
</svg>
