<svg width="264" height="264" viewBox="0 0 264 264" fill="none" xmlns="http://www.w3.org/2000/svg">
<path d="M264 201.907H0V202.039H264V201.907Z" fill="#EBEBEB"/>
<path d="M235.097 207.953H208.222V208.085H235.097V207.953Z" fill="#EBEBEB"/>
<path d="M52.6259 206.39H27.699V206.522H52.6259V206.39Z" fill="#EBEBEB"/>
<path d="M210.144 205.503H200.012V205.635H210.144V205.503Z" fill="#EBEBEB"/>
<path d="M174.884 209.004H167.45V209.136H174.884V209.004Z" fill="#EBEBEB"/>
<path d="M162.746 209.004H144.033V209.136H162.746V209.004Z" fill="#EBEBEB"/>
<path d="M133.167 206.775H103.076V206.907H133.167V206.775Z" fill="#EBEBEB"/>
<path d="M125.136 178.358H23.1897C22.3901 178.358 21.6232 178.041 21.0578 177.475C20.4924 176.91 20.1748 176.143 20.1748 175.344V32.0285C20.1818 31.2335 20.5025 30.4734 21.0671 29.9137C21.6318 29.354 22.3946 29.04 23.1897 29.04H125.136C125.936 29.04 126.702 29.3576 127.268 29.923C127.833 30.4884 128.151 31.2553 128.151 32.0549V175.344C128.151 176.143 127.833 176.91 127.268 177.475C126.702 178.041 125.936 178.358 125.136 178.358ZM23.1897 29.1456C22.4255 29.147 21.6931 29.4512 21.1527 29.9915C20.6124 30.5319 20.3082 31.2643 20.3068 32.0285V175.344C20.3082 176.108 20.6124 176.84 21.1527 177.38C21.6931 177.921 22.4255 178.225 23.1897 178.226H125.136C125.9 178.225 126.633 177.921 127.173 177.38C127.713 176.84 128.017 176.108 128.019 175.344V32.0285C128.017 31.2643 127.713 30.5319 127.173 29.9915C126.633 29.4512 125.9 29.147 125.136 29.1456H23.1897Z" fill="#EBEBEB"/>
<path d="M239.348 178.358H137.391C136.592 178.357 135.826 178.039 135.261 177.474C134.695 176.909 134.377 176.143 134.376 175.344V32.0285C134.384 31.2339 134.705 30.4746 135.27 29.9152C135.834 29.3558 136.596 29.0414 137.391 29.04H239.348C240.141 29.0428 240.901 29.358 241.463 29.9174C242.026 30.4768 242.345 31.2353 242.352 32.0285V175.344C242.352 176.141 242.036 176.907 241.473 177.472C240.91 178.037 240.145 178.356 239.348 178.358ZM137.391 29.1456C136.627 29.147 135.894 29.4512 135.354 29.9915C134.814 30.5319 134.509 31.2643 134.508 32.0285V175.344C134.509 176.108 134.814 176.84 135.354 177.38C135.894 177.921 136.627 178.225 137.391 178.226H239.348C240.112 178.225 240.844 177.921 241.385 177.38C241.925 176.84 242.229 176.108 242.231 175.344V32.0285C242.229 31.2643 241.925 30.5319 241.385 29.9915C240.844 29.4512 240.112 29.147 239.348 29.1456H137.391Z" fill="#EBEBEB"/>
<path d="M94.7867 51.0999H27.699V201.907H94.7867V51.0999Z" fill="#F0F0F0"/>
<path d="M94.7867 51.0999H29.114V201.907H94.7867V51.0999Z" fill="#F5F5F5"/>
<path d="M90.7844 198.486L90.7844 54.5213H33.1163L33.1163 198.486H90.7844Z" fill="#EBEBEB"/>
<path d="M80.615 73.6613V79.7914H43.2854V73.6613C43.2854 70.8144 44.4163 68.0841 46.4294 66.0711C48.4424 64.058 51.1727 62.9271 54.0196 62.9271H69.886C72.732 62.9285 75.461 64.06 77.4729 66.0729C79.4848 68.0858 80.615 70.8153 80.615 73.6613Z" fill="#FAFAFA"/>
<path d="M85.1189 184.071V160.607C85.1189 157.589 82.6722 155.142 79.6541 155.142H44.2517C41.2336 155.142 38.7869 157.589 38.7869 160.607V184.071C38.7869 187.09 41.2336 189.536 44.2517 189.536H79.6541C82.6722 189.536 85.1189 187.09 85.1189 184.071Z" fill="#F0F0F0"/>
<path d="M44.2464 148.416H53.7557C56.7738 148.416 59.2205 145.969 59.2205 142.951L59.2205 94.1688C59.2205 91.1507 56.7738 88.704 53.7557 88.704H44.2464C41.2283 88.704 38.7816 91.1507 38.7816 94.1688L38.7816 142.951C38.7816 145.969 41.2283 148.416 44.2464 148.416Z" fill="#F0F0F0"/>
<path d="M70.1448 148.416H79.6541C82.6722 148.416 85.1189 145.969 85.1189 142.951V94.1688C85.1189 91.1507 82.6722 88.704 79.6541 88.704H70.1448C67.1267 88.704 64.68 91.1507 64.68 94.1688V142.951C64.68 145.969 67.1267 148.416 70.1448 148.416Z" fill="#F0F0F0"/>
<path d="M80.615 120.03C80.615 120.708 80.816 121.371 81.1925 121.934C81.569 122.498 82.1042 122.937 82.7304 123.196C83.3565 123.455 84.0455 123.523 84.7102 123.391C85.375 123.259 85.9855 122.933 86.4648 122.453C86.944 121.974 87.2704 121.363 87.4026 120.699C87.5348 120.034 87.467 119.345 87.2076 118.719C86.9482 118.093 86.509 117.558 85.9455 117.181C85.382 116.805 84.7195 116.604 84.0417 116.604C83.5917 116.604 83.1461 116.692 82.7304 116.864C82.3146 117.037 81.9369 117.289 81.6187 117.607C81.3005 117.925 81.048 118.303 80.8758 118.719C80.7036 119.135 80.615 119.58 80.615 120.03Z" fill="white"/>
<path d="M90.7791 198.486L90.7791 54.5213H89.7389L89.7389 198.486H90.7791Z" fill="#F0F0F0"/>
<path d="M224.759 137.892H210.191V201.907H224.759V137.892Z" fill="#E6E6E6"/>
<path d="M219.321 201.907H224.754V193.068H213.624L219.321 201.907Z" fill="#EBEBEB"/>
<path d="M198.016 137.892H183.448V201.907H198.016V137.892Z" fill="#E6E6E6"/>
<path d="M224.754 137.892H193.269V198.866H224.754V137.892Z" fill="#EBEBEB"/>
<path d="M198.707 201.907H193.269V193.068H204.405L198.707 201.907Z" fill="#EBEBEB"/>
<path d="M220.54 160.612H197.488V175.872H220.54V160.612Z" fill="#FAFAFA"/>
<path d="M220.54 179.129H197.488V194.388H220.54V179.129Z" fill="#FAFAFA"/>
<path d="M205.624 159.287H212.399V160.185C212.399 160.729 212.182 161.252 211.797 161.637C211.412 162.022 210.889 162.239 210.345 162.239H207.705C207.16 162.239 206.637 162.022 206.252 161.637C205.867 161.252 205.651 160.729 205.651 160.185V159.287H205.624Z" fill="#EBEBEB"/>
<path d="M220.54 142.09H197.488V157.349H220.54V142.09Z" fill="#FAFAFA"/>
<path d="M205.624 140.77H212.399V141.668C212.399 142.212 212.182 142.735 211.797 143.12C211.412 143.505 210.889 143.722 210.345 143.722H207.705C207.16 143.722 206.637 143.505 206.252 143.12C205.867 142.735 205.651 142.212 205.651 141.668V140.77H205.624Z" fill="#EBEBEB"/>
<path d="M205.624 177.809H212.399V178.707C212.399 179.252 212.182 179.774 211.797 180.159C211.412 180.544 210.889 180.761 210.345 180.761H207.705C207.16 180.761 206.637 180.544 206.252 180.159C205.867 179.774 205.651 179.252 205.651 178.707V177.809H205.624Z" fill="#EBEBEB"/>
<path d="M127.227 201.907H107.432L107.786 129.144L127.227 135.86V201.907Z" fill="#EBEBEB"/>
<path d="M167.239 201.907H110.125L107.432 124.608H164.541L167.239 201.907Z" fill="#E0E0E0"/>
<path d="M171.347 201.907H111.915L109.222 124.608H168.649L171.347 201.907Z" fill="#F5F5F5"/>
<path d="M117.691 192.852L115.632 134.16C115.621 133.711 115.699 133.265 115.862 132.848C116.024 132.43 116.269 132.049 116.58 131.727C116.892 131.404 117.264 131.147 117.676 130.97C118.088 130.793 118.531 130.7 118.979 130.696H159.783C160.581 130.689 161.35 130.995 161.925 131.549C162.5 132.103 162.834 132.86 162.856 133.658L164.905 192.356C164.915 192.804 164.837 193.25 164.673 193.667C164.51 194.084 164.265 194.465 163.953 194.787C163.641 195.109 163.268 195.366 162.856 195.542C162.443 195.718 162 195.811 161.552 195.814H120.764C119.966 195.821 119.197 195.515 118.622 194.961C118.048 194.407 117.713 193.65 117.691 192.852Z" fill="white"/>
<path d="M220.445 43.7079H116.551V97.3051H220.445V43.7079Z" fill="#E6E6E6"/>
<path d="M222.943 43.7079H117.718V97.3051H222.943V43.7079Z" fill="#F0F0F0"/>
<path d="M220.445 97.3104H116.551V98.5354H220.445V97.3104Z" fill="#E6E6E6"/>
<path d="M227.103 97.3104H121.878V98.5354H227.103V97.3104Z" fill="#F0F0F0"/>
<path d="M219.442 93.8098V47.2032L121.213 47.2032V93.8098H219.442Z" fill="#FAFAFA"/>
<path d="M138.394 93.815L148.125 47.2085H163.31L153.579 93.815H138.394Z" fill="white"/>
<path d="M122.834 90.3302C122.768 90.3302 122.705 90.3041 122.658 90.2575C122.612 90.211 122.586 90.1479 122.586 90.0821V49.4789C122.586 49.4131 122.612 49.3499 122.658 49.3034C122.705 49.2569 122.768 49.2307 122.834 49.2307C122.9 49.2307 122.963 49.2569 123.009 49.3034C123.056 49.3499 123.082 49.4131 123.082 49.4789V90.0821C123.082 90.1479 123.056 90.211 123.009 90.2575C122.963 90.3041 122.9 90.3302 122.834 90.3302Z" fill="#F0F0F0"/>
<path d="M156.842 93.815L166.573 47.2085H172.492L162.761 93.815H156.842Z" fill="white"/>
<path d="M219.447 93.8098V47.2032H219.004V93.8098H219.447Z" fill="#E6E6E6"/>
<path opacity="0.6" d="M223.766 52.4779H119.877L119.555 48.5655H223.444L223.766 52.4779Z" fill="#EBEBEB"/>
<path opacity="0.6" d="M223.766 54.685H119.877L119.555 50.7725H223.444L223.766 54.685Z" fill="#EBEBEB"/>
<path opacity="0.6" d="M223.766 56.892H119.877L119.555 52.9795H223.444L223.766 56.892Z" fill="#EBEBEB"/>
<path opacity="0.6" d="M223.766 59.099H119.877L119.555 55.1866H223.444L223.766 59.099Z" fill="#EBEBEB"/>
<path opacity="0.6" d="M223.766 61.3061H119.877L119.555 57.3936H223.444L223.766 61.3061Z" fill="#EBEBEB"/>
<path opacity="0.6" d="M223.766 63.5131H119.877L119.555 59.6006H223.444L223.766 63.5131Z" fill="#EBEBEB"/>
<path d="M132 225.752C188.539 225.752 234.374 223.076 234.374 219.775C234.374 216.474 188.539 213.798 132 213.798C75.4603 213.798 29.626 216.474 29.626 219.775C29.626 223.076 75.4603 225.752 132 225.752Z" fill="#F5F5F5"/>
<path d="M105.421 70.224C103.715 66.6442 99.924 67.8374 100.241 64.7856C100.558 61.7338 97.5058 57.4886 92.8488 59.8277C88.1919 62.1667 90.7738 67.6949 90.7738 67.6949C90.7738 67.6949 88.2341 77.3309 92.5531 80.3669C95.9957 82.7693 103.441 80.6626 102.311 77.2622C101.181 73.8619 107.121 73.8038 105.421 70.224Z" fill="#263238"/>
<path d="M102.585 79.9181C102.559 79.9177 102.533 79.9095 102.512 79.8945C102.49 79.8794 102.473 79.8582 102.464 79.8336C101.239 76.5811 102.897 75.0182 104.359 73.6402C105.516 72.5525 106.514 71.6126 105.986 70.0234C105.368 68.1754 104.058 67.7054 102.907 67.2883C101.756 66.8712 100.748 66.5069 100.843 64.8965C100.862 63.985 100.65 63.0834 100.227 62.2757C99.8047 61.4679 99.1845 60.7802 98.4246 60.2765C97.395 59.627 95.6895 59.1202 93.4086 60.3874C93.3778 60.4042 93.3415 60.408 93.3079 60.3981C93.2742 60.3882 93.2459 60.3654 93.229 60.3346C93.2122 60.3038 93.2084 60.2675 93.2183 60.2339C93.2282 60.2002 93.251 60.1719 93.2818 60.155C95.151 59.099 97.0254 59.099 98.5618 60.0547C99.3655 60.5794 100.021 61.3015 100.466 62.1521C100.91 63.0026 101.129 63.953 101.102 64.9123C101.017 66.3274 101.888 66.6389 102.992 67.0243C104.095 67.4098 105.568 67.9536 106.228 69.923C106.814 71.6707 105.7 72.7162 104.539 73.8197C103.066 75.203 101.545 76.6392 102.707 79.7227C102.719 79.7564 102.717 79.7934 102.702 79.8259C102.688 79.8585 102.661 79.884 102.627 79.897L102.585 79.9181Z" fill="#263238"/>
<path d="M81.0321 95.2829C80.8843 95.5469 80.7945 95.6947 80.6731 95.8848L80.3299 96.4128C80.0975 96.756 79.8547 97.0834 79.6065 97.4107C79.1057 98.0622 78.568 98.6845 77.9961 99.2746C76.8262 100.478 75.5017 101.52 74.0572 102.374C72.5566 103.258 70.9096 103.866 69.1943 104.169C68.3229 104.321 67.4385 104.384 66.5543 104.359C66.1161 104.359 65.6831 104.328 65.2555 104.264L64.9334 104.227H64.7697L64.5585 104.19C64.2736 104.142 63.9929 104.071 63.719 103.979C62.7998 103.65 61.9429 103.168 61.1846 102.553C60.5308 102.027 59.9183 101.452 59.3524 100.832C58.3126 99.6784 57.3679 98.4424 56.5276 97.1362C55.6987 95.8531 54.9436 94.549 54.2467 93.229C53.5497 91.909 52.9161 90.589 52.3406 89.1528L54.5371 88.0387C55.3079 89.2162 56.1211 90.4253 56.9447 91.5763C57.7684 92.7274 58.6185 93.8784 59.5108 94.9555C60.3679 96.015 61.2939 97.0169 62.2828 97.9546C62.7364 98.3783 63.2218 98.7666 63.7348 99.1162C64.1321 99.3971 64.5726 99.6111 65.039 99.7498C65.113 99.7707 65.1892 99.7831 65.266 99.7867H65.4719H65.6937C65.9874 99.8026 66.2817 99.8026 66.5755 99.7867C67.1584 99.7601 67.7379 99.6824 68.3073 99.5544C69.4563 99.2765 70.5528 98.8147 71.5545 98.1869C72.6028 97.5182 73.5625 96.7199 74.411 95.8109C74.853 95.3507 75.2706 94.8678 75.6623 94.3642C75.8577 94.116 76.0425 93.8362 76.222 93.5986L76.486 93.2131L76.6972 92.8858L81.0321 95.2829Z" fill="#B65B52"/>
<path d="M81.1536 89.8762C76.7131 90.0926 75.6201 92.9491 75.6201 92.9491L80.747 100.764C80.747 100.764 82.9382 98.4086 83.5296 95.7739C84.142 93.0283 84.1684 89.7283 81.1536 89.8762Z" fill="#263238"/>
<path d="M54.7642 88.741L54.5266 84.517L50.4082 87.5846C50.4082 87.5846 51.4272 89.76 53.3861 90.2246L54.7642 88.741Z" fill="#B55B52"/>
<path d="M51.9657 81.18L49.3152 84.0206L50.4081 87.5846L54.5265 84.517L51.9657 81.18Z" fill="#B55B52"/>
<path d="M104.597 214.632L99.8026 215.091L97.3579 203.919L102.157 203.46L104.597 214.632Z" fill="#B55B52"/>
<path d="M148.674 200.165L144.968 203.391L136.488 196.02L140.195 192.789L148.674 200.165Z" fill="#B55B52"/>
<path d="M143.088 202.261L146.404 197.847C146.458 197.769 146.539 197.714 146.632 197.692C146.724 197.669 146.821 197.681 146.905 197.725L150.718 199.769C150.812 199.824 150.893 199.899 150.956 199.989C151.019 200.079 151.061 200.181 151.081 200.288C151.101 200.396 151.098 200.507 151.072 200.613C151.045 200.719 150.997 200.818 150.929 200.904C149.746 202.425 149.102 203.1 147.645 205.044C146.747 206.237 144.931 209.009 143.695 210.656C142.46 212.304 140.786 211.184 141.155 210.408C142.819 206.849 142.908 204.764 142.829 203.09C142.816 202.792 142.908 202.499 143.088 202.261Z" fill="#263238"/>
<path d="M99.2007 213.645H104.966C105.07 213.645 105.171 213.679 105.253 213.742C105.335 213.805 105.394 213.893 105.421 213.993L106.677 218.555C106.708 218.663 106.713 218.776 106.691 218.886C106.67 218.996 106.624 219.099 106.556 219.188C106.487 219.277 106.399 219.348 106.298 219.397C106.198 219.446 106.087 219.47 105.975 219.468C103.958 219.432 102.976 219.315 100.436 219.315C98.8786 219.315 94.8447 219.479 92.6905 219.479C90.5362 219.479 90.1402 217.367 91.0167 217.156C94.9239 216.29 97.1785 215.097 98.4087 213.956C98.6249 213.758 98.9072 213.647 99.2007 213.645Z" fill="#263238"/>
<path opacity="0.2" d="M97.3633 203.919L98.6199 209.679H103.52L102.158 203.46L97.3633 203.919Z" fill="black"/>
<path opacity="0.2" d="M140.195 192.794L136.488 196.025L140.86 199.822L144.566 196.59L140.195 192.794Z" fill="black"/>
<path d="M77.785 90.816C77.785 90.816 75.7416 92.2205 87.2573 118.457L106.397 113.177C104.1 105.526 102.87 100.753 102.538 83.8358C99.7128 84.0232 96.9053 84.4149 94.1371 85.008C91.187 85.6023 88.2827 86.4051 85.4462 87.4104C81.7978 88.7568 77.785 90.816 77.785 90.816Z" fill="#263238"/>
<path d="M90.816 75.504C90.9744 78.4344 91.7294 83.6774 94.1582 85.008C94.1582 85.008 96.0749 93.8362 89.0683 102.791C81.6763 96.2966 85.4673 87.4104 85.4673 87.4104C88.3977 85.8264 87.7325 83.5296 86.6342 81.5232L90.816 75.504Z" fill="#B55B52"/>
<path d="M94.1372 85.008C94.1372 85.008 96.0539 93.8362 89.0473 102.791C81.6553 96.2966 85.4463 87.4104 85.4463 87.4104C85.4463 87.4104 86.534 90.1402 88.7411 91.0747C90.1508 90.2563 92.9967 87.6797 94.1372 85.008Z" fill="#F5F5F5"/>
<path d="M89.3164 90.684C89.3164 90.684 93.2553 89.2531 96.1804 90.3091C96.4391 88.7251 96.8087 85.3882 95.5679 84.5011C95.0622 84.5168 94.5722 84.6802 94.1582 84.971L89.3164 90.684Z" fill="white"/>
<path d="M88.176 90.7421C88.176 90.7421 85.5941 90.1402 83.0385 92.664C82.8537 91.08 82.9752 88.44 84.2529 87.5371C84.7 87.309 85.1849 87.1641 85.6838 87.1094C86.2994 88.4546 87.1425 89.6835 88.176 90.7421Z" fill="white"/>
<path opacity="0.2" d="M90.3408 76.1482C90.7191 77.8219 90.7371 79.5569 90.3936 81.2381C90.1507 82.3997 88.8888 83.2498 87.4843 83.7461C87.3169 82.9551 87.0246 82.1958 86.6184 81.4968L90.3408 76.1482Z" fill="black"/>
<path d="M82.4471 65.5565C78.3182 71.2272 82.4049 78.7565 85.9425 78.5981C88.5825 78.4978 92.0198 75.1555 91.5921 72.1512C90.9532 67.6474 84.5222 62.7053 82.4471 65.5565Z" fill="#263238"/>
<path d="M94.9081 72.0615C93.926 76.8135 93.6092 78.8357 90.8478 80.9952C86.6924 84.2424 81.1062 82.1304 80.6574 77.22C80.2561 72.8007 81.9351 65.7835 86.8719 64.453C87.946 64.1449 89.0817 64.1221 90.1672 64.387C91.2527 64.6519 92.2504 65.1952 93.0617 65.9634C93.8731 66.7316 94.4702 67.6981 94.7939 68.7675C95.1177 69.8369 95.1571 70.9722 94.9081 72.0615Z" fill="#B55B52"/>
<path d="M90.8159 64.717C90.6206 66.1109 93.4559 70.0286 96.6239 69.997C98.1657 69.997 98.6409 67.6315 97.1519 65.4931C95.1508 62.663 91.1222 62.7158 90.8159 64.717Z" fill="#613EEA"/>
<path d="M84.327 65.6198C83.9838 68.0434 89.079 74.448 94.5226 74.3582C97.1943 74.316 97.6906 68.2282 95.7159 65.9419C91.8721 61.4698 84.818 62.1562 84.327 65.6198Z" fill="#263238"/>
<path d="M92.9755 72.9802C91.3123 73.3181 92.2786 75.5674 93.2871 76.7078C94.5754 75.8314 95.605 72.4469 92.9755 72.9802Z" fill="#263238"/>
<path d="M88.5984 67.6263C84.6226 69.2789 80.7206 65.0549 79.5854 63.1858C82.4578 63.5976 88.3872 59.6799 90.8266 64.6378C92.5426 68.112 88.5984 67.6263 88.5984 67.6263Z" fill="#263238"/>
<path d="M87.7114 67.3358C85.008 69.6907 80.7787 67.452 79.3743 66.2798C81.7608 65.8258 85.404 61.1741 88.6723 64.379C90.9691 66.6547 87.7114 67.3358 87.7114 67.3358Z" fill="#263238"/>
<path d="M96.0642 75.6518C95.8306 76.5643 95.2512 77.3501 94.4486 77.843C93.3926 78.4872 92.5372 77.6266 92.5742 76.4544C92.6058 75.3984 93.2025 73.8144 94.401 73.6243C94.6614 73.5895 94.9264 73.6217 95.1708 73.718C95.4152 73.8143 95.631 73.9715 95.7976 74.1746C95.9642 74.3777 96.0762 74.6201 96.1228 74.8786C96.1695 75.1371 96.1493 75.4033 96.0642 75.6518Z" fill="#B55B52"/>
<path d="M87.2572 118.43C87.2572 118.43 85.2772 156.848 88.0228 171.352C90.8793 186.442 96.2649 208.006 96.2649 208.006L105.378 207.562C105.378 207.562 101.973 180.206 101.154 168.543C100.045 152.471 101.26 114.55 101.26 114.55L87.2572 118.43Z" fill="#613EEA"/>
<path opacity="0.4" d="M87.2572 118.43C87.2572 118.43 85.2772 156.848 88.0228 171.352C90.8793 186.442 96.2649 208.006 96.2649 208.006L105.378 207.562C105.378 207.562 101.973 180.206 101.154 168.543C100.045 152.471 101.26 114.55 101.26 114.55L87.2572 118.43Z" fill="black"/>
<path opacity="0.2" d="M100.917 129.006C99.5808 125.448 98.3822 123.489 98.1446 127.032C97.6483 134.529 98.7624 143.099 100.705 147.349C100.721 140.976 100.816 134.508 100.917 129.006Z" fill="black"/>
<path d="M106.017 208.006L95.6314 208.507L94.4011 204.711L105.658 203.829L106.017 208.006Z" fill="#613EEA"/>
<path d="M92.3103 117.031C92.3103 117.031 103.256 148.416 110.722 165.744C116.751 179.742 138.806 199.299 138.806 199.299L144.017 194.975C144.017 194.975 128.262 172.682 124.091 163.189C110.732 132.797 114.697 119.925 106.397 113.135L92.3103 117.031Z" fill="#613EEA"/>
<path opacity="0.4" d="M92.3103 117.031C92.3103 117.031 103.256 148.416 110.722 165.744C116.751 179.742 138.806 199.299 138.806 199.299L144.017 194.975C144.017 194.975 128.262 172.682 124.091 163.189C110.732 132.797 114.697 119.925 106.397 113.135L92.3103 117.031Z" fill="black"/>
<path d="M144.44 194.927L138.605 199.975L135.749 197.868L142.618 192.123L144.44 194.927Z" fill="#613EEA"/>
<path d="M106.397 111.936L107.696 113.404C107.796 113.515 107.696 113.694 107.453 113.752L87.3891 119.307C87.2202 119.354 87.0565 119.307 87.0143 119.207L86.4071 117.554C86.3648 117.438 86.4915 117.295 86.6816 117.242L106.065 111.883C106.12 111.863 106.179 111.858 106.238 111.867C106.296 111.876 106.351 111.9 106.397 111.936Z" fill="#613EEA"/>
<path d="M104.349 114.814L104.877 114.666C104.982 114.666 105.046 114.565 105.019 114.502L104.211 112.358C104.211 112.295 104.085 112.269 103.984 112.295L103.456 112.438C103.356 112.469 103.287 112.543 103.314 112.607L104.122 114.75C104.137 114.814 104.243 114.84 104.349 114.814Z" fill="#613EEA"/>
<path opacity="0.4" d="M104.349 114.814L104.877 114.666C104.982 114.666 105.046 114.565 105.019 114.502L104.211 112.358C104.211 112.295 104.085 112.269 103.984 112.295L103.456 112.438C103.356 112.469 103.287 112.543 103.314 112.607L104.122 114.75C104.137 114.814 104.243 114.84 104.349 114.814Z" fill="black"/>
<path d="M88.8887 119.09L89.4167 118.943C89.5223 118.916 89.5857 118.842 89.5593 118.779L88.7514 116.635C88.7514 116.572 88.6247 116.545 88.5244 116.572L87.9964 116.714C87.8961 116.746 87.8274 116.82 87.8538 116.883L88.6617 119.027C88.7039 119.09 88.7831 119.117 88.8887 119.09Z" fill="#613EEA"/>
<path opacity="0.4" d="M88.8887 119.09L89.4167 118.943C89.5223 118.916 89.5857 118.842 89.5593 118.779L88.7514 116.635C88.7514 116.572 88.6247 116.545 88.5244 116.572L87.9964 116.714C87.8961 116.746 87.8274 116.82 87.8538 116.883L88.6617 119.027C88.7039 119.09 88.7831 119.117 88.8887 119.09Z" fill="black"/>
<path d="M96.6241 116.952L97.1521 116.804C97.2577 116.778 97.321 116.704 97.2946 116.64L96.4868 114.497C96.4868 114.433 96.3601 114.407 96.2597 114.433L95.7317 114.576C95.6314 114.608 95.5628 114.682 95.5892 114.745L96.397 116.889C96.4076 116.952 96.5132 116.978 96.6241 116.952Z" fill="#613EEA"/>
<path opacity="0.4" d="M96.6241 116.952L97.1521 116.804C97.2577 116.778 97.321 116.704 97.2946 116.64L96.4868 114.497C96.4868 114.433 96.3601 114.407 96.2597 114.433L95.7317 114.576C95.6314 114.608 95.5628 114.682 95.5892 114.745L96.397 116.889C96.4076 116.952 96.5132 116.978 96.6241 116.952Z" fill="black"/>
<path d="M87.4902 72.5355C87.553 72.1469 87.3985 71.7987 87.1451 71.7578C86.8918 71.7169 86.6356 71.9988 86.5728 72.3874C86.5101 72.776 86.6646 73.1242 86.9179 73.1651C87.1713 73.206 87.4275 72.9241 87.4902 72.5355Z" fill="#263238"/>
<path d="M83.0966 71.9822C83.0438 72.3677 82.7903 72.6581 82.5369 72.6317C82.2835 72.6053 82.1251 72.2568 82.1779 71.8661C82.2307 71.4754 82.4894 71.1902 82.7428 71.2219C82.9963 71.2536 83.1547 71.5915 83.0966 71.9822Z" fill="#263238"/>
<path d="M82.8484 71.28L81.9561 70.8998C81.9561 70.8998 82.3309 71.6602 82.8484 71.28Z" fill="#263238"/>
<path d="M84.1633 72.7901C83.6875 73.6364 83.1016 74.4158 82.4209 75.108C82.6004 75.2735 82.814 75.3975 83.0466 75.4714C83.2792 75.5453 83.5252 75.5672 83.7673 75.5357L84.1633 72.7901Z" fill="#A02724"/>
<path d="M84.8654 77.22C84.8456 77.21 84.8296 77.1937 84.82 77.1736C84.8105 77.1535 84.8079 77.1308 84.8126 77.1091C84.8145 77.0938 84.8195 77.079 84.8272 77.0657C84.8349 77.0523 84.8453 77.0406 84.8575 77.0313C84.8698 77.0219 84.8839 77.0151 84.8988 77.0113C84.9138 77.0074 84.9293 77.0066 84.9446 77.0088C85.4302 77.0757 85.9248 77.029 86.3893 76.8723C86.8538 76.7156 87.2756 76.4533 87.6216 76.1059C87.6433 76.0843 87.6727 76.0722 87.7034 76.0722C87.7341 76.0722 87.7635 76.0843 87.7852 76.1059C87.7958 76.1163 87.8041 76.1286 87.8099 76.1422C87.8156 76.1558 87.8185 76.1704 87.8185 76.1851C87.8185 76.1999 87.8156 76.2145 87.8099 76.2281C87.8041 76.2417 87.7958 76.254 87.7852 76.2643C87.4158 76.6448 86.9614 76.9321 86.4593 77.1029C85.9573 77.2736 85.4218 77.3228 84.8971 77.2464C84.8836 77.2418 84.8724 77.2324 84.8654 77.22Z" fill="#263238"/>
<path d="M89.3323 70.7045C89.2986 70.6866 89.271 70.659 89.2531 70.6253C89.1208 70.3703 88.9288 70.1512 88.6934 69.9866C88.458 69.8221 88.1863 69.7169 87.9014 69.6802C87.8713 69.6789 87.8418 69.6715 87.8147 69.6584C87.7876 69.6453 87.7634 69.6268 87.7436 69.6041C87.7239 69.5814 87.7089 69.5549 87.6998 69.5262C87.6906 69.4975 87.6873 69.4672 87.6902 69.4373C87.6956 69.3761 87.7245 69.3194 87.7707 69.2791C87.817 69.2387 87.8771 69.2178 87.9384 69.2208C88.2981 69.262 88.6424 69.3903 88.9414 69.5946C89.2404 69.7988 89.4851 70.0728 89.6544 70.393C89.6788 70.4376 89.6879 70.4891 89.6803 70.5394C89.6727 70.5897 89.6487 70.6361 89.6121 70.6715C89.5756 70.7069 89.5284 70.7293 89.4778 70.7353C89.4272 70.7412 89.3761 70.7304 89.3323 70.7045Z" fill="#263238"/>
<path d="M81.312 69.696H81.2803C81.2371 69.6525 81.2129 69.5937 81.2129 69.5323C81.2129 69.471 81.2371 69.4122 81.2803 69.3686C81.5162 69.0857 81.8157 68.8626 82.1543 68.7176C82.493 68.5726 82.8611 68.5098 83.2287 68.5344C83.2584 68.5382 83.2871 68.5481 83.313 68.5633C83.3388 68.5785 83.3613 68.5989 83.3791 68.6231C83.3969 68.6472 83.4096 68.6748 83.4164 68.704C83.4232 68.7333 83.424 68.7636 83.4187 68.7931C83.4096 68.8544 83.3768 68.9096 83.3275 68.9471C83.2782 68.9846 83.2162 69.0013 83.1547 68.9938C82.8643 68.978 82.5743 69.031 82.3082 69.1484C82.0422 69.2658 81.8076 69.4444 81.6235 69.6696C81.5836 69.7109 81.53 69.7364 81.4727 69.7413C81.4155 69.7461 81.3584 69.73 81.312 69.696Z" fill="#263238"/>
<path d="M104.232 86.4072C105.167 87.5002 106.223 88.6723 107.274 89.76C108.324 90.8477 109.386 91.9354 110.526 92.9544C112.693 94.9912 115.072 96.7897 117.622 98.3189C118.23 98.669 118.856 98.9863 119.497 99.2693C120.024 99.5043 120.582 99.6608 121.155 99.7339C122.42 99.8641 123.697 99.707 124.893 99.2746C126.243 98.806 127.529 98.1711 128.721 97.3843C129.334 96.9778 129.951 96.5554 130.548 96.1013C131.145 95.6472 131.736 95.1456 132.253 94.6862L134.128 96.2702C133.628 96.9552 133.084 97.6077 132.502 98.2238C131.929 98.8413 131.323 99.4265 130.685 99.9768C129.372 101.123 127.91 102.087 126.34 102.844C124.622 103.674 122.729 104.077 120.822 104.016C119.814 103.978 118.818 103.782 117.871 103.435C117.045 103.13 116.238 102.777 115.452 102.379C112.484 100.812 109.724 98.8785 107.237 96.624C106.001 95.531 104.797 94.417 103.667 93.2342C103.102 92.6429 102.543 92.0462 101.994 91.4338C101.445 90.8213 100.938 90.2194 100.367 89.533L104.232 86.4072Z" fill="#B65B52"/>
<path d="M133.056 97.1942L135.823 94.9872L132.306 92.5848C132.306 92.5848 130.68 94.6968 131.161 96.6662L133.056 97.1942Z" fill="#B55B52"/>
<path d="M138.04 92.4792L135.448 90.3936L132.322 92.5848L135.838 94.9872L138.04 92.4792Z" fill="#B55B52"/>
<path d="M102.538 83.7936C104.602 83.8464 105.854 85.9056 105.854 85.9056L102.353 94.2163C102.353 94.2163 99.1532 92.2575 99.3327 89.5699C99.5122 86.7979 100.183 83.7408 102.538 83.7936Z" fill="#263238"/>
<path d="M141.541 204.616C141.49 204.58 141.442 204.539 141.398 204.494C141.346 204.449 141.307 204.39 141.286 204.324C141.265 204.258 141.262 204.187 141.277 204.12C141.419 203.512 143.072 202.879 143.262 202.81C143.283 202.803 143.305 202.801 143.327 202.806C143.348 202.81 143.368 202.821 143.384 202.836C143.395 202.856 143.401 202.878 143.401 202.9C143.401 202.922 143.395 202.944 143.384 202.963C143.12 203.56 142.586 204.579 141.979 204.7C141.828 204.73 141.67 204.7 141.541 204.616ZM143.077 203.132C142.423 203.401 141.578 203.85 141.493 204.188C141.486 204.218 141.488 204.25 141.498 204.279C141.508 204.308 141.527 204.333 141.551 204.352C141.599 204.409 141.66 204.452 141.73 204.478C141.799 204.504 141.874 204.511 141.947 204.5C142.285 204.41 142.697 203.914 143.088 203.132H143.077Z" fill="#613EEA"/>
<path d="M141.219 203.016C141.18 202.992 141.145 202.964 141.113 202.932C141.05 202.858 141.016 202.764 141.016 202.668C141.016 202.571 141.05 202.477 141.113 202.404C141.159 202.327 141.22 202.26 141.293 202.208C141.365 202.156 141.448 202.12 141.536 202.103C142.227 201.949 143.341 202.768 143.389 202.805C143.405 202.817 143.418 202.833 143.427 202.851C143.435 202.87 143.438 202.89 143.436 202.91C143.434 202.931 143.426 202.95 143.413 202.966C143.4 202.982 143.382 202.994 143.363 203C142.893 203.227 141.694 203.322 141.219 203.016ZM143.014 202.863C142.596 202.538 142.086 202.354 141.557 202.335C141.501 202.344 141.448 202.366 141.402 202.399C141.357 202.432 141.319 202.475 141.293 202.525C141.219 202.652 141.251 202.715 141.293 202.757C141.515 203.005 142.475 203.027 143.051 202.868L143.014 202.863Z" fill="#613EEA"/>
<path d="M96.6239 214.595C96.2286 214.623 95.8341 214.529 95.494 214.326C95.4063 214.262 95.3345 214.179 95.2842 214.082C95.2338 213.986 95.2062 213.88 95.2036 213.771C95.1963 213.711 95.2057 213.65 95.2309 213.595C95.256 213.54 95.2959 213.494 95.3461 213.46C95.8741 213.101 97.833 213.988 98.2237 214.178C98.2455 214.186 98.2643 214.201 98.2775 214.221C98.2907 214.24 98.2977 214.263 98.2977 214.286C98.2977 214.31 98.2907 214.332 98.2775 214.352C98.2643 214.371 98.2455 214.386 98.2237 214.394C97.6992 214.519 97.1628 214.586 96.6239 214.595ZM95.7052 213.597C95.6258 213.591 95.5464 213.609 95.4781 213.65C95.4608 213.661 95.4471 213.677 95.4386 213.696C95.4302 213.714 95.4274 213.735 95.4306 213.756C95.4333 213.831 95.4532 213.905 95.4889 213.972C95.5246 214.039 95.5751 214.097 95.6365 214.141C95.9745 214.394 96.7717 214.431 97.8013 214.241C97.1469 213.921 96.447 213.704 95.7263 213.597H95.7052Z" fill="#613EEA"/>
<path d="M98.2081 214.394H98.1606C97.5111 214.125 96.1964 213.074 96.2703 212.531C96.2703 212.409 96.3706 212.261 96.6663 212.224C97.8068 212.087 98.2978 214.173 98.319 214.262C98.3237 214.282 98.3228 214.304 98.3163 214.323C98.3097 214.343 98.2979 214.36 98.282 214.373C98.2717 214.381 98.2598 214.388 98.2472 214.391C98.2345 214.395 98.2212 214.396 98.2081 214.394ZM96.7719 212.446H96.6927C96.5713 212.446 96.5079 212.494 96.5026 212.552C96.4604 212.868 97.3633 213.697 98.0286 214.062C97.8649 213.565 97.453 212.446 96.7614 212.446H96.7719Z" fill="#613EEA"/>
<path d="M87.2361 71.808L86.3438 71.4226C86.3438 71.4226 86.7186 72.1987 87.2361 71.808Z" fill="#263238"/>
<path d="M126.686 219.929H187.448C191.711 219.929 195.167 216.473 195.167 212.21L195.167 66.7194C195.167 62.4561 191.711 59 187.448 59H126.686C122.422 59 118.966 62.4561 118.966 66.7194L118.966 212.21C118.966 216.473 122.422 219.929 126.686 219.929Z" fill="#613EEA"/>
<path d="M119.447 107.729H120.482C121.281 107.729 121.928 107.081 121.928 106.282V87.5701C121.928 86.7711 121.281 86.1234 120.482 86.1234H119.447C118.648 86.1234 118 86.7711 118 87.5701V106.282C118 107.081 118.648 107.729 119.447 107.729Z" fill="#613EEA"/>
<path d="M195.326 96.6728H196.519C197.274 96.6728 197.886 96.0605 197.886 95.3053V87.4909C197.886 86.7356 197.274 86.1234 196.519 86.1234H195.326C194.57 86.1234 193.958 86.7356 193.958 87.4909V95.3053C193.958 96.0605 194.57 96.6728 195.326 96.6728Z" fill="#613EEA"/>
<path d="M195.326 110.617H196.519C197.274 110.617 197.886 110.005 197.886 109.25V101.435C197.886 100.68 197.274 100.068 196.519 100.068H195.326C194.57 100.068 193.958 100.68 193.958 101.435V109.25C193.958 110.005 194.57 110.617 195.326 110.617Z" fill="#613EEA"/>
<path d="M128.291 219.929H189.053C193.316 219.929 196.772 216.473 196.772 212.21L196.772 66.7194C196.772 62.4561 193.316 59 189.053 59H128.291C124.027 59 120.571 62.4561 120.571 66.7194L120.571 212.21C120.571 216.473 124.027 219.929 128.291 219.929Z" fill="#613EEA"/>
<path opacity="0.6" d="M128.291 219.929H189.053C193.316 219.929 196.772 216.473 196.772 212.21L196.772 66.7194C196.772 62.4561 193.316 59 189.053 59H128.291C124.027 59 120.571 62.4561 120.571 66.7194L120.571 212.21C120.571 216.473 124.027 219.929 128.291 219.929Z" fill="white"/>
<path opacity="0.3" d="M158.666 214.459C161.066 214.459 163.012 212.514 163.012 210.114C163.012 207.714 161.066 205.768 158.666 205.768C156.267 205.768 154.321 207.714 154.321 210.114C154.321 212.514 156.267 214.459 158.666 214.459Z" fill="#613EEA"/>
<path d="M122.409 202.568H194.935L194.935 71.2919H122.409L122.409 202.568Z" fill="white"/>
<path d="M152.832 113.564C152.646 113.565 152.463 113.51 152.308 113.407C152.153 113.304 152.031 113.158 151.96 112.986C151.888 112.814 151.869 112.624 151.905 112.442C151.941 112.259 152.03 112.091 152.162 111.959C152.294 111.827 152.462 111.738 152.645 111.702C152.828 111.666 153.017 111.685 153.189 111.756C153.361 111.828 153.508 111.949 153.61 112.105C153.713 112.26 153.768 112.443 153.767 112.629C153.767 112.877 153.668 113.115 153.493 113.29C153.318 113.465 153.08 113.564 152.832 113.564ZM152.832 112.217C152.75 112.216 152.67 112.239 152.602 112.284C152.533 112.329 152.48 112.393 152.448 112.468C152.416 112.543 152.407 112.626 152.422 112.706C152.438 112.786 152.476 112.86 152.534 112.918C152.591 112.976 152.664 113.016 152.744 113.032C152.825 113.049 152.908 113.041 152.983 113.01C153.059 112.979 153.123 112.926 153.169 112.858C153.214 112.79 153.239 112.711 153.239 112.629C153.239 112.575 153.229 112.522 153.209 112.472C153.189 112.422 153.159 112.376 153.121 112.338C153.084 112.3 153.039 112.269 152.989 112.249C152.939 112.228 152.886 112.217 152.832 112.217Z" fill="white"/>
<path opacity="0.3" d="M168.878 65.8376C168.879 65.5542 168.796 65.2768 168.639 65.0407C168.482 64.8046 168.259 64.6203 167.997 64.5114C167.736 64.4024 167.447 64.3737 167.169 64.4287C166.891 64.4837 166.636 64.6201 166.435 64.8206C166.235 65.021 166.099 65.2764 166.044 65.5545C165.989 65.8325 166.017 66.1207 166.126 66.3823C166.235 66.644 166.419 66.8674 166.656 67.0243C166.892 67.1811 167.169 67.2643 167.453 67.2632C167.831 67.2632 168.193 67.113 168.461 66.8457C168.728 66.5783 168.878 66.2157 168.878 65.8376Z" fill="#613EEA"/>
<path opacity="0.3" d="M162.521 64.4067H150.651C149.864 64.4067 149.226 65.045 149.226 65.8323V65.8376C149.226 66.625 149.864 67.2632 150.651 67.2632H162.521C163.308 67.2632 163.946 66.625 163.946 65.8376V65.8323C163.946 65.045 163.308 64.4067 162.521 64.4067Z" fill="#613EEA"/>
<path d="M128 144.058V132H131.022C131.948 132 132.683 132.273 133.227 132.82C133.772 133.361 134.044 134.079 134.044 134.974V141.084C134.044 141.973 133.772 142.691 133.227 143.238C132.683 143.785 131.948 144.058 131.022 144.058H128ZM130.205 141.887H131.022C131.283 141.887 131.485 141.815 131.627 141.67C131.768 141.52 131.839 141.325 131.839 141.084V134.974C131.839 134.733 131.768 134.54 131.627 134.395C131.485 134.245 131.283 134.17 131.022 134.17H130.205V141.887Z" fill="#171D33"/>
<path d="M135.955 144.058V135.215H137.997V144.058H135.955ZM135.955 134.572V132.482H137.997V134.572H135.955Z" fill="#171D33"/>
<path d="M142.525 147C141.654 147 140.959 146.727 140.442 146.18C139.925 145.633 139.666 144.915 139.666 144.026V143.672H141.708V144.186C141.708 144.428 141.779 144.621 141.92 144.765C142.062 144.915 142.263 144.99 142.525 144.99C142.786 144.99 142.988 144.915 143.129 144.765C143.271 144.621 143.342 144.428 143.342 144.186V141.582L143.701 142.048C143.532 142.391 143.29 142.659 142.974 142.852C142.664 143.045 142.28 143.141 141.822 143.141C141.468 143.141 141.125 143.064 140.793 142.908C140.466 142.753 140.197 142.474 139.985 142.072C139.772 141.665 139.666 141.084 139.666 140.328V137.82C139.666 137.064 139.772 136.483 139.985 136.076C140.197 135.668 140.466 135.39 140.793 135.24C141.125 135.084 141.468 135.006 141.822 135.006C142.28 135.006 142.664 135.103 142.974 135.296C143.29 135.483 143.532 135.751 143.701 136.1L143.342 136.566V135.215H145.384V144.058C145.384 144.647 145.264 145.162 145.024 145.601C144.79 146.046 144.458 146.389 144.028 146.63C143.603 146.877 143.102 147 142.525 147ZM142.525 141.132C142.786 141.132 142.988 141.059 143.129 140.915C143.271 140.765 143.342 140.569 143.342 140.328V137.82C143.342 137.579 143.271 137.386 143.129 137.241C142.988 137.091 142.786 137.016 142.525 137.016C142.263 137.016 142.062 137.091 141.92 137.241C141.779 137.386 141.708 137.579 141.708 137.82V140.328C141.708 140.569 141.779 140.765 141.92 140.915C142.062 141.059 142.263 141.132 142.525 141.132Z" fill="#171D33"/>
<path d="M147.314 144.058V135.215H149.356V144.058H147.314ZM147.314 134.572V132.482H149.356V134.572H147.314Z" fill="#171D33"/>
<path d="M152.727 144.058L151.224 132H153.478L154.344 140.344H154.083L155.438 132H157.219L158.575 140.344H158.314L159.179 132H161.434L159.931 144.058H157.546L156.157 136.807H156.517L155.112 144.058H152.727Z" fill="#613EEA"/>
<path d="M164.295 144.267C163.559 144.267 162.999 144.042 162.612 143.592C162.231 143.136 162.04 142.56 162.04 141.863C162.04 141.461 162.1 141.121 162.22 140.842C162.34 140.564 162.498 140.331 162.694 140.143C162.895 139.95 163.118 139.787 163.363 139.653C163.641 139.497 163.927 139.369 164.221 139.267C164.515 139.16 164.787 139.055 165.038 138.953C165.288 138.846 165.49 138.718 165.642 138.568C165.8 138.417 165.879 138.222 165.879 137.981V137.82C165.879 137.579 165.808 137.386 165.667 137.241C165.525 137.091 165.324 137.016 165.062 137.016C164.801 137.016 164.6 137.091 164.458 137.241C164.316 137.386 164.246 137.579 164.246 137.82V138.302H162.204V137.981C162.204 137.086 162.462 136.368 162.98 135.826C163.497 135.28 164.191 135.006 165.062 135.006C165.645 135.006 166.149 135.13 166.573 135.376C167.004 135.623 167.336 135.971 167.57 136.421C167.804 136.866 167.921 137.386 167.921 137.981V144.058H165.879V142.675L166.239 143.125C166.07 143.495 165.817 143.779 165.479 143.977C165.147 144.17 164.752 144.267 164.295 144.267ZM164.964 142.418C165.193 142.418 165.403 142.351 165.593 142.217C165.784 142.083 165.879 141.845 165.879 141.502V140.264C165.738 140.387 165.563 140.483 165.356 140.553C165.15 140.617 164.937 140.703 164.719 140.81C164.502 140.912 164.341 141.027 164.237 141.156C164.134 141.279 164.082 141.432 164.082 141.614C164.082 141.823 164.156 142.011 164.303 142.177C164.45 142.338 164.67 142.418 164.964 142.418Z" fill="#613EEA"/>
<path d="M169.725 144.058V132H171.767V144.058H169.725Z" fill="#613EEA"/>
<path d="M173.697 144.058V132H175.739V144.058H173.697Z" fill="#613EEA"/>
<path d="M180.267 144.267C179.684 144.267 179.178 144.144 178.748 143.897C178.323 143.645 177.994 143.297 177.759 142.852C177.525 142.407 177.408 141.887 177.408 141.293V137.981C177.408 137.386 177.525 136.866 177.759 136.421C177.994 135.971 178.323 135.623 178.748 135.376C179.178 135.13 179.684 135.006 180.267 135.006C181.144 135.006 181.838 135.28 182.35 135.826C182.867 136.368 183.126 137.086 183.126 137.981V140.151H179.189V138.302H181.084V137.82C181.084 137.579 181.013 137.386 180.871 137.241C180.73 137.091 180.528 137.016 180.267 137.016C180.006 137.016 179.804 137.091 179.663 137.241C179.521 137.386 179.45 137.579 179.45 137.82V141.453C179.45 141.695 179.521 141.89 179.663 142.04C179.804 142.185 180.006 142.257 180.267 142.257C180.528 142.257 180.73 142.185 180.871 142.04C181.013 141.89 181.084 141.695 181.084 141.453V141.132H183.126V141.293C183.126 142.182 182.867 142.9 182.35 143.447C181.838 143.994 181.144 144.267 180.267 144.267Z" fill="#613EEA"/>
<path d="M188.102 144.17C187.23 144.17 186.536 143.924 186.019 143.431C185.501 142.938 185.243 142.247 185.243 141.357V137.064H183.773V135.215H185.243V133.125H187.285V135.215H189V137.064H187.285V141.357C187.285 141.598 187.356 141.794 187.497 141.944C187.639 142.088 187.84 142.161 188.102 142.161H189V144.17H188.102Z" fill="#613EEA"/>
</svg>
